%TF.GenerationSoftware,KiCad,Pcbnew,9.0.9-9.0.9~ubuntu24.04.1*%
%TF.CreationDate,2026-08-14T00:59:39+09:00*%
%TF.ProjectId,tinygo-conf-2026,74696e79-676f-42d6-936f-6e662d323032,rev?*%
%TF.SameCoordinates,Original*%
%TF.FileFunction,Profile,NP*%
%FSLAX46Y46*%
G04 Gerber Fmt 4.6, Leading zero omitted, Abs format (unit mm)*
G04 Created by KiCad (PCBNEW 9.0.9-9.0.9~ubuntu24.04.1) date 2026-08-14 00:59:39*
%MOMM*%
%LPD*%
G01*
G04 APERTURE LIST*
%TA.AperFunction,Profile*%
%ADD10C,0.050000*%
%TD*%
%TA.AperFunction,Profile*%
%ADD11C,0.100000*%
%TD*%
G04 APERTURE END LIST*
D10*
X90000000Y-72000000D02*
G75*
G02*
X92000000Y-70000000I2000000J0D01*
G01*
X90000000Y-138000000D02*
X90000000Y-72000000D01*
X92000000Y-70000000D02*
X186000000Y-70000000D01*
X92000000Y-140000000D02*
G75*
G02*
X90000000Y-138000000I0J2000000D01*
G01*
X186000000Y-70000000D02*
G75*
G02*
X188000000Y-72000000I0J-2000000D01*
G01*
X186000000Y-140000000D02*
X92000000Y-140000000D01*
X188000000Y-72000000D02*
X188000000Y-138000000D01*
X188000000Y-138000000D02*
G75*
G02*
X186000000Y-140000000I-2000000J0D01*
G01*
D11*
%TO.C,D1*%
X93400000Y-71750000D02*
X97000000Y-71750000D01*
X93400000Y-74850000D02*
X93400000Y-71750000D01*
X97000000Y-71750000D02*
X97000000Y-74850000D01*
X97000000Y-74850000D02*
X93400000Y-74850000D01*
%TO.C,D3*%
X181000000Y-135450000D02*
X184600000Y-135450000D01*
X181000000Y-138550000D02*
X181000000Y-135450000D01*
X184600000Y-135450000D02*
X184600000Y-138550000D01*
X184600000Y-138550000D02*
X181000000Y-138550000D01*
%TO.C,D4*%
X93400000Y-135450000D02*
X97000000Y-135450000D01*
X93400000Y-138550000D02*
X93400000Y-135450000D01*
X97000000Y-135450000D02*
X97000000Y-138550000D01*
X97000000Y-138550000D02*
X93400000Y-138550000D01*
%TO.C,D2*%
X181000000Y-71750000D02*
X184600000Y-71750000D01*
X181000000Y-74850000D02*
X181000000Y-71750000D01*
X184600000Y-71750000D02*
X184600000Y-74850000D01*
X184600000Y-74850000D02*
X181000000Y-74850000D01*
%TD*%
M02*
