%TF.GenerationSoftware,KiCad,Pcbnew,9.0.9-9.0.9~ubuntu24.04.1*%
%TF.CreationDate,2026-08-14T00:59:37+09:00*%
%TF.ProjectId,tinygo-conf-2026,74696e79-676f-42d6-936f-6e662d323032,rev?*%
%TF.SameCoordinates,Original*%
%TF.FileFunction,Copper,L1,Top*%
%TF.FilePolarity,Positive*%
%FSLAX46Y46*%
G04 Gerber Fmt 4.6, Leading zero omitted, Abs format (unit mm)*
G04 Created by KiCad (PCBNEW 9.0.9-9.0.9~ubuntu24.04.1) date 2026-08-14 00:59:37*
%MOMM*%
%LPD*%
G01*
G04 APERTURE LIST*
%TA.AperFunction,ComponentPad*%
%ADD10R,1.700000X1.700000*%
%TD*%
%TA.AperFunction,ComponentPad*%
%ADD11C,1.700000*%
%TD*%
%TA.AperFunction,ComponentPad*%
%ADD12C,1.600000*%
%TD*%
%TA.AperFunction,ComponentPad*%
%ADD13R,2.000000X2.000000*%
%TD*%
%TA.AperFunction,ComponentPad*%
%ADD14C,2.000000*%
%TD*%
%TA.AperFunction,ComponentPad*%
%ADD15R,1.800000X1.800000*%
%TD*%
%TA.AperFunction,ComponentPad*%
%ADD16C,1.800000*%
%TD*%
%TA.AperFunction,ComponentPad*%
%ADD17R,1.350000X1.350000*%
%TD*%
%TA.AperFunction,ComponentPad*%
%ADD18C,1.350000*%
%TD*%
%TA.AperFunction,ComponentPad*%
%ADD19C,2.500000*%
%TD*%
%TA.AperFunction,ComponentPad*%
%ADD20C,2.200000*%
%TD*%
%TA.AperFunction,ComponentPad*%
%ADD21O,3.000000X1.750000*%
%TD*%
%TA.AperFunction,ComponentPad*%
%ADD22O,4.000000X2.500000*%
%TD*%
%TA.AperFunction,ComponentPad*%
%ADD23R,1.200000X2.000000*%
%TD*%
%TA.AperFunction,ComponentPad*%
%ADD24O,1.200000X2.000000*%
%TD*%
%TA.AperFunction,ViaPad*%
%ADD25C,0.600000*%
%TD*%
%TA.AperFunction,Conductor*%
%ADD26C,0.250000*%
%TD*%
G04 APERTURE END LIST*
D10*
%TO.P,J3,1,Pin_1*%
%TO.N,GND*%
X130819880Y-73933280D03*
D11*
%TO.P,J3,2,Pin_2*%
%TO.N,/3V3*%
X133359880Y-74060280D03*
%TO.P,J3,3,Pin_3*%
%TO.N,/SCL*%
X135899880Y-73806280D03*
%TO.P,J3,4,Pin_4*%
%TO.N,/SDA*%
X138439880Y-74060280D03*
%TO.P,J3,5,Pin_5*%
%TO.N,/RES*%
X140979880Y-73806280D03*
%TO.P,J3,6,Pin_6*%
%TO.N,/DC*%
X143519880Y-74060280D03*
%TO.P,J3,7,Pin_7*%
%TO.N,/CS*%
X146059880Y-73806280D03*
%TO.P,J3,8,Pin_8*%
%TO.N,/3V3*%
X148599880Y-74060280D03*
%TD*%
D12*
%TO.P,R1,1*%
%TO.N,/IR_LED*%
X101500000Y-79000000D03*
%TO.P,R1,2*%
%TO.N,Net-(D5-A)*%
X93880000Y-79000000D03*
%TD*%
D10*
%TO.P,J2,1,Pin_1*%
%TO.N,VCC*%
X169420000Y-75500000D03*
D11*
%TO.P,J2,2,Pin_2*%
%TO.N,GND*%
X171960000Y-75500000D03*
%TO.P,J2,3,Pin_3*%
%TO.N,/IR_DATA*%
X174500000Y-75500000D03*
%TD*%
D13*
%TO.P,LS1,1,1*%
%TO.N,Net-(U3-OUTP)*%
X107629216Y-81000000D03*
D14*
%TO.P,LS1,2,2*%
%TO.N,Net-(U3-OUTN)*%
X112629216Y-81000000D03*
%TD*%
D15*
%TO.P,D5,1,K*%
%TO.N,GND*%
X104000000Y-73500000D03*
D16*
%TO.P,D5,2,A*%
%TO.N,Net-(D5-A)*%
X101460000Y-73500000D03*
%TD*%
D17*
%TO.P,J1,1,Pin_1*%
%TO.N,GND*%
X99000000Y-89800000D03*
D18*
%TO.P,J1,2,Pin_2*%
%TO.N,/3V3*%
X99000000Y-87800000D03*
%TO.P,J1,3,Pin_3*%
%TO.N,/I2C_SDA*%
X99000000Y-85800000D03*
%TO.P,J1,4,Pin_4*%
%TO.N,/I2C_SCL*%
X99000000Y-83800000D03*
%TD*%
D19*
%TO.P,U2,*%
%TO.N,*%
X99650000Y-96925000D03*
X99650000Y-109575000D03*
X109650000Y-96925000D03*
X109650000Y-109575000D03*
D14*
%TO.P,U2,1,VR1-1*%
%TO.N,GND*%
X107150000Y-94520000D03*
%TO.P,U2,2,VR1-2*%
%TO.N,/VR_X*%
X104650000Y-94520000D03*
%TO.P,U2,3,VR1-3*%
%TO.N,/3V3*%
X102150000Y-94520000D03*
%TO.P,U2,4,VR2-1*%
X95920000Y-100750000D03*
%TO.P,U2,5,VR2-2*%
%TO.N,/VR_Y*%
X95920000Y-103250000D03*
%TO.P,U2,6,VR2-3*%
%TO.N,GND*%
X95920000Y-105750000D03*
D20*
%TO.P,U2,7,SW-a*%
X110400000Y-100000000D03*
X110400000Y-106500000D03*
%TO.P,U2,8,SW-b*%
%TO.N,/VR_BTN*%
X114900000Y-100000000D03*
X114900000Y-106500000D03*
%TD*%
D21*
%TO.P,U3,1,Vin*%
%TO.N,VCC*%
X108900000Y-116800000D03*
%TO.P,U3,2,GND*%
%TO.N,GND*%
X108900000Y-119340000D03*
%TO.P,U3,3,~{SD_MODE}*%
%TO.N,unconnected-(U3-~{SD_MODE}-Pad3)*%
X108900000Y-121880000D03*
%TO.P,U3,4,GAIN*%
%TO.N,unconnected-(U3-GAIN-Pad4)*%
X108900000Y-124420000D03*
%TO.P,U3,5,DIN*%
%TO.N,/DIN*%
X108900000Y-126960000D03*
%TO.P,U3,6,BCLK*%
%TO.N,/BCLK*%
X108900000Y-129500000D03*
%TO.P,U3,7,LRC*%
%TO.N,/LRC*%
X108900000Y-132040000D03*
D22*
%TO.P,U3,8,OUTP*%
%TO.N,Net-(U3-OUTP)*%
X96446000Y-126220000D03*
%TO.P,U3,9,OUTN*%
%TO.N,Net-(U3-OUTN)*%
X96446000Y-122720000D03*
%TD*%
D23*
%TO.P,U1,1,3V3*%
%TO.N,/3V3*%
X121062720Y-81273000D03*
D24*
%TO.P,U1,2,3V3*%
X123602720Y-81400000D03*
%TO.P,U1,3,EN/RESET*%
%TO.N,unconnected-(U1-EN{slash}RESET-Pad3)*%
X126142720Y-81146000D03*
%TO.P,U1,4,GPIO4*%
%TO.N,/RES*%
X128682720Y-81400000D03*
%TO.P,U1,5,GPIO5*%
%TO.N,/DC*%
X131222720Y-81146000D03*
%TO.P,U1,6,GPIO6*%
%TO.N,/VR_Y*%
X133762720Y-81400000D03*
%TO.P,U1,7,GPIO7*%
%TO.N,/VR_X*%
X136302720Y-81146000D03*
%TO.P,U1,8,GPIO15*%
%TO.N,/VR_BTN*%
X138842720Y-81400000D03*
%TO.P,U1,9,GPIO16*%
%TO.N,/LED*%
X141382720Y-81146000D03*
%TO.P,U1,10,GPIO17*%
%TO.N,/IR_LED*%
X143922720Y-81400000D03*
%TO.P,U1,11,GPIO18*%
%TO.N,/IR_DATA*%
X146462720Y-81146000D03*
%TO.P,U1,12,GPIO8*%
%TO.N,/I2C_SDA*%
X149002720Y-81400000D03*
%TO.P,U1,13,GPIO3*%
%TO.N,unconnected-(U1-GPIO3-Pad13)*%
X151542720Y-81146000D03*
%TO.P,U1,14,GPIO46*%
%TO.N,unconnected-(U1-GPIO46-Pad14)*%
X154082720Y-81400000D03*
%TO.P,U1,15,GPIO9*%
%TO.N,/I2C_SCL*%
X156622720Y-81146000D03*
%TO.P,U1,16,GPIO10*%
%TO.N,/CS*%
X159162720Y-81400000D03*
%TO.P,U1,17,GPIO11*%
%TO.N,/SDA*%
X161702720Y-81146000D03*
%TO.P,U1,18,GPIO12*%
%TO.N,/SCL*%
X164242720Y-81400000D03*
%TO.P,U1,19,GPIO13*%
%TO.N,/SW1*%
X166782720Y-81146000D03*
%TO.P,U1,20,GPIO14*%
%TO.N,/SW2*%
X169320000Y-81400000D03*
%TO.P,U1,21,5V*%
%TO.N,VCC*%
X171860000Y-81146000D03*
%TO.P,U1,22,GND*%
%TO.N,GND*%
X174400000Y-81400000D03*
%TO.P,U1,23,GND*%
X174402720Y-104260000D03*
%TO.P,U1,24,GND*%
X171862720Y-104006000D03*
%TO.P,U1,25,GPIO19*%
%TO.N,unconnected-(U1-GPIO19-Pad25)*%
X169322720Y-104260000D03*
%TO.P,U1,26,GPIO20*%
%TO.N,unconnected-(U1-GPIO20-Pad26)*%
X166782720Y-104006000D03*
%TO.P,U1,27,GPIO21*%
%TO.N,unconnected-(U1-GPIO21-Pad27)*%
X164242720Y-104260000D03*
%TO.P,U1,28,GPIO47*%
%TO.N,/DIN*%
X161702720Y-104006000D03*
%TO.P,U1,29,GPIO48*%
%TO.N,/LRC*%
X159162720Y-104260000D03*
%TO.P,U1,30,GPIO45*%
%TO.N,/BCLK*%
X156622720Y-104006000D03*
%TO.P,U1,31,GPIO0*%
%TO.N,unconnected-(U1-GPIO0-Pad31)*%
X154082720Y-104260000D03*
%TO.P,U1,32,GPIO35*%
%TO.N,unconnected-(U1-GPIO35-Pad32)*%
X151542720Y-104006000D03*
%TO.P,U1,33,GPIO36*%
%TO.N,unconnected-(U1-GPIO36-Pad33)*%
X149002720Y-104260000D03*
%TO.P,U1,34,GPIO37*%
%TO.N,unconnected-(U1-GPIO37-Pad34)*%
X146462720Y-104006000D03*
%TO.P,U1,35,GPIO38*%
%TO.N,unconnected-(U1-GPIO38-Pad35)*%
X143922720Y-104260000D03*
%TO.P,U1,36,GPIO39/MTCK*%
%TO.N,unconnected-(U1-GPIO39{slash}MTCK-Pad36)*%
X141382720Y-104006000D03*
%TO.P,U1,37,GPIO40/MTDO*%
%TO.N,unconnected-(U1-GPIO40{slash}MTDO-Pad37)*%
X138842720Y-104260000D03*
%TO.P,U1,38,GPIO41/MTDI*%
%TO.N,unconnected-(U1-GPIO41{slash}MTDI-Pad38)*%
X136302720Y-104006000D03*
%TO.P,U1,39,GPIO42/MTMS*%
%TO.N,unconnected-(U1-GPIO42{slash}MTMS-Pad39)*%
X133762720Y-104260000D03*
%TO.P,U1,40,GPIO2*%
%TO.N,unconnected-(U1-GPIO2-Pad40)*%
X131222720Y-104006000D03*
%TO.P,U1,41,GPIO1*%
%TO.N,unconnected-(U1-GPIO1-Pad41)*%
X128682720Y-104260000D03*
%TO.P,U1,42,GPIO44/U0RXD*%
%TO.N,unconnected-(U1-GPIO44{slash}U0RXD-Pad42)*%
X126142720Y-104006000D03*
%TO.P,U1,43,GPIO43/U0TXD*%
%TO.N,unconnected-(U1-GPIO43{slash}U0TXD-Pad43)*%
X123602720Y-104260000D03*
%TO.P,U1,44,GND*%
%TO.N,unconnected-(U1-GND-Pad44)*%
X121062720Y-104133000D03*
%TD*%
D25*
%TO.N,Net-(D1-DOUT)*%
X185600000Y-71400000D03*
X91151473Y-71151473D03*
%TO.N,/LED*%
X117000000Y-78800000D03*
%TO.N,/I2C_SCL*%
X102000000Y-85400000D03*
%TO.N,/SW2*%
X165500000Y-102100000D03*
X166200000Y-109600000D03*
%TO.N,/DIN*%
X161200000Y-108400000D03*
%TO.N,/IR_DATA*%
X162000000Y-79000000D03*
%TO.N,/LRC*%
X159200000Y-109600000D03*
%TO.N,/BCLK*%
X156600000Y-109600000D03*
%TD*%
D26*
%TO.N,/SDA*%
X138439880Y-74060280D02*
X141579600Y-77200000D01*
X163281720Y-82725000D02*
X161702720Y-81146000D01*
X141579600Y-77200000D02*
X163200000Y-77200000D01*
X165400000Y-81950868D02*
X164625868Y-82725000D01*
X163200000Y-77200000D02*
X165400000Y-79400000D01*
X165400000Y-79400000D02*
X165400000Y-81950868D01*
X164625868Y-82725000D02*
X163281720Y-82725000D01*
%TO.N,/SCL*%
X135899880Y-73806280D02*
X140293600Y-78200000D01*
X140293600Y-78200000D02*
X162400000Y-78200000D01*
%TO.N,Net-(D1-DOUT)*%
X91151473Y-71151473D02*
X91427946Y-70875000D01*
X91427946Y-70875000D02*
X185075000Y-70875000D01*
X185075000Y-70875000D02*
X185600000Y-71400000D01*
%TO.N,/LED*%
X139036720Y-78800000D02*
X141382720Y-81146000D01*
X117000000Y-78800000D02*
X139036720Y-78800000D01*
%TO.N,/I2C_SDA*%
X100400000Y-84400000D02*
X99000000Y-85800000D01*
X146002720Y-84400000D02*
X100400000Y-84400000D01*
X149002720Y-81400000D02*
X146002720Y-84400000D01*
%TO.N,/I2C_SCL*%
X152368720Y-85400000D02*
X102000000Y-85400000D01*
X156622720Y-81146000D02*
X152368720Y-85400000D01*
%TO.N,/SW2*%
X165500000Y-102100000D02*
X165500000Y-108900000D01*
X165500000Y-108900000D02*
X166200000Y-109600000D01*
%TO.N,/VR_BTN*%
X114900000Y-106500000D02*
X114900000Y-100000000D01*
%TO.N,Net-(D5-A)*%
X93880000Y-79000000D02*
X95960000Y-79000000D01*
X95960000Y-79000000D02*
X101460000Y-73500000D01*
%TO.N,/DIN*%
X161702720Y-104006000D02*
X161702720Y-107897280D01*
X161702720Y-107897280D02*
X161200000Y-108400000D01*
%TO.N,/IR_DATA*%
X146462720Y-81146000D02*
X148608720Y-79000000D01*
X148608720Y-79000000D02*
X162000000Y-79000000D01*
%TO.N,/LRC*%
X159162720Y-104260000D02*
X159162720Y-109562720D01*
X159162720Y-109562720D02*
X159200000Y-109600000D01*
%TO.N,/BCLK*%
X156622720Y-104006000D02*
X156622720Y-109577280D01*
X156622720Y-109577280D02*
X156600000Y-109600000D01*
%TO.N,/IR_LED*%
X120200000Y-83400000D02*
X115800000Y-79000000D01*
X141922720Y-83400000D02*
X120200000Y-83400000D01*
X143922720Y-81400000D02*
X141922720Y-83400000D01*
X115800000Y-79000000D02*
X101500000Y-79000000D01*
%TO.N,/SCL*%
X164242720Y-80042720D02*
X164242720Y-81400000D01*
X162400000Y-78200000D02*
X164242720Y-80042720D01*
%TD*%
%TA.AperFunction,Conductor*%
%TO.N,GND*%
G36*
X186204563Y-70515130D02*
G01*
X186222063Y-70517647D01*
X186413795Y-70559355D01*
X186430760Y-70564336D01*
X186614611Y-70632909D01*
X186630694Y-70640253D01*
X186722907Y-70690606D01*
X186802908Y-70734290D01*
X186817791Y-70743855D01*
X186974864Y-70861438D01*
X186988235Y-70873024D01*
X187126975Y-71011764D01*
X187138561Y-71025135D01*
X187256144Y-71182208D01*
X187265709Y-71197091D01*
X187359743Y-71369300D01*
X187367093Y-71385394D01*
X187435661Y-71569234D01*
X187440645Y-71586209D01*
X187482351Y-71777931D01*
X187484869Y-71795442D01*
X187499184Y-71995580D01*
X187499500Y-72004427D01*
X187499500Y-137995572D01*
X187499184Y-138004419D01*
X187484869Y-138204557D01*
X187482351Y-138222068D01*
X187440645Y-138413790D01*
X187435661Y-138430765D01*
X187367093Y-138614605D01*
X187359743Y-138630699D01*
X187265709Y-138802908D01*
X187256144Y-138817791D01*
X187138561Y-138974864D01*
X187126975Y-138988235D01*
X186988235Y-139126975D01*
X186974864Y-139138561D01*
X186817791Y-139256144D01*
X186802908Y-139265709D01*
X186630699Y-139359743D01*
X186614605Y-139367093D01*
X186430765Y-139435661D01*
X186413790Y-139440645D01*
X186222068Y-139482351D01*
X186204557Y-139484869D01*
X186023779Y-139497799D01*
X186004417Y-139499184D01*
X185995572Y-139499500D01*
X92004428Y-139499500D01*
X91995582Y-139499184D01*
X91973622Y-139497613D01*
X91795442Y-139484869D01*
X91777931Y-139482351D01*
X91586209Y-139440645D01*
X91569234Y-139435661D01*
X91385394Y-139367093D01*
X91369300Y-139359743D01*
X91197091Y-139265709D01*
X91182208Y-139256144D01*
X91025135Y-139138561D01*
X91011764Y-139126975D01*
X90873024Y-138988235D01*
X90861438Y-138974864D01*
X90743855Y-138817791D01*
X90734290Y-138802908D01*
X90701679Y-138743186D01*
X90640253Y-138630694D01*
X90632909Y-138614611D01*
X90564336Y-138430760D01*
X90559354Y-138413790D01*
X90517648Y-138222068D01*
X90515130Y-138204556D01*
X90514953Y-138202085D01*
X90500816Y-138004418D01*
X90500500Y-137995572D01*
X90500500Y-135384108D01*
X92899500Y-135384108D01*
X92899500Y-138484108D01*
X92899500Y-138615892D01*
X92916554Y-138679539D01*
X92933608Y-138743187D01*
X92966554Y-138800250D01*
X92999500Y-138857314D01*
X93092686Y-138950500D01*
X93206814Y-139016392D01*
X93334108Y-139050500D01*
X93334110Y-139050500D01*
X97065890Y-139050500D01*
X97065892Y-139050500D01*
X97193186Y-139016392D01*
X97307314Y-138950500D01*
X97400500Y-138857314D01*
X97466392Y-138743186D01*
X97500500Y-138615892D01*
X97500500Y-136465186D01*
X115099500Y-136465186D01*
X115099500Y-136734813D01*
X115129686Y-137002719D01*
X115129688Y-137002731D01*
X115189684Y-137265594D01*
X115189687Y-137265602D01*
X115278734Y-137520082D01*
X115395714Y-137762994D01*
X115395716Y-137762997D01*
X115539162Y-137991289D01*
X115707266Y-138202085D01*
X115897915Y-138392734D01*
X116108711Y-138560838D01*
X116337003Y-138704284D01*
X116579921Y-138821267D01*
X116771049Y-138888145D01*
X116834397Y-138910312D01*
X116834405Y-138910315D01*
X116834408Y-138910315D01*
X116834409Y-138910316D01*
X117097268Y-138970312D01*
X117365187Y-139000499D01*
X117365188Y-139000500D01*
X117365191Y-139000500D01*
X117634812Y-139000500D01*
X117634812Y-139000499D01*
X117902732Y-138970312D01*
X118165591Y-138910316D01*
X118420079Y-138821267D01*
X118662997Y-138704284D01*
X118891289Y-138560838D01*
X119102085Y-138392734D01*
X119292734Y-138202085D01*
X119460838Y-137991289D01*
X119604284Y-137762997D01*
X119721267Y-137520079D01*
X119810316Y-137265591D01*
X119870312Y-137002732D01*
X119900500Y-136734809D01*
X119900500Y-136465191D01*
X119900499Y-136465186D01*
X158599500Y-136465186D01*
X158599500Y-136734813D01*
X158629686Y-137002719D01*
X158629688Y-137002731D01*
X158689684Y-137265594D01*
X158689687Y-137265602D01*
X158778734Y-137520082D01*
X158895714Y-137762994D01*
X158895716Y-137762997D01*
X159039162Y-137991289D01*
X159207266Y-138202085D01*
X159397915Y-138392734D01*
X159608711Y-138560838D01*
X159837003Y-138704284D01*
X160079921Y-138821267D01*
X160271049Y-138888145D01*
X160334397Y-138910312D01*
X160334405Y-138910315D01*
X160334408Y-138910315D01*
X160334409Y-138910316D01*
X160597268Y-138970312D01*
X160865187Y-139000499D01*
X160865188Y-139000500D01*
X160865191Y-139000500D01*
X161134812Y-139000500D01*
X161134812Y-139000499D01*
X161402732Y-138970312D01*
X161665591Y-138910316D01*
X161920079Y-138821267D01*
X162162997Y-138704284D01*
X162391289Y-138560838D01*
X162602085Y-138392734D01*
X162792734Y-138202085D01*
X162960838Y-137991289D01*
X163104284Y-137762997D01*
X163221267Y-137520079D01*
X163310316Y-137265591D01*
X163370312Y-137002732D01*
X163400500Y-136734809D01*
X163400500Y-136465191D01*
X163370312Y-136197268D01*
X163310316Y-135934409D01*
X163221267Y-135679921D01*
X163104285Y-135437005D01*
X163104285Y-135437004D01*
X163071048Y-135384108D01*
X180499500Y-135384108D01*
X180499500Y-138484108D01*
X180499500Y-138615892D01*
X180516554Y-138679539D01*
X180533608Y-138743187D01*
X180566554Y-138800250D01*
X180599500Y-138857314D01*
X180692686Y-138950500D01*
X180806814Y-139016392D01*
X180934108Y-139050500D01*
X180934110Y-139050500D01*
X184665890Y-139050500D01*
X184665892Y-139050500D01*
X184793186Y-139016392D01*
X184907314Y-138950500D01*
X185000500Y-138857314D01*
X185066392Y-138743186D01*
X185100500Y-138615892D01*
X185100500Y-135384108D01*
X185066392Y-135256814D01*
X185000500Y-135142686D01*
X184907314Y-135049500D01*
X184850250Y-135016554D01*
X184793187Y-134983608D01*
X184729539Y-134966554D01*
X184665892Y-134949500D01*
X181065892Y-134949500D01*
X180934108Y-134949500D01*
X180806812Y-134983608D01*
X180692686Y-135049500D01*
X180692683Y-135049502D01*
X180599502Y-135142683D01*
X180599500Y-135142686D01*
X180533608Y-135256812D01*
X180499500Y-135384108D01*
X163071048Y-135384108D01*
X162991062Y-135256812D01*
X162960838Y-135208711D01*
X162792734Y-134997915D01*
X162602085Y-134807266D01*
X162391289Y-134639162D01*
X162162997Y-134495716D01*
X162162994Y-134495714D01*
X161920082Y-134378734D01*
X161665602Y-134289687D01*
X161665594Y-134289684D01*
X161468446Y-134244687D01*
X161402732Y-134229688D01*
X161402728Y-134229687D01*
X161402719Y-134229686D01*
X161134813Y-134199500D01*
X161134809Y-134199500D01*
X160865191Y-134199500D01*
X160865186Y-134199500D01*
X160597280Y-134229686D01*
X160597268Y-134229688D01*
X160334405Y-134289684D01*
X160334397Y-134289687D01*
X160079917Y-134378734D01*
X159837005Y-134495714D01*
X159608712Y-134639161D01*
X159397915Y-134807265D01*
X159207265Y-134997915D01*
X159039161Y-135208712D01*
X158895714Y-135437005D01*
X158778734Y-135679917D01*
X158689687Y-135934397D01*
X158689684Y-135934405D01*
X158629688Y-136197268D01*
X158629686Y-136197280D01*
X158599500Y-136465186D01*
X119900499Y-136465186D01*
X119870312Y-136197268D01*
X119810316Y-135934409D01*
X119721267Y-135679921D01*
X119604284Y-135437003D01*
X119460838Y-135208711D01*
X119292734Y-134997915D01*
X119102085Y-134807266D01*
X118891289Y-134639162D01*
X118662997Y-134495716D01*
X118662994Y-134495714D01*
X118420082Y-134378734D01*
X118165602Y-134289687D01*
X118165594Y-134289684D01*
X117968446Y-134244687D01*
X117902732Y-134229688D01*
X117902728Y-134229687D01*
X117902719Y-134229686D01*
X117634813Y-134199500D01*
X117634809Y-134199500D01*
X117365191Y-134199500D01*
X117365186Y-134199500D01*
X117097280Y-134229686D01*
X117097268Y-134229688D01*
X116834405Y-134289684D01*
X116834397Y-134289687D01*
X116579917Y-134378734D01*
X116337005Y-134495714D01*
X116108712Y-134639161D01*
X115897915Y-134807265D01*
X115707265Y-134997915D01*
X115539161Y-135208712D01*
X115395714Y-135437005D01*
X115278734Y-135679917D01*
X115189687Y-135934397D01*
X115189684Y-135934405D01*
X115129688Y-136197268D01*
X115129686Y-136197280D01*
X115099500Y-136465186D01*
X97500500Y-136465186D01*
X97500500Y-135384108D01*
X97466392Y-135256814D01*
X97400500Y-135142686D01*
X97307314Y-135049500D01*
X97250250Y-135016554D01*
X97193187Y-134983608D01*
X97129539Y-134966554D01*
X97065892Y-134949500D01*
X93465892Y-134949500D01*
X93334108Y-134949500D01*
X93206812Y-134983608D01*
X93092686Y-135049500D01*
X93092683Y-135049502D01*
X92999502Y-135142683D01*
X92999500Y-135142686D01*
X92933608Y-135256812D01*
X92899500Y-135384108D01*
X90500500Y-135384108D01*
X90500500Y-122605258D01*
X93945500Y-122605258D01*
X93945500Y-122834741D01*
X93957933Y-122929172D01*
X93975452Y-123062238D01*
X94005566Y-123174626D01*
X94034842Y-123283887D01*
X94122650Y-123495876D01*
X94122657Y-123495890D01*
X94237392Y-123694617D01*
X94377081Y-123876661D01*
X94377089Y-123876670D01*
X94539330Y-124038911D01*
X94539338Y-124038918D01*
X94721382Y-124178607D01*
X94721385Y-124178608D01*
X94721388Y-124178611D01*
X94920112Y-124293344D01*
X94920117Y-124293346D01*
X94920123Y-124293349D01*
X95070022Y-124355439D01*
X95124426Y-124399280D01*
X95146491Y-124465574D01*
X95129212Y-124533273D01*
X95078075Y-124580884D01*
X95070022Y-124584561D01*
X94920123Y-124646650D01*
X94920109Y-124646657D01*
X94721382Y-124761392D01*
X94539338Y-124901081D01*
X94377081Y-125063338D01*
X94237392Y-125245382D01*
X94122657Y-125444109D01*
X94122650Y-125444123D01*
X94034842Y-125656112D01*
X93975453Y-125877759D01*
X93975451Y-125877770D01*
X93945500Y-126105258D01*
X93945500Y-126334741D01*
X93970446Y-126524215D01*
X93975452Y-126562238D01*
X93975453Y-126562240D01*
X94034842Y-126783887D01*
X94122650Y-126995876D01*
X94122657Y-126995890D01*
X94237392Y-127194617D01*
X94377081Y-127376661D01*
X94377089Y-127376670D01*
X94539330Y-127538911D01*
X94539338Y-127538918D01*
X94721382Y-127678607D01*
X94721385Y-127678608D01*
X94721388Y-127678611D01*
X94920112Y-127793344D01*
X94920117Y-127793346D01*
X94920123Y-127793349D01*
X95011480Y-127831190D01*
X95132113Y-127881158D01*
X95353762Y-127940548D01*
X95581266Y-127970500D01*
X95581273Y-127970500D01*
X97310727Y-127970500D01*
X97310734Y-127970500D01*
X97538238Y-127940548D01*
X97759887Y-127881158D01*
X97971888Y-127793344D01*
X98170612Y-127678611D01*
X98352661Y-127538919D01*
X98352665Y-127538914D01*
X98352670Y-127538911D01*
X98514911Y-127376670D01*
X98514914Y-127376665D01*
X98514919Y-127376661D01*
X98654611Y-127194612D01*
X98769344Y-126995888D01*
X98857158Y-126783887D01*
X98916548Y-126562238D01*
X98946500Y-126334734D01*
X98946500Y-126105266D01*
X98916548Y-125877762D01*
X98857158Y-125656113D01*
X98807190Y-125535480D01*
X98769349Y-125444123D01*
X98769346Y-125444117D01*
X98769344Y-125444112D01*
X98654611Y-125245388D01*
X98654608Y-125245385D01*
X98654607Y-125245382D01*
X98514918Y-125063338D01*
X98514911Y-125063330D01*
X98352670Y-124901089D01*
X98352661Y-124901081D01*
X98170617Y-124761392D01*
X97971890Y-124646657D01*
X97971876Y-124646650D01*
X97863083Y-124601587D01*
X97821976Y-124584560D01*
X97767573Y-124540721D01*
X97745508Y-124474426D01*
X97762787Y-124406727D01*
X97813924Y-124359116D01*
X97821967Y-124355443D01*
X97971888Y-124293344D01*
X98170612Y-124178611D01*
X98352661Y-124038919D01*
X98352665Y-124038914D01*
X98352670Y-124038911D01*
X98514911Y-123876670D01*
X98514914Y-123876665D01*
X98514919Y-123876661D01*
X98654611Y-123694612D01*
X98769344Y-123495888D01*
X98857158Y-123283887D01*
X98916548Y-123062238D01*
X98946500Y-122834734D01*
X98946500Y-122605266D01*
X98916548Y-122377762D01*
X98857158Y-122156113D01*
X98807190Y-122035480D01*
X98769349Y-121944123D01*
X98769346Y-121944117D01*
X98769344Y-121944112D01*
X98654611Y-121745388D01*
X98654608Y-121745385D01*
X98654607Y-121745382D01*
X98514918Y-121563338D01*
X98514911Y-121563330D01*
X98352670Y-121401089D01*
X98352661Y-121401081D01*
X98170617Y-121261392D01*
X97971890Y-121146657D01*
X97971876Y-121146650D01*
X97759887Y-121058842D01*
X97538238Y-120999452D01*
X97500215Y-120994446D01*
X97310741Y-120969500D01*
X97310734Y-120969500D01*
X95581266Y-120969500D01*
X95581258Y-120969500D01*
X95364715Y-120998009D01*
X95353762Y-120999452D01*
X95260076Y-121024554D01*
X95132112Y-121058842D01*
X94920123Y-121146650D01*
X94920109Y-121146657D01*
X94721382Y-121261392D01*
X94539338Y-121401081D01*
X94377081Y-121563338D01*
X94237392Y-121745382D01*
X94122657Y-121944109D01*
X94122650Y-121944123D01*
X94034842Y-122156112D01*
X93975453Y-122377759D01*
X93975451Y-122377770D01*
X93945500Y-122605258D01*
X90500500Y-122605258D01*
X90500500Y-116691746D01*
X106899500Y-116691746D01*
X106899500Y-116908253D01*
X106933370Y-117122098D01*
X107000272Y-117328006D01*
X107000273Y-117328009D01*
X107098567Y-117520919D01*
X107225828Y-117696078D01*
X107378922Y-117849172D01*
X107545215Y-117969991D01*
X107587879Y-118025320D01*
X107593858Y-118094933D01*
X107561252Y-118156728D01*
X107545214Y-118170626D01*
X107379245Y-118291210D01*
X107226211Y-118444244D01*
X107226211Y-118444245D01*
X107098994Y-118619342D01*
X107000736Y-118812182D01*
X107000735Y-118812185D01*
X106933857Y-119018016D01*
X106933857Y-119018019D01*
X106922457Y-119090000D01*
X108966988Y-119090000D01*
X108934075Y-119147007D01*
X108900000Y-119274174D01*
X108900000Y-119405826D01*
X108934075Y-119532993D01*
X108966988Y-119590000D01*
X106922457Y-119590000D01*
X106933857Y-119661980D01*
X106933857Y-119661983D01*
X107000735Y-119867814D01*
X107000736Y-119867817D01*
X107098994Y-120060657D01*
X107226211Y-120235754D01*
X107226211Y-120235755D01*
X107379244Y-120388788D01*
X107545214Y-120509373D01*
X107587879Y-120564703D01*
X107593858Y-120634317D01*
X107561252Y-120696111D01*
X107545214Y-120710009D01*
X107378920Y-120830829D01*
X107225830Y-120983919D01*
X107225830Y-120983920D01*
X107225828Y-120983922D01*
X107214545Y-120999452D01*
X107098567Y-121159080D01*
X107000273Y-121351990D01*
X107000272Y-121351993D01*
X106933370Y-121557901D01*
X106899500Y-121771746D01*
X106899500Y-121988253D01*
X106933370Y-122202098D01*
X107000272Y-122408006D01*
X107000273Y-122408009D01*
X107098567Y-122600919D01*
X107225828Y-122776078D01*
X107378922Y-122929172D01*
X107533190Y-123041255D01*
X107544789Y-123049682D01*
X107587454Y-123105012D01*
X107593433Y-123174626D01*
X107560827Y-123236421D01*
X107544788Y-123250318D01*
X107378922Y-123370828D01*
X107378920Y-123370830D01*
X107378919Y-123370830D01*
X107225830Y-123523919D01*
X107225830Y-123523920D01*
X107225828Y-123523922D01*
X107171174Y-123599145D01*
X107098567Y-123699080D01*
X107000273Y-123891990D01*
X107000272Y-123891993D01*
X106933370Y-124097901D01*
X106899500Y-124311746D01*
X106899500Y-124528253D01*
X106933370Y-124742098D01*
X107000272Y-124948006D01*
X107000273Y-124948009D01*
X107098567Y-125140919D01*
X107225828Y-125316078D01*
X107378922Y-125469172D01*
X107533190Y-125581255D01*
X107544789Y-125589682D01*
X107587454Y-125645012D01*
X107593433Y-125714626D01*
X107560827Y-125776421D01*
X107544788Y-125790318D01*
X107378922Y-125910828D01*
X107378920Y-125910830D01*
X107378919Y-125910830D01*
X107225830Y-126063919D01*
X107225830Y-126063920D01*
X107225828Y-126063922D01*
X107171174Y-126139145D01*
X107098567Y-126239080D01*
X107000273Y-126431990D01*
X107000272Y-126431993D01*
X106933370Y-126637901D01*
X106899500Y-126851746D01*
X106899500Y-127068253D01*
X106933370Y-127282098D01*
X107000272Y-127488006D01*
X107000273Y-127488009D01*
X107097389Y-127678607D01*
X107098567Y-127680919D01*
X107225828Y-127856078D01*
X107378922Y-128009172D01*
X107533190Y-128121255D01*
X107544789Y-128129682D01*
X107587454Y-128185012D01*
X107593433Y-128254626D01*
X107560827Y-128316421D01*
X107544788Y-128330318D01*
X107378922Y-128450828D01*
X107378920Y-128450830D01*
X107378919Y-128450830D01*
X107225830Y-128603919D01*
X107225830Y-128603920D01*
X107225828Y-128603922D01*
X107171174Y-128679145D01*
X107098567Y-128779080D01*
X107000273Y-128971990D01*
X107000272Y-128971993D01*
X106933370Y-129177901D01*
X106899500Y-129391746D01*
X106899500Y-129608253D01*
X106933370Y-129822098D01*
X107000272Y-130028006D01*
X107000273Y-130028009D01*
X107098567Y-130220919D01*
X107225828Y-130396078D01*
X107378922Y-130549172D01*
X107533190Y-130661255D01*
X107544789Y-130669682D01*
X107587454Y-130725012D01*
X107593433Y-130794626D01*
X107560827Y-130856421D01*
X107544788Y-130870318D01*
X107378922Y-130990828D01*
X107378920Y-130990830D01*
X107378919Y-130990830D01*
X107225830Y-131143919D01*
X107225830Y-131143920D01*
X107225828Y-131143922D01*
X107171174Y-131219145D01*
X107098567Y-131319080D01*
X107000273Y-131511990D01*
X107000272Y-131511993D01*
X106933370Y-131717901D01*
X106899500Y-131931746D01*
X106899500Y-132148253D01*
X106933370Y-132362098D01*
X107000272Y-132568006D01*
X107000273Y-132568009D01*
X107098567Y-132760919D01*
X107225828Y-132936078D01*
X107378922Y-133089172D01*
X107554081Y-133216433D01*
X107648697Y-133264642D01*
X107746990Y-133314726D01*
X107746993Y-133314727D01*
X107849947Y-133348178D01*
X107952903Y-133381630D01*
X108166746Y-133415500D01*
X108166747Y-133415500D01*
X109633253Y-133415500D01*
X109633254Y-133415500D01*
X109847097Y-133381630D01*
X110053009Y-133314726D01*
X110245919Y-133216433D01*
X110421078Y-133089172D01*
X110574172Y-132936078D01*
X110701433Y-132760919D01*
X110799726Y-132568009D01*
X110866630Y-132362097D01*
X110900500Y-132148254D01*
X110900500Y-131931746D01*
X110866630Y-131717903D01*
X110799726Y-131511991D01*
X110799726Y-131511990D01*
X110701432Y-131319080D01*
X110574172Y-131143922D01*
X110421078Y-130990828D01*
X110255208Y-130870316D01*
X110212545Y-130814988D01*
X110206566Y-130745375D01*
X110239172Y-130683580D01*
X110255205Y-130669686D01*
X110421078Y-130549172D01*
X110574172Y-130396078D01*
X110701433Y-130220919D01*
X110799726Y-130028009D01*
X110866630Y-129822097D01*
X110900500Y-129608254D01*
X110900500Y-129391746D01*
X110866630Y-129177903D01*
X110799726Y-128971991D01*
X110799726Y-128971990D01*
X110701432Y-128779080D01*
X110574172Y-128603922D01*
X110421078Y-128450828D01*
X110255208Y-128330316D01*
X110212545Y-128274988D01*
X110206566Y-128205375D01*
X110239172Y-128143580D01*
X110255205Y-128129686D01*
X110421078Y-128009172D01*
X110574172Y-127856078D01*
X110701433Y-127680919D01*
X110799726Y-127488009D01*
X110866630Y-127282097D01*
X110900500Y-127068254D01*
X110900500Y-126851746D01*
X110866630Y-126637903D01*
X110799726Y-126431991D01*
X110799726Y-126431990D01*
X110701432Y-126239080D01*
X110574172Y-126063922D01*
X110421078Y-125910828D01*
X110255208Y-125790316D01*
X110212545Y-125734988D01*
X110206566Y-125665375D01*
X110239172Y-125603580D01*
X110255205Y-125589686D01*
X110421078Y-125469172D01*
X110574172Y-125316078D01*
X110701433Y-125140919D01*
X110799726Y-124948009D01*
X110866630Y-124742097D01*
X110900500Y-124528254D01*
X110900500Y-124311746D01*
X110866630Y-124097903D01*
X110799726Y-123891991D01*
X110799726Y-123891990D01*
X110701432Y-123699080D01*
X110574172Y-123523922D01*
X110421078Y-123370828D01*
X110255208Y-123250316D01*
X110212545Y-123194988D01*
X110206566Y-123125375D01*
X110239172Y-123063580D01*
X110255205Y-123049686D01*
X110421078Y-122929172D01*
X110574172Y-122776078D01*
X110701433Y-122600919D01*
X110799726Y-122408009D01*
X110866630Y-122202097D01*
X110900500Y-121988254D01*
X110900500Y-121771746D01*
X110866630Y-121557903D01*
X110799726Y-121351991D01*
X110799726Y-121351990D01*
X110701432Y-121159080D01*
X110692406Y-121146657D01*
X110574172Y-120983922D01*
X110421078Y-120830828D01*
X110254784Y-120710007D01*
X110212120Y-120654679D01*
X110206141Y-120585065D01*
X110238747Y-120523270D01*
X110254786Y-120509373D01*
X110420749Y-120388793D01*
X110420755Y-120388788D01*
X110573788Y-120235755D01*
X110573788Y-120235754D01*
X110701005Y-120060657D01*
X110799263Y-119867817D01*
X110799264Y-119867814D01*
X110866142Y-119661983D01*
X110866142Y-119661980D01*
X110877543Y-119590000D01*
X109833012Y-119590000D01*
X109865925Y-119532993D01*
X109900000Y-119405826D01*
X109900000Y-119274174D01*
X109865925Y-119147007D01*
X109833012Y-119090000D01*
X110877543Y-119090000D01*
X110866142Y-119018019D01*
X110866142Y-119018016D01*
X110799264Y-118812185D01*
X110799263Y-118812182D01*
X110701005Y-118619342D01*
X110573788Y-118444245D01*
X110573788Y-118444244D01*
X110420755Y-118291211D01*
X110254785Y-118170626D01*
X110212120Y-118115296D01*
X110206141Y-118045682D01*
X110238747Y-117983887D01*
X110254780Y-117969994D01*
X110421078Y-117849172D01*
X110574172Y-117696078D01*
X110701433Y-117520919D01*
X110799726Y-117328009D01*
X110866630Y-117122097D01*
X110900500Y-116908254D01*
X110900500Y-116691746D01*
X110866630Y-116477903D01*
X110800158Y-116273320D01*
X110799727Y-116271993D01*
X110799726Y-116271990D01*
X110701432Y-116079080D01*
X110574172Y-115903922D01*
X110421078Y-115750828D01*
X110245919Y-115623567D01*
X110053009Y-115525273D01*
X110053006Y-115525272D01*
X109847098Y-115458370D01*
X109740175Y-115441435D01*
X109633254Y-115424500D01*
X108166746Y-115424500D01*
X108095465Y-115435790D01*
X107952901Y-115458370D01*
X107746993Y-115525272D01*
X107746990Y-115525273D01*
X107554080Y-115623567D01*
X107454145Y-115696174D01*
X107378922Y-115750828D01*
X107378920Y-115750830D01*
X107378919Y-115750830D01*
X107225830Y-115903919D01*
X107225830Y-115903920D01*
X107225828Y-115903922D01*
X107171174Y-115979145D01*
X107098567Y-116079080D01*
X107000273Y-116271990D01*
X107000272Y-116271993D01*
X106933370Y-116477901D01*
X106899500Y-116691746D01*
X90500500Y-116691746D01*
X90500500Y-114445513D01*
X167239500Y-114445513D01*
X167239500Y-114634486D01*
X167269059Y-114821118D01*
X167327454Y-115000836D01*
X167413240Y-115169199D01*
X167524310Y-115322073D01*
X167657927Y-115455690D01*
X167810801Y-115566760D01*
X167890347Y-115607290D01*
X167979163Y-115652545D01*
X167979165Y-115652545D01*
X167979168Y-115652547D01*
X168075497Y-115683846D01*
X168158881Y-115710940D01*
X168345514Y-115740500D01*
X168345519Y-115740500D01*
X168534486Y-115740500D01*
X168721118Y-115710940D01*
X168900832Y-115652547D01*
X169069199Y-115566760D01*
X169222073Y-115455690D01*
X169355690Y-115322073D01*
X169466760Y-115169199D01*
X169552547Y-115000832D01*
X169610940Y-114821118D01*
X169640500Y-114634486D01*
X169640500Y-114445513D01*
X169634013Y-114404556D01*
X169631584Y-114389223D01*
X171219500Y-114389223D01*
X171219500Y-114690776D01*
X171219501Y-114690793D01*
X171258861Y-114989766D01*
X171336913Y-115281060D01*
X171452314Y-115559661D01*
X171452318Y-115559671D01*
X171603099Y-115820831D01*
X171786679Y-116060078D01*
X171786685Y-116060085D01*
X171999914Y-116273314D01*
X171999921Y-116273320D01*
X172239168Y-116456900D01*
X172500328Y-116607681D01*
X172500329Y-116607681D01*
X172500332Y-116607683D01*
X172686072Y-116684619D01*
X172778939Y-116723086D01*
X172778940Y-116723086D01*
X172778942Y-116723087D01*
X173070232Y-116801138D01*
X173369217Y-116840500D01*
X173369224Y-116840500D01*
X173670776Y-116840500D01*
X173670783Y-116840500D01*
X173969768Y-116801138D01*
X174261058Y-116723087D01*
X174539668Y-116607683D01*
X174800832Y-116456900D01*
X175040080Y-116273319D01*
X175253319Y-116060080D01*
X175436900Y-115820832D01*
X175587683Y-115559668D01*
X175703087Y-115281058D01*
X175781138Y-114989768D01*
X175820500Y-114690783D01*
X175820500Y-114445513D01*
X177399500Y-114445513D01*
X177399500Y-114634486D01*
X177429059Y-114821118D01*
X177487454Y-115000836D01*
X177573240Y-115169199D01*
X177684310Y-115322073D01*
X177817927Y-115455690D01*
X177970801Y-115566760D01*
X178050347Y-115607290D01*
X178139163Y-115652545D01*
X178139165Y-115652545D01*
X178139168Y-115652547D01*
X178235497Y-115683846D01*
X178318881Y-115710940D01*
X178505514Y-115740500D01*
X178505519Y-115740500D01*
X178694486Y-115740500D01*
X178881118Y-115710940D01*
X179060832Y-115652547D01*
X179229199Y-115566760D01*
X179382073Y-115455690D01*
X179515690Y-115322073D01*
X179626760Y-115169199D01*
X179712547Y-115000832D01*
X179770940Y-114821118D01*
X179800500Y-114634486D01*
X179800500Y-114445513D01*
X179770940Y-114258881D01*
X179712545Y-114079163D01*
X179626759Y-113910800D01*
X179591209Y-113861870D01*
X179515690Y-113757927D01*
X179382073Y-113624310D01*
X179229199Y-113513240D01*
X179060836Y-113427454D01*
X178881118Y-113369059D01*
X178694486Y-113339500D01*
X178694481Y-113339500D01*
X178505519Y-113339500D01*
X178505514Y-113339500D01*
X178318881Y-113369059D01*
X178139163Y-113427454D01*
X177970800Y-113513240D01*
X177961031Y-113520338D01*
X177817927Y-113624310D01*
X177817925Y-113624312D01*
X177817924Y-113624312D01*
X177684312Y-113757924D01*
X177684312Y-113757925D01*
X177684310Y-113757927D01*
X177655827Y-113797130D01*
X177573240Y-113910800D01*
X177487454Y-114079163D01*
X177429059Y-114258881D01*
X177399500Y-114445513D01*
X175820500Y-114445513D01*
X175820500Y-114389217D01*
X175781138Y-114090232D01*
X175703087Y-113798942D01*
X175702336Y-113797130D01*
X175646015Y-113661158D01*
X175587683Y-113520332D01*
X175583588Y-113513240D01*
X175436900Y-113259168D01*
X175253320Y-113019921D01*
X175253314Y-113019914D01*
X175040085Y-112806685D01*
X175040078Y-112806679D01*
X174800831Y-112623099D01*
X174539671Y-112472318D01*
X174539661Y-112472314D01*
X174261060Y-112356913D01*
X173969766Y-112278861D01*
X173670793Y-112239501D01*
X173670788Y-112239500D01*
X173670783Y-112239500D01*
X173369217Y-112239500D01*
X173369211Y-112239500D01*
X173369206Y-112239501D01*
X173070233Y-112278861D01*
X172778939Y-112356913D01*
X172500338Y-112472314D01*
X172500328Y-112472318D01*
X172239168Y-112623099D01*
X171999921Y-112806679D01*
X171999914Y-112806685D01*
X171786685Y-113019914D01*
X171786679Y-113019921D01*
X171603099Y-113259168D01*
X171452318Y-113520328D01*
X171452314Y-113520338D01*
X171336913Y-113798939D01*
X171258861Y-114090233D01*
X171219501Y-114389206D01*
X171219500Y-114389223D01*
X169631584Y-114389223D01*
X169610940Y-114258881D01*
X169552545Y-114079163D01*
X169525424Y-114025937D01*
X169476815Y-113930535D01*
X169463920Y-113861870D01*
X169490196Y-113797130D01*
X169547302Y-113756872D01*
X169591207Y-113751065D01*
X169591207Y-113750500D01*
X169824727Y-113750500D01*
X169824734Y-113750500D01*
X170052238Y-113720548D01*
X170273887Y-113661158D01*
X170485888Y-113573344D01*
X170684612Y-113458611D01*
X170866661Y-113318919D01*
X170866665Y-113318914D01*
X170866670Y-113318911D01*
X171028911Y-113156670D01*
X171028914Y-113156665D01*
X171028919Y-113156661D01*
X171168611Y-112974612D01*
X171283344Y-112775888D01*
X171371158Y-112563887D01*
X171430548Y-112342238D01*
X171460500Y-112114734D01*
X171460500Y-111885266D01*
X171430548Y-111657762D01*
X171371158Y-111436113D01*
X171288334Y-111236158D01*
X171283349Y-111224123D01*
X171283346Y-111224117D01*
X171283344Y-111224112D01*
X171168611Y-111025388D01*
X171168608Y-111025385D01*
X171168607Y-111025382D01*
X171028918Y-110843338D01*
X171028911Y-110843330D01*
X170866670Y-110681089D01*
X170866661Y-110681081D01*
X170684617Y-110541392D01*
X170485890Y-110426657D01*
X170485876Y-110426650D01*
X170273887Y-110338842D01*
X170052238Y-110279452D01*
X170014215Y-110274446D01*
X169824741Y-110249500D01*
X169824734Y-110249500D01*
X169595266Y-110249500D01*
X169595258Y-110249500D01*
X169378715Y-110278009D01*
X169367762Y-110279452D01*
X169274076Y-110304554D01*
X169146112Y-110338842D01*
X168934123Y-110426650D01*
X168934109Y-110426657D01*
X168735382Y-110541392D01*
X168553338Y-110681081D01*
X168391081Y-110843338D01*
X168251392Y-111025382D01*
X168136657Y-111224109D01*
X168136650Y-111224123D01*
X168048842Y-111436112D01*
X167989453Y-111657759D01*
X167989451Y-111657770D01*
X167959500Y-111885258D01*
X167959500Y-112114741D01*
X167975926Y-112239500D01*
X167989452Y-112342238D01*
X168048842Y-112563887D01*
X168136650Y-112775876D01*
X168136657Y-112775890D01*
X168251392Y-112974617D01*
X168286155Y-113019920D01*
X168384356Y-113147897D01*
X168409551Y-113213065D01*
X168395513Y-113281510D01*
X168346699Y-113331500D01*
X168305380Y-113345856D01*
X168158880Y-113369060D01*
X167979163Y-113427454D01*
X167810800Y-113513240D01*
X167801031Y-113520338D01*
X167657927Y-113624310D01*
X167657925Y-113624312D01*
X167657924Y-113624312D01*
X167524312Y-113757924D01*
X167524312Y-113757925D01*
X167524310Y-113757927D01*
X167495827Y-113797130D01*
X167413240Y-113910800D01*
X167327454Y-114079163D01*
X167269059Y-114258881D01*
X167239500Y-114445513D01*
X90500500Y-114445513D01*
X90500500Y-109460258D01*
X97899500Y-109460258D01*
X97899500Y-109689741D01*
X97924446Y-109879215D01*
X97929452Y-109917238D01*
X97958028Y-110023887D01*
X97988842Y-110138887D01*
X98076650Y-110350876D01*
X98076657Y-110350890D01*
X98120401Y-110426657D01*
X98186641Y-110541389D01*
X98191392Y-110549617D01*
X98331081Y-110731661D01*
X98331089Y-110731670D01*
X98493330Y-110893911D01*
X98493338Y-110893918D01*
X98675382Y-111033607D01*
X98675385Y-111033608D01*
X98675388Y-111033611D01*
X98874112Y-111148344D01*
X98874117Y-111148346D01*
X98874123Y-111148349D01*
X98951854Y-111180546D01*
X99086113Y-111236158D01*
X99307762Y-111295548D01*
X99535266Y-111325500D01*
X99535273Y-111325500D01*
X99764727Y-111325500D01*
X99764734Y-111325500D01*
X99992238Y-111295548D01*
X100213887Y-111236158D01*
X100425888Y-111148344D01*
X100624612Y-111033611D01*
X100806661Y-110893919D01*
X100806665Y-110893914D01*
X100806670Y-110893911D01*
X100968911Y-110731670D01*
X100968914Y-110731665D01*
X100968919Y-110731661D01*
X101108611Y-110549612D01*
X101223344Y-110350888D01*
X101311158Y-110138887D01*
X101370548Y-109917238D01*
X101400500Y-109689734D01*
X101400500Y-109460266D01*
X101400499Y-109460258D01*
X107899500Y-109460258D01*
X107899500Y-109689741D01*
X107924446Y-109879215D01*
X107929452Y-109917238D01*
X107958028Y-110023887D01*
X107988842Y-110138887D01*
X108076650Y-110350876D01*
X108076657Y-110350890D01*
X108120401Y-110426657D01*
X108186641Y-110541389D01*
X108191392Y-110549617D01*
X108331081Y-110731661D01*
X108331089Y-110731670D01*
X108493330Y-110893911D01*
X108493338Y-110893918D01*
X108675382Y-111033607D01*
X108675385Y-111033608D01*
X108675388Y-111033611D01*
X108874112Y-111148344D01*
X108874117Y-111148346D01*
X108874123Y-111148349D01*
X108951854Y-111180546D01*
X109086113Y-111236158D01*
X109307762Y-111295548D01*
X109535266Y-111325500D01*
X109535273Y-111325500D01*
X109764727Y-111325500D01*
X109764734Y-111325500D01*
X109992238Y-111295548D01*
X110213887Y-111236158D01*
X110425888Y-111148344D01*
X110624612Y-111033611D01*
X110806661Y-110893919D01*
X110806665Y-110893914D01*
X110806670Y-110893911D01*
X110968911Y-110731670D01*
X110968914Y-110731665D01*
X110968919Y-110731661D01*
X111108611Y-110549612D01*
X111223344Y-110350888D01*
X111311158Y-110138887D01*
X111370548Y-109917238D01*
X111400500Y-109689734D01*
X111400500Y-109460266D01*
X111370548Y-109232762D01*
X111311158Y-109011113D01*
X111236248Y-108830264D01*
X111223349Y-108799123D01*
X111223346Y-108799117D01*
X111223344Y-108799112D01*
X111108611Y-108600388D01*
X111108608Y-108600385D01*
X111108607Y-108600382D01*
X110968918Y-108418338D01*
X110968911Y-108418330D01*
X110806670Y-108256089D01*
X110806660Y-108256080D01*
X110805152Y-108254923D01*
X110804817Y-108254464D01*
X110803618Y-108253413D01*
X110803793Y-108253212D01*
X110803791Y-108253210D01*
X110803831Y-108253169D01*
X110803853Y-108253144D01*
X110763952Y-108198493D01*
X110759800Y-108128747D01*
X110794016Y-108067828D01*
X110842326Y-108038620D01*
X111014182Y-107982781D01*
X111238575Y-107868446D01*
X111238581Y-107868442D01*
X111340697Y-107794250D01*
X111340698Y-107794250D01*
X110611059Y-107064612D01*
X110631591Y-107059111D01*
X110768408Y-106980119D01*
X110880119Y-106868408D01*
X110959111Y-106731591D01*
X110964612Y-106711059D01*
X111694250Y-107440698D01*
X111694250Y-107440697D01*
X111768442Y-107338581D01*
X111768446Y-107338575D01*
X111882780Y-107114184D01*
X111960602Y-106874669D01*
X112000000Y-106625928D01*
X112000000Y-106374071D01*
X111960602Y-106125330D01*
X111882780Y-105885815D01*
X111768442Y-105661416D01*
X111694250Y-105559301D01*
X111694250Y-105559300D01*
X110964612Y-106288939D01*
X110959111Y-106268409D01*
X110880119Y-106131592D01*
X110768408Y-106019881D01*
X110631591Y-105940889D01*
X110611058Y-105935387D01*
X111340698Y-105205748D01*
X111238583Y-105131557D01*
X111014184Y-105017219D01*
X110774669Y-104939397D01*
X110525928Y-104900000D01*
X110274072Y-104900000D01*
X110025330Y-104939397D01*
X109785815Y-105017219D01*
X109561413Y-105131559D01*
X109459301Y-105205747D01*
X109459300Y-105205748D01*
X110188940Y-105935387D01*
X110168409Y-105940889D01*
X110031592Y-106019881D01*
X109919881Y-106131592D01*
X109840889Y-106268409D01*
X109835387Y-106288940D01*
X109105748Y-105559300D01*
X109105747Y-105559301D01*
X109031559Y-105661413D01*
X108917219Y-105885815D01*
X108839397Y-106125330D01*
X108800000Y-106374071D01*
X108800000Y-106625928D01*
X108839397Y-106874669D01*
X108917219Y-107114184D01*
X109031557Y-107338583D01*
X109105748Y-107440697D01*
X109105748Y-107440698D01*
X109835387Y-106711059D01*
X109840889Y-106731591D01*
X109919881Y-106868408D01*
X110031592Y-106980119D01*
X110168409Y-107059111D01*
X110188940Y-107064612D01*
X109442711Y-107810839D01*
X109381388Y-107844324D01*
X109371218Y-107846097D01*
X109307767Y-107854451D01*
X109307764Y-107854451D01*
X109307762Y-107854452D01*
X109255550Y-107868442D01*
X109086112Y-107913842D01*
X108874123Y-108001650D01*
X108874109Y-108001657D01*
X108675382Y-108116392D01*
X108493338Y-108256081D01*
X108331081Y-108418338D01*
X108191392Y-108600382D01*
X108076657Y-108799109D01*
X108076650Y-108799123D01*
X107988842Y-109011112D01*
X107972875Y-109070702D01*
X107932654Y-109220814D01*
X107929453Y-109232759D01*
X107929451Y-109232770D01*
X107899500Y-109460258D01*
X101400499Y-109460258D01*
X101370548Y-109232762D01*
X101311158Y-109011113D01*
X101236248Y-108830264D01*
X101223349Y-108799123D01*
X101223346Y-108799117D01*
X101223344Y-108799112D01*
X101108611Y-108600388D01*
X101108608Y-108600385D01*
X101108607Y-108600382D01*
X100968918Y-108418338D01*
X100968911Y-108418330D01*
X100806670Y-108256089D01*
X100806661Y-108256081D01*
X100624617Y-108116392D01*
X100425890Y-108001657D01*
X100425876Y-108001650D01*
X100213887Y-107913842D01*
X99992238Y-107854452D01*
X99954215Y-107849446D01*
X99764741Y-107824500D01*
X99764734Y-107824500D01*
X99535266Y-107824500D01*
X99535258Y-107824500D01*
X99318715Y-107853009D01*
X99307762Y-107854452D01*
X99255550Y-107868442D01*
X99086112Y-107913842D01*
X98874123Y-108001650D01*
X98874109Y-108001657D01*
X98675382Y-108116392D01*
X98493338Y-108256081D01*
X98331081Y-108418338D01*
X98191392Y-108600382D01*
X98076657Y-108799109D01*
X98076650Y-108799123D01*
X97988842Y-109011112D01*
X97972875Y-109070702D01*
X97932654Y-109220814D01*
X97929453Y-109232759D01*
X97929451Y-109232770D01*
X97899500Y-109460258D01*
X90500500Y-109460258D01*
X90500500Y-107446530D01*
X103599500Y-107446530D01*
X103599500Y-107653469D01*
X103639868Y-107856412D01*
X103639870Y-107856420D01*
X103707967Y-108020821D01*
X103719059Y-108047598D01*
X103754407Y-108100500D01*
X103834024Y-108219657D01*
X103980342Y-108365975D01*
X103980345Y-108365977D01*
X104152402Y-108480941D01*
X104343580Y-108560130D01*
X104545942Y-108600382D01*
X104546530Y-108600499D01*
X104546534Y-108600500D01*
X104546535Y-108600500D01*
X104753466Y-108600500D01*
X104753467Y-108600499D01*
X104956420Y-108560130D01*
X105147598Y-108480941D01*
X105319655Y-108365977D01*
X105465977Y-108219655D01*
X105580941Y-108047598D01*
X105660130Y-107856420D01*
X105700500Y-107653465D01*
X105700500Y-107446535D01*
X105660130Y-107243580D01*
X105580941Y-107052402D01*
X105465977Y-106880345D01*
X105465975Y-106880342D01*
X105319657Y-106734024D01*
X105157929Y-106625962D01*
X105147598Y-106619059D01*
X104956420Y-106539870D01*
X104956412Y-106539868D01*
X104753469Y-106499500D01*
X104753465Y-106499500D01*
X104546535Y-106499500D01*
X104546530Y-106499500D01*
X104343587Y-106539868D01*
X104343579Y-106539870D01*
X104152403Y-106619058D01*
X103980342Y-106734024D01*
X103834024Y-106880342D01*
X103719058Y-107052403D01*
X103639870Y-107243579D01*
X103639868Y-107243587D01*
X103599500Y-107446530D01*
X90500500Y-107446530D01*
X90500500Y-100631902D01*
X94419500Y-100631902D01*
X94419500Y-100868097D01*
X94456446Y-101101368D01*
X94529433Y-101325996D01*
X94589089Y-101443076D01*
X94636657Y-101536433D01*
X94775483Y-101727510D01*
X94775485Y-101727512D01*
X94942490Y-101894517D01*
X94949603Y-101899685D01*
X94992266Y-101955017D01*
X94998242Y-102024630D01*
X94965634Y-102086424D01*
X94949603Y-102100315D01*
X94942490Y-102105482D01*
X94775485Y-102272487D01*
X94775485Y-102272488D01*
X94775483Y-102272490D01*
X94731159Y-102333497D01*
X94636657Y-102463566D01*
X94529433Y-102674003D01*
X94456446Y-102898631D01*
X94419500Y-103131902D01*
X94419500Y-103368097D01*
X94456446Y-103601368D01*
X94529433Y-103825996D01*
X94636657Y-104036433D01*
X94775483Y-104227510D01*
X94942490Y-104394517D01*
X94998739Y-104435384D01*
X95041403Y-104490713D01*
X95046095Y-104522542D01*
X95790591Y-105267037D01*
X95727007Y-105284075D01*
X95612993Y-105349901D01*
X95519901Y-105442993D01*
X95454075Y-105557007D01*
X95437037Y-105620591D01*
X94697340Y-104880894D01*
X94637084Y-104963830D01*
X94529897Y-105174197D01*
X94456934Y-105398752D01*
X94420000Y-105631947D01*
X94420000Y-105868052D01*
X94456934Y-106101247D01*
X94529897Y-106325802D01*
X94637087Y-106536174D01*
X94697338Y-106619104D01*
X94697340Y-106619105D01*
X95437037Y-105879408D01*
X95454075Y-105942993D01*
X95519901Y-106057007D01*
X95612993Y-106150099D01*
X95727007Y-106215925D01*
X95790590Y-106232962D01*
X95050893Y-106972658D01*
X95133828Y-107032914D01*
X95344197Y-107140102D01*
X95568752Y-107213065D01*
X95568751Y-107213065D01*
X95801948Y-107250000D01*
X96038052Y-107250000D01*
X96271247Y-107213065D01*
X96495802Y-107140102D01*
X96706163Y-107032918D01*
X96706169Y-107032914D01*
X96789104Y-106972658D01*
X96789105Y-106972658D01*
X96049408Y-106232962D01*
X96112993Y-106215925D01*
X96227007Y-106150099D01*
X96320099Y-106057007D01*
X96385925Y-105942993D01*
X96402962Y-105879409D01*
X97142658Y-106619105D01*
X97142658Y-106619104D01*
X97202914Y-106536169D01*
X97202918Y-106536163D01*
X97310102Y-106325802D01*
X97383065Y-106101247D01*
X97420000Y-105868052D01*
X97420000Y-105631947D01*
X97383065Y-105398751D01*
X97348161Y-105291326D01*
X97310102Y-105174195D01*
X97202914Y-104963828D01*
X97142658Y-104880894D01*
X97142658Y-104880893D01*
X96402962Y-105620590D01*
X96385925Y-105557007D01*
X96320099Y-105442993D01*
X96227007Y-105349901D01*
X96112993Y-105284075D01*
X96049409Y-105267037D01*
X96795716Y-104520729D01*
X96804891Y-104477054D01*
X96841257Y-104435386D01*
X96897510Y-104394517D01*
X97064517Y-104227510D01*
X97203343Y-104036433D01*
X97310568Y-103825992D01*
X97383553Y-103601368D01*
X97420500Y-103368097D01*
X97420500Y-103131902D01*
X97383553Y-102898631D01*
X97347151Y-102786598D01*
X97310568Y-102674008D01*
X97310566Y-102674005D01*
X97310566Y-102674003D01*
X97238516Y-102532598D01*
X97203343Y-102463567D01*
X97064517Y-102272490D01*
X96897510Y-102105483D01*
X96890401Y-102100318D01*
X96847735Y-102044988D01*
X96841756Y-101975375D01*
X96874362Y-101913580D01*
X96890401Y-101899682D01*
X96890500Y-101899609D01*
X96897510Y-101894517D01*
X97064517Y-101727510D01*
X97203343Y-101536433D01*
X97310568Y-101325992D01*
X97344749Y-101220794D01*
X97348688Y-101208672D01*
X97348688Y-101208671D01*
X97383552Y-101101372D01*
X97383552Y-101101371D01*
X97383553Y-101101368D01*
X97402588Y-100981184D01*
X97420500Y-100868097D01*
X97420500Y-100631902D01*
X97383553Y-100398631D01*
X97310566Y-100174003D01*
X97222161Y-100000500D01*
X97203343Y-99963567D01*
X97064517Y-99772490D01*
X96897510Y-99605483D01*
X96706433Y-99466657D01*
X96669024Y-99447596D01*
X96495996Y-99359433D01*
X96271368Y-99286446D01*
X96038097Y-99249500D01*
X96038092Y-99249500D01*
X95801908Y-99249500D01*
X95801903Y-99249500D01*
X95568631Y-99286446D01*
X95344003Y-99359433D01*
X95133566Y-99466657D01*
X95024550Y-99545862D01*
X94942490Y-99605483D01*
X94942488Y-99605485D01*
X94942487Y-99605485D01*
X94775485Y-99772487D01*
X94775485Y-99772488D01*
X94775483Y-99772490D01*
X94715862Y-99854550D01*
X94636657Y-99963566D01*
X94529433Y-100174003D01*
X94456446Y-100398631D01*
X94419500Y-100631902D01*
X90500500Y-100631902D01*
X90500500Y-98846530D01*
X103599500Y-98846530D01*
X103599500Y-99053469D01*
X103639868Y-99256412D01*
X103639870Y-99256420D01*
X103719058Y-99447596D01*
X103834024Y-99619657D01*
X103980342Y-99765975D01*
X103980345Y-99765977D01*
X104152402Y-99880941D01*
X104343580Y-99960130D01*
X104544016Y-99999999D01*
X104546530Y-100000499D01*
X104546534Y-100000500D01*
X104546535Y-100000500D01*
X104753466Y-100000500D01*
X104753467Y-100000499D01*
X104956420Y-99960130D01*
X105147598Y-99880941D01*
X105319655Y-99765977D01*
X105465977Y-99619655D01*
X105580941Y-99447598D01*
X105660130Y-99256420D01*
X105700500Y-99053465D01*
X105700500Y-98846535D01*
X105660130Y-98643580D01*
X105580941Y-98452402D01*
X105465977Y-98280345D01*
X105465975Y-98280342D01*
X105319657Y-98134024D01*
X105233626Y-98076541D01*
X105147598Y-98019059D01*
X104956420Y-97939870D01*
X104956412Y-97939868D01*
X104753469Y-97899500D01*
X104753465Y-97899500D01*
X104546535Y-97899500D01*
X104546530Y-97899500D01*
X104343587Y-97939868D01*
X104343579Y-97939870D01*
X104152403Y-98019058D01*
X103980342Y-98134024D01*
X103834024Y-98280342D01*
X103719058Y-98452403D01*
X103639870Y-98643579D01*
X103639868Y-98643587D01*
X103599500Y-98846530D01*
X90500500Y-98846530D01*
X90500500Y-96810258D01*
X97899500Y-96810258D01*
X97899500Y-97039741D01*
X97924446Y-97229215D01*
X97929452Y-97267238D01*
X97929453Y-97267240D01*
X97988842Y-97488887D01*
X98076650Y-97700876D01*
X98076657Y-97700890D01*
X98191392Y-97899617D01*
X98331081Y-98081661D01*
X98331089Y-98081670D01*
X98493330Y-98243911D01*
X98493338Y-98243918D01*
X98493339Y-98243919D01*
X98540806Y-98280342D01*
X98675382Y-98383607D01*
X98675385Y-98383608D01*
X98675388Y-98383611D01*
X98874112Y-98498344D01*
X98874117Y-98498346D01*
X98874123Y-98498349D01*
X98919680Y-98517219D01*
X99086113Y-98586158D01*
X99307762Y-98645548D01*
X99535266Y-98675500D01*
X99535273Y-98675500D01*
X99764727Y-98675500D01*
X99764734Y-98675500D01*
X99992238Y-98645548D01*
X100213887Y-98586158D01*
X100425888Y-98498344D01*
X100624612Y-98383611D01*
X100806661Y-98243919D01*
X100806667Y-98243913D01*
X100806670Y-98243911D01*
X100968911Y-98081670D01*
X100968914Y-98081665D01*
X100968919Y-98081661D01*
X101108611Y-97899612D01*
X101223344Y-97700888D01*
X101311158Y-97488887D01*
X101370548Y-97267238D01*
X101400500Y-97039734D01*
X101400500Y-96810266D01*
X101370548Y-96582762D01*
X101311158Y-96361113D01*
X101223344Y-96149112D01*
X101108611Y-95950388D01*
X101053034Y-95877959D01*
X101027841Y-95812791D01*
X101041879Y-95744347D01*
X101090693Y-95694357D01*
X101158784Y-95678693D01*
X101224293Y-95702154D01*
X101363567Y-95803343D01*
X101462991Y-95854002D01*
X101574003Y-95910566D01*
X101574005Y-95910566D01*
X101574008Y-95910568D01*
X101694412Y-95949689D01*
X101798631Y-95983553D01*
X102031903Y-96020500D01*
X102031908Y-96020500D01*
X102268097Y-96020500D01*
X102501368Y-95983553D01*
X102502870Y-95983065D01*
X102725992Y-95910568D01*
X102936433Y-95803343D01*
X103127510Y-95664517D01*
X103294517Y-95497510D01*
X103299682Y-95490401D01*
X103355012Y-95447735D01*
X103424625Y-95441756D01*
X103486420Y-95474362D01*
X103500318Y-95490401D01*
X103505483Y-95497510D01*
X103672490Y-95664517D01*
X103863567Y-95803343D01*
X103962991Y-95854002D01*
X104074003Y-95910566D01*
X104074005Y-95910566D01*
X104074008Y-95910568D01*
X104194412Y-95949689D01*
X104298631Y-95983553D01*
X104531903Y-96020500D01*
X104531908Y-96020500D01*
X104768097Y-96020500D01*
X105001368Y-95983553D01*
X105002870Y-95983065D01*
X105225992Y-95910568D01*
X105436433Y-95803343D01*
X105627510Y-95664517D01*
X105794517Y-95497510D01*
X105839267Y-95435915D01*
X105843680Y-95431031D01*
X105868059Y-95416063D01*
X105890711Y-95398596D01*
X105898343Y-95397470D01*
X105903223Y-95394475D01*
X105916770Y-95394753D01*
X105922543Y-95393902D01*
X106667037Y-94649408D01*
X106684075Y-94712993D01*
X106749901Y-94827007D01*
X106842993Y-94920099D01*
X106957007Y-94985925D01*
X107020590Y-95002962D01*
X106280893Y-95742658D01*
X106363828Y-95802914D01*
X106574197Y-95910102D01*
X106798752Y-95983065D01*
X106798751Y-95983065D01*
X107031948Y-96020000D01*
X107268052Y-96020000D01*
X107501247Y-95983065D01*
X107725802Y-95910102D01*
X107936171Y-95802914D01*
X108076774Y-95700760D01*
X108142580Y-95677280D01*
X108210634Y-95693105D01*
X108259329Y-95743211D01*
X108273205Y-95811689D01*
X108248036Y-95876564D01*
X108191392Y-95950383D01*
X108076657Y-96149109D01*
X108076650Y-96149123D01*
X107988842Y-96361112D01*
X107929453Y-96582759D01*
X107929451Y-96582770D01*
X107899500Y-96810258D01*
X107899500Y-97039741D01*
X107924446Y-97229215D01*
X107929452Y-97267238D01*
X107929453Y-97267240D01*
X107988842Y-97488887D01*
X108076650Y-97700876D01*
X108076657Y-97700890D01*
X108191392Y-97899617D01*
X108331081Y-98081661D01*
X108331089Y-98081670D01*
X108493330Y-98243911D01*
X108493338Y-98243918D01*
X108493339Y-98243919D01*
X108540806Y-98280342D01*
X108675382Y-98383607D01*
X108675385Y-98383608D01*
X108675388Y-98383611D01*
X108874112Y-98498344D01*
X108874117Y-98498346D01*
X108874123Y-98498349D01*
X108919680Y-98517219D01*
X109086113Y-98586158D01*
X109307762Y-98645548D01*
X109371216Y-98653902D01*
X109435111Y-98682167D01*
X109442711Y-98689159D01*
X110188940Y-99435387D01*
X110168409Y-99440889D01*
X110031592Y-99519881D01*
X109919881Y-99631592D01*
X109840889Y-99768409D01*
X109835387Y-99788940D01*
X109105748Y-99059300D01*
X109105747Y-99059301D01*
X109031559Y-99161413D01*
X108917219Y-99385815D01*
X108839397Y-99625330D01*
X108800000Y-99874071D01*
X108800000Y-100125928D01*
X108839397Y-100374669D01*
X108917219Y-100614184D01*
X109031557Y-100838583D01*
X109105748Y-100940697D01*
X109105748Y-100940698D01*
X109835387Y-100211059D01*
X109840889Y-100231591D01*
X109919881Y-100368408D01*
X110031592Y-100480119D01*
X110168409Y-100559111D01*
X110188940Y-100564612D01*
X109459300Y-101294250D01*
X109561416Y-101368442D01*
X109785815Y-101482780D01*
X110025330Y-101560602D01*
X110274072Y-101600000D01*
X110525928Y-101600000D01*
X110774669Y-101560602D01*
X111014184Y-101482780D01*
X111238575Y-101368446D01*
X111238581Y-101368442D01*
X111340697Y-101294250D01*
X111340698Y-101294250D01*
X110611059Y-100564612D01*
X110631591Y-100559111D01*
X110768408Y-100480119D01*
X110880119Y-100368408D01*
X110959111Y-100231591D01*
X110964612Y-100211059D01*
X111694250Y-100940698D01*
X111694250Y-100940697D01*
X111768442Y-100838581D01*
X111768446Y-100838575D01*
X111882780Y-100614184D01*
X111960602Y-100374669D01*
X112000000Y-100125928D01*
X112000000Y-99874071D01*
X111999995Y-99874038D01*
X113299500Y-99874038D01*
X113299500Y-100125961D01*
X113338910Y-100374785D01*
X113416760Y-100614383D01*
X113425690Y-100631908D01*
X113530995Y-100838581D01*
X113531132Y-100838848D01*
X113679201Y-101042649D01*
X113679205Y-101042654D01*
X113857345Y-101220794D01*
X113857350Y-101220798D01*
X114061153Y-101368869D01*
X114061155Y-101368870D01*
X114206794Y-101443076D01*
X114257590Y-101491050D01*
X114274500Y-101553561D01*
X114274500Y-104946437D01*
X114254815Y-105013476D01*
X114206795Y-105056922D01*
X114061151Y-105131132D01*
X113857350Y-105279201D01*
X113857345Y-105279205D01*
X113679205Y-105457345D01*
X113679201Y-105457350D01*
X113531132Y-105661151D01*
X113416760Y-105885616D01*
X113345948Y-106103554D01*
X113338910Y-106125215D01*
X113299500Y-106374038D01*
X113299500Y-106625962D01*
X113335547Y-106853553D01*
X113338910Y-106874785D01*
X113416760Y-107114383D01*
X113482590Y-107243580D01*
X113530995Y-107338581D01*
X113531132Y-107338848D01*
X113679201Y-107542649D01*
X113679205Y-107542654D01*
X113857345Y-107720794D01*
X113857350Y-107720798D01*
X113936373Y-107778211D01*
X114061155Y-107868870D01*
X114149418Y-107913842D01*
X114285616Y-107983239D01*
X114285618Y-107983239D01*
X114285621Y-107983241D01*
X114525215Y-108061090D01*
X114774038Y-108100500D01*
X114774039Y-108100500D01*
X115025961Y-108100500D01*
X115025962Y-108100500D01*
X115274785Y-108061090D01*
X115514379Y-107983241D01*
X115738845Y-107868870D01*
X115942656Y-107720793D01*
X116120793Y-107542656D01*
X116268870Y-107338845D01*
X116383241Y-107114379D01*
X116461090Y-106874785D01*
X116500500Y-106625962D01*
X116500500Y-106374038D01*
X116461090Y-106125215D01*
X116383241Y-105885621D01*
X116383239Y-105885618D01*
X116383239Y-105885616D01*
X116327163Y-105775561D01*
X116268870Y-105661155D01*
X116229090Y-105606402D01*
X116120798Y-105457350D01*
X116120794Y-105457345D01*
X115942654Y-105279205D01*
X115942649Y-105279201D01*
X115738848Y-105131132D01*
X115738847Y-105131131D01*
X115738845Y-105131130D01*
X115669140Y-105095613D01*
X115593205Y-105056922D01*
X115542409Y-105008947D01*
X115525500Y-104946437D01*
X115525500Y-103646389D01*
X119962220Y-103646389D01*
X119962220Y-104619610D01*
X119982334Y-104746610D01*
X119989318Y-104790701D01*
X120042847Y-104955445D01*
X120121488Y-105109788D01*
X120223306Y-105249928D01*
X120345792Y-105372414D01*
X120485932Y-105474232D01*
X120640275Y-105552873D01*
X120805019Y-105606402D01*
X120976109Y-105633500D01*
X120976110Y-105633500D01*
X121149330Y-105633500D01*
X121149331Y-105633500D01*
X121320421Y-105606402D01*
X121485165Y-105552873D01*
X121639508Y-105474232D01*
X121779648Y-105372414D01*
X121902134Y-105249928D01*
X122003952Y-105109788D01*
X122082593Y-104955445D01*
X122136122Y-104790701D01*
X122163220Y-104619611D01*
X122163220Y-103773389D01*
X122502220Y-103773389D01*
X122502220Y-104746610D01*
X122515181Y-104828447D01*
X122529318Y-104917701D01*
X122582847Y-105082445D01*
X122661488Y-105236788D01*
X122763306Y-105376928D01*
X122885792Y-105499414D01*
X123025932Y-105601232D01*
X123180275Y-105679873D01*
X123345019Y-105733402D01*
X123516109Y-105760500D01*
X123516110Y-105760500D01*
X123689330Y-105760500D01*
X123689331Y-105760500D01*
X123860421Y-105733402D01*
X124025165Y-105679873D01*
X124179508Y-105601232D01*
X124319648Y-105499414D01*
X124442134Y-105376928D01*
X124543952Y-105236788D01*
X124622593Y-105082445D01*
X124676122Y-104917701D01*
X124703220Y-104746611D01*
X124703220Y-103773389D01*
X124676122Y-103602299D01*
X124649183Y-103519389D01*
X125042220Y-103519389D01*
X125042220Y-104492611D01*
X125046961Y-104522542D01*
X125068731Y-104660000D01*
X125069318Y-104663701D01*
X125096257Y-104746611D01*
X125122848Y-104828447D01*
X125201353Y-104982524D01*
X125201488Y-104982788D01*
X125303306Y-105122928D01*
X125425792Y-105245414D01*
X125565932Y-105347232D01*
X125720275Y-105425873D01*
X125885019Y-105479402D01*
X126056109Y-105506500D01*
X126056110Y-105506500D01*
X126229330Y-105506500D01*
X126229331Y-105506500D01*
X126400421Y-105479402D01*
X126565165Y-105425873D01*
X126719508Y-105347232D01*
X126859648Y-105245414D01*
X126982134Y-105122928D01*
X127083952Y-104982788D01*
X127162593Y-104828445D01*
X127216122Y-104663701D01*
X127243220Y-104492611D01*
X127243220Y-103773389D01*
X127582220Y-103773389D01*
X127582220Y-104746610D01*
X127595181Y-104828447D01*
X127609318Y-104917701D01*
X127662847Y-105082445D01*
X127741488Y-105236788D01*
X127843306Y-105376928D01*
X127965792Y-105499414D01*
X128105932Y-105601232D01*
X128260275Y-105679873D01*
X128425019Y-105733402D01*
X128596109Y-105760500D01*
X128596110Y-105760500D01*
X128769330Y-105760500D01*
X128769331Y-105760500D01*
X128940421Y-105733402D01*
X129105165Y-105679873D01*
X129259508Y-105601232D01*
X129399648Y-105499414D01*
X129522134Y-105376928D01*
X129623952Y-105236788D01*
X129702593Y-105082445D01*
X129756122Y-104917701D01*
X129783220Y-104746611D01*
X129783220Y-103773389D01*
X129756122Y-103602299D01*
X129729183Y-103519389D01*
X130122220Y-103519389D01*
X130122220Y-104492611D01*
X130126961Y-104522542D01*
X130148731Y-104660000D01*
X130149318Y-104663701D01*
X130176257Y-104746611D01*
X130202848Y-104828447D01*
X130281353Y-104982524D01*
X130281488Y-104982788D01*
X130383306Y-105122928D01*
X130505792Y-105245414D01*
X130645932Y-105347232D01*
X130800275Y-105425873D01*
X130965019Y-105479402D01*
X131136109Y-105506500D01*
X131136110Y-105506500D01*
X131309330Y-105506500D01*
X131309331Y-105506500D01*
X131480421Y-105479402D01*
X131645165Y-105425873D01*
X131799508Y-105347232D01*
X131939648Y-105245414D01*
X132062134Y-105122928D01*
X132163952Y-104982788D01*
X132242593Y-104828445D01*
X132296122Y-104663701D01*
X132323220Y-104492611D01*
X132323220Y-103773389D01*
X132662220Y-103773389D01*
X132662220Y-104746610D01*
X132675181Y-104828447D01*
X132689318Y-104917701D01*
X132742847Y-105082445D01*
X132821488Y-105236788D01*
X132923306Y-105376928D01*
X133045792Y-105499414D01*
X133185932Y-105601232D01*
X133340275Y-105679873D01*
X133505019Y-105733402D01*
X133676109Y-105760500D01*
X133676110Y-105760500D01*
X133849330Y-105760500D01*
X133849331Y-105760500D01*
X134020421Y-105733402D01*
X134185165Y-105679873D01*
X134339508Y-105601232D01*
X134479648Y-105499414D01*
X134602134Y-105376928D01*
X134703952Y-105236788D01*
X134782593Y-105082445D01*
X134836122Y-104917701D01*
X134863220Y-104746611D01*
X134863220Y-103773389D01*
X134836122Y-103602299D01*
X134809183Y-103519389D01*
X135202220Y-103519389D01*
X135202220Y-104492611D01*
X135206961Y-104522542D01*
X135228731Y-104660000D01*
X135229318Y-104663701D01*
X135256257Y-104746611D01*
X135282848Y-104828447D01*
X135361353Y-104982524D01*
X135361488Y-104982788D01*
X135463306Y-105122928D01*
X135585792Y-105245414D01*
X135725932Y-105347232D01*
X135880275Y-105425873D01*
X136045019Y-105479402D01*
X136216109Y-105506500D01*
X136216110Y-105506500D01*
X136389330Y-105506500D01*
X136389331Y-105506500D01*
X136560421Y-105479402D01*
X136725165Y-105425873D01*
X136879508Y-105347232D01*
X137019648Y-105245414D01*
X137142134Y-105122928D01*
X137243952Y-104982788D01*
X137322593Y-104828445D01*
X137376122Y-104663701D01*
X137403220Y-104492611D01*
X137403220Y-103773389D01*
X137742220Y-103773389D01*
X137742220Y-104746610D01*
X137755181Y-104828447D01*
X137769318Y-104917701D01*
X137822847Y-105082445D01*
X137901488Y-105236788D01*
X138003306Y-105376928D01*
X138125792Y-105499414D01*
X138265932Y-105601232D01*
X138420275Y-105679873D01*
X138585019Y-105733402D01*
X138756109Y-105760500D01*
X138756110Y-105760500D01*
X138929330Y-105760500D01*
X138929331Y-105760500D01*
X139100421Y-105733402D01*
X139265165Y-105679873D01*
X139419508Y-105601232D01*
X139559648Y-105499414D01*
X139682134Y-105376928D01*
X139783952Y-105236788D01*
X139862593Y-105082445D01*
X139916122Y-104917701D01*
X139943220Y-104746611D01*
X139943220Y-103773389D01*
X139916122Y-103602299D01*
X139889183Y-103519389D01*
X140282220Y-103519389D01*
X140282220Y-104492611D01*
X140286961Y-104522542D01*
X140308731Y-104660000D01*
X140309318Y-104663701D01*
X140336257Y-104746611D01*
X140362848Y-104828447D01*
X140441353Y-104982524D01*
X140441488Y-104982788D01*
X140543306Y-105122928D01*
X140665792Y-105245414D01*
X140805932Y-105347232D01*
X140960275Y-105425873D01*
X141125019Y-105479402D01*
X141296109Y-105506500D01*
X141296110Y-105506500D01*
X141469330Y-105506500D01*
X141469331Y-105506500D01*
X141640421Y-105479402D01*
X141805165Y-105425873D01*
X141959508Y-105347232D01*
X142099648Y-105245414D01*
X142222134Y-105122928D01*
X142323952Y-104982788D01*
X142402593Y-104828445D01*
X142456122Y-104663701D01*
X142483220Y-104492611D01*
X142483220Y-103773389D01*
X142822220Y-103773389D01*
X142822220Y-104746610D01*
X142835181Y-104828447D01*
X142849318Y-104917701D01*
X142902847Y-105082445D01*
X142981488Y-105236788D01*
X143083306Y-105376928D01*
X143205792Y-105499414D01*
X143345932Y-105601232D01*
X143500275Y-105679873D01*
X143665019Y-105733402D01*
X143836109Y-105760500D01*
X143836110Y-105760500D01*
X144009330Y-105760500D01*
X144009331Y-105760500D01*
X144180421Y-105733402D01*
X144345165Y-105679873D01*
X144499508Y-105601232D01*
X144639648Y-105499414D01*
X144762134Y-105376928D01*
X144863952Y-105236788D01*
X144942593Y-105082445D01*
X144996122Y-104917701D01*
X145023220Y-104746611D01*
X145023220Y-103773389D01*
X144996122Y-103602299D01*
X144969183Y-103519389D01*
X145362220Y-103519389D01*
X145362220Y-104492611D01*
X145366961Y-104522542D01*
X145388731Y-104660000D01*
X145389318Y-104663701D01*
X145416257Y-104746611D01*
X145442848Y-104828447D01*
X145521353Y-104982524D01*
X145521488Y-104982788D01*
X145623306Y-105122928D01*
X145745792Y-105245414D01*
X145885932Y-105347232D01*
X146040275Y-105425873D01*
X146205019Y-105479402D01*
X146376109Y-105506500D01*
X146376110Y-105506500D01*
X146549330Y-105506500D01*
X146549331Y-105506500D01*
X146720421Y-105479402D01*
X146885165Y-105425873D01*
X147039508Y-105347232D01*
X147179648Y-105245414D01*
X147302134Y-105122928D01*
X147403952Y-104982788D01*
X147482593Y-104828445D01*
X147536122Y-104663701D01*
X147563220Y-104492611D01*
X147563220Y-103773389D01*
X147902220Y-103773389D01*
X147902220Y-104746610D01*
X147915181Y-104828447D01*
X147929318Y-104917701D01*
X147982847Y-105082445D01*
X148061488Y-105236788D01*
X148163306Y-105376928D01*
X148285792Y-105499414D01*
X148425932Y-105601232D01*
X148580275Y-105679873D01*
X148745019Y-105733402D01*
X148916109Y-105760500D01*
X148916110Y-105760500D01*
X149089330Y-105760500D01*
X149089331Y-105760500D01*
X149260421Y-105733402D01*
X149425165Y-105679873D01*
X149579508Y-105601232D01*
X149719648Y-105499414D01*
X149842134Y-105376928D01*
X149943952Y-105236788D01*
X150022593Y-105082445D01*
X150076122Y-104917701D01*
X150103220Y-104746611D01*
X150103220Y-103773389D01*
X150076122Y-103602299D01*
X150049183Y-103519389D01*
X150442220Y-103519389D01*
X150442220Y-104492611D01*
X150446961Y-104522542D01*
X150468731Y-104660000D01*
X150469318Y-104663701D01*
X150496257Y-104746611D01*
X150522848Y-104828447D01*
X150601353Y-104982524D01*
X150601488Y-104982788D01*
X150703306Y-105122928D01*
X150825792Y-105245414D01*
X150965932Y-105347232D01*
X151120275Y-105425873D01*
X151285019Y-105479402D01*
X151456109Y-105506500D01*
X151456110Y-105506500D01*
X151629330Y-105506500D01*
X151629331Y-105506500D01*
X151800421Y-105479402D01*
X151965165Y-105425873D01*
X152119508Y-105347232D01*
X152259648Y-105245414D01*
X152382134Y-105122928D01*
X152483952Y-104982788D01*
X152562593Y-104828445D01*
X152616122Y-104663701D01*
X152643220Y-104492611D01*
X152643220Y-103773389D01*
X152982220Y-103773389D01*
X152982220Y-104746610D01*
X152995181Y-104828447D01*
X153009318Y-104917701D01*
X153062847Y-105082445D01*
X153141488Y-105236788D01*
X153243306Y-105376928D01*
X153365792Y-105499414D01*
X153505932Y-105601232D01*
X153660275Y-105679873D01*
X153825019Y-105733402D01*
X153996109Y-105760500D01*
X153996110Y-105760500D01*
X154169330Y-105760500D01*
X154169331Y-105760500D01*
X154340421Y-105733402D01*
X154505165Y-105679873D01*
X154659508Y-105601232D01*
X154799648Y-105499414D01*
X154922134Y-105376928D01*
X155023952Y-105236788D01*
X155102593Y-105082445D01*
X155156122Y-104917701D01*
X155183220Y-104746611D01*
X155183220Y-103773389D01*
X155156122Y-103602299D01*
X155129183Y-103519389D01*
X155522220Y-103519389D01*
X155522220Y-104492611D01*
X155526961Y-104522542D01*
X155548731Y-104660000D01*
X155549318Y-104663701D01*
X155576257Y-104746611D01*
X155602848Y-104828447D01*
X155681353Y-104982524D01*
X155681488Y-104982788D01*
X155783306Y-105122928D01*
X155783308Y-105122930D01*
X155905795Y-105245417D01*
X155946104Y-105274702D01*
X155988770Y-105330031D01*
X155997220Y-105375021D01*
X155997220Y-109023646D01*
X155977535Y-109090685D01*
X155976322Y-109092537D01*
X155890609Y-109220814D01*
X155890602Y-109220827D01*
X155830264Y-109366498D01*
X155830261Y-109366510D01*
X155799500Y-109521153D01*
X155799500Y-109678846D01*
X155830261Y-109833489D01*
X155830264Y-109833501D01*
X155890602Y-109979172D01*
X155890609Y-109979185D01*
X155978210Y-110110288D01*
X155978213Y-110110292D01*
X156089707Y-110221786D01*
X156089711Y-110221789D01*
X156220814Y-110309390D01*
X156220827Y-110309397D01*
X156366498Y-110369735D01*
X156366503Y-110369737D01*
X156521153Y-110400499D01*
X156521156Y-110400500D01*
X156521158Y-110400500D01*
X156678844Y-110400500D01*
X156678845Y-110400499D01*
X156833497Y-110369737D01*
X156979179Y-110309394D01*
X157110289Y-110221789D01*
X157221789Y-110110289D01*
X157309394Y-109979179D01*
X157369737Y-109833497D01*
X157400500Y-109678842D01*
X157400500Y-109521158D01*
X157400500Y-109521155D01*
X157400499Y-109521153D01*
X157374993Y-109392928D01*
X157369737Y-109366503D01*
X157341665Y-109298731D01*
X157309397Y-109220828D01*
X157309394Y-109220822D01*
X157309394Y-109220821D01*
X157269116Y-109160541D01*
X157248240Y-109093865D01*
X157248220Y-109091652D01*
X157248220Y-105375021D01*
X157267905Y-105307982D01*
X157299336Y-105274702D01*
X157339644Y-105245417D01*
X157339644Y-105245416D01*
X157339648Y-105245414D01*
X157462134Y-105122928D01*
X157563952Y-104982788D01*
X157642593Y-104828445D01*
X157696122Y-104663701D01*
X157723220Y-104492611D01*
X157723220Y-103773389D01*
X158062220Y-103773389D01*
X158062220Y-104746610D01*
X158075181Y-104828447D01*
X158089318Y-104917701D01*
X158142847Y-105082445D01*
X158221488Y-105236788D01*
X158323306Y-105376928D01*
X158323308Y-105376930D01*
X158445795Y-105499417D01*
X158486104Y-105528702D01*
X158528770Y-105584031D01*
X158537220Y-105629021D01*
X158537220Y-109113443D01*
X158517535Y-109180482D01*
X158516322Y-109182333D01*
X158490606Y-109220819D01*
X158490604Y-109220822D01*
X158430264Y-109366498D01*
X158430261Y-109366510D01*
X158399500Y-109521153D01*
X158399500Y-109678846D01*
X158430261Y-109833489D01*
X158430264Y-109833501D01*
X158490602Y-109979172D01*
X158490609Y-109979185D01*
X158578210Y-110110288D01*
X158578213Y-110110292D01*
X158689707Y-110221786D01*
X158689711Y-110221789D01*
X158820814Y-110309390D01*
X158820827Y-110309397D01*
X158966498Y-110369735D01*
X158966503Y-110369737D01*
X159121153Y-110400499D01*
X159121156Y-110400500D01*
X159121158Y-110400500D01*
X159278844Y-110400500D01*
X159278845Y-110400499D01*
X159433497Y-110369737D01*
X159579179Y-110309394D01*
X159710289Y-110221789D01*
X159821789Y-110110289D01*
X159909394Y-109979179D01*
X159969737Y-109833497D01*
X160000500Y-109678842D01*
X160000500Y-109521158D01*
X160000500Y-109521155D01*
X160000499Y-109521153D01*
X159974993Y-109392928D01*
X159969737Y-109366503D01*
X159960943Y-109345272D01*
X159909397Y-109220827D01*
X159909390Y-109220814D01*
X159821789Y-109089711D01*
X159817924Y-109085001D01*
X159819679Y-109083560D01*
X159791054Y-109031137D01*
X159788220Y-109004779D01*
X159788220Y-108321153D01*
X160399500Y-108321153D01*
X160399500Y-108478846D01*
X160430261Y-108633489D01*
X160430264Y-108633501D01*
X160490602Y-108779172D01*
X160490609Y-108779185D01*
X160578210Y-108910288D01*
X160578213Y-108910292D01*
X160689707Y-109021786D01*
X160689711Y-109021789D01*
X160820814Y-109109390D01*
X160820827Y-109109397D01*
X160944304Y-109160542D01*
X160966503Y-109169737D01*
X161099943Y-109196280D01*
X161121153Y-109200499D01*
X161121156Y-109200500D01*
X161121158Y-109200500D01*
X161278844Y-109200500D01*
X161278845Y-109200499D01*
X161433497Y-109169737D01*
X161558984Y-109117759D01*
X161579172Y-109109397D01*
X161579172Y-109109396D01*
X161579179Y-109109394D01*
X161710289Y-109021789D01*
X161821789Y-108910289D01*
X161909394Y-108779179D01*
X161969737Y-108633497D01*
X161991858Y-108522282D01*
X162024241Y-108460376D01*
X162025794Y-108458795D01*
X162066251Y-108418339D01*
X162188577Y-108296014D01*
X162202953Y-108274500D01*
X162257031Y-108193566D01*
X162304183Y-108079732D01*
X162328220Y-107958886D01*
X162328220Y-105375021D01*
X162347905Y-105307982D01*
X162379336Y-105274702D01*
X162419644Y-105245417D01*
X162419644Y-105245416D01*
X162419648Y-105245414D01*
X162542134Y-105122928D01*
X162643952Y-104982788D01*
X162722593Y-104828445D01*
X162776122Y-104663701D01*
X162803220Y-104492611D01*
X162803220Y-103773389D01*
X163142220Y-103773389D01*
X163142220Y-104746610D01*
X163155181Y-104828447D01*
X163169318Y-104917701D01*
X163222847Y-105082445D01*
X163301488Y-105236788D01*
X163403306Y-105376928D01*
X163525792Y-105499414D01*
X163665932Y-105601232D01*
X163820275Y-105679873D01*
X163985019Y-105733402D01*
X164156109Y-105760500D01*
X164156110Y-105760500D01*
X164329330Y-105760500D01*
X164329331Y-105760500D01*
X164500421Y-105733402D01*
X164665165Y-105679873D01*
X164694204Y-105665076D01*
X164762873Y-105652180D01*
X164827614Y-105678455D01*
X164867871Y-105735561D01*
X164874500Y-105775561D01*
X164874500Y-108961607D01*
X164877190Y-108975132D01*
X164877192Y-108975141D01*
X164877803Y-108978211D01*
X164898537Y-109082452D01*
X164909697Y-109109394D01*
X164913158Y-109117750D01*
X164913159Y-109117753D01*
X164945685Y-109196280D01*
X164945687Y-109196283D01*
X164945688Y-109196286D01*
X164970066Y-109232770D01*
X164979914Y-109247507D01*
X164979915Y-109247509D01*
X165014140Y-109298731D01*
X165014141Y-109298732D01*
X165014142Y-109298733D01*
X165101267Y-109385858D01*
X165101268Y-109385858D01*
X165108335Y-109392925D01*
X165108334Y-109392925D01*
X165108338Y-109392928D01*
X165374205Y-109658795D01*
X165407690Y-109720118D01*
X165408141Y-109722285D01*
X165430261Y-109833489D01*
X165430264Y-109833501D01*
X165490602Y-109979172D01*
X165490609Y-109979185D01*
X165578210Y-110110288D01*
X165578213Y-110110292D01*
X165689707Y-110221786D01*
X165689711Y-110221789D01*
X165820814Y-110309390D01*
X165820827Y-110309397D01*
X165966498Y-110369735D01*
X165966503Y-110369737D01*
X166121153Y-110400499D01*
X166121156Y-110400500D01*
X166121158Y-110400500D01*
X166278844Y-110400500D01*
X166278845Y-110400499D01*
X166433497Y-110369737D01*
X166579179Y-110309394D01*
X166710289Y-110221789D01*
X166821789Y-110110289D01*
X166909394Y-109979179D01*
X166969737Y-109833497D01*
X167000500Y-109678842D01*
X167000500Y-109521158D01*
X167000500Y-109521155D01*
X167000499Y-109521153D01*
X166969739Y-109366513D01*
X166969738Y-109366510D01*
X166969737Y-109366503D01*
X166960943Y-109345272D01*
X166960937Y-109345258D01*
X174309500Y-109345258D01*
X174309500Y-109574741D01*
X174328926Y-109722285D01*
X174339452Y-109802238D01*
X174386861Y-109979172D01*
X174398842Y-110023887D01*
X174486650Y-110235876D01*
X174486656Y-110235888D01*
X174581694Y-110400500D01*
X174601392Y-110434617D01*
X174741081Y-110616661D01*
X174741089Y-110616670D01*
X174903330Y-110778911D01*
X174903338Y-110778918D01*
X175085382Y-110918607D01*
X175085385Y-110918608D01*
X175085388Y-110918611D01*
X175284112Y-111033344D01*
X175284117Y-111033346D01*
X175284123Y-111033349D01*
X175375480Y-111071190D01*
X175496113Y-111121158D01*
X175717762Y-111180548D01*
X175945266Y-111210500D01*
X175945273Y-111210500D01*
X176174727Y-111210500D01*
X176174734Y-111210500D01*
X176402238Y-111180548D01*
X176623887Y-111121158D01*
X176835888Y-111033344D01*
X177034612Y-110918611D01*
X177216661Y-110778919D01*
X177216665Y-110778914D01*
X177216670Y-110778911D01*
X177378911Y-110616670D01*
X177378914Y-110616665D01*
X177378919Y-110616661D01*
X177518611Y-110434612D01*
X177633344Y-110235888D01*
X177721158Y-110023887D01*
X177780548Y-109802238D01*
X177810500Y-109574734D01*
X177810500Y-109345266D01*
X177780548Y-109117762D01*
X177721158Y-108896113D01*
X177633344Y-108684112D01*
X177518611Y-108485388D01*
X177518608Y-108485385D01*
X177518607Y-108485382D01*
X177378918Y-108303338D01*
X177378911Y-108303330D01*
X177216670Y-108141089D01*
X177216661Y-108141081D01*
X177034617Y-108001392D01*
X176835890Y-107886657D01*
X176835876Y-107886650D01*
X176623887Y-107798842D01*
X176606749Y-107794250D01*
X176402238Y-107739452D01*
X176364215Y-107734446D01*
X176174741Y-107709500D01*
X176174734Y-107709500D01*
X175945266Y-107709500D01*
X175945258Y-107709500D01*
X175728715Y-107738009D01*
X175717762Y-107739452D01*
X175624076Y-107764554D01*
X175496112Y-107798842D01*
X175284123Y-107886650D01*
X175284109Y-107886657D01*
X175085382Y-108001392D01*
X174903338Y-108141081D01*
X174741081Y-108303338D01*
X174601392Y-108485382D01*
X174486657Y-108684109D01*
X174486650Y-108684123D01*
X174398842Y-108896112D01*
X174395043Y-108910292D01*
X174339455Y-109117753D01*
X174339453Y-109117759D01*
X174339451Y-109117770D01*
X174309500Y-109345258D01*
X166960937Y-109345258D01*
X166909397Y-109220827D01*
X166909390Y-109220814D01*
X166821789Y-109089711D01*
X166821786Y-109089707D01*
X166710292Y-108978213D01*
X166710288Y-108978210D01*
X166579185Y-108890609D01*
X166579172Y-108890602D01*
X166433501Y-108830264D01*
X166433489Y-108830261D01*
X166322286Y-108808141D01*
X166305530Y-108799376D01*
X166287050Y-108795356D01*
X166262008Y-108776610D01*
X166260375Y-108775756D01*
X166258795Y-108774205D01*
X166161818Y-108677227D01*
X166128334Y-108615903D01*
X166125500Y-108589546D01*
X166125500Y-105508599D01*
X166145185Y-105441560D01*
X166197989Y-105395805D01*
X166267147Y-105385861D01*
X166305793Y-105398113D01*
X166360275Y-105425873D01*
X166525019Y-105479402D01*
X166696109Y-105506500D01*
X166696110Y-105506500D01*
X166869330Y-105506500D01*
X166869331Y-105506500D01*
X167040421Y-105479402D01*
X167205165Y-105425873D01*
X167359508Y-105347232D01*
X167499648Y-105245414D01*
X167622134Y-105122928D01*
X167723952Y-104982788D01*
X167802593Y-104828445D01*
X167856122Y-104663701D01*
X167883220Y-104492611D01*
X167883220Y-103773389D01*
X168222220Y-103773389D01*
X168222220Y-104746610D01*
X168235181Y-104828447D01*
X168249318Y-104917701D01*
X168302847Y-105082445D01*
X168381488Y-105236788D01*
X168483306Y-105376928D01*
X168605792Y-105499414D01*
X168745932Y-105601232D01*
X168900275Y-105679873D01*
X169065019Y-105733402D01*
X169236109Y-105760500D01*
X169236110Y-105760500D01*
X169409330Y-105760500D01*
X169409331Y-105760500D01*
X169580421Y-105733402D01*
X169745165Y-105679873D01*
X169899508Y-105601232D01*
X170039648Y-105499414D01*
X170162134Y-105376928D01*
X170263952Y-105236788D01*
X170342593Y-105082445D01*
X170396122Y-104917701D01*
X170423220Y-104746611D01*
X170423220Y-103773389D01*
X170396122Y-103602299D01*
X170369195Y-103519428D01*
X170762720Y-103519428D01*
X170762720Y-103756000D01*
X171547034Y-103756000D01*
X171542640Y-103760394D01*
X171489979Y-103851606D01*
X171462720Y-103953339D01*
X171462720Y-104058661D01*
X171489979Y-104160394D01*
X171542640Y-104251606D01*
X171547034Y-104256000D01*
X170762720Y-104256000D01*
X170762720Y-104492571D01*
X170789805Y-104663584D01*
X170843311Y-104828257D01*
X170921915Y-104982524D01*
X171023687Y-105122602D01*
X171146117Y-105245032D01*
X171286195Y-105346804D01*
X171440464Y-105425408D01*
X171605135Y-105478914D01*
X171605134Y-105478914D01*
X171612719Y-105480115D01*
X171612720Y-105480114D01*
X171612720Y-104321686D01*
X171617114Y-104326080D01*
X171708326Y-104378741D01*
X171810059Y-104406000D01*
X171915381Y-104406000D01*
X172017114Y-104378741D01*
X172108326Y-104326080D01*
X172112720Y-104321686D01*
X172112720Y-105480115D01*
X172120304Y-105478914D01*
X172284975Y-105425408D01*
X172439244Y-105346804D01*
X172579322Y-105245032D01*
X172701752Y-105122602D01*
X172803524Y-104982524D01*
X172882128Y-104828257D01*
X172935634Y-104663584D01*
X172962720Y-104492571D01*
X172962720Y-104256000D01*
X172178406Y-104256000D01*
X172182800Y-104251606D01*
X172235461Y-104160394D01*
X172262720Y-104058661D01*
X172262720Y-103953339D01*
X172235461Y-103851606D01*
X172190325Y-103773428D01*
X173302720Y-103773428D01*
X173302720Y-104010000D01*
X174087034Y-104010000D01*
X174082640Y-104014394D01*
X174029979Y-104105606D01*
X174002720Y-104207339D01*
X174002720Y-104312661D01*
X174029979Y-104414394D01*
X174082640Y-104505606D01*
X174087034Y-104510000D01*
X173302720Y-104510000D01*
X173302720Y-104746571D01*
X173329805Y-104917584D01*
X173383311Y-105082257D01*
X173461915Y-105236524D01*
X173563687Y-105376602D01*
X173686117Y-105499032D01*
X173826195Y-105600804D01*
X173980464Y-105679408D01*
X174145135Y-105732914D01*
X174145134Y-105732914D01*
X174152719Y-105734115D01*
X174152720Y-105734114D01*
X174152720Y-104575686D01*
X174157114Y-104580080D01*
X174248326Y-104632741D01*
X174350059Y-104660000D01*
X174455381Y-104660000D01*
X174557114Y-104632741D01*
X174648326Y-104580080D01*
X174652720Y-104575686D01*
X174652720Y-105734115D01*
X174660304Y-105732914D01*
X174824975Y-105679408D01*
X174979244Y-105600804D01*
X175119322Y-105499032D01*
X175241752Y-105376602D01*
X175343524Y-105236524D01*
X175422128Y-105082257D01*
X175475634Y-104917584D01*
X175502720Y-104746571D01*
X175502720Y-104510000D01*
X174718406Y-104510000D01*
X174722800Y-104505606D01*
X174775461Y-104414394D01*
X174802720Y-104312661D01*
X174802720Y-104207339D01*
X174775461Y-104105606D01*
X174722800Y-104014394D01*
X174718406Y-104010000D01*
X175502720Y-104010000D01*
X175502720Y-103773428D01*
X175475634Y-103602415D01*
X175422128Y-103437742D01*
X175343524Y-103283475D01*
X175241752Y-103143397D01*
X175119322Y-103020967D01*
X174979244Y-102919195D01*
X174824977Y-102840591D01*
X174660309Y-102787087D01*
X174660301Y-102787085D01*
X174652720Y-102785884D01*
X174652720Y-103944314D01*
X174648326Y-103939920D01*
X174557114Y-103887259D01*
X174455381Y-103860000D01*
X174350059Y-103860000D01*
X174248326Y-103887259D01*
X174157114Y-103939920D01*
X174152720Y-103944314D01*
X174152720Y-102785884D01*
X174152719Y-102785884D01*
X174145138Y-102787085D01*
X174145130Y-102787087D01*
X173980462Y-102840591D01*
X173826195Y-102919195D01*
X173686117Y-103020967D01*
X173563687Y-103143397D01*
X173461915Y-103283475D01*
X173383311Y-103437742D01*
X173329805Y-103602415D01*
X173302720Y-103773428D01*
X172190325Y-103773428D01*
X172182800Y-103760394D01*
X172178406Y-103756000D01*
X172962720Y-103756000D01*
X172962720Y-103519428D01*
X172935634Y-103348415D01*
X172882128Y-103183742D01*
X172803524Y-103029475D01*
X172701752Y-102889397D01*
X172579322Y-102766967D01*
X172439244Y-102665195D01*
X172284977Y-102586591D01*
X172120309Y-102533087D01*
X172120301Y-102533085D01*
X172112720Y-102531884D01*
X172112720Y-103690314D01*
X172108326Y-103685920D01*
X172017114Y-103633259D01*
X171915381Y-103606000D01*
X171810059Y-103606000D01*
X171708326Y-103633259D01*
X171617114Y-103685920D01*
X171612720Y-103690314D01*
X171612720Y-102531884D01*
X171612719Y-102531884D01*
X171605138Y-102533085D01*
X171605130Y-102533087D01*
X171440462Y-102586591D01*
X171286195Y-102665195D01*
X171146117Y-102766967D01*
X171023687Y-102889397D01*
X170921915Y-103029475D01*
X170843311Y-103183742D01*
X170789805Y-103348415D01*
X170762720Y-103519428D01*
X170369195Y-103519428D01*
X170342593Y-103437555D01*
X170263952Y-103283212D01*
X170162134Y-103143072D01*
X170039648Y-103020586D01*
X169899508Y-102918768D01*
X169745165Y-102840127D01*
X169580421Y-102786598D01*
X169580419Y-102786597D01*
X169580418Y-102786597D01*
X169448991Y-102765781D01*
X169409331Y-102759500D01*
X169236109Y-102759500D01*
X169196448Y-102765781D01*
X169065022Y-102786597D01*
X168900272Y-102840128D01*
X168745931Y-102918768D01*
X168690940Y-102958722D01*
X168605792Y-103020586D01*
X168605790Y-103020588D01*
X168605789Y-103020588D01*
X168483308Y-103143069D01*
X168483308Y-103143070D01*
X168483306Y-103143072D01*
X168439579Y-103203256D01*
X168381488Y-103283211D01*
X168302848Y-103437552D01*
X168249317Y-103602302D01*
X168222220Y-103773389D01*
X167883220Y-103773389D01*
X167883220Y-103519389D01*
X167856122Y-103348299D01*
X167802593Y-103183555D01*
X167723952Y-103029212D01*
X167622134Y-102889072D01*
X167499648Y-102766586D01*
X167359508Y-102664768D01*
X167205165Y-102586127D01*
X167040421Y-102532598D01*
X167040419Y-102532597D01*
X167040418Y-102532597D01*
X166908991Y-102511781D01*
X166869331Y-102505500D01*
X166696109Y-102505500D01*
X166663912Y-102510599D01*
X166525021Y-102532597D01*
X166390552Y-102576289D01*
X166320711Y-102578284D01*
X166260878Y-102542203D01*
X166230050Y-102479502D01*
X166237672Y-102410907D01*
X166269737Y-102333497D01*
X166300500Y-102178842D01*
X166300500Y-102021158D01*
X166300500Y-102021155D01*
X166300499Y-102021153D01*
X166291393Y-101975375D01*
X166269737Y-101866503D01*
X166269735Y-101866498D01*
X166209397Y-101720827D01*
X166209390Y-101720814D01*
X166121789Y-101589711D01*
X166121786Y-101589707D01*
X166010292Y-101478213D01*
X166010288Y-101478210D01*
X165879185Y-101390609D01*
X165879172Y-101390602D01*
X165733501Y-101330264D01*
X165733489Y-101330261D01*
X165578845Y-101299500D01*
X165578842Y-101299500D01*
X165421158Y-101299500D01*
X165421155Y-101299500D01*
X165266510Y-101330261D01*
X165266498Y-101330264D01*
X165120827Y-101390602D01*
X165120814Y-101390609D01*
X164989711Y-101478210D01*
X164989707Y-101478213D01*
X164878213Y-101589707D01*
X164878210Y-101589711D01*
X164790609Y-101720814D01*
X164790602Y-101720827D01*
X164730264Y-101866498D01*
X164730261Y-101866510D01*
X164699500Y-102021153D01*
X164699500Y-102178846D01*
X164730261Y-102333489D01*
X164730264Y-102333501D01*
X164790602Y-102479172D01*
X164790609Y-102479184D01*
X164853602Y-102573459D01*
X164859252Y-102591505D01*
X164869477Y-102607415D01*
X164873928Y-102638374D01*
X164874480Y-102640136D01*
X164874500Y-102642350D01*
X164874500Y-102744438D01*
X164854815Y-102811477D01*
X164802011Y-102857232D01*
X164732853Y-102867176D01*
X164694206Y-102854923D01*
X164665170Y-102840129D01*
X164665167Y-102840128D01*
X164665165Y-102840127D01*
X164500421Y-102786598D01*
X164500419Y-102786597D01*
X164500418Y-102786597D01*
X164368991Y-102765781D01*
X164329331Y-102759500D01*
X164156109Y-102759500D01*
X164116448Y-102765781D01*
X163985022Y-102786597D01*
X163820272Y-102840128D01*
X163665931Y-102918768D01*
X163610940Y-102958722D01*
X163525792Y-103020586D01*
X163525790Y-103020588D01*
X163525789Y-103020588D01*
X163403308Y-103143069D01*
X163403308Y-103143070D01*
X163403306Y-103143072D01*
X163359579Y-103203256D01*
X163301488Y-103283211D01*
X163222848Y-103437552D01*
X163169317Y-103602302D01*
X163142220Y-103773389D01*
X162803220Y-103773389D01*
X162803220Y-103519389D01*
X162776122Y-103348299D01*
X162722593Y-103183555D01*
X162643952Y-103029212D01*
X162542134Y-102889072D01*
X162419648Y-102766586D01*
X162279508Y-102664768D01*
X162125165Y-102586127D01*
X161960421Y-102532598D01*
X161960419Y-102532597D01*
X161960418Y-102532597D01*
X161828991Y-102511781D01*
X161789331Y-102505500D01*
X161616109Y-102505500D01*
X161576448Y-102511781D01*
X161445022Y-102532597D01*
X161280272Y-102586128D01*
X161125931Y-102664768D01*
X161059372Y-102713127D01*
X160985792Y-102766586D01*
X160985790Y-102766588D01*
X160985789Y-102766588D01*
X160863308Y-102889069D01*
X160863308Y-102889070D01*
X160863306Y-102889072D01*
X160819579Y-102949256D01*
X160761488Y-103029211D01*
X160682848Y-103183552D01*
X160629317Y-103348302D01*
X160609203Y-103475299D01*
X160602220Y-103519389D01*
X160602220Y-104492611D01*
X160606961Y-104522542D01*
X160628731Y-104660000D01*
X160629318Y-104663701D01*
X160656257Y-104746611D01*
X160682848Y-104828447D01*
X160761353Y-104982524D01*
X160761488Y-104982788D01*
X160863306Y-105122928D01*
X160863308Y-105122930D01*
X160985795Y-105245417D01*
X161026104Y-105274702D01*
X161068770Y-105330031D01*
X161077220Y-105375021D01*
X161077220Y-107506475D01*
X161057535Y-107573514D01*
X161004731Y-107619269D01*
X160977415Y-107628092D01*
X160966504Y-107630262D01*
X160966500Y-107630263D01*
X160820827Y-107690602D01*
X160820814Y-107690609D01*
X160689711Y-107778210D01*
X160689707Y-107778213D01*
X160578213Y-107889707D01*
X160578210Y-107889711D01*
X160490609Y-108020814D01*
X160490602Y-108020827D01*
X160430264Y-108166498D01*
X160430261Y-108166510D01*
X160399500Y-108321153D01*
X159788220Y-108321153D01*
X159788220Y-105629021D01*
X159807905Y-105561982D01*
X159839336Y-105528702D01*
X159879644Y-105499417D01*
X159879644Y-105499416D01*
X159879648Y-105499414D01*
X160002134Y-105376928D01*
X160103952Y-105236788D01*
X160182593Y-105082445D01*
X160236122Y-104917701D01*
X160263220Y-104746611D01*
X160263220Y-103773389D01*
X160236122Y-103602299D01*
X160182593Y-103437555D01*
X160103952Y-103283212D01*
X160002134Y-103143072D01*
X159879648Y-103020586D01*
X159739508Y-102918768D01*
X159585165Y-102840127D01*
X159420421Y-102786598D01*
X159420419Y-102786597D01*
X159420418Y-102786597D01*
X159288991Y-102765781D01*
X159249331Y-102759500D01*
X159076109Y-102759500D01*
X159036448Y-102765781D01*
X158905022Y-102786597D01*
X158740272Y-102840128D01*
X158585931Y-102918768D01*
X158530940Y-102958722D01*
X158445792Y-103020586D01*
X158445790Y-103020588D01*
X158445789Y-103020588D01*
X158323308Y-103143069D01*
X158323308Y-103143070D01*
X158323306Y-103143072D01*
X158279579Y-103203256D01*
X158221488Y-103283211D01*
X158142848Y-103437552D01*
X158089317Y-103602302D01*
X158062220Y-103773389D01*
X157723220Y-103773389D01*
X157723220Y-103519389D01*
X157696122Y-103348299D01*
X157642593Y-103183555D01*
X157563952Y-103029212D01*
X157462134Y-102889072D01*
X157339648Y-102766586D01*
X157199508Y-102664768D01*
X157045165Y-102586127D01*
X156880421Y-102532598D01*
X156880419Y-102532597D01*
X156880418Y-102532597D01*
X156748991Y-102511781D01*
X156709331Y-102505500D01*
X156536109Y-102505500D01*
X156496448Y-102511781D01*
X156365022Y-102532597D01*
X156200272Y-102586128D01*
X156045931Y-102664768D01*
X155979372Y-102713127D01*
X155905792Y-102766586D01*
X155905790Y-102766588D01*
X155905789Y-102766588D01*
X155783308Y-102889069D01*
X155783308Y-102889070D01*
X155783306Y-102889072D01*
X155739579Y-102949256D01*
X155681488Y-103029211D01*
X155602848Y-103183552D01*
X155549317Y-103348302D01*
X155529203Y-103475299D01*
X155522220Y-103519389D01*
X155129183Y-103519389D01*
X155102593Y-103437555D01*
X155023952Y-103283212D01*
X154922134Y-103143072D01*
X154799648Y-103020586D01*
X154659508Y-102918768D01*
X154505165Y-102840127D01*
X154340421Y-102786598D01*
X154340419Y-102786597D01*
X154340418Y-102786597D01*
X154208991Y-102765781D01*
X154169331Y-102759500D01*
X153996109Y-102759500D01*
X153956448Y-102765781D01*
X153825022Y-102786597D01*
X153660272Y-102840128D01*
X153505931Y-102918768D01*
X153450940Y-102958722D01*
X153365792Y-103020586D01*
X153365790Y-103020588D01*
X153365789Y-103020588D01*
X153243308Y-103143069D01*
X153243308Y-103143070D01*
X153243306Y-103143072D01*
X153199579Y-103203256D01*
X153141488Y-103283211D01*
X153062848Y-103437552D01*
X153009317Y-103602302D01*
X152982220Y-103773389D01*
X152643220Y-103773389D01*
X152643220Y-103519389D01*
X152616122Y-103348299D01*
X152562593Y-103183555D01*
X152483952Y-103029212D01*
X152382134Y-102889072D01*
X152259648Y-102766586D01*
X152119508Y-102664768D01*
X151965165Y-102586127D01*
X151800421Y-102532598D01*
X151800419Y-102532597D01*
X151800418Y-102532597D01*
X151668991Y-102511781D01*
X151629331Y-102505500D01*
X151456109Y-102505500D01*
X151416448Y-102511781D01*
X151285022Y-102532597D01*
X151120272Y-102586128D01*
X150965931Y-102664768D01*
X150899372Y-102713127D01*
X150825792Y-102766586D01*
X150825790Y-102766588D01*
X150825789Y-102766588D01*
X150703308Y-102889069D01*
X150703308Y-102889070D01*
X150703306Y-102889072D01*
X150659579Y-102949256D01*
X150601488Y-103029211D01*
X150522848Y-103183552D01*
X150469317Y-103348302D01*
X150449203Y-103475299D01*
X150442220Y-103519389D01*
X150049183Y-103519389D01*
X150022593Y-103437555D01*
X149943952Y-103283212D01*
X149842134Y-103143072D01*
X149719648Y-103020586D01*
X149579508Y-102918768D01*
X149425165Y-102840127D01*
X149260421Y-102786598D01*
X149260419Y-102786597D01*
X149260418Y-102786597D01*
X149128991Y-102765781D01*
X149089331Y-102759500D01*
X148916109Y-102759500D01*
X148876448Y-102765781D01*
X148745022Y-102786597D01*
X148580272Y-102840128D01*
X148425931Y-102918768D01*
X148370940Y-102958722D01*
X148285792Y-103020586D01*
X148285790Y-103020588D01*
X148285789Y-103020588D01*
X148163308Y-103143069D01*
X148163308Y-103143070D01*
X148163306Y-103143072D01*
X148119579Y-103203256D01*
X148061488Y-103283211D01*
X147982848Y-103437552D01*
X147929317Y-103602302D01*
X147902220Y-103773389D01*
X147563220Y-103773389D01*
X147563220Y-103519389D01*
X147536122Y-103348299D01*
X147482593Y-103183555D01*
X147403952Y-103029212D01*
X147302134Y-102889072D01*
X147179648Y-102766586D01*
X147039508Y-102664768D01*
X146885165Y-102586127D01*
X146720421Y-102532598D01*
X146720419Y-102532597D01*
X146720418Y-102532597D01*
X146588991Y-102511781D01*
X146549331Y-102505500D01*
X146376109Y-102505500D01*
X146336448Y-102511781D01*
X146205022Y-102532597D01*
X146040272Y-102586128D01*
X145885931Y-102664768D01*
X145819372Y-102713127D01*
X145745792Y-102766586D01*
X145745790Y-102766588D01*
X145745789Y-102766588D01*
X145623308Y-102889069D01*
X145623308Y-102889070D01*
X145623306Y-102889072D01*
X145579579Y-102949256D01*
X145521488Y-103029211D01*
X145442848Y-103183552D01*
X145389317Y-103348302D01*
X145369203Y-103475299D01*
X145362220Y-103519389D01*
X144969183Y-103519389D01*
X144942593Y-103437555D01*
X144863952Y-103283212D01*
X144762134Y-103143072D01*
X144639648Y-103020586D01*
X144499508Y-102918768D01*
X144345165Y-102840127D01*
X144180421Y-102786598D01*
X144180419Y-102786597D01*
X144180418Y-102786597D01*
X144048991Y-102765781D01*
X144009331Y-102759500D01*
X143836109Y-102759500D01*
X143796448Y-102765781D01*
X143665022Y-102786597D01*
X143500272Y-102840128D01*
X143345931Y-102918768D01*
X143290940Y-102958722D01*
X143205792Y-103020586D01*
X143205790Y-103020588D01*
X143205789Y-103020588D01*
X143083308Y-103143069D01*
X143083308Y-103143070D01*
X143083306Y-103143072D01*
X143039579Y-103203256D01*
X142981488Y-103283211D01*
X142902848Y-103437552D01*
X142849317Y-103602302D01*
X142822220Y-103773389D01*
X142483220Y-103773389D01*
X142483220Y-103519389D01*
X142456122Y-103348299D01*
X142402593Y-103183555D01*
X142323952Y-103029212D01*
X142222134Y-102889072D01*
X142099648Y-102766586D01*
X141959508Y-102664768D01*
X141805165Y-102586127D01*
X141640421Y-102532598D01*
X141640419Y-102532597D01*
X141640418Y-102532597D01*
X141508991Y-102511781D01*
X141469331Y-102505500D01*
X141296109Y-102505500D01*
X141256448Y-102511781D01*
X141125022Y-102532597D01*
X140960272Y-102586128D01*
X140805931Y-102664768D01*
X140739372Y-102713127D01*
X140665792Y-102766586D01*
X140665790Y-102766588D01*
X140665789Y-102766588D01*
X140543308Y-102889069D01*
X140543308Y-102889070D01*
X140543306Y-102889072D01*
X140499579Y-102949256D01*
X140441488Y-103029211D01*
X140362848Y-103183552D01*
X140309317Y-103348302D01*
X140289203Y-103475299D01*
X140282220Y-103519389D01*
X139889183Y-103519389D01*
X139862593Y-103437555D01*
X139783952Y-103283212D01*
X139682134Y-103143072D01*
X139559648Y-103020586D01*
X139419508Y-102918768D01*
X139265165Y-102840127D01*
X139100421Y-102786598D01*
X139100419Y-102786597D01*
X139100418Y-102786597D01*
X138968991Y-102765781D01*
X138929331Y-102759500D01*
X138756109Y-102759500D01*
X138716448Y-102765781D01*
X138585022Y-102786597D01*
X138420272Y-102840128D01*
X138265931Y-102918768D01*
X138210940Y-102958722D01*
X138125792Y-103020586D01*
X138125790Y-103020588D01*
X138125789Y-103020588D01*
X138003308Y-103143069D01*
X138003308Y-103143070D01*
X138003306Y-103143072D01*
X137959579Y-103203256D01*
X137901488Y-103283211D01*
X137822848Y-103437552D01*
X137769317Y-103602302D01*
X137742220Y-103773389D01*
X137403220Y-103773389D01*
X137403220Y-103519389D01*
X137376122Y-103348299D01*
X137322593Y-103183555D01*
X137243952Y-103029212D01*
X137142134Y-102889072D01*
X137019648Y-102766586D01*
X136879508Y-102664768D01*
X136725165Y-102586127D01*
X136560421Y-102532598D01*
X136560419Y-102532597D01*
X136560418Y-102532597D01*
X136428991Y-102511781D01*
X136389331Y-102505500D01*
X136216109Y-102505500D01*
X136176448Y-102511781D01*
X136045022Y-102532597D01*
X135880272Y-102586128D01*
X135725931Y-102664768D01*
X135659372Y-102713127D01*
X135585792Y-102766586D01*
X135585790Y-102766588D01*
X135585789Y-102766588D01*
X135463308Y-102889069D01*
X135463308Y-102889070D01*
X135463306Y-102889072D01*
X135419579Y-102949256D01*
X135361488Y-103029211D01*
X135282848Y-103183552D01*
X135229317Y-103348302D01*
X135209203Y-103475299D01*
X135202220Y-103519389D01*
X134809183Y-103519389D01*
X134782593Y-103437555D01*
X134703952Y-103283212D01*
X134602134Y-103143072D01*
X134479648Y-103020586D01*
X134339508Y-102918768D01*
X134185165Y-102840127D01*
X134020421Y-102786598D01*
X134020419Y-102786597D01*
X134020418Y-102786597D01*
X133888991Y-102765781D01*
X133849331Y-102759500D01*
X133676109Y-102759500D01*
X133636448Y-102765781D01*
X133505022Y-102786597D01*
X133340272Y-102840128D01*
X133185931Y-102918768D01*
X133130940Y-102958722D01*
X133045792Y-103020586D01*
X133045790Y-103020588D01*
X133045789Y-103020588D01*
X132923308Y-103143069D01*
X132923308Y-103143070D01*
X132923306Y-103143072D01*
X132879579Y-103203256D01*
X132821488Y-103283211D01*
X132742848Y-103437552D01*
X132689317Y-103602302D01*
X132662220Y-103773389D01*
X132323220Y-103773389D01*
X132323220Y-103519389D01*
X132296122Y-103348299D01*
X132242593Y-103183555D01*
X132163952Y-103029212D01*
X132062134Y-102889072D01*
X131939648Y-102766586D01*
X131799508Y-102664768D01*
X131645165Y-102586127D01*
X131480421Y-102532598D01*
X131480419Y-102532597D01*
X131480418Y-102532597D01*
X131348991Y-102511781D01*
X131309331Y-102505500D01*
X131136109Y-102505500D01*
X131096448Y-102511781D01*
X130965022Y-102532597D01*
X130800272Y-102586128D01*
X130645931Y-102664768D01*
X130579372Y-102713127D01*
X130505792Y-102766586D01*
X130505790Y-102766588D01*
X130505789Y-102766588D01*
X130383308Y-102889069D01*
X130383308Y-102889070D01*
X130383306Y-102889072D01*
X130339579Y-102949256D01*
X130281488Y-103029211D01*
X130202848Y-103183552D01*
X130149317Y-103348302D01*
X130129203Y-103475299D01*
X130122220Y-103519389D01*
X129729183Y-103519389D01*
X129702593Y-103437555D01*
X129623952Y-103283212D01*
X129522134Y-103143072D01*
X129399648Y-103020586D01*
X129259508Y-102918768D01*
X129105165Y-102840127D01*
X128940421Y-102786598D01*
X128940419Y-102786597D01*
X128940418Y-102786597D01*
X128808991Y-102765781D01*
X128769331Y-102759500D01*
X128596109Y-102759500D01*
X128556448Y-102765781D01*
X128425022Y-102786597D01*
X128260272Y-102840128D01*
X128105931Y-102918768D01*
X128050940Y-102958722D01*
X127965792Y-103020586D01*
X127965790Y-103020588D01*
X127965789Y-103020588D01*
X127843308Y-103143069D01*
X127843308Y-103143070D01*
X127843306Y-103143072D01*
X127799579Y-103203256D01*
X127741488Y-103283211D01*
X127662848Y-103437552D01*
X127609317Y-103602302D01*
X127582220Y-103773389D01*
X127243220Y-103773389D01*
X127243220Y-103519389D01*
X127216122Y-103348299D01*
X127162593Y-103183555D01*
X127083952Y-103029212D01*
X126982134Y-102889072D01*
X126859648Y-102766586D01*
X126719508Y-102664768D01*
X126565165Y-102586127D01*
X126400421Y-102532598D01*
X126400419Y-102532597D01*
X126400418Y-102532597D01*
X126268991Y-102511781D01*
X126229331Y-102505500D01*
X126056109Y-102505500D01*
X126016448Y-102511781D01*
X125885022Y-102532597D01*
X125720272Y-102586128D01*
X125565931Y-102664768D01*
X125499372Y-102713127D01*
X125425792Y-102766586D01*
X125425790Y-102766588D01*
X125425789Y-102766588D01*
X125303308Y-102889069D01*
X125303308Y-102889070D01*
X125303306Y-102889072D01*
X125259579Y-102949256D01*
X125201488Y-103029211D01*
X125122848Y-103183552D01*
X125069317Y-103348302D01*
X125049203Y-103475299D01*
X125042220Y-103519389D01*
X124649183Y-103519389D01*
X124622593Y-103437555D01*
X124543952Y-103283212D01*
X124442134Y-103143072D01*
X124319648Y-103020586D01*
X124179508Y-102918768D01*
X124025165Y-102840127D01*
X123860421Y-102786598D01*
X123860419Y-102786597D01*
X123860418Y-102786597D01*
X123728991Y-102765781D01*
X123689331Y-102759500D01*
X123516109Y-102759500D01*
X123476448Y-102765781D01*
X123345022Y-102786597D01*
X123180272Y-102840128D01*
X123025931Y-102918768D01*
X122970940Y-102958722D01*
X122885792Y-103020586D01*
X122885790Y-103020588D01*
X122885789Y-103020588D01*
X122763308Y-103143069D01*
X122763308Y-103143070D01*
X122763306Y-103143072D01*
X122719579Y-103203256D01*
X122661488Y-103283211D01*
X122582848Y-103437552D01*
X122529317Y-103602302D01*
X122502220Y-103773389D01*
X122163220Y-103773389D01*
X122163220Y-103646389D01*
X122136122Y-103475299D01*
X122082593Y-103310555D01*
X122003952Y-103156212D01*
X121902134Y-103016072D01*
X121779648Y-102893586D01*
X121639508Y-102791768D01*
X121485165Y-102713127D01*
X121320421Y-102659598D01*
X121320419Y-102659597D01*
X121320418Y-102659597D01*
X121186418Y-102638374D01*
X121149331Y-102632500D01*
X120976109Y-102632500D01*
X120939022Y-102638374D01*
X120805022Y-102659597D01*
X120640272Y-102713128D01*
X120485931Y-102791768D01*
X120419372Y-102840127D01*
X120345792Y-102893586D01*
X120345790Y-102893588D01*
X120345789Y-102893588D01*
X120223308Y-103016069D01*
X120223308Y-103016070D01*
X120223306Y-103016072D01*
X120179579Y-103076256D01*
X120121488Y-103156211D01*
X120042848Y-103310552D01*
X119989317Y-103475302D01*
X119962220Y-103646389D01*
X115525500Y-103646389D01*
X115525500Y-101553561D01*
X115545185Y-101486522D01*
X115593205Y-101443076D01*
X115738845Y-101368870D01*
X115942656Y-101220793D01*
X116120793Y-101042656D01*
X116268870Y-100838845D01*
X116383241Y-100614379D01*
X116461090Y-100374785D01*
X116500500Y-100125962D01*
X116500500Y-99874038D01*
X116461090Y-99625215D01*
X116383241Y-99385621D01*
X116383239Y-99385618D01*
X116383239Y-99385616D01*
X116317410Y-99256420D01*
X116268870Y-99161155D01*
X116190629Y-99053465D01*
X116120798Y-98957350D01*
X116120794Y-98957345D01*
X115942654Y-98779205D01*
X115942649Y-98779201D01*
X115738848Y-98631132D01*
X115738847Y-98631131D01*
X115738845Y-98631130D01*
X115668747Y-98595413D01*
X115514383Y-98516760D01*
X115274785Y-98438910D01*
X115167654Y-98421942D01*
X115025962Y-98399500D01*
X114774038Y-98399500D01*
X114649626Y-98419205D01*
X114525214Y-98438910D01*
X114285616Y-98516760D01*
X114061151Y-98631132D01*
X113857350Y-98779201D01*
X113857345Y-98779205D01*
X113679205Y-98957345D01*
X113679201Y-98957350D01*
X113531132Y-99161151D01*
X113416760Y-99385616D01*
X113338910Y-99625214D01*
X113299500Y-99874038D01*
X111999995Y-99874038D01*
X111960602Y-99625330D01*
X111882780Y-99385815D01*
X111768442Y-99161416D01*
X111694250Y-99059301D01*
X111694250Y-99059300D01*
X110964612Y-99788939D01*
X110959111Y-99768409D01*
X110880119Y-99631592D01*
X110768408Y-99519881D01*
X110631591Y-99440889D01*
X110611058Y-99435387D01*
X111340698Y-98705748D01*
X111238583Y-98631557D01*
X111014184Y-98517219D01*
X110842325Y-98461379D01*
X110784649Y-98421942D01*
X110757451Y-98357583D01*
X110769366Y-98288737D01*
X110803773Y-98246763D01*
X110803618Y-98246587D01*
X110804685Y-98245651D01*
X110805162Y-98245068D01*
X110806661Y-98243919D01*
X110806668Y-98243912D01*
X110806670Y-98243911D01*
X110968911Y-98081670D01*
X110968914Y-98081665D01*
X110968919Y-98081661D01*
X111108611Y-97899612D01*
X111223344Y-97700888D01*
X111311158Y-97488887D01*
X111370548Y-97267238D01*
X111400500Y-97039734D01*
X111400500Y-96810266D01*
X111370548Y-96582762D01*
X111311158Y-96361113D01*
X111223344Y-96149112D01*
X111108611Y-95950388D01*
X111108608Y-95950385D01*
X111108607Y-95950382D01*
X110968918Y-95768338D01*
X110968911Y-95768330D01*
X110806670Y-95606089D01*
X110806661Y-95606081D01*
X110624617Y-95466392D01*
X110425890Y-95351657D01*
X110425876Y-95351650D01*
X110213887Y-95263842D01*
X109992238Y-95204452D01*
X109954215Y-95199446D01*
X109764741Y-95174500D01*
X109764734Y-95174500D01*
X109535266Y-95174500D01*
X109535258Y-95174500D01*
X109318715Y-95203009D01*
X109307762Y-95204452D01*
X109214076Y-95229554D01*
X109086112Y-95263842D01*
X108874123Y-95351650D01*
X108874109Y-95351657D01*
X108675383Y-95466392D01*
X108542855Y-95568085D01*
X108477686Y-95593279D01*
X108409241Y-95579241D01*
X108359252Y-95530427D01*
X108343588Y-95462335D01*
X108367052Y-95396823D01*
X108432912Y-95306175D01*
X108540102Y-95095802D01*
X108613065Y-94871247D01*
X108650000Y-94638052D01*
X108650000Y-94401947D01*
X108613065Y-94168752D01*
X108540102Y-93944197D01*
X108520392Y-93905513D01*
X167239500Y-93905513D01*
X167239500Y-94094486D01*
X167269059Y-94281118D01*
X167327454Y-94460836D01*
X167391140Y-94585826D01*
X167413240Y-94629199D01*
X167524310Y-94782073D01*
X167657927Y-94915690D01*
X167810801Y-95026760D01*
X167890347Y-95067290D01*
X167979163Y-95112545D01*
X167979165Y-95112545D01*
X167979168Y-95112547D01*
X168075497Y-95143846D01*
X168158881Y-95170940D01*
X168345514Y-95200500D01*
X168345519Y-95200500D01*
X168534486Y-95200500D01*
X168721118Y-95170940D01*
X168900832Y-95112547D01*
X169069199Y-95026760D01*
X169222073Y-94915690D01*
X169355690Y-94782073D01*
X169466760Y-94629199D01*
X169552547Y-94460832D01*
X169610940Y-94281118D01*
X169628756Y-94168631D01*
X169640500Y-94094486D01*
X169640500Y-93905513D01*
X169634013Y-93864556D01*
X169631584Y-93849223D01*
X171219500Y-93849223D01*
X171219500Y-94150776D01*
X171219501Y-94150793D01*
X171258861Y-94449766D01*
X171336913Y-94741060D01*
X171452314Y-95019661D01*
X171452318Y-95019671D01*
X171603099Y-95280831D01*
X171786679Y-95520078D01*
X171786685Y-95520085D01*
X171999914Y-95733314D01*
X171999921Y-95733320D01*
X172239168Y-95916900D01*
X172500328Y-96067681D01*
X172500329Y-96067681D01*
X172500332Y-96067683D01*
X172686072Y-96144619D01*
X172778939Y-96183086D01*
X172778940Y-96183086D01*
X172778942Y-96183087D01*
X173070232Y-96261138D01*
X173369217Y-96300500D01*
X173369224Y-96300500D01*
X173670776Y-96300500D01*
X173670783Y-96300500D01*
X173969768Y-96261138D01*
X174261058Y-96183087D01*
X174539668Y-96067683D01*
X174800832Y-95916900D01*
X175040080Y-95733319D01*
X175253319Y-95520080D01*
X175436900Y-95280832D01*
X175587683Y-95019668D01*
X175703087Y-94741058D01*
X175781138Y-94449768D01*
X175820500Y-94150783D01*
X175820500Y-93905513D01*
X177399500Y-93905513D01*
X177399500Y-94094486D01*
X177429059Y-94281118D01*
X177487454Y-94460836D01*
X177551140Y-94585826D01*
X177573240Y-94629199D01*
X177684310Y-94782073D01*
X177817927Y-94915690D01*
X177970801Y-95026760D01*
X178050347Y-95067290D01*
X178139163Y-95112545D01*
X178139165Y-95112545D01*
X178139168Y-95112547D01*
X178235497Y-95143846D01*
X178318881Y-95170940D01*
X178505514Y-95200500D01*
X178505519Y-95200500D01*
X178694486Y-95200500D01*
X178881118Y-95170940D01*
X179060832Y-95112547D01*
X179229199Y-95026760D01*
X179382073Y-94915690D01*
X179515690Y-94782073D01*
X179626760Y-94629199D01*
X179712547Y-94460832D01*
X179770940Y-94281118D01*
X179788756Y-94168631D01*
X179800500Y-94094486D01*
X179800500Y-93905513D01*
X179770940Y-93718881D01*
X179739805Y-93623060D01*
X179712547Y-93539168D01*
X179712545Y-93539165D01*
X179712545Y-93539163D01*
X179636817Y-93390539D01*
X179626760Y-93370801D01*
X179515690Y-93217927D01*
X179382073Y-93084310D01*
X179229199Y-92973240D01*
X179060836Y-92887454D01*
X178881118Y-92829059D01*
X178694486Y-92799500D01*
X178694481Y-92799500D01*
X178505519Y-92799500D01*
X178505514Y-92799500D01*
X178318881Y-92829059D01*
X178139163Y-92887454D01*
X177970800Y-92973240D01*
X177888078Y-93033342D01*
X177817927Y-93084310D01*
X177817925Y-93084312D01*
X177817924Y-93084312D01*
X177684312Y-93217924D01*
X177684312Y-93217925D01*
X177684310Y-93217927D01*
X177655827Y-93257130D01*
X177573240Y-93370800D01*
X177487454Y-93539163D01*
X177429059Y-93718881D01*
X177399500Y-93905513D01*
X175820500Y-93905513D01*
X175820500Y-93849217D01*
X175781138Y-93550232D01*
X175703087Y-93258942D01*
X175702336Y-93257130D01*
X175646015Y-93121158D01*
X175587683Y-92980332D01*
X175583588Y-92973240D01*
X175436900Y-92719168D01*
X175253320Y-92479921D01*
X175253314Y-92479914D01*
X175040085Y-92266685D01*
X175040078Y-92266679D01*
X174800831Y-92083099D01*
X174539671Y-91932318D01*
X174539661Y-91932314D01*
X174261060Y-91816913D01*
X173969766Y-91738861D01*
X173670793Y-91699501D01*
X173670788Y-91699500D01*
X173670783Y-91699500D01*
X173369217Y-91699500D01*
X173369211Y-91699500D01*
X173369206Y-91699501D01*
X173070233Y-91738861D01*
X172778939Y-91816913D01*
X172500338Y-91932314D01*
X172500328Y-91932318D01*
X172239168Y-92083099D01*
X171999921Y-92266679D01*
X171999914Y-92266685D01*
X171786685Y-92479914D01*
X171786679Y-92479921D01*
X171603099Y-92719168D01*
X171452318Y-92980328D01*
X171452314Y-92980338D01*
X171336913Y-93258939D01*
X171258861Y-93550233D01*
X171219501Y-93849206D01*
X171219500Y-93849223D01*
X169631584Y-93849223D01*
X169610940Y-93718881D01*
X169579805Y-93623060D01*
X169552547Y-93539168D01*
X169552545Y-93539165D01*
X169552545Y-93539163D01*
X169525424Y-93485937D01*
X169476815Y-93390535D01*
X169463920Y-93321870D01*
X169490196Y-93257130D01*
X169547302Y-93216872D01*
X169591207Y-93211065D01*
X169591207Y-93210500D01*
X169824727Y-93210500D01*
X169824734Y-93210500D01*
X170052238Y-93180548D01*
X170273887Y-93121158D01*
X170485888Y-93033344D01*
X170684612Y-92918611D01*
X170866661Y-92778919D01*
X170866665Y-92778914D01*
X170866670Y-92778911D01*
X171028911Y-92616670D01*
X171028914Y-92616665D01*
X171028919Y-92616661D01*
X171168611Y-92434612D01*
X171283344Y-92235888D01*
X171371158Y-92023887D01*
X171430548Y-91802238D01*
X171460500Y-91574734D01*
X171460500Y-91345266D01*
X171430548Y-91117762D01*
X171371158Y-90896113D01*
X171321190Y-90775480D01*
X171283349Y-90684123D01*
X171283346Y-90684117D01*
X171283344Y-90684112D01*
X171168611Y-90485388D01*
X171168608Y-90485385D01*
X171168607Y-90485382D01*
X171028918Y-90303338D01*
X171028911Y-90303330D01*
X170866670Y-90141089D01*
X170866661Y-90141081D01*
X170684617Y-90001392D01*
X170485890Y-89886657D01*
X170485876Y-89886650D01*
X170273887Y-89798842D01*
X170052238Y-89739452D01*
X170014215Y-89734446D01*
X169824741Y-89709500D01*
X169824734Y-89709500D01*
X169595266Y-89709500D01*
X169595258Y-89709500D01*
X169378715Y-89738009D01*
X169367762Y-89739452D01*
X169338327Y-89747339D01*
X169146112Y-89798842D01*
X168934123Y-89886650D01*
X168934109Y-89886657D01*
X168735382Y-90001392D01*
X168553338Y-90141081D01*
X168391081Y-90303338D01*
X168251392Y-90485382D01*
X168136657Y-90684109D01*
X168136650Y-90684123D01*
X168048842Y-90896112D01*
X167989453Y-91117759D01*
X167989451Y-91117770D01*
X167959500Y-91345258D01*
X167959500Y-91574741D01*
X167975926Y-91699500D01*
X167989452Y-91802238D01*
X168048842Y-92023887D01*
X168136650Y-92235876D01*
X168136657Y-92235890D01*
X168251392Y-92434617D01*
X168286155Y-92479920D01*
X168384356Y-92607897D01*
X168409551Y-92673065D01*
X168395513Y-92741510D01*
X168346699Y-92791500D01*
X168305380Y-92805856D01*
X168158880Y-92829060D01*
X167979163Y-92887454D01*
X167810800Y-92973240D01*
X167728078Y-93033342D01*
X167657927Y-93084310D01*
X167657925Y-93084312D01*
X167657924Y-93084312D01*
X167524312Y-93217924D01*
X167524312Y-93217925D01*
X167524310Y-93217927D01*
X167495827Y-93257130D01*
X167413240Y-93370800D01*
X167327454Y-93539163D01*
X167269059Y-93718881D01*
X167239500Y-93905513D01*
X108520392Y-93905513D01*
X108432914Y-93733828D01*
X108372658Y-93650894D01*
X108372658Y-93650893D01*
X107632962Y-94390590D01*
X107615925Y-94327007D01*
X107550099Y-94212993D01*
X107457007Y-94119901D01*
X107342993Y-94054075D01*
X107279409Y-94037037D01*
X108019105Y-93297340D01*
X108019104Y-93297338D01*
X107936174Y-93237087D01*
X107725802Y-93129897D01*
X107501247Y-93056934D01*
X107501248Y-93056934D01*
X107268052Y-93020000D01*
X107031948Y-93020000D01*
X106798752Y-93056934D01*
X106574197Y-93129897D01*
X106363830Y-93237084D01*
X106280894Y-93297340D01*
X107020591Y-94037037D01*
X106957007Y-94054075D01*
X106842993Y-94119901D01*
X106749901Y-94212993D01*
X106684075Y-94327007D01*
X106667037Y-94390590D01*
X105921809Y-93645363D01*
X105907862Y-93641577D01*
X105877052Y-93635105D01*
X105873361Y-93632214D01*
X105870824Y-93631526D01*
X105861673Y-93623060D01*
X105843680Y-93608968D01*
X105839264Y-93604079D01*
X105794517Y-93542490D01*
X105627510Y-93375483D01*
X105436433Y-93236657D01*
X105225996Y-93129433D01*
X105001368Y-93056446D01*
X104768097Y-93019500D01*
X104768092Y-93019500D01*
X104531908Y-93019500D01*
X104531903Y-93019500D01*
X104298631Y-93056446D01*
X104074003Y-93129433D01*
X103863566Y-93236657D01*
X103832894Y-93258942D01*
X103672490Y-93375483D01*
X103672488Y-93375485D01*
X103672487Y-93375485D01*
X103505482Y-93542490D01*
X103500315Y-93549603D01*
X103444983Y-93592266D01*
X103375370Y-93598242D01*
X103313576Y-93565634D01*
X103299685Y-93549603D01*
X103294517Y-93542490D01*
X103127512Y-93375485D01*
X103127510Y-93375483D01*
X102936433Y-93236657D01*
X102725996Y-93129433D01*
X102501368Y-93056446D01*
X102268097Y-93019500D01*
X102268092Y-93019500D01*
X102031908Y-93019500D01*
X102031903Y-93019500D01*
X101798631Y-93056446D01*
X101574003Y-93129433D01*
X101363566Y-93236657D01*
X101332894Y-93258942D01*
X101172490Y-93375483D01*
X101172488Y-93375485D01*
X101172487Y-93375485D01*
X101005485Y-93542487D01*
X101005485Y-93542488D01*
X101005483Y-93542490D01*
X100988668Y-93565634D01*
X100866657Y-93733566D01*
X100759433Y-93944003D01*
X100686446Y-94168631D01*
X100649500Y-94401902D01*
X100649500Y-94638097D01*
X100686446Y-94871368D01*
X100759433Y-95095996D01*
X100844956Y-95263842D01*
X100866657Y-95306433D01*
X100930825Y-95394753D01*
X100931551Y-95395751D01*
X100955031Y-95461557D01*
X100939206Y-95529611D01*
X100889100Y-95578306D01*
X100820622Y-95592182D01*
X100755747Y-95567013D01*
X100624612Y-95466389D01*
X100507191Y-95398596D01*
X100425890Y-95351657D01*
X100425876Y-95351650D01*
X100213887Y-95263842D01*
X99992238Y-95204452D01*
X99954215Y-95199446D01*
X99764741Y-95174500D01*
X99764734Y-95174500D01*
X99535266Y-95174500D01*
X99535258Y-95174500D01*
X99318715Y-95203009D01*
X99307762Y-95204452D01*
X99214076Y-95229554D01*
X99086112Y-95263842D01*
X98874123Y-95351650D01*
X98874109Y-95351657D01*
X98675382Y-95466392D01*
X98493338Y-95606081D01*
X98331081Y-95768338D01*
X98191392Y-95950382D01*
X98076657Y-96149109D01*
X98076650Y-96149123D01*
X97988842Y-96361112D01*
X97929453Y-96582759D01*
X97929451Y-96582770D01*
X97899500Y-96810258D01*
X90500500Y-96810258D01*
X90500500Y-83707486D01*
X97824500Y-83707486D01*
X97824500Y-83892513D01*
X97853445Y-84075265D01*
X97910619Y-84251232D01*
X97910620Y-84251235D01*
X97994622Y-84416096D01*
X98103379Y-84565787D01*
X98234213Y-84696621D01*
X98238432Y-84699686D01*
X98281094Y-84755019D01*
X98287069Y-84824633D01*
X98254459Y-84886426D01*
X98238432Y-84900314D01*
X98234210Y-84903381D01*
X98103381Y-85034210D01*
X98103381Y-85034211D01*
X98103379Y-85034213D01*
X98083322Y-85061819D01*
X97994622Y-85183903D01*
X97910620Y-85348764D01*
X97910619Y-85348767D01*
X97853445Y-85524734D01*
X97824500Y-85707486D01*
X97824500Y-85892513D01*
X97853445Y-86075265D01*
X97910619Y-86251232D01*
X97910620Y-86251235D01*
X97994622Y-86416096D01*
X98103379Y-86565787D01*
X98234213Y-86696621D01*
X98238421Y-86699678D01*
X98238432Y-86699686D01*
X98281094Y-86755019D01*
X98287069Y-86824633D01*
X98254459Y-86886426D01*
X98238432Y-86900314D01*
X98234210Y-86903381D01*
X98103381Y-87034210D01*
X98103381Y-87034211D01*
X98103379Y-87034213D01*
X98056672Y-87098499D01*
X97994622Y-87183903D01*
X97910620Y-87348764D01*
X97910619Y-87348767D01*
X97853445Y-87524734D01*
X97853445Y-87524736D01*
X97824500Y-87707486D01*
X97824500Y-87892514D01*
X97838972Y-87983889D01*
X97853445Y-88075265D01*
X97910619Y-88251232D01*
X97910620Y-88251235D01*
X97964059Y-88356113D01*
X97994622Y-88416096D01*
X98078840Y-88532012D01*
X98102320Y-88597817D01*
X98086495Y-88665871D01*
X98052833Y-88704164D01*
X97967809Y-88767813D01*
X97881649Y-88882906D01*
X97881645Y-88882913D01*
X97831403Y-89017620D01*
X97831401Y-89017627D01*
X97825000Y-89077155D01*
X97825000Y-89550000D01*
X98684314Y-89550000D01*
X98679920Y-89554394D01*
X98627259Y-89645606D01*
X98600000Y-89747339D01*
X98600000Y-89852661D01*
X98627259Y-89954394D01*
X98679920Y-90045606D01*
X98684314Y-90050000D01*
X97825000Y-90050000D01*
X97825000Y-90522844D01*
X97831401Y-90582372D01*
X97831403Y-90582379D01*
X97881645Y-90717086D01*
X97881649Y-90717093D01*
X97967809Y-90832187D01*
X97967812Y-90832190D01*
X98082906Y-90918350D01*
X98082913Y-90918354D01*
X98217620Y-90968596D01*
X98217627Y-90968598D01*
X98277155Y-90974999D01*
X98277172Y-90975000D01*
X98750000Y-90975000D01*
X98750000Y-90115686D01*
X98754394Y-90120080D01*
X98845606Y-90172741D01*
X98947339Y-90200000D01*
X99052661Y-90200000D01*
X99154394Y-90172741D01*
X99245606Y-90120080D01*
X99250000Y-90115686D01*
X99250000Y-90975000D01*
X99722828Y-90975000D01*
X99722844Y-90974999D01*
X99782372Y-90968598D01*
X99782379Y-90968596D01*
X99917086Y-90918354D01*
X99917093Y-90918350D01*
X100032187Y-90832190D01*
X100032190Y-90832187D01*
X100118350Y-90717093D01*
X100118354Y-90717086D01*
X100168596Y-90582379D01*
X100168598Y-90582372D01*
X100174999Y-90522844D01*
X100175000Y-90522827D01*
X100175000Y-90050000D01*
X99315686Y-90050000D01*
X99320080Y-90045606D01*
X99372741Y-89954394D01*
X99400000Y-89852661D01*
X99400000Y-89747339D01*
X99372741Y-89645606D01*
X99320080Y-89554394D01*
X99315686Y-89550000D01*
X100175000Y-89550000D01*
X100175000Y-89077172D01*
X100174999Y-89077155D01*
X100168598Y-89017627D01*
X100168596Y-89017620D01*
X100118354Y-88882913D01*
X100118352Y-88882909D01*
X100112820Y-88875520D01*
X100112818Y-88875518D01*
X100060222Y-88805258D01*
X174309500Y-88805258D01*
X174309500Y-89034741D01*
X174334446Y-89224215D01*
X174339452Y-89262238D01*
X174339453Y-89262240D01*
X174398842Y-89483887D01*
X174486650Y-89695876D01*
X174486657Y-89695890D01*
X174601392Y-89894617D01*
X174741081Y-90076661D01*
X174741089Y-90076670D01*
X174903330Y-90238911D01*
X174903338Y-90238918D01*
X175085382Y-90378607D01*
X175085385Y-90378608D01*
X175085388Y-90378611D01*
X175284112Y-90493344D01*
X175284117Y-90493346D01*
X175284123Y-90493349D01*
X175355290Y-90522827D01*
X175496113Y-90581158D01*
X175717762Y-90640548D01*
X175945266Y-90670500D01*
X175945273Y-90670500D01*
X176174727Y-90670500D01*
X176174734Y-90670500D01*
X176402238Y-90640548D01*
X176623887Y-90581158D01*
X176835888Y-90493344D01*
X177034612Y-90378611D01*
X177216661Y-90238919D01*
X177216665Y-90238914D01*
X177216670Y-90238911D01*
X177378911Y-90076670D01*
X177378914Y-90076665D01*
X177378919Y-90076661D01*
X177518611Y-89894612D01*
X177633344Y-89695888D01*
X177721158Y-89483887D01*
X177780548Y-89262238D01*
X177810500Y-89034734D01*
X177810500Y-88805266D01*
X177780548Y-88577762D01*
X177721158Y-88356113D01*
X177633344Y-88144112D01*
X177518611Y-87945388D01*
X177518608Y-87945385D01*
X177518607Y-87945382D01*
X177378918Y-87763338D01*
X177378911Y-87763330D01*
X177216670Y-87601089D01*
X177216661Y-87601081D01*
X177034617Y-87461392D01*
X176835890Y-87346657D01*
X176835876Y-87346650D01*
X176623887Y-87258842D01*
X176402238Y-87199452D01*
X176364215Y-87194446D01*
X176174741Y-87169500D01*
X176174734Y-87169500D01*
X175945266Y-87169500D01*
X175945258Y-87169500D01*
X175728715Y-87198009D01*
X175717762Y-87199452D01*
X175624076Y-87224554D01*
X175496112Y-87258842D01*
X175284123Y-87346650D01*
X175284109Y-87346657D01*
X175085382Y-87461392D01*
X174903338Y-87601081D01*
X174741081Y-87763338D01*
X174601392Y-87945382D01*
X174486657Y-88144109D01*
X174486650Y-88144123D01*
X174398842Y-88356112D01*
X174339453Y-88577759D01*
X174339451Y-88577770D01*
X174309500Y-88805258D01*
X100060222Y-88805258D01*
X100032188Y-88767810D01*
X99947166Y-88704162D01*
X99905296Y-88648228D01*
X99900312Y-88578536D01*
X99921157Y-88532015D01*
X100005378Y-88416096D01*
X100089379Y-88251235D01*
X100146555Y-88075264D01*
X100175500Y-87892514D01*
X100175500Y-87707486D01*
X100146555Y-87524736D01*
X100089379Y-87348765D01*
X100089379Y-87348764D01*
X100043561Y-87258842D01*
X100005378Y-87183904D01*
X99896621Y-87034213D01*
X99765787Y-86903379D01*
X99761576Y-86900319D01*
X99718909Y-86844994D01*
X99712926Y-86775381D01*
X99745529Y-86713585D01*
X99761570Y-86699684D01*
X99765787Y-86696621D01*
X99896621Y-86565787D01*
X100005378Y-86416096D01*
X100089379Y-86251235D01*
X100146555Y-86075264D01*
X100175500Y-85892514D01*
X100175500Y-85707486D01*
X100158256Y-85598616D01*
X100167210Y-85529326D01*
X100193045Y-85491543D01*
X100622771Y-85061819D01*
X100684094Y-85028334D01*
X100710452Y-85025500D01*
X101107216Y-85025500D01*
X101174255Y-85045185D01*
X101220010Y-85097989D01*
X101229954Y-85167147D01*
X101228833Y-85173692D01*
X101199500Y-85321155D01*
X101199500Y-85478846D01*
X101230261Y-85633489D01*
X101230264Y-85633501D01*
X101290602Y-85779172D01*
X101290609Y-85779185D01*
X101378210Y-85910288D01*
X101378212Y-85910291D01*
X101489707Y-86021786D01*
X101489711Y-86021789D01*
X101620814Y-86109390D01*
X101620827Y-86109397D01*
X101766498Y-86169735D01*
X101766503Y-86169737D01*
X101921153Y-86200499D01*
X101921156Y-86200500D01*
X101921158Y-86200500D01*
X102078844Y-86200500D01*
X102078845Y-86200499D01*
X102233497Y-86169737D01*
X102379179Y-86109394D01*
X102473459Y-86046398D01*
X102540136Y-86025520D01*
X102542350Y-86025500D01*
X152430327Y-86025500D01*
X152490749Y-86013481D01*
X152551172Y-86001463D01*
X152597071Y-85982451D01*
X152665006Y-85954312D01*
X152730889Y-85910289D01*
X152767453Y-85885858D01*
X152854578Y-85798733D01*
X152854578Y-85798731D01*
X152864786Y-85788524D01*
X152864787Y-85788521D01*
X156061901Y-82591408D01*
X156123222Y-82557925D01*
X156192914Y-82562909D01*
X156197030Y-82564529D01*
X156200271Y-82565871D01*
X156200275Y-82565873D01*
X156365019Y-82619402D01*
X156536109Y-82646500D01*
X156536110Y-82646500D01*
X156709330Y-82646500D01*
X156709331Y-82646500D01*
X156880421Y-82619402D01*
X157045165Y-82565873D01*
X157199508Y-82487232D01*
X157339648Y-82385414D01*
X157462134Y-82262928D01*
X157563952Y-82122788D01*
X157642593Y-81968445D01*
X157696122Y-81803701D01*
X157723220Y-81632611D01*
X157723220Y-80913389D01*
X158062220Y-80913389D01*
X158062220Y-81886610D01*
X158087354Y-82045306D01*
X158089318Y-82057701D01*
X158142847Y-82222445D01*
X158221488Y-82376788D01*
X158323306Y-82516928D01*
X158445792Y-82639414D01*
X158585932Y-82741232D01*
X158740275Y-82819873D01*
X158905019Y-82873402D01*
X159076109Y-82900500D01*
X159076110Y-82900500D01*
X159249330Y-82900500D01*
X159249331Y-82900500D01*
X159420421Y-82873402D01*
X159585165Y-82819873D01*
X159739508Y-82741232D01*
X159879648Y-82639414D01*
X160002134Y-82516928D01*
X160103952Y-82376788D01*
X160182593Y-82222445D01*
X160236122Y-82057701D01*
X160263220Y-81886611D01*
X160263220Y-80913389D01*
X160236122Y-80742299D01*
X160182593Y-80577555D01*
X160103952Y-80423212D01*
X160002134Y-80283072D01*
X159879648Y-80160586D01*
X159739508Y-80058768D01*
X159585165Y-79980127D01*
X159420421Y-79926598D01*
X159420419Y-79926597D01*
X159420418Y-79926597D01*
X159288991Y-79905781D01*
X159249331Y-79899500D01*
X159076109Y-79899500D01*
X159036448Y-79905781D01*
X158905022Y-79926597D01*
X158740272Y-79980128D01*
X158585931Y-80058768D01*
X158532206Y-80097802D01*
X158445792Y-80160586D01*
X158445790Y-80160588D01*
X158445789Y-80160588D01*
X158323308Y-80283069D01*
X158323308Y-80283070D01*
X158323306Y-80283072D01*
X158293893Y-80323555D01*
X158221488Y-80423211D01*
X158142848Y-80577552D01*
X158142847Y-80577554D01*
X158142847Y-80577555D01*
X158116257Y-80659389D01*
X158089317Y-80742302D01*
X158062220Y-80913389D01*
X157723220Y-80913389D01*
X157723220Y-80659389D01*
X157696122Y-80488299D01*
X157642593Y-80323555D01*
X157563952Y-80169212D01*
X157462134Y-80029072D01*
X157339648Y-79906586D01*
X157261511Y-79849816D01*
X157218848Y-79794488D01*
X157212869Y-79724874D01*
X157245475Y-79663080D01*
X157306314Y-79628722D01*
X157334399Y-79625500D01*
X160991041Y-79625500D01*
X161058080Y-79645185D01*
X161103835Y-79697989D01*
X161113779Y-79767147D01*
X161084754Y-79830703D01*
X161063930Y-79849815D01*
X160985792Y-79906586D01*
X160985790Y-79906588D01*
X160985789Y-79906588D01*
X160863308Y-80029069D01*
X160863308Y-80029070D01*
X160863306Y-80029072D01*
X160819579Y-80089256D01*
X160761488Y-80169211D01*
X160682848Y-80323552D01*
X160629317Y-80488302D01*
X160603924Y-80648631D01*
X160602220Y-80659389D01*
X160602220Y-81632611D01*
X160604278Y-81645606D01*
X160628731Y-81800000D01*
X160629318Y-81803701D01*
X160656257Y-81886611D01*
X160682848Y-81968447D01*
X160722009Y-82045306D01*
X160761488Y-82122788D01*
X160863306Y-82262928D01*
X160985792Y-82385414D01*
X161125932Y-82487232D01*
X161280275Y-82565873D01*
X161445019Y-82619402D01*
X161616109Y-82646500D01*
X161616110Y-82646500D01*
X161789330Y-82646500D01*
X161789331Y-82646500D01*
X161960421Y-82619402D01*
X162125165Y-82565873D01*
X162125175Y-82565867D01*
X162128404Y-82564531D01*
X162129734Y-82564387D01*
X162129799Y-82564367D01*
X162129803Y-82564380D01*
X162197873Y-82557061D01*
X162260353Y-82588335D01*
X162263540Y-82591410D01*
X162792736Y-83120606D01*
X162792765Y-83120637D01*
X162882983Y-83210855D01*
X162882987Y-83210858D01*
X162985427Y-83279307D01*
X162985431Y-83279309D01*
X162985434Y-83279311D01*
X163099268Y-83326463D01*
X163130776Y-83332730D01*
X163159204Y-83338385D01*
X163159224Y-83338388D01*
X163159246Y-83338393D01*
X163220111Y-83350499D01*
X163220112Y-83350500D01*
X163220113Y-83350500D01*
X164687476Y-83350500D01*
X164687476Y-83350499D01*
X164748342Y-83338393D01*
X164808320Y-83326463D01*
X164841660Y-83312652D01*
X164922154Y-83279312D01*
X164973377Y-83245084D01*
X165024601Y-83210858D01*
X165111726Y-83123733D01*
X165111727Y-83123731D01*
X165118793Y-83116665D01*
X165118796Y-83116661D01*
X165798729Y-82436728D01*
X165798733Y-82436726D01*
X165870240Y-82365218D01*
X165931559Y-82331736D01*
X165931561Y-82331735D01*
X165971391Y-82334584D01*
X166001251Y-82336720D01*
X166045599Y-82365221D01*
X166065792Y-82385414D01*
X166205932Y-82487232D01*
X166360275Y-82565873D01*
X166525019Y-82619402D01*
X166696109Y-82646500D01*
X166696110Y-82646500D01*
X166869330Y-82646500D01*
X166869331Y-82646500D01*
X167040421Y-82619402D01*
X167205165Y-82565873D01*
X167359508Y-82487232D01*
X167499648Y-82385414D01*
X167622134Y-82262928D01*
X167723952Y-82122788D01*
X167802593Y-81968445D01*
X167856122Y-81803701D01*
X167883220Y-81632611D01*
X167883220Y-80913389D01*
X168219500Y-80913389D01*
X168219500Y-81886610D01*
X168244634Y-82045306D01*
X168246598Y-82057701D01*
X168300127Y-82222445D01*
X168378768Y-82376788D01*
X168480586Y-82516928D01*
X168603072Y-82639414D01*
X168743212Y-82741232D01*
X168897555Y-82819873D01*
X169062299Y-82873402D01*
X169233389Y-82900500D01*
X169233390Y-82900500D01*
X169406610Y-82900500D01*
X169406611Y-82900500D01*
X169577701Y-82873402D01*
X169742445Y-82819873D01*
X169896788Y-82741232D01*
X170036928Y-82639414D01*
X170159414Y-82516928D01*
X170261232Y-82376788D01*
X170339873Y-82222445D01*
X170393402Y-82057701D01*
X170420500Y-81886611D01*
X170420500Y-80913389D01*
X170393402Y-80742299D01*
X170366463Y-80659389D01*
X170759500Y-80659389D01*
X170759500Y-81632611D01*
X170761558Y-81645606D01*
X170786011Y-81800000D01*
X170786598Y-81803701D01*
X170813537Y-81886611D01*
X170840128Y-81968447D01*
X170879289Y-82045306D01*
X170918768Y-82122788D01*
X171020586Y-82262928D01*
X171143072Y-82385414D01*
X171283212Y-82487232D01*
X171437555Y-82565873D01*
X171602299Y-82619402D01*
X171773389Y-82646500D01*
X171773390Y-82646500D01*
X171946610Y-82646500D01*
X171946611Y-82646500D01*
X172117701Y-82619402D01*
X172282445Y-82565873D01*
X172436788Y-82487232D01*
X172576928Y-82385414D01*
X172699414Y-82262928D01*
X172801232Y-82122788D01*
X172879873Y-81968445D01*
X172933402Y-81803701D01*
X172960500Y-81632611D01*
X172960500Y-80913428D01*
X173300000Y-80913428D01*
X173300000Y-81150000D01*
X174084314Y-81150000D01*
X174079920Y-81154394D01*
X174027259Y-81245606D01*
X174000000Y-81347339D01*
X174000000Y-81452661D01*
X174027259Y-81554394D01*
X174079920Y-81645606D01*
X174084314Y-81650000D01*
X173300000Y-81650000D01*
X173300000Y-81886571D01*
X173327085Y-82057584D01*
X173380591Y-82222257D01*
X173459195Y-82376524D01*
X173560967Y-82516602D01*
X173683397Y-82639032D01*
X173823475Y-82740804D01*
X173977744Y-82819408D01*
X174142415Y-82872914D01*
X174142414Y-82872914D01*
X174149999Y-82874115D01*
X174150000Y-82874114D01*
X174150000Y-81715686D01*
X174154394Y-81720080D01*
X174245606Y-81772741D01*
X174347339Y-81800000D01*
X174452661Y-81800000D01*
X174554394Y-81772741D01*
X174645606Y-81720080D01*
X174650000Y-81715686D01*
X174650000Y-82874115D01*
X174657584Y-82872914D01*
X174822255Y-82819408D01*
X174976524Y-82740804D01*
X175116602Y-82639032D01*
X175239032Y-82516602D01*
X175340804Y-82376524D01*
X175419408Y-82222257D01*
X175472914Y-82057584D01*
X175500000Y-81886571D01*
X175500000Y-81650000D01*
X174715686Y-81650000D01*
X174720080Y-81645606D01*
X174772741Y-81554394D01*
X174800000Y-81452661D01*
X174800000Y-81347339D01*
X174772741Y-81245606D01*
X174720080Y-81154394D01*
X174715686Y-81150000D01*
X175500000Y-81150000D01*
X175500000Y-80913428D01*
X175472914Y-80742415D01*
X175419408Y-80577742D01*
X175340804Y-80423475D01*
X175239032Y-80283397D01*
X175116602Y-80160967D01*
X174976524Y-80059195D01*
X174822257Y-79980591D01*
X174657589Y-79927087D01*
X174657581Y-79927085D01*
X174650000Y-79925884D01*
X174650000Y-81084314D01*
X174645606Y-81079920D01*
X174554394Y-81027259D01*
X174452661Y-81000000D01*
X174347339Y-81000000D01*
X174245606Y-81027259D01*
X174154394Y-81079920D01*
X174150000Y-81084314D01*
X174150000Y-79925884D01*
X174149999Y-79925884D01*
X174142418Y-79927085D01*
X174142410Y-79927087D01*
X173977742Y-79980591D01*
X173823475Y-80059195D01*
X173683397Y-80160967D01*
X173560967Y-80283397D01*
X173459195Y-80423475D01*
X173380591Y-80577742D01*
X173327085Y-80742415D01*
X173300000Y-80913428D01*
X172960500Y-80913428D01*
X172960500Y-80659389D01*
X172933402Y-80488299D01*
X172879873Y-80323555D01*
X172801232Y-80169212D01*
X172699414Y-80029072D01*
X172576928Y-79906586D01*
X172436788Y-79804768D01*
X172282445Y-79726127D01*
X172117701Y-79672598D01*
X172117699Y-79672597D01*
X172117698Y-79672597D01*
X171986271Y-79651781D01*
X171946611Y-79645500D01*
X171773389Y-79645500D01*
X171733728Y-79651781D01*
X171602302Y-79672597D01*
X171437552Y-79726128D01*
X171283211Y-79804768D01*
X171224783Y-79847219D01*
X171143072Y-79906586D01*
X171143070Y-79906588D01*
X171143069Y-79906588D01*
X171020588Y-80029069D01*
X171020588Y-80029070D01*
X171020586Y-80029072D01*
X170976859Y-80089256D01*
X170918768Y-80169211D01*
X170840128Y-80323552D01*
X170786597Y-80488302D01*
X170761204Y-80648631D01*
X170759500Y-80659389D01*
X170366463Y-80659389D01*
X170339873Y-80577555D01*
X170261232Y-80423212D01*
X170159414Y-80283072D01*
X170036928Y-80160586D01*
X169896788Y-80058768D01*
X169742445Y-79980127D01*
X169577701Y-79926598D01*
X169577699Y-79926597D01*
X169577698Y-79926597D01*
X169446271Y-79905781D01*
X169406611Y-79899500D01*
X169233389Y-79899500D01*
X169193728Y-79905781D01*
X169062302Y-79926597D01*
X168897552Y-79980128D01*
X168743211Y-80058768D01*
X168689486Y-80097802D01*
X168603072Y-80160586D01*
X168603070Y-80160588D01*
X168603069Y-80160588D01*
X168480588Y-80283069D01*
X168480588Y-80283070D01*
X168480586Y-80283072D01*
X168451173Y-80323555D01*
X168378768Y-80423211D01*
X168300128Y-80577552D01*
X168300127Y-80577554D01*
X168300127Y-80577555D01*
X168273537Y-80659389D01*
X168246597Y-80742302D01*
X168219500Y-80913389D01*
X167883220Y-80913389D01*
X167883220Y-80659389D01*
X167856122Y-80488299D01*
X167802593Y-80323555D01*
X167723952Y-80169212D01*
X167622134Y-80029072D01*
X167499648Y-79906586D01*
X167359508Y-79804768D01*
X167205165Y-79726127D01*
X167040421Y-79672598D01*
X167040419Y-79672597D01*
X167040418Y-79672597D01*
X166908991Y-79651781D01*
X166869331Y-79645500D01*
X166696109Y-79645500D01*
X166656448Y-79651781D01*
X166525022Y-79672597D01*
X166525019Y-79672598D01*
X166389421Y-79716657D01*
X166360269Y-79726129D01*
X166205794Y-79804837D01*
X166137125Y-79817733D01*
X166072385Y-79791456D01*
X166032128Y-79734349D01*
X166025500Y-79694352D01*
X166025500Y-79338394D01*
X166017124Y-79296286D01*
X166001463Y-79217549D01*
X165993669Y-79198733D01*
X165956139Y-79108127D01*
X165954312Y-79103715D01*
X165909855Y-79037181D01*
X165907393Y-79033496D01*
X165907393Y-79033495D01*
X165885858Y-79001267D01*
X165885853Y-79001261D01*
X165795637Y-78911045D01*
X165795606Y-78911016D01*
X163693150Y-76808560D01*
X163685860Y-76801270D01*
X163685858Y-76801267D01*
X163598733Y-76714142D01*
X163547509Y-76679915D01*
X163496286Y-76645688D01*
X163496283Y-76645686D01*
X163496280Y-76645685D01*
X163422603Y-76615168D01*
X163422601Y-76615167D01*
X163415792Y-76612347D01*
X163382452Y-76598537D01*
X163322029Y-76586518D01*
X163317306Y-76585578D01*
X163317304Y-76585578D01*
X163261610Y-76574500D01*
X163261607Y-76574500D01*
X163261606Y-76574500D01*
X141890053Y-76574500D01*
X141823014Y-76554815D01*
X141802372Y-76538181D01*
X140605645Y-75341454D01*
X140572160Y-75280131D01*
X140577144Y-75210439D01*
X140619016Y-75154506D01*
X140684480Y-75130089D01*
X140712718Y-75131299D01*
X140873593Y-75156780D01*
X140873594Y-75156780D01*
X141086166Y-75156780D01*
X141086167Y-75156780D01*
X141296123Y-75123526D01*
X141498292Y-75057837D01*
X141687696Y-74961331D01*
X141750241Y-74915890D01*
X141859666Y-74836389D01*
X141859668Y-74836386D01*
X141859672Y-74836384D01*
X142009984Y-74686072D01*
X142075053Y-74596510D01*
X142130382Y-74553846D01*
X142199995Y-74547867D01*
X142261791Y-74580472D01*
X142285855Y-74613100D01*
X142322129Y-74684293D01*
X142364831Y-74768100D01*
X142489770Y-74940066D01*
X142640093Y-75090389D01*
X142812059Y-75215328D01*
X142812061Y-75215329D01*
X142812064Y-75215331D01*
X143001468Y-75311837D01*
X143203637Y-75377526D01*
X143413593Y-75410780D01*
X143413594Y-75410780D01*
X143626166Y-75410780D01*
X143626167Y-75410780D01*
X143836123Y-75377526D01*
X144038292Y-75311837D01*
X144227696Y-75215331D01*
X144271154Y-75183757D01*
X144399666Y-75090389D01*
X144399668Y-75090386D01*
X144399672Y-75090384D01*
X144549984Y-74940072D01*
X144549986Y-74940068D01*
X144549989Y-74940066D01*
X144657430Y-74792184D01*
X144674931Y-74768096D01*
X144753904Y-74613101D01*
X144801877Y-74562307D01*
X144869698Y-74545511D01*
X144935833Y-74568048D01*
X144964706Y-74596512D01*
X145029770Y-74686065D01*
X145029774Y-74686070D01*
X145180093Y-74836389D01*
X145352059Y-74961328D01*
X145352061Y-74961329D01*
X145352064Y-74961331D01*
X145541468Y-75057837D01*
X145743637Y-75123526D01*
X145953593Y-75156780D01*
X145953594Y-75156780D01*
X146166166Y-75156780D01*
X146166167Y-75156780D01*
X146376123Y-75123526D01*
X146578292Y-75057837D01*
X146767696Y-74961331D01*
X146830241Y-74915890D01*
X146939666Y-74836389D01*
X146939668Y-74836386D01*
X146939672Y-74836384D01*
X147089984Y-74686072D01*
X147155053Y-74596510D01*
X147210382Y-74553846D01*
X147279995Y-74547867D01*
X147341791Y-74580472D01*
X147365855Y-74613100D01*
X147402129Y-74684293D01*
X147444831Y-74768100D01*
X147569770Y-74940066D01*
X147720093Y-75090389D01*
X147892059Y-75215328D01*
X147892061Y-75215329D01*
X147892064Y-75215331D01*
X148081468Y-75311837D01*
X148283637Y-75377526D01*
X148493593Y-75410780D01*
X148493594Y-75410780D01*
X148706166Y-75410780D01*
X148706167Y-75410780D01*
X148916123Y-75377526D01*
X149118292Y-75311837D01*
X149307696Y-75215331D01*
X149351154Y-75183757D01*
X149479666Y-75090389D01*
X149479668Y-75090386D01*
X149479672Y-75090384D01*
X149629984Y-74940072D01*
X149629986Y-74940068D01*
X149629989Y-74940066D01*
X149754928Y-74768100D01*
X149754930Y-74768097D01*
X149754931Y-74768096D01*
X149851437Y-74578692D01*
X149917126Y-74376523D01*
X149950380Y-74166567D01*
X149950380Y-73953993D01*
X149917126Y-73744037D01*
X149851437Y-73541868D01*
X149754931Y-73352464D01*
X149754929Y-73352461D01*
X149754928Y-73352459D01*
X149629989Y-73180493D01*
X149479666Y-73030170D01*
X149307700Y-72905231D01*
X149118294Y-72808724D01*
X149118293Y-72808723D01*
X149118292Y-72808723D01*
X148916123Y-72743034D01*
X148916121Y-72743033D01*
X148916120Y-72743033D01*
X148754837Y-72717488D01*
X148706167Y-72709780D01*
X148493593Y-72709780D01*
X148444922Y-72717488D01*
X148283640Y-72743033D01*
X148081465Y-72808724D01*
X147892059Y-72905231D01*
X147720093Y-73030170D01*
X147569774Y-73180489D01*
X147504706Y-73270048D01*
X147449376Y-73312713D01*
X147379762Y-73318692D01*
X147317967Y-73286086D01*
X147293903Y-73253456D01*
X147230338Y-73128703D01*
X147214931Y-73098464D01*
X147214930Y-73098462D01*
X147089989Y-72926493D01*
X146939666Y-72776170D01*
X146767700Y-72651231D01*
X146578294Y-72554724D01*
X146578293Y-72554723D01*
X146578292Y-72554723D01*
X146376123Y-72489034D01*
X146376121Y-72489033D01*
X146376120Y-72489033D01*
X146214837Y-72463488D01*
X146166167Y-72455780D01*
X145953593Y-72455780D01*
X145904922Y-72463488D01*
X145743640Y-72489033D01*
X145743637Y-72489034D01*
X145549372Y-72552155D01*
X145541465Y-72554724D01*
X145352059Y-72651231D01*
X145180093Y-72776170D01*
X145029770Y-72926493D01*
X144904831Y-73098460D01*
X144825856Y-73253457D01*
X144777881Y-73304253D01*
X144710060Y-73321048D01*
X144643925Y-73298511D01*
X144615053Y-73270047D01*
X144549989Y-73180494D01*
X144549985Y-73180489D01*
X144399666Y-73030170D01*
X144227700Y-72905231D01*
X144038294Y-72808724D01*
X144038293Y-72808723D01*
X144038292Y-72808723D01*
X143836123Y-72743034D01*
X143836121Y-72743033D01*
X143836120Y-72743033D01*
X143674837Y-72717488D01*
X143626167Y-72709780D01*
X143413593Y-72709780D01*
X143364922Y-72717488D01*
X143203640Y-72743033D01*
X143001465Y-72808724D01*
X142812059Y-72905231D01*
X142640093Y-73030170D01*
X142489774Y-73180489D01*
X142424706Y-73270048D01*
X142369376Y-73312713D01*
X142299762Y-73318692D01*
X142237967Y-73286086D01*
X142213903Y-73253456D01*
X142150338Y-73128703D01*
X142134931Y-73098464D01*
X142134930Y-73098462D01*
X142009989Y-72926493D01*
X141859666Y-72776170D01*
X141687700Y-72651231D01*
X141498294Y-72554724D01*
X141498293Y-72554723D01*
X141498292Y-72554723D01*
X141296123Y-72489034D01*
X141296121Y-72489033D01*
X141296120Y-72489033D01*
X141134837Y-72463488D01*
X141086167Y-72455780D01*
X140873593Y-72455780D01*
X140824922Y-72463488D01*
X140663640Y-72489033D01*
X140663637Y-72489034D01*
X140469372Y-72552155D01*
X140461465Y-72554724D01*
X140272059Y-72651231D01*
X140100093Y-72776170D01*
X139949770Y-72926493D01*
X139824831Y-73098460D01*
X139745856Y-73253457D01*
X139697881Y-73304253D01*
X139630060Y-73321048D01*
X139563925Y-73298511D01*
X139535053Y-73270047D01*
X139469989Y-73180494D01*
X139469985Y-73180489D01*
X139319666Y-73030170D01*
X139147700Y-72905231D01*
X138958294Y-72808724D01*
X138958293Y-72808723D01*
X138958292Y-72808723D01*
X138756123Y-72743034D01*
X138756121Y-72743033D01*
X138756120Y-72743033D01*
X138594837Y-72717488D01*
X138546167Y-72709780D01*
X138333593Y-72709780D01*
X138284922Y-72717488D01*
X138123640Y-72743033D01*
X137921465Y-72808724D01*
X137732059Y-72905231D01*
X137560093Y-73030170D01*
X137409774Y-73180489D01*
X137344706Y-73270048D01*
X137289376Y-73312713D01*
X137219762Y-73318692D01*
X137157967Y-73286086D01*
X137133903Y-73253456D01*
X137070338Y-73128703D01*
X137054931Y-73098464D01*
X137054930Y-73098462D01*
X136929989Y-72926493D01*
X136779666Y-72776170D01*
X136607700Y-72651231D01*
X136418294Y-72554724D01*
X136418293Y-72554723D01*
X136418292Y-72554723D01*
X136216123Y-72489034D01*
X136216121Y-72489033D01*
X136216120Y-72489033D01*
X136054837Y-72463488D01*
X136006167Y-72455780D01*
X135793593Y-72455780D01*
X135744922Y-72463488D01*
X135583640Y-72489033D01*
X135583637Y-72489034D01*
X135389372Y-72552155D01*
X135381465Y-72554724D01*
X135192059Y-72651231D01*
X135020093Y-72776170D01*
X134869770Y-72926493D01*
X134744831Y-73098460D01*
X134665856Y-73253457D01*
X134617881Y-73304253D01*
X134550060Y-73321048D01*
X134483925Y-73298511D01*
X134455053Y-73270047D01*
X134389989Y-73180494D01*
X134389985Y-73180489D01*
X134239666Y-73030170D01*
X134067700Y-72905231D01*
X133878294Y-72808724D01*
X133878293Y-72808723D01*
X133878292Y-72808723D01*
X133676123Y-72743034D01*
X133676121Y-72743033D01*
X133676120Y-72743033D01*
X133514837Y-72717488D01*
X133466167Y-72709780D01*
X133253593Y-72709780D01*
X133204922Y-72717488D01*
X133043640Y-72743033D01*
X132841465Y-72808724D01*
X132652059Y-72905231D01*
X132480093Y-73030170D01*
X132480089Y-73030174D01*
X132381561Y-73128703D01*
X132320238Y-73162188D01*
X132250546Y-73157204D01*
X132194613Y-73115332D01*
X132170196Y-73049868D01*
X132169880Y-73041022D01*
X132169880Y-73035452D01*
X132169879Y-73035435D01*
X132163478Y-72975907D01*
X132163476Y-72975900D01*
X132113234Y-72841193D01*
X132113230Y-72841186D01*
X132027070Y-72726092D01*
X132027067Y-72726089D01*
X131911973Y-72639929D01*
X131911966Y-72639925D01*
X131777259Y-72589683D01*
X131777252Y-72589681D01*
X131717724Y-72583280D01*
X131069880Y-72583280D01*
X131069880Y-73500268D01*
X131012873Y-73467355D01*
X130885706Y-73433280D01*
X130754054Y-73433280D01*
X130626887Y-73467355D01*
X130569880Y-73500268D01*
X130569880Y-72583280D01*
X129922035Y-72583280D01*
X129862507Y-72589681D01*
X129862500Y-72589683D01*
X129727793Y-72639925D01*
X129727786Y-72639929D01*
X129612692Y-72726089D01*
X129612689Y-72726092D01*
X129526529Y-72841186D01*
X129526525Y-72841193D01*
X129476283Y-72975900D01*
X129476281Y-72975907D01*
X129469880Y-73035435D01*
X129469880Y-73683280D01*
X130386868Y-73683280D01*
X130353955Y-73740287D01*
X130319880Y-73867454D01*
X130319880Y-73999106D01*
X130353955Y-74126273D01*
X130386868Y-74183280D01*
X129469880Y-74183280D01*
X129469880Y-74831124D01*
X129476281Y-74890652D01*
X129476283Y-74890659D01*
X129526525Y-75025366D01*
X129526529Y-75025373D01*
X129612689Y-75140467D01*
X129612692Y-75140470D01*
X129727786Y-75226630D01*
X129727793Y-75226634D01*
X129862500Y-75276876D01*
X129862507Y-75276878D01*
X129922035Y-75283279D01*
X129922052Y-75283280D01*
X130569880Y-75283280D01*
X130569880Y-74366292D01*
X130626887Y-74399205D01*
X130754054Y-74433280D01*
X130885706Y-74433280D01*
X131012873Y-74399205D01*
X131069880Y-74366292D01*
X131069880Y-75283280D01*
X131717708Y-75283280D01*
X131717724Y-75283279D01*
X131777252Y-75276878D01*
X131777259Y-75276876D01*
X131911966Y-75226634D01*
X131911973Y-75226630D01*
X132027067Y-75140470D01*
X132027070Y-75140467D01*
X132113230Y-75025373D01*
X132113234Y-75025366D01*
X132127800Y-74986311D01*
X132169670Y-74930376D01*
X132235134Y-74905957D01*
X132303407Y-74920807D01*
X132331664Y-74941960D01*
X132480093Y-75090389D01*
X132652059Y-75215328D01*
X132652061Y-75215329D01*
X132652064Y-75215331D01*
X132841468Y-75311837D01*
X133043637Y-75377526D01*
X133253593Y-75410780D01*
X133253594Y-75410780D01*
X133466166Y-75410780D01*
X133466167Y-75410780D01*
X133676123Y-75377526D01*
X133878292Y-75311837D01*
X134067696Y-75215331D01*
X134111154Y-75183757D01*
X134239666Y-75090389D01*
X134239668Y-75090386D01*
X134239672Y-75090384D01*
X134389984Y-74940072D01*
X134389986Y-74940068D01*
X134389989Y-74940066D01*
X134497430Y-74792184D01*
X134514931Y-74768096D01*
X134593904Y-74613101D01*
X134641877Y-74562307D01*
X134709698Y-74545511D01*
X134775833Y-74568048D01*
X134804706Y-74596512D01*
X134869770Y-74686065D01*
X134869774Y-74686070D01*
X135020093Y-74836389D01*
X135192059Y-74961328D01*
X135192061Y-74961329D01*
X135192064Y-74961331D01*
X135381468Y-75057837D01*
X135583637Y-75123526D01*
X135793593Y-75156780D01*
X135793594Y-75156780D01*
X136006166Y-75156780D01*
X136006167Y-75156780D01*
X136216123Y-75123526D01*
X136231717Y-75118458D01*
X136301556Y-75116462D01*
X136357717Y-75148708D01*
X139171828Y-77962819D01*
X139205313Y-78024142D01*
X139200329Y-78093834D01*
X139158457Y-78149767D01*
X139092993Y-78174184D01*
X139084147Y-78174500D01*
X117542350Y-78174500D01*
X117475311Y-78154815D01*
X117473459Y-78153602D01*
X117379184Y-78090609D01*
X117379172Y-78090602D01*
X117233501Y-78030264D01*
X117233489Y-78030261D01*
X117078845Y-77999500D01*
X117078842Y-77999500D01*
X116921158Y-77999500D01*
X116921155Y-77999500D01*
X116766510Y-78030261D01*
X116766498Y-78030264D01*
X116620827Y-78090602D01*
X116620814Y-78090609D01*
X116489711Y-78178210D01*
X116489707Y-78178213D01*
X116378213Y-78289707D01*
X116378210Y-78289711D01*
X116288030Y-78424675D01*
X116234418Y-78469480D01*
X116165093Y-78478187D01*
X116131576Y-78467720D01*
X116123491Y-78463866D01*
X116096286Y-78445688D01*
X116015792Y-78412347D01*
X115982452Y-78398537D01*
X115982444Y-78398535D01*
X115901589Y-78382451D01*
X115901580Y-78382451D01*
X115861607Y-78374500D01*
X115861606Y-78374500D01*
X102716115Y-78374500D01*
X102649076Y-78354815D01*
X102616393Y-78321428D01*
X102615151Y-78322331D01*
X102491971Y-78152786D01*
X102347213Y-78008028D01*
X102181613Y-77887715D01*
X102181612Y-77887714D01*
X102181610Y-77887713D01*
X102124653Y-77858691D01*
X101999223Y-77794781D01*
X101804534Y-77731522D01*
X101629995Y-77703878D01*
X101602352Y-77699500D01*
X101397648Y-77699500D01*
X101373329Y-77703351D01*
X101195465Y-77731522D01*
X101000776Y-77794781D01*
X100818386Y-77887715D01*
X100652786Y-78008028D01*
X100508028Y-78152786D01*
X100387715Y-78318386D01*
X100294781Y-78500776D01*
X100231522Y-78695465D01*
X100199500Y-78897648D01*
X100199500Y-79102351D01*
X100231522Y-79304534D01*
X100294781Y-79499223D01*
X100346876Y-79601463D01*
X100383121Y-79672598D01*
X100387715Y-79681613D01*
X100508028Y-79847213D01*
X100652786Y-79991971D01*
X100798453Y-80097802D01*
X100818390Y-80112287D01*
X100934607Y-80171503D01*
X101000776Y-80205218D01*
X101000778Y-80205218D01*
X101000781Y-80205220D01*
X101073405Y-80228817D01*
X101195465Y-80268477D01*
X101287582Y-80283067D01*
X101397648Y-80300500D01*
X101397649Y-80300500D01*
X101602351Y-80300500D01*
X101602352Y-80300500D01*
X101804534Y-80268477D01*
X101999219Y-80205220D01*
X102181610Y-80112287D01*
X102293946Y-80030671D01*
X102347213Y-79991971D01*
X102347215Y-79991968D01*
X102347219Y-79991966D01*
X102491966Y-79847219D01*
X102491968Y-79847215D01*
X102491971Y-79847213D01*
X102615151Y-79677669D01*
X102616823Y-79678884D01*
X102662208Y-79637831D01*
X102716115Y-79625500D01*
X106056122Y-79625500D01*
X106123161Y-79645185D01*
X106168916Y-79697989D01*
X106178860Y-79767147D01*
X106172304Y-79792833D01*
X106135124Y-79892517D01*
X106131408Y-79927085D01*
X106128717Y-79952123D01*
X106128716Y-79952135D01*
X106128716Y-82047870D01*
X106128717Y-82047876D01*
X106135124Y-82107483D01*
X106185418Y-82242328D01*
X106185422Y-82242335D01*
X106271668Y-82357544D01*
X106271671Y-82357547D01*
X106386880Y-82443793D01*
X106386887Y-82443797D01*
X106521733Y-82494091D01*
X106521732Y-82494091D01*
X106528660Y-82494835D01*
X106581343Y-82500500D01*
X108677088Y-82500499D01*
X108736699Y-82494091D01*
X108871547Y-82443796D01*
X108986762Y-82357546D01*
X109073012Y-82242331D01*
X109123307Y-82107483D01*
X109129716Y-82047873D01*
X109129715Y-79952128D01*
X109124058Y-79899500D01*
X109123307Y-79892516D01*
X109086128Y-79792833D01*
X109081144Y-79723141D01*
X109114630Y-79661818D01*
X109175953Y-79628334D01*
X109202310Y-79625500D01*
X111586618Y-79625500D01*
X111653657Y-79645185D01*
X111699412Y-79697989D01*
X111709356Y-79767147D01*
X111680331Y-79830703D01*
X111659507Y-79849815D01*
X111655071Y-79853037D01*
X111651704Y-79855484D01*
X111484701Y-80022487D01*
X111484701Y-80022488D01*
X111484699Y-80022490D01*
X111425078Y-80104550D01*
X111345873Y-80213566D01*
X111238649Y-80424003D01*
X111165662Y-80648631D01*
X111128716Y-80881902D01*
X111128716Y-81118097D01*
X111165662Y-81351368D01*
X111238649Y-81575996D01*
X111325123Y-81745709D01*
X111345873Y-81786433D01*
X111484699Y-81977510D01*
X111651706Y-82144517D01*
X111842783Y-82283343D01*
X111937758Y-82331735D01*
X112053219Y-82390566D01*
X112053221Y-82390566D01*
X112053224Y-82390568D01*
X112173628Y-82429689D01*
X112277847Y-82463553D01*
X112511119Y-82500500D01*
X112511124Y-82500500D01*
X112747313Y-82500500D01*
X112980584Y-82463553D01*
X113041383Y-82443798D01*
X113205208Y-82390568D01*
X113415649Y-82283343D01*
X113606726Y-82144517D01*
X113773733Y-81977510D01*
X113912559Y-81786433D01*
X114019784Y-81575992D01*
X114092769Y-81351368D01*
X114109520Y-81245606D01*
X114129716Y-81118097D01*
X114129716Y-80881902D01*
X114092769Y-80648631D01*
X114019782Y-80424003D01*
X113963218Y-80312991D01*
X113912559Y-80213567D01*
X113773733Y-80022490D01*
X113606726Y-79855483D01*
X113598926Y-79849816D01*
X113556263Y-79794487D01*
X113550284Y-79724874D01*
X113582890Y-79663079D01*
X113643729Y-79628722D01*
X113671814Y-79625500D01*
X115489548Y-79625500D01*
X115556587Y-79645185D01*
X115577229Y-79661819D01*
X119478228Y-83562819D01*
X119511713Y-83624142D01*
X119506729Y-83693834D01*
X119464857Y-83749767D01*
X119399393Y-83774184D01*
X119390547Y-83774500D01*
X100338393Y-83774500D01*
X100317251Y-83778705D01*
X100247660Y-83772476D01*
X100192483Y-83729612D01*
X100170590Y-83676486D01*
X100146555Y-83524736D01*
X100146555Y-83524735D01*
X100089380Y-83348767D01*
X100089379Y-83348764D01*
X100036551Y-83245084D01*
X100005378Y-83183904D01*
X99896621Y-83034213D01*
X99765787Y-82903379D01*
X99616096Y-82794622D01*
X99590902Y-82781785D01*
X99451235Y-82710620D01*
X99451232Y-82710619D01*
X99275265Y-82653445D01*
X99145252Y-82632853D01*
X99092514Y-82624500D01*
X98907486Y-82624500D01*
X98854748Y-82632853D01*
X98724734Y-82653445D01*
X98548767Y-82710619D01*
X98548764Y-82710620D01*
X98383903Y-82794622D01*
X98314002Y-82845409D01*
X98234213Y-82903379D01*
X98234211Y-82903381D01*
X98234210Y-82903381D01*
X98103381Y-83034210D01*
X98103381Y-83034211D01*
X98103379Y-83034213D01*
X98083171Y-83062027D01*
X97994622Y-83183903D01*
X97910620Y-83348764D01*
X97910619Y-83348767D01*
X97853445Y-83524734D01*
X97824500Y-83707486D01*
X90500500Y-83707486D01*
X90500500Y-78897648D01*
X92579500Y-78897648D01*
X92579500Y-79102351D01*
X92611522Y-79304534D01*
X92674781Y-79499223D01*
X92726876Y-79601463D01*
X92763121Y-79672598D01*
X92767715Y-79681613D01*
X92888028Y-79847213D01*
X93032786Y-79991971D01*
X93178453Y-80097802D01*
X93198390Y-80112287D01*
X93314607Y-80171503D01*
X93380776Y-80205218D01*
X93380778Y-80205218D01*
X93380781Y-80205220D01*
X93453405Y-80228817D01*
X93575465Y-80268477D01*
X93667582Y-80283067D01*
X93777648Y-80300500D01*
X93777649Y-80300500D01*
X93982351Y-80300500D01*
X93982352Y-80300500D01*
X94184534Y-80268477D01*
X94379219Y-80205220D01*
X94561610Y-80112287D01*
X94673946Y-80030671D01*
X94727213Y-79991971D01*
X94727215Y-79991968D01*
X94727219Y-79991966D01*
X94871966Y-79847219D01*
X94871968Y-79847215D01*
X94871971Y-79847213D01*
X94995151Y-79677669D01*
X94996823Y-79678884D01*
X95042208Y-79637831D01*
X95096115Y-79625500D01*
X96021608Y-79625500D01*
X96021608Y-79625499D01*
X96102388Y-79609432D01*
X96142452Y-79601463D01*
X96188351Y-79582451D01*
X96256286Y-79554312D01*
X96322169Y-79510289D01*
X96358733Y-79485858D01*
X96445858Y-79398733D01*
X96445858Y-79398731D01*
X96456066Y-79388524D01*
X96456067Y-79388521D01*
X100962483Y-74882106D01*
X101023804Y-74848623D01*
X101088480Y-74851858D01*
X101132049Y-74866015D01*
X101349778Y-74900500D01*
X101349779Y-74900500D01*
X101570221Y-74900500D01*
X101570222Y-74900500D01*
X101787951Y-74866015D01*
X101997606Y-74797895D01*
X102194022Y-74697815D01*
X102372365Y-74568242D01*
X102422924Y-74517682D01*
X102484245Y-74484198D01*
X102553936Y-74489182D01*
X102609870Y-74531053D01*
X102626786Y-74562030D01*
X102656646Y-74642087D01*
X102656649Y-74642093D01*
X102742809Y-74757187D01*
X102742812Y-74757190D01*
X102857906Y-74843350D01*
X102857913Y-74843354D01*
X102992620Y-74893596D01*
X102992627Y-74893598D01*
X103052155Y-74899999D01*
X103052172Y-74900000D01*
X103750000Y-74900000D01*
X103750000Y-73875277D01*
X103826306Y-73919333D01*
X103940756Y-73950000D01*
X104059244Y-73950000D01*
X104173694Y-73919333D01*
X104250000Y-73875277D01*
X104250000Y-74900000D01*
X104947828Y-74900000D01*
X104947844Y-74899999D01*
X105007372Y-74893598D01*
X105007379Y-74893596D01*
X105142086Y-74843354D01*
X105142093Y-74843350D01*
X105257187Y-74757190D01*
X105257190Y-74757187D01*
X105343350Y-74642093D01*
X105343354Y-74642086D01*
X105393596Y-74507379D01*
X105393598Y-74507372D01*
X105399999Y-74447844D01*
X105400000Y-74447827D01*
X105400000Y-73750000D01*
X104375278Y-73750000D01*
X104419333Y-73673694D01*
X104450000Y-73559244D01*
X104450000Y-73440756D01*
X104419333Y-73326306D01*
X104375278Y-73250000D01*
X105400000Y-73250000D01*
X105400000Y-72552172D01*
X105399999Y-72552155D01*
X105393598Y-72492627D01*
X105393596Y-72492620D01*
X105343354Y-72357913D01*
X105343350Y-72357906D01*
X105257190Y-72242812D01*
X105257187Y-72242809D01*
X105142093Y-72156649D01*
X105142086Y-72156645D01*
X105007379Y-72106403D01*
X105007372Y-72106401D01*
X104947844Y-72100000D01*
X104250000Y-72100000D01*
X104250000Y-73124722D01*
X104173694Y-73080667D01*
X104059244Y-73050000D01*
X103940756Y-73050000D01*
X103826306Y-73080667D01*
X103750000Y-73124722D01*
X103750000Y-72100000D01*
X103052155Y-72100000D01*
X102992627Y-72106401D01*
X102992620Y-72106403D01*
X102857913Y-72156645D01*
X102857906Y-72156649D01*
X102742812Y-72242809D01*
X102742809Y-72242812D01*
X102656649Y-72357906D01*
X102656643Y-72357918D01*
X102626785Y-72437969D01*
X102584914Y-72493903D01*
X102519449Y-72518319D01*
X102451176Y-72503467D01*
X102422923Y-72482316D01*
X102372363Y-72431756D01*
X102372358Y-72431752D01*
X102194025Y-72302187D01*
X102194024Y-72302186D01*
X102194022Y-72302185D01*
X102092586Y-72250500D01*
X101997606Y-72202104D01*
X101997603Y-72202103D01*
X101787952Y-72133985D01*
X101632690Y-72109394D01*
X101570222Y-72099500D01*
X101349778Y-72099500D01*
X101287335Y-72109390D01*
X101132047Y-72133985D01*
X100922396Y-72202103D01*
X100922393Y-72202104D01*
X100725974Y-72302187D01*
X100547641Y-72431752D01*
X100547636Y-72431756D01*
X100391756Y-72587636D01*
X100391752Y-72587641D01*
X100262187Y-72765974D01*
X100162104Y-72962393D01*
X100162103Y-72962396D01*
X100093985Y-73172047D01*
X100059500Y-73389778D01*
X100059500Y-73610221D01*
X100093985Y-73827954D01*
X100108140Y-73871519D01*
X100110135Y-73941360D01*
X100077890Y-73997517D01*
X95737229Y-78338181D01*
X95675906Y-78371666D01*
X95649548Y-78374500D01*
X95096115Y-78374500D01*
X95029076Y-78354815D01*
X94996393Y-78321428D01*
X94995151Y-78322331D01*
X94871971Y-78152786D01*
X94727213Y-78008028D01*
X94561613Y-77887715D01*
X94561612Y-77887714D01*
X94561610Y-77887713D01*
X94504653Y-77858691D01*
X94379223Y-77794781D01*
X94184534Y-77731522D01*
X94009995Y-77703878D01*
X93982352Y-77699500D01*
X93777648Y-77699500D01*
X93753329Y-77703351D01*
X93575465Y-77731522D01*
X93380776Y-77794781D01*
X93198386Y-77887715D01*
X93032786Y-78008028D01*
X92888028Y-78152786D01*
X92767715Y-78318386D01*
X92674781Y-78500776D01*
X92611522Y-78695465D01*
X92579500Y-78897648D01*
X90500500Y-78897648D01*
X90500500Y-72004427D01*
X90500816Y-71995581D01*
X90503935Y-71951972D01*
X90507176Y-71906650D01*
X90531593Y-71841188D01*
X90587526Y-71799316D01*
X90657218Y-71794332D01*
X90699751Y-71812396D01*
X90772287Y-71860863D01*
X90772300Y-71860870D01*
X90891610Y-71910289D01*
X90917976Y-71921210D01*
X91072626Y-71951972D01*
X91072629Y-71951973D01*
X91072631Y-71951973D01*
X91230317Y-71951973D01*
X91230318Y-71951972D01*
X91384970Y-71921210D01*
X91530652Y-71860867D01*
X91661762Y-71773262D01*
X91773262Y-71661762D01*
X91809675Y-71607266D01*
X91844191Y-71555610D01*
X91897803Y-71510804D01*
X91947293Y-71500500D01*
X92787098Y-71500500D01*
X92854137Y-71520185D01*
X92899892Y-71572989D01*
X92909836Y-71642147D01*
X92906874Y-71656585D01*
X92899500Y-71684108D01*
X92899500Y-74784108D01*
X92899500Y-74915892D01*
X92911675Y-74961331D01*
X92933608Y-75043187D01*
X92960858Y-75090384D01*
X92999500Y-75157314D01*
X93092686Y-75250500D01*
X93190559Y-75307007D01*
X93198924Y-75311837D01*
X93206814Y-75316392D01*
X93334108Y-75350500D01*
X93334110Y-75350500D01*
X97065890Y-75350500D01*
X97065892Y-75350500D01*
X97193186Y-75316392D01*
X97307314Y-75250500D01*
X97400500Y-75157314D01*
X97466392Y-75043186D01*
X97500500Y-74915892D01*
X97500500Y-71684108D01*
X97493127Y-71656591D01*
X97494790Y-71586744D01*
X97533952Y-71528881D01*
X97598181Y-71501377D01*
X97612902Y-71500500D01*
X115705319Y-71500500D01*
X115772358Y-71520185D01*
X115818113Y-71572989D01*
X115828057Y-71642147D01*
X115799032Y-71705703D01*
X115793000Y-71712181D01*
X115707265Y-71797915D01*
X115539161Y-72008712D01*
X115395714Y-72237005D01*
X115278734Y-72479917D01*
X115189687Y-72734397D01*
X115189684Y-72734405D01*
X115129688Y-72997268D01*
X115129686Y-72997280D01*
X115099500Y-73265186D01*
X115099500Y-73534813D01*
X115129686Y-73802719D01*
X115129688Y-73802731D01*
X115189684Y-74065594D01*
X115189687Y-74065602D01*
X115278734Y-74320082D01*
X115395714Y-74562994D01*
X115395716Y-74562997D01*
X115539162Y-74791289D01*
X115707266Y-75002085D01*
X115897915Y-75192734D01*
X116108711Y-75360838D01*
X116337003Y-75504284D01*
X116579921Y-75621267D01*
X116771049Y-75688145D01*
X116834397Y-75710312D01*
X116834405Y-75710315D01*
X116834408Y-75710315D01*
X116834409Y-75710316D01*
X117097268Y-75770312D01*
X117365187Y-75800499D01*
X117365188Y-75800500D01*
X117365191Y-75800500D01*
X117634812Y-75800500D01*
X117634812Y-75800499D01*
X117902732Y-75770312D01*
X118165591Y-75710316D01*
X118420079Y-75621267D01*
X118662997Y-75504284D01*
X118891289Y-75360838D01*
X119102085Y-75192734D01*
X119292734Y-75002085D01*
X119460838Y-74791289D01*
X119604284Y-74562997D01*
X119721267Y-74320079D01*
X119774983Y-74166566D01*
X119801436Y-74090970D01*
X119801438Y-74090964D01*
X119810315Y-74065593D01*
X119810316Y-74065591D01*
X119870312Y-73802732D01*
X119900500Y-73534809D01*
X119900500Y-73265191D01*
X119874614Y-73035452D01*
X119870313Y-72997280D01*
X119870312Y-72997268D01*
X119810316Y-72734409D01*
X119721267Y-72479921D01*
X119604284Y-72237003D01*
X119460838Y-72008711D01*
X119292734Y-71797915D01*
X119207000Y-71712181D01*
X119173515Y-71650858D01*
X119178499Y-71581166D01*
X119220371Y-71525233D01*
X119285835Y-71500816D01*
X119294681Y-71500500D01*
X159205319Y-71500500D01*
X159272358Y-71520185D01*
X159318113Y-71572989D01*
X159328057Y-71642147D01*
X159299032Y-71705703D01*
X159293000Y-71712181D01*
X159207265Y-71797915D01*
X159039161Y-72008712D01*
X158895714Y-72237005D01*
X158778734Y-72479917D01*
X158689687Y-72734397D01*
X158689684Y-72734405D01*
X158629688Y-72997268D01*
X158629686Y-72997280D01*
X158599500Y-73265186D01*
X158599500Y-73534813D01*
X158629686Y-73802719D01*
X158629688Y-73802731D01*
X158689684Y-74065594D01*
X158689687Y-74065602D01*
X158778734Y-74320082D01*
X158895714Y-74562994D01*
X158895716Y-74562997D01*
X159039162Y-74791289D01*
X159207266Y-75002085D01*
X159397915Y-75192734D01*
X159608711Y-75360838D01*
X159837003Y-75504284D01*
X160079921Y-75621267D01*
X160271049Y-75688145D01*
X160334397Y-75710312D01*
X160334405Y-75710315D01*
X160334408Y-75710315D01*
X160334409Y-75710316D01*
X160597268Y-75770312D01*
X160865187Y-75800499D01*
X160865188Y-75800500D01*
X160865191Y-75800500D01*
X161134812Y-75800500D01*
X161134812Y-75800499D01*
X161402732Y-75770312D01*
X161665591Y-75710316D01*
X161920079Y-75621267D01*
X162162997Y-75504284D01*
X162391289Y-75360838D01*
X162602085Y-75192734D01*
X162792734Y-75002085D01*
X162960838Y-74791289D01*
X163079692Y-74602135D01*
X168069500Y-74602135D01*
X168069500Y-76397870D01*
X168069501Y-76397876D01*
X168075908Y-76457483D01*
X168126202Y-76592328D01*
X168126206Y-76592335D01*
X168212452Y-76707544D01*
X168212455Y-76707547D01*
X168327664Y-76793793D01*
X168327671Y-76793797D01*
X168462517Y-76844091D01*
X168462516Y-76844091D01*
X168469444Y-76844835D01*
X168522127Y-76850500D01*
X170317872Y-76850499D01*
X170377483Y-76844091D01*
X170512331Y-76793796D01*
X170627546Y-76707546D01*
X170713796Y-76592331D01*
X170764091Y-76457483D01*
X170770500Y-76397873D01*
X170770499Y-76373979D01*
X170773330Y-76360963D01*
X170783940Y-76341525D01*
X170790179Y-76320275D01*
X170806803Y-76299643D01*
X170806808Y-76299636D01*
X170806811Y-76299634D01*
X170806818Y-76299626D01*
X171477037Y-75629408D01*
X171494075Y-75692993D01*
X171559901Y-75807007D01*
X171652993Y-75900099D01*
X171767007Y-75965925D01*
X171830590Y-75982962D01*
X171198282Y-76615269D01*
X171198282Y-76615270D01*
X171252449Y-76654624D01*
X171441782Y-76751095D01*
X171643870Y-76816757D01*
X171853754Y-76850000D01*
X172066246Y-76850000D01*
X172276127Y-76816757D01*
X172276130Y-76816757D01*
X172478217Y-76751095D01*
X172667554Y-76654622D01*
X172721716Y-76615270D01*
X172721717Y-76615270D01*
X172089408Y-75982962D01*
X172152993Y-75965925D01*
X172267007Y-75900099D01*
X172360099Y-75807007D01*
X172425925Y-75692993D01*
X172442962Y-75629409D01*
X173075270Y-76261717D01*
X173075270Y-76261716D01*
X173114622Y-76207555D01*
X173119232Y-76198507D01*
X173167205Y-76147709D01*
X173235025Y-76130912D01*
X173301161Y-76153447D01*
X173340204Y-76198504D01*
X173344949Y-76207817D01*
X173469890Y-76379786D01*
X173620213Y-76530109D01*
X173792179Y-76655048D01*
X173792181Y-76655049D01*
X173792184Y-76655051D01*
X173981588Y-76751557D01*
X174183757Y-76817246D01*
X174393713Y-76850500D01*
X174393714Y-76850500D01*
X174606286Y-76850500D01*
X174606287Y-76850500D01*
X174816243Y-76817246D01*
X175018412Y-76751557D01*
X175207816Y-76655051D01*
X175262711Y-76615168D01*
X175379786Y-76530109D01*
X175379788Y-76530106D01*
X175379792Y-76530104D01*
X175530104Y-76379792D01*
X175530106Y-76379788D01*
X175530109Y-76379786D01*
X175655048Y-76207820D01*
X175655050Y-76207817D01*
X175655051Y-76207816D01*
X175751557Y-76018412D01*
X175817246Y-75816243D01*
X175850500Y-75606287D01*
X175850500Y-75393713D01*
X175817246Y-75183757D01*
X175751557Y-74981588D01*
X175655051Y-74792184D01*
X175655049Y-74792181D01*
X175655048Y-74792179D01*
X175530109Y-74620213D01*
X175379786Y-74469890D01*
X175207820Y-74344951D01*
X175018414Y-74248444D01*
X175018413Y-74248443D01*
X175018412Y-74248443D01*
X174816243Y-74182754D01*
X174816241Y-74182753D01*
X174816240Y-74182753D01*
X174654957Y-74157208D01*
X174606287Y-74149500D01*
X174393713Y-74149500D01*
X174345042Y-74157208D01*
X174183760Y-74182753D01*
X174082672Y-74215598D01*
X174006690Y-74240287D01*
X173981585Y-74248444D01*
X173792179Y-74344951D01*
X173620213Y-74469890D01*
X173469890Y-74620213D01*
X173344949Y-74792182D01*
X173340202Y-74801499D01*
X173292227Y-74852293D01*
X173224405Y-74869087D01*
X173158271Y-74846548D01*
X173119234Y-74801495D01*
X173114626Y-74792452D01*
X173075270Y-74738282D01*
X173075269Y-74738282D01*
X172442962Y-75370590D01*
X172425925Y-75307007D01*
X172360099Y-75192993D01*
X172267007Y-75099901D01*
X172152993Y-75034075D01*
X172089409Y-75017037D01*
X172721716Y-74384728D01*
X172667550Y-74345375D01*
X172478217Y-74248904D01*
X172276129Y-74183242D01*
X172066246Y-74150000D01*
X171853754Y-74150000D01*
X171643872Y-74183242D01*
X171643869Y-74183242D01*
X171441782Y-74248904D01*
X171252439Y-74345380D01*
X171198282Y-74384727D01*
X171198282Y-74384728D01*
X171830591Y-75017037D01*
X171767007Y-75034075D01*
X171652993Y-75099901D01*
X171559901Y-75192993D01*
X171494075Y-75307007D01*
X171477037Y-75370591D01*
X170806818Y-74700372D01*
X170773333Y-74639049D01*
X170773330Y-74639036D01*
X170770499Y-74626015D01*
X170770499Y-74602128D01*
X170764091Y-74542517D01*
X170734950Y-74464386D01*
X170713798Y-74407673D01*
X170713793Y-74407664D01*
X170627547Y-74292455D01*
X170627544Y-74292452D01*
X170512335Y-74206206D01*
X170512328Y-74206202D01*
X170377482Y-74155908D01*
X170377483Y-74155908D01*
X170317883Y-74149501D01*
X170317881Y-74149500D01*
X170317873Y-74149500D01*
X170317864Y-74149500D01*
X168522129Y-74149500D01*
X168522123Y-74149501D01*
X168462516Y-74155908D01*
X168327671Y-74206202D01*
X168327664Y-74206206D01*
X168212455Y-74292452D01*
X168212452Y-74292455D01*
X168126206Y-74407664D01*
X168126202Y-74407671D01*
X168075908Y-74542517D01*
X168069501Y-74602116D01*
X168069500Y-74602135D01*
X163079692Y-74602135D01*
X163104284Y-74562997D01*
X163221267Y-74320079D01*
X163310316Y-74065591D01*
X163370312Y-73802732D01*
X163400500Y-73534809D01*
X163400500Y-73265191D01*
X163370312Y-72997268D01*
X163310316Y-72734409D01*
X163221267Y-72479921D01*
X163104284Y-72237003D01*
X162960838Y-72008711D01*
X162792734Y-71797915D01*
X162707000Y-71712181D01*
X162673515Y-71650858D01*
X162678499Y-71581166D01*
X162720371Y-71525233D01*
X162785835Y-71500816D01*
X162794681Y-71500500D01*
X180387098Y-71500500D01*
X180454137Y-71520185D01*
X180499892Y-71572989D01*
X180509836Y-71642147D01*
X180506874Y-71656585D01*
X180499500Y-71684108D01*
X180499500Y-74784108D01*
X180499500Y-74915892D01*
X180511675Y-74961331D01*
X180533608Y-75043187D01*
X180560858Y-75090384D01*
X180599500Y-75157314D01*
X180692686Y-75250500D01*
X180790559Y-75307007D01*
X180798924Y-75311837D01*
X180806814Y-75316392D01*
X180934108Y-75350500D01*
X180934110Y-75350500D01*
X184665890Y-75350500D01*
X184665892Y-75350500D01*
X184793186Y-75316392D01*
X184907314Y-75250500D01*
X185000500Y-75157314D01*
X185066392Y-75043186D01*
X185100500Y-74915892D01*
X185100500Y-72245134D01*
X185120185Y-72178095D01*
X185172989Y-72132340D01*
X185242147Y-72122396D01*
X185271950Y-72130572D01*
X185366503Y-72169737D01*
X185521153Y-72200499D01*
X185521156Y-72200500D01*
X185521158Y-72200500D01*
X185678844Y-72200500D01*
X185678845Y-72200499D01*
X185833497Y-72169737D01*
X185979179Y-72109394D01*
X186110289Y-72021789D01*
X186221789Y-71910289D01*
X186309394Y-71779179D01*
X186369737Y-71633497D01*
X186400500Y-71478842D01*
X186400500Y-71321158D01*
X186400500Y-71321155D01*
X186400499Y-71321153D01*
X186369738Y-71166510D01*
X186369737Y-71166503D01*
X186311181Y-71025135D01*
X186309397Y-71020827D01*
X186309390Y-71020814D01*
X186221789Y-70889711D01*
X186221786Y-70889707D01*
X186110292Y-70778213D01*
X186110288Y-70778210D01*
X186047478Y-70736241D01*
X186002673Y-70682628D01*
X185993966Y-70613303D01*
X186024121Y-70550276D01*
X186083564Y-70513557D01*
X186125211Y-70509455D01*
X186204563Y-70515130D01*
G37*
%TD.AperFunction*%
%TD*%
M02*
