%TF.GenerationSoftware,KiCad,Pcbnew,9.0.9-9.0.9~ubuntu24.04.1*%
%TF.CreationDate,2026-08-14T00:59:38+09:00*%
%TF.ProjectId,tinygo-conf-2026,74696e79-676f-42d6-936f-6e662d323032,rev?*%
%TF.SameCoordinates,Original*%
%TF.FileFunction,Legend,Bot*%
%TF.FilePolarity,Positive*%
%FSLAX46Y46*%
G04 Gerber Fmt 4.6, Leading zero omitted, Abs format (unit mm)*
G04 Created by KiCad (PCBNEW 9.0.9-9.0.9~ubuntu24.04.1) date 2026-08-14 00:59:38*
%MOMM*%
%LPD*%
G01*
G04 APERTURE LIST*
%ADD10C,0.100000*%
%ADD11C,0.150000*%
%ADD12C,0.400000*%
%ADD13C,0.050000*%
%ADD14C,0.120000*%
G04 APERTURE END LIST*
D10*
X174586667Y-86826800D02*
X174472381Y-86864895D01*
X174472381Y-86864895D02*
X174281905Y-86864895D01*
X174281905Y-86864895D02*
X174205714Y-86826800D01*
X174205714Y-86826800D02*
X174167619Y-86788704D01*
X174167619Y-86788704D02*
X174129524Y-86712514D01*
X174129524Y-86712514D02*
X174129524Y-86636323D01*
X174129524Y-86636323D02*
X174167619Y-86560133D01*
X174167619Y-86560133D02*
X174205714Y-86522038D01*
X174205714Y-86522038D02*
X174281905Y-86483942D01*
X174281905Y-86483942D02*
X174434286Y-86445847D01*
X174434286Y-86445847D02*
X174510476Y-86407752D01*
X174510476Y-86407752D02*
X174548571Y-86369657D01*
X174548571Y-86369657D02*
X174586667Y-86293466D01*
X174586667Y-86293466D02*
X174586667Y-86217276D01*
X174586667Y-86217276D02*
X174548571Y-86141085D01*
X174548571Y-86141085D02*
X174510476Y-86102990D01*
X174510476Y-86102990D02*
X174434286Y-86064895D01*
X174434286Y-86064895D02*
X174243809Y-86064895D01*
X174243809Y-86064895D02*
X174129524Y-86102990D01*
X173862857Y-86064895D02*
X173672381Y-86864895D01*
X173672381Y-86864895D02*
X173520000Y-86293466D01*
X173520000Y-86293466D02*
X173367619Y-86864895D01*
X173367619Y-86864895D02*
X173177143Y-86064895D01*
X172453333Y-86864895D02*
X172910476Y-86864895D01*
X172681904Y-86864895D02*
X172681904Y-86064895D01*
X172681904Y-86064895D02*
X172758095Y-86179180D01*
X172758095Y-86179180D02*
X172834285Y-86255371D01*
X172834285Y-86255371D02*
X172910476Y-86293466D01*
X95569047Y-71576109D02*
X95569047Y-71076109D01*
X95569047Y-71076109D02*
X95449999Y-71076109D01*
X95449999Y-71076109D02*
X95378571Y-71099919D01*
X95378571Y-71099919D02*
X95330952Y-71147538D01*
X95330952Y-71147538D02*
X95307142Y-71195157D01*
X95307142Y-71195157D02*
X95283333Y-71290395D01*
X95283333Y-71290395D02*
X95283333Y-71361823D01*
X95283333Y-71361823D02*
X95307142Y-71457061D01*
X95307142Y-71457061D02*
X95330952Y-71504680D01*
X95330952Y-71504680D02*
X95378571Y-71552300D01*
X95378571Y-71552300D02*
X95449999Y-71576109D01*
X95449999Y-71576109D02*
X95569047Y-71576109D01*
X94807142Y-71576109D02*
X95092856Y-71576109D01*
X94949999Y-71576109D02*
X94949999Y-71076109D01*
X94949999Y-71076109D02*
X94997618Y-71147538D01*
X94997618Y-71147538D02*
X95045237Y-71195157D01*
X95045237Y-71195157D02*
X95092856Y-71218966D01*
D11*
X118417539Y-93211095D02*
X119227062Y-93211095D01*
X119227062Y-93211095D02*
X119322300Y-93258714D01*
X119322300Y-93258714D02*
X119369920Y-93306333D01*
X119369920Y-93306333D02*
X119417539Y-93401571D01*
X119417539Y-93401571D02*
X119417539Y-93592047D01*
X119417539Y-93592047D02*
X119369920Y-93687285D01*
X119369920Y-93687285D02*
X119322300Y-93734904D01*
X119322300Y-93734904D02*
X119227062Y-93782523D01*
X119227062Y-93782523D02*
X118417539Y-93782523D01*
X119417539Y-94782523D02*
X119417539Y-94211095D01*
X119417539Y-94496809D02*
X118417539Y-94496809D01*
X118417539Y-94496809D02*
X118560396Y-94401571D01*
X118560396Y-94401571D02*
X118655634Y-94306333D01*
X118655634Y-94306333D02*
X118703253Y-94211095D01*
X150785904Y-92773186D02*
X150738285Y-92725567D01*
X150738285Y-92725567D02*
X150643047Y-92677948D01*
X150643047Y-92677948D02*
X150452571Y-92773186D01*
X150452571Y-92773186D02*
X150357333Y-92725567D01*
X150357333Y-92725567D02*
X150309714Y-92677948D01*
X163745158Y-83403588D02*
X163697539Y-83308350D01*
X163697539Y-83308350D02*
X163697539Y-83165493D01*
X163697539Y-83165493D02*
X163745158Y-83022636D01*
X163745158Y-83022636D02*
X163840396Y-82927398D01*
X163840396Y-82927398D02*
X163935634Y-82879779D01*
X163935634Y-82879779D02*
X164126110Y-82832160D01*
X164126110Y-82832160D02*
X164268967Y-82832160D01*
X164268967Y-82832160D02*
X164459443Y-82879779D01*
X164459443Y-82879779D02*
X164554681Y-82927398D01*
X164554681Y-82927398D02*
X164649920Y-83022636D01*
X164649920Y-83022636D02*
X164697539Y-83165493D01*
X164697539Y-83165493D02*
X164697539Y-83260731D01*
X164697539Y-83260731D02*
X164649920Y-83403588D01*
X164649920Y-83403588D02*
X164602300Y-83451207D01*
X164602300Y-83451207D02*
X164268967Y-83451207D01*
X164268967Y-83451207D02*
X164268967Y-83260731D01*
X164697539Y-83879779D02*
X163697539Y-83879779D01*
X163697539Y-83879779D02*
X163697539Y-84260731D01*
X163697539Y-84260731D02*
X163745158Y-84355969D01*
X163745158Y-84355969D02*
X163792777Y-84403588D01*
X163792777Y-84403588D02*
X163888015Y-84451207D01*
X163888015Y-84451207D02*
X164030872Y-84451207D01*
X164030872Y-84451207D02*
X164126110Y-84403588D01*
X164126110Y-84403588D02*
X164173729Y-84355969D01*
X164173729Y-84355969D02*
X164221348Y-84260731D01*
X164221348Y-84260731D02*
X164221348Y-83879779D01*
X164697539Y-84879779D02*
X163697539Y-84879779D01*
X163697539Y-85546445D02*
X163697539Y-85736921D01*
X163697539Y-85736921D02*
X163745158Y-85832159D01*
X163745158Y-85832159D02*
X163840396Y-85927397D01*
X163840396Y-85927397D02*
X164030872Y-85975016D01*
X164030872Y-85975016D02*
X164364205Y-85975016D01*
X164364205Y-85975016D02*
X164554681Y-85927397D01*
X164554681Y-85927397D02*
X164649920Y-85832159D01*
X164649920Y-85832159D02*
X164697539Y-85736921D01*
X164697539Y-85736921D02*
X164697539Y-85546445D01*
X164697539Y-85546445D02*
X164649920Y-85451207D01*
X164649920Y-85451207D02*
X164554681Y-85355969D01*
X164554681Y-85355969D02*
X164364205Y-85308350D01*
X164364205Y-85308350D02*
X164030872Y-85308350D01*
X164030872Y-85308350D02*
X163840396Y-85355969D01*
X163840396Y-85355969D02*
X163745158Y-85451207D01*
X163745158Y-85451207D02*
X163697539Y-85546445D01*
X164697539Y-86927397D02*
X164697539Y-86355969D01*
X164697539Y-86641683D02*
X163697539Y-86641683D01*
X163697539Y-86641683D02*
X163840396Y-86546445D01*
X163840396Y-86546445D02*
X163935634Y-86451207D01*
X163935634Y-86451207D02*
X163983253Y-86355969D01*
X163792777Y-87308350D02*
X163745158Y-87355969D01*
X163745158Y-87355969D02*
X163697539Y-87451207D01*
X163697539Y-87451207D02*
X163697539Y-87689302D01*
X163697539Y-87689302D02*
X163745158Y-87784540D01*
X163745158Y-87784540D02*
X163792777Y-87832159D01*
X163792777Y-87832159D02*
X163888015Y-87879778D01*
X163888015Y-87879778D02*
X163983253Y-87879778D01*
X163983253Y-87879778D02*
X164126110Y-87832159D01*
X164126110Y-87832159D02*
X164697539Y-87260731D01*
X164697539Y-87260731D02*
X164697539Y-87879778D01*
X140885158Y-93145268D02*
X140837539Y-93050030D01*
X140837539Y-93050030D02*
X140837539Y-92907173D01*
X140837539Y-92907173D02*
X140885158Y-92764316D01*
X140885158Y-92764316D02*
X140980396Y-92669078D01*
X140980396Y-92669078D02*
X141075634Y-92621459D01*
X141075634Y-92621459D02*
X141266110Y-92573840D01*
X141266110Y-92573840D02*
X141408967Y-92573840D01*
X141408967Y-92573840D02*
X141599443Y-92621459D01*
X141599443Y-92621459D02*
X141694681Y-92669078D01*
X141694681Y-92669078D02*
X141789920Y-92764316D01*
X141789920Y-92764316D02*
X141837539Y-92907173D01*
X141837539Y-92907173D02*
X141837539Y-93002411D01*
X141837539Y-93002411D02*
X141789920Y-93145268D01*
X141789920Y-93145268D02*
X141742300Y-93192887D01*
X141742300Y-93192887D02*
X141408967Y-93192887D01*
X141408967Y-93192887D02*
X141408967Y-93002411D01*
X141837539Y-93621459D02*
X140837539Y-93621459D01*
X140837539Y-93621459D02*
X140837539Y-94002411D01*
X140837539Y-94002411D02*
X140885158Y-94097649D01*
X140885158Y-94097649D02*
X140932777Y-94145268D01*
X140932777Y-94145268D02*
X141028015Y-94192887D01*
X141028015Y-94192887D02*
X141170872Y-94192887D01*
X141170872Y-94192887D02*
X141266110Y-94145268D01*
X141266110Y-94145268D02*
X141313729Y-94097649D01*
X141313729Y-94097649D02*
X141361348Y-94002411D01*
X141361348Y-94002411D02*
X141361348Y-93621459D01*
X141837539Y-94621459D02*
X140837539Y-94621459D01*
X140837539Y-95288125D02*
X140837539Y-95478601D01*
X140837539Y-95478601D02*
X140885158Y-95573839D01*
X140885158Y-95573839D02*
X140980396Y-95669077D01*
X140980396Y-95669077D02*
X141170872Y-95716696D01*
X141170872Y-95716696D02*
X141504205Y-95716696D01*
X141504205Y-95716696D02*
X141694681Y-95669077D01*
X141694681Y-95669077D02*
X141789920Y-95573839D01*
X141789920Y-95573839D02*
X141837539Y-95478601D01*
X141837539Y-95478601D02*
X141837539Y-95288125D01*
X141837539Y-95288125D02*
X141789920Y-95192887D01*
X141789920Y-95192887D02*
X141694681Y-95097649D01*
X141694681Y-95097649D02*
X141504205Y-95050030D01*
X141504205Y-95050030D02*
X141170872Y-95050030D01*
X141170872Y-95050030D02*
X140980396Y-95097649D01*
X140980396Y-95097649D02*
X140885158Y-95192887D01*
X140885158Y-95192887D02*
X140837539Y-95288125D01*
X140837539Y-96050030D02*
X140837539Y-96669077D01*
X140837539Y-96669077D02*
X141218491Y-96335744D01*
X141218491Y-96335744D02*
X141218491Y-96478601D01*
X141218491Y-96478601D02*
X141266110Y-96573839D01*
X141266110Y-96573839D02*
X141313729Y-96621458D01*
X141313729Y-96621458D02*
X141408967Y-96669077D01*
X141408967Y-96669077D02*
X141647062Y-96669077D01*
X141647062Y-96669077D02*
X141742300Y-96621458D01*
X141742300Y-96621458D02*
X141789920Y-96573839D01*
X141789920Y-96573839D02*
X141837539Y-96478601D01*
X141837539Y-96478601D02*
X141837539Y-96192887D01*
X141837539Y-96192887D02*
X141789920Y-96097649D01*
X141789920Y-96097649D02*
X141742300Y-96050030D01*
X141837539Y-97145268D02*
X141837539Y-97335744D01*
X141837539Y-97335744D02*
X141789920Y-97430982D01*
X141789920Y-97430982D02*
X141742300Y-97478601D01*
X141742300Y-97478601D02*
X141599443Y-97573839D01*
X141599443Y-97573839D02*
X141408967Y-97621458D01*
X141408967Y-97621458D02*
X141028015Y-97621458D01*
X141028015Y-97621458D02*
X140932777Y-97573839D01*
X140932777Y-97573839D02*
X140885158Y-97526220D01*
X140885158Y-97526220D02*
X140837539Y-97430982D01*
X140837539Y-97430982D02*
X140837539Y-97240506D01*
X140837539Y-97240506D02*
X140885158Y-97145268D01*
X140885158Y-97145268D02*
X140932777Y-97097649D01*
X140932777Y-97097649D02*
X141028015Y-97050030D01*
X141028015Y-97050030D02*
X141266110Y-97050030D01*
X141266110Y-97050030D02*
X141361348Y-97097649D01*
X141361348Y-97097649D02*
X141408967Y-97145268D01*
X141408967Y-97145268D02*
X141456586Y-97240506D01*
X141456586Y-97240506D02*
X141456586Y-97430982D01*
X141456586Y-97430982D02*
X141408967Y-97526220D01*
X141408967Y-97526220D02*
X141361348Y-97573839D01*
X141361348Y-97573839D02*
X141266110Y-97621458D01*
X140789920Y-98764315D02*
X142075634Y-97907173D01*
X141837539Y-99097649D02*
X140837539Y-99097649D01*
X140837539Y-99097649D02*
X141551824Y-99430982D01*
X141551824Y-99430982D02*
X140837539Y-99764315D01*
X140837539Y-99764315D02*
X141837539Y-99764315D01*
X140837539Y-100097649D02*
X140837539Y-100669077D01*
X141837539Y-100383363D02*
X140837539Y-100383363D01*
X141742300Y-101573839D02*
X141789920Y-101526220D01*
X141789920Y-101526220D02*
X141837539Y-101383363D01*
X141837539Y-101383363D02*
X141837539Y-101288125D01*
X141837539Y-101288125D02*
X141789920Y-101145268D01*
X141789920Y-101145268D02*
X141694681Y-101050030D01*
X141694681Y-101050030D02*
X141599443Y-101002411D01*
X141599443Y-101002411D02*
X141408967Y-100954792D01*
X141408967Y-100954792D02*
X141266110Y-100954792D01*
X141266110Y-100954792D02*
X141075634Y-101002411D01*
X141075634Y-101002411D02*
X140980396Y-101050030D01*
X140980396Y-101050030D02*
X140885158Y-101145268D01*
X140885158Y-101145268D02*
X140837539Y-101288125D01*
X140837539Y-101288125D02*
X140837539Y-101383363D01*
X140837539Y-101383363D02*
X140885158Y-101526220D01*
X140885158Y-101526220D02*
X140932777Y-101573839D01*
X141837539Y-102002411D02*
X140837539Y-102002411D01*
X141837539Y-102573839D02*
X141266110Y-102145268D01*
X140837539Y-102573839D02*
X141408967Y-102002411D01*
X171365158Y-100478601D02*
X171317539Y-100383363D01*
X171317539Y-100383363D02*
X171317539Y-100240506D01*
X171317539Y-100240506D02*
X171365158Y-100097649D01*
X171365158Y-100097649D02*
X171460396Y-100002411D01*
X171460396Y-100002411D02*
X171555634Y-99954792D01*
X171555634Y-99954792D02*
X171746110Y-99907173D01*
X171746110Y-99907173D02*
X171888967Y-99907173D01*
X171888967Y-99907173D02*
X172079443Y-99954792D01*
X172079443Y-99954792D02*
X172174681Y-100002411D01*
X172174681Y-100002411D02*
X172269920Y-100097649D01*
X172269920Y-100097649D02*
X172317539Y-100240506D01*
X172317539Y-100240506D02*
X172317539Y-100335744D01*
X172317539Y-100335744D02*
X172269920Y-100478601D01*
X172269920Y-100478601D02*
X172222300Y-100526220D01*
X172222300Y-100526220D02*
X171888967Y-100526220D01*
X171888967Y-100526220D02*
X171888967Y-100335744D01*
X172317539Y-100954792D02*
X171317539Y-100954792D01*
X171317539Y-100954792D02*
X172317539Y-101526220D01*
X172317539Y-101526220D02*
X171317539Y-101526220D01*
X172317539Y-102002411D02*
X171317539Y-102002411D01*
X171317539Y-102002411D02*
X171317539Y-102240506D01*
X171317539Y-102240506D02*
X171365158Y-102383363D01*
X171365158Y-102383363D02*
X171460396Y-102478601D01*
X171460396Y-102478601D02*
X171555634Y-102526220D01*
X171555634Y-102526220D02*
X171746110Y-102573839D01*
X171746110Y-102573839D02*
X171888967Y-102573839D01*
X171888967Y-102573839D02*
X172079443Y-102526220D01*
X172079443Y-102526220D02*
X172174681Y-102478601D01*
X172174681Y-102478601D02*
X172269920Y-102383363D01*
X172269920Y-102383363D02*
X172317539Y-102240506D01*
X172317539Y-102240506D02*
X172317539Y-102002411D01*
X123057539Y-82784541D02*
X123057539Y-83403588D01*
X123057539Y-83403588D02*
X123438491Y-83070255D01*
X123438491Y-83070255D02*
X123438491Y-83213112D01*
X123438491Y-83213112D02*
X123486110Y-83308350D01*
X123486110Y-83308350D02*
X123533729Y-83355969D01*
X123533729Y-83355969D02*
X123628967Y-83403588D01*
X123628967Y-83403588D02*
X123867062Y-83403588D01*
X123867062Y-83403588D02*
X123962300Y-83355969D01*
X123962300Y-83355969D02*
X124009920Y-83308350D01*
X124009920Y-83308350D02*
X124057539Y-83213112D01*
X124057539Y-83213112D02*
X124057539Y-82927398D01*
X124057539Y-82927398D02*
X124009920Y-82832160D01*
X124009920Y-82832160D02*
X123962300Y-82784541D01*
X123057539Y-83689303D02*
X124057539Y-84022636D01*
X124057539Y-84022636D02*
X123057539Y-84355969D01*
X123057539Y-84594065D02*
X123057539Y-85213112D01*
X123057539Y-85213112D02*
X123438491Y-84879779D01*
X123438491Y-84879779D02*
X123438491Y-85022636D01*
X123438491Y-85022636D02*
X123486110Y-85117874D01*
X123486110Y-85117874D02*
X123533729Y-85165493D01*
X123533729Y-85165493D02*
X123628967Y-85213112D01*
X123628967Y-85213112D02*
X123867062Y-85213112D01*
X123867062Y-85213112D02*
X123962300Y-85165493D01*
X123962300Y-85165493D02*
X124009920Y-85117874D01*
X124009920Y-85117874D02*
X124057539Y-85022636D01*
X124057539Y-85022636D02*
X124057539Y-84736922D01*
X124057539Y-84736922D02*
X124009920Y-84641684D01*
X124009920Y-84641684D02*
X123962300Y-84594065D01*
X123105158Y-92335744D02*
X123057539Y-92240506D01*
X123057539Y-92240506D02*
X123057539Y-92097649D01*
X123057539Y-92097649D02*
X123105158Y-91954792D01*
X123105158Y-91954792D02*
X123200396Y-91859554D01*
X123200396Y-91859554D02*
X123295634Y-91811935D01*
X123295634Y-91811935D02*
X123486110Y-91764316D01*
X123486110Y-91764316D02*
X123628967Y-91764316D01*
X123628967Y-91764316D02*
X123819443Y-91811935D01*
X123819443Y-91811935D02*
X123914681Y-91859554D01*
X123914681Y-91859554D02*
X124009920Y-91954792D01*
X124009920Y-91954792D02*
X124057539Y-92097649D01*
X124057539Y-92097649D02*
X124057539Y-92192887D01*
X124057539Y-92192887D02*
X124009920Y-92335744D01*
X124009920Y-92335744D02*
X123962300Y-92383363D01*
X123962300Y-92383363D02*
X123628967Y-92383363D01*
X123628967Y-92383363D02*
X123628967Y-92192887D01*
X124057539Y-92811935D02*
X123057539Y-92811935D01*
X123057539Y-92811935D02*
X123057539Y-93192887D01*
X123057539Y-93192887D02*
X123105158Y-93288125D01*
X123105158Y-93288125D02*
X123152777Y-93335744D01*
X123152777Y-93335744D02*
X123248015Y-93383363D01*
X123248015Y-93383363D02*
X123390872Y-93383363D01*
X123390872Y-93383363D02*
X123486110Y-93335744D01*
X123486110Y-93335744D02*
X123533729Y-93288125D01*
X123533729Y-93288125D02*
X123581348Y-93192887D01*
X123581348Y-93192887D02*
X123581348Y-92811935D01*
X124057539Y-93811935D02*
X123057539Y-93811935D01*
X123057539Y-94478601D02*
X123057539Y-94669077D01*
X123057539Y-94669077D02*
X123105158Y-94764315D01*
X123105158Y-94764315D02*
X123200396Y-94859553D01*
X123200396Y-94859553D02*
X123390872Y-94907172D01*
X123390872Y-94907172D02*
X123724205Y-94907172D01*
X123724205Y-94907172D02*
X123914681Y-94859553D01*
X123914681Y-94859553D02*
X124009920Y-94764315D01*
X124009920Y-94764315D02*
X124057539Y-94669077D01*
X124057539Y-94669077D02*
X124057539Y-94478601D01*
X124057539Y-94478601D02*
X124009920Y-94383363D01*
X124009920Y-94383363D02*
X123914681Y-94288125D01*
X123914681Y-94288125D02*
X123724205Y-94240506D01*
X123724205Y-94240506D02*
X123390872Y-94240506D01*
X123390872Y-94240506D02*
X123200396Y-94288125D01*
X123200396Y-94288125D02*
X123105158Y-94383363D01*
X123105158Y-94383363D02*
X123057539Y-94478601D01*
X123390872Y-95764315D02*
X124057539Y-95764315D01*
X123009920Y-95526220D02*
X123724205Y-95288125D01*
X123724205Y-95288125D02*
X123724205Y-95907172D01*
X123057539Y-96192887D02*
X123057539Y-96811934D01*
X123057539Y-96811934D02*
X123438491Y-96478601D01*
X123438491Y-96478601D02*
X123438491Y-96621458D01*
X123438491Y-96621458D02*
X123486110Y-96716696D01*
X123486110Y-96716696D02*
X123533729Y-96764315D01*
X123533729Y-96764315D02*
X123628967Y-96811934D01*
X123628967Y-96811934D02*
X123867062Y-96811934D01*
X123867062Y-96811934D02*
X123962300Y-96764315D01*
X123962300Y-96764315D02*
X124009920Y-96716696D01*
X124009920Y-96716696D02*
X124057539Y-96621458D01*
X124057539Y-96621458D02*
X124057539Y-96335744D01*
X124057539Y-96335744D02*
X124009920Y-96240506D01*
X124009920Y-96240506D02*
X123962300Y-96192887D01*
X123009920Y-97954791D02*
X124295634Y-97097649D01*
X123057539Y-98288125D02*
X123867062Y-98288125D01*
X123867062Y-98288125D02*
X123962300Y-98335744D01*
X123962300Y-98335744D02*
X124009920Y-98383363D01*
X124009920Y-98383363D02*
X124057539Y-98478601D01*
X124057539Y-98478601D02*
X124057539Y-98669077D01*
X124057539Y-98669077D02*
X124009920Y-98764315D01*
X124009920Y-98764315D02*
X123962300Y-98811934D01*
X123962300Y-98811934D02*
X123867062Y-98859553D01*
X123867062Y-98859553D02*
X123057539Y-98859553D01*
X123057539Y-99526220D02*
X123057539Y-99621458D01*
X123057539Y-99621458D02*
X123105158Y-99716696D01*
X123105158Y-99716696D02*
X123152777Y-99764315D01*
X123152777Y-99764315D02*
X123248015Y-99811934D01*
X123248015Y-99811934D02*
X123438491Y-99859553D01*
X123438491Y-99859553D02*
X123676586Y-99859553D01*
X123676586Y-99859553D02*
X123867062Y-99811934D01*
X123867062Y-99811934D02*
X123962300Y-99764315D01*
X123962300Y-99764315D02*
X124009920Y-99716696D01*
X124009920Y-99716696D02*
X124057539Y-99621458D01*
X124057539Y-99621458D02*
X124057539Y-99526220D01*
X124057539Y-99526220D02*
X124009920Y-99430982D01*
X124009920Y-99430982D02*
X123962300Y-99383363D01*
X123962300Y-99383363D02*
X123867062Y-99335744D01*
X123867062Y-99335744D02*
X123676586Y-99288125D01*
X123676586Y-99288125D02*
X123438491Y-99288125D01*
X123438491Y-99288125D02*
X123248015Y-99335744D01*
X123248015Y-99335744D02*
X123152777Y-99383363D01*
X123152777Y-99383363D02*
X123105158Y-99430982D01*
X123105158Y-99430982D02*
X123057539Y-99526220D01*
X123057539Y-100145268D02*
X123057539Y-100716696D01*
X124057539Y-100430982D02*
X123057539Y-100430982D01*
X123057539Y-100954792D02*
X124057539Y-101621458D01*
X123057539Y-101621458D02*
X124057539Y-100954792D01*
X124057539Y-102002411D02*
X123057539Y-102002411D01*
X123057539Y-102002411D02*
X123057539Y-102240506D01*
X123057539Y-102240506D02*
X123105158Y-102383363D01*
X123105158Y-102383363D02*
X123200396Y-102478601D01*
X123200396Y-102478601D02*
X123295634Y-102526220D01*
X123295634Y-102526220D02*
X123486110Y-102573839D01*
X123486110Y-102573839D02*
X123628967Y-102573839D01*
X123628967Y-102573839D02*
X123819443Y-102526220D01*
X123819443Y-102526220D02*
X123914681Y-102478601D01*
X123914681Y-102478601D02*
X124009920Y-102383363D01*
X124009920Y-102383363D02*
X124057539Y-102240506D01*
X124057539Y-102240506D02*
X124057539Y-102002411D01*
X158665158Y-83403588D02*
X158617539Y-83308350D01*
X158617539Y-83308350D02*
X158617539Y-83165493D01*
X158617539Y-83165493D02*
X158665158Y-83022636D01*
X158665158Y-83022636D02*
X158760396Y-82927398D01*
X158760396Y-82927398D02*
X158855634Y-82879779D01*
X158855634Y-82879779D02*
X159046110Y-82832160D01*
X159046110Y-82832160D02*
X159188967Y-82832160D01*
X159188967Y-82832160D02*
X159379443Y-82879779D01*
X159379443Y-82879779D02*
X159474681Y-82927398D01*
X159474681Y-82927398D02*
X159569920Y-83022636D01*
X159569920Y-83022636D02*
X159617539Y-83165493D01*
X159617539Y-83165493D02*
X159617539Y-83260731D01*
X159617539Y-83260731D02*
X159569920Y-83403588D01*
X159569920Y-83403588D02*
X159522300Y-83451207D01*
X159522300Y-83451207D02*
X159188967Y-83451207D01*
X159188967Y-83451207D02*
X159188967Y-83260731D01*
X159617539Y-83879779D02*
X158617539Y-83879779D01*
X158617539Y-83879779D02*
X158617539Y-84260731D01*
X158617539Y-84260731D02*
X158665158Y-84355969D01*
X158665158Y-84355969D02*
X158712777Y-84403588D01*
X158712777Y-84403588D02*
X158808015Y-84451207D01*
X158808015Y-84451207D02*
X158950872Y-84451207D01*
X158950872Y-84451207D02*
X159046110Y-84403588D01*
X159046110Y-84403588D02*
X159093729Y-84355969D01*
X159093729Y-84355969D02*
X159141348Y-84260731D01*
X159141348Y-84260731D02*
X159141348Y-83879779D01*
X159617539Y-84879779D02*
X158617539Y-84879779D01*
X158617539Y-85546445D02*
X158617539Y-85736921D01*
X158617539Y-85736921D02*
X158665158Y-85832159D01*
X158665158Y-85832159D02*
X158760396Y-85927397D01*
X158760396Y-85927397D02*
X158950872Y-85975016D01*
X158950872Y-85975016D02*
X159284205Y-85975016D01*
X159284205Y-85975016D02*
X159474681Y-85927397D01*
X159474681Y-85927397D02*
X159569920Y-85832159D01*
X159569920Y-85832159D02*
X159617539Y-85736921D01*
X159617539Y-85736921D02*
X159617539Y-85546445D01*
X159617539Y-85546445D02*
X159569920Y-85451207D01*
X159569920Y-85451207D02*
X159474681Y-85355969D01*
X159474681Y-85355969D02*
X159284205Y-85308350D01*
X159284205Y-85308350D02*
X158950872Y-85308350D01*
X158950872Y-85308350D02*
X158760396Y-85355969D01*
X158760396Y-85355969D02*
X158665158Y-85451207D01*
X158665158Y-85451207D02*
X158617539Y-85546445D01*
X159617539Y-86927397D02*
X159617539Y-86355969D01*
X159617539Y-86641683D02*
X158617539Y-86641683D01*
X158617539Y-86641683D02*
X158760396Y-86546445D01*
X158760396Y-86546445D02*
X158855634Y-86451207D01*
X158855634Y-86451207D02*
X158903253Y-86355969D01*
X158617539Y-87546445D02*
X158617539Y-87641683D01*
X158617539Y-87641683D02*
X158665158Y-87736921D01*
X158665158Y-87736921D02*
X158712777Y-87784540D01*
X158712777Y-87784540D02*
X158808015Y-87832159D01*
X158808015Y-87832159D02*
X158998491Y-87879778D01*
X158998491Y-87879778D02*
X159236586Y-87879778D01*
X159236586Y-87879778D02*
X159427062Y-87832159D01*
X159427062Y-87832159D02*
X159522300Y-87784540D01*
X159522300Y-87784540D02*
X159569920Y-87736921D01*
X159569920Y-87736921D02*
X159617539Y-87641683D01*
X159617539Y-87641683D02*
X159617539Y-87546445D01*
X159617539Y-87546445D02*
X159569920Y-87451207D01*
X159569920Y-87451207D02*
X159522300Y-87403588D01*
X159522300Y-87403588D02*
X159427062Y-87355969D01*
X159427062Y-87355969D02*
X159236586Y-87308350D01*
X159236586Y-87308350D02*
X158998491Y-87308350D01*
X158998491Y-87308350D02*
X158808015Y-87355969D01*
X158808015Y-87355969D02*
X158712777Y-87403588D01*
X158712777Y-87403588D02*
X158665158Y-87451207D01*
X158665158Y-87451207D02*
X158617539Y-87546445D01*
X133265158Y-93050030D02*
X133217539Y-92954792D01*
X133217539Y-92954792D02*
X133217539Y-92811935D01*
X133217539Y-92811935D02*
X133265158Y-92669078D01*
X133265158Y-92669078D02*
X133360396Y-92573840D01*
X133360396Y-92573840D02*
X133455634Y-92526221D01*
X133455634Y-92526221D02*
X133646110Y-92478602D01*
X133646110Y-92478602D02*
X133788967Y-92478602D01*
X133788967Y-92478602D02*
X133979443Y-92526221D01*
X133979443Y-92526221D02*
X134074681Y-92573840D01*
X134074681Y-92573840D02*
X134169920Y-92669078D01*
X134169920Y-92669078D02*
X134217539Y-92811935D01*
X134217539Y-92811935D02*
X134217539Y-92907173D01*
X134217539Y-92907173D02*
X134169920Y-93050030D01*
X134169920Y-93050030D02*
X134122300Y-93097649D01*
X134122300Y-93097649D02*
X133788967Y-93097649D01*
X133788967Y-93097649D02*
X133788967Y-92907173D01*
X134217539Y-93526221D02*
X133217539Y-93526221D01*
X133217539Y-93526221D02*
X133217539Y-93907173D01*
X133217539Y-93907173D02*
X133265158Y-94002411D01*
X133265158Y-94002411D02*
X133312777Y-94050030D01*
X133312777Y-94050030D02*
X133408015Y-94097649D01*
X133408015Y-94097649D02*
X133550872Y-94097649D01*
X133550872Y-94097649D02*
X133646110Y-94050030D01*
X133646110Y-94050030D02*
X133693729Y-94002411D01*
X133693729Y-94002411D02*
X133741348Y-93907173D01*
X133741348Y-93907173D02*
X133741348Y-93526221D01*
X134217539Y-94526221D02*
X133217539Y-94526221D01*
X133217539Y-95192887D02*
X133217539Y-95383363D01*
X133217539Y-95383363D02*
X133265158Y-95478601D01*
X133265158Y-95478601D02*
X133360396Y-95573839D01*
X133360396Y-95573839D02*
X133550872Y-95621458D01*
X133550872Y-95621458D02*
X133884205Y-95621458D01*
X133884205Y-95621458D02*
X134074681Y-95573839D01*
X134074681Y-95573839D02*
X134169920Y-95478601D01*
X134169920Y-95478601D02*
X134217539Y-95383363D01*
X134217539Y-95383363D02*
X134217539Y-95192887D01*
X134217539Y-95192887D02*
X134169920Y-95097649D01*
X134169920Y-95097649D02*
X134074681Y-95002411D01*
X134074681Y-95002411D02*
X133884205Y-94954792D01*
X133884205Y-94954792D02*
X133550872Y-94954792D01*
X133550872Y-94954792D02*
X133360396Y-95002411D01*
X133360396Y-95002411D02*
X133265158Y-95097649D01*
X133265158Y-95097649D02*
X133217539Y-95192887D01*
X133550872Y-96478601D02*
X134217539Y-96478601D01*
X133169920Y-96240506D02*
X133884205Y-96002411D01*
X133884205Y-96002411D02*
X133884205Y-96621458D01*
X133312777Y-96954792D02*
X133265158Y-97002411D01*
X133265158Y-97002411D02*
X133217539Y-97097649D01*
X133217539Y-97097649D02*
X133217539Y-97335744D01*
X133217539Y-97335744D02*
X133265158Y-97430982D01*
X133265158Y-97430982D02*
X133312777Y-97478601D01*
X133312777Y-97478601D02*
X133408015Y-97526220D01*
X133408015Y-97526220D02*
X133503253Y-97526220D01*
X133503253Y-97526220D02*
X133646110Y-97478601D01*
X133646110Y-97478601D02*
X134217539Y-96907173D01*
X134217539Y-96907173D02*
X134217539Y-97526220D01*
X133169920Y-98669077D02*
X134455634Y-97811935D01*
X134217539Y-99002411D02*
X133217539Y-99002411D01*
X133217539Y-99002411D02*
X133931824Y-99335744D01*
X133931824Y-99335744D02*
X133217539Y-99669077D01*
X133217539Y-99669077D02*
X134217539Y-99669077D01*
X133217539Y-100002411D02*
X133217539Y-100573839D01*
X134217539Y-100288125D02*
X133217539Y-100288125D01*
X134217539Y-100907173D02*
X133217539Y-100907173D01*
X133217539Y-100907173D02*
X133931824Y-101240506D01*
X133931824Y-101240506D02*
X133217539Y-101573839D01*
X133217539Y-101573839D02*
X134217539Y-101573839D01*
X134169920Y-102002411D02*
X134217539Y-102145268D01*
X134217539Y-102145268D02*
X134217539Y-102383363D01*
X134217539Y-102383363D02*
X134169920Y-102478601D01*
X134169920Y-102478601D02*
X134122300Y-102526220D01*
X134122300Y-102526220D02*
X134027062Y-102573839D01*
X134027062Y-102573839D02*
X133931824Y-102573839D01*
X133931824Y-102573839D02*
X133836586Y-102526220D01*
X133836586Y-102526220D02*
X133788967Y-102478601D01*
X133788967Y-102478601D02*
X133741348Y-102383363D01*
X133741348Y-102383363D02*
X133693729Y-102192887D01*
X133693729Y-102192887D02*
X133646110Y-102097649D01*
X133646110Y-102097649D02*
X133598491Y-102050030D01*
X133598491Y-102050030D02*
X133503253Y-102002411D01*
X133503253Y-102002411D02*
X133408015Y-102002411D01*
X133408015Y-102002411D02*
X133312777Y-102050030D01*
X133312777Y-102050030D02*
X133265158Y-102097649D01*
X133265158Y-102097649D02*
X133217539Y-102192887D01*
X133217539Y-102192887D02*
X133217539Y-102430982D01*
X133217539Y-102430982D02*
X133265158Y-102573839D01*
X145965158Y-83403588D02*
X145917539Y-83308350D01*
X145917539Y-83308350D02*
X145917539Y-83165493D01*
X145917539Y-83165493D02*
X145965158Y-83022636D01*
X145965158Y-83022636D02*
X146060396Y-82927398D01*
X146060396Y-82927398D02*
X146155634Y-82879779D01*
X146155634Y-82879779D02*
X146346110Y-82832160D01*
X146346110Y-82832160D02*
X146488967Y-82832160D01*
X146488967Y-82832160D02*
X146679443Y-82879779D01*
X146679443Y-82879779D02*
X146774681Y-82927398D01*
X146774681Y-82927398D02*
X146869920Y-83022636D01*
X146869920Y-83022636D02*
X146917539Y-83165493D01*
X146917539Y-83165493D02*
X146917539Y-83260731D01*
X146917539Y-83260731D02*
X146869920Y-83403588D01*
X146869920Y-83403588D02*
X146822300Y-83451207D01*
X146822300Y-83451207D02*
X146488967Y-83451207D01*
X146488967Y-83451207D02*
X146488967Y-83260731D01*
X146917539Y-83879779D02*
X145917539Y-83879779D01*
X145917539Y-83879779D02*
X145917539Y-84260731D01*
X145917539Y-84260731D02*
X145965158Y-84355969D01*
X145965158Y-84355969D02*
X146012777Y-84403588D01*
X146012777Y-84403588D02*
X146108015Y-84451207D01*
X146108015Y-84451207D02*
X146250872Y-84451207D01*
X146250872Y-84451207D02*
X146346110Y-84403588D01*
X146346110Y-84403588D02*
X146393729Y-84355969D01*
X146393729Y-84355969D02*
X146441348Y-84260731D01*
X146441348Y-84260731D02*
X146441348Y-83879779D01*
X146917539Y-84879779D02*
X145917539Y-84879779D01*
X145917539Y-85546445D02*
X145917539Y-85736921D01*
X145917539Y-85736921D02*
X145965158Y-85832159D01*
X145965158Y-85832159D02*
X146060396Y-85927397D01*
X146060396Y-85927397D02*
X146250872Y-85975016D01*
X146250872Y-85975016D02*
X146584205Y-85975016D01*
X146584205Y-85975016D02*
X146774681Y-85927397D01*
X146774681Y-85927397D02*
X146869920Y-85832159D01*
X146869920Y-85832159D02*
X146917539Y-85736921D01*
X146917539Y-85736921D02*
X146917539Y-85546445D01*
X146917539Y-85546445D02*
X146869920Y-85451207D01*
X146869920Y-85451207D02*
X146774681Y-85355969D01*
X146774681Y-85355969D02*
X146584205Y-85308350D01*
X146584205Y-85308350D02*
X146250872Y-85308350D01*
X146250872Y-85308350D02*
X146060396Y-85355969D01*
X146060396Y-85355969D02*
X145965158Y-85451207D01*
X145965158Y-85451207D02*
X145917539Y-85546445D01*
X146917539Y-86927397D02*
X146917539Y-86355969D01*
X146917539Y-86641683D02*
X145917539Y-86641683D01*
X145917539Y-86641683D02*
X146060396Y-86546445D01*
X146060396Y-86546445D02*
X146155634Y-86451207D01*
X146155634Y-86451207D02*
X146203253Y-86355969D01*
X146346110Y-87498826D02*
X146298491Y-87403588D01*
X146298491Y-87403588D02*
X146250872Y-87355969D01*
X146250872Y-87355969D02*
X146155634Y-87308350D01*
X146155634Y-87308350D02*
X146108015Y-87308350D01*
X146108015Y-87308350D02*
X146012777Y-87355969D01*
X146012777Y-87355969D02*
X145965158Y-87403588D01*
X145965158Y-87403588D02*
X145917539Y-87498826D01*
X145917539Y-87498826D02*
X145917539Y-87689302D01*
X145917539Y-87689302D02*
X145965158Y-87784540D01*
X145965158Y-87784540D02*
X146012777Y-87832159D01*
X146012777Y-87832159D02*
X146108015Y-87879778D01*
X146108015Y-87879778D02*
X146155634Y-87879778D01*
X146155634Y-87879778D02*
X146250872Y-87832159D01*
X146250872Y-87832159D02*
X146298491Y-87784540D01*
X146298491Y-87784540D02*
X146346110Y-87689302D01*
X146346110Y-87689302D02*
X146346110Y-87498826D01*
X146346110Y-87498826D02*
X146393729Y-87403588D01*
X146393729Y-87403588D02*
X146441348Y-87355969D01*
X146441348Y-87355969D02*
X146536586Y-87308350D01*
X146536586Y-87308350D02*
X146727062Y-87308350D01*
X146727062Y-87308350D02*
X146822300Y-87355969D01*
X146822300Y-87355969D02*
X146869920Y-87403588D01*
X146869920Y-87403588D02*
X146917539Y-87498826D01*
X146917539Y-87498826D02*
X146917539Y-87689302D01*
X146917539Y-87689302D02*
X146869920Y-87784540D01*
X146869920Y-87784540D02*
X146822300Y-87832159D01*
X146822300Y-87832159D02*
X146727062Y-87879778D01*
X146727062Y-87879778D02*
X146536586Y-87879778D01*
X146536586Y-87879778D02*
X146441348Y-87832159D01*
X146441348Y-87832159D02*
X146393729Y-87784540D01*
X146393729Y-87784540D02*
X146346110Y-87689302D01*
X143425158Y-98097649D02*
X143377539Y-98002411D01*
X143377539Y-98002411D02*
X143377539Y-97859554D01*
X143377539Y-97859554D02*
X143425158Y-97716697D01*
X143425158Y-97716697D02*
X143520396Y-97621459D01*
X143520396Y-97621459D02*
X143615634Y-97573840D01*
X143615634Y-97573840D02*
X143806110Y-97526221D01*
X143806110Y-97526221D02*
X143948967Y-97526221D01*
X143948967Y-97526221D02*
X144139443Y-97573840D01*
X144139443Y-97573840D02*
X144234681Y-97621459D01*
X144234681Y-97621459D02*
X144329920Y-97716697D01*
X144329920Y-97716697D02*
X144377539Y-97859554D01*
X144377539Y-97859554D02*
X144377539Y-97954792D01*
X144377539Y-97954792D02*
X144329920Y-98097649D01*
X144329920Y-98097649D02*
X144282300Y-98145268D01*
X144282300Y-98145268D02*
X143948967Y-98145268D01*
X143948967Y-98145268D02*
X143948967Y-97954792D01*
X144377539Y-98573840D02*
X143377539Y-98573840D01*
X143377539Y-98573840D02*
X143377539Y-98954792D01*
X143377539Y-98954792D02*
X143425158Y-99050030D01*
X143425158Y-99050030D02*
X143472777Y-99097649D01*
X143472777Y-99097649D02*
X143568015Y-99145268D01*
X143568015Y-99145268D02*
X143710872Y-99145268D01*
X143710872Y-99145268D02*
X143806110Y-99097649D01*
X143806110Y-99097649D02*
X143853729Y-99050030D01*
X143853729Y-99050030D02*
X143901348Y-98954792D01*
X143901348Y-98954792D02*
X143901348Y-98573840D01*
X144377539Y-99573840D02*
X143377539Y-99573840D01*
X143377539Y-100240506D02*
X143377539Y-100430982D01*
X143377539Y-100430982D02*
X143425158Y-100526220D01*
X143425158Y-100526220D02*
X143520396Y-100621458D01*
X143520396Y-100621458D02*
X143710872Y-100669077D01*
X143710872Y-100669077D02*
X144044205Y-100669077D01*
X144044205Y-100669077D02*
X144234681Y-100621458D01*
X144234681Y-100621458D02*
X144329920Y-100526220D01*
X144329920Y-100526220D02*
X144377539Y-100430982D01*
X144377539Y-100430982D02*
X144377539Y-100240506D01*
X144377539Y-100240506D02*
X144329920Y-100145268D01*
X144329920Y-100145268D02*
X144234681Y-100050030D01*
X144234681Y-100050030D02*
X144044205Y-100002411D01*
X144044205Y-100002411D02*
X143710872Y-100002411D01*
X143710872Y-100002411D02*
X143520396Y-100050030D01*
X143520396Y-100050030D02*
X143425158Y-100145268D01*
X143425158Y-100145268D02*
X143377539Y-100240506D01*
X143377539Y-101002411D02*
X143377539Y-101621458D01*
X143377539Y-101621458D02*
X143758491Y-101288125D01*
X143758491Y-101288125D02*
X143758491Y-101430982D01*
X143758491Y-101430982D02*
X143806110Y-101526220D01*
X143806110Y-101526220D02*
X143853729Y-101573839D01*
X143853729Y-101573839D02*
X143948967Y-101621458D01*
X143948967Y-101621458D02*
X144187062Y-101621458D01*
X144187062Y-101621458D02*
X144282300Y-101573839D01*
X144282300Y-101573839D02*
X144329920Y-101526220D01*
X144329920Y-101526220D02*
X144377539Y-101430982D01*
X144377539Y-101430982D02*
X144377539Y-101145268D01*
X144377539Y-101145268D02*
X144329920Y-101050030D01*
X144329920Y-101050030D02*
X144282300Y-101002411D01*
X143806110Y-102192887D02*
X143758491Y-102097649D01*
X143758491Y-102097649D02*
X143710872Y-102050030D01*
X143710872Y-102050030D02*
X143615634Y-102002411D01*
X143615634Y-102002411D02*
X143568015Y-102002411D01*
X143568015Y-102002411D02*
X143472777Y-102050030D01*
X143472777Y-102050030D02*
X143425158Y-102097649D01*
X143425158Y-102097649D02*
X143377539Y-102192887D01*
X143377539Y-102192887D02*
X143377539Y-102383363D01*
X143377539Y-102383363D02*
X143425158Y-102478601D01*
X143425158Y-102478601D02*
X143472777Y-102526220D01*
X143472777Y-102526220D02*
X143568015Y-102573839D01*
X143568015Y-102573839D02*
X143615634Y-102573839D01*
X143615634Y-102573839D02*
X143710872Y-102526220D01*
X143710872Y-102526220D02*
X143758491Y-102478601D01*
X143758491Y-102478601D02*
X143806110Y-102383363D01*
X143806110Y-102383363D02*
X143806110Y-102192887D01*
X143806110Y-102192887D02*
X143853729Y-102097649D01*
X143853729Y-102097649D02*
X143901348Y-102050030D01*
X143901348Y-102050030D02*
X143996586Y-102002411D01*
X143996586Y-102002411D02*
X144187062Y-102002411D01*
X144187062Y-102002411D02*
X144282300Y-102050030D01*
X144282300Y-102050030D02*
X144329920Y-102097649D01*
X144329920Y-102097649D02*
X144377539Y-102192887D01*
X144377539Y-102192887D02*
X144377539Y-102383363D01*
X144377539Y-102383363D02*
X144329920Y-102478601D01*
X144329920Y-102478601D02*
X144282300Y-102526220D01*
X144282300Y-102526220D02*
X144187062Y-102573839D01*
X144187062Y-102573839D02*
X143996586Y-102573839D01*
X143996586Y-102573839D02*
X143901348Y-102526220D01*
X143901348Y-102526220D02*
X143853729Y-102478601D01*
X143853729Y-102478601D02*
X143806110Y-102383363D01*
X156125158Y-83403588D02*
X156077539Y-83308350D01*
X156077539Y-83308350D02*
X156077539Y-83165493D01*
X156077539Y-83165493D02*
X156125158Y-83022636D01*
X156125158Y-83022636D02*
X156220396Y-82927398D01*
X156220396Y-82927398D02*
X156315634Y-82879779D01*
X156315634Y-82879779D02*
X156506110Y-82832160D01*
X156506110Y-82832160D02*
X156648967Y-82832160D01*
X156648967Y-82832160D02*
X156839443Y-82879779D01*
X156839443Y-82879779D02*
X156934681Y-82927398D01*
X156934681Y-82927398D02*
X157029920Y-83022636D01*
X157029920Y-83022636D02*
X157077539Y-83165493D01*
X157077539Y-83165493D02*
X157077539Y-83260731D01*
X157077539Y-83260731D02*
X157029920Y-83403588D01*
X157029920Y-83403588D02*
X156982300Y-83451207D01*
X156982300Y-83451207D02*
X156648967Y-83451207D01*
X156648967Y-83451207D02*
X156648967Y-83260731D01*
X157077539Y-83879779D02*
X156077539Y-83879779D01*
X156077539Y-83879779D02*
X156077539Y-84260731D01*
X156077539Y-84260731D02*
X156125158Y-84355969D01*
X156125158Y-84355969D02*
X156172777Y-84403588D01*
X156172777Y-84403588D02*
X156268015Y-84451207D01*
X156268015Y-84451207D02*
X156410872Y-84451207D01*
X156410872Y-84451207D02*
X156506110Y-84403588D01*
X156506110Y-84403588D02*
X156553729Y-84355969D01*
X156553729Y-84355969D02*
X156601348Y-84260731D01*
X156601348Y-84260731D02*
X156601348Y-83879779D01*
X157077539Y-84879779D02*
X156077539Y-84879779D01*
X156077539Y-85546445D02*
X156077539Y-85736921D01*
X156077539Y-85736921D02*
X156125158Y-85832159D01*
X156125158Y-85832159D02*
X156220396Y-85927397D01*
X156220396Y-85927397D02*
X156410872Y-85975016D01*
X156410872Y-85975016D02*
X156744205Y-85975016D01*
X156744205Y-85975016D02*
X156934681Y-85927397D01*
X156934681Y-85927397D02*
X157029920Y-85832159D01*
X157029920Y-85832159D02*
X157077539Y-85736921D01*
X157077539Y-85736921D02*
X157077539Y-85546445D01*
X157077539Y-85546445D02*
X157029920Y-85451207D01*
X157029920Y-85451207D02*
X156934681Y-85355969D01*
X156934681Y-85355969D02*
X156744205Y-85308350D01*
X156744205Y-85308350D02*
X156410872Y-85308350D01*
X156410872Y-85308350D02*
X156220396Y-85355969D01*
X156220396Y-85355969D02*
X156125158Y-85451207D01*
X156125158Y-85451207D02*
X156077539Y-85546445D01*
X157077539Y-86451207D02*
X157077539Y-86641683D01*
X157077539Y-86641683D02*
X157029920Y-86736921D01*
X157029920Y-86736921D02*
X156982300Y-86784540D01*
X156982300Y-86784540D02*
X156839443Y-86879778D01*
X156839443Y-86879778D02*
X156648967Y-86927397D01*
X156648967Y-86927397D02*
X156268015Y-86927397D01*
X156268015Y-86927397D02*
X156172777Y-86879778D01*
X156172777Y-86879778D02*
X156125158Y-86832159D01*
X156125158Y-86832159D02*
X156077539Y-86736921D01*
X156077539Y-86736921D02*
X156077539Y-86546445D01*
X156077539Y-86546445D02*
X156125158Y-86451207D01*
X156125158Y-86451207D02*
X156172777Y-86403588D01*
X156172777Y-86403588D02*
X156268015Y-86355969D01*
X156268015Y-86355969D02*
X156506110Y-86355969D01*
X156506110Y-86355969D02*
X156601348Y-86403588D01*
X156601348Y-86403588D02*
X156648967Y-86451207D01*
X156648967Y-86451207D02*
X156696586Y-86546445D01*
X156696586Y-86546445D02*
X156696586Y-86736921D01*
X156696586Y-86736921D02*
X156648967Y-86832159D01*
X156648967Y-86832159D02*
X156601348Y-86879778D01*
X156601348Y-86879778D02*
X156506110Y-86927397D01*
X125645158Y-92097649D02*
X125597539Y-92002411D01*
X125597539Y-92002411D02*
X125597539Y-91859554D01*
X125597539Y-91859554D02*
X125645158Y-91716697D01*
X125645158Y-91716697D02*
X125740396Y-91621459D01*
X125740396Y-91621459D02*
X125835634Y-91573840D01*
X125835634Y-91573840D02*
X126026110Y-91526221D01*
X126026110Y-91526221D02*
X126168967Y-91526221D01*
X126168967Y-91526221D02*
X126359443Y-91573840D01*
X126359443Y-91573840D02*
X126454681Y-91621459D01*
X126454681Y-91621459D02*
X126549920Y-91716697D01*
X126549920Y-91716697D02*
X126597539Y-91859554D01*
X126597539Y-91859554D02*
X126597539Y-91954792D01*
X126597539Y-91954792D02*
X126549920Y-92097649D01*
X126549920Y-92097649D02*
X126502300Y-92145268D01*
X126502300Y-92145268D02*
X126168967Y-92145268D01*
X126168967Y-92145268D02*
X126168967Y-91954792D01*
X126597539Y-92573840D02*
X125597539Y-92573840D01*
X125597539Y-92573840D02*
X125597539Y-92954792D01*
X125597539Y-92954792D02*
X125645158Y-93050030D01*
X125645158Y-93050030D02*
X125692777Y-93097649D01*
X125692777Y-93097649D02*
X125788015Y-93145268D01*
X125788015Y-93145268D02*
X125930872Y-93145268D01*
X125930872Y-93145268D02*
X126026110Y-93097649D01*
X126026110Y-93097649D02*
X126073729Y-93050030D01*
X126073729Y-93050030D02*
X126121348Y-92954792D01*
X126121348Y-92954792D02*
X126121348Y-92573840D01*
X126597539Y-93573840D02*
X125597539Y-93573840D01*
X125597539Y-94240506D02*
X125597539Y-94430982D01*
X125597539Y-94430982D02*
X125645158Y-94526220D01*
X125645158Y-94526220D02*
X125740396Y-94621458D01*
X125740396Y-94621458D02*
X125930872Y-94669077D01*
X125930872Y-94669077D02*
X126264205Y-94669077D01*
X126264205Y-94669077D02*
X126454681Y-94621458D01*
X126454681Y-94621458D02*
X126549920Y-94526220D01*
X126549920Y-94526220D02*
X126597539Y-94430982D01*
X126597539Y-94430982D02*
X126597539Y-94240506D01*
X126597539Y-94240506D02*
X126549920Y-94145268D01*
X126549920Y-94145268D02*
X126454681Y-94050030D01*
X126454681Y-94050030D02*
X126264205Y-94002411D01*
X126264205Y-94002411D02*
X125930872Y-94002411D01*
X125930872Y-94002411D02*
X125740396Y-94050030D01*
X125740396Y-94050030D02*
X125645158Y-94145268D01*
X125645158Y-94145268D02*
X125597539Y-94240506D01*
X125930872Y-95526220D02*
X126597539Y-95526220D01*
X125549920Y-95288125D02*
X126264205Y-95050030D01*
X126264205Y-95050030D02*
X126264205Y-95669077D01*
X125930872Y-96478601D02*
X126597539Y-96478601D01*
X125549920Y-96240506D02*
X126264205Y-96002411D01*
X126264205Y-96002411D02*
X126264205Y-96621458D01*
X125549920Y-97716696D02*
X126835634Y-96859554D01*
X125597539Y-98050030D02*
X126407062Y-98050030D01*
X126407062Y-98050030D02*
X126502300Y-98097649D01*
X126502300Y-98097649D02*
X126549920Y-98145268D01*
X126549920Y-98145268D02*
X126597539Y-98240506D01*
X126597539Y-98240506D02*
X126597539Y-98430982D01*
X126597539Y-98430982D02*
X126549920Y-98526220D01*
X126549920Y-98526220D02*
X126502300Y-98573839D01*
X126502300Y-98573839D02*
X126407062Y-98621458D01*
X126407062Y-98621458D02*
X125597539Y-98621458D01*
X125597539Y-99288125D02*
X125597539Y-99383363D01*
X125597539Y-99383363D02*
X125645158Y-99478601D01*
X125645158Y-99478601D02*
X125692777Y-99526220D01*
X125692777Y-99526220D02*
X125788015Y-99573839D01*
X125788015Y-99573839D02*
X125978491Y-99621458D01*
X125978491Y-99621458D02*
X126216586Y-99621458D01*
X126216586Y-99621458D02*
X126407062Y-99573839D01*
X126407062Y-99573839D02*
X126502300Y-99526220D01*
X126502300Y-99526220D02*
X126549920Y-99478601D01*
X126549920Y-99478601D02*
X126597539Y-99383363D01*
X126597539Y-99383363D02*
X126597539Y-99288125D01*
X126597539Y-99288125D02*
X126549920Y-99192887D01*
X126549920Y-99192887D02*
X126502300Y-99145268D01*
X126502300Y-99145268D02*
X126407062Y-99097649D01*
X126407062Y-99097649D02*
X126216586Y-99050030D01*
X126216586Y-99050030D02*
X125978491Y-99050030D01*
X125978491Y-99050030D02*
X125788015Y-99097649D01*
X125788015Y-99097649D02*
X125692777Y-99145268D01*
X125692777Y-99145268D02*
X125645158Y-99192887D01*
X125645158Y-99192887D02*
X125597539Y-99288125D01*
X126597539Y-100621458D02*
X126121348Y-100288125D01*
X126597539Y-100050030D02*
X125597539Y-100050030D01*
X125597539Y-100050030D02*
X125597539Y-100430982D01*
X125597539Y-100430982D02*
X125645158Y-100526220D01*
X125645158Y-100526220D02*
X125692777Y-100573839D01*
X125692777Y-100573839D02*
X125788015Y-100621458D01*
X125788015Y-100621458D02*
X125930872Y-100621458D01*
X125930872Y-100621458D02*
X126026110Y-100573839D01*
X126026110Y-100573839D02*
X126073729Y-100526220D01*
X126073729Y-100526220D02*
X126121348Y-100430982D01*
X126121348Y-100430982D02*
X126121348Y-100050030D01*
X125597539Y-100954792D02*
X126597539Y-101621458D01*
X125597539Y-101621458D02*
X126597539Y-100954792D01*
X126597539Y-102002411D02*
X125597539Y-102002411D01*
X125597539Y-102002411D02*
X125597539Y-102240506D01*
X125597539Y-102240506D02*
X125645158Y-102383363D01*
X125645158Y-102383363D02*
X125740396Y-102478601D01*
X125740396Y-102478601D02*
X125835634Y-102526220D01*
X125835634Y-102526220D02*
X126026110Y-102573839D01*
X126026110Y-102573839D02*
X126168967Y-102573839D01*
X126168967Y-102573839D02*
X126359443Y-102526220D01*
X126359443Y-102526220D02*
X126454681Y-102478601D01*
X126454681Y-102478601D02*
X126549920Y-102383363D01*
X126549920Y-102383363D02*
X126597539Y-102240506D01*
X126597539Y-102240506D02*
X126597539Y-102002411D01*
X161205158Y-98097649D02*
X161157539Y-98002411D01*
X161157539Y-98002411D02*
X161157539Y-97859554D01*
X161157539Y-97859554D02*
X161205158Y-97716697D01*
X161205158Y-97716697D02*
X161300396Y-97621459D01*
X161300396Y-97621459D02*
X161395634Y-97573840D01*
X161395634Y-97573840D02*
X161586110Y-97526221D01*
X161586110Y-97526221D02*
X161728967Y-97526221D01*
X161728967Y-97526221D02*
X161919443Y-97573840D01*
X161919443Y-97573840D02*
X162014681Y-97621459D01*
X162014681Y-97621459D02*
X162109920Y-97716697D01*
X162109920Y-97716697D02*
X162157539Y-97859554D01*
X162157539Y-97859554D02*
X162157539Y-97954792D01*
X162157539Y-97954792D02*
X162109920Y-98097649D01*
X162109920Y-98097649D02*
X162062300Y-98145268D01*
X162062300Y-98145268D02*
X161728967Y-98145268D01*
X161728967Y-98145268D02*
X161728967Y-97954792D01*
X162157539Y-98573840D02*
X161157539Y-98573840D01*
X161157539Y-98573840D02*
X161157539Y-98954792D01*
X161157539Y-98954792D02*
X161205158Y-99050030D01*
X161205158Y-99050030D02*
X161252777Y-99097649D01*
X161252777Y-99097649D02*
X161348015Y-99145268D01*
X161348015Y-99145268D02*
X161490872Y-99145268D01*
X161490872Y-99145268D02*
X161586110Y-99097649D01*
X161586110Y-99097649D02*
X161633729Y-99050030D01*
X161633729Y-99050030D02*
X161681348Y-98954792D01*
X161681348Y-98954792D02*
X161681348Y-98573840D01*
X162157539Y-99573840D02*
X161157539Y-99573840D01*
X161157539Y-100240506D02*
X161157539Y-100430982D01*
X161157539Y-100430982D02*
X161205158Y-100526220D01*
X161205158Y-100526220D02*
X161300396Y-100621458D01*
X161300396Y-100621458D02*
X161490872Y-100669077D01*
X161490872Y-100669077D02*
X161824205Y-100669077D01*
X161824205Y-100669077D02*
X162014681Y-100621458D01*
X162014681Y-100621458D02*
X162109920Y-100526220D01*
X162109920Y-100526220D02*
X162157539Y-100430982D01*
X162157539Y-100430982D02*
X162157539Y-100240506D01*
X162157539Y-100240506D02*
X162109920Y-100145268D01*
X162109920Y-100145268D02*
X162014681Y-100050030D01*
X162014681Y-100050030D02*
X161824205Y-100002411D01*
X161824205Y-100002411D02*
X161490872Y-100002411D01*
X161490872Y-100002411D02*
X161300396Y-100050030D01*
X161300396Y-100050030D02*
X161205158Y-100145268D01*
X161205158Y-100145268D02*
X161157539Y-100240506D01*
X161490872Y-101526220D02*
X162157539Y-101526220D01*
X161109920Y-101288125D02*
X161824205Y-101050030D01*
X161824205Y-101050030D02*
X161824205Y-101669077D01*
X161157539Y-101954792D02*
X161157539Y-102621458D01*
X161157539Y-102621458D02*
X162157539Y-102192887D01*
X151045158Y-83403588D02*
X150997539Y-83308350D01*
X150997539Y-83308350D02*
X150997539Y-83165493D01*
X150997539Y-83165493D02*
X151045158Y-83022636D01*
X151045158Y-83022636D02*
X151140396Y-82927398D01*
X151140396Y-82927398D02*
X151235634Y-82879779D01*
X151235634Y-82879779D02*
X151426110Y-82832160D01*
X151426110Y-82832160D02*
X151568967Y-82832160D01*
X151568967Y-82832160D02*
X151759443Y-82879779D01*
X151759443Y-82879779D02*
X151854681Y-82927398D01*
X151854681Y-82927398D02*
X151949920Y-83022636D01*
X151949920Y-83022636D02*
X151997539Y-83165493D01*
X151997539Y-83165493D02*
X151997539Y-83260731D01*
X151997539Y-83260731D02*
X151949920Y-83403588D01*
X151949920Y-83403588D02*
X151902300Y-83451207D01*
X151902300Y-83451207D02*
X151568967Y-83451207D01*
X151568967Y-83451207D02*
X151568967Y-83260731D01*
X151997539Y-83879779D02*
X150997539Y-83879779D01*
X150997539Y-83879779D02*
X150997539Y-84260731D01*
X150997539Y-84260731D02*
X151045158Y-84355969D01*
X151045158Y-84355969D02*
X151092777Y-84403588D01*
X151092777Y-84403588D02*
X151188015Y-84451207D01*
X151188015Y-84451207D02*
X151330872Y-84451207D01*
X151330872Y-84451207D02*
X151426110Y-84403588D01*
X151426110Y-84403588D02*
X151473729Y-84355969D01*
X151473729Y-84355969D02*
X151521348Y-84260731D01*
X151521348Y-84260731D02*
X151521348Y-83879779D01*
X151997539Y-84879779D02*
X150997539Y-84879779D01*
X150997539Y-85546445D02*
X150997539Y-85736921D01*
X150997539Y-85736921D02*
X151045158Y-85832159D01*
X151045158Y-85832159D02*
X151140396Y-85927397D01*
X151140396Y-85927397D02*
X151330872Y-85975016D01*
X151330872Y-85975016D02*
X151664205Y-85975016D01*
X151664205Y-85975016D02*
X151854681Y-85927397D01*
X151854681Y-85927397D02*
X151949920Y-85832159D01*
X151949920Y-85832159D02*
X151997539Y-85736921D01*
X151997539Y-85736921D02*
X151997539Y-85546445D01*
X151997539Y-85546445D02*
X151949920Y-85451207D01*
X151949920Y-85451207D02*
X151854681Y-85355969D01*
X151854681Y-85355969D02*
X151664205Y-85308350D01*
X151664205Y-85308350D02*
X151330872Y-85308350D01*
X151330872Y-85308350D02*
X151140396Y-85355969D01*
X151140396Y-85355969D02*
X151045158Y-85451207D01*
X151045158Y-85451207D02*
X150997539Y-85546445D01*
X150997539Y-86308350D02*
X150997539Y-86927397D01*
X150997539Y-86927397D02*
X151378491Y-86594064D01*
X151378491Y-86594064D02*
X151378491Y-86736921D01*
X151378491Y-86736921D02*
X151426110Y-86832159D01*
X151426110Y-86832159D02*
X151473729Y-86879778D01*
X151473729Y-86879778D02*
X151568967Y-86927397D01*
X151568967Y-86927397D02*
X151807062Y-86927397D01*
X151807062Y-86927397D02*
X151902300Y-86879778D01*
X151902300Y-86879778D02*
X151949920Y-86832159D01*
X151949920Y-86832159D02*
X151997539Y-86736921D01*
X151997539Y-86736921D02*
X151997539Y-86451207D01*
X151997539Y-86451207D02*
X151949920Y-86355969D01*
X151949920Y-86355969D02*
X151902300Y-86308350D01*
X140885158Y-83403588D02*
X140837539Y-83308350D01*
X140837539Y-83308350D02*
X140837539Y-83165493D01*
X140837539Y-83165493D02*
X140885158Y-83022636D01*
X140885158Y-83022636D02*
X140980396Y-82927398D01*
X140980396Y-82927398D02*
X141075634Y-82879779D01*
X141075634Y-82879779D02*
X141266110Y-82832160D01*
X141266110Y-82832160D02*
X141408967Y-82832160D01*
X141408967Y-82832160D02*
X141599443Y-82879779D01*
X141599443Y-82879779D02*
X141694681Y-82927398D01*
X141694681Y-82927398D02*
X141789920Y-83022636D01*
X141789920Y-83022636D02*
X141837539Y-83165493D01*
X141837539Y-83165493D02*
X141837539Y-83260731D01*
X141837539Y-83260731D02*
X141789920Y-83403588D01*
X141789920Y-83403588D02*
X141742300Y-83451207D01*
X141742300Y-83451207D02*
X141408967Y-83451207D01*
X141408967Y-83451207D02*
X141408967Y-83260731D01*
X141837539Y-83879779D02*
X140837539Y-83879779D01*
X140837539Y-83879779D02*
X140837539Y-84260731D01*
X140837539Y-84260731D02*
X140885158Y-84355969D01*
X140885158Y-84355969D02*
X140932777Y-84403588D01*
X140932777Y-84403588D02*
X141028015Y-84451207D01*
X141028015Y-84451207D02*
X141170872Y-84451207D01*
X141170872Y-84451207D02*
X141266110Y-84403588D01*
X141266110Y-84403588D02*
X141313729Y-84355969D01*
X141313729Y-84355969D02*
X141361348Y-84260731D01*
X141361348Y-84260731D02*
X141361348Y-83879779D01*
X141837539Y-84879779D02*
X140837539Y-84879779D01*
X140837539Y-85546445D02*
X140837539Y-85736921D01*
X140837539Y-85736921D02*
X140885158Y-85832159D01*
X140885158Y-85832159D02*
X140980396Y-85927397D01*
X140980396Y-85927397D02*
X141170872Y-85975016D01*
X141170872Y-85975016D02*
X141504205Y-85975016D01*
X141504205Y-85975016D02*
X141694681Y-85927397D01*
X141694681Y-85927397D02*
X141789920Y-85832159D01*
X141789920Y-85832159D02*
X141837539Y-85736921D01*
X141837539Y-85736921D02*
X141837539Y-85546445D01*
X141837539Y-85546445D02*
X141789920Y-85451207D01*
X141789920Y-85451207D02*
X141694681Y-85355969D01*
X141694681Y-85355969D02*
X141504205Y-85308350D01*
X141504205Y-85308350D02*
X141170872Y-85308350D01*
X141170872Y-85308350D02*
X140980396Y-85355969D01*
X140980396Y-85355969D02*
X140885158Y-85451207D01*
X140885158Y-85451207D02*
X140837539Y-85546445D01*
X141837539Y-86927397D02*
X141837539Y-86355969D01*
X141837539Y-86641683D02*
X140837539Y-86641683D01*
X140837539Y-86641683D02*
X140980396Y-86546445D01*
X140980396Y-86546445D02*
X141075634Y-86451207D01*
X141075634Y-86451207D02*
X141123253Y-86355969D01*
X140837539Y-87784540D02*
X140837539Y-87594064D01*
X140837539Y-87594064D02*
X140885158Y-87498826D01*
X140885158Y-87498826D02*
X140932777Y-87451207D01*
X140932777Y-87451207D02*
X141075634Y-87355969D01*
X141075634Y-87355969D02*
X141266110Y-87308350D01*
X141266110Y-87308350D02*
X141647062Y-87308350D01*
X141647062Y-87308350D02*
X141742300Y-87355969D01*
X141742300Y-87355969D02*
X141789920Y-87403588D01*
X141789920Y-87403588D02*
X141837539Y-87498826D01*
X141837539Y-87498826D02*
X141837539Y-87689302D01*
X141837539Y-87689302D02*
X141789920Y-87784540D01*
X141789920Y-87784540D02*
X141742300Y-87832159D01*
X141742300Y-87832159D02*
X141647062Y-87879778D01*
X141647062Y-87879778D02*
X141408967Y-87879778D01*
X141408967Y-87879778D02*
X141313729Y-87832159D01*
X141313729Y-87832159D02*
X141266110Y-87784540D01*
X141266110Y-87784540D02*
X141218491Y-87689302D01*
X141218491Y-87689302D02*
X141218491Y-87498826D01*
X141218491Y-87498826D02*
X141266110Y-87403588D01*
X141266110Y-87403588D02*
X141313729Y-87355969D01*
X141313729Y-87355969D02*
X141408967Y-87308350D01*
X145965158Y-98097649D02*
X145917539Y-98002411D01*
X145917539Y-98002411D02*
X145917539Y-97859554D01*
X145917539Y-97859554D02*
X145965158Y-97716697D01*
X145965158Y-97716697D02*
X146060396Y-97621459D01*
X146060396Y-97621459D02*
X146155634Y-97573840D01*
X146155634Y-97573840D02*
X146346110Y-97526221D01*
X146346110Y-97526221D02*
X146488967Y-97526221D01*
X146488967Y-97526221D02*
X146679443Y-97573840D01*
X146679443Y-97573840D02*
X146774681Y-97621459D01*
X146774681Y-97621459D02*
X146869920Y-97716697D01*
X146869920Y-97716697D02*
X146917539Y-97859554D01*
X146917539Y-97859554D02*
X146917539Y-97954792D01*
X146917539Y-97954792D02*
X146869920Y-98097649D01*
X146869920Y-98097649D02*
X146822300Y-98145268D01*
X146822300Y-98145268D02*
X146488967Y-98145268D01*
X146488967Y-98145268D02*
X146488967Y-97954792D01*
X146917539Y-98573840D02*
X145917539Y-98573840D01*
X145917539Y-98573840D02*
X145917539Y-98954792D01*
X145917539Y-98954792D02*
X145965158Y-99050030D01*
X145965158Y-99050030D02*
X146012777Y-99097649D01*
X146012777Y-99097649D02*
X146108015Y-99145268D01*
X146108015Y-99145268D02*
X146250872Y-99145268D01*
X146250872Y-99145268D02*
X146346110Y-99097649D01*
X146346110Y-99097649D02*
X146393729Y-99050030D01*
X146393729Y-99050030D02*
X146441348Y-98954792D01*
X146441348Y-98954792D02*
X146441348Y-98573840D01*
X146917539Y-99573840D02*
X145917539Y-99573840D01*
X145917539Y-100240506D02*
X145917539Y-100430982D01*
X145917539Y-100430982D02*
X145965158Y-100526220D01*
X145965158Y-100526220D02*
X146060396Y-100621458D01*
X146060396Y-100621458D02*
X146250872Y-100669077D01*
X146250872Y-100669077D02*
X146584205Y-100669077D01*
X146584205Y-100669077D02*
X146774681Y-100621458D01*
X146774681Y-100621458D02*
X146869920Y-100526220D01*
X146869920Y-100526220D02*
X146917539Y-100430982D01*
X146917539Y-100430982D02*
X146917539Y-100240506D01*
X146917539Y-100240506D02*
X146869920Y-100145268D01*
X146869920Y-100145268D02*
X146774681Y-100050030D01*
X146774681Y-100050030D02*
X146584205Y-100002411D01*
X146584205Y-100002411D02*
X146250872Y-100002411D01*
X146250872Y-100002411D02*
X146060396Y-100050030D01*
X146060396Y-100050030D02*
X145965158Y-100145268D01*
X145965158Y-100145268D02*
X145917539Y-100240506D01*
X145917539Y-101002411D02*
X145917539Y-101621458D01*
X145917539Y-101621458D02*
X146298491Y-101288125D01*
X146298491Y-101288125D02*
X146298491Y-101430982D01*
X146298491Y-101430982D02*
X146346110Y-101526220D01*
X146346110Y-101526220D02*
X146393729Y-101573839D01*
X146393729Y-101573839D02*
X146488967Y-101621458D01*
X146488967Y-101621458D02*
X146727062Y-101621458D01*
X146727062Y-101621458D02*
X146822300Y-101573839D01*
X146822300Y-101573839D02*
X146869920Y-101526220D01*
X146869920Y-101526220D02*
X146917539Y-101430982D01*
X146917539Y-101430982D02*
X146917539Y-101145268D01*
X146917539Y-101145268D02*
X146869920Y-101050030D01*
X146869920Y-101050030D02*
X146822300Y-101002411D01*
X145917539Y-101954792D02*
X145917539Y-102621458D01*
X145917539Y-102621458D02*
X146917539Y-102192887D01*
X138345158Y-93097649D02*
X138297539Y-93002411D01*
X138297539Y-93002411D02*
X138297539Y-92859554D01*
X138297539Y-92859554D02*
X138345158Y-92716697D01*
X138345158Y-92716697D02*
X138440396Y-92621459D01*
X138440396Y-92621459D02*
X138535634Y-92573840D01*
X138535634Y-92573840D02*
X138726110Y-92526221D01*
X138726110Y-92526221D02*
X138868967Y-92526221D01*
X138868967Y-92526221D02*
X139059443Y-92573840D01*
X139059443Y-92573840D02*
X139154681Y-92621459D01*
X139154681Y-92621459D02*
X139249920Y-92716697D01*
X139249920Y-92716697D02*
X139297539Y-92859554D01*
X139297539Y-92859554D02*
X139297539Y-92954792D01*
X139297539Y-92954792D02*
X139249920Y-93097649D01*
X139249920Y-93097649D02*
X139202300Y-93145268D01*
X139202300Y-93145268D02*
X138868967Y-93145268D01*
X138868967Y-93145268D02*
X138868967Y-92954792D01*
X139297539Y-93573840D02*
X138297539Y-93573840D01*
X138297539Y-93573840D02*
X138297539Y-93954792D01*
X138297539Y-93954792D02*
X138345158Y-94050030D01*
X138345158Y-94050030D02*
X138392777Y-94097649D01*
X138392777Y-94097649D02*
X138488015Y-94145268D01*
X138488015Y-94145268D02*
X138630872Y-94145268D01*
X138630872Y-94145268D02*
X138726110Y-94097649D01*
X138726110Y-94097649D02*
X138773729Y-94050030D01*
X138773729Y-94050030D02*
X138821348Y-93954792D01*
X138821348Y-93954792D02*
X138821348Y-93573840D01*
X139297539Y-94573840D02*
X138297539Y-94573840D01*
X138297539Y-95240506D02*
X138297539Y-95430982D01*
X138297539Y-95430982D02*
X138345158Y-95526220D01*
X138345158Y-95526220D02*
X138440396Y-95621458D01*
X138440396Y-95621458D02*
X138630872Y-95669077D01*
X138630872Y-95669077D02*
X138964205Y-95669077D01*
X138964205Y-95669077D02*
X139154681Y-95621458D01*
X139154681Y-95621458D02*
X139249920Y-95526220D01*
X139249920Y-95526220D02*
X139297539Y-95430982D01*
X139297539Y-95430982D02*
X139297539Y-95240506D01*
X139297539Y-95240506D02*
X139249920Y-95145268D01*
X139249920Y-95145268D02*
X139154681Y-95050030D01*
X139154681Y-95050030D02*
X138964205Y-95002411D01*
X138964205Y-95002411D02*
X138630872Y-95002411D01*
X138630872Y-95002411D02*
X138440396Y-95050030D01*
X138440396Y-95050030D02*
X138345158Y-95145268D01*
X138345158Y-95145268D02*
X138297539Y-95240506D01*
X138630872Y-96526220D02*
X139297539Y-96526220D01*
X138249920Y-96288125D02*
X138964205Y-96050030D01*
X138964205Y-96050030D02*
X138964205Y-96669077D01*
X138297539Y-97240506D02*
X138297539Y-97335744D01*
X138297539Y-97335744D02*
X138345158Y-97430982D01*
X138345158Y-97430982D02*
X138392777Y-97478601D01*
X138392777Y-97478601D02*
X138488015Y-97526220D01*
X138488015Y-97526220D02*
X138678491Y-97573839D01*
X138678491Y-97573839D02*
X138916586Y-97573839D01*
X138916586Y-97573839D02*
X139107062Y-97526220D01*
X139107062Y-97526220D02*
X139202300Y-97478601D01*
X139202300Y-97478601D02*
X139249920Y-97430982D01*
X139249920Y-97430982D02*
X139297539Y-97335744D01*
X139297539Y-97335744D02*
X139297539Y-97240506D01*
X139297539Y-97240506D02*
X139249920Y-97145268D01*
X139249920Y-97145268D02*
X139202300Y-97097649D01*
X139202300Y-97097649D02*
X139107062Y-97050030D01*
X139107062Y-97050030D02*
X138916586Y-97002411D01*
X138916586Y-97002411D02*
X138678491Y-97002411D01*
X138678491Y-97002411D02*
X138488015Y-97050030D01*
X138488015Y-97050030D02*
X138392777Y-97097649D01*
X138392777Y-97097649D02*
X138345158Y-97145268D01*
X138345158Y-97145268D02*
X138297539Y-97240506D01*
X138249920Y-98716696D02*
X139535634Y-97859554D01*
X139297539Y-99050030D02*
X138297539Y-99050030D01*
X138297539Y-99050030D02*
X139011824Y-99383363D01*
X139011824Y-99383363D02*
X138297539Y-99716696D01*
X138297539Y-99716696D02*
X139297539Y-99716696D01*
X138297539Y-100050030D02*
X138297539Y-100621458D01*
X139297539Y-100335744D02*
X138297539Y-100335744D01*
X139297539Y-100954792D02*
X138297539Y-100954792D01*
X138297539Y-100954792D02*
X138297539Y-101192887D01*
X138297539Y-101192887D02*
X138345158Y-101335744D01*
X138345158Y-101335744D02*
X138440396Y-101430982D01*
X138440396Y-101430982D02*
X138535634Y-101478601D01*
X138535634Y-101478601D02*
X138726110Y-101526220D01*
X138726110Y-101526220D02*
X138868967Y-101526220D01*
X138868967Y-101526220D02*
X139059443Y-101478601D01*
X139059443Y-101478601D02*
X139154681Y-101430982D01*
X139154681Y-101430982D02*
X139249920Y-101335744D01*
X139249920Y-101335744D02*
X139297539Y-101192887D01*
X139297539Y-101192887D02*
X139297539Y-100954792D01*
X138297539Y-102145268D02*
X138297539Y-102335744D01*
X138297539Y-102335744D02*
X138345158Y-102430982D01*
X138345158Y-102430982D02*
X138440396Y-102526220D01*
X138440396Y-102526220D02*
X138630872Y-102573839D01*
X138630872Y-102573839D02*
X138964205Y-102573839D01*
X138964205Y-102573839D02*
X139154681Y-102526220D01*
X139154681Y-102526220D02*
X139249920Y-102430982D01*
X139249920Y-102430982D02*
X139297539Y-102335744D01*
X139297539Y-102335744D02*
X139297539Y-102145268D01*
X139297539Y-102145268D02*
X139249920Y-102050030D01*
X139249920Y-102050030D02*
X139154681Y-101954792D01*
X139154681Y-101954792D02*
X138964205Y-101907173D01*
X138964205Y-101907173D02*
X138630872Y-101907173D01*
X138630872Y-101907173D02*
X138440396Y-101954792D01*
X138440396Y-101954792D02*
X138345158Y-102050030D01*
X138345158Y-102050030D02*
X138297539Y-102145268D01*
X133265158Y-83403588D02*
X133217539Y-83308350D01*
X133217539Y-83308350D02*
X133217539Y-83165493D01*
X133217539Y-83165493D02*
X133265158Y-83022636D01*
X133265158Y-83022636D02*
X133360396Y-82927398D01*
X133360396Y-82927398D02*
X133455634Y-82879779D01*
X133455634Y-82879779D02*
X133646110Y-82832160D01*
X133646110Y-82832160D02*
X133788967Y-82832160D01*
X133788967Y-82832160D02*
X133979443Y-82879779D01*
X133979443Y-82879779D02*
X134074681Y-82927398D01*
X134074681Y-82927398D02*
X134169920Y-83022636D01*
X134169920Y-83022636D02*
X134217539Y-83165493D01*
X134217539Y-83165493D02*
X134217539Y-83260731D01*
X134217539Y-83260731D02*
X134169920Y-83403588D01*
X134169920Y-83403588D02*
X134122300Y-83451207D01*
X134122300Y-83451207D02*
X133788967Y-83451207D01*
X133788967Y-83451207D02*
X133788967Y-83260731D01*
X134217539Y-83879779D02*
X133217539Y-83879779D01*
X133217539Y-83879779D02*
X133217539Y-84260731D01*
X133217539Y-84260731D02*
X133265158Y-84355969D01*
X133265158Y-84355969D02*
X133312777Y-84403588D01*
X133312777Y-84403588D02*
X133408015Y-84451207D01*
X133408015Y-84451207D02*
X133550872Y-84451207D01*
X133550872Y-84451207D02*
X133646110Y-84403588D01*
X133646110Y-84403588D02*
X133693729Y-84355969D01*
X133693729Y-84355969D02*
X133741348Y-84260731D01*
X133741348Y-84260731D02*
X133741348Y-83879779D01*
X134217539Y-84879779D02*
X133217539Y-84879779D01*
X133217539Y-85546445D02*
X133217539Y-85736921D01*
X133217539Y-85736921D02*
X133265158Y-85832159D01*
X133265158Y-85832159D02*
X133360396Y-85927397D01*
X133360396Y-85927397D02*
X133550872Y-85975016D01*
X133550872Y-85975016D02*
X133884205Y-85975016D01*
X133884205Y-85975016D02*
X134074681Y-85927397D01*
X134074681Y-85927397D02*
X134169920Y-85832159D01*
X134169920Y-85832159D02*
X134217539Y-85736921D01*
X134217539Y-85736921D02*
X134217539Y-85546445D01*
X134217539Y-85546445D02*
X134169920Y-85451207D01*
X134169920Y-85451207D02*
X134074681Y-85355969D01*
X134074681Y-85355969D02*
X133884205Y-85308350D01*
X133884205Y-85308350D02*
X133550872Y-85308350D01*
X133550872Y-85308350D02*
X133360396Y-85355969D01*
X133360396Y-85355969D02*
X133265158Y-85451207D01*
X133265158Y-85451207D02*
X133217539Y-85546445D01*
X133217539Y-86832159D02*
X133217539Y-86641683D01*
X133217539Y-86641683D02*
X133265158Y-86546445D01*
X133265158Y-86546445D02*
X133312777Y-86498826D01*
X133312777Y-86498826D02*
X133455634Y-86403588D01*
X133455634Y-86403588D02*
X133646110Y-86355969D01*
X133646110Y-86355969D02*
X134027062Y-86355969D01*
X134027062Y-86355969D02*
X134122300Y-86403588D01*
X134122300Y-86403588D02*
X134169920Y-86451207D01*
X134169920Y-86451207D02*
X134217539Y-86546445D01*
X134217539Y-86546445D02*
X134217539Y-86736921D01*
X134217539Y-86736921D02*
X134169920Y-86832159D01*
X134169920Y-86832159D02*
X134122300Y-86879778D01*
X134122300Y-86879778D02*
X134027062Y-86927397D01*
X134027062Y-86927397D02*
X133788967Y-86927397D01*
X133788967Y-86927397D02*
X133693729Y-86879778D01*
X133693729Y-86879778D02*
X133646110Y-86832159D01*
X133646110Y-86832159D02*
X133598491Y-86736921D01*
X133598491Y-86736921D02*
X133598491Y-86546445D01*
X133598491Y-86546445D02*
X133646110Y-86451207D01*
X133646110Y-86451207D02*
X133693729Y-86403588D01*
X133693729Y-86403588D02*
X133788967Y-86355969D01*
X143425158Y-83403588D02*
X143377539Y-83308350D01*
X143377539Y-83308350D02*
X143377539Y-83165493D01*
X143377539Y-83165493D02*
X143425158Y-83022636D01*
X143425158Y-83022636D02*
X143520396Y-82927398D01*
X143520396Y-82927398D02*
X143615634Y-82879779D01*
X143615634Y-82879779D02*
X143806110Y-82832160D01*
X143806110Y-82832160D02*
X143948967Y-82832160D01*
X143948967Y-82832160D02*
X144139443Y-82879779D01*
X144139443Y-82879779D02*
X144234681Y-82927398D01*
X144234681Y-82927398D02*
X144329920Y-83022636D01*
X144329920Y-83022636D02*
X144377539Y-83165493D01*
X144377539Y-83165493D02*
X144377539Y-83260731D01*
X144377539Y-83260731D02*
X144329920Y-83403588D01*
X144329920Y-83403588D02*
X144282300Y-83451207D01*
X144282300Y-83451207D02*
X143948967Y-83451207D01*
X143948967Y-83451207D02*
X143948967Y-83260731D01*
X144377539Y-83879779D02*
X143377539Y-83879779D01*
X143377539Y-83879779D02*
X143377539Y-84260731D01*
X143377539Y-84260731D02*
X143425158Y-84355969D01*
X143425158Y-84355969D02*
X143472777Y-84403588D01*
X143472777Y-84403588D02*
X143568015Y-84451207D01*
X143568015Y-84451207D02*
X143710872Y-84451207D01*
X143710872Y-84451207D02*
X143806110Y-84403588D01*
X143806110Y-84403588D02*
X143853729Y-84355969D01*
X143853729Y-84355969D02*
X143901348Y-84260731D01*
X143901348Y-84260731D02*
X143901348Y-83879779D01*
X144377539Y-84879779D02*
X143377539Y-84879779D01*
X143377539Y-85546445D02*
X143377539Y-85736921D01*
X143377539Y-85736921D02*
X143425158Y-85832159D01*
X143425158Y-85832159D02*
X143520396Y-85927397D01*
X143520396Y-85927397D02*
X143710872Y-85975016D01*
X143710872Y-85975016D02*
X144044205Y-85975016D01*
X144044205Y-85975016D02*
X144234681Y-85927397D01*
X144234681Y-85927397D02*
X144329920Y-85832159D01*
X144329920Y-85832159D02*
X144377539Y-85736921D01*
X144377539Y-85736921D02*
X144377539Y-85546445D01*
X144377539Y-85546445D02*
X144329920Y-85451207D01*
X144329920Y-85451207D02*
X144234681Y-85355969D01*
X144234681Y-85355969D02*
X144044205Y-85308350D01*
X144044205Y-85308350D02*
X143710872Y-85308350D01*
X143710872Y-85308350D02*
X143520396Y-85355969D01*
X143520396Y-85355969D02*
X143425158Y-85451207D01*
X143425158Y-85451207D02*
X143377539Y-85546445D01*
X144377539Y-86927397D02*
X144377539Y-86355969D01*
X144377539Y-86641683D02*
X143377539Y-86641683D01*
X143377539Y-86641683D02*
X143520396Y-86546445D01*
X143520396Y-86546445D02*
X143615634Y-86451207D01*
X143615634Y-86451207D02*
X143663253Y-86355969D01*
X143377539Y-87260731D02*
X143377539Y-87927397D01*
X143377539Y-87927397D02*
X144377539Y-87498826D01*
X168825158Y-83403588D02*
X168777539Y-83308350D01*
X168777539Y-83308350D02*
X168777539Y-83165493D01*
X168777539Y-83165493D02*
X168825158Y-83022636D01*
X168825158Y-83022636D02*
X168920396Y-82927398D01*
X168920396Y-82927398D02*
X169015634Y-82879779D01*
X169015634Y-82879779D02*
X169206110Y-82832160D01*
X169206110Y-82832160D02*
X169348967Y-82832160D01*
X169348967Y-82832160D02*
X169539443Y-82879779D01*
X169539443Y-82879779D02*
X169634681Y-82927398D01*
X169634681Y-82927398D02*
X169729920Y-83022636D01*
X169729920Y-83022636D02*
X169777539Y-83165493D01*
X169777539Y-83165493D02*
X169777539Y-83260731D01*
X169777539Y-83260731D02*
X169729920Y-83403588D01*
X169729920Y-83403588D02*
X169682300Y-83451207D01*
X169682300Y-83451207D02*
X169348967Y-83451207D01*
X169348967Y-83451207D02*
X169348967Y-83260731D01*
X169777539Y-83879779D02*
X168777539Y-83879779D01*
X168777539Y-83879779D02*
X168777539Y-84260731D01*
X168777539Y-84260731D02*
X168825158Y-84355969D01*
X168825158Y-84355969D02*
X168872777Y-84403588D01*
X168872777Y-84403588D02*
X168968015Y-84451207D01*
X168968015Y-84451207D02*
X169110872Y-84451207D01*
X169110872Y-84451207D02*
X169206110Y-84403588D01*
X169206110Y-84403588D02*
X169253729Y-84355969D01*
X169253729Y-84355969D02*
X169301348Y-84260731D01*
X169301348Y-84260731D02*
X169301348Y-83879779D01*
X169777539Y-84879779D02*
X168777539Y-84879779D01*
X168777539Y-85546445D02*
X168777539Y-85736921D01*
X168777539Y-85736921D02*
X168825158Y-85832159D01*
X168825158Y-85832159D02*
X168920396Y-85927397D01*
X168920396Y-85927397D02*
X169110872Y-85975016D01*
X169110872Y-85975016D02*
X169444205Y-85975016D01*
X169444205Y-85975016D02*
X169634681Y-85927397D01*
X169634681Y-85927397D02*
X169729920Y-85832159D01*
X169729920Y-85832159D02*
X169777539Y-85736921D01*
X169777539Y-85736921D02*
X169777539Y-85546445D01*
X169777539Y-85546445D02*
X169729920Y-85451207D01*
X169729920Y-85451207D02*
X169634681Y-85355969D01*
X169634681Y-85355969D02*
X169444205Y-85308350D01*
X169444205Y-85308350D02*
X169110872Y-85308350D01*
X169110872Y-85308350D02*
X168920396Y-85355969D01*
X168920396Y-85355969D02*
X168825158Y-85451207D01*
X168825158Y-85451207D02*
X168777539Y-85546445D01*
X169777539Y-86927397D02*
X169777539Y-86355969D01*
X169777539Y-86641683D02*
X168777539Y-86641683D01*
X168777539Y-86641683D02*
X168920396Y-86546445D01*
X168920396Y-86546445D02*
X169015634Y-86451207D01*
X169015634Y-86451207D02*
X169063253Y-86355969D01*
X169110872Y-87784540D02*
X169777539Y-87784540D01*
X168729920Y-87546445D02*
X169444205Y-87308350D01*
X169444205Y-87308350D02*
X169444205Y-87927397D01*
X120565158Y-100478601D02*
X120517539Y-100383363D01*
X120517539Y-100383363D02*
X120517539Y-100240506D01*
X120517539Y-100240506D02*
X120565158Y-100097649D01*
X120565158Y-100097649D02*
X120660396Y-100002411D01*
X120660396Y-100002411D02*
X120755634Y-99954792D01*
X120755634Y-99954792D02*
X120946110Y-99907173D01*
X120946110Y-99907173D02*
X121088967Y-99907173D01*
X121088967Y-99907173D02*
X121279443Y-99954792D01*
X121279443Y-99954792D02*
X121374681Y-100002411D01*
X121374681Y-100002411D02*
X121469920Y-100097649D01*
X121469920Y-100097649D02*
X121517539Y-100240506D01*
X121517539Y-100240506D02*
X121517539Y-100335744D01*
X121517539Y-100335744D02*
X121469920Y-100478601D01*
X121469920Y-100478601D02*
X121422300Y-100526220D01*
X121422300Y-100526220D02*
X121088967Y-100526220D01*
X121088967Y-100526220D02*
X121088967Y-100335744D01*
X121517539Y-100954792D02*
X120517539Y-100954792D01*
X120517539Y-100954792D02*
X121517539Y-101526220D01*
X121517539Y-101526220D02*
X120517539Y-101526220D01*
X121517539Y-102002411D02*
X120517539Y-102002411D01*
X120517539Y-102002411D02*
X120517539Y-102240506D01*
X120517539Y-102240506D02*
X120565158Y-102383363D01*
X120565158Y-102383363D02*
X120660396Y-102478601D01*
X120660396Y-102478601D02*
X120755634Y-102526220D01*
X120755634Y-102526220D02*
X120946110Y-102573839D01*
X120946110Y-102573839D02*
X121088967Y-102573839D01*
X121088967Y-102573839D02*
X121279443Y-102526220D01*
X121279443Y-102526220D02*
X121374681Y-102478601D01*
X121374681Y-102478601D02*
X121469920Y-102383363D01*
X121469920Y-102383363D02*
X121517539Y-102240506D01*
X121517539Y-102240506D02*
X121517539Y-102002411D01*
X153585158Y-83403588D02*
X153537539Y-83308350D01*
X153537539Y-83308350D02*
X153537539Y-83165493D01*
X153537539Y-83165493D02*
X153585158Y-83022636D01*
X153585158Y-83022636D02*
X153680396Y-82927398D01*
X153680396Y-82927398D02*
X153775634Y-82879779D01*
X153775634Y-82879779D02*
X153966110Y-82832160D01*
X153966110Y-82832160D02*
X154108967Y-82832160D01*
X154108967Y-82832160D02*
X154299443Y-82879779D01*
X154299443Y-82879779D02*
X154394681Y-82927398D01*
X154394681Y-82927398D02*
X154489920Y-83022636D01*
X154489920Y-83022636D02*
X154537539Y-83165493D01*
X154537539Y-83165493D02*
X154537539Y-83260731D01*
X154537539Y-83260731D02*
X154489920Y-83403588D01*
X154489920Y-83403588D02*
X154442300Y-83451207D01*
X154442300Y-83451207D02*
X154108967Y-83451207D01*
X154108967Y-83451207D02*
X154108967Y-83260731D01*
X154537539Y-83879779D02*
X153537539Y-83879779D01*
X153537539Y-83879779D02*
X153537539Y-84260731D01*
X153537539Y-84260731D02*
X153585158Y-84355969D01*
X153585158Y-84355969D02*
X153632777Y-84403588D01*
X153632777Y-84403588D02*
X153728015Y-84451207D01*
X153728015Y-84451207D02*
X153870872Y-84451207D01*
X153870872Y-84451207D02*
X153966110Y-84403588D01*
X153966110Y-84403588D02*
X154013729Y-84355969D01*
X154013729Y-84355969D02*
X154061348Y-84260731D01*
X154061348Y-84260731D02*
X154061348Y-83879779D01*
X154537539Y-84879779D02*
X153537539Y-84879779D01*
X153537539Y-85546445D02*
X153537539Y-85736921D01*
X153537539Y-85736921D02*
X153585158Y-85832159D01*
X153585158Y-85832159D02*
X153680396Y-85927397D01*
X153680396Y-85927397D02*
X153870872Y-85975016D01*
X153870872Y-85975016D02*
X154204205Y-85975016D01*
X154204205Y-85975016D02*
X154394681Y-85927397D01*
X154394681Y-85927397D02*
X154489920Y-85832159D01*
X154489920Y-85832159D02*
X154537539Y-85736921D01*
X154537539Y-85736921D02*
X154537539Y-85546445D01*
X154537539Y-85546445D02*
X154489920Y-85451207D01*
X154489920Y-85451207D02*
X154394681Y-85355969D01*
X154394681Y-85355969D02*
X154204205Y-85308350D01*
X154204205Y-85308350D02*
X153870872Y-85308350D01*
X153870872Y-85308350D02*
X153680396Y-85355969D01*
X153680396Y-85355969D02*
X153585158Y-85451207D01*
X153585158Y-85451207D02*
X153537539Y-85546445D01*
X153870872Y-86832159D02*
X154537539Y-86832159D01*
X153489920Y-86594064D02*
X154204205Y-86355969D01*
X154204205Y-86355969D02*
X154204205Y-86975016D01*
X153537539Y-87784540D02*
X153537539Y-87594064D01*
X153537539Y-87594064D02*
X153585158Y-87498826D01*
X153585158Y-87498826D02*
X153632777Y-87451207D01*
X153632777Y-87451207D02*
X153775634Y-87355969D01*
X153775634Y-87355969D02*
X153966110Y-87308350D01*
X153966110Y-87308350D02*
X154347062Y-87308350D01*
X154347062Y-87308350D02*
X154442300Y-87355969D01*
X154442300Y-87355969D02*
X154489920Y-87403588D01*
X154489920Y-87403588D02*
X154537539Y-87498826D01*
X154537539Y-87498826D02*
X154537539Y-87689302D01*
X154537539Y-87689302D02*
X154489920Y-87784540D01*
X154489920Y-87784540D02*
X154442300Y-87832159D01*
X154442300Y-87832159D02*
X154347062Y-87879778D01*
X154347062Y-87879778D02*
X154108967Y-87879778D01*
X154108967Y-87879778D02*
X154013729Y-87832159D01*
X154013729Y-87832159D02*
X153966110Y-87784540D01*
X153966110Y-87784540D02*
X153918491Y-87689302D01*
X153918491Y-87689302D02*
X153918491Y-87498826D01*
X153918491Y-87498826D02*
X153966110Y-87403588D01*
X153966110Y-87403588D02*
X154013729Y-87355969D01*
X154013729Y-87355969D02*
X154108967Y-87308350D01*
X153585158Y-99050030D02*
X153537539Y-98954792D01*
X153537539Y-98954792D02*
X153537539Y-98811935D01*
X153537539Y-98811935D02*
X153585158Y-98669078D01*
X153585158Y-98669078D02*
X153680396Y-98573840D01*
X153680396Y-98573840D02*
X153775634Y-98526221D01*
X153775634Y-98526221D02*
X153966110Y-98478602D01*
X153966110Y-98478602D02*
X154108967Y-98478602D01*
X154108967Y-98478602D02*
X154299443Y-98526221D01*
X154299443Y-98526221D02*
X154394681Y-98573840D01*
X154394681Y-98573840D02*
X154489920Y-98669078D01*
X154489920Y-98669078D02*
X154537539Y-98811935D01*
X154537539Y-98811935D02*
X154537539Y-98907173D01*
X154537539Y-98907173D02*
X154489920Y-99050030D01*
X154489920Y-99050030D02*
X154442300Y-99097649D01*
X154442300Y-99097649D02*
X154108967Y-99097649D01*
X154108967Y-99097649D02*
X154108967Y-98907173D01*
X154537539Y-99526221D02*
X153537539Y-99526221D01*
X153537539Y-99526221D02*
X153537539Y-99907173D01*
X153537539Y-99907173D02*
X153585158Y-100002411D01*
X153585158Y-100002411D02*
X153632777Y-100050030D01*
X153632777Y-100050030D02*
X153728015Y-100097649D01*
X153728015Y-100097649D02*
X153870872Y-100097649D01*
X153870872Y-100097649D02*
X153966110Y-100050030D01*
X153966110Y-100050030D02*
X154013729Y-100002411D01*
X154013729Y-100002411D02*
X154061348Y-99907173D01*
X154061348Y-99907173D02*
X154061348Y-99526221D01*
X154537539Y-100526221D02*
X153537539Y-100526221D01*
X153537539Y-101192887D02*
X153537539Y-101383363D01*
X153537539Y-101383363D02*
X153585158Y-101478601D01*
X153585158Y-101478601D02*
X153680396Y-101573839D01*
X153680396Y-101573839D02*
X153870872Y-101621458D01*
X153870872Y-101621458D02*
X154204205Y-101621458D01*
X154204205Y-101621458D02*
X154394681Y-101573839D01*
X154394681Y-101573839D02*
X154489920Y-101478601D01*
X154489920Y-101478601D02*
X154537539Y-101383363D01*
X154537539Y-101383363D02*
X154537539Y-101192887D01*
X154537539Y-101192887D02*
X154489920Y-101097649D01*
X154489920Y-101097649D02*
X154394681Y-101002411D01*
X154394681Y-101002411D02*
X154204205Y-100954792D01*
X154204205Y-100954792D02*
X153870872Y-100954792D01*
X153870872Y-100954792D02*
X153680396Y-101002411D01*
X153680396Y-101002411D02*
X153585158Y-101097649D01*
X153585158Y-101097649D02*
X153537539Y-101192887D01*
X153537539Y-102240506D02*
X153537539Y-102335744D01*
X153537539Y-102335744D02*
X153585158Y-102430982D01*
X153585158Y-102430982D02*
X153632777Y-102478601D01*
X153632777Y-102478601D02*
X153728015Y-102526220D01*
X153728015Y-102526220D02*
X153918491Y-102573839D01*
X153918491Y-102573839D02*
X154156586Y-102573839D01*
X154156586Y-102573839D02*
X154347062Y-102526220D01*
X154347062Y-102526220D02*
X154442300Y-102478601D01*
X154442300Y-102478601D02*
X154489920Y-102430982D01*
X154489920Y-102430982D02*
X154537539Y-102335744D01*
X154537539Y-102335744D02*
X154537539Y-102240506D01*
X154537539Y-102240506D02*
X154489920Y-102145268D01*
X154489920Y-102145268D02*
X154442300Y-102097649D01*
X154442300Y-102097649D02*
X154347062Y-102050030D01*
X154347062Y-102050030D02*
X154156586Y-102002411D01*
X154156586Y-102002411D02*
X153918491Y-102002411D01*
X153918491Y-102002411D02*
X153728015Y-102050030D01*
X153728015Y-102050030D02*
X153632777Y-102097649D01*
X153632777Y-102097649D02*
X153585158Y-102145268D01*
X153585158Y-102145268D02*
X153537539Y-102240506D01*
X168825158Y-98097649D02*
X168777539Y-98002411D01*
X168777539Y-98002411D02*
X168777539Y-97859554D01*
X168777539Y-97859554D02*
X168825158Y-97716697D01*
X168825158Y-97716697D02*
X168920396Y-97621459D01*
X168920396Y-97621459D02*
X169015634Y-97573840D01*
X169015634Y-97573840D02*
X169206110Y-97526221D01*
X169206110Y-97526221D02*
X169348967Y-97526221D01*
X169348967Y-97526221D02*
X169539443Y-97573840D01*
X169539443Y-97573840D02*
X169634681Y-97621459D01*
X169634681Y-97621459D02*
X169729920Y-97716697D01*
X169729920Y-97716697D02*
X169777539Y-97859554D01*
X169777539Y-97859554D02*
X169777539Y-97954792D01*
X169777539Y-97954792D02*
X169729920Y-98097649D01*
X169729920Y-98097649D02*
X169682300Y-98145268D01*
X169682300Y-98145268D02*
X169348967Y-98145268D01*
X169348967Y-98145268D02*
X169348967Y-97954792D01*
X169777539Y-98573840D02*
X168777539Y-98573840D01*
X168777539Y-98573840D02*
X168777539Y-98954792D01*
X168777539Y-98954792D02*
X168825158Y-99050030D01*
X168825158Y-99050030D02*
X168872777Y-99097649D01*
X168872777Y-99097649D02*
X168968015Y-99145268D01*
X168968015Y-99145268D02*
X169110872Y-99145268D01*
X169110872Y-99145268D02*
X169206110Y-99097649D01*
X169206110Y-99097649D02*
X169253729Y-99050030D01*
X169253729Y-99050030D02*
X169301348Y-98954792D01*
X169301348Y-98954792D02*
X169301348Y-98573840D01*
X169777539Y-99573840D02*
X168777539Y-99573840D01*
X168777539Y-100240506D02*
X168777539Y-100430982D01*
X168777539Y-100430982D02*
X168825158Y-100526220D01*
X168825158Y-100526220D02*
X168920396Y-100621458D01*
X168920396Y-100621458D02*
X169110872Y-100669077D01*
X169110872Y-100669077D02*
X169444205Y-100669077D01*
X169444205Y-100669077D02*
X169634681Y-100621458D01*
X169634681Y-100621458D02*
X169729920Y-100526220D01*
X169729920Y-100526220D02*
X169777539Y-100430982D01*
X169777539Y-100430982D02*
X169777539Y-100240506D01*
X169777539Y-100240506D02*
X169729920Y-100145268D01*
X169729920Y-100145268D02*
X169634681Y-100050030D01*
X169634681Y-100050030D02*
X169444205Y-100002411D01*
X169444205Y-100002411D02*
X169110872Y-100002411D01*
X169110872Y-100002411D02*
X168920396Y-100050030D01*
X168920396Y-100050030D02*
X168825158Y-100145268D01*
X168825158Y-100145268D02*
X168777539Y-100240506D01*
X169777539Y-101621458D02*
X169777539Y-101050030D01*
X169777539Y-101335744D02*
X168777539Y-101335744D01*
X168777539Y-101335744D02*
X168920396Y-101240506D01*
X168920396Y-101240506D02*
X169015634Y-101145268D01*
X169015634Y-101145268D02*
X169063253Y-101050030D01*
X169777539Y-102097649D02*
X169777539Y-102288125D01*
X169777539Y-102288125D02*
X169729920Y-102383363D01*
X169729920Y-102383363D02*
X169682300Y-102430982D01*
X169682300Y-102430982D02*
X169539443Y-102526220D01*
X169539443Y-102526220D02*
X169348967Y-102573839D01*
X169348967Y-102573839D02*
X168968015Y-102573839D01*
X168968015Y-102573839D02*
X168872777Y-102526220D01*
X168872777Y-102526220D02*
X168825158Y-102478601D01*
X168825158Y-102478601D02*
X168777539Y-102383363D01*
X168777539Y-102383363D02*
X168777539Y-102192887D01*
X168777539Y-102192887D02*
X168825158Y-102097649D01*
X168825158Y-102097649D02*
X168872777Y-102050030D01*
X168872777Y-102050030D02*
X168968015Y-102002411D01*
X168968015Y-102002411D02*
X169206110Y-102002411D01*
X169206110Y-102002411D02*
X169301348Y-102050030D01*
X169301348Y-102050030D02*
X169348967Y-102097649D01*
X169348967Y-102097649D02*
X169396586Y-102192887D01*
X169396586Y-102192887D02*
X169396586Y-102383363D01*
X169396586Y-102383363D02*
X169348967Y-102478601D01*
X169348967Y-102478601D02*
X169301348Y-102526220D01*
X169301348Y-102526220D02*
X169206110Y-102573839D01*
X148505158Y-83403588D02*
X148457539Y-83308350D01*
X148457539Y-83308350D02*
X148457539Y-83165493D01*
X148457539Y-83165493D02*
X148505158Y-83022636D01*
X148505158Y-83022636D02*
X148600396Y-82927398D01*
X148600396Y-82927398D02*
X148695634Y-82879779D01*
X148695634Y-82879779D02*
X148886110Y-82832160D01*
X148886110Y-82832160D02*
X149028967Y-82832160D01*
X149028967Y-82832160D02*
X149219443Y-82879779D01*
X149219443Y-82879779D02*
X149314681Y-82927398D01*
X149314681Y-82927398D02*
X149409920Y-83022636D01*
X149409920Y-83022636D02*
X149457539Y-83165493D01*
X149457539Y-83165493D02*
X149457539Y-83260731D01*
X149457539Y-83260731D02*
X149409920Y-83403588D01*
X149409920Y-83403588D02*
X149362300Y-83451207D01*
X149362300Y-83451207D02*
X149028967Y-83451207D01*
X149028967Y-83451207D02*
X149028967Y-83260731D01*
X149457539Y-83879779D02*
X148457539Y-83879779D01*
X148457539Y-83879779D02*
X148457539Y-84260731D01*
X148457539Y-84260731D02*
X148505158Y-84355969D01*
X148505158Y-84355969D02*
X148552777Y-84403588D01*
X148552777Y-84403588D02*
X148648015Y-84451207D01*
X148648015Y-84451207D02*
X148790872Y-84451207D01*
X148790872Y-84451207D02*
X148886110Y-84403588D01*
X148886110Y-84403588D02*
X148933729Y-84355969D01*
X148933729Y-84355969D02*
X148981348Y-84260731D01*
X148981348Y-84260731D02*
X148981348Y-83879779D01*
X149457539Y-84879779D02*
X148457539Y-84879779D01*
X148457539Y-85546445D02*
X148457539Y-85736921D01*
X148457539Y-85736921D02*
X148505158Y-85832159D01*
X148505158Y-85832159D02*
X148600396Y-85927397D01*
X148600396Y-85927397D02*
X148790872Y-85975016D01*
X148790872Y-85975016D02*
X149124205Y-85975016D01*
X149124205Y-85975016D02*
X149314681Y-85927397D01*
X149314681Y-85927397D02*
X149409920Y-85832159D01*
X149409920Y-85832159D02*
X149457539Y-85736921D01*
X149457539Y-85736921D02*
X149457539Y-85546445D01*
X149457539Y-85546445D02*
X149409920Y-85451207D01*
X149409920Y-85451207D02*
X149314681Y-85355969D01*
X149314681Y-85355969D02*
X149124205Y-85308350D01*
X149124205Y-85308350D02*
X148790872Y-85308350D01*
X148790872Y-85308350D02*
X148600396Y-85355969D01*
X148600396Y-85355969D02*
X148505158Y-85451207D01*
X148505158Y-85451207D02*
X148457539Y-85546445D01*
X148886110Y-86546445D02*
X148838491Y-86451207D01*
X148838491Y-86451207D02*
X148790872Y-86403588D01*
X148790872Y-86403588D02*
X148695634Y-86355969D01*
X148695634Y-86355969D02*
X148648015Y-86355969D01*
X148648015Y-86355969D02*
X148552777Y-86403588D01*
X148552777Y-86403588D02*
X148505158Y-86451207D01*
X148505158Y-86451207D02*
X148457539Y-86546445D01*
X148457539Y-86546445D02*
X148457539Y-86736921D01*
X148457539Y-86736921D02*
X148505158Y-86832159D01*
X148505158Y-86832159D02*
X148552777Y-86879778D01*
X148552777Y-86879778D02*
X148648015Y-86927397D01*
X148648015Y-86927397D02*
X148695634Y-86927397D01*
X148695634Y-86927397D02*
X148790872Y-86879778D01*
X148790872Y-86879778D02*
X148838491Y-86832159D01*
X148838491Y-86832159D02*
X148886110Y-86736921D01*
X148886110Y-86736921D02*
X148886110Y-86546445D01*
X148886110Y-86546445D02*
X148933729Y-86451207D01*
X148933729Y-86451207D02*
X148981348Y-86403588D01*
X148981348Y-86403588D02*
X149076586Y-86355969D01*
X149076586Y-86355969D02*
X149267062Y-86355969D01*
X149267062Y-86355969D02*
X149362300Y-86403588D01*
X149362300Y-86403588D02*
X149409920Y-86451207D01*
X149409920Y-86451207D02*
X149457539Y-86546445D01*
X149457539Y-86546445D02*
X149457539Y-86736921D01*
X149457539Y-86736921D02*
X149409920Y-86832159D01*
X149409920Y-86832159D02*
X149362300Y-86879778D01*
X149362300Y-86879778D02*
X149267062Y-86927397D01*
X149267062Y-86927397D02*
X149076586Y-86927397D01*
X149076586Y-86927397D02*
X148981348Y-86879778D01*
X148981348Y-86879778D02*
X148933729Y-86832159D01*
X148933729Y-86832159D02*
X148886110Y-86736921D01*
X151045158Y-98097649D02*
X150997539Y-98002411D01*
X150997539Y-98002411D02*
X150997539Y-97859554D01*
X150997539Y-97859554D02*
X151045158Y-97716697D01*
X151045158Y-97716697D02*
X151140396Y-97621459D01*
X151140396Y-97621459D02*
X151235634Y-97573840D01*
X151235634Y-97573840D02*
X151426110Y-97526221D01*
X151426110Y-97526221D02*
X151568967Y-97526221D01*
X151568967Y-97526221D02*
X151759443Y-97573840D01*
X151759443Y-97573840D02*
X151854681Y-97621459D01*
X151854681Y-97621459D02*
X151949920Y-97716697D01*
X151949920Y-97716697D02*
X151997539Y-97859554D01*
X151997539Y-97859554D02*
X151997539Y-97954792D01*
X151997539Y-97954792D02*
X151949920Y-98097649D01*
X151949920Y-98097649D02*
X151902300Y-98145268D01*
X151902300Y-98145268D02*
X151568967Y-98145268D01*
X151568967Y-98145268D02*
X151568967Y-97954792D01*
X151997539Y-98573840D02*
X150997539Y-98573840D01*
X150997539Y-98573840D02*
X150997539Y-98954792D01*
X150997539Y-98954792D02*
X151045158Y-99050030D01*
X151045158Y-99050030D02*
X151092777Y-99097649D01*
X151092777Y-99097649D02*
X151188015Y-99145268D01*
X151188015Y-99145268D02*
X151330872Y-99145268D01*
X151330872Y-99145268D02*
X151426110Y-99097649D01*
X151426110Y-99097649D02*
X151473729Y-99050030D01*
X151473729Y-99050030D02*
X151521348Y-98954792D01*
X151521348Y-98954792D02*
X151521348Y-98573840D01*
X151997539Y-99573840D02*
X150997539Y-99573840D01*
X150997539Y-100240506D02*
X150997539Y-100430982D01*
X150997539Y-100430982D02*
X151045158Y-100526220D01*
X151045158Y-100526220D02*
X151140396Y-100621458D01*
X151140396Y-100621458D02*
X151330872Y-100669077D01*
X151330872Y-100669077D02*
X151664205Y-100669077D01*
X151664205Y-100669077D02*
X151854681Y-100621458D01*
X151854681Y-100621458D02*
X151949920Y-100526220D01*
X151949920Y-100526220D02*
X151997539Y-100430982D01*
X151997539Y-100430982D02*
X151997539Y-100240506D01*
X151997539Y-100240506D02*
X151949920Y-100145268D01*
X151949920Y-100145268D02*
X151854681Y-100050030D01*
X151854681Y-100050030D02*
X151664205Y-100002411D01*
X151664205Y-100002411D02*
X151330872Y-100002411D01*
X151330872Y-100002411D02*
X151140396Y-100050030D01*
X151140396Y-100050030D02*
X151045158Y-100145268D01*
X151045158Y-100145268D02*
X150997539Y-100240506D01*
X150997539Y-101002411D02*
X150997539Y-101621458D01*
X150997539Y-101621458D02*
X151378491Y-101288125D01*
X151378491Y-101288125D02*
X151378491Y-101430982D01*
X151378491Y-101430982D02*
X151426110Y-101526220D01*
X151426110Y-101526220D02*
X151473729Y-101573839D01*
X151473729Y-101573839D02*
X151568967Y-101621458D01*
X151568967Y-101621458D02*
X151807062Y-101621458D01*
X151807062Y-101621458D02*
X151902300Y-101573839D01*
X151902300Y-101573839D02*
X151949920Y-101526220D01*
X151949920Y-101526220D02*
X151997539Y-101430982D01*
X151997539Y-101430982D02*
X151997539Y-101145268D01*
X151997539Y-101145268D02*
X151949920Y-101050030D01*
X151949920Y-101050030D02*
X151902300Y-101002411D01*
X150997539Y-102526220D02*
X150997539Y-102050030D01*
X150997539Y-102050030D02*
X151473729Y-102002411D01*
X151473729Y-102002411D02*
X151426110Y-102050030D01*
X151426110Y-102050030D02*
X151378491Y-102145268D01*
X151378491Y-102145268D02*
X151378491Y-102383363D01*
X151378491Y-102383363D02*
X151426110Y-102478601D01*
X151426110Y-102478601D02*
X151473729Y-102526220D01*
X151473729Y-102526220D02*
X151568967Y-102573839D01*
X151568967Y-102573839D02*
X151807062Y-102573839D01*
X151807062Y-102573839D02*
X151902300Y-102526220D01*
X151902300Y-102526220D02*
X151949920Y-102478601D01*
X151949920Y-102478601D02*
X151997539Y-102383363D01*
X151997539Y-102383363D02*
X151997539Y-102145268D01*
X151997539Y-102145268D02*
X151949920Y-102050030D01*
X151949920Y-102050030D02*
X151902300Y-102002411D01*
X135805158Y-93669078D02*
X135757539Y-93573840D01*
X135757539Y-93573840D02*
X135757539Y-93430983D01*
X135757539Y-93430983D02*
X135805158Y-93288126D01*
X135805158Y-93288126D02*
X135900396Y-93192888D01*
X135900396Y-93192888D02*
X135995634Y-93145269D01*
X135995634Y-93145269D02*
X136186110Y-93097650D01*
X136186110Y-93097650D02*
X136328967Y-93097650D01*
X136328967Y-93097650D02*
X136519443Y-93145269D01*
X136519443Y-93145269D02*
X136614681Y-93192888D01*
X136614681Y-93192888D02*
X136709920Y-93288126D01*
X136709920Y-93288126D02*
X136757539Y-93430983D01*
X136757539Y-93430983D02*
X136757539Y-93526221D01*
X136757539Y-93526221D02*
X136709920Y-93669078D01*
X136709920Y-93669078D02*
X136662300Y-93716697D01*
X136662300Y-93716697D02*
X136328967Y-93716697D01*
X136328967Y-93716697D02*
X136328967Y-93526221D01*
X136757539Y-94145269D02*
X135757539Y-94145269D01*
X135757539Y-94145269D02*
X135757539Y-94526221D01*
X135757539Y-94526221D02*
X135805158Y-94621459D01*
X135805158Y-94621459D02*
X135852777Y-94669078D01*
X135852777Y-94669078D02*
X135948015Y-94716697D01*
X135948015Y-94716697D02*
X136090872Y-94716697D01*
X136090872Y-94716697D02*
X136186110Y-94669078D01*
X136186110Y-94669078D02*
X136233729Y-94621459D01*
X136233729Y-94621459D02*
X136281348Y-94526221D01*
X136281348Y-94526221D02*
X136281348Y-94145269D01*
X136757539Y-95145269D02*
X135757539Y-95145269D01*
X135757539Y-95811935D02*
X135757539Y-96002411D01*
X135757539Y-96002411D02*
X135805158Y-96097649D01*
X135805158Y-96097649D02*
X135900396Y-96192887D01*
X135900396Y-96192887D02*
X136090872Y-96240506D01*
X136090872Y-96240506D02*
X136424205Y-96240506D01*
X136424205Y-96240506D02*
X136614681Y-96192887D01*
X136614681Y-96192887D02*
X136709920Y-96097649D01*
X136709920Y-96097649D02*
X136757539Y-96002411D01*
X136757539Y-96002411D02*
X136757539Y-95811935D01*
X136757539Y-95811935D02*
X136709920Y-95716697D01*
X136709920Y-95716697D02*
X136614681Y-95621459D01*
X136614681Y-95621459D02*
X136424205Y-95573840D01*
X136424205Y-95573840D02*
X136090872Y-95573840D01*
X136090872Y-95573840D02*
X135900396Y-95621459D01*
X135900396Y-95621459D02*
X135805158Y-95716697D01*
X135805158Y-95716697D02*
X135757539Y-95811935D01*
X136090872Y-97097649D02*
X136757539Y-97097649D01*
X135709920Y-96859554D02*
X136424205Y-96621459D01*
X136424205Y-96621459D02*
X136424205Y-97240506D01*
X136757539Y-98145268D02*
X136757539Y-97573840D01*
X136757539Y-97859554D02*
X135757539Y-97859554D01*
X135757539Y-97859554D02*
X135900396Y-97764316D01*
X135900396Y-97764316D02*
X135995634Y-97669078D01*
X135995634Y-97669078D02*
X136043253Y-97573840D01*
X135709920Y-99288125D02*
X136995634Y-98430983D01*
X136757539Y-99621459D02*
X135757539Y-99621459D01*
X135757539Y-99621459D02*
X136471824Y-99954792D01*
X136471824Y-99954792D02*
X135757539Y-100288125D01*
X135757539Y-100288125D02*
X136757539Y-100288125D01*
X135757539Y-100621459D02*
X135757539Y-101192887D01*
X136757539Y-100907173D02*
X135757539Y-100907173D01*
X136757539Y-101526221D02*
X135757539Y-101526221D01*
X135757539Y-101526221D02*
X135757539Y-101764316D01*
X135757539Y-101764316D02*
X135805158Y-101907173D01*
X135805158Y-101907173D02*
X135900396Y-102002411D01*
X135900396Y-102002411D02*
X135995634Y-102050030D01*
X135995634Y-102050030D02*
X136186110Y-102097649D01*
X136186110Y-102097649D02*
X136328967Y-102097649D01*
X136328967Y-102097649D02*
X136519443Y-102050030D01*
X136519443Y-102050030D02*
X136614681Y-102002411D01*
X136614681Y-102002411D02*
X136709920Y-101907173D01*
X136709920Y-101907173D02*
X136757539Y-101764316D01*
X136757539Y-101764316D02*
X136757539Y-101526221D01*
X136757539Y-102526221D02*
X135757539Y-102526221D01*
X148505158Y-98097649D02*
X148457539Y-98002411D01*
X148457539Y-98002411D02*
X148457539Y-97859554D01*
X148457539Y-97859554D02*
X148505158Y-97716697D01*
X148505158Y-97716697D02*
X148600396Y-97621459D01*
X148600396Y-97621459D02*
X148695634Y-97573840D01*
X148695634Y-97573840D02*
X148886110Y-97526221D01*
X148886110Y-97526221D02*
X149028967Y-97526221D01*
X149028967Y-97526221D02*
X149219443Y-97573840D01*
X149219443Y-97573840D02*
X149314681Y-97621459D01*
X149314681Y-97621459D02*
X149409920Y-97716697D01*
X149409920Y-97716697D02*
X149457539Y-97859554D01*
X149457539Y-97859554D02*
X149457539Y-97954792D01*
X149457539Y-97954792D02*
X149409920Y-98097649D01*
X149409920Y-98097649D02*
X149362300Y-98145268D01*
X149362300Y-98145268D02*
X149028967Y-98145268D01*
X149028967Y-98145268D02*
X149028967Y-97954792D01*
X149457539Y-98573840D02*
X148457539Y-98573840D01*
X148457539Y-98573840D02*
X148457539Y-98954792D01*
X148457539Y-98954792D02*
X148505158Y-99050030D01*
X148505158Y-99050030D02*
X148552777Y-99097649D01*
X148552777Y-99097649D02*
X148648015Y-99145268D01*
X148648015Y-99145268D02*
X148790872Y-99145268D01*
X148790872Y-99145268D02*
X148886110Y-99097649D01*
X148886110Y-99097649D02*
X148933729Y-99050030D01*
X148933729Y-99050030D02*
X148981348Y-98954792D01*
X148981348Y-98954792D02*
X148981348Y-98573840D01*
X149457539Y-99573840D02*
X148457539Y-99573840D01*
X148457539Y-100240506D02*
X148457539Y-100430982D01*
X148457539Y-100430982D02*
X148505158Y-100526220D01*
X148505158Y-100526220D02*
X148600396Y-100621458D01*
X148600396Y-100621458D02*
X148790872Y-100669077D01*
X148790872Y-100669077D02*
X149124205Y-100669077D01*
X149124205Y-100669077D02*
X149314681Y-100621458D01*
X149314681Y-100621458D02*
X149409920Y-100526220D01*
X149409920Y-100526220D02*
X149457539Y-100430982D01*
X149457539Y-100430982D02*
X149457539Y-100240506D01*
X149457539Y-100240506D02*
X149409920Y-100145268D01*
X149409920Y-100145268D02*
X149314681Y-100050030D01*
X149314681Y-100050030D02*
X149124205Y-100002411D01*
X149124205Y-100002411D02*
X148790872Y-100002411D01*
X148790872Y-100002411D02*
X148600396Y-100050030D01*
X148600396Y-100050030D02*
X148505158Y-100145268D01*
X148505158Y-100145268D02*
X148457539Y-100240506D01*
X148457539Y-101002411D02*
X148457539Y-101621458D01*
X148457539Y-101621458D02*
X148838491Y-101288125D01*
X148838491Y-101288125D02*
X148838491Y-101430982D01*
X148838491Y-101430982D02*
X148886110Y-101526220D01*
X148886110Y-101526220D02*
X148933729Y-101573839D01*
X148933729Y-101573839D02*
X149028967Y-101621458D01*
X149028967Y-101621458D02*
X149267062Y-101621458D01*
X149267062Y-101621458D02*
X149362300Y-101573839D01*
X149362300Y-101573839D02*
X149409920Y-101526220D01*
X149409920Y-101526220D02*
X149457539Y-101430982D01*
X149457539Y-101430982D02*
X149457539Y-101145268D01*
X149457539Y-101145268D02*
X149409920Y-101050030D01*
X149409920Y-101050030D02*
X149362300Y-101002411D01*
X148457539Y-102478601D02*
X148457539Y-102288125D01*
X148457539Y-102288125D02*
X148505158Y-102192887D01*
X148505158Y-102192887D02*
X148552777Y-102145268D01*
X148552777Y-102145268D02*
X148695634Y-102050030D01*
X148695634Y-102050030D02*
X148886110Y-102002411D01*
X148886110Y-102002411D02*
X149267062Y-102002411D01*
X149267062Y-102002411D02*
X149362300Y-102050030D01*
X149362300Y-102050030D02*
X149409920Y-102097649D01*
X149409920Y-102097649D02*
X149457539Y-102192887D01*
X149457539Y-102192887D02*
X149457539Y-102383363D01*
X149457539Y-102383363D02*
X149409920Y-102478601D01*
X149409920Y-102478601D02*
X149362300Y-102526220D01*
X149362300Y-102526220D02*
X149267062Y-102573839D01*
X149267062Y-102573839D02*
X149028967Y-102573839D01*
X149028967Y-102573839D02*
X148933729Y-102526220D01*
X148933729Y-102526220D02*
X148886110Y-102478601D01*
X148886110Y-102478601D02*
X148838491Y-102383363D01*
X148838491Y-102383363D02*
X148838491Y-102192887D01*
X148838491Y-102192887D02*
X148886110Y-102097649D01*
X148886110Y-102097649D02*
X148933729Y-102050030D01*
X148933729Y-102050030D02*
X149028967Y-102002411D01*
X156125158Y-98097649D02*
X156077539Y-98002411D01*
X156077539Y-98002411D02*
X156077539Y-97859554D01*
X156077539Y-97859554D02*
X156125158Y-97716697D01*
X156125158Y-97716697D02*
X156220396Y-97621459D01*
X156220396Y-97621459D02*
X156315634Y-97573840D01*
X156315634Y-97573840D02*
X156506110Y-97526221D01*
X156506110Y-97526221D02*
X156648967Y-97526221D01*
X156648967Y-97526221D02*
X156839443Y-97573840D01*
X156839443Y-97573840D02*
X156934681Y-97621459D01*
X156934681Y-97621459D02*
X157029920Y-97716697D01*
X157029920Y-97716697D02*
X157077539Y-97859554D01*
X157077539Y-97859554D02*
X157077539Y-97954792D01*
X157077539Y-97954792D02*
X157029920Y-98097649D01*
X157029920Y-98097649D02*
X156982300Y-98145268D01*
X156982300Y-98145268D02*
X156648967Y-98145268D01*
X156648967Y-98145268D02*
X156648967Y-97954792D01*
X157077539Y-98573840D02*
X156077539Y-98573840D01*
X156077539Y-98573840D02*
X156077539Y-98954792D01*
X156077539Y-98954792D02*
X156125158Y-99050030D01*
X156125158Y-99050030D02*
X156172777Y-99097649D01*
X156172777Y-99097649D02*
X156268015Y-99145268D01*
X156268015Y-99145268D02*
X156410872Y-99145268D01*
X156410872Y-99145268D02*
X156506110Y-99097649D01*
X156506110Y-99097649D02*
X156553729Y-99050030D01*
X156553729Y-99050030D02*
X156601348Y-98954792D01*
X156601348Y-98954792D02*
X156601348Y-98573840D01*
X157077539Y-99573840D02*
X156077539Y-99573840D01*
X156077539Y-100240506D02*
X156077539Y-100430982D01*
X156077539Y-100430982D02*
X156125158Y-100526220D01*
X156125158Y-100526220D02*
X156220396Y-100621458D01*
X156220396Y-100621458D02*
X156410872Y-100669077D01*
X156410872Y-100669077D02*
X156744205Y-100669077D01*
X156744205Y-100669077D02*
X156934681Y-100621458D01*
X156934681Y-100621458D02*
X157029920Y-100526220D01*
X157029920Y-100526220D02*
X157077539Y-100430982D01*
X157077539Y-100430982D02*
X157077539Y-100240506D01*
X157077539Y-100240506D02*
X157029920Y-100145268D01*
X157029920Y-100145268D02*
X156934681Y-100050030D01*
X156934681Y-100050030D02*
X156744205Y-100002411D01*
X156744205Y-100002411D02*
X156410872Y-100002411D01*
X156410872Y-100002411D02*
X156220396Y-100050030D01*
X156220396Y-100050030D02*
X156125158Y-100145268D01*
X156125158Y-100145268D02*
X156077539Y-100240506D01*
X156410872Y-101526220D02*
X157077539Y-101526220D01*
X156029920Y-101288125D02*
X156744205Y-101050030D01*
X156744205Y-101050030D02*
X156744205Y-101669077D01*
X156077539Y-102526220D02*
X156077539Y-102050030D01*
X156077539Y-102050030D02*
X156553729Y-102002411D01*
X156553729Y-102002411D02*
X156506110Y-102050030D01*
X156506110Y-102050030D02*
X156458491Y-102145268D01*
X156458491Y-102145268D02*
X156458491Y-102383363D01*
X156458491Y-102383363D02*
X156506110Y-102478601D01*
X156506110Y-102478601D02*
X156553729Y-102526220D01*
X156553729Y-102526220D02*
X156648967Y-102573839D01*
X156648967Y-102573839D02*
X156887062Y-102573839D01*
X156887062Y-102573839D02*
X156982300Y-102526220D01*
X156982300Y-102526220D02*
X157029920Y-102478601D01*
X157029920Y-102478601D02*
X157077539Y-102383363D01*
X157077539Y-102383363D02*
X157077539Y-102145268D01*
X157077539Y-102145268D02*
X157029920Y-102050030D01*
X157029920Y-102050030D02*
X156982300Y-102002411D01*
X163745158Y-98097649D02*
X163697539Y-98002411D01*
X163697539Y-98002411D02*
X163697539Y-97859554D01*
X163697539Y-97859554D02*
X163745158Y-97716697D01*
X163745158Y-97716697D02*
X163840396Y-97621459D01*
X163840396Y-97621459D02*
X163935634Y-97573840D01*
X163935634Y-97573840D02*
X164126110Y-97526221D01*
X164126110Y-97526221D02*
X164268967Y-97526221D01*
X164268967Y-97526221D02*
X164459443Y-97573840D01*
X164459443Y-97573840D02*
X164554681Y-97621459D01*
X164554681Y-97621459D02*
X164649920Y-97716697D01*
X164649920Y-97716697D02*
X164697539Y-97859554D01*
X164697539Y-97859554D02*
X164697539Y-97954792D01*
X164697539Y-97954792D02*
X164649920Y-98097649D01*
X164649920Y-98097649D02*
X164602300Y-98145268D01*
X164602300Y-98145268D02*
X164268967Y-98145268D01*
X164268967Y-98145268D02*
X164268967Y-97954792D01*
X164697539Y-98573840D02*
X163697539Y-98573840D01*
X163697539Y-98573840D02*
X163697539Y-98954792D01*
X163697539Y-98954792D02*
X163745158Y-99050030D01*
X163745158Y-99050030D02*
X163792777Y-99097649D01*
X163792777Y-99097649D02*
X163888015Y-99145268D01*
X163888015Y-99145268D02*
X164030872Y-99145268D01*
X164030872Y-99145268D02*
X164126110Y-99097649D01*
X164126110Y-99097649D02*
X164173729Y-99050030D01*
X164173729Y-99050030D02*
X164221348Y-98954792D01*
X164221348Y-98954792D02*
X164221348Y-98573840D01*
X164697539Y-99573840D02*
X163697539Y-99573840D01*
X163697539Y-100240506D02*
X163697539Y-100430982D01*
X163697539Y-100430982D02*
X163745158Y-100526220D01*
X163745158Y-100526220D02*
X163840396Y-100621458D01*
X163840396Y-100621458D02*
X164030872Y-100669077D01*
X164030872Y-100669077D02*
X164364205Y-100669077D01*
X164364205Y-100669077D02*
X164554681Y-100621458D01*
X164554681Y-100621458D02*
X164649920Y-100526220D01*
X164649920Y-100526220D02*
X164697539Y-100430982D01*
X164697539Y-100430982D02*
X164697539Y-100240506D01*
X164697539Y-100240506D02*
X164649920Y-100145268D01*
X164649920Y-100145268D02*
X164554681Y-100050030D01*
X164554681Y-100050030D02*
X164364205Y-100002411D01*
X164364205Y-100002411D02*
X164030872Y-100002411D01*
X164030872Y-100002411D02*
X163840396Y-100050030D01*
X163840396Y-100050030D02*
X163745158Y-100145268D01*
X163745158Y-100145268D02*
X163697539Y-100240506D01*
X163792777Y-101050030D02*
X163745158Y-101097649D01*
X163745158Y-101097649D02*
X163697539Y-101192887D01*
X163697539Y-101192887D02*
X163697539Y-101430982D01*
X163697539Y-101430982D02*
X163745158Y-101526220D01*
X163745158Y-101526220D02*
X163792777Y-101573839D01*
X163792777Y-101573839D02*
X163888015Y-101621458D01*
X163888015Y-101621458D02*
X163983253Y-101621458D01*
X163983253Y-101621458D02*
X164126110Y-101573839D01*
X164126110Y-101573839D02*
X164697539Y-101002411D01*
X164697539Y-101002411D02*
X164697539Y-101621458D01*
X164697539Y-102573839D02*
X164697539Y-102002411D01*
X164697539Y-102288125D02*
X163697539Y-102288125D01*
X163697539Y-102288125D02*
X163840396Y-102192887D01*
X163840396Y-102192887D02*
X163935634Y-102097649D01*
X163935634Y-102097649D02*
X163983253Y-102002411D01*
X130725158Y-83403588D02*
X130677539Y-83308350D01*
X130677539Y-83308350D02*
X130677539Y-83165493D01*
X130677539Y-83165493D02*
X130725158Y-83022636D01*
X130725158Y-83022636D02*
X130820396Y-82927398D01*
X130820396Y-82927398D02*
X130915634Y-82879779D01*
X130915634Y-82879779D02*
X131106110Y-82832160D01*
X131106110Y-82832160D02*
X131248967Y-82832160D01*
X131248967Y-82832160D02*
X131439443Y-82879779D01*
X131439443Y-82879779D02*
X131534681Y-82927398D01*
X131534681Y-82927398D02*
X131629920Y-83022636D01*
X131629920Y-83022636D02*
X131677539Y-83165493D01*
X131677539Y-83165493D02*
X131677539Y-83260731D01*
X131677539Y-83260731D02*
X131629920Y-83403588D01*
X131629920Y-83403588D02*
X131582300Y-83451207D01*
X131582300Y-83451207D02*
X131248967Y-83451207D01*
X131248967Y-83451207D02*
X131248967Y-83260731D01*
X131677539Y-83879779D02*
X130677539Y-83879779D01*
X130677539Y-83879779D02*
X130677539Y-84260731D01*
X130677539Y-84260731D02*
X130725158Y-84355969D01*
X130725158Y-84355969D02*
X130772777Y-84403588D01*
X130772777Y-84403588D02*
X130868015Y-84451207D01*
X130868015Y-84451207D02*
X131010872Y-84451207D01*
X131010872Y-84451207D02*
X131106110Y-84403588D01*
X131106110Y-84403588D02*
X131153729Y-84355969D01*
X131153729Y-84355969D02*
X131201348Y-84260731D01*
X131201348Y-84260731D02*
X131201348Y-83879779D01*
X131677539Y-84879779D02*
X130677539Y-84879779D01*
X130677539Y-85546445D02*
X130677539Y-85736921D01*
X130677539Y-85736921D02*
X130725158Y-85832159D01*
X130725158Y-85832159D02*
X130820396Y-85927397D01*
X130820396Y-85927397D02*
X131010872Y-85975016D01*
X131010872Y-85975016D02*
X131344205Y-85975016D01*
X131344205Y-85975016D02*
X131534681Y-85927397D01*
X131534681Y-85927397D02*
X131629920Y-85832159D01*
X131629920Y-85832159D02*
X131677539Y-85736921D01*
X131677539Y-85736921D02*
X131677539Y-85546445D01*
X131677539Y-85546445D02*
X131629920Y-85451207D01*
X131629920Y-85451207D02*
X131534681Y-85355969D01*
X131534681Y-85355969D02*
X131344205Y-85308350D01*
X131344205Y-85308350D02*
X131010872Y-85308350D01*
X131010872Y-85308350D02*
X130820396Y-85355969D01*
X130820396Y-85355969D02*
X130725158Y-85451207D01*
X130725158Y-85451207D02*
X130677539Y-85546445D01*
X130677539Y-86879778D02*
X130677539Y-86403588D01*
X130677539Y-86403588D02*
X131153729Y-86355969D01*
X131153729Y-86355969D02*
X131106110Y-86403588D01*
X131106110Y-86403588D02*
X131058491Y-86498826D01*
X131058491Y-86498826D02*
X131058491Y-86736921D01*
X131058491Y-86736921D02*
X131106110Y-86832159D01*
X131106110Y-86832159D02*
X131153729Y-86879778D01*
X131153729Y-86879778D02*
X131248967Y-86927397D01*
X131248967Y-86927397D02*
X131487062Y-86927397D01*
X131487062Y-86927397D02*
X131582300Y-86879778D01*
X131582300Y-86879778D02*
X131629920Y-86832159D01*
X131629920Y-86832159D02*
X131677539Y-86736921D01*
X131677539Y-86736921D02*
X131677539Y-86498826D01*
X131677539Y-86498826D02*
X131629920Y-86403588D01*
X131629920Y-86403588D02*
X131582300Y-86355969D01*
X173902438Y-83653908D02*
X173854819Y-83558670D01*
X173854819Y-83558670D02*
X173854819Y-83415813D01*
X173854819Y-83415813D02*
X173902438Y-83272956D01*
X173902438Y-83272956D02*
X173997676Y-83177718D01*
X173997676Y-83177718D02*
X174092914Y-83130099D01*
X174092914Y-83130099D02*
X174283390Y-83082480D01*
X174283390Y-83082480D02*
X174426247Y-83082480D01*
X174426247Y-83082480D02*
X174616723Y-83130099D01*
X174616723Y-83130099D02*
X174711961Y-83177718D01*
X174711961Y-83177718D02*
X174807200Y-83272956D01*
X174807200Y-83272956D02*
X174854819Y-83415813D01*
X174854819Y-83415813D02*
X174854819Y-83511051D01*
X174854819Y-83511051D02*
X174807200Y-83653908D01*
X174807200Y-83653908D02*
X174759580Y-83701527D01*
X174759580Y-83701527D02*
X174426247Y-83701527D01*
X174426247Y-83701527D02*
X174426247Y-83511051D01*
X174854819Y-84130099D02*
X173854819Y-84130099D01*
X173854819Y-84130099D02*
X174854819Y-84701527D01*
X174854819Y-84701527D02*
X173854819Y-84701527D01*
X174854819Y-85177718D02*
X173854819Y-85177718D01*
X173854819Y-85177718D02*
X173854819Y-85415813D01*
X173854819Y-85415813D02*
X173902438Y-85558670D01*
X173902438Y-85558670D02*
X173997676Y-85653908D01*
X173997676Y-85653908D02*
X174092914Y-85701527D01*
X174092914Y-85701527D02*
X174283390Y-85749146D01*
X174283390Y-85749146D02*
X174426247Y-85749146D01*
X174426247Y-85749146D02*
X174616723Y-85701527D01*
X174616723Y-85701527D02*
X174711961Y-85653908D01*
X174711961Y-85653908D02*
X174807200Y-85558670D01*
X174807200Y-85558670D02*
X174854819Y-85415813D01*
X174854819Y-85415813D02*
X174854819Y-85177718D01*
X161205158Y-83403588D02*
X161157539Y-83308350D01*
X161157539Y-83308350D02*
X161157539Y-83165493D01*
X161157539Y-83165493D02*
X161205158Y-83022636D01*
X161205158Y-83022636D02*
X161300396Y-82927398D01*
X161300396Y-82927398D02*
X161395634Y-82879779D01*
X161395634Y-82879779D02*
X161586110Y-82832160D01*
X161586110Y-82832160D02*
X161728967Y-82832160D01*
X161728967Y-82832160D02*
X161919443Y-82879779D01*
X161919443Y-82879779D02*
X162014681Y-82927398D01*
X162014681Y-82927398D02*
X162109920Y-83022636D01*
X162109920Y-83022636D02*
X162157539Y-83165493D01*
X162157539Y-83165493D02*
X162157539Y-83260731D01*
X162157539Y-83260731D02*
X162109920Y-83403588D01*
X162109920Y-83403588D02*
X162062300Y-83451207D01*
X162062300Y-83451207D02*
X161728967Y-83451207D01*
X161728967Y-83451207D02*
X161728967Y-83260731D01*
X162157539Y-83879779D02*
X161157539Y-83879779D01*
X161157539Y-83879779D02*
X161157539Y-84260731D01*
X161157539Y-84260731D02*
X161205158Y-84355969D01*
X161205158Y-84355969D02*
X161252777Y-84403588D01*
X161252777Y-84403588D02*
X161348015Y-84451207D01*
X161348015Y-84451207D02*
X161490872Y-84451207D01*
X161490872Y-84451207D02*
X161586110Y-84403588D01*
X161586110Y-84403588D02*
X161633729Y-84355969D01*
X161633729Y-84355969D02*
X161681348Y-84260731D01*
X161681348Y-84260731D02*
X161681348Y-83879779D01*
X162157539Y-84879779D02*
X161157539Y-84879779D01*
X161157539Y-85546445D02*
X161157539Y-85736921D01*
X161157539Y-85736921D02*
X161205158Y-85832159D01*
X161205158Y-85832159D02*
X161300396Y-85927397D01*
X161300396Y-85927397D02*
X161490872Y-85975016D01*
X161490872Y-85975016D02*
X161824205Y-85975016D01*
X161824205Y-85975016D02*
X162014681Y-85927397D01*
X162014681Y-85927397D02*
X162109920Y-85832159D01*
X162109920Y-85832159D02*
X162157539Y-85736921D01*
X162157539Y-85736921D02*
X162157539Y-85546445D01*
X162157539Y-85546445D02*
X162109920Y-85451207D01*
X162109920Y-85451207D02*
X162014681Y-85355969D01*
X162014681Y-85355969D02*
X161824205Y-85308350D01*
X161824205Y-85308350D02*
X161490872Y-85308350D01*
X161490872Y-85308350D02*
X161300396Y-85355969D01*
X161300396Y-85355969D02*
X161205158Y-85451207D01*
X161205158Y-85451207D02*
X161157539Y-85546445D01*
X162157539Y-86927397D02*
X162157539Y-86355969D01*
X162157539Y-86641683D02*
X161157539Y-86641683D01*
X161157539Y-86641683D02*
X161300396Y-86546445D01*
X161300396Y-86546445D02*
X161395634Y-86451207D01*
X161395634Y-86451207D02*
X161443253Y-86355969D01*
X162157539Y-87879778D02*
X162157539Y-87308350D01*
X162157539Y-87594064D02*
X161157539Y-87594064D01*
X161157539Y-87594064D02*
X161300396Y-87498826D01*
X161300396Y-87498826D02*
X161395634Y-87403588D01*
X161395634Y-87403588D02*
X161443253Y-87308350D01*
X126071009Y-82774921D02*
X126071009Y-83108254D01*
X126594819Y-83251111D02*
X126594819Y-82774921D01*
X126594819Y-82774921D02*
X125594819Y-82774921D01*
X125594819Y-82774921D02*
X125594819Y-83251111D01*
X126594819Y-83679683D02*
X125594819Y-83679683D01*
X125594819Y-83679683D02*
X126594819Y-84251111D01*
X126594819Y-84251111D02*
X125594819Y-84251111D01*
X125547200Y-85441587D02*
X126832914Y-84584445D01*
X126594819Y-86346349D02*
X126118628Y-86013016D01*
X126594819Y-85774921D02*
X125594819Y-85774921D01*
X125594819Y-85774921D02*
X125594819Y-86155873D01*
X125594819Y-86155873D02*
X125642438Y-86251111D01*
X125642438Y-86251111D02*
X125690057Y-86298730D01*
X125690057Y-86298730D02*
X125785295Y-86346349D01*
X125785295Y-86346349D02*
X125928152Y-86346349D01*
X125928152Y-86346349D02*
X126023390Y-86298730D01*
X126023390Y-86298730D02*
X126071009Y-86251111D01*
X126071009Y-86251111D02*
X126118628Y-86155873D01*
X126118628Y-86155873D02*
X126118628Y-85774921D01*
X126071009Y-86774921D02*
X126071009Y-87108254D01*
X126594819Y-87251111D02*
X126594819Y-86774921D01*
X126594819Y-86774921D02*
X125594819Y-86774921D01*
X125594819Y-86774921D02*
X125594819Y-87251111D01*
X126547200Y-87632064D02*
X126594819Y-87774921D01*
X126594819Y-87774921D02*
X126594819Y-88013016D01*
X126594819Y-88013016D02*
X126547200Y-88108254D01*
X126547200Y-88108254D02*
X126499580Y-88155873D01*
X126499580Y-88155873D02*
X126404342Y-88203492D01*
X126404342Y-88203492D02*
X126309104Y-88203492D01*
X126309104Y-88203492D02*
X126213866Y-88155873D01*
X126213866Y-88155873D02*
X126166247Y-88108254D01*
X126166247Y-88108254D02*
X126118628Y-88013016D01*
X126118628Y-88013016D02*
X126071009Y-87822540D01*
X126071009Y-87822540D02*
X126023390Y-87727302D01*
X126023390Y-87727302D02*
X125975771Y-87679683D01*
X125975771Y-87679683D02*
X125880533Y-87632064D01*
X125880533Y-87632064D02*
X125785295Y-87632064D01*
X125785295Y-87632064D02*
X125690057Y-87679683D01*
X125690057Y-87679683D02*
X125642438Y-87727302D01*
X125642438Y-87727302D02*
X125594819Y-87822540D01*
X125594819Y-87822540D02*
X125594819Y-88060635D01*
X125594819Y-88060635D02*
X125642438Y-88203492D01*
X126071009Y-88632064D02*
X126071009Y-88965397D01*
X126594819Y-89108254D02*
X126594819Y-88632064D01*
X126594819Y-88632064D02*
X125594819Y-88632064D01*
X125594819Y-88632064D02*
X125594819Y-89108254D01*
X125594819Y-89393969D02*
X125594819Y-89965397D01*
X126594819Y-89679683D02*
X125594819Y-89679683D01*
X130725158Y-99050030D02*
X130677539Y-98954792D01*
X130677539Y-98954792D02*
X130677539Y-98811935D01*
X130677539Y-98811935D02*
X130725158Y-98669078D01*
X130725158Y-98669078D02*
X130820396Y-98573840D01*
X130820396Y-98573840D02*
X130915634Y-98526221D01*
X130915634Y-98526221D02*
X131106110Y-98478602D01*
X131106110Y-98478602D02*
X131248967Y-98478602D01*
X131248967Y-98478602D02*
X131439443Y-98526221D01*
X131439443Y-98526221D02*
X131534681Y-98573840D01*
X131534681Y-98573840D02*
X131629920Y-98669078D01*
X131629920Y-98669078D02*
X131677539Y-98811935D01*
X131677539Y-98811935D02*
X131677539Y-98907173D01*
X131677539Y-98907173D02*
X131629920Y-99050030D01*
X131629920Y-99050030D02*
X131582300Y-99097649D01*
X131582300Y-99097649D02*
X131248967Y-99097649D01*
X131248967Y-99097649D02*
X131248967Y-98907173D01*
X131677539Y-99526221D02*
X130677539Y-99526221D01*
X130677539Y-99526221D02*
X130677539Y-99907173D01*
X130677539Y-99907173D02*
X130725158Y-100002411D01*
X130725158Y-100002411D02*
X130772777Y-100050030D01*
X130772777Y-100050030D02*
X130868015Y-100097649D01*
X130868015Y-100097649D02*
X131010872Y-100097649D01*
X131010872Y-100097649D02*
X131106110Y-100050030D01*
X131106110Y-100050030D02*
X131153729Y-100002411D01*
X131153729Y-100002411D02*
X131201348Y-99907173D01*
X131201348Y-99907173D02*
X131201348Y-99526221D01*
X131677539Y-100526221D02*
X130677539Y-100526221D01*
X130677539Y-101192887D02*
X130677539Y-101383363D01*
X130677539Y-101383363D02*
X130725158Y-101478601D01*
X130725158Y-101478601D02*
X130820396Y-101573839D01*
X130820396Y-101573839D02*
X131010872Y-101621458D01*
X131010872Y-101621458D02*
X131344205Y-101621458D01*
X131344205Y-101621458D02*
X131534681Y-101573839D01*
X131534681Y-101573839D02*
X131629920Y-101478601D01*
X131629920Y-101478601D02*
X131677539Y-101383363D01*
X131677539Y-101383363D02*
X131677539Y-101192887D01*
X131677539Y-101192887D02*
X131629920Y-101097649D01*
X131629920Y-101097649D02*
X131534681Y-101002411D01*
X131534681Y-101002411D02*
X131344205Y-100954792D01*
X131344205Y-100954792D02*
X131010872Y-100954792D01*
X131010872Y-100954792D02*
X130820396Y-101002411D01*
X130820396Y-101002411D02*
X130725158Y-101097649D01*
X130725158Y-101097649D02*
X130677539Y-101192887D01*
X130772777Y-102002411D02*
X130725158Y-102050030D01*
X130725158Y-102050030D02*
X130677539Y-102145268D01*
X130677539Y-102145268D02*
X130677539Y-102383363D01*
X130677539Y-102383363D02*
X130725158Y-102478601D01*
X130725158Y-102478601D02*
X130772777Y-102526220D01*
X130772777Y-102526220D02*
X130868015Y-102573839D01*
X130868015Y-102573839D02*
X130963253Y-102573839D01*
X130963253Y-102573839D02*
X131106110Y-102526220D01*
X131106110Y-102526220D02*
X131677539Y-101954792D01*
X131677539Y-101954792D02*
X131677539Y-102573839D01*
X158665158Y-98097649D02*
X158617539Y-98002411D01*
X158617539Y-98002411D02*
X158617539Y-97859554D01*
X158617539Y-97859554D02*
X158665158Y-97716697D01*
X158665158Y-97716697D02*
X158760396Y-97621459D01*
X158760396Y-97621459D02*
X158855634Y-97573840D01*
X158855634Y-97573840D02*
X159046110Y-97526221D01*
X159046110Y-97526221D02*
X159188967Y-97526221D01*
X159188967Y-97526221D02*
X159379443Y-97573840D01*
X159379443Y-97573840D02*
X159474681Y-97621459D01*
X159474681Y-97621459D02*
X159569920Y-97716697D01*
X159569920Y-97716697D02*
X159617539Y-97859554D01*
X159617539Y-97859554D02*
X159617539Y-97954792D01*
X159617539Y-97954792D02*
X159569920Y-98097649D01*
X159569920Y-98097649D02*
X159522300Y-98145268D01*
X159522300Y-98145268D02*
X159188967Y-98145268D01*
X159188967Y-98145268D02*
X159188967Y-97954792D01*
X159617539Y-98573840D02*
X158617539Y-98573840D01*
X158617539Y-98573840D02*
X158617539Y-98954792D01*
X158617539Y-98954792D02*
X158665158Y-99050030D01*
X158665158Y-99050030D02*
X158712777Y-99097649D01*
X158712777Y-99097649D02*
X158808015Y-99145268D01*
X158808015Y-99145268D02*
X158950872Y-99145268D01*
X158950872Y-99145268D02*
X159046110Y-99097649D01*
X159046110Y-99097649D02*
X159093729Y-99050030D01*
X159093729Y-99050030D02*
X159141348Y-98954792D01*
X159141348Y-98954792D02*
X159141348Y-98573840D01*
X159617539Y-99573840D02*
X158617539Y-99573840D01*
X158617539Y-100240506D02*
X158617539Y-100430982D01*
X158617539Y-100430982D02*
X158665158Y-100526220D01*
X158665158Y-100526220D02*
X158760396Y-100621458D01*
X158760396Y-100621458D02*
X158950872Y-100669077D01*
X158950872Y-100669077D02*
X159284205Y-100669077D01*
X159284205Y-100669077D02*
X159474681Y-100621458D01*
X159474681Y-100621458D02*
X159569920Y-100526220D01*
X159569920Y-100526220D02*
X159617539Y-100430982D01*
X159617539Y-100430982D02*
X159617539Y-100240506D01*
X159617539Y-100240506D02*
X159569920Y-100145268D01*
X159569920Y-100145268D02*
X159474681Y-100050030D01*
X159474681Y-100050030D02*
X159284205Y-100002411D01*
X159284205Y-100002411D02*
X158950872Y-100002411D01*
X158950872Y-100002411D02*
X158760396Y-100050030D01*
X158760396Y-100050030D02*
X158665158Y-100145268D01*
X158665158Y-100145268D02*
X158617539Y-100240506D01*
X158950872Y-101526220D02*
X159617539Y-101526220D01*
X158569920Y-101288125D02*
X159284205Y-101050030D01*
X159284205Y-101050030D02*
X159284205Y-101669077D01*
X159046110Y-102192887D02*
X158998491Y-102097649D01*
X158998491Y-102097649D02*
X158950872Y-102050030D01*
X158950872Y-102050030D02*
X158855634Y-102002411D01*
X158855634Y-102002411D02*
X158808015Y-102002411D01*
X158808015Y-102002411D02*
X158712777Y-102050030D01*
X158712777Y-102050030D02*
X158665158Y-102097649D01*
X158665158Y-102097649D02*
X158617539Y-102192887D01*
X158617539Y-102192887D02*
X158617539Y-102383363D01*
X158617539Y-102383363D02*
X158665158Y-102478601D01*
X158665158Y-102478601D02*
X158712777Y-102526220D01*
X158712777Y-102526220D02*
X158808015Y-102573839D01*
X158808015Y-102573839D02*
X158855634Y-102573839D01*
X158855634Y-102573839D02*
X158950872Y-102526220D01*
X158950872Y-102526220D02*
X158998491Y-102478601D01*
X158998491Y-102478601D02*
X159046110Y-102383363D01*
X159046110Y-102383363D02*
X159046110Y-102192887D01*
X159046110Y-102192887D02*
X159093729Y-102097649D01*
X159093729Y-102097649D02*
X159141348Y-102050030D01*
X159141348Y-102050030D02*
X159236586Y-102002411D01*
X159236586Y-102002411D02*
X159427062Y-102002411D01*
X159427062Y-102002411D02*
X159522300Y-102050030D01*
X159522300Y-102050030D02*
X159569920Y-102097649D01*
X159569920Y-102097649D02*
X159617539Y-102192887D01*
X159617539Y-102192887D02*
X159617539Y-102383363D01*
X159617539Y-102383363D02*
X159569920Y-102478601D01*
X159569920Y-102478601D02*
X159522300Y-102526220D01*
X159522300Y-102526220D02*
X159427062Y-102573839D01*
X159427062Y-102573839D02*
X159236586Y-102573839D01*
X159236586Y-102573839D02*
X159141348Y-102526220D01*
X159141348Y-102526220D02*
X159093729Y-102478601D01*
X159093729Y-102478601D02*
X159046110Y-102383363D01*
X128185158Y-83403588D02*
X128137539Y-83308350D01*
X128137539Y-83308350D02*
X128137539Y-83165493D01*
X128137539Y-83165493D02*
X128185158Y-83022636D01*
X128185158Y-83022636D02*
X128280396Y-82927398D01*
X128280396Y-82927398D02*
X128375634Y-82879779D01*
X128375634Y-82879779D02*
X128566110Y-82832160D01*
X128566110Y-82832160D02*
X128708967Y-82832160D01*
X128708967Y-82832160D02*
X128899443Y-82879779D01*
X128899443Y-82879779D02*
X128994681Y-82927398D01*
X128994681Y-82927398D02*
X129089920Y-83022636D01*
X129089920Y-83022636D02*
X129137539Y-83165493D01*
X129137539Y-83165493D02*
X129137539Y-83260731D01*
X129137539Y-83260731D02*
X129089920Y-83403588D01*
X129089920Y-83403588D02*
X129042300Y-83451207D01*
X129042300Y-83451207D02*
X128708967Y-83451207D01*
X128708967Y-83451207D02*
X128708967Y-83260731D01*
X129137539Y-83879779D02*
X128137539Y-83879779D01*
X128137539Y-83879779D02*
X128137539Y-84260731D01*
X128137539Y-84260731D02*
X128185158Y-84355969D01*
X128185158Y-84355969D02*
X128232777Y-84403588D01*
X128232777Y-84403588D02*
X128328015Y-84451207D01*
X128328015Y-84451207D02*
X128470872Y-84451207D01*
X128470872Y-84451207D02*
X128566110Y-84403588D01*
X128566110Y-84403588D02*
X128613729Y-84355969D01*
X128613729Y-84355969D02*
X128661348Y-84260731D01*
X128661348Y-84260731D02*
X128661348Y-83879779D01*
X129137539Y-84879779D02*
X128137539Y-84879779D01*
X128137539Y-85546445D02*
X128137539Y-85736921D01*
X128137539Y-85736921D02*
X128185158Y-85832159D01*
X128185158Y-85832159D02*
X128280396Y-85927397D01*
X128280396Y-85927397D02*
X128470872Y-85975016D01*
X128470872Y-85975016D02*
X128804205Y-85975016D01*
X128804205Y-85975016D02*
X128994681Y-85927397D01*
X128994681Y-85927397D02*
X129089920Y-85832159D01*
X129089920Y-85832159D02*
X129137539Y-85736921D01*
X129137539Y-85736921D02*
X129137539Y-85546445D01*
X129137539Y-85546445D02*
X129089920Y-85451207D01*
X129089920Y-85451207D02*
X128994681Y-85355969D01*
X128994681Y-85355969D02*
X128804205Y-85308350D01*
X128804205Y-85308350D02*
X128470872Y-85308350D01*
X128470872Y-85308350D02*
X128280396Y-85355969D01*
X128280396Y-85355969D02*
X128185158Y-85451207D01*
X128185158Y-85451207D02*
X128137539Y-85546445D01*
X128470872Y-86832159D02*
X129137539Y-86832159D01*
X128089920Y-86594064D02*
X128804205Y-86355969D01*
X128804205Y-86355969D02*
X128804205Y-86975016D01*
X128185158Y-99050030D02*
X128137539Y-98954792D01*
X128137539Y-98954792D02*
X128137539Y-98811935D01*
X128137539Y-98811935D02*
X128185158Y-98669078D01*
X128185158Y-98669078D02*
X128280396Y-98573840D01*
X128280396Y-98573840D02*
X128375634Y-98526221D01*
X128375634Y-98526221D02*
X128566110Y-98478602D01*
X128566110Y-98478602D02*
X128708967Y-98478602D01*
X128708967Y-98478602D02*
X128899443Y-98526221D01*
X128899443Y-98526221D02*
X128994681Y-98573840D01*
X128994681Y-98573840D02*
X129089920Y-98669078D01*
X129089920Y-98669078D02*
X129137539Y-98811935D01*
X129137539Y-98811935D02*
X129137539Y-98907173D01*
X129137539Y-98907173D02*
X129089920Y-99050030D01*
X129089920Y-99050030D02*
X129042300Y-99097649D01*
X129042300Y-99097649D02*
X128708967Y-99097649D01*
X128708967Y-99097649D02*
X128708967Y-98907173D01*
X129137539Y-99526221D02*
X128137539Y-99526221D01*
X128137539Y-99526221D02*
X128137539Y-99907173D01*
X128137539Y-99907173D02*
X128185158Y-100002411D01*
X128185158Y-100002411D02*
X128232777Y-100050030D01*
X128232777Y-100050030D02*
X128328015Y-100097649D01*
X128328015Y-100097649D02*
X128470872Y-100097649D01*
X128470872Y-100097649D02*
X128566110Y-100050030D01*
X128566110Y-100050030D02*
X128613729Y-100002411D01*
X128613729Y-100002411D02*
X128661348Y-99907173D01*
X128661348Y-99907173D02*
X128661348Y-99526221D01*
X129137539Y-100526221D02*
X128137539Y-100526221D01*
X128137539Y-101192887D02*
X128137539Y-101383363D01*
X128137539Y-101383363D02*
X128185158Y-101478601D01*
X128185158Y-101478601D02*
X128280396Y-101573839D01*
X128280396Y-101573839D02*
X128470872Y-101621458D01*
X128470872Y-101621458D02*
X128804205Y-101621458D01*
X128804205Y-101621458D02*
X128994681Y-101573839D01*
X128994681Y-101573839D02*
X129089920Y-101478601D01*
X129089920Y-101478601D02*
X129137539Y-101383363D01*
X129137539Y-101383363D02*
X129137539Y-101192887D01*
X129137539Y-101192887D02*
X129089920Y-101097649D01*
X129089920Y-101097649D02*
X128994681Y-101002411D01*
X128994681Y-101002411D02*
X128804205Y-100954792D01*
X128804205Y-100954792D02*
X128470872Y-100954792D01*
X128470872Y-100954792D02*
X128280396Y-101002411D01*
X128280396Y-101002411D02*
X128185158Y-101097649D01*
X128185158Y-101097649D02*
X128137539Y-101192887D01*
X129137539Y-102573839D02*
X129137539Y-102002411D01*
X129137539Y-102288125D02*
X128137539Y-102288125D01*
X128137539Y-102288125D02*
X128280396Y-102192887D01*
X128280396Y-102192887D02*
X128375634Y-102097649D01*
X128375634Y-102097649D02*
X128423253Y-102002411D01*
X171314819Y-83606289D02*
X171314819Y-83130099D01*
X171314819Y-83130099D02*
X171791009Y-83082480D01*
X171791009Y-83082480D02*
X171743390Y-83130099D01*
X171743390Y-83130099D02*
X171695771Y-83225337D01*
X171695771Y-83225337D02*
X171695771Y-83463432D01*
X171695771Y-83463432D02*
X171743390Y-83558670D01*
X171743390Y-83558670D02*
X171791009Y-83606289D01*
X171791009Y-83606289D02*
X171886247Y-83653908D01*
X171886247Y-83653908D02*
X172124342Y-83653908D01*
X172124342Y-83653908D02*
X172219580Y-83606289D01*
X172219580Y-83606289D02*
X172267200Y-83558670D01*
X172267200Y-83558670D02*
X172314819Y-83463432D01*
X172314819Y-83463432D02*
X172314819Y-83225337D01*
X172314819Y-83225337D02*
X172267200Y-83130099D01*
X172267200Y-83130099D02*
X172219580Y-83082480D01*
X171314819Y-83939623D02*
X172314819Y-84272956D01*
X172314819Y-84272956D02*
X171314819Y-84606289D01*
X166285158Y-98097649D02*
X166237539Y-98002411D01*
X166237539Y-98002411D02*
X166237539Y-97859554D01*
X166237539Y-97859554D02*
X166285158Y-97716697D01*
X166285158Y-97716697D02*
X166380396Y-97621459D01*
X166380396Y-97621459D02*
X166475634Y-97573840D01*
X166475634Y-97573840D02*
X166666110Y-97526221D01*
X166666110Y-97526221D02*
X166808967Y-97526221D01*
X166808967Y-97526221D02*
X166999443Y-97573840D01*
X166999443Y-97573840D02*
X167094681Y-97621459D01*
X167094681Y-97621459D02*
X167189920Y-97716697D01*
X167189920Y-97716697D02*
X167237539Y-97859554D01*
X167237539Y-97859554D02*
X167237539Y-97954792D01*
X167237539Y-97954792D02*
X167189920Y-98097649D01*
X167189920Y-98097649D02*
X167142300Y-98145268D01*
X167142300Y-98145268D02*
X166808967Y-98145268D01*
X166808967Y-98145268D02*
X166808967Y-97954792D01*
X167237539Y-98573840D02*
X166237539Y-98573840D01*
X166237539Y-98573840D02*
X166237539Y-98954792D01*
X166237539Y-98954792D02*
X166285158Y-99050030D01*
X166285158Y-99050030D02*
X166332777Y-99097649D01*
X166332777Y-99097649D02*
X166428015Y-99145268D01*
X166428015Y-99145268D02*
X166570872Y-99145268D01*
X166570872Y-99145268D02*
X166666110Y-99097649D01*
X166666110Y-99097649D02*
X166713729Y-99050030D01*
X166713729Y-99050030D02*
X166761348Y-98954792D01*
X166761348Y-98954792D02*
X166761348Y-98573840D01*
X167237539Y-99573840D02*
X166237539Y-99573840D01*
X166237539Y-100240506D02*
X166237539Y-100430982D01*
X166237539Y-100430982D02*
X166285158Y-100526220D01*
X166285158Y-100526220D02*
X166380396Y-100621458D01*
X166380396Y-100621458D02*
X166570872Y-100669077D01*
X166570872Y-100669077D02*
X166904205Y-100669077D01*
X166904205Y-100669077D02*
X167094681Y-100621458D01*
X167094681Y-100621458D02*
X167189920Y-100526220D01*
X167189920Y-100526220D02*
X167237539Y-100430982D01*
X167237539Y-100430982D02*
X167237539Y-100240506D01*
X167237539Y-100240506D02*
X167189920Y-100145268D01*
X167189920Y-100145268D02*
X167094681Y-100050030D01*
X167094681Y-100050030D02*
X166904205Y-100002411D01*
X166904205Y-100002411D02*
X166570872Y-100002411D01*
X166570872Y-100002411D02*
X166380396Y-100050030D01*
X166380396Y-100050030D02*
X166285158Y-100145268D01*
X166285158Y-100145268D02*
X166237539Y-100240506D01*
X166332777Y-101050030D02*
X166285158Y-101097649D01*
X166285158Y-101097649D02*
X166237539Y-101192887D01*
X166237539Y-101192887D02*
X166237539Y-101430982D01*
X166237539Y-101430982D02*
X166285158Y-101526220D01*
X166285158Y-101526220D02*
X166332777Y-101573839D01*
X166332777Y-101573839D02*
X166428015Y-101621458D01*
X166428015Y-101621458D02*
X166523253Y-101621458D01*
X166523253Y-101621458D02*
X166666110Y-101573839D01*
X166666110Y-101573839D02*
X167237539Y-101002411D01*
X167237539Y-101002411D02*
X167237539Y-101621458D01*
X166237539Y-102240506D02*
X166237539Y-102335744D01*
X166237539Y-102335744D02*
X166285158Y-102430982D01*
X166285158Y-102430982D02*
X166332777Y-102478601D01*
X166332777Y-102478601D02*
X166428015Y-102526220D01*
X166428015Y-102526220D02*
X166618491Y-102573839D01*
X166618491Y-102573839D02*
X166856586Y-102573839D01*
X166856586Y-102573839D02*
X167047062Y-102526220D01*
X167047062Y-102526220D02*
X167142300Y-102478601D01*
X167142300Y-102478601D02*
X167189920Y-102430982D01*
X167189920Y-102430982D02*
X167237539Y-102335744D01*
X167237539Y-102335744D02*
X167237539Y-102240506D01*
X167237539Y-102240506D02*
X167189920Y-102145268D01*
X167189920Y-102145268D02*
X167142300Y-102097649D01*
X167142300Y-102097649D02*
X167047062Y-102050030D01*
X167047062Y-102050030D02*
X166856586Y-102002411D01*
X166856586Y-102002411D02*
X166618491Y-102002411D01*
X166618491Y-102002411D02*
X166428015Y-102050030D01*
X166428015Y-102050030D02*
X166332777Y-102097649D01*
X166332777Y-102097649D02*
X166285158Y-102145268D01*
X166285158Y-102145268D02*
X166237539Y-102240506D01*
X135805158Y-83403588D02*
X135757539Y-83308350D01*
X135757539Y-83308350D02*
X135757539Y-83165493D01*
X135757539Y-83165493D02*
X135805158Y-83022636D01*
X135805158Y-83022636D02*
X135900396Y-82927398D01*
X135900396Y-82927398D02*
X135995634Y-82879779D01*
X135995634Y-82879779D02*
X136186110Y-82832160D01*
X136186110Y-82832160D02*
X136328967Y-82832160D01*
X136328967Y-82832160D02*
X136519443Y-82879779D01*
X136519443Y-82879779D02*
X136614681Y-82927398D01*
X136614681Y-82927398D02*
X136709920Y-83022636D01*
X136709920Y-83022636D02*
X136757539Y-83165493D01*
X136757539Y-83165493D02*
X136757539Y-83260731D01*
X136757539Y-83260731D02*
X136709920Y-83403588D01*
X136709920Y-83403588D02*
X136662300Y-83451207D01*
X136662300Y-83451207D02*
X136328967Y-83451207D01*
X136328967Y-83451207D02*
X136328967Y-83260731D01*
X136757539Y-83879779D02*
X135757539Y-83879779D01*
X135757539Y-83879779D02*
X135757539Y-84260731D01*
X135757539Y-84260731D02*
X135805158Y-84355969D01*
X135805158Y-84355969D02*
X135852777Y-84403588D01*
X135852777Y-84403588D02*
X135948015Y-84451207D01*
X135948015Y-84451207D02*
X136090872Y-84451207D01*
X136090872Y-84451207D02*
X136186110Y-84403588D01*
X136186110Y-84403588D02*
X136233729Y-84355969D01*
X136233729Y-84355969D02*
X136281348Y-84260731D01*
X136281348Y-84260731D02*
X136281348Y-83879779D01*
X136757539Y-84879779D02*
X135757539Y-84879779D01*
X135757539Y-85546445D02*
X135757539Y-85736921D01*
X135757539Y-85736921D02*
X135805158Y-85832159D01*
X135805158Y-85832159D02*
X135900396Y-85927397D01*
X135900396Y-85927397D02*
X136090872Y-85975016D01*
X136090872Y-85975016D02*
X136424205Y-85975016D01*
X136424205Y-85975016D02*
X136614681Y-85927397D01*
X136614681Y-85927397D02*
X136709920Y-85832159D01*
X136709920Y-85832159D02*
X136757539Y-85736921D01*
X136757539Y-85736921D02*
X136757539Y-85546445D01*
X136757539Y-85546445D02*
X136709920Y-85451207D01*
X136709920Y-85451207D02*
X136614681Y-85355969D01*
X136614681Y-85355969D02*
X136424205Y-85308350D01*
X136424205Y-85308350D02*
X136090872Y-85308350D01*
X136090872Y-85308350D02*
X135900396Y-85355969D01*
X135900396Y-85355969D02*
X135805158Y-85451207D01*
X135805158Y-85451207D02*
X135757539Y-85546445D01*
X135757539Y-86308350D02*
X135757539Y-86975016D01*
X135757539Y-86975016D02*
X136757539Y-86546445D01*
X173905158Y-100478601D02*
X173857539Y-100383363D01*
X173857539Y-100383363D02*
X173857539Y-100240506D01*
X173857539Y-100240506D02*
X173905158Y-100097649D01*
X173905158Y-100097649D02*
X174000396Y-100002411D01*
X174000396Y-100002411D02*
X174095634Y-99954792D01*
X174095634Y-99954792D02*
X174286110Y-99907173D01*
X174286110Y-99907173D02*
X174428967Y-99907173D01*
X174428967Y-99907173D02*
X174619443Y-99954792D01*
X174619443Y-99954792D02*
X174714681Y-100002411D01*
X174714681Y-100002411D02*
X174809920Y-100097649D01*
X174809920Y-100097649D02*
X174857539Y-100240506D01*
X174857539Y-100240506D02*
X174857539Y-100335744D01*
X174857539Y-100335744D02*
X174809920Y-100478601D01*
X174809920Y-100478601D02*
X174762300Y-100526220D01*
X174762300Y-100526220D02*
X174428967Y-100526220D01*
X174428967Y-100526220D02*
X174428967Y-100335744D01*
X174857539Y-100954792D02*
X173857539Y-100954792D01*
X173857539Y-100954792D02*
X174857539Y-101526220D01*
X174857539Y-101526220D02*
X173857539Y-101526220D01*
X174857539Y-102002411D02*
X173857539Y-102002411D01*
X173857539Y-102002411D02*
X173857539Y-102240506D01*
X173857539Y-102240506D02*
X173905158Y-102383363D01*
X173905158Y-102383363D02*
X174000396Y-102478601D01*
X174000396Y-102478601D02*
X174095634Y-102526220D01*
X174095634Y-102526220D02*
X174286110Y-102573839D01*
X174286110Y-102573839D02*
X174428967Y-102573839D01*
X174428967Y-102573839D02*
X174619443Y-102526220D01*
X174619443Y-102526220D02*
X174714681Y-102478601D01*
X174714681Y-102478601D02*
X174809920Y-102383363D01*
X174809920Y-102383363D02*
X174857539Y-102240506D01*
X174857539Y-102240506D02*
X174857539Y-102002411D01*
X120517539Y-82784541D02*
X120517539Y-83403588D01*
X120517539Y-83403588D02*
X120898491Y-83070255D01*
X120898491Y-83070255D02*
X120898491Y-83213112D01*
X120898491Y-83213112D02*
X120946110Y-83308350D01*
X120946110Y-83308350D02*
X120993729Y-83355969D01*
X120993729Y-83355969D02*
X121088967Y-83403588D01*
X121088967Y-83403588D02*
X121327062Y-83403588D01*
X121327062Y-83403588D02*
X121422300Y-83355969D01*
X121422300Y-83355969D02*
X121469920Y-83308350D01*
X121469920Y-83308350D02*
X121517539Y-83213112D01*
X121517539Y-83213112D02*
X121517539Y-82927398D01*
X121517539Y-82927398D02*
X121469920Y-82832160D01*
X121469920Y-82832160D02*
X121422300Y-82784541D01*
X120517539Y-83689303D02*
X121517539Y-84022636D01*
X121517539Y-84022636D02*
X120517539Y-84355969D01*
X120517539Y-84594065D02*
X120517539Y-85213112D01*
X120517539Y-85213112D02*
X120898491Y-84879779D01*
X120898491Y-84879779D02*
X120898491Y-85022636D01*
X120898491Y-85022636D02*
X120946110Y-85117874D01*
X120946110Y-85117874D02*
X120993729Y-85165493D01*
X120993729Y-85165493D02*
X121088967Y-85213112D01*
X121088967Y-85213112D02*
X121327062Y-85213112D01*
X121327062Y-85213112D02*
X121422300Y-85165493D01*
X121422300Y-85165493D02*
X121469920Y-85117874D01*
X121469920Y-85117874D02*
X121517539Y-85022636D01*
X121517539Y-85022636D02*
X121517539Y-84736922D01*
X121517539Y-84736922D02*
X121469920Y-84641684D01*
X121469920Y-84641684D02*
X121422300Y-84594065D01*
X138345158Y-83403588D02*
X138297539Y-83308350D01*
X138297539Y-83308350D02*
X138297539Y-83165493D01*
X138297539Y-83165493D02*
X138345158Y-83022636D01*
X138345158Y-83022636D02*
X138440396Y-82927398D01*
X138440396Y-82927398D02*
X138535634Y-82879779D01*
X138535634Y-82879779D02*
X138726110Y-82832160D01*
X138726110Y-82832160D02*
X138868967Y-82832160D01*
X138868967Y-82832160D02*
X139059443Y-82879779D01*
X139059443Y-82879779D02*
X139154681Y-82927398D01*
X139154681Y-82927398D02*
X139249920Y-83022636D01*
X139249920Y-83022636D02*
X139297539Y-83165493D01*
X139297539Y-83165493D02*
X139297539Y-83260731D01*
X139297539Y-83260731D02*
X139249920Y-83403588D01*
X139249920Y-83403588D02*
X139202300Y-83451207D01*
X139202300Y-83451207D02*
X138868967Y-83451207D01*
X138868967Y-83451207D02*
X138868967Y-83260731D01*
X139297539Y-83879779D02*
X138297539Y-83879779D01*
X138297539Y-83879779D02*
X138297539Y-84260731D01*
X138297539Y-84260731D02*
X138345158Y-84355969D01*
X138345158Y-84355969D02*
X138392777Y-84403588D01*
X138392777Y-84403588D02*
X138488015Y-84451207D01*
X138488015Y-84451207D02*
X138630872Y-84451207D01*
X138630872Y-84451207D02*
X138726110Y-84403588D01*
X138726110Y-84403588D02*
X138773729Y-84355969D01*
X138773729Y-84355969D02*
X138821348Y-84260731D01*
X138821348Y-84260731D02*
X138821348Y-83879779D01*
X139297539Y-84879779D02*
X138297539Y-84879779D01*
X138297539Y-85546445D02*
X138297539Y-85736921D01*
X138297539Y-85736921D02*
X138345158Y-85832159D01*
X138345158Y-85832159D02*
X138440396Y-85927397D01*
X138440396Y-85927397D02*
X138630872Y-85975016D01*
X138630872Y-85975016D02*
X138964205Y-85975016D01*
X138964205Y-85975016D02*
X139154681Y-85927397D01*
X139154681Y-85927397D02*
X139249920Y-85832159D01*
X139249920Y-85832159D02*
X139297539Y-85736921D01*
X139297539Y-85736921D02*
X139297539Y-85546445D01*
X139297539Y-85546445D02*
X139249920Y-85451207D01*
X139249920Y-85451207D02*
X139154681Y-85355969D01*
X139154681Y-85355969D02*
X138964205Y-85308350D01*
X138964205Y-85308350D02*
X138630872Y-85308350D01*
X138630872Y-85308350D02*
X138440396Y-85355969D01*
X138440396Y-85355969D02*
X138345158Y-85451207D01*
X138345158Y-85451207D02*
X138297539Y-85546445D01*
X139297539Y-86927397D02*
X139297539Y-86355969D01*
X139297539Y-86641683D02*
X138297539Y-86641683D01*
X138297539Y-86641683D02*
X138440396Y-86546445D01*
X138440396Y-86546445D02*
X138535634Y-86451207D01*
X138535634Y-86451207D02*
X138583253Y-86355969D01*
X138297539Y-87832159D02*
X138297539Y-87355969D01*
X138297539Y-87355969D02*
X138773729Y-87308350D01*
X138773729Y-87308350D02*
X138726110Y-87355969D01*
X138726110Y-87355969D02*
X138678491Y-87451207D01*
X138678491Y-87451207D02*
X138678491Y-87689302D01*
X138678491Y-87689302D02*
X138726110Y-87784540D01*
X138726110Y-87784540D02*
X138773729Y-87832159D01*
X138773729Y-87832159D02*
X138868967Y-87879778D01*
X138868967Y-87879778D02*
X139107062Y-87879778D01*
X139107062Y-87879778D02*
X139202300Y-87832159D01*
X139202300Y-87832159D02*
X139249920Y-87784540D01*
X139249920Y-87784540D02*
X139297539Y-87689302D01*
X139297539Y-87689302D02*
X139297539Y-87451207D01*
X139297539Y-87451207D02*
X139249920Y-87355969D01*
X139249920Y-87355969D02*
X139202300Y-87308350D01*
X166285158Y-83403588D02*
X166237539Y-83308350D01*
X166237539Y-83308350D02*
X166237539Y-83165493D01*
X166237539Y-83165493D02*
X166285158Y-83022636D01*
X166285158Y-83022636D02*
X166380396Y-82927398D01*
X166380396Y-82927398D02*
X166475634Y-82879779D01*
X166475634Y-82879779D02*
X166666110Y-82832160D01*
X166666110Y-82832160D02*
X166808967Y-82832160D01*
X166808967Y-82832160D02*
X166999443Y-82879779D01*
X166999443Y-82879779D02*
X167094681Y-82927398D01*
X167094681Y-82927398D02*
X167189920Y-83022636D01*
X167189920Y-83022636D02*
X167237539Y-83165493D01*
X167237539Y-83165493D02*
X167237539Y-83260731D01*
X167237539Y-83260731D02*
X167189920Y-83403588D01*
X167189920Y-83403588D02*
X167142300Y-83451207D01*
X167142300Y-83451207D02*
X166808967Y-83451207D01*
X166808967Y-83451207D02*
X166808967Y-83260731D01*
X167237539Y-83879779D02*
X166237539Y-83879779D01*
X166237539Y-83879779D02*
X166237539Y-84260731D01*
X166237539Y-84260731D02*
X166285158Y-84355969D01*
X166285158Y-84355969D02*
X166332777Y-84403588D01*
X166332777Y-84403588D02*
X166428015Y-84451207D01*
X166428015Y-84451207D02*
X166570872Y-84451207D01*
X166570872Y-84451207D02*
X166666110Y-84403588D01*
X166666110Y-84403588D02*
X166713729Y-84355969D01*
X166713729Y-84355969D02*
X166761348Y-84260731D01*
X166761348Y-84260731D02*
X166761348Y-83879779D01*
X167237539Y-84879779D02*
X166237539Y-84879779D01*
X166237539Y-85546445D02*
X166237539Y-85736921D01*
X166237539Y-85736921D02*
X166285158Y-85832159D01*
X166285158Y-85832159D02*
X166380396Y-85927397D01*
X166380396Y-85927397D02*
X166570872Y-85975016D01*
X166570872Y-85975016D02*
X166904205Y-85975016D01*
X166904205Y-85975016D02*
X167094681Y-85927397D01*
X167094681Y-85927397D02*
X167189920Y-85832159D01*
X167189920Y-85832159D02*
X167237539Y-85736921D01*
X167237539Y-85736921D02*
X167237539Y-85546445D01*
X167237539Y-85546445D02*
X167189920Y-85451207D01*
X167189920Y-85451207D02*
X167094681Y-85355969D01*
X167094681Y-85355969D02*
X166904205Y-85308350D01*
X166904205Y-85308350D02*
X166570872Y-85308350D01*
X166570872Y-85308350D02*
X166380396Y-85355969D01*
X166380396Y-85355969D02*
X166285158Y-85451207D01*
X166285158Y-85451207D02*
X166237539Y-85546445D01*
X167237539Y-86927397D02*
X167237539Y-86355969D01*
X167237539Y-86641683D02*
X166237539Y-86641683D01*
X166237539Y-86641683D02*
X166380396Y-86546445D01*
X166380396Y-86546445D02*
X166475634Y-86451207D01*
X166475634Y-86451207D02*
X166523253Y-86355969D01*
X166237539Y-87260731D02*
X166237539Y-87879778D01*
X166237539Y-87879778D02*
X166618491Y-87546445D01*
X166618491Y-87546445D02*
X166618491Y-87689302D01*
X166618491Y-87689302D02*
X166666110Y-87784540D01*
X166666110Y-87784540D02*
X166713729Y-87832159D01*
X166713729Y-87832159D02*
X166808967Y-87879778D01*
X166808967Y-87879778D02*
X167047062Y-87879778D01*
X167047062Y-87879778D02*
X167142300Y-87832159D01*
X167142300Y-87832159D02*
X167189920Y-87784540D01*
X167189920Y-87784540D02*
X167237539Y-87689302D01*
X167237539Y-87689302D02*
X167237539Y-87403588D01*
X167237539Y-87403588D02*
X167189920Y-87308350D01*
X167189920Y-87308350D02*
X167142300Y-87260731D01*
D10*
X183169047Y-135276109D02*
X183169047Y-134776109D01*
X183169047Y-134776109D02*
X183049999Y-134776109D01*
X183049999Y-134776109D02*
X182978571Y-134799919D01*
X182978571Y-134799919D02*
X182930952Y-134847538D01*
X182930952Y-134847538D02*
X182907142Y-134895157D01*
X182907142Y-134895157D02*
X182883333Y-134990395D01*
X182883333Y-134990395D02*
X182883333Y-135061823D01*
X182883333Y-135061823D02*
X182907142Y-135157061D01*
X182907142Y-135157061D02*
X182930952Y-135204680D01*
X182930952Y-135204680D02*
X182978571Y-135252300D01*
X182978571Y-135252300D02*
X183049999Y-135276109D01*
X183049999Y-135276109D02*
X183169047Y-135276109D01*
X182716666Y-134776109D02*
X182407142Y-134776109D01*
X182407142Y-134776109D02*
X182573809Y-134966585D01*
X182573809Y-134966585D02*
X182502380Y-134966585D01*
X182502380Y-134966585D02*
X182454761Y-134990395D01*
X182454761Y-134990395D02*
X182430952Y-135014204D01*
X182430952Y-135014204D02*
X182407142Y-135061823D01*
X182407142Y-135061823D02*
X182407142Y-135180871D01*
X182407142Y-135180871D02*
X182430952Y-135228490D01*
X182430952Y-135228490D02*
X182454761Y-135252300D01*
X182454761Y-135252300D02*
X182502380Y-135276109D01*
X182502380Y-135276109D02*
X182645237Y-135276109D01*
X182645237Y-135276109D02*
X182692856Y-135252300D01*
X182692856Y-135252300D02*
X182716666Y-135228490D01*
X95569047Y-135276109D02*
X95569047Y-134776109D01*
X95569047Y-134776109D02*
X95449999Y-134776109D01*
X95449999Y-134776109D02*
X95378571Y-134799919D01*
X95378571Y-134799919D02*
X95330952Y-134847538D01*
X95330952Y-134847538D02*
X95307142Y-134895157D01*
X95307142Y-134895157D02*
X95283333Y-134990395D01*
X95283333Y-134990395D02*
X95283333Y-135061823D01*
X95283333Y-135061823D02*
X95307142Y-135157061D01*
X95307142Y-135157061D02*
X95330952Y-135204680D01*
X95330952Y-135204680D02*
X95378571Y-135252300D01*
X95378571Y-135252300D02*
X95449999Y-135276109D01*
X95449999Y-135276109D02*
X95569047Y-135276109D01*
X94854761Y-134942776D02*
X94854761Y-135276109D01*
X94973809Y-134752300D02*
X95092856Y-135109442D01*
X95092856Y-135109442D02*
X94783333Y-135109442D01*
X183169047Y-71576109D02*
X183169047Y-71076109D01*
X183169047Y-71076109D02*
X183049999Y-71076109D01*
X183049999Y-71076109D02*
X182978571Y-71099919D01*
X182978571Y-71099919D02*
X182930952Y-71147538D01*
X182930952Y-71147538D02*
X182907142Y-71195157D01*
X182907142Y-71195157D02*
X182883333Y-71290395D01*
X182883333Y-71290395D02*
X182883333Y-71361823D01*
X182883333Y-71361823D02*
X182907142Y-71457061D01*
X182907142Y-71457061D02*
X182930952Y-71504680D01*
X182930952Y-71504680D02*
X182978571Y-71552300D01*
X182978571Y-71552300D02*
X183049999Y-71576109D01*
X183049999Y-71576109D02*
X183169047Y-71576109D01*
X182692856Y-71123728D02*
X182669047Y-71099919D01*
X182669047Y-71099919D02*
X182621428Y-71076109D01*
X182621428Y-71076109D02*
X182502380Y-71076109D01*
X182502380Y-71076109D02*
X182454761Y-71099919D01*
X182454761Y-71099919D02*
X182430952Y-71123728D01*
X182430952Y-71123728D02*
X182407142Y-71171347D01*
X182407142Y-71171347D02*
X182407142Y-71218966D01*
X182407142Y-71218966D02*
X182430952Y-71290395D01*
X182430952Y-71290395D02*
X182716666Y-71576109D01*
X182716666Y-71576109D02*
X182407142Y-71576109D01*
X174586667Y-107366800D02*
X174472381Y-107404895D01*
X174472381Y-107404895D02*
X174281905Y-107404895D01*
X174281905Y-107404895D02*
X174205714Y-107366800D01*
X174205714Y-107366800D02*
X174167619Y-107328704D01*
X174167619Y-107328704D02*
X174129524Y-107252514D01*
X174129524Y-107252514D02*
X174129524Y-107176323D01*
X174129524Y-107176323D02*
X174167619Y-107100133D01*
X174167619Y-107100133D02*
X174205714Y-107062038D01*
X174205714Y-107062038D02*
X174281905Y-107023942D01*
X174281905Y-107023942D02*
X174434286Y-106985847D01*
X174434286Y-106985847D02*
X174510476Y-106947752D01*
X174510476Y-106947752D02*
X174548571Y-106909657D01*
X174548571Y-106909657D02*
X174586667Y-106833466D01*
X174586667Y-106833466D02*
X174586667Y-106757276D01*
X174586667Y-106757276D02*
X174548571Y-106681085D01*
X174548571Y-106681085D02*
X174510476Y-106642990D01*
X174510476Y-106642990D02*
X174434286Y-106604895D01*
X174434286Y-106604895D02*
X174243809Y-106604895D01*
X174243809Y-106604895D02*
X174129524Y-106642990D01*
X173862857Y-106604895D02*
X173672381Y-107404895D01*
X173672381Y-107404895D02*
X173520000Y-106833466D01*
X173520000Y-106833466D02*
X173367619Y-107404895D01*
X173367619Y-107404895D02*
X173177143Y-106604895D01*
X172910476Y-106681085D02*
X172872380Y-106642990D01*
X172872380Y-106642990D02*
X172796190Y-106604895D01*
X172796190Y-106604895D02*
X172605714Y-106604895D01*
X172605714Y-106604895D02*
X172529523Y-106642990D01*
X172529523Y-106642990D02*
X172491428Y-106681085D01*
X172491428Y-106681085D02*
X172453333Y-106757276D01*
X172453333Y-106757276D02*
X172453333Y-106833466D01*
X172453333Y-106833466D02*
X172491428Y-106947752D01*
X172491428Y-106947752D02*
X172948571Y-107404895D01*
X172948571Y-107404895D02*
X172453333Y-107404895D01*
D12*
%TO.C,SW1*%
X173970000Y-87950000D02*
X173820000Y-88350000D01*
X173770000Y-88600000D01*
X173770000Y-88950000D01*
X173770000Y-89250000D01*
X173870000Y-89650000D01*
X174020000Y-90000000D01*
X174170000Y-90250000D01*
X174470000Y-90600000D01*
X174720000Y-90800000D01*
X175170000Y-91050000D01*
X173120000Y-91050000D01*
X172620000Y-91100000D01*
X172270000Y-91200000D01*
X172020000Y-91400000D01*
X171970000Y-90950000D01*
X171770000Y-90400000D01*
X171370000Y-89850000D01*
X171070000Y-89600000D01*
X170570000Y-89300000D01*
X169970000Y-89150000D01*
X169470000Y-89150000D01*
X169020000Y-89250000D01*
X168770000Y-89350000D01*
X168320000Y-89600000D01*
X168170000Y-89500000D01*
X168020000Y-89400000D01*
X168020000Y-89000000D01*
X168120000Y-88600000D01*
X168270000Y-88350000D01*
X168420000Y-88150000D01*
X168570000Y-88000000D01*
X168770000Y-87850000D01*
X168920000Y-87750000D01*
X169120000Y-87650000D01*
X169420000Y-87550000D01*
X169720000Y-87500000D01*
X169920000Y-87500000D01*
X174270000Y-87500000D01*
X173970000Y-87950000D01*
G36*
X173970000Y-87950000D02*
G01*
X173820000Y-88350000D01*
X173770000Y-88600000D01*
X173770000Y-88950000D01*
X173770000Y-89250000D01*
X173870000Y-89650000D01*
X174020000Y-90000000D01*
X174170000Y-90250000D01*
X174470000Y-90600000D01*
X174720000Y-90800000D01*
X175170000Y-91050000D01*
X173120000Y-91050000D01*
X172620000Y-91100000D01*
X172270000Y-91200000D01*
X172020000Y-91400000D01*
X171970000Y-90950000D01*
X171770000Y-90400000D01*
X171370000Y-89850000D01*
X171070000Y-89600000D01*
X170570000Y-89300000D01*
X169970000Y-89150000D01*
X169470000Y-89150000D01*
X169020000Y-89250000D01*
X168770000Y-89350000D01*
X168320000Y-89600000D01*
X168170000Y-89500000D01*
X168020000Y-89400000D01*
X168020000Y-89000000D01*
X168120000Y-88600000D01*
X168270000Y-88350000D01*
X168420000Y-88150000D01*
X168570000Y-88000000D01*
X168770000Y-87850000D01*
X168920000Y-87750000D01*
X169120000Y-87650000D01*
X169420000Y-87550000D01*
X169720000Y-87500000D01*
X169920000Y-87500000D01*
X174270000Y-87500000D01*
X173970000Y-87950000D01*
G37*
D13*
%TO.C,D1*%
X99250000Y-74800000D02*
X98000000Y-74800000D01*
X99250000Y-73650000D01*
X99250000Y-74800000D01*
G36*
X99250000Y-74800000D02*
G01*
X98000000Y-74800000D01*
X99250000Y-73650000D01*
X99250000Y-74800000D01*
G37*
D14*
%TO.C,U1*%
X114049600Y-83733120D02*
X114049600Y-101716320D01*
X114049600Y-101716320D02*
X119942400Y-101716320D01*
X119942400Y-83733120D02*
X114049600Y-83733120D01*
X119962720Y-79773001D02*
X183860000Y-79773000D01*
X119962720Y-105633000D02*
X119962720Y-79773001D01*
X183860000Y-79773000D02*
X183860000Y-105632999D01*
X183860000Y-105632999D02*
X119962720Y-105633000D01*
D13*
%TO.C,D3*%
X186850000Y-138500000D02*
X185600000Y-138500000D01*
X186850000Y-137350000D01*
X186850000Y-138500000D01*
G36*
X186850000Y-138500000D02*
G01*
X185600000Y-138500000D01*
X186850000Y-137350000D01*
X186850000Y-138500000D01*
G37*
%TO.C,D4*%
X99250000Y-138500000D02*
X98000000Y-138500000D01*
X99250000Y-137350000D01*
X99250000Y-138500000D01*
G36*
X99250000Y-138500000D02*
G01*
X98000000Y-138500000D01*
X99250000Y-137350000D01*
X99250000Y-138500000D01*
G37*
%TO.C,D2*%
X186850000Y-74800000D02*
X185600000Y-74800000D01*
X186850000Y-73650000D01*
X186850000Y-74800000D01*
G36*
X186850000Y-74800000D02*
G01*
X185600000Y-74800000D01*
X186850000Y-73650000D01*
X186850000Y-74800000D01*
G37*
D12*
%TO.C,SW2*%
X173970000Y-108490000D02*
X173820000Y-108890000D01*
X173770000Y-109140000D01*
X173770000Y-109490000D01*
X173770000Y-109790000D01*
X173870000Y-110190000D01*
X174020000Y-110540000D01*
X174170000Y-110790000D01*
X174470000Y-111140000D01*
X174720000Y-111340000D01*
X175170000Y-111590000D01*
X173120000Y-111590000D01*
X172620000Y-111640000D01*
X172270000Y-111740000D01*
X172020000Y-111940000D01*
X171970000Y-111490000D01*
X171770000Y-110940000D01*
X171370000Y-110390000D01*
X171070000Y-110140000D01*
X170570000Y-109840000D01*
X169970000Y-109690000D01*
X169470000Y-109690000D01*
X169020000Y-109790000D01*
X168770000Y-109890000D01*
X168320000Y-110140000D01*
X168170000Y-110040000D01*
X168020000Y-109940000D01*
X168020000Y-109540000D01*
X168120000Y-109140000D01*
X168270000Y-108890000D01*
X168420000Y-108690000D01*
X168570000Y-108540000D01*
X168770000Y-108390000D01*
X168920000Y-108290000D01*
X169120000Y-108190000D01*
X169420000Y-108090000D01*
X169720000Y-108040000D01*
X169920000Y-108040000D01*
X174270000Y-108040000D01*
X173970000Y-108490000D01*
G36*
X173970000Y-108490000D02*
G01*
X173820000Y-108890000D01*
X173770000Y-109140000D01*
X173770000Y-109490000D01*
X173770000Y-109790000D01*
X173870000Y-110190000D01*
X174020000Y-110540000D01*
X174170000Y-110790000D01*
X174470000Y-111140000D01*
X174720000Y-111340000D01*
X175170000Y-111590000D01*
X173120000Y-111590000D01*
X172620000Y-111640000D01*
X172270000Y-111740000D01*
X172020000Y-111940000D01*
X171970000Y-111490000D01*
X171770000Y-110940000D01*
X171370000Y-110390000D01*
X171070000Y-110140000D01*
X170570000Y-109840000D01*
X169970000Y-109690000D01*
X169470000Y-109690000D01*
X169020000Y-109790000D01*
X168770000Y-109890000D01*
X168320000Y-110140000D01*
X168170000Y-110040000D01*
X168020000Y-109940000D01*
X168020000Y-109540000D01*
X168120000Y-109140000D01*
X168270000Y-108890000D01*
X168420000Y-108690000D01*
X168570000Y-108540000D01*
X168770000Y-108390000D01*
X168920000Y-108290000D01*
X169120000Y-108190000D01*
X169420000Y-108090000D01*
X169720000Y-108040000D01*
X169920000Y-108040000D01*
X174270000Y-108040000D01*
X173970000Y-108490000D01*
G37*
%TD*%
M02*
