%TF.GenerationSoftware,KiCad,Pcbnew,9.0.9-9.0.9~ubuntu24.04.1*%
%TF.CreationDate,2026-08-14T00:59:38+09:00*%
%TF.ProjectId,tinygo-conf-2026,74696e79-676f-42d6-936f-6e662d323032,rev?*%
%TF.SameCoordinates,Original*%
%TF.FileFunction,Legend,Top*%
%TF.FilePolarity,Positive*%
%FSLAX46Y46*%
G04 Gerber Fmt 4.6, Leading zero omitted, Abs format (unit mm)*
G04 Created by KiCad (PCBNEW 9.0.9-9.0.9~ubuntu24.04.1) date 2026-08-14 00:59:38*
%MOMM*%
%LPD*%
G01*
G04 APERTURE LIST*
%ADD10C,0.300000*%
%ADD11C,0.150000*%
%ADD12C,0.100000*%
%ADD13C,0.152400*%
%ADD14C,0.120000*%
%ADD15C,0.203200*%
%ADD16C,0.050000*%
G04 APERTURE END LIST*
D10*
X131340225Y-84300828D02*
X132197368Y-84300828D01*
X131768796Y-85800828D02*
X131768796Y-84300828D01*
X132697367Y-85015114D02*
X133197367Y-85015114D01*
X133411653Y-85800828D02*
X132697367Y-85800828D01*
X132697367Y-85800828D02*
X132697367Y-84300828D01*
X132697367Y-84300828D02*
X133411653Y-84300828D01*
X133983082Y-85729400D02*
X134197368Y-85800828D01*
X134197368Y-85800828D02*
X134554510Y-85800828D01*
X134554510Y-85800828D02*
X134697368Y-85729400D01*
X134697368Y-85729400D02*
X134768796Y-85657971D01*
X134768796Y-85657971D02*
X134840225Y-85515114D01*
X134840225Y-85515114D02*
X134840225Y-85372257D01*
X134840225Y-85372257D02*
X134768796Y-85229400D01*
X134768796Y-85229400D02*
X134697368Y-85157971D01*
X134697368Y-85157971D02*
X134554510Y-85086542D01*
X134554510Y-85086542D02*
X134268796Y-85015114D01*
X134268796Y-85015114D02*
X134125939Y-84943685D01*
X134125939Y-84943685D02*
X134054510Y-84872257D01*
X134054510Y-84872257D02*
X133983082Y-84729400D01*
X133983082Y-84729400D02*
X133983082Y-84586542D01*
X133983082Y-84586542D02*
X134054510Y-84443685D01*
X134054510Y-84443685D02*
X134125939Y-84372257D01*
X134125939Y-84372257D02*
X134268796Y-84300828D01*
X134268796Y-84300828D02*
X134625939Y-84300828D01*
X134625939Y-84300828D02*
X134840225Y-84372257D01*
X135268796Y-84300828D02*
X136125939Y-84300828D01*
X135697367Y-85800828D02*
X135697367Y-84300828D01*
X137554510Y-84300828D02*
X138411653Y-84300828D01*
X137983081Y-85800828D02*
X137983081Y-84300828D01*
X138911652Y-85015114D02*
X139411652Y-85015114D01*
X139625938Y-85800828D02*
X138911652Y-85800828D01*
X138911652Y-85800828D02*
X138911652Y-84300828D01*
X138911652Y-84300828D02*
X139625938Y-84300828D01*
X140197367Y-85729400D02*
X140411653Y-85800828D01*
X140411653Y-85800828D02*
X140768795Y-85800828D01*
X140768795Y-85800828D02*
X140911653Y-85729400D01*
X140911653Y-85729400D02*
X140983081Y-85657971D01*
X140983081Y-85657971D02*
X141054510Y-85515114D01*
X141054510Y-85515114D02*
X141054510Y-85372257D01*
X141054510Y-85372257D02*
X140983081Y-85229400D01*
X140983081Y-85229400D02*
X140911653Y-85157971D01*
X140911653Y-85157971D02*
X140768795Y-85086542D01*
X140768795Y-85086542D02*
X140483081Y-85015114D01*
X140483081Y-85015114D02*
X140340224Y-84943685D01*
X140340224Y-84943685D02*
X140268795Y-84872257D01*
X140268795Y-84872257D02*
X140197367Y-84729400D01*
X140197367Y-84729400D02*
X140197367Y-84586542D01*
X140197367Y-84586542D02*
X140268795Y-84443685D01*
X140268795Y-84443685D02*
X140340224Y-84372257D01*
X140340224Y-84372257D02*
X140483081Y-84300828D01*
X140483081Y-84300828D02*
X140840224Y-84300828D01*
X140840224Y-84300828D02*
X141054510Y-84372257D01*
X141483081Y-84300828D02*
X142340224Y-84300828D01*
X141911652Y-85800828D02*
X141911652Y-84300828D01*
X143768795Y-84300828D02*
X144625938Y-84300828D01*
X144197366Y-85800828D02*
X144197366Y-84300828D01*
X145125937Y-85015114D02*
X145625937Y-85015114D01*
X145840223Y-85800828D02*
X145125937Y-85800828D01*
X145125937Y-85800828D02*
X145125937Y-84300828D01*
X145125937Y-84300828D02*
X145840223Y-84300828D01*
X146411652Y-85729400D02*
X146625938Y-85800828D01*
X146625938Y-85800828D02*
X146983080Y-85800828D01*
X146983080Y-85800828D02*
X147125938Y-85729400D01*
X147125938Y-85729400D02*
X147197366Y-85657971D01*
X147197366Y-85657971D02*
X147268795Y-85515114D01*
X147268795Y-85515114D02*
X147268795Y-85372257D01*
X147268795Y-85372257D02*
X147197366Y-85229400D01*
X147197366Y-85229400D02*
X147125938Y-85157971D01*
X147125938Y-85157971D02*
X146983080Y-85086542D01*
X146983080Y-85086542D02*
X146697366Y-85015114D01*
X146697366Y-85015114D02*
X146554509Y-84943685D01*
X146554509Y-84943685D02*
X146483080Y-84872257D01*
X146483080Y-84872257D02*
X146411652Y-84729400D01*
X146411652Y-84729400D02*
X146411652Y-84586542D01*
X146411652Y-84586542D02*
X146483080Y-84443685D01*
X146483080Y-84443685D02*
X146554509Y-84372257D01*
X146554509Y-84372257D02*
X146697366Y-84300828D01*
X146697366Y-84300828D02*
X147054509Y-84300828D01*
X147054509Y-84300828D02*
X147268795Y-84372257D01*
X147697366Y-84300828D02*
X148554509Y-84300828D01*
X148125937Y-85800828D02*
X148125937Y-84300828D01*
D11*
X139376546Y-68888099D02*
X139376546Y-69602384D01*
X139376546Y-69602384D02*
X139328927Y-69745241D01*
X139328927Y-69745241D02*
X139233689Y-69840480D01*
X139233689Y-69840480D02*
X139090832Y-69888099D01*
X139090832Y-69888099D02*
X138995594Y-69888099D01*
X139757499Y-68888099D02*
X140376546Y-68888099D01*
X140376546Y-68888099D02*
X140043213Y-69269051D01*
X140043213Y-69269051D02*
X140186070Y-69269051D01*
X140186070Y-69269051D02*
X140281308Y-69316670D01*
X140281308Y-69316670D02*
X140328927Y-69364289D01*
X140328927Y-69364289D02*
X140376546Y-69459527D01*
X140376546Y-69459527D02*
X140376546Y-69697622D01*
X140376546Y-69697622D02*
X140328927Y-69792860D01*
X140328927Y-69792860D02*
X140281308Y-69840480D01*
X140281308Y-69840480D02*
X140186070Y-69888099D01*
X140186070Y-69888099D02*
X139900356Y-69888099D01*
X139900356Y-69888099D02*
X139805118Y-69840480D01*
X139805118Y-69840480D02*
X139757499Y-69792860D01*
X97523333Y-81824819D02*
X97190000Y-81348628D01*
X96951905Y-81824819D02*
X96951905Y-80824819D01*
X96951905Y-80824819D02*
X97332857Y-80824819D01*
X97332857Y-80824819D02*
X97428095Y-80872438D01*
X97428095Y-80872438D02*
X97475714Y-80920057D01*
X97475714Y-80920057D02*
X97523333Y-81015295D01*
X97523333Y-81015295D02*
X97523333Y-81158152D01*
X97523333Y-81158152D02*
X97475714Y-81253390D01*
X97475714Y-81253390D02*
X97428095Y-81301009D01*
X97428095Y-81301009D02*
X97332857Y-81348628D01*
X97332857Y-81348628D02*
X96951905Y-81348628D01*
X98475714Y-81824819D02*
X97904286Y-81824819D01*
X98190000Y-81824819D02*
X98190000Y-80824819D01*
X98190000Y-80824819D02*
X98094762Y-80967676D01*
X98094762Y-80967676D02*
X97999524Y-81062914D01*
X97999524Y-81062914D02*
X97904286Y-81110533D01*
X166494819Y-75833333D02*
X167209104Y-75833333D01*
X167209104Y-75833333D02*
X167351961Y-75880952D01*
X167351961Y-75880952D02*
X167447200Y-75976190D01*
X167447200Y-75976190D02*
X167494819Y-76119047D01*
X167494819Y-76119047D02*
X167494819Y-76214285D01*
X166590057Y-75404761D02*
X166542438Y-75357142D01*
X166542438Y-75357142D02*
X166494819Y-75261904D01*
X166494819Y-75261904D02*
X166494819Y-75023809D01*
X166494819Y-75023809D02*
X166542438Y-74928571D01*
X166542438Y-74928571D02*
X166590057Y-74880952D01*
X166590057Y-74880952D02*
X166685295Y-74833333D01*
X166685295Y-74833333D02*
X166780533Y-74833333D01*
X166780533Y-74833333D02*
X166923390Y-74880952D01*
X166923390Y-74880952D02*
X167494819Y-75452380D01*
X167494819Y-75452380D02*
X167494819Y-74833333D01*
X109486358Y-74284819D02*
X109010168Y-74284819D01*
X109010168Y-74284819D02*
X109010168Y-73284819D01*
X109772073Y-74237200D02*
X109914930Y-74284819D01*
X109914930Y-74284819D02*
X110153025Y-74284819D01*
X110153025Y-74284819D02*
X110248263Y-74237200D01*
X110248263Y-74237200D02*
X110295882Y-74189580D01*
X110295882Y-74189580D02*
X110343501Y-74094342D01*
X110343501Y-74094342D02*
X110343501Y-73999104D01*
X110343501Y-73999104D02*
X110295882Y-73903866D01*
X110295882Y-73903866D02*
X110248263Y-73856247D01*
X110248263Y-73856247D02*
X110153025Y-73808628D01*
X110153025Y-73808628D02*
X109962549Y-73761009D01*
X109962549Y-73761009D02*
X109867311Y-73713390D01*
X109867311Y-73713390D02*
X109819692Y-73665771D01*
X109819692Y-73665771D02*
X109772073Y-73570533D01*
X109772073Y-73570533D02*
X109772073Y-73475295D01*
X109772073Y-73475295D02*
X109819692Y-73380057D01*
X109819692Y-73380057D02*
X109867311Y-73332438D01*
X109867311Y-73332438D02*
X109962549Y-73284819D01*
X109962549Y-73284819D02*
X110200644Y-73284819D01*
X110200644Y-73284819D02*
X110343501Y-73332438D01*
X111295882Y-74284819D02*
X110724454Y-74284819D01*
X111010168Y-74284819D02*
X111010168Y-73284819D01*
X111010168Y-73284819D02*
X110914930Y-73427676D01*
X110914930Y-73427676D02*
X110819692Y-73522914D01*
X110819692Y-73522914D02*
X110724454Y-73570533D01*
X101991905Y-76914819D02*
X101991905Y-75914819D01*
X101991905Y-75914819D02*
X102230000Y-75914819D01*
X102230000Y-75914819D02*
X102372857Y-75962438D01*
X102372857Y-75962438D02*
X102468095Y-76057676D01*
X102468095Y-76057676D02*
X102515714Y-76152914D01*
X102515714Y-76152914D02*
X102563333Y-76343390D01*
X102563333Y-76343390D02*
X102563333Y-76486247D01*
X102563333Y-76486247D02*
X102515714Y-76676723D01*
X102515714Y-76676723D02*
X102468095Y-76771961D01*
X102468095Y-76771961D02*
X102372857Y-76867200D01*
X102372857Y-76867200D02*
X102230000Y-76914819D01*
X102230000Y-76914819D02*
X101991905Y-76914819D01*
X103468095Y-75914819D02*
X102991905Y-75914819D01*
X102991905Y-75914819D02*
X102944286Y-76391009D01*
X102944286Y-76391009D02*
X102991905Y-76343390D01*
X102991905Y-76343390D02*
X103087143Y-76295771D01*
X103087143Y-76295771D02*
X103325238Y-76295771D01*
X103325238Y-76295771D02*
X103420476Y-76343390D01*
X103420476Y-76343390D02*
X103468095Y-76391009D01*
X103468095Y-76391009D02*
X103515714Y-76486247D01*
X103515714Y-76486247D02*
X103515714Y-76724342D01*
X103515714Y-76724342D02*
X103468095Y-76819580D01*
X103468095Y-76819580D02*
X103420476Y-76867200D01*
X103420476Y-76867200D02*
X103325238Y-76914819D01*
X103325238Y-76914819D02*
X103087143Y-76914819D01*
X103087143Y-76914819D02*
X102991905Y-76867200D01*
X102991905Y-76867200D02*
X102944286Y-76819580D01*
X159666666Y-68604819D02*
X159333333Y-68128628D01*
X159095238Y-68604819D02*
X159095238Y-67604819D01*
X159095238Y-67604819D02*
X159476190Y-67604819D01*
X159476190Y-67604819D02*
X159571428Y-67652438D01*
X159571428Y-67652438D02*
X159619047Y-67700057D01*
X159619047Y-67700057D02*
X159666666Y-67795295D01*
X159666666Y-67795295D02*
X159666666Y-67938152D01*
X159666666Y-67938152D02*
X159619047Y-68033390D01*
X159619047Y-68033390D02*
X159571428Y-68081009D01*
X159571428Y-68081009D02*
X159476190Y-68128628D01*
X159476190Y-68128628D02*
X159095238Y-68128628D01*
X160095238Y-68081009D02*
X160428571Y-68081009D01*
X160571428Y-68604819D02*
X160095238Y-68604819D01*
X160095238Y-68604819D02*
X160095238Y-67604819D01*
X160095238Y-67604819D02*
X160571428Y-67604819D01*
X161333333Y-68081009D02*
X161000000Y-68081009D01*
X161000000Y-68604819D02*
X161000000Y-67604819D01*
X161000000Y-67604819D02*
X161476190Y-67604819D01*
X162000000Y-67604819D02*
X162000000Y-67842914D01*
X161761905Y-67747676D02*
X162000000Y-67842914D01*
X162000000Y-67842914D02*
X162238095Y-67747676D01*
X161857143Y-68033390D02*
X162000000Y-67842914D01*
X162000000Y-67842914D02*
X162142857Y-68033390D01*
X162761905Y-67604819D02*
X162761905Y-67842914D01*
X162523810Y-67747676D02*
X162761905Y-67842914D01*
X162761905Y-67842914D02*
X163000000Y-67747676D01*
X162619048Y-68033390D02*
X162761905Y-67842914D01*
X162761905Y-67842914D02*
X162904762Y-68033390D01*
X98666666Y-91364819D02*
X98666666Y-92079104D01*
X98666666Y-92079104D02*
X98619047Y-92221961D01*
X98619047Y-92221961D02*
X98523809Y-92317200D01*
X98523809Y-92317200D02*
X98380952Y-92364819D01*
X98380952Y-92364819D02*
X98285714Y-92364819D01*
X99666666Y-92364819D02*
X99095238Y-92364819D01*
X99380952Y-92364819D02*
X99380952Y-91364819D01*
X99380952Y-91364819D02*
X99285714Y-91507676D01*
X99285714Y-91507676D02*
X99190476Y-91602914D01*
X99190476Y-91602914D02*
X99095238Y-91650533D01*
X116166666Y-68604819D02*
X115833333Y-68128628D01*
X115595238Y-68604819D02*
X115595238Y-67604819D01*
X115595238Y-67604819D02*
X115976190Y-67604819D01*
X115976190Y-67604819D02*
X116071428Y-67652438D01*
X116071428Y-67652438D02*
X116119047Y-67700057D01*
X116119047Y-67700057D02*
X116166666Y-67795295D01*
X116166666Y-67795295D02*
X116166666Y-67938152D01*
X116166666Y-67938152D02*
X116119047Y-68033390D01*
X116119047Y-68033390D02*
X116071428Y-68081009D01*
X116071428Y-68081009D02*
X115976190Y-68128628D01*
X115976190Y-68128628D02*
X115595238Y-68128628D01*
X116595238Y-68081009D02*
X116928571Y-68081009D01*
X117071428Y-68604819D02*
X116595238Y-68604819D01*
X116595238Y-68604819D02*
X116595238Y-67604819D01*
X116595238Y-67604819D02*
X117071428Y-67604819D01*
X117833333Y-68081009D02*
X117500000Y-68081009D01*
X117500000Y-68604819D02*
X117500000Y-67604819D01*
X117500000Y-67604819D02*
X117976190Y-67604819D01*
X118500000Y-67604819D02*
X118500000Y-67842914D01*
X118261905Y-67747676D02*
X118500000Y-67842914D01*
X118500000Y-67842914D02*
X118738095Y-67747676D01*
X118357143Y-68033390D02*
X118500000Y-67842914D01*
X118500000Y-67842914D02*
X118642857Y-68033390D01*
X119261905Y-67604819D02*
X119261905Y-67842914D01*
X119023810Y-67747676D02*
X119261905Y-67842914D01*
X119261905Y-67842914D02*
X119500000Y-67747676D01*
X119119048Y-68033390D02*
X119261905Y-67842914D01*
X119261905Y-67842914D02*
X119404762Y-68033390D01*
D12*
X103548095Y-102707419D02*
X103548095Y-103516942D01*
X103548095Y-103516942D02*
X103595714Y-103612180D01*
X103595714Y-103612180D02*
X103643333Y-103659800D01*
X103643333Y-103659800D02*
X103738571Y-103707419D01*
X103738571Y-103707419D02*
X103929047Y-103707419D01*
X103929047Y-103707419D02*
X104024285Y-103659800D01*
X104024285Y-103659800D02*
X104071904Y-103612180D01*
X104071904Y-103612180D02*
X104119523Y-103516942D01*
X104119523Y-103516942D02*
X104119523Y-102707419D01*
X104548095Y-102802657D02*
X104595714Y-102755038D01*
X104595714Y-102755038D02*
X104690952Y-102707419D01*
X104690952Y-102707419D02*
X104929047Y-102707419D01*
X104929047Y-102707419D02*
X105024285Y-102755038D01*
X105024285Y-102755038D02*
X105071904Y-102802657D01*
X105071904Y-102802657D02*
X105119523Y-102897895D01*
X105119523Y-102897895D02*
X105119523Y-102993133D01*
X105119523Y-102993133D02*
X105071904Y-103135990D01*
X105071904Y-103135990D02*
X104500476Y-103707419D01*
X104500476Y-103707419D02*
X105119523Y-103707419D01*
X104746228Y-96355639D02*
X105222419Y-96355639D01*
X104222419Y-96688972D02*
X104746228Y-96355639D01*
X104746228Y-96355639D02*
X104222419Y-96022306D01*
X106670038Y-98022306D02*
X106622419Y-98117544D01*
X106622419Y-98117544D02*
X106622419Y-98260401D01*
X106622419Y-98260401D02*
X106670038Y-98403258D01*
X106670038Y-98403258D02*
X106765276Y-98498496D01*
X106765276Y-98498496D02*
X106860514Y-98546115D01*
X106860514Y-98546115D02*
X107050990Y-98593734D01*
X107050990Y-98593734D02*
X107193847Y-98593734D01*
X107193847Y-98593734D02*
X107384323Y-98546115D01*
X107384323Y-98546115D02*
X107479561Y-98498496D01*
X107479561Y-98498496D02*
X107574800Y-98403258D01*
X107574800Y-98403258D02*
X107622419Y-98260401D01*
X107622419Y-98260401D02*
X107622419Y-98165163D01*
X107622419Y-98165163D02*
X107574800Y-98022306D01*
X107574800Y-98022306D02*
X107527180Y-97974687D01*
X107527180Y-97974687D02*
X107193847Y-97974687D01*
X107193847Y-97974687D02*
X107193847Y-98165163D01*
X107622419Y-97546115D02*
X106622419Y-97546115D01*
X106622419Y-97546115D02*
X107622419Y-96974687D01*
X107622419Y-96974687D02*
X106622419Y-96974687D01*
X107622419Y-96498496D02*
X106622419Y-96498496D01*
X106622419Y-96498496D02*
X106622419Y-96260401D01*
X106622419Y-96260401D02*
X106670038Y-96117544D01*
X106670038Y-96117544D02*
X106765276Y-96022306D01*
X106765276Y-96022306D02*
X106860514Y-95974687D01*
X106860514Y-95974687D02*
X107050990Y-95927068D01*
X107050990Y-95927068D02*
X107193847Y-95927068D01*
X107193847Y-95927068D02*
X107384323Y-95974687D01*
X107384323Y-95974687D02*
X107479561Y-96022306D01*
X107479561Y-96022306D02*
X107574800Y-96117544D01*
X107574800Y-96117544D02*
X107622419Y-96260401D01*
X107622419Y-96260401D02*
X107622419Y-96498496D01*
X98077693Y-105470038D02*
X97982455Y-105422419D01*
X97982455Y-105422419D02*
X97839598Y-105422419D01*
X97839598Y-105422419D02*
X97696741Y-105470038D01*
X97696741Y-105470038D02*
X97601503Y-105565276D01*
X97601503Y-105565276D02*
X97553884Y-105660514D01*
X97553884Y-105660514D02*
X97506265Y-105850990D01*
X97506265Y-105850990D02*
X97506265Y-105993847D01*
X97506265Y-105993847D02*
X97553884Y-106184323D01*
X97553884Y-106184323D02*
X97601503Y-106279561D01*
X97601503Y-106279561D02*
X97696741Y-106374800D01*
X97696741Y-106374800D02*
X97839598Y-106422419D01*
X97839598Y-106422419D02*
X97934836Y-106422419D01*
X97934836Y-106422419D02*
X98077693Y-106374800D01*
X98077693Y-106374800D02*
X98125312Y-106327180D01*
X98125312Y-106327180D02*
X98125312Y-105993847D01*
X98125312Y-105993847D02*
X97934836Y-105993847D01*
X98553884Y-106422419D02*
X98553884Y-105422419D01*
X98553884Y-105422419D02*
X99125312Y-106422419D01*
X99125312Y-106422419D02*
X99125312Y-105422419D01*
X99601503Y-106422419D02*
X99601503Y-105422419D01*
X99601503Y-105422419D02*
X99839598Y-105422419D01*
X99839598Y-105422419D02*
X99982455Y-105470038D01*
X99982455Y-105470038D02*
X100077693Y-105565276D01*
X100077693Y-105565276D02*
X100125312Y-105660514D01*
X100125312Y-105660514D02*
X100172931Y-105850990D01*
X100172931Y-105850990D02*
X100172931Y-105993847D01*
X100172931Y-105993847D02*
X100125312Y-106184323D01*
X100125312Y-106184323D02*
X100077693Y-106279561D01*
X100077693Y-106279561D02*
X99982455Y-106374800D01*
X99982455Y-106374800D02*
X99839598Y-106422419D01*
X99839598Y-106422419D02*
X99601503Y-106422419D01*
X101822419Y-98688972D02*
X102822419Y-98355639D01*
X102822419Y-98355639D02*
X101822419Y-98022306D01*
X102727180Y-97117544D02*
X102774800Y-97165163D01*
X102774800Y-97165163D02*
X102822419Y-97308020D01*
X102822419Y-97308020D02*
X102822419Y-97403258D01*
X102822419Y-97403258D02*
X102774800Y-97546115D01*
X102774800Y-97546115D02*
X102679561Y-97641353D01*
X102679561Y-97641353D02*
X102584323Y-97688972D01*
X102584323Y-97688972D02*
X102393847Y-97736591D01*
X102393847Y-97736591D02*
X102250990Y-97736591D01*
X102250990Y-97736591D02*
X102060514Y-97688972D01*
X102060514Y-97688972D02*
X101965276Y-97641353D01*
X101965276Y-97641353D02*
X101870038Y-97546115D01*
X101870038Y-97546115D02*
X101822419Y-97403258D01*
X101822419Y-97403258D02*
X101822419Y-97308020D01*
X101822419Y-97308020D02*
X101870038Y-97165163D01*
X101870038Y-97165163D02*
X101917657Y-97117544D01*
X102727180Y-96117544D02*
X102774800Y-96165163D01*
X102774800Y-96165163D02*
X102822419Y-96308020D01*
X102822419Y-96308020D02*
X102822419Y-96403258D01*
X102822419Y-96403258D02*
X102774800Y-96546115D01*
X102774800Y-96546115D02*
X102679561Y-96641353D01*
X102679561Y-96641353D02*
X102584323Y-96688972D01*
X102584323Y-96688972D02*
X102393847Y-96736591D01*
X102393847Y-96736591D02*
X102250990Y-96736591D01*
X102250990Y-96736591D02*
X102060514Y-96688972D01*
X102060514Y-96688972D02*
X101965276Y-96641353D01*
X101965276Y-96641353D02*
X101870038Y-96546115D01*
X101870038Y-96546115D02*
X101822419Y-96403258D01*
X101822419Y-96403258D02*
X101822419Y-96308020D01*
X101822419Y-96308020D02*
X101870038Y-96165163D01*
X101870038Y-96165163D02*
X101917657Y-96117544D01*
X97411027Y-100322419D02*
X97744360Y-101322419D01*
X97744360Y-101322419D02*
X98077693Y-100322419D01*
X98982455Y-101227180D02*
X98934836Y-101274800D01*
X98934836Y-101274800D02*
X98791979Y-101322419D01*
X98791979Y-101322419D02*
X98696741Y-101322419D01*
X98696741Y-101322419D02*
X98553884Y-101274800D01*
X98553884Y-101274800D02*
X98458646Y-101179561D01*
X98458646Y-101179561D02*
X98411027Y-101084323D01*
X98411027Y-101084323D02*
X98363408Y-100893847D01*
X98363408Y-100893847D02*
X98363408Y-100750990D01*
X98363408Y-100750990D02*
X98411027Y-100560514D01*
X98411027Y-100560514D02*
X98458646Y-100465276D01*
X98458646Y-100465276D02*
X98553884Y-100370038D01*
X98553884Y-100370038D02*
X98696741Y-100322419D01*
X98696741Y-100322419D02*
X98791979Y-100322419D01*
X98791979Y-100322419D02*
X98934836Y-100370038D01*
X98934836Y-100370038D02*
X98982455Y-100417657D01*
X99982455Y-101227180D02*
X99934836Y-101274800D01*
X99934836Y-101274800D02*
X99791979Y-101322419D01*
X99791979Y-101322419D02*
X99696741Y-101322419D01*
X99696741Y-101322419D02*
X99553884Y-101274800D01*
X99553884Y-101274800D02*
X99458646Y-101179561D01*
X99458646Y-101179561D02*
X99411027Y-101084323D01*
X99411027Y-101084323D02*
X99363408Y-100893847D01*
X99363408Y-100893847D02*
X99363408Y-100750990D01*
X99363408Y-100750990D02*
X99411027Y-100560514D01*
X99411027Y-100560514D02*
X99458646Y-100465276D01*
X99458646Y-100465276D02*
X99553884Y-100370038D01*
X99553884Y-100370038D02*
X99696741Y-100322419D01*
X99696741Y-100322419D02*
X99791979Y-100322419D01*
X99791979Y-100322419D02*
X99934836Y-100370038D01*
X99934836Y-100370038D02*
X99982455Y-100417657D01*
X97558646Y-102722419D02*
X98225312Y-103722419D01*
X98225312Y-102722419D02*
X97558646Y-103722419D01*
D11*
X101447819Y-125061904D02*
X102257342Y-125061904D01*
X102257342Y-125061904D02*
X102352580Y-125014285D01*
X102352580Y-125014285D02*
X102400200Y-124966666D01*
X102400200Y-124966666D02*
X102447819Y-124871428D01*
X102447819Y-124871428D02*
X102447819Y-124680952D01*
X102447819Y-124680952D02*
X102400200Y-124585714D01*
X102400200Y-124585714D02*
X102352580Y-124538095D01*
X102352580Y-124538095D02*
X102257342Y-124490476D01*
X102257342Y-124490476D02*
X101447819Y-124490476D01*
X101447819Y-124109523D02*
X101447819Y-123490476D01*
X101447819Y-123490476D02*
X101828771Y-123823809D01*
X101828771Y-123823809D02*
X101828771Y-123680952D01*
X101828771Y-123680952D02*
X101876390Y-123585714D01*
X101876390Y-123585714D02*
X101924009Y-123538095D01*
X101924009Y-123538095D02*
X102019247Y-123490476D01*
X102019247Y-123490476D02*
X102257342Y-123490476D01*
X102257342Y-123490476D02*
X102352580Y-123538095D01*
X102352580Y-123538095D02*
X102400200Y-123585714D01*
X102400200Y-123585714D02*
X102447819Y-123680952D01*
X102447819Y-123680952D02*
X102447819Y-123966666D01*
X102447819Y-123966666D02*
X102400200Y-124061904D01*
X102400200Y-124061904D02*
X102352580Y-124109523D01*
D13*
X107069593Y-132128294D02*
X107069593Y-132539532D01*
X107069593Y-132539532D02*
X106205993Y-132539532D01*
X107069593Y-131346942D02*
X106658355Y-131634808D01*
X107069593Y-131840427D02*
X106205993Y-131840427D01*
X106205993Y-131840427D02*
X106205993Y-131511437D01*
X106205993Y-131511437D02*
X106247117Y-131429189D01*
X106247117Y-131429189D02*
X106288241Y-131388066D01*
X106288241Y-131388066D02*
X106370489Y-131346942D01*
X106370489Y-131346942D02*
X106493860Y-131346942D01*
X106493860Y-131346942D02*
X106576108Y-131388066D01*
X106576108Y-131388066D02*
X106617231Y-131429189D01*
X106617231Y-131429189D02*
X106658355Y-131511437D01*
X106658355Y-131511437D02*
X106658355Y-131840427D01*
X106987346Y-130483342D02*
X107028470Y-130524466D01*
X107028470Y-130524466D02*
X107069593Y-130647837D01*
X107069593Y-130647837D02*
X107069593Y-130730085D01*
X107069593Y-130730085D02*
X107028470Y-130853456D01*
X107028470Y-130853456D02*
X106946222Y-130935704D01*
X106946222Y-130935704D02*
X106863974Y-130976827D01*
X106863974Y-130976827D02*
X106699479Y-131017951D01*
X106699479Y-131017951D02*
X106576108Y-131017951D01*
X106576108Y-131017951D02*
X106411612Y-130976827D01*
X106411612Y-130976827D02*
X106329365Y-130935704D01*
X106329365Y-130935704D02*
X106247117Y-130853456D01*
X106247117Y-130853456D02*
X106205993Y-130730085D01*
X106205993Y-130730085D02*
X106205993Y-130647837D01*
X106205993Y-130647837D02*
X106247117Y-130524466D01*
X106247117Y-130524466D02*
X106288241Y-130483342D01*
X110747117Y-125221914D02*
X110705993Y-125304161D01*
X110705993Y-125304161D02*
X110705993Y-125427533D01*
X110705993Y-125427533D02*
X110747117Y-125550904D01*
X110747117Y-125550904D02*
X110829365Y-125633152D01*
X110829365Y-125633152D02*
X110911612Y-125674275D01*
X110911612Y-125674275D02*
X111076108Y-125715399D01*
X111076108Y-125715399D02*
X111199479Y-125715399D01*
X111199479Y-125715399D02*
X111363974Y-125674275D01*
X111363974Y-125674275D02*
X111446222Y-125633152D01*
X111446222Y-125633152D02*
X111528470Y-125550904D01*
X111528470Y-125550904D02*
X111569593Y-125427533D01*
X111569593Y-125427533D02*
X111569593Y-125345285D01*
X111569593Y-125345285D02*
X111528470Y-125221914D01*
X111528470Y-125221914D02*
X111487346Y-125180790D01*
X111487346Y-125180790D02*
X111199479Y-125180790D01*
X111199479Y-125180790D02*
X111199479Y-125345285D01*
X111322850Y-124851799D02*
X111322850Y-124440561D01*
X111569593Y-124934047D02*
X110705993Y-124646180D01*
X110705993Y-124646180D02*
X111569593Y-124358314D01*
X111569593Y-124070446D02*
X110705993Y-124070446D01*
X111569593Y-123659208D02*
X110705993Y-123659208D01*
X110705993Y-123659208D02*
X111569593Y-123165723D01*
X111569593Y-123165723D02*
X110705993Y-123165723D01*
X111117231Y-130651466D02*
X111158355Y-130528094D01*
X111158355Y-130528094D02*
X111199479Y-130486971D01*
X111199479Y-130486971D02*
X111281727Y-130445847D01*
X111281727Y-130445847D02*
X111405098Y-130445847D01*
X111405098Y-130445847D02*
X111487346Y-130486971D01*
X111487346Y-130486971D02*
X111528470Y-130528094D01*
X111528470Y-130528094D02*
X111569593Y-130610342D01*
X111569593Y-130610342D02*
X111569593Y-130939332D01*
X111569593Y-130939332D02*
X110705993Y-130939332D01*
X110705993Y-130939332D02*
X110705993Y-130651466D01*
X110705993Y-130651466D02*
X110747117Y-130569218D01*
X110747117Y-130569218D02*
X110788241Y-130528094D01*
X110788241Y-130528094D02*
X110870489Y-130486971D01*
X110870489Y-130486971D02*
X110952736Y-130486971D01*
X110952736Y-130486971D02*
X111034984Y-130528094D01*
X111034984Y-130528094D02*
X111076108Y-130569218D01*
X111076108Y-130569218D02*
X111117231Y-130651466D01*
X111117231Y-130651466D02*
X111117231Y-130939332D01*
X111487346Y-129582247D02*
X111528470Y-129623371D01*
X111528470Y-129623371D02*
X111569593Y-129746742D01*
X111569593Y-129746742D02*
X111569593Y-129828990D01*
X111569593Y-129828990D02*
X111528470Y-129952361D01*
X111528470Y-129952361D02*
X111446222Y-130034609D01*
X111446222Y-130034609D02*
X111363974Y-130075732D01*
X111363974Y-130075732D02*
X111199479Y-130116856D01*
X111199479Y-130116856D02*
X111076108Y-130116856D01*
X111076108Y-130116856D02*
X110911612Y-130075732D01*
X110911612Y-130075732D02*
X110829365Y-130034609D01*
X110829365Y-130034609D02*
X110747117Y-129952361D01*
X110747117Y-129952361D02*
X110705993Y-129828990D01*
X110705993Y-129828990D02*
X110705993Y-129746742D01*
X110705993Y-129746742D02*
X110747117Y-129623371D01*
X110747117Y-129623371D02*
X110788241Y-129582247D01*
X111569593Y-128800894D02*
X111569593Y-129212132D01*
X111569593Y-129212132D02*
X110705993Y-129212132D01*
X111569593Y-128513027D02*
X110705993Y-128513027D01*
X111569593Y-128019542D02*
X111076108Y-128389656D01*
X110705993Y-128019542D02*
X111199479Y-128513027D01*
X107028470Y-122685542D02*
X107069593Y-122562171D01*
X107069593Y-122562171D02*
X107069593Y-122356552D01*
X107069593Y-122356552D02*
X107028470Y-122274304D01*
X107028470Y-122274304D02*
X106987346Y-122233180D01*
X106987346Y-122233180D02*
X106905098Y-122192057D01*
X106905098Y-122192057D02*
X106822850Y-122192057D01*
X106822850Y-122192057D02*
X106740603Y-122233180D01*
X106740603Y-122233180D02*
X106699479Y-122274304D01*
X106699479Y-122274304D02*
X106658355Y-122356552D01*
X106658355Y-122356552D02*
X106617231Y-122521047D01*
X106617231Y-122521047D02*
X106576108Y-122603295D01*
X106576108Y-122603295D02*
X106534984Y-122644418D01*
X106534984Y-122644418D02*
X106452736Y-122685542D01*
X106452736Y-122685542D02*
X106370489Y-122685542D01*
X106370489Y-122685542D02*
X106288241Y-122644418D01*
X106288241Y-122644418D02*
X106247117Y-122603295D01*
X106247117Y-122603295D02*
X106205993Y-122521047D01*
X106205993Y-122521047D02*
X106205993Y-122315428D01*
X106205993Y-122315428D02*
X106247117Y-122192057D01*
X107069593Y-121821942D02*
X106205993Y-121821942D01*
X106205993Y-121821942D02*
X106205993Y-121616323D01*
X106205993Y-121616323D02*
X106247117Y-121492952D01*
X106247117Y-121492952D02*
X106329365Y-121410704D01*
X106329365Y-121410704D02*
X106411612Y-121369581D01*
X106411612Y-121369581D02*
X106576108Y-121328457D01*
X106576108Y-121328457D02*
X106699479Y-121328457D01*
X106699479Y-121328457D02*
X106863974Y-121369581D01*
X106863974Y-121369581D02*
X106946222Y-121410704D01*
X106946222Y-121410704D02*
X107028470Y-121492952D01*
X107028470Y-121492952D02*
X107069593Y-121616323D01*
X107069593Y-121616323D02*
X107069593Y-121821942D01*
X110747117Y-119997981D02*
X110705993Y-120080228D01*
X110705993Y-120080228D02*
X110705993Y-120203600D01*
X110705993Y-120203600D02*
X110747117Y-120326971D01*
X110747117Y-120326971D02*
X110829365Y-120409219D01*
X110829365Y-120409219D02*
X110911612Y-120450342D01*
X110911612Y-120450342D02*
X111076108Y-120491466D01*
X111076108Y-120491466D02*
X111199479Y-120491466D01*
X111199479Y-120491466D02*
X111363974Y-120450342D01*
X111363974Y-120450342D02*
X111446222Y-120409219D01*
X111446222Y-120409219D02*
X111528470Y-120326971D01*
X111528470Y-120326971D02*
X111569593Y-120203600D01*
X111569593Y-120203600D02*
X111569593Y-120121352D01*
X111569593Y-120121352D02*
X111528470Y-119997981D01*
X111528470Y-119997981D02*
X111487346Y-119956857D01*
X111487346Y-119956857D02*
X111199479Y-119956857D01*
X111199479Y-119956857D02*
X111199479Y-120121352D01*
X111569593Y-119586742D02*
X110705993Y-119586742D01*
X110705993Y-119586742D02*
X111569593Y-119093257D01*
X111569593Y-119093257D02*
X110705993Y-119093257D01*
X111569593Y-118682018D02*
X110705993Y-118682018D01*
X110705993Y-118682018D02*
X110705993Y-118476399D01*
X110705993Y-118476399D02*
X110747117Y-118353028D01*
X110747117Y-118353028D02*
X110829365Y-118270780D01*
X110829365Y-118270780D02*
X110911612Y-118229657D01*
X110911612Y-118229657D02*
X111076108Y-118188533D01*
X111076108Y-118188533D02*
X111199479Y-118188533D01*
X111199479Y-118188533D02*
X111363974Y-118229657D01*
X111363974Y-118229657D02*
X111446222Y-118270780D01*
X111446222Y-118270780D02*
X111528470Y-118353028D01*
X111528470Y-118353028D02*
X111569593Y-118476399D01*
X111569593Y-118476399D02*
X111569593Y-118682018D01*
X106205993Y-117557161D02*
X107069593Y-117269294D01*
X107069593Y-117269294D02*
X106205993Y-116981428D01*
X107069593Y-116693560D02*
X106493860Y-116693560D01*
X106205993Y-116693560D02*
X106247117Y-116734684D01*
X106247117Y-116734684D02*
X106288241Y-116693560D01*
X106288241Y-116693560D02*
X106247117Y-116652437D01*
X106247117Y-116652437D02*
X106205993Y-116693560D01*
X106205993Y-116693560D02*
X106288241Y-116693560D01*
X106493860Y-116282322D02*
X107069593Y-116282322D01*
X106576108Y-116282322D02*
X106534984Y-116241199D01*
X106534984Y-116241199D02*
X106493860Y-116158951D01*
X106493860Y-116158951D02*
X106493860Y-116035580D01*
X106493860Y-116035580D02*
X106534984Y-115953332D01*
X106534984Y-115953332D02*
X106617231Y-115912208D01*
X106617231Y-115912208D02*
X107069593Y-115912208D01*
X107069593Y-127717161D02*
X106205993Y-127717161D01*
X106205993Y-127717161D02*
X106205993Y-127511542D01*
X106205993Y-127511542D02*
X106247117Y-127388171D01*
X106247117Y-127388171D02*
X106329365Y-127305923D01*
X106329365Y-127305923D02*
X106411612Y-127264800D01*
X106411612Y-127264800D02*
X106576108Y-127223676D01*
X106576108Y-127223676D02*
X106699479Y-127223676D01*
X106699479Y-127223676D02*
X106863974Y-127264800D01*
X106863974Y-127264800D02*
X106946222Y-127305923D01*
X106946222Y-127305923D02*
X107028470Y-127388171D01*
X107028470Y-127388171D02*
X107069593Y-127511542D01*
X107069593Y-127511542D02*
X107069593Y-127717161D01*
X107069593Y-126853561D02*
X106205993Y-126853561D01*
X107069593Y-126442323D02*
X106205993Y-126442323D01*
X106205993Y-126442323D02*
X107069593Y-125948838D01*
X107069593Y-125948838D02*
X106205993Y-125948838D01*
%TO.C,J3*%
D14*
X123709880Y-72433280D02*
X155709880Y-72433280D01*
X155709880Y-116153280D01*
X123709880Y-116153280D01*
X123709880Y-72433280D01*
%TO.C,R1*%
X94420000Y-77630000D02*
X94420000Y-77960000D01*
X94420000Y-80370000D02*
X94420000Y-80040000D01*
X100960000Y-77630000D02*
X94420000Y-77630000D01*
X100960000Y-77960000D02*
X100960000Y-77630000D01*
X100960000Y-80040000D02*
X100960000Y-80370000D01*
X100960000Y-80370000D02*
X94420000Y-80370000D01*
%TO.C,J2*%
X168040000Y-76880000D02*
X168040000Y-75500000D01*
X169420000Y-76880000D02*
X168040000Y-76880000D01*
X170690000Y-74120000D02*
X175880000Y-74120000D01*
X170690000Y-76880000D02*
X170690000Y-74120000D01*
X170690000Y-76880000D02*
X175880000Y-76880000D01*
X175880000Y-76880000D02*
X175880000Y-74120000D01*
%TO.C,LS1*%
X103729216Y-82499999D02*
G75*
G02*
X103729216Y-79500000I6400000J1499999D01*
G01*
X116359216Y-81000000D02*
G75*
G02*
X103899216Y-81000000I-6230000J0D01*
G01*
X103899216Y-81000000D02*
G75*
G02*
X116359216Y-81000000I6230000J0D01*
G01*
%TO.C,D5*%
X104290000Y-72420000D02*
X104290000Y-72264000D01*
X104290000Y-74736000D02*
X104290000Y-74580000D01*
X101058563Y-72420000D02*
G75*
G02*
X104290000Y-72264484I1671437J-1080000D01*
G01*
X101689039Y-72420000D02*
G75*
G02*
X103770961Y-72420000I1040961J-1080000D01*
G01*
X103770961Y-74580000D02*
G75*
G02*
X101689039Y-74580000I-1040961J1080000D01*
G01*
X104290000Y-74735516D02*
G75*
G02*
X101058563Y-74580000I-1560000J1235516D01*
G01*
%TO.C,J1*%
X97890000Y-88800000D02*
X97890000Y-82690000D01*
X100110000Y-82690000D02*
X97890000Y-82690000D01*
X100110000Y-88800000D02*
X97890000Y-88800000D01*
X100110000Y-88800000D02*
X100110000Y-82690000D01*
X100110000Y-89800000D02*
X100110000Y-90910000D01*
X100110000Y-90910000D02*
X99000000Y-90910000D01*
D15*
%TO.C,U3*%
X92846000Y-121020000D02*
X92846000Y-128020000D01*
X92846000Y-128020000D02*
X94246000Y-128020000D01*
D16*
X92890000Y-130770000D02*
X92890000Y-118070000D01*
D15*
X94246000Y-121020000D02*
X92846000Y-121020000D01*
X94246000Y-121020000D02*
X94246000Y-128020000D01*
X94246000Y-128020000D02*
X99846000Y-128020000D01*
D16*
X95430000Y-115530000D02*
X109400000Y-115530000D01*
X95493000Y-133300000D02*
X109463000Y-133300000D01*
D15*
X99846000Y-121020000D02*
X94246000Y-121020000D01*
X99846000Y-128020000D02*
X99846000Y-121020000D01*
D16*
X111940000Y-118070000D02*
X111940000Y-130770000D01*
X92890000Y-118070000D02*
G75*
G02*
X95430000Y-115530000I2540000J0D01*
G01*
X95446452Y-133297238D02*
G75*
G02*
X92906452Y-130757238I1J2540001D01*
G01*
X109400000Y-115530000D02*
G75*
G02*
X111940000Y-118070000I0J-2540000D01*
G01*
X111940000Y-130770000D02*
G75*
G02*
X109400000Y-133310000I-2540001J1D01*
G01*
D15*
X97430000Y-118070000D02*
G75*
G02*
X93430000Y-118070000I-2000000J0D01*
G01*
X93430000Y-118070000D02*
G75*
G02*
X97430000Y-118070000I2000000J0D01*
G01*
X97430000Y-130770000D02*
G75*
G02*
X93430000Y-130770000I-2000000J0D01*
G01*
X93430000Y-130770000D02*
G75*
G02*
X97430000Y-130770000I2000000J0D01*
G01*
%TD*%
M02*
