%TF.GenerationSoftware,KiCad,Pcbnew,9.0.9-9.0.9~ubuntu24.04.1*%
%TF.CreationDate,2026-08-14T00:59:39+09:00*%
%TF.ProjectId,tinygo-conf-2026,74696e79-676f-42d6-936f-6e662d323032,rev?*%
%TF.SameCoordinates,Original*%
%TF.FileFunction,Soldermask,Bot*%
%TF.FilePolarity,Negative*%
%FSLAX46Y46*%
G04 Gerber Fmt 4.6, Leading zero omitted, Abs format (unit mm)*
G04 Created by KiCad (PCBNEW 9.0.9-9.0.9~ubuntu24.04.1) date 2026-08-14 00:59:39*
%MOMM*%
%LPD*%
G01*
G04 APERTURE LIST*
%ADD10R,1.700000X1.700000*%
%ADD11C,1.700000*%
%ADD12C,1.600000*%
%ADD13C,4.300000*%
%ADD14R,2.000000X2.000000*%
%ADD15C,2.000000*%
%ADD16R,1.800000X1.800000*%
%ADD17C,1.800000*%
%ADD18R,1.350000X1.350000*%
%ADD19C,1.350000*%
%ADD20C,2.500000*%
%ADD21C,2.200000*%
%ADD22O,3.101600X1.851600*%
%ADD23O,4.101600X2.601600*%
%ADD24C,1.900000*%
%ADD25C,3.000000*%
%ADD26C,4.100000*%
%ADD27R,2.550000X2.500000*%
%ADD28R,1.700000X0.825000*%
%ADD29R,1.200000X2.000000*%
%ADD30O,1.200000X2.000000*%
G04 APERTURE END LIST*
D10*
%TO.C,J3*%
X130819880Y-73933280D03*
D11*
X133359880Y-74060280D03*
X135899880Y-73806280D03*
X138439880Y-74060280D03*
X140979880Y-73806280D03*
X143519880Y-74060280D03*
X146059880Y-73806280D03*
X148599880Y-74060280D03*
%TD*%
D12*
%TO.C,R1*%
X101500000Y-79000000D03*
X93880000Y-79000000D03*
%TD*%
D10*
%TO.C,J2*%
X169420000Y-75500000D03*
D11*
X171960000Y-75500000D03*
X174500000Y-75500000D03*
%TD*%
D13*
%TO.C,REF\u002A\u002A*%
X117500000Y-136600000D03*
%TD*%
D14*
%TO.C,LS1*%
X107629216Y-81000000D03*
D15*
X112629216Y-81000000D03*
%TD*%
D16*
%TO.C,D5*%
X104000000Y-73500000D03*
D17*
X101460000Y-73500000D03*
%TD*%
D13*
%TO.C,REF\u002A\u002A*%
X161000000Y-73400000D03*
%TD*%
D18*
%TO.C,J1*%
X99000000Y-89800000D03*
D19*
X99000000Y-87800000D03*
X99000000Y-85800000D03*
X99000000Y-83800000D03*
%TD*%
D13*
%TO.C,REF\u002A\u002A*%
X117500000Y-73400000D03*
%TD*%
%TO.C,REF\u002A\u002A*%
X161000000Y-136600000D03*
%TD*%
D20*
%TO.C,U2*%
X99650000Y-96925000D03*
X99650000Y-109575000D03*
D12*
X104650000Y-98950000D03*
X104650000Y-107550000D03*
D20*
X109650000Y-96925000D03*
X109650000Y-109575000D03*
D15*
X107150000Y-94520000D03*
X104650000Y-94520000D03*
X102150000Y-94520000D03*
X95920000Y-100750000D03*
X95920000Y-103250000D03*
X95920000Y-105750000D03*
D21*
X110400000Y-100000000D03*
X110400000Y-106500000D03*
X114900000Y-100000000D03*
X114900000Y-106500000D03*
%TD*%
D22*
%TO.C,U3*%
X108900000Y-116800000D03*
X108900000Y-119340000D03*
X108900000Y-121880000D03*
X108900000Y-124420000D03*
X108900000Y-126960000D03*
X108900000Y-129500000D03*
X108900000Y-132040000D03*
D23*
X96446000Y-126220000D03*
X96446000Y-122720000D03*
%TD*%
D24*
%TO.C,SW1*%
X178600000Y-94000000D03*
D25*
X176060000Y-88920000D03*
D26*
X173520000Y-94000000D03*
D25*
X169710000Y-91460000D03*
D24*
X168440000Y-94000000D03*
D27*
X166435000Y-91460000D03*
X179362000Y-88920000D03*
%TD*%
D28*
%TO.C,D1*%
X92400000Y-72600000D03*
X92400000Y-74000000D03*
X98000000Y-74000000D03*
X98000000Y-72600000D03*
%TD*%
D29*
%TO.C,U1*%
X121062720Y-81273000D03*
D30*
X123602720Y-81400000D03*
X126142720Y-81146000D03*
X128682720Y-81400000D03*
X131222720Y-81146000D03*
X133762720Y-81400000D03*
X136302720Y-81146000D03*
X138842720Y-81400000D03*
X141382720Y-81146000D03*
X143922720Y-81400000D03*
X146462720Y-81146000D03*
X149002720Y-81400000D03*
X151542720Y-81146000D03*
X154082720Y-81400000D03*
X156622720Y-81146000D03*
X159162720Y-81400000D03*
X161702720Y-81146000D03*
X164242720Y-81400000D03*
X166782720Y-81146000D03*
X169320000Y-81400000D03*
X171860000Y-81146000D03*
X174400000Y-81400000D03*
X174402720Y-104260000D03*
X171862720Y-104006000D03*
X169322720Y-104260000D03*
X166782720Y-104006000D03*
X164242720Y-104260000D03*
X161702720Y-104006000D03*
X159162720Y-104260000D03*
X156622720Y-104006000D03*
X154082720Y-104260000D03*
X151542720Y-104006000D03*
X149002720Y-104260000D03*
X146462720Y-104006000D03*
X143922720Y-104260000D03*
X141382720Y-104006000D03*
X138842720Y-104260000D03*
X136302720Y-104006000D03*
X133762720Y-104260000D03*
X131222720Y-104006000D03*
X128682720Y-104260000D03*
X126142720Y-104006000D03*
X123602720Y-104260000D03*
X121062720Y-104133000D03*
%TD*%
D28*
%TO.C,D3*%
X180000000Y-136300000D03*
X180000000Y-137700000D03*
X185600000Y-137700000D03*
X185600000Y-136300000D03*
%TD*%
%TO.C,D4*%
X92400000Y-136300000D03*
X92400000Y-137700000D03*
X98000000Y-137700000D03*
X98000000Y-136300000D03*
%TD*%
%TO.C,D2*%
X180000000Y-72600000D03*
X180000000Y-74000000D03*
X185600000Y-74000000D03*
X185600000Y-72600000D03*
%TD*%
D24*
%TO.C,SW2*%
X178600000Y-114540000D03*
D25*
X176060000Y-109460000D03*
D26*
X173520000Y-114540000D03*
D25*
X169710000Y-112000000D03*
D24*
X168440000Y-114540000D03*
D27*
X166435000Y-112000000D03*
X179362000Y-109460000D03*
%TD*%
M02*
