%TF.GenerationSoftware,KiCad,Pcbnew,9.0.9-9.0.9~ubuntu24.04.1*%
%TF.CreationDate,2026-08-14T00:59:37+09:00*%
%TF.ProjectId,tinygo-conf-2026,74696e79-676f-42d6-936f-6e662d323032,rev?*%
%TF.SameCoordinates,Original*%
%TF.FileFunction,Copper,L2,Bot*%
%TF.FilePolarity,Positive*%
%FSLAX46Y46*%
G04 Gerber Fmt 4.6, Leading zero omitted, Abs format (unit mm)*
G04 Created by KiCad (PCBNEW 9.0.9-9.0.9~ubuntu24.04.1) date 2026-08-14 00:59:37*
%MOMM*%
%LPD*%
G01*
G04 APERTURE LIST*
%TA.AperFunction,ComponentPad*%
%ADD10R,1.700000X1.700000*%
%TD*%
%TA.AperFunction,ComponentPad*%
%ADD11C,1.700000*%
%TD*%
%TA.AperFunction,ComponentPad*%
%ADD12C,1.600000*%
%TD*%
%TA.AperFunction,ComponentPad*%
%ADD13R,2.000000X2.000000*%
%TD*%
%TA.AperFunction,ComponentPad*%
%ADD14C,2.000000*%
%TD*%
%TA.AperFunction,ComponentPad*%
%ADD15R,1.800000X1.800000*%
%TD*%
%TA.AperFunction,ComponentPad*%
%ADD16C,1.800000*%
%TD*%
%TA.AperFunction,ComponentPad*%
%ADD17R,1.350000X1.350000*%
%TD*%
%TA.AperFunction,ComponentPad*%
%ADD18C,1.350000*%
%TD*%
%TA.AperFunction,ComponentPad*%
%ADD19C,2.500000*%
%TD*%
%TA.AperFunction,ComponentPad*%
%ADD20C,2.200000*%
%TD*%
%TA.AperFunction,ComponentPad*%
%ADD21O,3.000000X1.750000*%
%TD*%
%TA.AperFunction,ComponentPad*%
%ADD22O,4.000000X2.500000*%
%TD*%
%TA.AperFunction,SMDPad,CuDef*%
%ADD23R,2.550000X2.500000*%
%TD*%
%TA.AperFunction,SMDPad,CuDef*%
%ADD24R,1.700000X0.825000*%
%TD*%
%TA.AperFunction,ComponentPad*%
%ADD25R,1.200000X2.000000*%
%TD*%
%TA.AperFunction,ComponentPad*%
%ADD26O,1.200000X2.000000*%
%TD*%
%TA.AperFunction,ViaPad*%
%ADD27C,0.600000*%
%TD*%
%TA.AperFunction,Conductor*%
%ADD28C,0.600000*%
%TD*%
%TA.AperFunction,Conductor*%
%ADD29C,0.250000*%
%TD*%
G04 APERTURE END LIST*
D10*
%TO.P,J3,1,Pin_1*%
%TO.N,GND*%
X130819880Y-73933280D03*
D11*
%TO.P,J3,2,Pin_2*%
%TO.N,/3V3*%
X133359880Y-74060280D03*
%TO.P,J3,3,Pin_3*%
%TO.N,/SCL*%
X135899880Y-73806280D03*
%TO.P,J3,4,Pin_4*%
%TO.N,/SDA*%
X138439880Y-74060280D03*
%TO.P,J3,5,Pin_5*%
%TO.N,/RES*%
X140979880Y-73806280D03*
%TO.P,J3,6,Pin_6*%
%TO.N,/DC*%
X143519880Y-74060280D03*
%TO.P,J3,7,Pin_7*%
%TO.N,/CS*%
X146059880Y-73806280D03*
%TO.P,J3,8,Pin_8*%
%TO.N,/3V3*%
X148599880Y-74060280D03*
%TD*%
D12*
%TO.P,R1,1*%
%TO.N,/IR_LED*%
X101500000Y-79000000D03*
%TO.P,R1,2*%
%TO.N,Net-(D5-A)*%
X93880000Y-79000000D03*
%TD*%
D10*
%TO.P,J2,1,Pin_1*%
%TO.N,VCC*%
X169420000Y-75500000D03*
D11*
%TO.P,J2,2,Pin_2*%
%TO.N,GND*%
X171960000Y-75500000D03*
%TO.P,J2,3,Pin_3*%
%TO.N,/IR_DATA*%
X174500000Y-75500000D03*
%TD*%
D13*
%TO.P,LS1,1,1*%
%TO.N,Net-(U3-OUTP)*%
X107629216Y-81000000D03*
D14*
%TO.P,LS1,2,2*%
%TO.N,Net-(U3-OUTN)*%
X112629216Y-81000000D03*
%TD*%
D15*
%TO.P,D5,1,K*%
%TO.N,GND*%
X104000000Y-73500000D03*
D16*
%TO.P,D5,2,A*%
%TO.N,Net-(D5-A)*%
X101460000Y-73500000D03*
%TD*%
D17*
%TO.P,J1,1,Pin_1*%
%TO.N,GND*%
X99000000Y-89800000D03*
D18*
%TO.P,J1,2,Pin_2*%
%TO.N,/3V3*%
X99000000Y-87800000D03*
%TO.P,J1,3,Pin_3*%
%TO.N,/I2C_SDA*%
X99000000Y-85800000D03*
%TO.P,J1,4,Pin_4*%
%TO.N,/I2C_SCL*%
X99000000Y-83800000D03*
%TD*%
D19*
%TO.P,U2,*%
%TO.N,*%
X99650000Y-96925000D03*
X99650000Y-109575000D03*
X109650000Y-96925000D03*
X109650000Y-109575000D03*
D14*
%TO.P,U2,1,VR1-1*%
%TO.N,GND*%
X107150000Y-94520000D03*
%TO.P,U2,2,VR1-2*%
%TO.N,/VR_X*%
X104650000Y-94520000D03*
%TO.P,U2,3,VR1-3*%
%TO.N,/3V3*%
X102150000Y-94520000D03*
%TO.P,U2,4,VR2-1*%
X95920000Y-100750000D03*
%TO.P,U2,5,VR2-2*%
%TO.N,/VR_Y*%
X95920000Y-103250000D03*
%TO.P,U2,6,VR2-3*%
%TO.N,GND*%
X95920000Y-105750000D03*
D20*
%TO.P,U2,7,SW-a*%
X110400000Y-100000000D03*
X110400000Y-106500000D03*
%TO.P,U2,8,SW-b*%
%TO.N,/VR_BTN*%
X114900000Y-100000000D03*
X114900000Y-106500000D03*
%TD*%
D21*
%TO.P,U3,1,Vin*%
%TO.N,VCC*%
X108900000Y-116800000D03*
%TO.P,U3,2,GND*%
%TO.N,GND*%
X108900000Y-119340000D03*
%TO.P,U3,3,~{SD_MODE}*%
%TO.N,unconnected-(U3-~{SD_MODE}-Pad3)*%
X108900000Y-121880000D03*
%TO.P,U3,4,GAIN*%
%TO.N,unconnected-(U3-GAIN-Pad4)*%
X108900000Y-124420000D03*
%TO.P,U3,5,DIN*%
%TO.N,/DIN*%
X108900000Y-126960000D03*
%TO.P,U3,6,BCLK*%
%TO.N,/BCLK*%
X108900000Y-129500000D03*
%TO.P,U3,7,LRC*%
%TO.N,/LRC*%
X108900000Y-132040000D03*
D22*
%TO.P,U3,8,OUTP*%
%TO.N,Net-(U3-OUTP)*%
X96446000Y-126220000D03*
%TO.P,U3,9,OUTN*%
%TO.N,Net-(U3-OUTN)*%
X96446000Y-122720000D03*
%TD*%
D23*
%TO.P,SW1,1,1*%
%TO.N,/SW1*%
X166435000Y-91460000D03*
%TO.P,SW1,2,2*%
%TO.N,GND*%
X179362000Y-88920000D03*
%TD*%
D24*
%TO.P,D1,1,VDD*%
%TO.N,/3V3*%
X92400000Y-72600000D03*
%TO.P,D1,2,DOUT*%
%TO.N,Net-(D1-DOUT)*%
X92400000Y-74000000D03*
%TO.P,D1,3,VSS*%
%TO.N,GND*%
X98000000Y-74000000D03*
%TO.P,D1,4,DIN*%
%TO.N,/LED*%
X98000000Y-72600000D03*
%TD*%
D25*
%TO.P,U1,1,3V3*%
%TO.N,/3V3*%
X121062720Y-81273000D03*
D26*
%TO.P,U1,2,3V3*%
X123602720Y-81400000D03*
%TO.P,U1,3,EN/RESET*%
%TO.N,unconnected-(U1-EN{slash}RESET-Pad3)*%
X126142720Y-81146000D03*
%TO.P,U1,4,GPIO4*%
%TO.N,/RES*%
X128682720Y-81400000D03*
%TO.P,U1,5,GPIO5*%
%TO.N,/DC*%
X131222720Y-81146000D03*
%TO.P,U1,6,GPIO6*%
%TO.N,/VR_Y*%
X133762720Y-81400000D03*
%TO.P,U1,7,GPIO7*%
%TO.N,/VR_X*%
X136302720Y-81146000D03*
%TO.P,U1,8,GPIO15*%
%TO.N,/VR_BTN*%
X138842720Y-81400000D03*
%TO.P,U1,9,GPIO16*%
%TO.N,/LED*%
X141382720Y-81146000D03*
%TO.P,U1,10,GPIO17*%
%TO.N,/IR_LED*%
X143922720Y-81400000D03*
%TO.P,U1,11,GPIO18*%
%TO.N,/IR_DATA*%
X146462720Y-81146000D03*
%TO.P,U1,12,GPIO8*%
%TO.N,/I2C_SDA*%
X149002720Y-81400000D03*
%TO.P,U1,13,GPIO3*%
%TO.N,unconnected-(U1-GPIO3-Pad13)*%
X151542720Y-81146000D03*
%TO.P,U1,14,GPIO46*%
%TO.N,unconnected-(U1-GPIO46-Pad14)*%
X154082720Y-81400000D03*
%TO.P,U1,15,GPIO9*%
%TO.N,/I2C_SCL*%
X156622720Y-81146000D03*
%TO.P,U1,16,GPIO10*%
%TO.N,/CS*%
X159162720Y-81400000D03*
%TO.P,U1,17,GPIO11*%
%TO.N,/SDA*%
X161702720Y-81146000D03*
%TO.P,U1,18,GPIO12*%
%TO.N,/SCL*%
X164242720Y-81400000D03*
%TO.P,U1,19,GPIO13*%
%TO.N,/SW1*%
X166782720Y-81146000D03*
%TO.P,U1,20,GPIO14*%
%TO.N,/SW2*%
X169320000Y-81400000D03*
%TO.P,U1,21,5V*%
%TO.N,VCC*%
X171860000Y-81146000D03*
%TO.P,U1,22,GND*%
%TO.N,GND*%
X174400000Y-81400000D03*
%TO.P,U1,23,GND*%
X174402720Y-104260000D03*
%TO.P,U1,24,GND*%
X171862720Y-104006000D03*
%TO.P,U1,25,GPIO19*%
%TO.N,unconnected-(U1-GPIO19-Pad25)*%
X169322720Y-104260000D03*
%TO.P,U1,26,GPIO20*%
%TO.N,unconnected-(U1-GPIO20-Pad26)*%
X166782720Y-104006000D03*
%TO.P,U1,27,GPIO21*%
%TO.N,unconnected-(U1-GPIO21-Pad27)*%
X164242720Y-104260000D03*
%TO.P,U1,28,GPIO47*%
%TO.N,/DIN*%
X161702720Y-104006000D03*
%TO.P,U1,29,GPIO48*%
%TO.N,/LRC*%
X159162720Y-104260000D03*
%TO.P,U1,30,GPIO45*%
%TO.N,/BCLK*%
X156622720Y-104006000D03*
%TO.P,U1,31,GPIO0*%
%TO.N,unconnected-(U1-GPIO0-Pad31)*%
X154082720Y-104260000D03*
%TO.P,U1,32,GPIO35*%
%TO.N,unconnected-(U1-GPIO35-Pad32)*%
X151542720Y-104006000D03*
%TO.P,U1,33,GPIO36*%
%TO.N,unconnected-(U1-GPIO36-Pad33)*%
X149002720Y-104260000D03*
%TO.P,U1,34,GPIO37*%
%TO.N,unconnected-(U1-GPIO37-Pad34)*%
X146462720Y-104006000D03*
%TO.P,U1,35,GPIO38*%
%TO.N,unconnected-(U1-GPIO38-Pad35)*%
X143922720Y-104260000D03*
%TO.P,U1,36,GPIO39/MTCK*%
%TO.N,unconnected-(U1-GPIO39{slash}MTCK-Pad36)*%
X141382720Y-104006000D03*
%TO.P,U1,37,GPIO40/MTDO*%
%TO.N,unconnected-(U1-GPIO40{slash}MTDO-Pad37)*%
X138842720Y-104260000D03*
%TO.P,U1,38,GPIO41/MTDI*%
%TO.N,unconnected-(U1-GPIO41{slash}MTDI-Pad38)*%
X136302720Y-104006000D03*
%TO.P,U1,39,GPIO42/MTMS*%
%TO.N,unconnected-(U1-GPIO42{slash}MTMS-Pad39)*%
X133762720Y-104260000D03*
%TO.P,U1,40,GPIO2*%
%TO.N,unconnected-(U1-GPIO2-Pad40)*%
X131222720Y-104006000D03*
%TO.P,U1,41,GPIO1*%
%TO.N,unconnected-(U1-GPIO1-Pad41)*%
X128682720Y-104260000D03*
%TO.P,U1,42,GPIO44/U0RXD*%
%TO.N,unconnected-(U1-GPIO44{slash}U0RXD-Pad42)*%
X126142720Y-104006000D03*
%TO.P,U1,43,GPIO43/U0TXD*%
%TO.N,unconnected-(U1-GPIO43{slash}U0TXD-Pad43)*%
X123602720Y-104260000D03*
%TO.P,U1,44,GND*%
%TO.N,unconnected-(U1-GND-Pad44)*%
X121062720Y-104133000D03*
%TD*%
D24*
%TO.P,D3,1,VDD*%
%TO.N,/3V3*%
X180000000Y-136300000D03*
%TO.P,D3,2,DOUT*%
%TO.N,Net-(D3-DOUT)*%
X180000000Y-137700000D03*
%TO.P,D3,3,VSS*%
%TO.N,GND*%
X185600000Y-137700000D03*
%TO.P,D3,4,DIN*%
%TO.N,Net-(D2-DOUT)*%
X185600000Y-136300000D03*
%TD*%
%TO.P,D4,1,VDD*%
%TO.N,/3V3*%
X92400000Y-136300000D03*
%TO.P,D4,2,DOUT*%
%TO.N,unconnected-(D4-DOUT-Pad2)*%
X92400000Y-137700000D03*
%TO.P,D4,3,VSS*%
%TO.N,GND*%
X98000000Y-137700000D03*
%TO.P,D4,4,DIN*%
%TO.N,Net-(D3-DOUT)*%
X98000000Y-136300000D03*
%TD*%
%TO.P,D2,1,VDD*%
%TO.N,/3V3*%
X180000000Y-72600000D03*
%TO.P,D2,2,DOUT*%
%TO.N,Net-(D2-DOUT)*%
X180000000Y-74000000D03*
%TO.P,D2,3,VSS*%
%TO.N,GND*%
X185600000Y-74000000D03*
%TO.P,D2,4,DIN*%
%TO.N,Net-(D1-DOUT)*%
X185600000Y-72600000D03*
%TD*%
D23*
%TO.P,SW2,1,1*%
%TO.N,/SW2*%
X166435000Y-112000000D03*
%TO.P,SW2,2,2*%
%TO.N,GND*%
X179362000Y-109460000D03*
%TD*%
D27*
%TO.N,Net-(D1-DOUT)*%
X185600000Y-71400000D03*
X91151473Y-71151473D03*
%TO.N,/LED*%
X117000000Y-78800000D03*
%TO.N,/I2C_SCL*%
X102000000Y-85400000D03*
%TO.N,/SW2*%
X165500000Y-102100000D03*
X166200000Y-109600000D03*
%TO.N,/DIN*%
X161200000Y-108400000D03*
%TO.N,/IR_DATA*%
X162000000Y-79000000D03*
%TO.N,/LRC*%
X159200000Y-109600000D03*
%TO.N,/BCLK*%
X156600000Y-109600000D03*
%TD*%
D28*
%TO.N,/3V3*%
X148599880Y-74060280D02*
X146339600Y-71800000D01*
X180000000Y-72600000D02*
X167800000Y-72600000D01*
X167800000Y-72600000D02*
X163550000Y-76850000D01*
X163550000Y-76850000D02*
X151389600Y-76850000D01*
X151389600Y-76850000D02*
X148599880Y-74060280D01*
D29*
%TO.N,/RES*%
X128682720Y-81400000D02*
X134682720Y-75400000D01*
X134682720Y-75400000D02*
X140200000Y-75400000D01*
X140200000Y-75400000D02*
X140979880Y-74620120D01*
X140979880Y-74620120D02*
X140979880Y-73806280D01*
%TO.N,/DC*%
X131222720Y-81146000D02*
X136518720Y-75850000D01*
X136518720Y-75850000D02*
X141730160Y-75850000D01*
X141730160Y-75850000D02*
X143519880Y-74060280D01*
%TO.N,/CS*%
X146059880Y-73806280D02*
X150053600Y-77800000D01*
D28*
%TO.N,/3V3*%
X133359880Y-74060280D02*
X135620160Y-71800000D01*
X123602720Y-81400000D02*
X126701360Y-78301360D01*
X126701360Y-78301360D02*
X129118800Y-78301360D01*
X129118800Y-78301360D02*
X133359880Y-74060280D01*
%TO.N,VCC*%
X182200000Y-86800000D02*
X182200000Y-102600000D01*
X178000000Y-106800000D02*
X119400000Y-106800000D01*
X169420000Y-78706000D02*
X171860000Y-81146000D01*
X169420000Y-75500000D02*
X169420000Y-78706000D01*
X175914000Y-85200000D02*
X180600000Y-85200000D01*
X171860000Y-81146000D02*
X175914000Y-85200000D01*
X119400000Y-106800000D02*
X109400000Y-116800000D01*
X180600000Y-85200000D02*
X182200000Y-86800000D01*
X182200000Y-102600000D02*
X178000000Y-106800000D01*
D29*
%TO.N,Net-(D1-DOUT)*%
X185600000Y-71400000D02*
X185600000Y-72600000D01*
X92400000Y-74000000D02*
X91000000Y-74000000D01*
X91000000Y-71302946D02*
X91151473Y-71151473D01*
X91000000Y-74000000D02*
X91000000Y-71302946D01*
%TO.N,/LED*%
X98000000Y-72600000D02*
X98325000Y-72275000D01*
X98325000Y-72275000D02*
X110475000Y-72275000D01*
X110475000Y-72275000D02*
X117000000Y-78800000D01*
%TO.N,Net-(D2-DOUT)*%
X180000000Y-77600000D02*
X185600000Y-83200000D01*
X180000000Y-74000000D02*
X180000000Y-77600000D01*
X185600000Y-83200000D02*
X185600000Y-136300000D01*
%TO.N,Net-(D3-DOUT)*%
X178575000Y-139125000D02*
X101262500Y-139125000D01*
X180000000Y-137700000D02*
X178575000Y-139125000D01*
X101262500Y-139125000D02*
X98437500Y-136300000D01*
X98437500Y-136300000D02*
X98000000Y-136300000D01*
D28*
%TO.N,/3V3*%
X183000000Y-82200000D02*
X183000000Y-132318629D01*
X108870000Y-87800000D02*
X115397000Y-81273000D01*
X110589720Y-70800000D02*
X93187500Y-70800000D01*
X93187500Y-70800000D02*
X92400000Y-71587500D01*
X179137500Y-72600000D02*
X177600000Y-74137500D01*
X92400000Y-136300000D02*
X92400000Y-135318629D01*
X177500000Y-133800000D02*
X180000000Y-136300000D01*
X93918629Y-133800000D02*
X177500000Y-133800000D01*
X92400000Y-135318629D02*
X93918629Y-133800000D01*
X135620160Y-71800000D02*
X146339600Y-71800000D01*
X180000000Y-72600000D02*
X179137500Y-72600000D01*
X92400000Y-71587500D02*
X92400000Y-72600000D01*
X177600000Y-76800000D02*
X183000000Y-82200000D01*
X177600000Y-74137500D02*
X177600000Y-76800000D01*
X183000000Y-132318629D02*
X180000000Y-135318629D01*
X121062720Y-81273000D02*
X110589720Y-70800000D01*
X99000000Y-87800000D02*
X108870000Y-87800000D01*
X102150000Y-94520000D02*
X108870000Y-87800000D01*
X95920000Y-96280000D02*
X97680000Y-94520000D01*
X95920000Y-100750000D02*
X95920000Y-96280000D01*
X115397000Y-81273000D02*
X121062720Y-81273000D01*
X180000000Y-135318629D02*
X180000000Y-136300000D01*
X97680000Y-94520000D02*
X102150000Y-94520000D01*
D29*
%TO.N,/I2C_SCL*%
X99000000Y-83800000D02*
X100600000Y-85400000D01*
X100600000Y-85400000D02*
X102000000Y-85400000D01*
%TO.N,/CS*%
X159162720Y-79162720D02*
X159162720Y-81400000D01*
X157800000Y-77800000D02*
X159162720Y-79162720D01*
X150053600Y-77800000D02*
X157800000Y-77800000D01*
%TO.N,Net-(U3-OUTN)*%
X93200000Y-84000000D02*
X99600000Y-77600000D01*
X99600000Y-77600000D02*
X109229216Y-77600000D01*
X95320000Y-122720000D02*
X93200000Y-120600000D01*
X93200000Y-120600000D02*
X93200000Y-84000000D01*
X109229216Y-77600000D02*
X112629216Y-81000000D01*
X96446000Y-122720000D02*
X95320000Y-122720000D01*
%TO.N,Net-(U3-OUTP)*%
X94595000Y-86005000D02*
X94595000Y-112595000D01*
X107629216Y-81000000D02*
X99600000Y-81000000D01*
X94595000Y-112595000D02*
X98771000Y-116771000D01*
X98771000Y-116771000D02*
X98771000Y-123895000D01*
X99600000Y-81000000D02*
X94595000Y-86005000D01*
X98771000Y-123895000D02*
X96446000Y-126220000D01*
%TO.N,/SW1*%
X166782720Y-81146000D02*
X166782720Y-91112280D01*
X166782720Y-91112280D02*
X166435000Y-91460000D01*
%TO.N,/SW2*%
X164835000Y-101435000D02*
X165600000Y-102200000D01*
X166399572Y-79821000D02*
X165857720Y-80362852D01*
X167741000Y-79821000D02*
X166399572Y-79821000D01*
X166200000Y-109600000D02*
X166200000Y-111765000D01*
X165857720Y-80362852D02*
X165857720Y-88862280D01*
X164835000Y-89885000D02*
X164835000Y-101435000D01*
X169320000Y-81400000D02*
X167741000Y-79821000D01*
X165857720Y-88862280D02*
X164835000Y-89885000D01*
X166200000Y-111765000D02*
X166435000Y-112000000D01*
%TO.N,/VR_Y*%
X110684744Y-102200000D02*
X119684745Y-93200000D01*
X119684745Y-93200000D02*
X125956868Y-93200000D01*
X137200000Y-79800000D02*
X135362720Y-79800000D01*
X137227720Y-79827720D02*
X137200000Y-79800000D01*
X137227720Y-81929148D02*
X137227720Y-79827720D01*
X96970000Y-102200000D02*
X110684744Y-102200000D01*
X95920000Y-103250000D02*
X96970000Y-102200000D01*
X135362720Y-79800000D02*
X133762720Y-81400000D01*
X125956868Y-93200000D02*
X137227720Y-81929148D01*
%TO.N,/VR_BTN*%
X114900000Y-100000000D02*
X120242720Y-100000000D01*
X120242720Y-100000000D02*
X138842720Y-81400000D01*
%TO.N,/DIN*%
X156200000Y-108400000D02*
X137640000Y-126960000D01*
X137640000Y-126960000D02*
X109400000Y-126960000D01*
X161200000Y-108400000D02*
X156200000Y-108400000D01*
%TO.N,/IR_DATA*%
X172900000Y-73900000D02*
X174500000Y-75500000D01*
X162000000Y-79000000D02*
X163000000Y-79000000D01*
X168100000Y-73900000D02*
X172900000Y-73900000D01*
X163000000Y-79000000D02*
X168100000Y-73900000D01*
%TO.N,/LRC*%
X159200000Y-109600000D02*
X136760000Y-132040000D01*
X136760000Y-132040000D02*
X109400000Y-132040000D01*
%TO.N,/BCLK*%
X156600000Y-109600000D02*
X136700000Y-129500000D01*
X136700000Y-129500000D02*
X109400000Y-129500000D01*
%TO.N,/VR_X*%
X125248720Y-92200000D02*
X106970000Y-92200000D01*
X106970000Y-92200000D02*
X104650000Y-94520000D01*
X136302720Y-81146000D02*
X125248720Y-92200000D01*
%TD*%
%TA.AperFunction,Conductor*%
%TO.N,GND*%
G36*
X100078583Y-72920185D02*
G01*
X100124338Y-72972989D01*
X100134282Y-73042147D01*
X100129475Y-73062817D01*
X100093985Y-73172045D01*
X100059500Y-73389778D01*
X100059500Y-73610221D01*
X100093985Y-73827952D01*
X100162103Y-74037603D01*
X100162104Y-74037606D01*
X100219118Y-74149500D01*
X100250608Y-74211302D01*
X100262187Y-74234025D01*
X100391752Y-74412358D01*
X100391756Y-74412363D01*
X100547636Y-74568243D01*
X100547641Y-74568247D01*
X100666811Y-74654828D01*
X100725978Y-74697815D01*
X100842501Y-74757187D01*
X100922393Y-74797895D01*
X100922396Y-74797896D01*
X100975312Y-74815089D01*
X101132049Y-74866015D01*
X101349778Y-74900500D01*
X101349779Y-74900500D01*
X101570221Y-74900500D01*
X101570222Y-74900500D01*
X101787951Y-74866015D01*
X101997606Y-74797895D01*
X102194022Y-74697815D01*
X102372365Y-74568242D01*
X102422924Y-74517682D01*
X102484245Y-74484198D01*
X102553936Y-74489182D01*
X102609870Y-74531053D01*
X102626786Y-74562030D01*
X102656646Y-74642087D01*
X102656649Y-74642093D01*
X102742809Y-74757187D01*
X102742812Y-74757190D01*
X102857906Y-74843350D01*
X102857913Y-74843354D01*
X102992620Y-74893596D01*
X102992627Y-74893598D01*
X103052155Y-74899999D01*
X103052172Y-74900000D01*
X103750000Y-74900000D01*
X103750000Y-73875277D01*
X103826306Y-73919333D01*
X103940756Y-73950000D01*
X104059244Y-73950000D01*
X104173694Y-73919333D01*
X104250000Y-73875277D01*
X104250000Y-74900000D01*
X104947828Y-74900000D01*
X104947844Y-74899999D01*
X105007372Y-74893598D01*
X105007379Y-74893596D01*
X105142086Y-74843354D01*
X105142093Y-74843350D01*
X105257187Y-74757190D01*
X105257190Y-74757187D01*
X105343350Y-74642093D01*
X105343354Y-74642086D01*
X105393596Y-74507379D01*
X105393598Y-74507372D01*
X105399999Y-74447844D01*
X105400000Y-74447827D01*
X105400000Y-73750000D01*
X104375278Y-73750000D01*
X104419333Y-73673694D01*
X104450000Y-73559244D01*
X104450000Y-73440756D01*
X104419333Y-73326306D01*
X104375278Y-73250000D01*
X105400000Y-73250000D01*
X105400000Y-73024500D01*
X105419685Y-72957461D01*
X105472489Y-72911706D01*
X105524000Y-72900500D01*
X110164548Y-72900500D01*
X110231587Y-72920185D01*
X110252228Y-72936818D01*
X113215508Y-75900099D01*
X116174205Y-78858796D01*
X116207690Y-78920119D01*
X116208141Y-78922286D01*
X116230261Y-79033489D01*
X116230264Y-79033501D01*
X116290602Y-79179172D01*
X116290609Y-79179185D01*
X116378210Y-79310288D01*
X116378213Y-79310292D01*
X116489707Y-79421786D01*
X116489711Y-79421789D01*
X116620814Y-79509390D01*
X116620827Y-79509397D01*
X116764376Y-79568856D01*
X116766503Y-79569737D01*
X116921153Y-79600499D01*
X116921156Y-79600500D01*
X116921158Y-79600500D01*
X117078844Y-79600500D01*
X117078845Y-79600499D01*
X117233497Y-79569737D01*
X117379179Y-79509394D01*
X117510289Y-79421789D01*
X117621789Y-79310289D01*
X117676491Y-79228420D01*
X117730100Y-79183617D01*
X117799425Y-79174908D01*
X117862453Y-79205062D01*
X117867273Y-79209631D01*
X118918461Y-80260819D01*
X118951946Y-80322142D01*
X118946962Y-80391834D01*
X118905090Y-80447767D01*
X118839626Y-80472184D01*
X118830780Y-80472500D01*
X115318155Y-80472500D01*
X115163510Y-80503261D01*
X115163498Y-80503264D01*
X115017827Y-80563602D01*
X115017814Y-80563609D01*
X114886711Y-80651210D01*
X114886707Y-80651213D01*
X114341397Y-81196524D01*
X114280074Y-81230009D01*
X114210382Y-81225025D01*
X114154449Y-81183153D01*
X114130032Y-81117689D01*
X114129716Y-81108843D01*
X114129716Y-80881902D01*
X114092769Y-80648631D01*
X114045536Y-80503264D01*
X114019784Y-80424008D01*
X114019782Y-80424005D01*
X114019782Y-80424003D01*
X113957234Y-80301246D01*
X113912559Y-80213567D01*
X113773733Y-80022490D01*
X113606726Y-79855483D01*
X113415649Y-79716657D01*
X113365165Y-79690934D01*
X113205212Y-79609433D01*
X112980584Y-79536446D01*
X112747313Y-79499500D01*
X112747308Y-79499500D01*
X112511124Y-79499500D01*
X112511119Y-79499500D01*
X112277846Y-79536447D01*
X112178335Y-79568780D01*
X112108493Y-79570775D01*
X112052336Y-79538530D01*
X109722366Y-77208560D01*
X109715076Y-77201270D01*
X109715074Y-77201267D01*
X109627949Y-77114142D01*
X109576725Y-77079915D01*
X109525502Y-77045688D01*
X109525499Y-77045686D01*
X109525496Y-77045685D01*
X109451819Y-77015168D01*
X109451817Y-77015167D01*
X109445008Y-77012347D01*
X109411668Y-76998537D01*
X109351245Y-76986518D01*
X109346522Y-76985578D01*
X109346520Y-76985578D01*
X109290826Y-76974500D01*
X109290823Y-76974500D01*
X109290822Y-76974500D01*
X99661607Y-76974500D01*
X99538393Y-76974500D01*
X99538389Y-76974500D01*
X99487535Y-76984615D01*
X99487530Y-76984616D01*
X99477971Y-76986518D01*
X99417548Y-76998537D01*
X99370397Y-77018067D01*
X99303715Y-77045688D01*
X99303714Y-77045689D01*
X99281347Y-77060633D01*
X99281344Y-77060635D01*
X99201268Y-77114140D01*
X99172349Y-77143060D01*
X99114142Y-77201267D01*
X92714141Y-83601267D01*
X92714138Y-83601271D01*
X92703267Y-83617543D01*
X92703263Y-83617549D01*
X92645688Y-83703714D01*
X92645686Y-83703716D01*
X92645686Y-83703718D01*
X92645685Y-83703719D01*
X92631324Y-83738392D01*
X92598538Y-83817544D01*
X92598535Y-83817556D01*
X92574500Y-83938389D01*
X92574500Y-120661611D01*
X92598535Y-120782444D01*
X92598540Y-120782461D01*
X92645685Y-120896280D01*
X92645687Y-120896283D01*
X92645688Y-120896286D01*
X92679915Y-120947509D01*
X92714142Y-120998733D01*
X92801267Y-121085858D01*
X92801270Y-121085860D01*
X92808554Y-121093144D01*
X93949705Y-122234295D01*
X93983190Y-122295618D01*
X93981800Y-122354064D01*
X93975453Y-122377752D01*
X93975452Y-122377758D01*
X93945500Y-122605258D01*
X93945500Y-122834741D01*
X93957933Y-122929172D01*
X93975452Y-123062238D01*
X94005566Y-123174626D01*
X94034842Y-123283887D01*
X94122650Y-123495876D01*
X94122657Y-123495890D01*
X94237392Y-123694617D01*
X94377081Y-123876661D01*
X94377089Y-123876670D01*
X94539330Y-124038911D01*
X94539338Y-124038918D01*
X94721382Y-124178607D01*
X94721385Y-124178608D01*
X94721388Y-124178611D01*
X94920112Y-124293344D01*
X94920117Y-124293346D01*
X94920123Y-124293349D01*
X95070022Y-124355439D01*
X95124426Y-124399280D01*
X95146491Y-124465574D01*
X95129212Y-124533273D01*
X95078075Y-124580884D01*
X95070022Y-124584561D01*
X94920123Y-124646650D01*
X94920109Y-124646657D01*
X94721382Y-124761392D01*
X94539338Y-124901081D01*
X94377081Y-125063338D01*
X94237392Y-125245382D01*
X94122657Y-125444109D01*
X94122650Y-125444123D01*
X94034842Y-125656112D01*
X93975453Y-125877759D01*
X93975451Y-125877770D01*
X93945500Y-126105258D01*
X93945500Y-126334741D01*
X93970446Y-126524215D01*
X93975452Y-126562238D01*
X93975453Y-126562240D01*
X94034842Y-126783887D01*
X94122650Y-126995876D01*
X94122657Y-126995890D01*
X94237392Y-127194617D01*
X94377081Y-127376661D01*
X94377089Y-127376670D01*
X94539330Y-127538911D01*
X94539338Y-127538918D01*
X94721382Y-127678607D01*
X94721385Y-127678608D01*
X94721388Y-127678611D01*
X94920112Y-127793344D01*
X94920117Y-127793346D01*
X94920123Y-127793349D01*
X95011480Y-127831190D01*
X95132113Y-127881158D01*
X95353762Y-127940548D01*
X95581266Y-127970500D01*
X95581273Y-127970500D01*
X97310727Y-127970500D01*
X97310734Y-127970500D01*
X97538238Y-127940548D01*
X97759887Y-127881158D01*
X97971888Y-127793344D01*
X98170612Y-127678611D01*
X98352661Y-127538919D01*
X98352665Y-127538914D01*
X98352670Y-127538911D01*
X98514911Y-127376670D01*
X98514914Y-127376665D01*
X98514919Y-127376661D01*
X98654611Y-127194612D01*
X98769344Y-126995888D01*
X98857158Y-126783887D01*
X98916548Y-126562238D01*
X98946500Y-126334734D01*
X98946500Y-126105266D01*
X98916548Y-125877762D01*
X98857158Y-125656113D01*
X98807190Y-125535480D01*
X98769349Y-125444123D01*
X98769346Y-125444117D01*
X98769344Y-125444112D01*
X98654611Y-125245388D01*
X98654608Y-125245385D01*
X98654607Y-125245382D01*
X98605242Y-125181050D01*
X98569105Y-125133955D01*
X98543911Y-125068788D01*
X98557949Y-125000343D01*
X98579796Y-124970793D01*
X99256858Y-124293733D01*
X99325312Y-124191285D01*
X99372463Y-124077451D01*
X99396501Y-123956606D01*
X99396501Y-123833393D01*
X99396501Y-123828283D01*
X99396500Y-123828257D01*
X99396500Y-116709393D01*
X99396499Y-116709389D01*
X99376269Y-116607683D01*
X99372463Y-116588548D01*
X99326632Y-116477903D01*
X99325312Y-116474715D01*
X99308256Y-116449190D01*
X99256858Y-116372267D01*
X99256856Y-116372264D01*
X99166637Y-116282045D01*
X99166606Y-116282016D01*
X95256819Y-112372229D01*
X95223334Y-112310906D01*
X95220500Y-112284548D01*
X95220500Y-109460258D01*
X97899500Y-109460258D01*
X97899500Y-109689741D01*
X97924446Y-109879215D01*
X97929452Y-109917238D01*
X97958028Y-110023887D01*
X97988842Y-110138887D01*
X98076650Y-110350876D01*
X98076657Y-110350890D01*
X98120401Y-110426657D01*
X98186641Y-110541389D01*
X98191392Y-110549617D01*
X98331081Y-110731661D01*
X98331089Y-110731670D01*
X98493330Y-110893911D01*
X98493338Y-110893918D01*
X98675382Y-111033607D01*
X98675385Y-111033608D01*
X98675388Y-111033611D01*
X98874112Y-111148344D01*
X98874117Y-111148346D01*
X98874123Y-111148349D01*
X98951854Y-111180546D01*
X99086113Y-111236158D01*
X99307762Y-111295548D01*
X99535266Y-111325500D01*
X99535273Y-111325500D01*
X99764727Y-111325500D01*
X99764734Y-111325500D01*
X99992238Y-111295548D01*
X100213887Y-111236158D01*
X100425888Y-111148344D01*
X100624612Y-111033611D01*
X100806661Y-110893919D01*
X100806665Y-110893914D01*
X100806670Y-110893911D01*
X100968911Y-110731670D01*
X100968914Y-110731665D01*
X100968919Y-110731661D01*
X101108611Y-110549612D01*
X101223344Y-110350888D01*
X101311158Y-110138887D01*
X101370548Y-109917238D01*
X101400500Y-109689734D01*
X101400500Y-109460266D01*
X101400499Y-109460258D01*
X107899500Y-109460258D01*
X107899500Y-109689741D01*
X107924446Y-109879215D01*
X107929452Y-109917238D01*
X107958028Y-110023887D01*
X107988842Y-110138887D01*
X108076650Y-110350876D01*
X108076657Y-110350890D01*
X108120401Y-110426657D01*
X108186641Y-110541389D01*
X108191392Y-110549617D01*
X108331081Y-110731661D01*
X108331089Y-110731670D01*
X108493330Y-110893911D01*
X108493338Y-110893918D01*
X108675382Y-111033607D01*
X108675385Y-111033608D01*
X108675388Y-111033611D01*
X108874112Y-111148344D01*
X108874117Y-111148346D01*
X108874123Y-111148349D01*
X108951854Y-111180546D01*
X109086113Y-111236158D01*
X109307762Y-111295548D01*
X109535266Y-111325500D01*
X109535273Y-111325500D01*
X109764727Y-111325500D01*
X109764734Y-111325500D01*
X109992238Y-111295548D01*
X110213887Y-111236158D01*
X110425888Y-111148344D01*
X110624612Y-111033611D01*
X110806661Y-110893919D01*
X110806665Y-110893914D01*
X110806670Y-110893911D01*
X110968911Y-110731670D01*
X110968914Y-110731665D01*
X110968919Y-110731661D01*
X111108611Y-110549612D01*
X111223344Y-110350888D01*
X111311158Y-110138887D01*
X111370548Y-109917238D01*
X111400500Y-109689734D01*
X111400500Y-109460266D01*
X111370548Y-109232762D01*
X111311158Y-109011113D01*
X111236248Y-108830264D01*
X111223349Y-108799123D01*
X111223346Y-108799117D01*
X111223344Y-108799112D01*
X111108611Y-108600388D01*
X111108608Y-108600385D01*
X111108607Y-108600382D01*
X110968918Y-108418338D01*
X110968911Y-108418330D01*
X110806670Y-108256089D01*
X110806660Y-108256080D01*
X110805152Y-108254923D01*
X110804817Y-108254464D01*
X110803618Y-108253413D01*
X110803793Y-108253212D01*
X110803791Y-108253210D01*
X110803831Y-108253169D01*
X110803853Y-108253144D01*
X110763952Y-108198493D01*
X110759800Y-108128747D01*
X110794016Y-108067828D01*
X110842326Y-108038620D01*
X111014182Y-107982781D01*
X111238575Y-107868446D01*
X111238581Y-107868442D01*
X111340697Y-107794250D01*
X111340698Y-107794250D01*
X110611059Y-107064612D01*
X110631591Y-107059111D01*
X110768408Y-106980119D01*
X110880119Y-106868408D01*
X110959111Y-106731591D01*
X110964612Y-106711059D01*
X111694250Y-107440698D01*
X111694250Y-107440697D01*
X111768442Y-107338581D01*
X111768446Y-107338575D01*
X111882780Y-107114184D01*
X111960602Y-106874669D01*
X112000000Y-106625928D01*
X112000000Y-106374071D01*
X111999995Y-106374038D01*
X113299500Y-106374038D01*
X113299500Y-106625962D01*
X113335547Y-106853553D01*
X113338910Y-106874785D01*
X113416760Y-107114383D01*
X113482590Y-107243580D01*
X113530995Y-107338581D01*
X113531132Y-107338848D01*
X113679201Y-107542649D01*
X113679205Y-107542654D01*
X113857345Y-107720794D01*
X113857350Y-107720798D01*
X114029245Y-107845686D01*
X114061155Y-107868870D01*
X114204184Y-107941747D01*
X114285616Y-107983239D01*
X114285618Y-107983239D01*
X114285621Y-107983241D01*
X114525215Y-108061090D01*
X114774038Y-108100500D01*
X114774039Y-108100500D01*
X115025961Y-108100500D01*
X115025962Y-108100500D01*
X115274785Y-108061090D01*
X115514379Y-107983241D01*
X115738845Y-107868870D01*
X115942656Y-107720793D01*
X116120793Y-107542656D01*
X116268870Y-107338845D01*
X116383241Y-107114379D01*
X116461090Y-106874785D01*
X116500500Y-106625962D01*
X116500500Y-106374038D01*
X116461090Y-106125215D01*
X116383241Y-105885621D01*
X116383239Y-105885618D01*
X116383239Y-105885616D01*
X116336709Y-105794297D01*
X116268870Y-105661155D01*
X116229090Y-105606402D01*
X116120798Y-105457350D01*
X116120794Y-105457345D01*
X115942654Y-105279205D01*
X115942649Y-105279201D01*
X115738848Y-105131132D01*
X115738847Y-105131131D01*
X115738845Y-105131130D01*
X115643299Y-105082447D01*
X115514383Y-105016760D01*
X115274785Y-104938910D01*
X115025962Y-104899500D01*
X114774038Y-104899500D01*
X114659861Y-104917584D01*
X114525214Y-104938910D01*
X114285616Y-105016760D01*
X114061151Y-105131132D01*
X113857350Y-105279201D01*
X113857345Y-105279205D01*
X113679205Y-105457345D01*
X113679201Y-105457350D01*
X113531132Y-105661151D01*
X113416760Y-105885616D01*
X113338910Y-106125214D01*
X113338910Y-106125215D01*
X113299500Y-106374038D01*
X111999995Y-106374038D01*
X111960602Y-106125330D01*
X111882780Y-105885815D01*
X111768442Y-105661416D01*
X111694250Y-105559301D01*
X111694250Y-105559300D01*
X110964612Y-106288939D01*
X110959111Y-106268409D01*
X110880119Y-106131592D01*
X110768408Y-106019881D01*
X110631591Y-105940889D01*
X110611058Y-105935387D01*
X111340698Y-105205748D01*
X111238583Y-105131557D01*
X111014184Y-105017219D01*
X110774669Y-104939397D01*
X110525928Y-104900000D01*
X110274072Y-104900000D01*
X110025330Y-104939397D01*
X109785815Y-105017219D01*
X109561413Y-105131559D01*
X109459301Y-105205747D01*
X109459300Y-105205748D01*
X110188940Y-105935387D01*
X110168409Y-105940889D01*
X110031592Y-106019881D01*
X109919881Y-106131592D01*
X109840889Y-106268409D01*
X109835387Y-106288940D01*
X109105748Y-105559300D01*
X109105747Y-105559301D01*
X109031559Y-105661413D01*
X108917219Y-105885815D01*
X108839397Y-106125330D01*
X108800000Y-106374071D01*
X108800000Y-106625928D01*
X108839397Y-106874669D01*
X108917219Y-107114184D01*
X109031557Y-107338583D01*
X109105748Y-107440697D01*
X109105748Y-107440698D01*
X109835387Y-106711059D01*
X109840889Y-106731591D01*
X109919881Y-106868408D01*
X110031592Y-106980119D01*
X110168409Y-107059111D01*
X110188940Y-107064612D01*
X109442711Y-107810839D01*
X109381388Y-107844324D01*
X109371218Y-107846097D01*
X109307767Y-107854451D01*
X109307764Y-107854451D01*
X109307762Y-107854452D01*
X109255550Y-107868442D01*
X109086112Y-107913842D01*
X108874123Y-108001650D01*
X108874109Y-108001657D01*
X108675382Y-108116392D01*
X108493338Y-108256081D01*
X108331081Y-108418338D01*
X108191392Y-108600382D01*
X108076657Y-108799109D01*
X108076650Y-108799123D01*
X107988842Y-109011112D01*
X107969223Y-109084333D01*
X107932654Y-109220814D01*
X107929453Y-109232759D01*
X107929451Y-109232770D01*
X107899500Y-109460258D01*
X101400499Y-109460258D01*
X101370548Y-109232762D01*
X101311158Y-109011113D01*
X101236248Y-108830264D01*
X101223349Y-108799123D01*
X101223346Y-108799117D01*
X101223344Y-108799112D01*
X101108611Y-108600388D01*
X101108608Y-108600385D01*
X101108607Y-108600382D01*
X100968918Y-108418338D01*
X100968911Y-108418330D01*
X100806670Y-108256089D01*
X100806661Y-108256081D01*
X100624617Y-108116392D01*
X100425890Y-108001657D01*
X100425876Y-108001650D01*
X100213887Y-107913842D01*
X99992238Y-107854452D01*
X99954215Y-107849446D01*
X99764741Y-107824500D01*
X99764734Y-107824500D01*
X99535266Y-107824500D01*
X99535258Y-107824500D01*
X99320242Y-107852809D01*
X99307762Y-107854452D01*
X99255550Y-107868442D01*
X99086112Y-107913842D01*
X98874123Y-108001650D01*
X98874109Y-108001657D01*
X98675382Y-108116392D01*
X98493338Y-108256081D01*
X98331081Y-108418338D01*
X98191392Y-108600382D01*
X98076657Y-108799109D01*
X98076650Y-108799123D01*
X97988842Y-109011112D01*
X97969223Y-109084333D01*
X97932654Y-109220814D01*
X97929453Y-109232759D01*
X97929451Y-109232770D01*
X97899500Y-109460258D01*
X95220500Y-109460258D01*
X95220500Y-107446530D01*
X103599500Y-107446530D01*
X103599500Y-107653469D01*
X103639868Y-107856412D01*
X103639870Y-107856420D01*
X103707967Y-108020821D01*
X103719059Y-108047598D01*
X103728074Y-108061090D01*
X103834024Y-108219657D01*
X103980342Y-108365975D01*
X103980345Y-108365977D01*
X104152402Y-108480941D01*
X104343580Y-108560130D01*
X104545942Y-108600382D01*
X104546530Y-108600499D01*
X104546534Y-108600500D01*
X104546535Y-108600500D01*
X104753466Y-108600500D01*
X104753467Y-108600499D01*
X104956420Y-108560130D01*
X105147598Y-108480941D01*
X105319655Y-108365977D01*
X105465977Y-108219655D01*
X105580941Y-108047598D01*
X105660130Y-107856420D01*
X105700500Y-107653465D01*
X105700500Y-107446535D01*
X105660130Y-107243580D01*
X105580941Y-107052402D01*
X105465977Y-106880345D01*
X105465975Y-106880342D01*
X105319657Y-106734024D01*
X105157929Y-106625962D01*
X105147598Y-106619059D01*
X104956420Y-106539870D01*
X104956412Y-106539868D01*
X104753469Y-106499500D01*
X104753465Y-106499500D01*
X104546535Y-106499500D01*
X104546530Y-106499500D01*
X104343587Y-106539868D01*
X104343579Y-106539870D01*
X104152403Y-106619058D01*
X103980342Y-106734024D01*
X103834024Y-106880342D01*
X103719058Y-107052403D01*
X103639870Y-107243579D01*
X103639868Y-107243587D01*
X103599500Y-107446530D01*
X95220500Y-107446530D01*
X95220500Y-107270582D01*
X95240185Y-107203543D01*
X95292989Y-107157788D01*
X95362147Y-107147844D01*
X95382819Y-107152651D01*
X95568754Y-107213065D01*
X95801948Y-107250000D01*
X96038052Y-107250000D01*
X96271247Y-107213065D01*
X96495802Y-107140102D01*
X96706163Y-107032918D01*
X96706169Y-107032914D01*
X96789104Y-106972658D01*
X96789105Y-106972658D01*
X96049409Y-106232962D01*
X96112993Y-106215925D01*
X96227007Y-106150099D01*
X96320099Y-106057007D01*
X96385925Y-105942993D01*
X96402962Y-105879409D01*
X97142658Y-106619105D01*
X97142658Y-106619104D01*
X97202914Y-106536169D01*
X97202918Y-106536163D01*
X97310102Y-106325802D01*
X97383065Y-106101247D01*
X97420000Y-105868052D01*
X97420000Y-105631947D01*
X97383065Y-105398751D01*
X97348161Y-105291326D01*
X97310102Y-105174195D01*
X97202914Y-104963828D01*
X97142658Y-104880894D01*
X97142658Y-104880893D01*
X96402962Y-105620590D01*
X96385925Y-105557007D01*
X96320099Y-105442993D01*
X96227007Y-105349901D01*
X96112993Y-105284075D01*
X96049408Y-105267037D01*
X96795716Y-104520729D01*
X96804891Y-104477054D01*
X96841257Y-104435386D01*
X96897510Y-104394517D01*
X97064517Y-104227510D01*
X97203343Y-104036433D01*
X97310568Y-103825992D01*
X97368925Y-103646389D01*
X119962220Y-103646389D01*
X119962220Y-104619610D01*
X119982334Y-104746610D01*
X119989318Y-104790701D01*
X120042847Y-104955445D01*
X120121488Y-105109788D01*
X120223306Y-105249928D01*
X120345792Y-105372414D01*
X120485932Y-105474232D01*
X120640275Y-105552873D01*
X120805019Y-105606402D01*
X120976109Y-105633500D01*
X120976110Y-105633500D01*
X121149330Y-105633500D01*
X121149331Y-105633500D01*
X121320421Y-105606402D01*
X121485165Y-105552873D01*
X121639508Y-105474232D01*
X121779648Y-105372414D01*
X121902134Y-105249928D01*
X122003952Y-105109788D01*
X122082593Y-104955445D01*
X122136122Y-104790701D01*
X122163220Y-104619611D01*
X122163220Y-103646389D01*
X122136122Y-103475299D01*
X122082593Y-103310555D01*
X122003952Y-103156212D01*
X121902134Y-103016072D01*
X121779648Y-102893586D01*
X121639508Y-102791768D01*
X121485165Y-102713127D01*
X121320421Y-102659598D01*
X121320419Y-102659597D01*
X121320418Y-102659597D01*
X121188991Y-102638781D01*
X121149331Y-102632500D01*
X120976109Y-102632500D01*
X120936448Y-102638781D01*
X120805022Y-102659597D01*
X120640272Y-102713128D01*
X120485931Y-102791768D01*
X120439505Y-102825499D01*
X120345792Y-102893586D01*
X120345790Y-102893588D01*
X120345789Y-102893588D01*
X120223308Y-103016069D01*
X120223308Y-103016070D01*
X120223306Y-103016072D01*
X120179579Y-103076256D01*
X120121488Y-103156211D01*
X120042848Y-103310552D01*
X119989317Y-103475302D01*
X119962220Y-103646389D01*
X97368925Y-103646389D01*
X97373191Y-103633259D01*
X97382959Y-103603198D01*
X97383552Y-103601370D01*
X97383553Y-103601368D01*
X97409469Y-103437742D01*
X97420500Y-103368097D01*
X97420500Y-103131902D01*
X97394682Y-102968898D01*
X97403636Y-102899605D01*
X97448632Y-102846153D01*
X97515384Y-102825513D01*
X97517155Y-102825500D01*
X110746352Y-102825500D01*
X110746352Y-102825499D01*
X110827323Y-102809394D01*
X110867196Y-102801463D01*
X110928461Y-102776086D01*
X110981029Y-102754312D01*
X111024147Y-102725501D01*
X111083477Y-102685858D01*
X111170602Y-102598733D01*
X111170602Y-102598731D01*
X111180810Y-102588524D01*
X111180812Y-102588521D01*
X113209474Y-100559858D01*
X113270795Y-100526375D01*
X113340487Y-100531359D01*
X113396420Y-100573231D01*
X113415082Y-100609218D01*
X113416221Y-100612725D01*
X113416760Y-100614383D01*
X113531132Y-100838848D01*
X113679201Y-101042649D01*
X113679205Y-101042654D01*
X113857345Y-101220794D01*
X113857350Y-101220798D01*
X113977568Y-101308141D01*
X114061155Y-101368870D01*
X114186729Y-101432853D01*
X114285616Y-101483239D01*
X114285618Y-101483239D01*
X114285621Y-101483241D01*
X114525215Y-101561090D01*
X114774038Y-101600500D01*
X114774039Y-101600500D01*
X115025961Y-101600500D01*
X115025962Y-101600500D01*
X115274785Y-101561090D01*
X115514379Y-101483241D01*
X115738845Y-101368870D01*
X115942656Y-101220793D01*
X116120793Y-101042656D01*
X116268870Y-100838845D01*
X116343078Y-100693203D01*
X116391051Y-100642409D01*
X116453562Y-100625500D01*
X120304327Y-100625500D01*
X120364749Y-100613481D01*
X120425172Y-100601463D01*
X120458512Y-100587652D01*
X120539006Y-100554312D01*
X120590229Y-100520084D01*
X120641453Y-100485858D01*
X120728578Y-100398733D01*
X120728579Y-100398731D01*
X120735645Y-100391665D01*
X120735648Y-100391661D01*
X138281901Y-82845407D01*
X138343222Y-82811924D01*
X138412914Y-82816908D01*
X138417042Y-82818533D01*
X138420266Y-82819868D01*
X138420275Y-82819873D01*
X138585019Y-82873402D01*
X138756109Y-82900500D01*
X138756110Y-82900500D01*
X138929330Y-82900500D01*
X138929331Y-82900500D01*
X139100421Y-82873402D01*
X139265165Y-82819873D01*
X139419508Y-82741232D01*
X139559648Y-82639414D01*
X139682134Y-82516928D01*
X139783952Y-82376788D01*
X139862593Y-82222445D01*
X139916122Y-82057701D01*
X139943220Y-81886611D01*
X139943220Y-80913389D01*
X139916122Y-80742299D01*
X139889183Y-80659389D01*
X140282220Y-80659389D01*
X140282220Y-81632610D01*
X140308731Y-81800000D01*
X140309318Y-81803701D01*
X140362847Y-81968445D01*
X140441488Y-82122788D01*
X140543306Y-82262928D01*
X140665792Y-82385414D01*
X140805932Y-82487232D01*
X140960275Y-82565873D01*
X141125019Y-82619402D01*
X141296109Y-82646500D01*
X141296110Y-82646500D01*
X141469330Y-82646500D01*
X141469331Y-82646500D01*
X141640421Y-82619402D01*
X141805165Y-82565873D01*
X141959508Y-82487232D01*
X142099648Y-82385414D01*
X142222134Y-82262928D01*
X142323952Y-82122788D01*
X142402593Y-81968445D01*
X142456122Y-81803701D01*
X142483220Y-81632611D01*
X142483220Y-80913389D01*
X142822220Y-80913389D01*
X142822220Y-81886610D01*
X142835181Y-81968447D01*
X142849318Y-82057701D01*
X142902847Y-82222445D01*
X142981488Y-82376788D01*
X143083306Y-82516928D01*
X143205792Y-82639414D01*
X143345932Y-82741232D01*
X143500275Y-82819873D01*
X143665019Y-82873402D01*
X143836109Y-82900500D01*
X143836110Y-82900500D01*
X144009330Y-82900500D01*
X144009331Y-82900500D01*
X144180421Y-82873402D01*
X144345165Y-82819873D01*
X144499508Y-82741232D01*
X144639648Y-82639414D01*
X144762134Y-82516928D01*
X144863952Y-82376788D01*
X144942593Y-82222445D01*
X144996122Y-82057701D01*
X145023220Y-81886611D01*
X145023220Y-80913389D01*
X144996122Y-80742299D01*
X144969183Y-80659389D01*
X145362220Y-80659389D01*
X145362220Y-81632610D01*
X145388731Y-81800000D01*
X145389318Y-81803701D01*
X145442847Y-81968445D01*
X145521488Y-82122788D01*
X145623306Y-82262928D01*
X145745792Y-82385414D01*
X145885932Y-82487232D01*
X146040275Y-82565873D01*
X146205019Y-82619402D01*
X146376109Y-82646500D01*
X146376110Y-82646500D01*
X146549330Y-82646500D01*
X146549331Y-82646500D01*
X146720421Y-82619402D01*
X146885165Y-82565873D01*
X147039508Y-82487232D01*
X147179648Y-82385414D01*
X147302134Y-82262928D01*
X147403952Y-82122788D01*
X147482593Y-81968445D01*
X147536122Y-81803701D01*
X147563220Y-81632611D01*
X147563220Y-80913389D01*
X147902220Y-80913389D01*
X147902220Y-81886610D01*
X147915181Y-81968447D01*
X147929318Y-82057701D01*
X147982847Y-82222445D01*
X148061488Y-82376788D01*
X148163306Y-82516928D01*
X148285792Y-82639414D01*
X148425932Y-82741232D01*
X148580275Y-82819873D01*
X148745019Y-82873402D01*
X148916109Y-82900500D01*
X148916110Y-82900500D01*
X149089330Y-82900500D01*
X149089331Y-82900500D01*
X149260421Y-82873402D01*
X149425165Y-82819873D01*
X149579508Y-82741232D01*
X149719648Y-82639414D01*
X149842134Y-82516928D01*
X149943952Y-82376788D01*
X150022593Y-82222445D01*
X150076122Y-82057701D01*
X150103220Y-81886611D01*
X150103220Y-80913389D01*
X150076122Y-80742299D01*
X150049183Y-80659389D01*
X150442220Y-80659389D01*
X150442220Y-81632610D01*
X150468731Y-81800000D01*
X150469318Y-81803701D01*
X150522847Y-81968445D01*
X150601488Y-82122788D01*
X150703306Y-82262928D01*
X150825792Y-82385414D01*
X150965932Y-82487232D01*
X151120275Y-82565873D01*
X151285019Y-82619402D01*
X151456109Y-82646500D01*
X151456110Y-82646500D01*
X151629330Y-82646500D01*
X151629331Y-82646500D01*
X151800421Y-82619402D01*
X151965165Y-82565873D01*
X152119508Y-82487232D01*
X152259648Y-82385414D01*
X152382134Y-82262928D01*
X152483952Y-82122788D01*
X152562593Y-81968445D01*
X152616122Y-81803701D01*
X152643220Y-81632611D01*
X152643220Y-80913389D01*
X152982220Y-80913389D01*
X152982220Y-81886610D01*
X152995181Y-81968447D01*
X153009318Y-82057701D01*
X153062847Y-82222445D01*
X153141488Y-82376788D01*
X153243306Y-82516928D01*
X153365792Y-82639414D01*
X153505932Y-82741232D01*
X153660275Y-82819873D01*
X153825019Y-82873402D01*
X153996109Y-82900500D01*
X153996110Y-82900500D01*
X154169330Y-82900500D01*
X154169331Y-82900500D01*
X154340421Y-82873402D01*
X154505165Y-82819873D01*
X154659508Y-82741232D01*
X154799648Y-82639414D01*
X154922134Y-82516928D01*
X155023952Y-82376788D01*
X155102593Y-82222445D01*
X155156122Y-82057701D01*
X155183220Y-81886611D01*
X155183220Y-80913389D01*
X155156122Y-80742299D01*
X155129183Y-80659389D01*
X155522220Y-80659389D01*
X155522220Y-81632610D01*
X155548731Y-81800000D01*
X155549318Y-81803701D01*
X155602847Y-81968445D01*
X155681488Y-82122788D01*
X155783306Y-82262928D01*
X155905792Y-82385414D01*
X156045932Y-82487232D01*
X156200275Y-82565873D01*
X156365019Y-82619402D01*
X156536109Y-82646500D01*
X156536110Y-82646500D01*
X156709330Y-82646500D01*
X156709331Y-82646500D01*
X156880421Y-82619402D01*
X157045165Y-82565873D01*
X157199508Y-82487232D01*
X157339648Y-82385414D01*
X157462134Y-82262928D01*
X157563952Y-82122788D01*
X157642593Y-81968445D01*
X157696122Y-81803701D01*
X157723220Y-81632611D01*
X157723220Y-80659389D01*
X157696122Y-80488299D01*
X157642593Y-80323555D01*
X157563952Y-80169212D01*
X157462134Y-80029072D01*
X157339648Y-79906586D01*
X157199508Y-79804768D01*
X157045165Y-79726127D01*
X156880421Y-79672598D01*
X156880419Y-79672597D01*
X156880418Y-79672597D01*
X156748991Y-79651781D01*
X156709331Y-79645500D01*
X156536109Y-79645500D01*
X156496448Y-79651781D01*
X156365022Y-79672597D01*
X156365019Y-79672598D01*
X156236001Y-79714519D01*
X156200272Y-79726128D01*
X156045931Y-79804768D01*
X155987503Y-79847219D01*
X155905792Y-79906586D01*
X155905790Y-79906588D01*
X155905789Y-79906588D01*
X155783308Y-80029069D01*
X155783308Y-80029070D01*
X155783306Y-80029072D01*
X155756065Y-80066566D01*
X155681488Y-80169211D01*
X155602848Y-80323552D01*
X155549317Y-80488302D01*
X155522220Y-80659389D01*
X155129183Y-80659389D01*
X155102593Y-80577555D01*
X155023952Y-80423212D01*
X154922134Y-80283072D01*
X154799648Y-80160586D01*
X154659508Y-80058768D01*
X154505165Y-79980127D01*
X154340421Y-79926598D01*
X154340419Y-79926597D01*
X154340418Y-79926597D01*
X154195577Y-79903657D01*
X154169331Y-79899500D01*
X153996109Y-79899500D01*
X153969863Y-79903657D01*
X153825022Y-79926597D01*
X153660272Y-79980128D01*
X153505931Y-80058768D01*
X153432274Y-80112284D01*
X153365792Y-80160586D01*
X153365790Y-80160588D01*
X153365789Y-80160588D01*
X153243308Y-80283069D01*
X153243308Y-80283070D01*
X153243306Y-80283072D01*
X153213893Y-80323555D01*
X153141488Y-80423211D01*
X153062848Y-80577552D01*
X153062847Y-80577554D01*
X153062847Y-80577555D01*
X153038915Y-80651210D01*
X153009317Y-80742302D01*
X152982220Y-80913389D01*
X152643220Y-80913389D01*
X152643220Y-80659389D01*
X152616122Y-80488299D01*
X152562593Y-80323555D01*
X152483952Y-80169212D01*
X152382134Y-80029072D01*
X152259648Y-79906586D01*
X152119508Y-79804768D01*
X151965165Y-79726127D01*
X151800421Y-79672598D01*
X151800419Y-79672597D01*
X151800418Y-79672597D01*
X151668991Y-79651781D01*
X151629331Y-79645500D01*
X151456109Y-79645500D01*
X151416448Y-79651781D01*
X151285022Y-79672597D01*
X151285019Y-79672598D01*
X151156001Y-79714519D01*
X151120272Y-79726128D01*
X150965931Y-79804768D01*
X150907503Y-79847219D01*
X150825792Y-79906586D01*
X150825790Y-79906588D01*
X150825789Y-79906588D01*
X150703308Y-80029069D01*
X150703308Y-80029070D01*
X150703306Y-80029072D01*
X150676065Y-80066566D01*
X150601488Y-80169211D01*
X150522848Y-80323552D01*
X150469317Y-80488302D01*
X150442220Y-80659389D01*
X150049183Y-80659389D01*
X150022593Y-80577555D01*
X149943952Y-80423212D01*
X149842134Y-80283072D01*
X149719648Y-80160586D01*
X149579508Y-80058768D01*
X149425165Y-79980127D01*
X149260421Y-79926598D01*
X149260419Y-79926597D01*
X149260418Y-79926597D01*
X149115577Y-79903657D01*
X149089331Y-79899500D01*
X148916109Y-79899500D01*
X148889863Y-79903657D01*
X148745022Y-79926597D01*
X148580272Y-79980128D01*
X148425931Y-80058768D01*
X148352274Y-80112284D01*
X148285792Y-80160586D01*
X148285790Y-80160588D01*
X148285789Y-80160588D01*
X148163308Y-80283069D01*
X148163308Y-80283070D01*
X148163306Y-80283072D01*
X148133893Y-80323555D01*
X148061488Y-80423211D01*
X147982848Y-80577552D01*
X147982847Y-80577554D01*
X147982847Y-80577555D01*
X147958915Y-80651210D01*
X147929317Y-80742302D01*
X147902220Y-80913389D01*
X147563220Y-80913389D01*
X147563220Y-80659389D01*
X147536122Y-80488299D01*
X147482593Y-80323555D01*
X147403952Y-80169212D01*
X147302134Y-80029072D01*
X147179648Y-79906586D01*
X147039508Y-79804768D01*
X146885165Y-79726127D01*
X146720421Y-79672598D01*
X146720419Y-79672597D01*
X146720418Y-79672597D01*
X146588991Y-79651781D01*
X146549331Y-79645500D01*
X146376109Y-79645500D01*
X146336448Y-79651781D01*
X146205022Y-79672597D01*
X146205019Y-79672598D01*
X146076001Y-79714519D01*
X146040272Y-79726128D01*
X145885931Y-79804768D01*
X145827503Y-79847219D01*
X145745792Y-79906586D01*
X145745790Y-79906588D01*
X145745789Y-79906588D01*
X145623308Y-80029069D01*
X145623308Y-80029070D01*
X145623306Y-80029072D01*
X145596065Y-80066566D01*
X145521488Y-80169211D01*
X145442848Y-80323552D01*
X145389317Y-80488302D01*
X145362220Y-80659389D01*
X144969183Y-80659389D01*
X144942593Y-80577555D01*
X144863952Y-80423212D01*
X144762134Y-80283072D01*
X144639648Y-80160586D01*
X144499508Y-80058768D01*
X144345165Y-79980127D01*
X144180421Y-79926598D01*
X144180419Y-79926597D01*
X144180418Y-79926597D01*
X144035577Y-79903657D01*
X144009331Y-79899500D01*
X143836109Y-79899500D01*
X143809863Y-79903657D01*
X143665022Y-79926597D01*
X143500272Y-79980128D01*
X143345931Y-80058768D01*
X143272274Y-80112284D01*
X143205792Y-80160586D01*
X143205790Y-80160588D01*
X143205789Y-80160588D01*
X143083308Y-80283069D01*
X143083308Y-80283070D01*
X143083306Y-80283072D01*
X143053893Y-80323555D01*
X142981488Y-80423211D01*
X142902848Y-80577552D01*
X142902847Y-80577554D01*
X142902847Y-80577555D01*
X142878915Y-80651210D01*
X142849317Y-80742302D01*
X142822220Y-80913389D01*
X142483220Y-80913389D01*
X142483220Y-80659389D01*
X142456122Y-80488299D01*
X142402593Y-80323555D01*
X142323952Y-80169212D01*
X142222134Y-80029072D01*
X142099648Y-79906586D01*
X141959508Y-79804768D01*
X141805165Y-79726127D01*
X141640421Y-79672598D01*
X141640419Y-79672597D01*
X141640418Y-79672597D01*
X141508991Y-79651781D01*
X141469331Y-79645500D01*
X141296109Y-79645500D01*
X141256448Y-79651781D01*
X141125022Y-79672597D01*
X141125019Y-79672598D01*
X140996001Y-79714519D01*
X140960272Y-79726128D01*
X140805931Y-79804768D01*
X140747503Y-79847219D01*
X140665792Y-79906586D01*
X140665790Y-79906588D01*
X140665789Y-79906588D01*
X140543308Y-80029069D01*
X140543308Y-80029070D01*
X140543306Y-80029072D01*
X140516065Y-80066566D01*
X140441488Y-80169211D01*
X140362848Y-80323552D01*
X140309317Y-80488302D01*
X140282220Y-80659389D01*
X139889183Y-80659389D01*
X139862593Y-80577555D01*
X139783952Y-80423212D01*
X139682134Y-80283072D01*
X139559648Y-80160586D01*
X139419508Y-80058768D01*
X139265165Y-79980127D01*
X139100421Y-79926598D01*
X139100419Y-79926597D01*
X139100418Y-79926597D01*
X138955577Y-79903657D01*
X138929331Y-79899500D01*
X138756109Y-79899500D01*
X138729863Y-79903657D01*
X138585022Y-79926597D01*
X138420272Y-79980128D01*
X138265931Y-80058768D01*
X138192274Y-80112284D01*
X138125792Y-80160586D01*
X138125790Y-80160588D01*
X138125789Y-80160588D01*
X138064901Y-80221477D01*
X138003578Y-80254962D01*
X137933886Y-80249978D01*
X137877953Y-80208106D01*
X137853536Y-80142642D01*
X137853220Y-80133796D01*
X137853220Y-79766117D01*
X137853220Y-79766114D01*
X137851884Y-79759399D01*
X137851884Y-79759393D01*
X137851883Y-79759394D01*
X137834619Y-79672598D01*
X137834619Y-79672597D01*
X137830094Y-79649848D01*
X137829183Y-79645268D01*
X137814339Y-79609432D01*
X137800684Y-79576464D01*
X137782033Y-79531436D01*
X137782032Y-79531435D01*
X137782032Y-79531434D01*
X137733635Y-79459005D01*
X137713578Y-79428987D01*
X137626453Y-79341862D01*
X137598733Y-79314142D01*
X137598732Y-79314141D01*
X137598730Y-79314139D01*
X137598728Y-79314138D01*
X137527717Y-79266690D01*
X137527716Y-79266689D01*
X137496290Y-79245690D01*
X137496286Y-79245688D01*
X137454604Y-79228423D01*
X137391343Y-79202220D01*
X137382452Y-79198537D01*
X137285130Y-79179179D01*
X137261607Y-79174500D01*
X137261606Y-79174500D01*
X135430461Y-79174500D01*
X135430441Y-79174499D01*
X135424327Y-79174499D01*
X135301114Y-79174499D01*
X135200317Y-79194548D01*
X135200312Y-79194548D01*
X135180273Y-79198535D01*
X135180272Y-79198535D01*
X135176243Y-79200204D01*
X135171377Y-79202220D01*
X135171375Y-79202220D01*
X135171374Y-79202221D01*
X135066441Y-79245684D01*
X135066428Y-79245691D01*
X134963987Y-79314141D01*
X134963983Y-79314144D01*
X134323539Y-79954588D01*
X134262216Y-79988073D01*
X134192524Y-79983089D01*
X134188411Y-79981470D01*
X134185172Y-79980128D01*
X134020418Y-79926597D01*
X133875577Y-79903657D01*
X133849331Y-79899500D01*
X133676109Y-79899500D01*
X133670079Y-79900455D01*
X133600786Y-79891495D01*
X133547338Y-79846495D01*
X133526703Y-79779742D01*
X133545433Y-79712430D01*
X133563004Y-79690304D01*
X136741491Y-76511819D01*
X136802814Y-76478334D01*
X136829172Y-76475500D01*
X141791768Y-76475500D01*
X141791768Y-76475499D01*
X141882346Y-76457483D01*
X141912612Y-76451463D01*
X141945952Y-76437652D01*
X142026446Y-76404312D01*
X142077669Y-76370084D01*
X142128893Y-76335858D01*
X142216018Y-76248733D01*
X142216019Y-76248731D01*
X142223085Y-76241665D01*
X142223088Y-76241661D01*
X143062042Y-75402706D01*
X143123363Y-75369223D01*
X143188042Y-75372459D01*
X143203637Y-75377526D01*
X143413593Y-75410780D01*
X143413594Y-75410780D01*
X143626166Y-75410780D01*
X143626167Y-75410780D01*
X143836123Y-75377526D01*
X144038292Y-75311837D01*
X144227696Y-75215331D01*
X144294440Y-75166839D01*
X144399666Y-75090389D01*
X144399668Y-75090386D01*
X144399672Y-75090384D01*
X144549984Y-74940072D01*
X144549986Y-74940068D01*
X144549989Y-74940066D01*
X144658082Y-74791287D01*
X144674931Y-74768096D01*
X144753904Y-74613101D01*
X144801877Y-74562307D01*
X144869698Y-74545511D01*
X144935833Y-74568048D01*
X144964706Y-74596512D01*
X145029770Y-74686065D01*
X145029774Y-74686070D01*
X145180093Y-74836389D01*
X145352059Y-74961328D01*
X145352061Y-74961329D01*
X145352064Y-74961331D01*
X145541468Y-75057837D01*
X145743637Y-75123526D01*
X145953593Y-75156780D01*
X145953594Y-75156780D01*
X146166166Y-75156780D01*
X146166167Y-75156780D01*
X146376123Y-75123526D01*
X146391720Y-75118457D01*
X146461559Y-75116463D01*
X146517718Y-75148708D01*
X149567739Y-78198729D01*
X149567742Y-78198733D01*
X149654867Y-78285858D01*
X149703555Y-78318390D01*
X149710293Y-78322892D01*
X149710295Y-78322894D01*
X149757309Y-78354309D01*
X149757311Y-78354310D01*
X149757314Y-78354312D01*
X149832202Y-78385331D01*
X149871148Y-78401463D01*
X149931571Y-78413481D01*
X149991993Y-78425500D01*
X149991994Y-78425500D01*
X157489548Y-78425500D01*
X157556587Y-78445185D01*
X157577229Y-78461819D01*
X158500901Y-79385491D01*
X158534386Y-79446814D01*
X158537220Y-79473172D01*
X158537220Y-80030978D01*
X158517535Y-80098017D01*
X158486107Y-80131295D01*
X158445792Y-80160585D01*
X158323308Y-80283069D01*
X158323308Y-80283070D01*
X158323306Y-80283072D01*
X158293893Y-80323555D01*
X158221488Y-80423211D01*
X158142848Y-80577552D01*
X158142847Y-80577554D01*
X158142847Y-80577555D01*
X158118915Y-80651210D01*
X158089317Y-80742302D01*
X158062220Y-80913389D01*
X158062220Y-81886610D01*
X158075181Y-81968447D01*
X158089318Y-82057701D01*
X158142847Y-82222445D01*
X158221488Y-82376788D01*
X158323306Y-82516928D01*
X158445792Y-82639414D01*
X158585932Y-82741232D01*
X158740275Y-82819873D01*
X158905019Y-82873402D01*
X159076109Y-82900500D01*
X159076110Y-82900500D01*
X159249330Y-82900500D01*
X159249331Y-82900500D01*
X159420421Y-82873402D01*
X159585165Y-82819873D01*
X159739508Y-82741232D01*
X159879648Y-82639414D01*
X160002134Y-82516928D01*
X160103952Y-82376788D01*
X160182593Y-82222445D01*
X160236122Y-82057701D01*
X160263220Y-81886611D01*
X160263220Y-80913389D01*
X160236122Y-80742299D01*
X160182593Y-80577555D01*
X160103952Y-80423212D01*
X160002134Y-80283072D01*
X159879648Y-80160586D01*
X159854950Y-80142642D01*
X159839333Y-80131295D01*
X159796668Y-80075965D01*
X159788220Y-80030978D01*
X159788220Y-79101116D01*
X159788219Y-79101111D01*
X159787263Y-79096307D01*
X159787264Y-79096285D01*
X159787260Y-79096286D01*
X159764184Y-78980274D01*
X159764183Y-78980273D01*
X159764183Y-78980269D01*
X159764180Y-78980263D01*
X159764179Y-78980258D01*
X159717034Y-78866438D01*
X159717032Y-78866435D01*
X159717032Y-78866434D01*
X159679494Y-78810256D01*
X159648578Y-78763987D01*
X159561453Y-78676862D01*
X159561449Y-78676859D01*
X158746771Y-77862181D01*
X158713286Y-77800858D01*
X158718270Y-77731166D01*
X158760142Y-77675233D01*
X158825606Y-77650816D01*
X158834452Y-77650500D01*
X163165548Y-77650500D01*
X163232587Y-77670185D01*
X163278342Y-77722989D01*
X163288286Y-77792147D01*
X163259261Y-77855703D01*
X163253229Y-77862181D01*
X162777229Y-78338181D01*
X162750301Y-78352884D01*
X162724483Y-78369477D01*
X162718282Y-78370368D01*
X162715906Y-78371666D01*
X162689548Y-78374500D01*
X162542350Y-78374500D01*
X162475311Y-78354815D01*
X162473459Y-78353602D01*
X162379184Y-78290609D01*
X162379172Y-78290602D01*
X162233501Y-78230264D01*
X162233489Y-78230261D01*
X162078845Y-78199500D01*
X162078842Y-78199500D01*
X161921158Y-78199500D01*
X161921155Y-78199500D01*
X161766510Y-78230261D01*
X161766498Y-78230264D01*
X161620827Y-78290602D01*
X161620814Y-78290609D01*
X161489711Y-78378210D01*
X161489707Y-78378213D01*
X161378213Y-78489707D01*
X161378210Y-78489711D01*
X161290609Y-78620814D01*
X161290602Y-78620827D01*
X161230264Y-78766498D01*
X161230261Y-78766510D01*
X161199500Y-78921153D01*
X161199500Y-79078846D01*
X161230261Y-79233489D01*
X161230264Y-79233501D01*
X161290602Y-79379172D01*
X161290609Y-79379185D01*
X161378210Y-79510288D01*
X161382076Y-79514999D01*
X161379867Y-79516811D01*
X161407501Y-79567418D01*
X161402517Y-79637110D01*
X161360645Y-79693043D01*
X161324655Y-79711706D01*
X161280274Y-79726126D01*
X161125931Y-79804768D01*
X161067503Y-79847219D01*
X160985792Y-79906586D01*
X160985790Y-79906588D01*
X160985789Y-79906588D01*
X160863308Y-80029069D01*
X160863308Y-80029070D01*
X160863306Y-80029072D01*
X160836065Y-80066566D01*
X160761488Y-80169211D01*
X160682848Y-80323552D01*
X160629317Y-80488302D01*
X160602220Y-80659389D01*
X160602220Y-81632610D01*
X160628731Y-81800000D01*
X160629318Y-81803701D01*
X160682847Y-81968445D01*
X160761488Y-82122788D01*
X160863306Y-82262928D01*
X160985792Y-82385414D01*
X161125932Y-82487232D01*
X161280275Y-82565873D01*
X161445019Y-82619402D01*
X161616109Y-82646500D01*
X161616110Y-82646500D01*
X161789330Y-82646500D01*
X161789331Y-82646500D01*
X161960421Y-82619402D01*
X162125165Y-82565873D01*
X162279508Y-82487232D01*
X162419648Y-82385414D01*
X162542134Y-82262928D01*
X162643952Y-82122788D01*
X162722593Y-81968445D01*
X162776122Y-81803701D01*
X162803220Y-81632611D01*
X162803220Y-80659389D01*
X162776122Y-80488299D01*
X162722593Y-80323555D01*
X162643952Y-80169212D01*
X162542134Y-80029072D01*
X162419648Y-79906586D01*
X162402811Y-79894353D01*
X162384201Y-79870220D01*
X162363840Y-79847552D01*
X162363073Y-79842821D01*
X162360146Y-79839025D01*
X162357538Y-79808661D01*
X162352664Y-79778582D01*
X162354577Y-79774186D01*
X162354167Y-79769411D01*
X162368389Y-79742456D01*
X162380550Y-79714519D01*
X162385454Y-79710113D01*
X162386772Y-79707616D01*
X162406806Y-79690934D01*
X162407757Y-79690299D01*
X162473459Y-79646398D01*
X162540137Y-79625520D01*
X162542350Y-79625500D01*
X163061608Y-79625500D01*
X163061608Y-79625499D01*
X163142388Y-79609432D01*
X163182452Y-79601463D01*
X163215792Y-79587652D01*
X163296286Y-79554312D01*
X163362169Y-79510289D01*
X163398733Y-79485858D01*
X163485858Y-79398733D01*
X163485859Y-79398731D01*
X163492925Y-79391665D01*
X163492928Y-79391661D01*
X167857821Y-75026767D01*
X167919142Y-74993284D01*
X167988834Y-74998268D01*
X168044767Y-75040140D01*
X168069184Y-75105604D01*
X168069500Y-75114450D01*
X168069500Y-76397870D01*
X168069501Y-76397876D01*
X168075908Y-76457483D01*
X168126202Y-76592328D01*
X168126206Y-76592335D01*
X168212452Y-76707544D01*
X168212455Y-76707547D01*
X168327664Y-76793793D01*
X168327671Y-76793797D01*
X168462516Y-76844091D01*
X168508757Y-76849063D01*
X168573307Y-76875801D01*
X168613155Y-76933194D01*
X168619500Y-76972352D01*
X168619500Y-78784846D01*
X168650261Y-78939489D01*
X168650264Y-78939501D01*
X168710602Y-79085172D01*
X168710609Y-79085185D01*
X168798210Y-79216288D01*
X168798213Y-79216292D01*
X169275424Y-79693503D01*
X169308909Y-79754826D01*
X169303925Y-79824518D01*
X169262053Y-79880451D01*
X169207141Y-79903657D01*
X169062302Y-79926597D01*
X168897551Y-79980128D01*
X168894297Y-79981476D01*
X168892963Y-79981619D01*
X168892921Y-79981633D01*
X168892918Y-79981624D01*
X168824827Y-79988935D01*
X168762352Y-79957651D01*
X168759179Y-79954589D01*
X168234360Y-79429770D01*
X168226860Y-79422270D01*
X168226858Y-79422267D01*
X168139733Y-79335142D01*
X168081581Y-79296286D01*
X168037289Y-79266690D01*
X168037285Y-79266687D01*
X168037281Y-79266685D01*
X167948386Y-79229864D01*
X167948379Y-79229862D01*
X167939675Y-79226257D01*
X167923452Y-79219537D01*
X167836391Y-79202220D01*
X167802607Y-79195500D01*
X167802606Y-79195500D01*
X166461178Y-79195500D01*
X166337965Y-79195500D01*
X166241594Y-79214669D01*
X166241593Y-79214668D01*
X166217126Y-79219535D01*
X166217117Y-79219538D01*
X166103288Y-79266687D01*
X166032268Y-79314141D01*
X166032267Y-79314143D01*
X166032266Y-79314144D01*
X166000832Y-79335147D01*
X165593525Y-79742456D01*
X165458989Y-79876992D01*
X165458987Y-79876994D01*
X165436481Y-79899500D01*
X165371862Y-79964118D01*
X165344176Y-80005553D01*
X165344173Y-80005558D01*
X165341091Y-80010171D01*
X165303408Y-80066566D01*
X165282400Y-80117286D01*
X165279865Y-80123404D01*
X165279862Y-80123411D01*
X165256258Y-80180397D01*
X165256255Y-80180407D01*
X165255589Y-80183755D01*
X165254758Y-80185343D01*
X165254489Y-80186230D01*
X165254320Y-80186178D01*
X165223196Y-80245663D01*
X165162476Y-80280230D01*
X165092707Y-80276482D01*
X165046293Y-80247231D01*
X164959650Y-80160588D01*
X164959648Y-80160586D01*
X164819508Y-80058768D01*
X164665165Y-79980127D01*
X164500421Y-79926598D01*
X164500419Y-79926597D01*
X164500418Y-79926597D01*
X164355577Y-79903657D01*
X164329331Y-79899500D01*
X164156109Y-79899500D01*
X164129863Y-79903657D01*
X163985022Y-79926597D01*
X163820272Y-79980128D01*
X163665931Y-80058768D01*
X163592274Y-80112284D01*
X163525792Y-80160586D01*
X163525790Y-80160588D01*
X163525789Y-80160588D01*
X163403308Y-80283069D01*
X163403308Y-80283070D01*
X163403306Y-80283072D01*
X163373893Y-80323555D01*
X163301488Y-80423211D01*
X163222848Y-80577552D01*
X163222847Y-80577554D01*
X163222847Y-80577555D01*
X163198915Y-80651210D01*
X163169317Y-80742302D01*
X163142220Y-80913389D01*
X163142220Y-81886610D01*
X163155181Y-81968447D01*
X163169318Y-82057701D01*
X163222847Y-82222445D01*
X163301488Y-82376788D01*
X163403306Y-82516928D01*
X163525792Y-82639414D01*
X163665932Y-82741232D01*
X163820275Y-82819873D01*
X163985019Y-82873402D01*
X164156109Y-82900500D01*
X164156110Y-82900500D01*
X164329330Y-82900500D01*
X164329331Y-82900500D01*
X164500421Y-82873402D01*
X164665165Y-82819873D01*
X164819508Y-82741232D01*
X164959648Y-82639414D01*
X165020539Y-82578523D01*
X165081862Y-82545038D01*
X165151554Y-82550022D01*
X165207487Y-82591894D01*
X165231904Y-82657358D01*
X165232220Y-82666204D01*
X165232220Y-88551827D01*
X165212535Y-88618866D01*
X165195901Y-88639508D01*
X164349144Y-89486264D01*
X164349138Y-89486272D01*
X164280692Y-89588705D01*
X164280684Y-89588719D01*
X164250596Y-89661362D01*
X164247347Y-89669207D01*
X164233537Y-89702548D01*
X164226197Y-89739452D01*
X164214384Y-89798842D01*
X164213663Y-89802464D01*
X164213663Y-89802466D01*
X164209500Y-89823393D01*
X164209500Y-101496611D01*
X164233535Y-101617444D01*
X164233540Y-101617461D01*
X164280684Y-101731278D01*
X164280687Y-101731285D01*
X164292860Y-101749501D01*
X164292861Y-101749503D01*
X164349140Y-101833731D01*
X164349141Y-101833732D01*
X164349142Y-101833733D01*
X164436267Y-101920858D01*
X164436268Y-101920858D01*
X164443335Y-101927925D01*
X164443334Y-101927925D01*
X164443338Y-101927928D01*
X164674205Y-102158795D01*
X164707690Y-102220118D01*
X164708141Y-102222285D01*
X164730261Y-102333489D01*
X164730264Y-102333501D01*
X164790602Y-102479172D01*
X164790609Y-102479185D01*
X164878210Y-102610288D01*
X164878213Y-102610292D01*
X164989707Y-102721786D01*
X164989711Y-102721789D01*
X165120814Y-102809390D01*
X165120827Y-102809397D01*
X165266498Y-102869735D01*
X165266503Y-102869737D01*
X165411767Y-102898632D01*
X165421153Y-102900499D01*
X165421156Y-102900500D01*
X165421158Y-102900500D01*
X165578844Y-102900500D01*
X165636996Y-102888932D01*
X165693348Y-102877723D01*
X165762938Y-102883950D01*
X165818116Y-102926812D01*
X165841361Y-102992702D01*
X165828024Y-103055634D01*
X165762849Y-103183549D01*
X165709317Y-103348302D01*
X165689203Y-103475299D01*
X165682220Y-103519389D01*
X165682220Y-104492611D01*
X165688671Y-104533343D01*
X165708731Y-104660000D01*
X165709318Y-104663701D01*
X165762847Y-104828445D01*
X165841488Y-104982788D01*
X165943306Y-105122928D01*
X166065792Y-105245414D01*
X166205932Y-105347232D01*
X166360275Y-105425873D01*
X166525019Y-105479402D01*
X166696109Y-105506500D01*
X166696110Y-105506500D01*
X166869330Y-105506500D01*
X166869331Y-105506500D01*
X167040421Y-105479402D01*
X167205165Y-105425873D01*
X167359508Y-105347232D01*
X167499648Y-105245414D01*
X167622134Y-105122928D01*
X167723952Y-104982788D01*
X167802593Y-104828445D01*
X167856122Y-104663701D01*
X167883220Y-104492611D01*
X167883220Y-103519389D01*
X167856122Y-103348299D01*
X167802593Y-103183555D01*
X167723952Y-103029212D01*
X167622134Y-102889072D01*
X167499648Y-102766586D01*
X167359508Y-102664768D01*
X167205165Y-102586127D01*
X167040421Y-102532598D01*
X167040419Y-102532597D01*
X167040418Y-102532597D01*
X166908991Y-102511781D01*
X166869331Y-102505500D01*
X166696109Y-102505500D01*
X166663912Y-102510599D01*
X166525021Y-102532597D01*
X166390552Y-102576289D01*
X166320711Y-102578284D01*
X166260878Y-102542203D01*
X166230050Y-102479502D01*
X166237672Y-102410907D01*
X166269737Y-102333497D01*
X166300500Y-102178842D01*
X166300500Y-102021158D01*
X166300500Y-102021155D01*
X166300499Y-102021153D01*
X166281955Y-101927928D01*
X166269737Y-101866503D01*
X166256163Y-101833733D01*
X166209397Y-101720827D01*
X166209390Y-101720814D01*
X166121789Y-101589711D01*
X166121786Y-101589707D01*
X166010292Y-101478213D01*
X166010288Y-101478210D01*
X165879185Y-101390609D01*
X165879172Y-101390602D01*
X165733501Y-101330264D01*
X165733489Y-101330261D01*
X165622286Y-101308141D01*
X165605530Y-101299376D01*
X165587049Y-101295356D01*
X165562007Y-101276610D01*
X165560375Y-101275756D01*
X165558795Y-101274205D01*
X165496818Y-101212227D01*
X165463334Y-101150903D01*
X165460500Y-101124546D01*
X165460500Y-93334499D01*
X165480185Y-93267460D01*
X165532989Y-93221705D01*
X165584500Y-93210499D01*
X167292568Y-93210499D01*
X167359607Y-93230184D01*
X167405362Y-93282988D01*
X167415306Y-93352146D01*
X167403053Y-93390794D01*
X167327454Y-93539163D01*
X167269059Y-93718881D01*
X167239500Y-93905513D01*
X167239500Y-94094486D01*
X167269059Y-94281118D01*
X167327454Y-94460836D01*
X167391140Y-94585826D01*
X167413240Y-94629199D01*
X167524310Y-94782073D01*
X167657927Y-94915690D01*
X167810801Y-95026760D01*
X167890347Y-95067290D01*
X167979163Y-95112545D01*
X167979165Y-95112545D01*
X167979168Y-95112547D01*
X168075497Y-95143846D01*
X168158881Y-95170940D01*
X168345514Y-95200500D01*
X168345519Y-95200500D01*
X168534486Y-95200500D01*
X168721118Y-95170940D01*
X168900832Y-95112547D01*
X169069199Y-95026760D01*
X169222073Y-94915690D01*
X169355690Y-94782073D01*
X169466760Y-94629199D01*
X169552547Y-94460832D01*
X169610940Y-94281118D01*
X169628756Y-94168632D01*
X169640500Y-94094486D01*
X169640500Y-93905513D01*
X169634013Y-93864556D01*
X169631584Y-93849223D01*
X171219500Y-93849223D01*
X171219500Y-94150776D01*
X171219501Y-94150793D01*
X171258861Y-94449766D01*
X171336913Y-94741060D01*
X171452314Y-95019661D01*
X171452318Y-95019671D01*
X171603099Y-95280831D01*
X171786679Y-95520078D01*
X171786685Y-95520085D01*
X171999914Y-95733314D01*
X171999921Y-95733320D01*
X172239168Y-95916900D01*
X172500328Y-96067681D01*
X172500329Y-96067681D01*
X172500332Y-96067683D01*
X172686072Y-96144619D01*
X172778939Y-96183086D01*
X172778940Y-96183086D01*
X172778942Y-96183087D01*
X173070232Y-96261138D01*
X173369217Y-96300500D01*
X173369224Y-96300500D01*
X173670776Y-96300500D01*
X173670783Y-96300500D01*
X173969768Y-96261138D01*
X174261058Y-96183087D01*
X174539668Y-96067683D01*
X174800832Y-95916900D01*
X175040080Y-95733319D01*
X175253319Y-95520080D01*
X175436900Y-95280832D01*
X175587683Y-95019668D01*
X175703087Y-94741058D01*
X175781138Y-94449768D01*
X175820500Y-94150783D01*
X175820500Y-93905513D01*
X177399500Y-93905513D01*
X177399500Y-94094486D01*
X177429059Y-94281118D01*
X177487454Y-94460836D01*
X177551140Y-94585826D01*
X177573240Y-94629199D01*
X177684310Y-94782073D01*
X177817927Y-94915690D01*
X177970801Y-95026760D01*
X178050347Y-95067290D01*
X178139163Y-95112545D01*
X178139165Y-95112545D01*
X178139168Y-95112547D01*
X178235497Y-95143846D01*
X178318881Y-95170940D01*
X178505514Y-95200500D01*
X178505519Y-95200500D01*
X178694486Y-95200500D01*
X178881118Y-95170940D01*
X179060832Y-95112547D01*
X179229199Y-95026760D01*
X179382073Y-94915690D01*
X179515690Y-94782073D01*
X179626760Y-94629199D01*
X179712547Y-94460832D01*
X179770940Y-94281118D01*
X179788756Y-94168632D01*
X179800500Y-94094486D01*
X179800500Y-93905513D01*
X179770940Y-93718881D01*
X179713626Y-93542490D01*
X179712547Y-93539168D01*
X179712545Y-93539165D01*
X179712545Y-93539163D01*
X179636817Y-93390539D01*
X179626760Y-93370801D01*
X179515690Y-93217927D01*
X179382073Y-93084310D01*
X179229199Y-92973240D01*
X179188422Y-92952463D01*
X179060836Y-92887454D01*
X178881118Y-92829059D01*
X178694486Y-92799500D01*
X178694481Y-92799500D01*
X178505519Y-92799500D01*
X178505514Y-92799500D01*
X178318881Y-92829059D01*
X178139163Y-92887454D01*
X177970800Y-92973240D01*
X177895440Y-93027993D01*
X177817927Y-93084310D01*
X177817925Y-93084312D01*
X177817924Y-93084312D01*
X177684312Y-93217924D01*
X177684312Y-93217925D01*
X177684310Y-93217927D01*
X177655827Y-93257130D01*
X177573240Y-93370800D01*
X177487454Y-93539163D01*
X177429059Y-93718881D01*
X177399500Y-93905513D01*
X175820500Y-93905513D01*
X175820500Y-93849217D01*
X175781138Y-93550232D01*
X175703087Y-93258942D01*
X175702336Y-93257130D01*
X175646015Y-93121158D01*
X175587683Y-92980332D01*
X175583588Y-92973240D01*
X175436900Y-92719168D01*
X175253320Y-92479921D01*
X175253314Y-92479914D01*
X175040085Y-92266685D01*
X175040078Y-92266679D01*
X174800831Y-92083099D01*
X174539671Y-91932318D01*
X174539661Y-91932314D01*
X174261060Y-91816913D01*
X173969766Y-91738861D01*
X173670793Y-91699501D01*
X173670788Y-91699500D01*
X173670783Y-91699500D01*
X173369217Y-91699500D01*
X173369211Y-91699500D01*
X173369206Y-91699501D01*
X173070233Y-91738861D01*
X172778939Y-91816913D01*
X172500338Y-91932314D01*
X172500328Y-91932318D01*
X172239168Y-92083099D01*
X171999921Y-92266679D01*
X171999914Y-92266685D01*
X171786685Y-92479914D01*
X171786679Y-92479921D01*
X171603099Y-92719168D01*
X171452318Y-92980328D01*
X171452314Y-92980338D01*
X171336913Y-93258939D01*
X171258861Y-93550233D01*
X171219501Y-93849206D01*
X171219500Y-93849223D01*
X169631584Y-93849223D01*
X169610940Y-93718881D01*
X169553626Y-93542490D01*
X169552547Y-93539168D01*
X169552545Y-93539165D01*
X169552545Y-93539163D01*
X169525424Y-93485937D01*
X169476815Y-93390535D01*
X169463920Y-93321870D01*
X169490196Y-93257130D01*
X169547302Y-93216872D01*
X169591207Y-93211065D01*
X169591207Y-93210500D01*
X169824727Y-93210500D01*
X169824734Y-93210500D01*
X170052238Y-93180548D01*
X170273887Y-93121158D01*
X170485888Y-93033344D01*
X170684612Y-92918611D01*
X170866661Y-92778919D01*
X170866665Y-92778914D01*
X170866670Y-92778911D01*
X171028911Y-92616670D01*
X171028914Y-92616665D01*
X171028919Y-92616661D01*
X171168611Y-92434612D01*
X171283344Y-92235888D01*
X171371158Y-92023887D01*
X171430548Y-91802238D01*
X171460500Y-91574734D01*
X171460500Y-91345266D01*
X171430548Y-91117762D01*
X171371158Y-90896113D01*
X171321190Y-90775480D01*
X171283349Y-90684123D01*
X171283346Y-90684117D01*
X171283344Y-90684112D01*
X171168611Y-90485388D01*
X171168608Y-90485385D01*
X171168607Y-90485382D01*
X171028918Y-90303338D01*
X171028911Y-90303330D01*
X170866670Y-90141089D01*
X170866661Y-90141081D01*
X170684617Y-90001392D01*
X170626210Y-89967671D01*
X170485888Y-89886656D01*
X170485876Y-89886650D01*
X170273887Y-89798842D01*
X170052238Y-89739452D01*
X170014215Y-89734446D01*
X169824741Y-89709500D01*
X169824734Y-89709500D01*
X169595266Y-89709500D01*
X169595258Y-89709500D01*
X169378715Y-89738009D01*
X169367762Y-89739452D01*
X169338327Y-89747339D01*
X169146112Y-89798842D01*
X168934123Y-89886650D01*
X168934109Y-89886657D01*
X168735382Y-90001392D01*
X168553338Y-90141081D01*
X168422180Y-90272239D01*
X168360857Y-90305724D01*
X168291165Y-90300740D01*
X168235232Y-90258868D01*
X168210815Y-90193404D01*
X168210499Y-90184558D01*
X168210499Y-90162129D01*
X168210498Y-90162123D01*
X168208236Y-90141081D01*
X168204091Y-90102517D01*
X168200777Y-90093633D01*
X168153797Y-89967671D01*
X168153793Y-89967664D01*
X168067547Y-89852455D01*
X168067544Y-89852452D01*
X167952335Y-89766206D01*
X167952328Y-89766202D01*
X167817482Y-89715908D01*
X167817483Y-89715908D01*
X167757883Y-89709501D01*
X167757881Y-89709500D01*
X167757873Y-89709500D01*
X167757865Y-89709500D01*
X167532220Y-89709500D01*
X167465181Y-89689815D01*
X167419426Y-89637011D01*
X167408220Y-89585500D01*
X167408220Y-88805258D01*
X174309500Y-88805258D01*
X174309500Y-89034741D01*
X174327308Y-89170000D01*
X174339452Y-89262238D01*
X174376135Y-89399142D01*
X174398842Y-89483887D01*
X174486650Y-89695876D01*
X174486657Y-89695890D01*
X174601392Y-89894617D01*
X174741081Y-90076661D01*
X174741089Y-90076670D01*
X174903330Y-90238911D01*
X174903338Y-90238918D01*
X175085382Y-90378607D01*
X175085385Y-90378608D01*
X175085388Y-90378611D01*
X175284112Y-90493344D01*
X175284117Y-90493346D01*
X175284123Y-90493349D01*
X175355290Y-90522827D01*
X175496113Y-90581158D01*
X175717762Y-90640548D01*
X175934312Y-90669057D01*
X175941460Y-90669999D01*
X175945266Y-90670500D01*
X175945273Y-90670500D01*
X176174727Y-90670500D01*
X176174734Y-90670500D01*
X176402238Y-90640548D01*
X176623887Y-90581158D01*
X176835888Y-90493344D01*
X177034612Y-90378611D01*
X177216661Y-90238919D01*
X177216665Y-90238914D01*
X177216670Y-90238911D01*
X177375319Y-90080262D01*
X177436642Y-90046777D01*
X177506334Y-90051761D01*
X177562267Y-90093633D01*
X177586684Y-90159097D01*
X177587000Y-90167943D01*
X177587000Y-90217844D01*
X177593401Y-90277372D01*
X177593403Y-90277379D01*
X177643645Y-90412086D01*
X177643649Y-90412093D01*
X177729809Y-90527187D01*
X177729812Y-90527190D01*
X177844906Y-90613350D01*
X177844913Y-90613354D01*
X177979620Y-90663596D01*
X177979627Y-90663598D01*
X178039155Y-90669999D01*
X178039172Y-90670000D01*
X179112000Y-90670000D01*
X179612000Y-90670000D01*
X180684828Y-90670000D01*
X180684844Y-90669999D01*
X180744372Y-90663598D01*
X180744379Y-90663596D01*
X180879086Y-90613354D01*
X180879093Y-90613350D01*
X180994187Y-90527190D01*
X180994190Y-90527187D01*
X181080350Y-90412093D01*
X181080354Y-90412086D01*
X181130596Y-90277379D01*
X181130598Y-90277372D01*
X181136999Y-90217844D01*
X181137000Y-90217827D01*
X181137000Y-89170000D01*
X179612000Y-89170000D01*
X179612000Y-90670000D01*
X179112000Y-90670000D01*
X179112000Y-88670000D01*
X179612000Y-88670000D01*
X181137000Y-88670000D01*
X181137000Y-87622172D01*
X181136999Y-87622155D01*
X181130598Y-87562627D01*
X181130596Y-87562620D01*
X181080354Y-87427913D01*
X181080350Y-87427906D01*
X180994190Y-87312812D01*
X180994187Y-87312809D01*
X180879093Y-87226649D01*
X180879086Y-87226645D01*
X180744379Y-87176403D01*
X180744372Y-87176401D01*
X180684844Y-87170000D01*
X179612000Y-87170000D01*
X179612000Y-88670000D01*
X179112000Y-88670000D01*
X179112000Y-87170000D01*
X178039155Y-87170000D01*
X177979627Y-87176401D01*
X177979620Y-87176403D01*
X177844913Y-87226645D01*
X177844906Y-87226649D01*
X177729812Y-87312809D01*
X177729809Y-87312812D01*
X177643649Y-87427906D01*
X177643645Y-87427913D01*
X177593403Y-87562620D01*
X177593401Y-87562627D01*
X177587000Y-87622155D01*
X177587000Y-87672057D01*
X177567315Y-87739096D01*
X177514511Y-87784851D01*
X177445353Y-87794795D01*
X177381797Y-87765770D01*
X177375319Y-87759738D01*
X177216670Y-87601089D01*
X177216661Y-87601081D01*
X177034617Y-87461392D01*
X176835890Y-87346657D01*
X176835876Y-87346650D01*
X176623887Y-87258842D01*
X176402238Y-87199452D01*
X176364215Y-87194446D01*
X176174741Y-87169500D01*
X176174734Y-87169500D01*
X175945266Y-87169500D01*
X175945258Y-87169500D01*
X175728715Y-87198009D01*
X175717762Y-87199452D01*
X175624076Y-87224554D01*
X175496112Y-87258842D01*
X175284123Y-87346650D01*
X175284109Y-87346657D01*
X175085382Y-87461392D01*
X174903338Y-87601081D01*
X174741081Y-87763338D01*
X174601392Y-87945382D01*
X174486657Y-88144109D01*
X174486650Y-88144123D01*
X174398842Y-88356112D01*
X174339453Y-88577759D01*
X174339451Y-88577770D01*
X174309500Y-88805258D01*
X167408220Y-88805258D01*
X167408220Y-82515021D01*
X167427905Y-82447982D01*
X167459336Y-82414702D01*
X167499644Y-82385417D01*
X167499644Y-82385416D01*
X167499648Y-82385414D01*
X167622134Y-82262928D01*
X167723952Y-82122788D01*
X167802593Y-81968445D01*
X167856122Y-81803701D01*
X167883220Y-81632611D01*
X167883220Y-81147172D01*
X167889458Y-81125926D01*
X167891038Y-81103838D01*
X167899110Y-81093054D01*
X167902905Y-81080133D01*
X167919638Y-81065633D01*
X167932910Y-81047905D01*
X167945530Y-81043197D01*
X167955709Y-81034378D01*
X167977626Y-81031226D01*
X167998374Y-81023488D01*
X168011534Y-81026350D01*
X168024867Y-81024434D01*
X168045010Y-81033633D01*
X168066647Y-81038340D01*
X168084372Y-81051608D01*
X168088423Y-81053459D01*
X168094901Y-81059491D01*
X168183181Y-81147771D01*
X168216666Y-81209094D01*
X168219500Y-81235452D01*
X168219500Y-81886610D01*
X168232461Y-81968447D01*
X168246598Y-82057701D01*
X168300127Y-82222445D01*
X168378768Y-82376788D01*
X168480586Y-82516928D01*
X168603072Y-82639414D01*
X168743212Y-82741232D01*
X168897555Y-82819873D01*
X169062299Y-82873402D01*
X169233389Y-82900500D01*
X169233390Y-82900500D01*
X169406610Y-82900500D01*
X169406611Y-82900500D01*
X169577701Y-82873402D01*
X169742445Y-82819873D01*
X169896788Y-82741232D01*
X170036928Y-82639414D01*
X170159414Y-82516928D01*
X170261232Y-82376788D01*
X170339873Y-82222445D01*
X170393402Y-82057701D01*
X170420500Y-81886611D01*
X170420500Y-81137940D01*
X170426738Y-81116694D01*
X170428318Y-81094606D01*
X170436390Y-81083822D01*
X170440185Y-81070901D01*
X170456918Y-81056401D01*
X170470190Y-81038673D01*
X170482810Y-81033965D01*
X170492989Y-81025146D01*
X170514906Y-81021994D01*
X170535654Y-81014256D01*
X170548814Y-81017118D01*
X170562147Y-81015202D01*
X170582290Y-81024401D01*
X170603927Y-81029108D01*
X170621652Y-81042376D01*
X170625703Y-81044227D01*
X170632181Y-81050259D01*
X170723181Y-81141259D01*
X170756666Y-81202582D01*
X170759500Y-81228940D01*
X170759500Y-81632610D01*
X170786011Y-81800000D01*
X170786598Y-81803701D01*
X170840127Y-81968445D01*
X170918768Y-82122788D01*
X171020586Y-82262928D01*
X171143072Y-82385414D01*
X171283212Y-82487232D01*
X171437555Y-82565873D01*
X171602299Y-82619402D01*
X171773389Y-82646500D01*
X171773390Y-82646500D01*
X171946610Y-82646500D01*
X171946611Y-82646500D01*
X172095559Y-82622909D01*
X172122513Y-82618640D01*
X172122677Y-82619680D01*
X172187378Y-82622909D01*
X172234238Y-82652316D01*
X175403707Y-85821786D01*
X175403711Y-85821789D01*
X175534814Y-85909390D01*
X175534818Y-85909392D01*
X175534821Y-85909394D01*
X175680503Y-85969738D01*
X175796904Y-85992891D01*
X175835153Y-86000499D01*
X175835157Y-86000500D01*
X175835158Y-86000500D01*
X175992843Y-86000500D01*
X180217060Y-86000500D01*
X180284099Y-86020185D01*
X180304741Y-86036819D01*
X181363181Y-87095259D01*
X181396666Y-87156582D01*
X181399500Y-87182940D01*
X181399500Y-102217060D01*
X181379815Y-102284099D01*
X181363181Y-102304741D01*
X177704741Y-105963181D01*
X177643418Y-105996666D01*
X177617060Y-105999500D01*
X174552715Y-105999500D01*
X174485676Y-105979815D01*
X174439921Y-105927011D01*
X174429977Y-105857853D01*
X174459002Y-105794297D01*
X174517780Y-105756523D01*
X174533317Y-105753027D01*
X174660304Y-105732914D01*
X174824977Y-105679408D01*
X174979244Y-105600804D01*
X175119322Y-105499032D01*
X175241752Y-105376602D01*
X175343524Y-105236524D01*
X175422128Y-105082257D01*
X175475634Y-104917584D01*
X175502720Y-104746571D01*
X175502720Y-104510000D01*
X174718406Y-104510000D01*
X174722800Y-104505606D01*
X174775461Y-104414394D01*
X174802720Y-104312661D01*
X174802720Y-104207339D01*
X174775461Y-104105606D01*
X174722800Y-104014394D01*
X174718406Y-104010000D01*
X175502720Y-104010000D01*
X175502720Y-103773428D01*
X175475634Y-103602415D01*
X175422128Y-103437742D01*
X175343524Y-103283475D01*
X175241752Y-103143397D01*
X175119322Y-103020967D01*
X174979244Y-102919195D01*
X174824977Y-102840591D01*
X174660309Y-102787087D01*
X174660301Y-102787085D01*
X174652720Y-102785884D01*
X174652720Y-103944314D01*
X174648326Y-103939920D01*
X174557114Y-103887259D01*
X174455381Y-103860000D01*
X174350059Y-103860000D01*
X174248326Y-103887259D01*
X174157114Y-103939920D01*
X174152720Y-103944314D01*
X174152720Y-102785884D01*
X174152719Y-102785884D01*
X174145138Y-102787085D01*
X174145130Y-102787087D01*
X173980462Y-102840591D01*
X173826195Y-102919195D01*
X173686117Y-103020967D01*
X173563687Y-103143397D01*
X173461915Y-103283475D01*
X173383311Y-103437742D01*
X173329805Y-103602415D01*
X173302720Y-103773428D01*
X173302720Y-104010000D01*
X174087034Y-104010000D01*
X174082640Y-104014394D01*
X174029979Y-104105606D01*
X174002720Y-104207339D01*
X174002720Y-104312661D01*
X174029979Y-104414394D01*
X174082640Y-104505606D01*
X174087034Y-104510000D01*
X173302720Y-104510000D01*
X173302720Y-104746571D01*
X173329805Y-104917584D01*
X173383311Y-105082257D01*
X173461915Y-105236524D01*
X173563687Y-105376602D01*
X173686117Y-105499032D01*
X173826195Y-105600804D01*
X173980462Y-105679408D01*
X174145135Y-105732914D01*
X174272123Y-105753027D01*
X174335258Y-105782956D01*
X174372189Y-105842268D01*
X174371191Y-105912130D01*
X174332581Y-105970363D01*
X174268618Y-105998477D01*
X174252725Y-105999500D01*
X169475911Y-105999500D01*
X169408872Y-105979815D01*
X169363117Y-105927011D01*
X169353173Y-105857853D01*
X169382198Y-105794297D01*
X169440976Y-105756523D01*
X169456511Y-105753027D01*
X169580421Y-105733402D01*
X169745165Y-105679873D01*
X169899508Y-105601232D01*
X170039648Y-105499414D01*
X170162134Y-105376928D01*
X170263952Y-105236788D01*
X170342593Y-105082445D01*
X170396122Y-104917701D01*
X170423220Y-104746611D01*
X170423220Y-103773389D01*
X170396122Y-103602299D01*
X170369195Y-103519428D01*
X170762720Y-103519428D01*
X170762720Y-103756000D01*
X171547034Y-103756000D01*
X171542640Y-103760394D01*
X171489979Y-103851606D01*
X171462720Y-103953339D01*
X171462720Y-104058661D01*
X171489979Y-104160394D01*
X171542640Y-104251606D01*
X171547034Y-104256000D01*
X170762720Y-104256000D01*
X170762720Y-104492571D01*
X170789805Y-104663584D01*
X170843311Y-104828257D01*
X170921915Y-104982524D01*
X171023687Y-105122602D01*
X171146117Y-105245032D01*
X171286195Y-105346804D01*
X171440464Y-105425408D01*
X171605135Y-105478914D01*
X171605134Y-105478914D01*
X171612719Y-105480115D01*
X171612720Y-105480114D01*
X171612720Y-104321686D01*
X171617114Y-104326080D01*
X171708326Y-104378741D01*
X171810059Y-104406000D01*
X171915381Y-104406000D01*
X172017114Y-104378741D01*
X172108326Y-104326080D01*
X172112720Y-104321686D01*
X172112720Y-105480115D01*
X172120304Y-105478914D01*
X172284975Y-105425408D01*
X172439244Y-105346804D01*
X172579322Y-105245032D01*
X172701752Y-105122602D01*
X172803524Y-104982524D01*
X172882128Y-104828257D01*
X172935634Y-104663584D01*
X172962720Y-104492571D01*
X172962720Y-104256000D01*
X172178406Y-104256000D01*
X172182800Y-104251606D01*
X172235461Y-104160394D01*
X172262720Y-104058661D01*
X172262720Y-103953339D01*
X172235461Y-103851606D01*
X172182800Y-103760394D01*
X172178406Y-103756000D01*
X172962720Y-103756000D01*
X172962720Y-103519428D01*
X172935634Y-103348415D01*
X172882128Y-103183742D01*
X172803524Y-103029475D01*
X172701752Y-102889397D01*
X172579322Y-102766967D01*
X172439244Y-102665195D01*
X172284977Y-102586591D01*
X172120309Y-102533087D01*
X172120301Y-102533085D01*
X172112720Y-102531884D01*
X172112720Y-103690314D01*
X172108326Y-103685920D01*
X172017114Y-103633259D01*
X171915381Y-103606000D01*
X171810059Y-103606000D01*
X171708326Y-103633259D01*
X171617114Y-103685920D01*
X171612720Y-103690314D01*
X171612720Y-102531884D01*
X171612719Y-102531884D01*
X171605138Y-102533085D01*
X171605130Y-102533087D01*
X171440462Y-102586591D01*
X171286195Y-102665195D01*
X171146117Y-102766967D01*
X171023687Y-102889397D01*
X170921915Y-103029475D01*
X170843311Y-103183742D01*
X170789805Y-103348415D01*
X170762720Y-103519428D01*
X170369195Y-103519428D01*
X170342593Y-103437555D01*
X170263952Y-103283212D01*
X170162134Y-103143072D01*
X170039648Y-103020586D01*
X169899508Y-102918768D01*
X169803278Y-102869737D01*
X169745167Y-102840128D01*
X169745166Y-102840127D01*
X169745165Y-102840127D01*
X169580421Y-102786598D01*
X169580419Y-102786597D01*
X169580418Y-102786597D01*
X169448991Y-102765781D01*
X169409331Y-102759500D01*
X169236109Y-102759500D01*
X169196448Y-102765781D01*
X169065022Y-102786597D01*
X168900272Y-102840128D01*
X168745931Y-102918768D01*
X168734860Y-102926812D01*
X168605792Y-103020586D01*
X168605790Y-103020588D01*
X168605789Y-103020588D01*
X168483308Y-103143069D01*
X168483308Y-103143070D01*
X168483306Y-103143072D01*
X168439579Y-103203256D01*
X168381488Y-103283211D01*
X168302848Y-103437552D01*
X168249317Y-103602302D01*
X168222220Y-103773389D01*
X168222220Y-104746610D01*
X168235181Y-104828447D01*
X168249318Y-104917701D01*
X168302847Y-105082445D01*
X168381488Y-105236788D01*
X168483306Y-105376928D01*
X168605792Y-105499414D01*
X168745932Y-105601232D01*
X168900275Y-105679873D01*
X169065019Y-105733402D01*
X169188927Y-105753027D01*
X169252061Y-105782956D01*
X169288993Y-105842267D01*
X169287995Y-105912130D01*
X169249385Y-105970363D01*
X169185422Y-105998477D01*
X169169529Y-105999500D01*
X164395911Y-105999500D01*
X164328872Y-105979815D01*
X164283117Y-105927011D01*
X164273173Y-105857853D01*
X164302198Y-105794297D01*
X164360976Y-105756523D01*
X164376511Y-105753027D01*
X164500421Y-105733402D01*
X164665165Y-105679873D01*
X164819508Y-105601232D01*
X164959648Y-105499414D01*
X165082134Y-105376928D01*
X165183952Y-105236788D01*
X165262593Y-105082445D01*
X165316122Y-104917701D01*
X165343220Y-104746611D01*
X165343220Y-103773389D01*
X165316122Y-103602299D01*
X165262593Y-103437555D01*
X165183952Y-103283212D01*
X165082134Y-103143072D01*
X164959648Y-103020586D01*
X164819508Y-102918768D01*
X164723278Y-102869737D01*
X164665167Y-102840128D01*
X164665166Y-102840127D01*
X164665165Y-102840127D01*
X164500421Y-102786598D01*
X164500419Y-102786597D01*
X164500418Y-102786597D01*
X164368991Y-102765781D01*
X164329331Y-102759500D01*
X164156109Y-102759500D01*
X164116448Y-102765781D01*
X163985022Y-102786597D01*
X163820272Y-102840128D01*
X163665931Y-102918768D01*
X163654860Y-102926812D01*
X163525792Y-103020586D01*
X163525790Y-103020588D01*
X163525789Y-103020588D01*
X163403308Y-103143069D01*
X163403308Y-103143070D01*
X163403306Y-103143072D01*
X163359579Y-103203256D01*
X163301488Y-103283211D01*
X163222848Y-103437552D01*
X163169317Y-103602302D01*
X163142220Y-103773389D01*
X163142220Y-104746610D01*
X163155181Y-104828447D01*
X163169318Y-104917701D01*
X163222847Y-105082445D01*
X163301488Y-105236788D01*
X163403306Y-105376928D01*
X163525792Y-105499414D01*
X163665932Y-105601232D01*
X163820275Y-105679873D01*
X163985019Y-105733402D01*
X164108927Y-105753027D01*
X164172061Y-105782956D01*
X164208993Y-105842267D01*
X164207995Y-105912130D01*
X164169385Y-105970363D01*
X164105422Y-105998477D01*
X164089529Y-105999500D01*
X159315911Y-105999500D01*
X159248872Y-105979815D01*
X159203117Y-105927011D01*
X159193173Y-105857853D01*
X159222198Y-105794297D01*
X159280976Y-105756523D01*
X159296511Y-105753027D01*
X159420421Y-105733402D01*
X159585165Y-105679873D01*
X159739508Y-105601232D01*
X159879648Y-105499414D01*
X160002134Y-105376928D01*
X160103952Y-105236788D01*
X160182593Y-105082445D01*
X160236122Y-104917701D01*
X160263220Y-104746611D01*
X160263220Y-103773389D01*
X160236122Y-103602299D01*
X160209183Y-103519389D01*
X160602220Y-103519389D01*
X160602220Y-104492611D01*
X160608671Y-104533343D01*
X160628731Y-104660000D01*
X160629318Y-104663701D01*
X160682847Y-104828445D01*
X160761488Y-104982788D01*
X160863306Y-105122928D01*
X160985792Y-105245414D01*
X161125932Y-105347232D01*
X161280275Y-105425873D01*
X161445019Y-105479402D01*
X161616109Y-105506500D01*
X161616110Y-105506500D01*
X161789330Y-105506500D01*
X161789331Y-105506500D01*
X161960421Y-105479402D01*
X162125165Y-105425873D01*
X162279508Y-105347232D01*
X162419648Y-105245414D01*
X162542134Y-105122928D01*
X162643952Y-104982788D01*
X162722593Y-104828445D01*
X162776122Y-104663701D01*
X162803220Y-104492611D01*
X162803220Y-103519389D01*
X162776122Y-103348299D01*
X162722593Y-103183555D01*
X162643952Y-103029212D01*
X162542134Y-102889072D01*
X162419648Y-102766586D01*
X162279508Y-102664768D01*
X162125165Y-102586127D01*
X161960421Y-102532598D01*
X161960419Y-102532597D01*
X161960418Y-102532597D01*
X161828991Y-102511781D01*
X161789331Y-102505500D01*
X161616109Y-102505500D01*
X161576448Y-102511781D01*
X161445022Y-102532597D01*
X161280272Y-102586128D01*
X161125931Y-102664768D01*
X161096904Y-102685858D01*
X160985792Y-102766586D01*
X160985790Y-102766588D01*
X160985789Y-102766588D01*
X160863308Y-102889069D01*
X160863308Y-102889070D01*
X160863306Y-102889072D01*
X160835886Y-102926812D01*
X160761488Y-103029211D01*
X160682848Y-103183552D01*
X160629317Y-103348302D01*
X160609203Y-103475299D01*
X160602220Y-103519389D01*
X160209183Y-103519389D01*
X160182593Y-103437555D01*
X160103952Y-103283212D01*
X160002134Y-103143072D01*
X159879648Y-103020586D01*
X159739508Y-102918768D01*
X159643278Y-102869737D01*
X159585167Y-102840128D01*
X159585166Y-102840127D01*
X159585165Y-102840127D01*
X159420421Y-102786598D01*
X159420419Y-102786597D01*
X159420418Y-102786597D01*
X159288991Y-102765781D01*
X159249331Y-102759500D01*
X159076109Y-102759500D01*
X159036448Y-102765781D01*
X158905022Y-102786597D01*
X158740272Y-102840128D01*
X158585931Y-102918768D01*
X158574860Y-102926812D01*
X158445792Y-103020586D01*
X158445790Y-103020588D01*
X158445789Y-103020588D01*
X158323308Y-103143069D01*
X158323308Y-103143070D01*
X158323306Y-103143072D01*
X158279579Y-103203256D01*
X158221488Y-103283211D01*
X158142848Y-103437552D01*
X158089317Y-103602302D01*
X158062220Y-103773389D01*
X158062220Y-104746610D01*
X158075181Y-104828447D01*
X158089318Y-104917701D01*
X158142847Y-105082445D01*
X158221488Y-105236788D01*
X158323306Y-105376928D01*
X158445792Y-105499414D01*
X158585932Y-105601232D01*
X158740275Y-105679873D01*
X158905019Y-105733402D01*
X159028927Y-105753027D01*
X159092061Y-105782956D01*
X159128993Y-105842267D01*
X159127995Y-105912130D01*
X159089385Y-105970363D01*
X159025422Y-105998477D01*
X159009529Y-105999500D01*
X154235911Y-105999500D01*
X154168872Y-105979815D01*
X154123117Y-105927011D01*
X154113173Y-105857853D01*
X154142198Y-105794297D01*
X154200976Y-105756523D01*
X154216511Y-105753027D01*
X154340421Y-105733402D01*
X154505165Y-105679873D01*
X154659508Y-105601232D01*
X154799648Y-105499414D01*
X154922134Y-105376928D01*
X155023952Y-105236788D01*
X155102593Y-105082445D01*
X155156122Y-104917701D01*
X155183220Y-104746611D01*
X155183220Y-103773389D01*
X155156122Y-103602299D01*
X155129183Y-103519389D01*
X155522220Y-103519389D01*
X155522220Y-104492611D01*
X155528671Y-104533343D01*
X155548731Y-104660000D01*
X155549318Y-104663701D01*
X155602847Y-104828445D01*
X155681488Y-104982788D01*
X155783306Y-105122928D01*
X155905792Y-105245414D01*
X156045932Y-105347232D01*
X156200275Y-105425873D01*
X156365019Y-105479402D01*
X156536109Y-105506500D01*
X156536110Y-105506500D01*
X156709330Y-105506500D01*
X156709331Y-105506500D01*
X156880421Y-105479402D01*
X157045165Y-105425873D01*
X157199508Y-105347232D01*
X157339648Y-105245414D01*
X157462134Y-105122928D01*
X157563952Y-104982788D01*
X157642593Y-104828445D01*
X157696122Y-104663701D01*
X157723220Y-104492611D01*
X157723220Y-103519389D01*
X157696122Y-103348299D01*
X157642593Y-103183555D01*
X157563952Y-103029212D01*
X157462134Y-102889072D01*
X157339648Y-102766586D01*
X157199508Y-102664768D01*
X157045165Y-102586127D01*
X156880421Y-102532598D01*
X156880419Y-102532597D01*
X156880418Y-102532597D01*
X156748991Y-102511781D01*
X156709331Y-102505500D01*
X156536109Y-102505500D01*
X156496448Y-102511781D01*
X156365022Y-102532597D01*
X156200272Y-102586128D01*
X156045931Y-102664768D01*
X156016904Y-102685858D01*
X155905792Y-102766586D01*
X155905790Y-102766588D01*
X155905789Y-102766588D01*
X155783308Y-102889069D01*
X155783308Y-102889070D01*
X155783306Y-102889072D01*
X155755886Y-102926812D01*
X155681488Y-103029211D01*
X155602848Y-103183552D01*
X155549317Y-103348302D01*
X155529203Y-103475299D01*
X155522220Y-103519389D01*
X155129183Y-103519389D01*
X155102593Y-103437555D01*
X155023952Y-103283212D01*
X154922134Y-103143072D01*
X154799648Y-103020586D01*
X154659508Y-102918768D01*
X154563278Y-102869737D01*
X154505167Y-102840128D01*
X154505166Y-102840127D01*
X154505165Y-102840127D01*
X154340421Y-102786598D01*
X154340419Y-102786597D01*
X154340418Y-102786597D01*
X154208991Y-102765781D01*
X154169331Y-102759500D01*
X153996109Y-102759500D01*
X153956448Y-102765781D01*
X153825022Y-102786597D01*
X153660272Y-102840128D01*
X153505931Y-102918768D01*
X153494860Y-102926812D01*
X153365792Y-103020586D01*
X153365790Y-103020588D01*
X153365789Y-103020588D01*
X153243308Y-103143069D01*
X153243308Y-103143070D01*
X153243306Y-103143072D01*
X153199579Y-103203256D01*
X153141488Y-103283211D01*
X153062848Y-103437552D01*
X153009317Y-103602302D01*
X152982220Y-103773389D01*
X152982220Y-104746610D01*
X152995181Y-104828447D01*
X153009318Y-104917701D01*
X153062847Y-105082445D01*
X153141488Y-105236788D01*
X153243306Y-105376928D01*
X153365792Y-105499414D01*
X153505932Y-105601232D01*
X153660275Y-105679873D01*
X153825019Y-105733402D01*
X153948927Y-105753027D01*
X154012061Y-105782956D01*
X154048993Y-105842267D01*
X154047995Y-105912130D01*
X154009385Y-105970363D01*
X153945422Y-105998477D01*
X153929529Y-105999500D01*
X149155911Y-105999500D01*
X149088872Y-105979815D01*
X149043117Y-105927011D01*
X149033173Y-105857853D01*
X149062198Y-105794297D01*
X149120976Y-105756523D01*
X149136511Y-105753027D01*
X149260421Y-105733402D01*
X149425165Y-105679873D01*
X149579508Y-105601232D01*
X149719648Y-105499414D01*
X149842134Y-105376928D01*
X149943952Y-105236788D01*
X150022593Y-105082445D01*
X150076122Y-104917701D01*
X150103220Y-104746611D01*
X150103220Y-103773389D01*
X150076122Y-103602299D01*
X150049183Y-103519389D01*
X150442220Y-103519389D01*
X150442220Y-104492611D01*
X150448671Y-104533343D01*
X150468731Y-104660000D01*
X150469318Y-104663701D01*
X150522847Y-104828445D01*
X150601488Y-104982788D01*
X150703306Y-105122928D01*
X150825792Y-105245414D01*
X150965932Y-105347232D01*
X151120275Y-105425873D01*
X151285019Y-105479402D01*
X151456109Y-105506500D01*
X151456110Y-105506500D01*
X151629330Y-105506500D01*
X151629331Y-105506500D01*
X151800421Y-105479402D01*
X151965165Y-105425873D01*
X152119508Y-105347232D01*
X152259648Y-105245414D01*
X152382134Y-105122928D01*
X152483952Y-104982788D01*
X152562593Y-104828445D01*
X152616122Y-104663701D01*
X152643220Y-104492611D01*
X152643220Y-103519389D01*
X152616122Y-103348299D01*
X152562593Y-103183555D01*
X152483952Y-103029212D01*
X152382134Y-102889072D01*
X152259648Y-102766586D01*
X152119508Y-102664768D01*
X151965165Y-102586127D01*
X151800421Y-102532598D01*
X151800419Y-102532597D01*
X151800418Y-102532597D01*
X151668991Y-102511781D01*
X151629331Y-102505500D01*
X151456109Y-102505500D01*
X151416448Y-102511781D01*
X151285022Y-102532597D01*
X151120272Y-102586128D01*
X150965931Y-102664768D01*
X150936904Y-102685858D01*
X150825792Y-102766586D01*
X150825790Y-102766588D01*
X150825789Y-102766588D01*
X150703308Y-102889069D01*
X150703308Y-102889070D01*
X150703306Y-102889072D01*
X150675886Y-102926812D01*
X150601488Y-103029211D01*
X150522848Y-103183552D01*
X150469317Y-103348302D01*
X150449203Y-103475299D01*
X150442220Y-103519389D01*
X150049183Y-103519389D01*
X150022593Y-103437555D01*
X149943952Y-103283212D01*
X149842134Y-103143072D01*
X149719648Y-103020586D01*
X149579508Y-102918768D01*
X149483278Y-102869737D01*
X149425167Y-102840128D01*
X149425166Y-102840127D01*
X149425165Y-102840127D01*
X149260421Y-102786598D01*
X149260419Y-102786597D01*
X149260418Y-102786597D01*
X149128991Y-102765781D01*
X149089331Y-102759500D01*
X148916109Y-102759500D01*
X148876448Y-102765781D01*
X148745022Y-102786597D01*
X148580272Y-102840128D01*
X148425931Y-102918768D01*
X148414860Y-102926812D01*
X148285792Y-103020586D01*
X148285790Y-103020588D01*
X148285789Y-103020588D01*
X148163308Y-103143069D01*
X148163308Y-103143070D01*
X148163306Y-103143072D01*
X148119579Y-103203256D01*
X148061488Y-103283211D01*
X147982848Y-103437552D01*
X147929317Y-103602302D01*
X147902220Y-103773389D01*
X147902220Y-104746610D01*
X147915181Y-104828447D01*
X147929318Y-104917701D01*
X147982847Y-105082445D01*
X148061488Y-105236788D01*
X148163306Y-105376928D01*
X148285792Y-105499414D01*
X148425932Y-105601232D01*
X148580275Y-105679873D01*
X148745019Y-105733402D01*
X148868927Y-105753027D01*
X148932061Y-105782956D01*
X148968993Y-105842267D01*
X148967995Y-105912130D01*
X148929385Y-105970363D01*
X148865422Y-105998477D01*
X148849529Y-105999500D01*
X144075911Y-105999500D01*
X144008872Y-105979815D01*
X143963117Y-105927011D01*
X143953173Y-105857853D01*
X143982198Y-105794297D01*
X144040976Y-105756523D01*
X144056511Y-105753027D01*
X144180421Y-105733402D01*
X144345165Y-105679873D01*
X144499508Y-105601232D01*
X144639648Y-105499414D01*
X144762134Y-105376928D01*
X144863952Y-105236788D01*
X144942593Y-105082445D01*
X144996122Y-104917701D01*
X145023220Y-104746611D01*
X145023220Y-103773389D01*
X144996122Y-103602299D01*
X144969183Y-103519389D01*
X145362220Y-103519389D01*
X145362220Y-104492611D01*
X145368671Y-104533343D01*
X145388731Y-104660000D01*
X145389318Y-104663701D01*
X145442847Y-104828445D01*
X145521488Y-104982788D01*
X145623306Y-105122928D01*
X145745792Y-105245414D01*
X145885932Y-105347232D01*
X146040275Y-105425873D01*
X146205019Y-105479402D01*
X146376109Y-105506500D01*
X146376110Y-105506500D01*
X146549330Y-105506500D01*
X146549331Y-105506500D01*
X146720421Y-105479402D01*
X146885165Y-105425873D01*
X147039508Y-105347232D01*
X147179648Y-105245414D01*
X147302134Y-105122928D01*
X147403952Y-104982788D01*
X147482593Y-104828445D01*
X147536122Y-104663701D01*
X147563220Y-104492611D01*
X147563220Y-103519389D01*
X147536122Y-103348299D01*
X147482593Y-103183555D01*
X147403952Y-103029212D01*
X147302134Y-102889072D01*
X147179648Y-102766586D01*
X147039508Y-102664768D01*
X146885165Y-102586127D01*
X146720421Y-102532598D01*
X146720419Y-102532597D01*
X146720418Y-102532597D01*
X146588991Y-102511781D01*
X146549331Y-102505500D01*
X146376109Y-102505500D01*
X146336448Y-102511781D01*
X146205022Y-102532597D01*
X146040272Y-102586128D01*
X145885931Y-102664768D01*
X145856904Y-102685858D01*
X145745792Y-102766586D01*
X145745790Y-102766588D01*
X145745789Y-102766588D01*
X145623308Y-102889069D01*
X145623308Y-102889070D01*
X145623306Y-102889072D01*
X145595886Y-102926812D01*
X145521488Y-103029211D01*
X145442848Y-103183552D01*
X145389317Y-103348302D01*
X145369203Y-103475299D01*
X145362220Y-103519389D01*
X144969183Y-103519389D01*
X144942593Y-103437555D01*
X144863952Y-103283212D01*
X144762134Y-103143072D01*
X144639648Y-103020586D01*
X144499508Y-102918768D01*
X144403278Y-102869737D01*
X144345167Y-102840128D01*
X144345166Y-102840127D01*
X144345165Y-102840127D01*
X144180421Y-102786598D01*
X144180419Y-102786597D01*
X144180418Y-102786597D01*
X144048991Y-102765781D01*
X144009331Y-102759500D01*
X143836109Y-102759500D01*
X143796448Y-102765781D01*
X143665022Y-102786597D01*
X143500272Y-102840128D01*
X143345931Y-102918768D01*
X143334860Y-102926812D01*
X143205792Y-103020586D01*
X143205790Y-103020588D01*
X143205789Y-103020588D01*
X143083308Y-103143069D01*
X143083308Y-103143070D01*
X143083306Y-103143072D01*
X143039579Y-103203256D01*
X142981488Y-103283211D01*
X142902848Y-103437552D01*
X142849317Y-103602302D01*
X142822220Y-103773389D01*
X142822220Y-104746610D01*
X142835181Y-104828447D01*
X142849318Y-104917701D01*
X142902847Y-105082445D01*
X142981488Y-105236788D01*
X143083306Y-105376928D01*
X143205792Y-105499414D01*
X143345932Y-105601232D01*
X143500275Y-105679873D01*
X143665019Y-105733402D01*
X143788927Y-105753027D01*
X143852061Y-105782956D01*
X143888993Y-105842267D01*
X143887995Y-105912130D01*
X143849385Y-105970363D01*
X143785422Y-105998477D01*
X143769529Y-105999500D01*
X138995911Y-105999500D01*
X138928872Y-105979815D01*
X138883117Y-105927011D01*
X138873173Y-105857853D01*
X138902198Y-105794297D01*
X138960976Y-105756523D01*
X138976511Y-105753027D01*
X139100421Y-105733402D01*
X139265165Y-105679873D01*
X139419508Y-105601232D01*
X139559648Y-105499414D01*
X139682134Y-105376928D01*
X139783952Y-105236788D01*
X139862593Y-105082445D01*
X139916122Y-104917701D01*
X139943220Y-104746611D01*
X139943220Y-103773389D01*
X139916122Y-103602299D01*
X139889183Y-103519389D01*
X140282220Y-103519389D01*
X140282220Y-104492611D01*
X140288671Y-104533343D01*
X140308731Y-104660000D01*
X140309318Y-104663701D01*
X140362847Y-104828445D01*
X140441488Y-104982788D01*
X140543306Y-105122928D01*
X140665792Y-105245414D01*
X140805932Y-105347232D01*
X140960275Y-105425873D01*
X141125019Y-105479402D01*
X141296109Y-105506500D01*
X141296110Y-105506500D01*
X141469330Y-105506500D01*
X141469331Y-105506500D01*
X141640421Y-105479402D01*
X141805165Y-105425873D01*
X141959508Y-105347232D01*
X142099648Y-105245414D01*
X142222134Y-105122928D01*
X142323952Y-104982788D01*
X142402593Y-104828445D01*
X142456122Y-104663701D01*
X142483220Y-104492611D01*
X142483220Y-103519389D01*
X142456122Y-103348299D01*
X142402593Y-103183555D01*
X142323952Y-103029212D01*
X142222134Y-102889072D01*
X142099648Y-102766586D01*
X141959508Y-102664768D01*
X141805165Y-102586127D01*
X141640421Y-102532598D01*
X141640419Y-102532597D01*
X141640418Y-102532597D01*
X141508991Y-102511781D01*
X141469331Y-102505500D01*
X141296109Y-102505500D01*
X141256448Y-102511781D01*
X141125022Y-102532597D01*
X140960272Y-102586128D01*
X140805931Y-102664768D01*
X140776904Y-102685858D01*
X140665792Y-102766586D01*
X140665790Y-102766588D01*
X140665789Y-102766588D01*
X140543308Y-102889069D01*
X140543308Y-102889070D01*
X140543306Y-102889072D01*
X140515886Y-102926812D01*
X140441488Y-103029211D01*
X140362848Y-103183552D01*
X140309317Y-103348302D01*
X140289203Y-103475299D01*
X140282220Y-103519389D01*
X139889183Y-103519389D01*
X139862593Y-103437555D01*
X139783952Y-103283212D01*
X139682134Y-103143072D01*
X139559648Y-103020586D01*
X139419508Y-102918768D01*
X139323278Y-102869737D01*
X139265167Y-102840128D01*
X139265166Y-102840127D01*
X139265165Y-102840127D01*
X139100421Y-102786598D01*
X139100419Y-102786597D01*
X139100418Y-102786597D01*
X138968991Y-102765781D01*
X138929331Y-102759500D01*
X138756109Y-102759500D01*
X138716448Y-102765781D01*
X138585022Y-102786597D01*
X138420272Y-102840128D01*
X138265931Y-102918768D01*
X138254860Y-102926812D01*
X138125792Y-103020586D01*
X138125790Y-103020588D01*
X138125789Y-103020588D01*
X138003308Y-103143069D01*
X138003308Y-103143070D01*
X138003306Y-103143072D01*
X137959579Y-103203256D01*
X137901488Y-103283211D01*
X137822848Y-103437552D01*
X137769317Y-103602302D01*
X137742220Y-103773389D01*
X137742220Y-104746610D01*
X137755181Y-104828447D01*
X137769318Y-104917701D01*
X137822847Y-105082445D01*
X137901488Y-105236788D01*
X138003306Y-105376928D01*
X138125792Y-105499414D01*
X138265932Y-105601232D01*
X138420275Y-105679873D01*
X138585019Y-105733402D01*
X138708927Y-105753027D01*
X138772061Y-105782956D01*
X138808993Y-105842267D01*
X138807995Y-105912130D01*
X138769385Y-105970363D01*
X138705422Y-105998477D01*
X138689529Y-105999500D01*
X133915911Y-105999500D01*
X133848872Y-105979815D01*
X133803117Y-105927011D01*
X133793173Y-105857853D01*
X133822198Y-105794297D01*
X133880976Y-105756523D01*
X133896511Y-105753027D01*
X134020421Y-105733402D01*
X134185165Y-105679873D01*
X134339508Y-105601232D01*
X134479648Y-105499414D01*
X134602134Y-105376928D01*
X134703952Y-105236788D01*
X134782593Y-105082445D01*
X134836122Y-104917701D01*
X134863220Y-104746611D01*
X134863220Y-103773389D01*
X134836122Y-103602299D01*
X134809183Y-103519389D01*
X135202220Y-103519389D01*
X135202220Y-104492611D01*
X135208671Y-104533343D01*
X135228731Y-104660000D01*
X135229318Y-104663701D01*
X135282847Y-104828445D01*
X135361488Y-104982788D01*
X135463306Y-105122928D01*
X135585792Y-105245414D01*
X135725932Y-105347232D01*
X135880275Y-105425873D01*
X136045019Y-105479402D01*
X136216109Y-105506500D01*
X136216110Y-105506500D01*
X136389330Y-105506500D01*
X136389331Y-105506500D01*
X136560421Y-105479402D01*
X136725165Y-105425873D01*
X136879508Y-105347232D01*
X137019648Y-105245414D01*
X137142134Y-105122928D01*
X137243952Y-104982788D01*
X137322593Y-104828445D01*
X137376122Y-104663701D01*
X137403220Y-104492611D01*
X137403220Y-103519389D01*
X137376122Y-103348299D01*
X137322593Y-103183555D01*
X137243952Y-103029212D01*
X137142134Y-102889072D01*
X137019648Y-102766586D01*
X136879508Y-102664768D01*
X136725165Y-102586127D01*
X136560421Y-102532598D01*
X136560419Y-102532597D01*
X136560418Y-102532597D01*
X136428991Y-102511781D01*
X136389331Y-102505500D01*
X136216109Y-102505500D01*
X136176448Y-102511781D01*
X136045022Y-102532597D01*
X135880272Y-102586128D01*
X135725931Y-102664768D01*
X135696904Y-102685858D01*
X135585792Y-102766586D01*
X135585790Y-102766588D01*
X135585789Y-102766588D01*
X135463308Y-102889069D01*
X135463308Y-102889070D01*
X135463306Y-102889072D01*
X135435886Y-102926812D01*
X135361488Y-103029211D01*
X135282848Y-103183552D01*
X135229317Y-103348302D01*
X135209203Y-103475299D01*
X135202220Y-103519389D01*
X134809183Y-103519389D01*
X134782593Y-103437555D01*
X134703952Y-103283212D01*
X134602134Y-103143072D01*
X134479648Y-103020586D01*
X134339508Y-102918768D01*
X134243278Y-102869737D01*
X134185167Y-102840128D01*
X134185166Y-102840127D01*
X134185165Y-102840127D01*
X134020421Y-102786598D01*
X134020419Y-102786597D01*
X134020418Y-102786597D01*
X133888991Y-102765781D01*
X133849331Y-102759500D01*
X133676109Y-102759500D01*
X133636448Y-102765781D01*
X133505022Y-102786597D01*
X133340272Y-102840128D01*
X133185931Y-102918768D01*
X133174860Y-102926812D01*
X133045792Y-103020586D01*
X133045790Y-103020588D01*
X133045789Y-103020588D01*
X132923308Y-103143069D01*
X132923308Y-103143070D01*
X132923306Y-103143072D01*
X132879579Y-103203256D01*
X132821488Y-103283211D01*
X132742848Y-103437552D01*
X132689317Y-103602302D01*
X132662220Y-103773389D01*
X132662220Y-104746610D01*
X132675181Y-104828447D01*
X132689318Y-104917701D01*
X132742847Y-105082445D01*
X132821488Y-105236788D01*
X132923306Y-105376928D01*
X133045792Y-105499414D01*
X133185932Y-105601232D01*
X133340275Y-105679873D01*
X133505019Y-105733402D01*
X133628927Y-105753027D01*
X133692061Y-105782956D01*
X133728993Y-105842267D01*
X133727995Y-105912130D01*
X133689385Y-105970363D01*
X133625422Y-105998477D01*
X133609529Y-105999500D01*
X128835911Y-105999500D01*
X128768872Y-105979815D01*
X128723117Y-105927011D01*
X128713173Y-105857853D01*
X128742198Y-105794297D01*
X128800976Y-105756523D01*
X128816511Y-105753027D01*
X128940421Y-105733402D01*
X129105165Y-105679873D01*
X129259508Y-105601232D01*
X129399648Y-105499414D01*
X129522134Y-105376928D01*
X129623952Y-105236788D01*
X129702593Y-105082445D01*
X129756122Y-104917701D01*
X129783220Y-104746611D01*
X129783220Y-103773389D01*
X129756122Y-103602299D01*
X129729183Y-103519389D01*
X130122220Y-103519389D01*
X130122220Y-104492611D01*
X130128671Y-104533343D01*
X130148731Y-104660000D01*
X130149318Y-104663701D01*
X130202847Y-104828445D01*
X130281488Y-104982788D01*
X130383306Y-105122928D01*
X130505792Y-105245414D01*
X130645932Y-105347232D01*
X130800275Y-105425873D01*
X130965019Y-105479402D01*
X131136109Y-105506500D01*
X131136110Y-105506500D01*
X131309330Y-105506500D01*
X131309331Y-105506500D01*
X131480421Y-105479402D01*
X131645165Y-105425873D01*
X131799508Y-105347232D01*
X131939648Y-105245414D01*
X132062134Y-105122928D01*
X132163952Y-104982788D01*
X132242593Y-104828445D01*
X132296122Y-104663701D01*
X132323220Y-104492611D01*
X132323220Y-103519389D01*
X132296122Y-103348299D01*
X132242593Y-103183555D01*
X132163952Y-103029212D01*
X132062134Y-102889072D01*
X131939648Y-102766586D01*
X131799508Y-102664768D01*
X131645165Y-102586127D01*
X131480421Y-102532598D01*
X131480419Y-102532597D01*
X131480418Y-102532597D01*
X131348991Y-102511781D01*
X131309331Y-102505500D01*
X131136109Y-102505500D01*
X131096448Y-102511781D01*
X130965022Y-102532597D01*
X130800272Y-102586128D01*
X130645931Y-102664768D01*
X130616904Y-102685858D01*
X130505792Y-102766586D01*
X130505790Y-102766588D01*
X130505789Y-102766588D01*
X130383308Y-102889069D01*
X130383308Y-102889070D01*
X130383306Y-102889072D01*
X130355886Y-102926812D01*
X130281488Y-103029211D01*
X130202848Y-103183552D01*
X130149317Y-103348302D01*
X130129203Y-103475299D01*
X130122220Y-103519389D01*
X129729183Y-103519389D01*
X129702593Y-103437555D01*
X129623952Y-103283212D01*
X129522134Y-103143072D01*
X129399648Y-103020586D01*
X129259508Y-102918768D01*
X129163278Y-102869737D01*
X129105167Y-102840128D01*
X129105166Y-102840127D01*
X129105165Y-102840127D01*
X128940421Y-102786598D01*
X128940419Y-102786597D01*
X128940418Y-102786597D01*
X128808991Y-102765781D01*
X128769331Y-102759500D01*
X128596109Y-102759500D01*
X128556448Y-102765781D01*
X128425022Y-102786597D01*
X128260272Y-102840128D01*
X128105931Y-102918768D01*
X128094860Y-102926812D01*
X127965792Y-103020586D01*
X127965790Y-103020588D01*
X127965789Y-103020588D01*
X127843308Y-103143069D01*
X127843308Y-103143070D01*
X127843306Y-103143072D01*
X127799579Y-103203256D01*
X127741488Y-103283211D01*
X127662848Y-103437552D01*
X127609317Y-103602302D01*
X127582220Y-103773389D01*
X127582220Y-104746610D01*
X127595181Y-104828447D01*
X127609318Y-104917701D01*
X127662847Y-105082445D01*
X127741488Y-105236788D01*
X127843306Y-105376928D01*
X127965792Y-105499414D01*
X128105932Y-105601232D01*
X128260275Y-105679873D01*
X128425019Y-105733402D01*
X128548927Y-105753027D01*
X128612061Y-105782956D01*
X128648993Y-105842267D01*
X128647995Y-105912130D01*
X128609385Y-105970363D01*
X128545422Y-105998477D01*
X128529529Y-105999500D01*
X123755911Y-105999500D01*
X123688872Y-105979815D01*
X123643117Y-105927011D01*
X123633173Y-105857853D01*
X123662198Y-105794297D01*
X123720976Y-105756523D01*
X123736511Y-105753027D01*
X123860421Y-105733402D01*
X124025165Y-105679873D01*
X124179508Y-105601232D01*
X124319648Y-105499414D01*
X124442134Y-105376928D01*
X124543952Y-105236788D01*
X124622593Y-105082445D01*
X124676122Y-104917701D01*
X124703220Y-104746611D01*
X124703220Y-103773389D01*
X124676122Y-103602299D01*
X124649183Y-103519389D01*
X125042220Y-103519389D01*
X125042220Y-104492611D01*
X125048671Y-104533343D01*
X125068731Y-104660000D01*
X125069318Y-104663701D01*
X125122847Y-104828445D01*
X125201488Y-104982788D01*
X125303306Y-105122928D01*
X125425792Y-105245414D01*
X125565932Y-105347232D01*
X125720275Y-105425873D01*
X125885019Y-105479402D01*
X126056109Y-105506500D01*
X126056110Y-105506500D01*
X126229330Y-105506500D01*
X126229331Y-105506500D01*
X126400421Y-105479402D01*
X126565165Y-105425873D01*
X126719508Y-105347232D01*
X126859648Y-105245414D01*
X126982134Y-105122928D01*
X127083952Y-104982788D01*
X127162593Y-104828445D01*
X127216122Y-104663701D01*
X127243220Y-104492611D01*
X127243220Y-103519389D01*
X127216122Y-103348299D01*
X127162593Y-103183555D01*
X127083952Y-103029212D01*
X126982134Y-102889072D01*
X126859648Y-102766586D01*
X126719508Y-102664768D01*
X126565165Y-102586127D01*
X126400421Y-102532598D01*
X126400419Y-102532597D01*
X126400418Y-102532597D01*
X126268991Y-102511781D01*
X126229331Y-102505500D01*
X126056109Y-102505500D01*
X126016448Y-102511781D01*
X125885022Y-102532597D01*
X125720272Y-102586128D01*
X125565931Y-102664768D01*
X125536904Y-102685858D01*
X125425792Y-102766586D01*
X125425790Y-102766588D01*
X125425789Y-102766588D01*
X125303308Y-102889069D01*
X125303308Y-102889070D01*
X125303306Y-102889072D01*
X125275886Y-102926812D01*
X125201488Y-103029211D01*
X125122848Y-103183552D01*
X125069317Y-103348302D01*
X125049203Y-103475299D01*
X125042220Y-103519389D01*
X124649183Y-103519389D01*
X124622593Y-103437555D01*
X124543952Y-103283212D01*
X124442134Y-103143072D01*
X124319648Y-103020586D01*
X124179508Y-102918768D01*
X124083278Y-102869737D01*
X124025167Y-102840128D01*
X124025166Y-102840127D01*
X124025165Y-102840127D01*
X123860421Y-102786598D01*
X123860419Y-102786597D01*
X123860418Y-102786597D01*
X123728991Y-102765781D01*
X123689331Y-102759500D01*
X123516109Y-102759500D01*
X123476448Y-102765781D01*
X123345022Y-102786597D01*
X123180272Y-102840128D01*
X123025931Y-102918768D01*
X123014860Y-102926812D01*
X122885792Y-103020586D01*
X122885790Y-103020588D01*
X122885789Y-103020588D01*
X122763308Y-103143069D01*
X122763308Y-103143070D01*
X122763306Y-103143072D01*
X122719579Y-103203256D01*
X122661488Y-103283211D01*
X122582848Y-103437552D01*
X122529317Y-103602302D01*
X122502220Y-103773389D01*
X122502220Y-104746610D01*
X122515181Y-104828447D01*
X122529318Y-104917701D01*
X122582847Y-105082445D01*
X122661488Y-105236788D01*
X122763306Y-105376928D01*
X122885792Y-105499414D01*
X123025932Y-105601232D01*
X123180275Y-105679873D01*
X123345019Y-105733402D01*
X123468927Y-105753027D01*
X123532061Y-105782956D01*
X123568993Y-105842267D01*
X123567995Y-105912130D01*
X123529385Y-105970363D01*
X123465422Y-105998477D01*
X123449529Y-105999500D01*
X119321153Y-105999500D01*
X119166510Y-106030260D01*
X119166502Y-106030262D01*
X119020824Y-106090604D01*
X119020814Y-106090609D01*
X118889711Y-106178210D01*
X118889707Y-106178213D01*
X109679740Y-115388181D01*
X109618417Y-115421666D01*
X109592059Y-115424500D01*
X108166746Y-115424500D01*
X108095465Y-115435790D01*
X107952901Y-115458370D01*
X107746993Y-115525272D01*
X107746990Y-115525273D01*
X107554080Y-115623567D01*
X107454145Y-115696174D01*
X107378922Y-115750828D01*
X107378920Y-115750830D01*
X107378919Y-115750830D01*
X107225830Y-115903919D01*
X107225830Y-115903920D01*
X107225828Y-115903922D01*
X107171174Y-115979145D01*
X107098567Y-116079080D01*
X107000273Y-116271990D01*
X107000272Y-116271993D01*
X106933370Y-116477901D01*
X106899500Y-116691746D01*
X106899500Y-116908253D01*
X106933370Y-117122098D01*
X107000272Y-117328006D01*
X107000273Y-117328009D01*
X107098567Y-117520919D01*
X107225828Y-117696078D01*
X107378922Y-117849172D01*
X107545215Y-117969991D01*
X107587879Y-118025320D01*
X107593858Y-118094933D01*
X107561252Y-118156728D01*
X107545214Y-118170626D01*
X107379245Y-118291210D01*
X107226211Y-118444244D01*
X107226211Y-118444245D01*
X107098994Y-118619342D01*
X107000736Y-118812182D01*
X107000735Y-118812185D01*
X106933857Y-119018016D01*
X106933857Y-119018019D01*
X106922457Y-119090000D01*
X108966988Y-119090000D01*
X108934075Y-119147007D01*
X108900000Y-119274174D01*
X108900000Y-119405826D01*
X108934075Y-119532993D01*
X108966988Y-119590000D01*
X106922457Y-119590000D01*
X106933857Y-119661980D01*
X106933857Y-119661983D01*
X107000735Y-119867814D01*
X107000736Y-119867817D01*
X107098994Y-120060657D01*
X107226211Y-120235754D01*
X107226211Y-120235755D01*
X107379244Y-120388788D01*
X107545214Y-120509373D01*
X107587879Y-120564703D01*
X107593858Y-120634317D01*
X107561252Y-120696111D01*
X107545214Y-120710009D01*
X107378920Y-120830829D01*
X107225830Y-120983919D01*
X107225830Y-120983920D01*
X107225828Y-120983922D01*
X107171395Y-121058842D01*
X107098567Y-121159080D01*
X107000273Y-121351990D01*
X107000272Y-121351993D01*
X106933370Y-121557901D01*
X106899500Y-121771746D01*
X106899500Y-121988253D01*
X106933370Y-122202098D01*
X107000272Y-122408006D01*
X107000273Y-122408009D01*
X107098567Y-122600919D01*
X107225828Y-122776078D01*
X107378922Y-122929172D01*
X107533190Y-123041255D01*
X107544789Y-123049682D01*
X107587454Y-123105012D01*
X107593433Y-123174626D01*
X107560827Y-123236421D01*
X107544788Y-123250318D01*
X107378922Y-123370828D01*
X107378920Y-123370830D01*
X107378919Y-123370830D01*
X107225830Y-123523919D01*
X107225830Y-123523920D01*
X107225828Y-123523922D01*
X107171174Y-123599145D01*
X107098567Y-123699080D01*
X107000273Y-123891990D01*
X107000272Y-123891993D01*
X106933370Y-124097901D01*
X106899500Y-124311746D01*
X106899500Y-124528253D01*
X106933370Y-124742098D01*
X107000272Y-124948006D01*
X107000273Y-124948009D01*
X107061814Y-125068788D01*
X107098567Y-125140919D01*
X107225828Y-125316078D01*
X107378922Y-125469172D01*
X107533190Y-125581255D01*
X107544789Y-125589682D01*
X107587454Y-125645012D01*
X107593433Y-125714626D01*
X107560827Y-125776421D01*
X107544788Y-125790318D01*
X107378922Y-125910828D01*
X107378920Y-125910830D01*
X107378919Y-125910830D01*
X107225830Y-126063919D01*
X107225830Y-126063920D01*
X107225828Y-126063922D01*
X107171174Y-126139145D01*
X107098567Y-126239080D01*
X107000273Y-126431990D01*
X107000272Y-126431993D01*
X106933370Y-126637901D01*
X106899500Y-126851746D01*
X106899500Y-127068253D01*
X106933370Y-127282098D01*
X107000272Y-127488006D01*
X107000273Y-127488009D01*
X107097389Y-127678607D01*
X107098567Y-127680919D01*
X107225828Y-127856078D01*
X107378922Y-128009172D01*
X107533190Y-128121255D01*
X107544789Y-128129682D01*
X107587454Y-128185012D01*
X107593433Y-128254626D01*
X107560827Y-128316421D01*
X107544788Y-128330318D01*
X107378922Y-128450828D01*
X107378920Y-128450830D01*
X107378919Y-128450830D01*
X107225830Y-128603919D01*
X107225830Y-128603920D01*
X107225828Y-128603922D01*
X107171174Y-128679145D01*
X107098567Y-128779080D01*
X107000273Y-128971990D01*
X107000272Y-128971993D01*
X106933370Y-129177901D01*
X106899500Y-129391746D01*
X106899500Y-129608253D01*
X106933370Y-129822098D01*
X107000272Y-130028006D01*
X107000273Y-130028009D01*
X107043824Y-130113481D01*
X107098567Y-130220919D01*
X107225828Y-130396078D01*
X107378922Y-130549172D01*
X107533190Y-130661255D01*
X107544789Y-130669682D01*
X107587454Y-130725012D01*
X107593433Y-130794626D01*
X107560827Y-130856421D01*
X107544788Y-130870318D01*
X107378922Y-130990828D01*
X107378920Y-130990830D01*
X107378919Y-130990830D01*
X107225830Y-131143919D01*
X107225830Y-131143920D01*
X107225828Y-131143922D01*
X107171174Y-131219145D01*
X107098567Y-131319080D01*
X107000273Y-131511990D01*
X107000272Y-131511993D01*
X106933370Y-131717901D01*
X106933370Y-131717903D01*
X106899500Y-131931746D01*
X106899500Y-132148254D01*
X106916435Y-132255175D01*
X106933370Y-132362098D01*
X107000272Y-132568006D01*
X107000273Y-132568009D01*
X107098569Y-132760923D01*
X107128860Y-132802614D01*
X107152341Y-132868420D01*
X107136516Y-132936474D01*
X107086411Y-132985169D01*
X107028543Y-132999500D01*
X93839782Y-132999500D01*
X93685139Y-133030260D01*
X93685131Y-133030262D01*
X93539453Y-133090604D01*
X93539443Y-133090609D01*
X93408340Y-133178210D01*
X93408336Y-133178213D01*
X91996997Y-134589554D01*
X91889711Y-134696840D01*
X91848732Y-134737819D01*
X91778209Y-134808341D01*
X91690609Y-134939443D01*
X91690602Y-134939456D01*
X91630264Y-135085127D01*
X91630261Y-135085139D01*
X91599500Y-135239782D01*
X91599500Y-135265148D01*
X91579815Y-135332187D01*
X91527011Y-135377942D01*
X91488755Y-135388438D01*
X91442516Y-135393409D01*
X91307671Y-135443702D01*
X91307664Y-135443706D01*
X91192455Y-135529952D01*
X91192452Y-135529955D01*
X91106206Y-135645164D01*
X91106202Y-135645171D01*
X91055908Y-135780017D01*
X91049501Y-135839616D01*
X91049501Y-135839623D01*
X91049500Y-135839635D01*
X91049500Y-136760370D01*
X91049501Y-136760376D01*
X91055908Y-136819983D01*
X91106888Y-136956667D01*
X91111872Y-137026359D01*
X91106888Y-137043333D01*
X91055908Y-137180017D01*
X91049501Y-137239616D01*
X91049500Y-137239635D01*
X91049500Y-138160370D01*
X91049501Y-138160376D01*
X91055908Y-138219983D01*
X91106202Y-138354828D01*
X91106206Y-138354835D01*
X91192452Y-138470044D01*
X91192455Y-138470047D01*
X91307664Y-138556293D01*
X91307671Y-138556297D01*
X91442517Y-138606591D01*
X91442516Y-138606591D01*
X91449444Y-138607335D01*
X91502127Y-138613000D01*
X92803576Y-138612999D01*
X92870615Y-138632684D01*
X92916370Y-138685487D01*
X92923349Y-138704902D01*
X92933608Y-138743186D01*
X92999500Y-138857314D01*
X93092686Y-138950500D01*
X93206814Y-139016392D01*
X93334108Y-139050500D01*
X93334110Y-139050500D01*
X97065890Y-139050500D01*
X97065892Y-139050500D01*
X97193186Y-139016392D01*
X97307314Y-138950500D01*
X97400500Y-138857314D01*
X97466392Y-138743186D01*
X97476782Y-138704406D01*
X97513146Y-138644747D01*
X97575993Y-138614217D01*
X97596557Y-138612500D01*
X97750000Y-138612500D01*
X97750000Y-137824000D01*
X97769685Y-137756961D01*
X97822489Y-137711206D01*
X97874000Y-137700000D01*
X98126000Y-137700000D01*
X98193039Y-137719685D01*
X98238794Y-137772489D01*
X98250000Y-137824000D01*
X98250000Y-138612500D01*
X98897828Y-138612500D01*
X98897844Y-138612499D01*
X98957372Y-138606098D01*
X98957379Y-138606096D01*
X99092086Y-138555854D01*
X99092093Y-138555850D01*
X99207187Y-138469690D01*
X99207190Y-138469687D01*
X99293350Y-138354593D01*
X99293353Y-138354588D01*
X99311263Y-138306567D01*
X99353133Y-138250633D01*
X99418597Y-138226214D01*
X99486870Y-138241064D01*
X99515127Y-138262217D01*
X100540729Y-139287819D01*
X100574214Y-139349142D01*
X100569230Y-139418834D01*
X100527358Y-139474767D01*
X100461894Y-139499184D01*
X100453048Y-139499500D01*
X92004428Y-139499500D01*
X91995582Y-139499184D01*
X91973622Y-139497613D01*
X91795442Y-139484869D01*
X91777931Y-139482351D01*
X91586209Y-139440645D01*
X91569234Y-139435661D01*
X91385394Y-139367093D01*
X91369300Y-139359743D01*
X91197091Y-139265709D01*
X91182208Y-139256144D01*
X91025135Y-139138561D01*
X91011764Y-139126975D01*
X90873024Y-138988235D01*
X90861438Y-138974864D01*
X90743855Y-138817791D01*
X90734290Y-138802908D01*
X90680776Y-138704905D01*
X90640253Y-138630694D01*
X90632909Y-138614611D01*
X90564336Y-138430760D01*
X90559354Y-138413790D01*
X90546529Y-138354835D01*
X90517647Y-138222063D01*
X90515130Y-138204556D01*
X90514963Y-138202227D01*
X90500816Y-138004418D01*
X90500500Y-137995572D01*
X90500500Y-78897648D01*
X92579500Y-78897648D01*
X92579500Y-79102351D01*
X92611522Y-79304534D01*
X92674781Y-79499223D01*
X92719839Y-79587652D01*
X92763509Y-79673360D01*
X92767715Y-79681613D01*
X92888028Y-79847213D01*
X93032786Y-79991971D01*
X93173439Y-80094159D01*
X93198390Y-80112287D01*
X93310278Y-80169297D01*
X93380776Y-80205218D01*
X93380778Y-80205218D01*
X93380781Y-80205220D01*
X93442052Y-80225128D01*
X93575465Y-80268477D01*
X93649670Y-80280230D01*
X93777648Y-80300500D01*
X93777649Y-80300500D01*
X93982351Y-80300500D01*
X93982352Y-80300500D01*
X94184534Y-80268477D01*
X94379219Y-80205220D01*
X94561610Y-80112287D01*
X94673946Y-80030671D01*
X94727213Y-79991971D01*
X94727215Y-79991968D01*
X94727219Y-79991966D01*
X94871966Y-79847219D01*
X94871968Y-79847215D01*
X94871971Y-79847213D01*
X94926252Y-79772500D01*
X94992287Y-79681610D01*
X95085220Y-79499219D01*
X95148477Y-79304534D01*
X95180500Y-79102352D01*
X95180500Y-78897648D01*
X95162633Y-78784842D01*
X95148477Y-78695465D01*
X95085218Y-78500776D01*
X95022767Y-78378211D01*
X94992287Y-78318390D01*
X94972098Y-78290602D01*
X94871971Y-78152786D01*
X94727213Y-78008028D01*
X94561613Y-77887715D01*
X94561612Y-77887714D01*
X94561610Y-77887713D01*
X94498787Y-77855703D01*
X94379223Y-77794781D01*
X94184534Y-77731522D01*
X94009995Y-77703878D01*
X93982352Y-77699500D01*
X93777648Y-77699500D01*
X93753329Y-77703351D01*
X93575465Y-77731522D01*
X93380776Y-77794781D01*
X93198386Y-77887715D01*
X93032786Y-78008028D01*
X92888028Y-78152786D01*
X92767715Y-78318386D01*
X92674781Y-78500776D01*
X92611522Y-78695465D01*
X92579500Y-78897648D01*
X90500500Y-78897648D01*
X90500500Y-74650516D01*
X90520185Y-74583477D01*
X90572989Y-74537722D01*
X90642147Y-74527778D01*
X90693391Y-74547414D01*
X90703707Y-74554307D01*
X90703713Y-74554310D01*
X90703714Y-74554311D01*
X90817548Y-74601463D01*
X90911814Y-74620213D01*
X90938389Y-74625499D01*
X90938393Y-74625500D01*
X90938394Y-74625500D01*
X91022177Y-74625500D01*
X91089216Y-74645185D01*
X91121443Y-74675189D01*
X91192452Y-74770044D01*
X91192455Y-74770047D01*
X91307664Y-74856293D01*
X91307671Y-74856297D01*
X91442517Y-74906591D01*
X91442516Y-74906591D01*
X91449444Y-74907335D01*
X91502127Y-74913000D01*
X92803576Y-74912999D01*
X92870615Y-74932684D01*
X92916370Y-74985487D01*
X92923349Y-75004902D01*
X92933608Y-75043186D01*
X92999500Y-75157314D01*
X93092686Y-75250500D01*
X93184912Y-75303747D01*
X93206810Y-75316390D01*
X93206814Y-75316392D01*
X93334108Y-75350500D01*
X93334110Y-75350500D01*
X97065890Y-75350500D01*
X97065892Y-75350500D01*
X97193186Y-75316392D01*
X97307314Y-75250500D01*
X97400500Y-75157314D01*
X97466392Y-75043186D01*
X97476782Y-75004406D01*
X97513146Y-74944747D01*
X97575993Y-74914217D01*
X97596557Y-74912500D01*
X97750000Y-74912500D01*
X98250000Y-74912500D01*
X98897828Y-74912500D01*
X98897844Y-74912499D01*
X98957372Y-74906098D01*
X98957379Y-74906096D01*
X99092086Y-74855854D01*
X99092093Y-74855850D01*
X99207187Y-74769690D01*
X99207190Y-74769687D01*
X99293350Y-74654593D01*
X99293354Y-74654586D01*
X99343596Y-74519879D01*
X99343598Y-74519872D01*
X99349999Y-74460344D01*
X99350000Y-74460327D01*
X99350000Y-74250000D01*
X98250000Y-74250000D01*
X98250000Y-74912500D01*
X97750000Y-74912500D01*
X97750000Y-74124000D01*
X97769685Y-74056961D01*
X97822489Y-74011206D01*
X97874000Y-74000000D01*
X98000000Y-74000000D01*
X98000000Y-73874000D01*
X98019685Y-73806961D01*
X98072489Y-73761206D01*
X98124000Y-73750000D01*
X99350000Y-73750000D01*
X99350000Y-73539672D01*
X99349999Y-73539655D01*
X99343598Y-73480127D01*
X99343596Y-73480120D01*
X99292844Y-73344046D01*
X99287860Y-73274355D01*
X99292844Y-73257379D01*
X99293792Y-73254835D01*
X99293796Y-73254831D01*
X99344091Y-73119983D01*
X99350500Y-73060373D01*
X99350500Y-73024500D01*
X99370185Y-72957461D01*
X99422989Y-72911706D01*
X99474500Y-72900500D01*
X100011544Y-72900500D01*
X100078583Y-72920185D01*
G37*
%TD.AperFunction*%
%TA.AperFunction,Conductor*%
G36*
X186204563Y-70515130D02*
G01*
X186222063Y-70517647D01*
X186413795Y-70559355D01*
X186430760Y-70564336D01*
X186614611Y-70632909D01*
X186630694Y-70640253D01*
X186790660Y-70727602D01*
X186802908Y-70734290D01*
X186817791Y-70743855D01*
X186974864Y-70861438D01*
X186988235Y-70873024D01*
X187126975Y-71011764D01*
X187138561Y-71025135D01*
X187256144Y-71182208D01*
X187265709Y-71197091D01*
X187359743Y-71369300D01*
X187367093Y-71385394D01*
X187435661Y-71569234D01*
X187440645Y-71586209D01*
X187482351Y-71777931D01*
X187484869Y-71795442D01*
X187499184Y-71995580D01*
X187499500Y-72004427D01*
X187499500Y-137995572D01*
X187499184Y-138004419D01*
X187484869Y-138204557D01*
X187482351Y-138222068D01*
X187440645Y-138413790D01*
X187435661Y-138430765D01*
X187367093Y-138614605D01*
X187359743Y-138630699D01*
X187265709Y-138802908D01*
X187256144Y-138817791D01*
X187138561Y-138974864D01*
X187126975Y-138988235D01*
X186988235Y-139126975D01*
X186974864Y-139138561D01*
X186817791Y-139256144D01*
X186802908Y-139265709D01*
X186630699Y-139359743D01*
X186614605Y-139367093D01*
X186430765Y-139435661D01*
X186413790Y-139440645D01*
X186222068Y-139482351D01*
X186204557Y-139484869D01*
X186023779Y-139497799D01*
X186004417Y-139499184D01*
X185995572Y-139499500D01*
X179384452Y-139499500D01*
X179317413Y-139479815D01*
X179271658Y-139427011D01*
X179261714Y-139357853D01*
X179290739Y-139294297D01*
X179296771Y-139287819D01*
X179935272Y-138649318D01*
X179996595Y-138615833D01*
X180022953Y-138612999D01*
X180403576Y-138612999D01*
X180470615Y-138632684D01*
X180516370Y-138685488D01*
X180523349Y-138704902D01*
X180533608Y-138743186D01*
X180599500Y-138857314D01*
X180692686Y-138950500D01*
X180806814Y-139016392D01*
X180934108Y-139050500D01*
X180934110Y-139050500D01*
X184665890Y-139050500D01*
X184665892Y-139050500D01*
X184793186Y-139016392D01*
X184907314Y-138950500D01*
X185000500Y-138857314D01*
X185066392Y-138743186D01*
X185076782Y-138704406D01*
X185113146Y-138644747D01*
X185175993Y-138614217D01*
X185196557Y-138612500D01*
X185350000Y-138612500D01*
X185850000Y-138612500D01*
X186497828Y-138612500D01*
X186497844Y-138612499D01*
X186557372Y-138606098D01*
X186557379Y-138606096D01*
X186692086Y-138555854D01*
X186692093Y-138555850D01*
X186807187Y-138469690D01*
X186807190Y-138469687D01*
X186893350Y-138354593D01*
X186893354Y-138354586D01*
X186943596Y-138219879D01*
X186943598Y-138219872D01*
X186949999Y-138160344D01*
X186950000Y-138160327D01*
X186950000Y-137950000D01*
X185850000Y-137950000D01*
X185850000Y-138612500D01*
X185350000Y-138612500D01*
X185350000Y-137824000D01*
X185369685Y-137756961D01*
X185422489Y-137711206D01*
X185474000Y-137700000D01*
X185600000Y-137700000D01*
X185600000Y-137574000D01*
X185619685Y-137506961D01*
X185672489Y-137461206D01*
X185724000Y-137450000D01*
X186950000Y-137450000D01*
X186950000Y-137239672D01*
X186949999Y-137239655D01*
X186943598Y-137180127D01*
X186943596Y-137180120D01*
X186892844Y-137044046D01*
X186887860Y-136974355D01*
X186892844Y-136957379D01*
X186893792Y-136954835D01*
X186893796Y-136954831D01*
X186944091Y-136819983D01*
X186950500Y-136760373D01*
X186950499Y-135839628D01*
X186944091Y-135780017D01*
X186893796Y-135645169D01*
X186893795Y-135645168D01*
X186893793Y-135645164D01*
X186807547Y-135529955D01*
X186807544Y-135529952D01*
X186692335Y-135443706D01*
X186692328Y-135443702D01*
X186557482Y-135393408D01*
X186557483Y-135393408D01*
X186497883Y-135387001D01*
X186497881Y-135387000D01*
X186497873Y-135387000D01*
X186497865Y-135387000D01*
X186349500Y-135387000D01*
X186282461Y-135367315D01*
X186236706Y-135314511D01*
X186225500Y-135263000D01*
X186225500Y-83138393D01*
X186225499Y-83138389D01*
X186210310Y-83062027D01*
X186201463Y-83017548D01*
X186166900Y-82934106D01*
X186154312Y-82903715D01*
X186099570Y-82821789D01*
X186097613Y-82818860D01*
X186085861Y-82801271D01*
X186085860Y-82801270D01*
X186085858Y-82801267D01*
X185998733Y-82714142D01*
X185998732Y-82714141D01*
X185995621Y-82711030D01*
X185995606Y-82711016D01*
X180661819Y-77377229D01*
X180628334Y-77315906D01*
X180625500Y-77289548D01*
X180625500Y-75426485D01*
X180645185Y-75359446D01*
X180697989Y-75313691D01*
X180767147Y-75303747D01*
X180798721Y-75314675D01*
X180799300Y-75313280D01*
X180806809Y-75316389D01*
X180806814Y-75316392D01*
X180934108Y-75350500D01*
X180934110Y-75350500D01*
X184665890Y-75350500D01*
X184665892Y-75350500D01*
X184793186Y-75316392D01*
X184907314Y-75250500D01*
X185000500Y-75157314D01*
X185066392Y-75043186D01*
X185076782Y-75004406D01*
X185113146Y-74944747D01*
X185175993Y-74914217D01*
X185196557Y-74912500D01*
X185350000Y-74912500D01*
X185850000Y-74912500D01*
X186497828Y-74912500D01*
X186497844Y-74912499D01*
X186557372Y-74906098D01*
X186557379Y-74906096D01*
X186692086Y-74855854D01*
X186692093Y-74855850D01*
X186807187Y-74769690D01*
X186807190Y-74769687D01*
X186893350Y-74654593D01*
X186893354Y-74654586D01*
X186943596Y-74519879D01*
X186943598Y-74519872D01*
X186949999Y-74460344D01*
X186950000Y-74460327D01*
X186950000Y-74250000D01*
X185850000Y-74250000D01*
X185850000Y-74912500D01*
X185350000Y-74912500D01*
X185350000Y-74124000D01*
X185369685Y-74056961D01*
X185422489Y-74011206D01*
X185474000Y-74000000D01*
X185600000Y-74000000D01*
X185600000Y-73874000D01*
X185619685Y-73806961D01*
X185672489Y-73761206D01*
X185724000Y-73750000D01*
X186950000Y-73750000D01*
X186950000Y-73539672D01*
X186949999Y-73539655D01*
X186943598Y-73480127D01*
X186943596Y-73480120D01*
X186892844Y-73344046D01*
X186887860Y-73274355D01*
X186892844Y-73257379D01*
X186893792Y-73254835D01*
X186893796Y-73254831D01*
X186944091Y-73119983D01*
X186950500Y-73060373D01*
X186950499Y-72139628D01*
X186944091Y-72080017D01*
X186906119Y-71978210D01*
X186893797Y-71945171D01*
X186893793Y-71945164D01*
X186807547Y-71829955D01*
X186807544Y-71829952D01*
X186692335Y-71743706D01*
X186692328Y-71743702D01*
X186557482Y-71693408D01*
X186557483Y-71693408D01*
X186496815Y-71686886D01*
X186432263Y-71660148D01*
X186392415Y-71602756D01*
X186388453Y-71539404D01*
X186400500Y-71478843D01*
X186400500Y-71321155D01*
X186400499Y-71321153D01*
X186372170Y-71178734D01*
X186369737Y-71166503D01*
X186337918Y-71089684D01*
X186309397Y-71020827D01*
X186309390Y-71020814D01*
X186221789Y-70889711D01*
X186221786Y-70889707D01*
X186110292Y-70778213D01*
X186110288Y-70778210D01*
X186047478Y-70736241D01*
X186002673Y-70682628D01*
X185993966Y-70613303D01*
X186024121Y-70550276D01*
X186083564Y-70513557D01*
X186125211Y-70509455D01*
X186204563Y-70515130D01*
G37*
%TD.AperFunction*%
%TA.AperFunction,Conductor*%
G36*
X182118834Y-103915758D02*
G01*
X182174767Y-103957630D01*
X182199184Y-104023094D01*
X182199500Y-104031940D01*
X182199500Y-131935688D01*
X182179815Y-132002727D01*
X182163181Y-132023369D01*
X179596995Y-134589554D01*
X179535672Y-134623039D01*
X179465980Y-134618055D01*
X179421633Y-134589554D01*
X178010292Y-133178213D01*
X178010288Y-133178210D01*
X177879185Y-133090609D01*
X177879172Y-133090602D01*
X177733501Y-133030264D01*
X177733489Y-133030261D01*
X177578845Y-132999500D01*
X177578842Y-132999500D01*
X110771457Y-132999500D01*
X110763110Y-132997049D01*
X110754506Y-132998336D01*
X110730094Y-132987354D01*
X110704418Y-132979815D01*
X110698722Y-132973241D01*
X110690787Y-132969672D01*
X110676187Y-132947234D01*
X110658663Y-132927011D01*
X110657425Y-132918401D01*
X110652680Y-132911109D01*
X110652528Y-132884345D01*
X110648719Y-132857853D01*
X110652322Y-132848106D01*
X110652284Y-132841241D01*
X110662910Y-132819473D01*
X110666763Y-132809053D01*
X110668846Y-132805770D01*
X110701433Y-132760919D01*
X110718210Y-132727991D01*
X110721345Y-132723053D01*
X110743394Y-132703727D01*
X110763529Y-132682409D01*
X110769587Y-132680770D01*
X110773889Y-132677000D01*
X110795445Y-132673775D01*
X110826039Y-132665500D01*
X136821607Y-132665500D01*
X136882029Y-132653481D01*
X136942452Y-132641463D01*
X136975792Y-132627652D01*
X137056286Y-132594312D01*
X137119420Y-132552126D01*
X137158733Y-132525858D01*
X137245858Y-132438733D01*
X137245859Y-132438731D01*
X137252925Y-132431665D01*
X137252927Y-132431661D01*
X158982454Y-110702135D01*
X164659500Y-110702135D01*
X164659500Y-113297870D01*
X164659501Y-113297876D01*
X164665908Y-113357483D01*
X164716202Y-113492328D01*
X164716206Y-113492335D01*
X164802452Y-113607544D01*
X164802455Y-113607547D01*
X164917664Y-113693793D01*
X164917671Y-113693797D01*
X165052517Y-113744091D01*
X165052516Y-113744091D01*
X165059444Y-113744835D01*
X165112127Y-113750500D01*
X167292568Y-113750499D01*
X167359607Y-113770184D01*
X167405362Y-113822987D01*
X167415306Y-113892146D01*
X167403053Y-113930794D01*
X167327454Y-114079163D01*
X167269059Y-114258881D01*
X167239500Y-114445513D01*
X167239500Y-114634486D01*
X167269059Y-114821118D01*
X167327454Y-115000836D01*
X167413240Y-115169199D01*
X167524310Y-115322073D01*
X167657927Y-115455690D01*
X167810801Y-115566760D01*
X167890347Y-115607290D01*
X167979163Y-115652545D01*
X167979165Y-115652545D01*
X167979168Y-115652547D01*
X168075497Y-115683846D01*
X168158881Y-115710940D01*
X168345514Y-115740500D01*
X168345519Y-115740500D01*
X168534486Y-115740500D01*
X168721118Y-115710940D01*
X168900832Y-115652547D01*
X169069199Y-115566760D01*
X169222073Y-115455690D01*
X169355690Y-115322073D01*
X169466760Y-115169199D01*
X169552547Y-115000832D01*
X169610940Y-114821118D01*
X169640500Y-114634486D01*
X169640500Y-114445513D01*
X169634013Y-114404556D01*
X169631584Y-114389223D01*
X171219500Y-114389223D01*
X171219500Y-114690776D01*
X171219501Y-114690793D01*
X171258861Y-114989766D01*
X171336913Y-115281060D01*
X171452314Y-115559661D01*
X171452318Y-115559671D01*
X171603099Y-115820831D01*
X171786679Y-116060078D01*
X171786685Y-116060085D01*
X171999914Y-116273314D01*
X171999921Y-116273320D01*
X172239168Y-116456900D01*
X172500328Y-116607681D01*
X172500329Y-116607681D01*
X172500332Y-116607683D01*
X172686072Y-116684619D01*
X172778939Y-116723086D01*
X172778940Y-116723086D01*
X172778942Y-116723087D01*
X173070232Y-116801138D01*
X173369217Y-116840500D01*
X173369224Y-116840500D01*
X173670776Y-116840500D01*
X173670783Y-116840500D01*
X173969768Y-116801138D01*
X174261058Y-116723087D01*
X174539668Y-116607683D01*
X174800832Y-116456900D01*
X175040080Y-116273319D01*
X175253319Y-116060080D01*
X175436900Y-115820832D01*
X175587683Y-115559668D01*
X175703087Y-115281058D01*
X175781138Y-114989768D01*
X175820500Y-114690783D01*
X175820500Y-114445513D01*
X177399500Y-114445513D01*
X177399500Y-114634486D01*
X177429059Y-114821118D01*
X177487454Y-115000836D01*
X177573240Y-115169199D01*
X177684310Y-115322073D01*
X177817927Y-115455690D01*
X177970801Y-115566760D01*
X178050347Y-115607290D01*
X178139163Y-115652545D01*
X178139165Y-115652545D01*
X178139168Y-115652547D01*
X178235497Y-115683846D01*
X178318881Y-115710940D01*
X178505514Y-115740500D01*
X178505519Y-115740500D01*
X178694486Y-115740500D01*
X178881118Y-115710940D01*
X179060832Y-115652547D01*
X179229199Y-115566760D01*
X179382073Y-115455690D01*
X179515690Y-115322073D01*
X179626760Y-115169199D01*
X179712547Y-115000832D01*
X179770940Y-114821118D01*
X179800500Y-114634486D01*
X179800500Y-114445513D01*
X179770940Y-114258881D01*
X179712545Y-114079163D01*
X179626759Y-113910800D01*
X179591209Y-113861870D01*
X179515690Y-113757927D01*
X179382073Y-113624310D01*
X179229199Y-113513240D01*
X179060836Y-113427454D01*
X178881118Y-113369059D01*
X178694486Y-113339500D01*
X178694481Y-113339500D01*
X178505519Y-113339500D01*
X178505514Y-113339500D01*
X178318881Y-113369059D01*
X178139163Y-113427454D01*
X177970800Y-113513240D01*
X177961031Y-113520338D01*
X177817927Y-113624310D01*
X177817925Y-113624312D01*
X177817924Y-113624312D01*
X177684312Y-113757924D01*
X177684312Y-113757925D01*
X177684310Y-113757927D01*
X177675405Y-113770184D01*
X177573240Y-113910800D01*
X177487454Y-114079163D01*
X177429059Y-114258881D01*
X177399500Y-114445513D01*
X175820500Y-114445513D01*
X175820500Y-114389217D01*
X175781138Y-114090232D01*
X175703087Y-113798942D01*
X175702336Y-113797130D01*
X175663117Y-113702447D01*
X175587683Y-113520332D01*
X175583588Y-113513240D01*
X175436900Y-113259168D01*
X175253320Y-113019921D01*
X175253314Y-113019914D01*
X175040085Y-112806685D01*
X175040078Y-112806679D01*
X174800831Y-112623099D01*
X174539671Y-112472318D01*
X174539661Y-112472314D01*
X174261060Y-112356913D01*
X173969766Y-112278861D01*
X173670793Y-112239501D01*
X173670788Y-112239500D01*
X173670783Y-112239500D01*
X173369217Y-112239500D01*
X173369211Y-112239500D01*
X173369206Y-112239501D01*
X173070233Y-112278861D01*
X172778939Y-112356913D01*
X172500338Y-112472314D01*
X172500328Y-112472318D01*
X172239168Y-112623099D01*
X171999921Y-112806679D01*
X171999914Y-112806685D01*
X171786685Y-113019914D01*
X171786679Y-113019921D01*
X171603099Y-113259168D01*
X171452318Y-113520328D01*
X171452314Y-113520338D01*
X171336913Y-113798939D01*
X171258861Y-114090233D01*
X171219501Y-114389206D01*
X171219500Y-114389223D01*
X169631584Y-114389223D01*
X169610940Y-114258881D01*
X169552545Y-114079163D01*
X169525424Y-114025937D01*
X169476815Y-113930535D01*
X169463920Y-113861870D01*
X169490196Y-113797130D01*
X169547302Y-113756872D01*
X169591207Y-113751065D01*
X169591207Y-113750500D01*
X169824727Y-113750500D01*
X169824734Y-113750500D01*
X170052238Y-113720548D01*
X170273887Y-113661158D01*
X170485888Y-113573344D01*
X170684612Y-113458611D01*
X170866661Y-113318919D01*
X170866665Y-113318914D01*
X170866670Y-113318911D01*
X171028911Y-113156670D01*
X171028914Y-113156665D01*
X171028919Y-113156661D01*
X171168611Y-112974612D01*
X171283344Y-112775888D01*
X171371158Y-112563887D01*
X171430548Y-112342238D01*
X171460500Y-112114734D01*
X171460500Y-111885266D01*
X171430548Y-111657762D01*
X171371158Y-111436113D01*
X171288334Y-111236158D01*
X171283349Y-111224123D01*
X171283346Y-111224117D01*
X171283344Y-111224112D01*
X171168611Y-111025388D01*
X171168608Y-111025385D01*
X171168607Y-111025382D01*
X171028918Y-110843338D01*
X171028911Y-110843330D01*
X170866670Y-110681089D01*
X170866661Y-110681081D01*
X170684617Y-110541392D01*
X170626210Y-110507671D01*
X170485888Y-110426656D01*
X170485876Y-110426650D01*
X170273887Y-110338842D01*
X170052238Y-110279452D01*
X170014215Y-110274446D01*
X169824741Y-110249500D01*
X169824734Y-110249500D01*
X169595266Y-110249500D01*
X169595258Y-110249500D01*
X169378715Y-110278009D01*
X169367762Y-110279452D01*
X169274076Y-110304554D01*
X169146112Y-110338842D01*
X168934123Y-110426650D01*
X168934109Y-110426657D01*
X168735382Y-110541392D01*
X168553338Y-110681081D01*
X168422180Y-110812239D01*
X168360857Y-110845724D01*
X168291165Y-110840740D01*
X168235232Y-110798868D01*
X168210815Y-110733404D01*
X168210499Y-110724558D01*
X168210499Y-110702129D01*
X168210498Y-110702123D01*
X168210497Y-110702116D01*
X168204091Y-110642517D01*
X168200777Y-110633633D01*
X168153797Y-110507671D01*
X168153793Y-110507664D01*
X168067547Y-110392455D01*
X168067544Y-110392452D01*
X167952335Y-110306206D01*
X167952328Y-110306202D01*
X167817482Y-110255908D01*
X167817483Y-110255908D01*
X167757883Y-110249501D01*
X167757881Y-110249500D01*
X167757873Y-110249500D01*
X167757865Y-110249500D01*
X166960759Y-110249500D01*
X166893720Y-110229815D01*
X166847965Y-110177011D01*
X166838021Y-110107853D01*
X166857657Y-110056609D01*
X166879521Y-110023887D01*
X166909394Y-109979179D01*
X166969737Y-109833497D01*
X167000500Y-109678842D01*
X167000500Y-109521158D01*
X167000500Y-109521155D01*
X167000499Y-109521153D01*
X166969737Y-109366503D01*
X166969735Y-109366498D01*
X166909397Y-109220827D01*
X166909390Y-109220814D01*
X166821789Y-109089711D01*
X166821786Y-109089707D01*
X166710292Y-108978213D01*
X166710288Y-108978210D01*
X166579185Y-108890609D01*
X166579172Y-108890602D01*
X166433501Y-108830264D01*
X166433489Y-108830261D01*
X166278845Y-108799500D01*
X166278842Y-108799500D01*
X166121158Y-108799500D01*
X166121155Y-108799500D01*
X165966510Y-108830261D01*
X165966498Y-108830264D01*
X165820827Y-108890602D01*
X165820814Y-108890609D01*
X165689711Y-108978210D01*
X165689707Y-108978213D01*
X165578213Y-109089707D01*
X165578210Y-109089711D01*
X165490609Y-109220814D01*
X165490602Y-109220827D01*
X165430264Y-109366498D01*
X165430261Y-109366510D01*
X165399500Y-109521153D01*
X165399500Y-109678846D01*
X165430261Y-109833489D01*
X165430264Y-109833501D01*
X165490602Y-109979172D01*
X165490609Y-109979184D01*
X165542343Y-110056609D01*
X165563221Y-110123286D01*
X165544737Y-110190666D01*
X165492758Y-110237357D01*
X165439241Y-110249500D01*
X165112130Y-110249500D01*
X165112123Y-110249501D01*
X165052516Y-110255908D01*
X164917671Y-110306202D01*
X164917664Y-110306206D01*
X164802455Y-110392452D01*
X164802452Y-110392455D01*
X164716206Y-110507664D01*
X164716202Y-110507671D01*
X164665908Y-110642517D01*
X164659826Y-110699097D01*
X164659501Y-110702123D01*
X164659500Y-110702135D01*
X158982454Y-110702135D01*
X159258798Y-110425791D01*
X159320119Y-110392308D01*
X159322114Y-110391892D01*
X159433497Y-110369737D01*
X159579179Y-110309394D01*
X159710289Y-110221789D01*
X159821789Y-110110289D01*
X159909394Y-109979179D01*
X159969737Y-109833497D01*
X160000500Y-109678842D01*
X160000500Y-109521158D01*
X160000500Y-109521155D01*
X160000499Y-109521153D01*
X159969737Y-109366503D01*
X159969735Y-109366498D01*
X159909397Y-109220827D01*
X159909390Y-109220814D01*
X159907771Y-109218391D01*
X159907312Y-109216927D01*
X159906521Y-109215446D01*
X159906801Y-109215295D01*
X159886893Y-109151713D01*
X159905378Y-109084333D01*
X159957356Y-109037643D01*
X160010873Y-109025500D01*
X160657650Y-109025500D01*
X160724689Y-109045185D01*
X160726541Y-109046398D01*
X160820821Y-109109394D01*
X160820823Y-109109395D01*
X160820827Y-109109397D01*
X160960250Y-109167147D01*
X160966503Y-109169737D01*
X161121153Y-109200499D01*
X161121156Y-109200500D01*
X161121158Y-109200500D01*
X161278844Y-109200500D01*
X161278845Y-109200499D01*
X161433497Y-109169737D01*
X161579179Y-109109394D01*
X161710289Y-109021789D01*
X161821789Y-108910289D01*
X161909394Y-108779179D01*
X161969737Y-108633497D01*
X162000500Y-108478842D01*
X162000500Y-108321158D01*
X162000500Y-108321155D01*
X162000499Y-108321153D01*
X161987325Y-108254923D01*
X161969737Y-108166503D01*
X161926074Y-108061090D01*
X161909397Y-108020827D01*
X161909390Y-108020814D01*
X161821789Y-107889711D01*
X161821786Y-107889707D01*
X161744260Y-107812181D01*
X161710775Y-107750858D01*
X161715759Y-107681166D01*
X161757631Y-107625233D01*
X161823095Y-107600816D01*
X161831941Y-107600500D01*
X175351564Y-107600500D01*
X175418603Y-107620185D01*
X175464358Y-107672989D01*
X175474302Y-107742147D01*
X175445277Y-107805703D01*
X175399016Y-107839061D01*
X175284123Y-107886650D01*
X175284109Y-107886657D01*
X175085382Y-108001392D01*
X174903338Y-108141081D01*
X174741081Y-108303338D01*
X174601392Y-108485382D01*
X174486657Y-108684109D01*
X174486650Y-108684123D01*
X174398842Y-108896112D01*
X174395043Y-108910292D01*
X174341694Y-109109397D01*
X174339453Y-109117759D01*
X174339451Y-109117770D01*
X174309500Y-109345258D01*
X174309500Y-109574741D01*
X174324639Y-109689727D01*
X174339452Y-109802238D01*
X174386861Y-109979172D01*
X174398842Y-110023887D01*
X174486650Y-110235876D01*
X174486657Y-110235890D01*
X174601392Y-110434617D01*
X174741081Y-110616661D01*
X174741089Y-110616670D01*
X174903330Y-110778911D01*
X174903338Y-110778918D01*
X175085382Y-110918607D01*
X175085385Y-110918608D01*
X175085388Y-110918611D01*
X175284112Y-111033344D01*
X175284117Y-111033346D01*
X175284123Y-111033349D01*
X175365816Y-111067187D01*
X175496113Y-111121158D01*
X175717762Y-111180548D01*
X175934312Y-111209057D01*
X175941460Y-111209999D01*
X175945266Y-111210500D01*
X175945273Y-111210500D01*
X176174727Y-111210500D01*
X176174734Y-111210500D01*
X176402238Y-111180548D01*
X176623887Y-111121158D01*
X176835888Y-111033344D01*
X177034612Y-110918611D01*
X177216661Y-110778919D01*
X177216665Y-110778914D01*
X177216670Y-110778911D01*
X177375319Y-110620262D01*
X177436642Y-110586777D01*
X177506334Y-110591761D01*
X177562267Y-110633633D01*
X177586684Y-110699097D01*
X177587000Y-110707943D01*
X177587000Y-110757844D01*
X177593401Y-110817372D01*
X177593403Y-110817379D01*
X177643645Y-110952086D01*
X177643649Y-110952093D01*
X177729809Y-111067187D01*
X177729812Y-111067190D01*
X177844906Y-111153350D01*
X177844913Y-111153354D01*
X177979620Y-111203596D01*
X177979627Y-111203598D01*
X178039155Y-111209999D01*
X178039172Y-111210000D01*
X179112000Y-111210000D01*
X179612000Y-111210000D01*
X180684828Y-111210000D01*
X180684844Y-111209999D01*
X180744372Y-111203598D01*
X180744379Y-111203596D01*
X180879086Y-111153354D01*
X180879093Y-111153350D01*
X180994187Y-111067190D01*
X180994190Y-111067187D01*
X181080350Y-110952093D01*
X181080354Y-110952086D01*
X181130596Y-110817379D01*
X181130598Y-110817372D01*
X181136999Y-110757844D01*
X181137000Y-110757827D01*
X181137000Y-109710000D01*
X179612000Y-109710000D01*
X179612000Y-111210000D01*
X179112000Y-111210000D01*
X179112000Y-109210000D01*
X179612000Y-109210000D01*
X181137000Y-109210000D01*
X181137000Y-108162172D01*
X181136999Y-108162155D01*
X181130598Y-108102627D01*
X181130596Y-108102620D01*
X181080354Y-107967913D01*
X181080350Y-107967906D01*
X180994190Y-107852812D01*
X180994187Y-107852809D01*
X180879093Y-107766649D01*
X180879086Y-107766645D01*
X180744379Y-107716403D01*
X180744372Y-107716401D01*
X180684844Y-107710000D01*
X179612000Y-107710000D01*
X179612000Y-109210000D01*
X179112000Y-109210000D01*
X179112000Y-107710000D01*
X178487725Y-107710000D01*
X178420686Y-107690315D01*
X178374931Y-107637511D01*
X178364987Y-107568353D01*
X178394012Y-107504797D01*
X178418834Y-107482898D01*
X178473254Y-107446535D01*
X178510289Y-107421789D01*
X181987819Y-103944259D01*
X182049142Y-103910774D01*
X182118834Y-103915758D01*
G37*
%TD.AperFunction*%
%TA.AperFunction,Conductor*%
G36*
X155939300Y-107620185D02*
G01*
X155985055Y-107672989D01*
X155994999Y-107742147D01*
X155965974Y-107805703D01*
X155919713Y-107839061D01*
X155903719Y-107845685D01*
X155903717Y-107845686D01*
X155801266Y-107914141D01*
X155801263Y-107914144D01*
X137417229Y-126298181D01*
X137355906Y-126331666D01*
X137329548Y-126334500D01*
X110826039Y-126334500D01*
X110759000Y-126314815D01*
X110715554Y-126266795D01*
X110701432Y-126239080D01*
X110574172Y-126063922D01*
X110421078Y-125910828D01*
X110255208Y-125790316D01*
X110212545Y-125734988D01*
X110206566Y-125665375D01*
X110239172Y-125603580D01*
X110255205Y-125589686D01*
X110421078Y-125469172D01*
X110574172Y-125316078D01*
X110701433Y-125140919D01*
X110799726Y-124948009D01*
X110866630Y-124742097D01*
X110900500Y-124528254D01*
X110900500Y-124311746D01*
X110866630Y-124097903D01*
X110820721Y-123956608D01*
X110799727Y-123891993D01*
X110799726Y-123891990D01*
X110701432Y-123699080D01*
X110574172Y-123523922D01*
X110421078Y-123370828D01*
X110255208Y-123250316D01*
X110212545Y-123194988D01*
X110206566Y-123125375D01*
X110239172Y-123063580D01*
X110255205Y-123049686D01*
X110421078Y-122929172D01*
X110574172Y-122776078D01*
X110701433Y-122600919D01*
X110799726Y-122408009D01*
X110866630Y-122202097D01*
X110900500Y-121988254D01*
X110900500Y-121771746D01*
X110866630Y-121557903D01*
X110799726Y-121351991D01*
X110799726Y-121351990D01*
X110749642Y-121253697D01*
X110701433Y-121159081D01*
X110574172Y-120983922D01*
X110421078Y-120830828D01*
X110254784Y-120710007D01*
X110212120Y-120654679D01*
X110206141Y-120585065D01*
X110238747Y-120523270D01*
X110254786Y-120509373D01*
X110420749Y-120388793D01*
X110420755Y-120388788D01*
X110573788Y-120235755D01*
X110573788Y-120235754D01*
X110701005Y-120060657D01*
X110799263Y-119867817D01*
X110799264Y-119867814D01*
X110866142Y-119661983D01*
X110866142Y-119661980D01*
X110877543Y-119590000D01*
X109833012Y-119590000D01*
X109865925Y-119532993D01*
X109900000Y-119405826D01*
X109900000Y-119274174D01*
X109865925Y-119147007D01*
X109833012Y-119090000D01*
X110877543Y-119090000D01*
X110866142Y-119018019D01*
X110866142Y-119018016D01*
X110799264Y-118812185D01*
X110799263Y-118812182D01*
X110701005Y-118619342D01*
X110573788Y-118444245D01*
X110573788Y-118444244D01*
X110420755Y-118291211D01*
X110254785Y-118170626D01*
X110212120Y-118115296D01*
X110206141Y-118045682D01*
X110238747Y-117983887D01*
X110254780Y-117969994D01*
X110421078Y-117849172D01*
X110574172Y-117696078D01*
X110701433Y-117520919D01*
X110799726Y-117328009D01*
X110866630Y-117122097D01*
X110900500Y-116908254D01*
X110900500Y-116691746D01*
X110874810Y-116529551D01*
X110883764Y-116460260D01*
X110909599Y-116422477D01*
X119695259Y-107636819D01*
X119756582Y-107603334D01*
X119782940Y-107600500D01*
X155872261Y-107600500D01*
X155939300Y-107620185D01*
G37*
%TD.AperFunction*%
%TA.AperFunction,Conductor*%
G36*
X106684075Y-94712993D02*
G01*
X106749901Y-94827007D01*
X106842993Y-94920099D01*
X106957007Y-94985925D01*
X107020590Y-95002962D01*
X106280893Y-95742658D01*
X106363828Y-95802914D01*
X106574197Y-95910102D01*
X106798752Y-95983065D01*
X106798751Y-95983065D01*
X107031948Y-96020000D01*
X107268052Y-96020000D01*
X107501247Y-95983065D01*
X107725802Y-95910102D01*
X107936171Y-95802914D01*
X108076774Y-95700760D01*
X108142580Y-95677280D01*
X108210634Y-95693105D01*
X108259329Y-95743211D01*
X108273205Y-95811689D01*
X108248036Y-95876564D01*
X108191392Y-95950383D01*
X108076657Y-96149109D01*
X108076650Y-96149123D01*
X107988842Y-96361112D01*
X107988842Y-96361113D01*
X107931463Y-96575259D01*
X107929453Y-96582759D01*
X107929451Y-96582770D01*
X107899500Y-96810258D01*
X107899500Y-97039741D01*
X107924446Y-97229215D01*
X107929452Y-97267238D01*
X107929453Y-97267240D01*
X107988842Y-97488887D01*
X108076650Y-97700876D01*
X108076657Y-97700890D01*
X108191392Y-97899617D01*
X108331081Y-98081661D01*
X108331089Y-98081670D01*
X108493330Y-98243911D01*
X108493338Y-98243918D01*
X108493339Y-98243919D01*
X108540806Y-98280342D01*
X108675382Y-98383607D01*
X108675385Y-98383608D01*
X108675388Y-98383611D01*
X108874112Y-98498344D01*
X108874117Y-98498346D01*
X108874123Y-98498349D01*
X108919680Y-98517219D01*
X109086113Y-98586158D01*
X109307762Y-98645548D01*
X109371216Y-98653902D01*
X109435111Y-98682167D01*
X109442711Y-98689159D01*
X110188940Y-99435387D01*
X110168409Y-99440889D01*
X110031592Y-99519881D01*
X109919881Y-99631592D01*
X109840889Y-99768409D01*
X109835387Y-99788940D01*
X109105748Y-99059300D01*
X109105747Y-99059301D01*
X109031559Y-99161413D01*
X108917219Y-99385815D01*
X108839397Y-99625330D01*
X108800000Y-99874071D01*
X108800000Y-100125928D01*
X108839397Y-100374669D01*
X108917219Y-100614184D01*
X109031557Y-100838583D01*
X109105748Y-100940697D01*
X109105748Y-100940698D01*
X109835387Y-100211059D01*
X109840889Y-100231591D01*
X109919881Y-100368408D01*
X110031592Y-100480119D01*
X110168409Y-100559111D01*
X110188940Y-100564612D01*
X109459300Y-101294250D01*
X109536283Y-101350182D01*
X109578948Y-101405512D01*
X109584927Y-101475126D01*
X109552321Y-101536921D01*
X109491482Y-101571278D01*
X109463397Y-101574500D01*
X97386297Y-101574500D01*
X97319258Y-101554815D01*
X97273503Y-101502011D01*
X97263559Y-101432853D01*
X97275812Y-101394205D01*
X97310566Y-101325996D01*
X97310566Y-101325995D01*
X97310568Y-101325992D01*
X97383553Y-101101368D01*
X97392852Y-101042656D01*
X97420500Y-100868097D01*
X97420500Y-100631902D01*
X97383553Y-100398631D01*
X97329278Y-100231591D01*
X97310568Y-100174008D01*
X97310566Y-100174005D01*
X97310566Y-100174003D01*
X97222161Y-100000500D01*
X97203343Y-99963567D01*
X97064517Y-99772490D01*
X96897510Y-99605483D01*
X96891449Y-99601079D01*
X96771614Y-99514012D01*
X96728948Y-99458682D01*
X96720500Y-99413695D01*
X96720500Y-98846530D01*
X103599500Y-98846530D01*
X103599500Y-99053469D01*
X103639868Y-99256412D01*
X103639870Y-99256420D01*
X103719059Y-99447598D01*
X103763435Y-99514012D01*
X103834024Y-99619657D01*
X103980342Y-99765975D01*
X103980345Y-99765977D01*
X104152402Y-99880941D01*
X104343580Y-99960130D01*
X104544016Y-99999999D01*
X104546530Y-100000499D01*
X104546534Y-100000500D01*
X104546535Y-100000500D01*
X104753466Y-100000500D01*
X104753467Y-100000499D01*
X104956420Y-99960130D01*
X105147598Y-99880941D01*
X105319655Y-99765977D01*
X105465977Y-99619655D01*
X105580941Y-99447598D01*
X105660130Y-99256420D01*
X105700500Y-99053465D01*
X105700500Y-98846535D01*
X105660130Y-98643580D01*
X105580941Y-98452402D01*
X105465977Y-98280345D01*
X105465975Y-98280342D01*
X105319657Y-98134024D01*
X105233626Y-98076541D01*
X105147598Y-98019059D01*
X104956420Y-97939870D01*
X104956412Y-97939868D01*
X104753469Y-97899500D01*
X104753465Y-97899500D01*
X104546535Y-97899500D01*
X104546530Y-97899500D01*
X104343587Y-97939868D01*
X104343579Y-97939870D01*
X104152403Y-98019058D01*
X103980342Y-98134024D01*
X103834024Y-98280342D01*
X103719058Y-98452403D01*
X103639870Y-98643579D01*
X103639868Y-98643587D01*
X103599500Y-98846530D01*
X96720500Y-98846530D01*
X96720500Y-96662940D01*
X96740185Y-96595901D01*
X96756819Y-96575259D01*
X97975259Y-95356819D01*
X98036582Y-95323334D01*
X98062940Y-95320500D01*
X98500223Y-95320500D01*
X98567262Y-95340185D01*
X98613017Y-95392989D01*
X98622961Y-95462147D01*
X98593936Y-95525703D01*
X98575710Y-95542875D01*
X98493338Y-95606081D01*
X98331081Y-95768338D01*
X98191392Y-95950382D01*
X98076657Y-96149109D01*
X98076650Y-96149123D01*
X97988842Y-96361112D01*
X97988842Y-96361113D01*
X97931463Y-96575259D01*
X97929453Y-96582759D01*
X97929451Y-96582770D01*
X97899500Y-96810258D01*
X97899500Y-97039741D01*
X97924446Y-97229215D01*
X97929452Y-97267238D01*
X97929453Y-97267240D01*
X97988842Y-97488887D01*
X98076650Y-97700876D01*
X98076657Y-97700890D01*
X98191392Y-97899617D01*
X98331081Y-98081661D01*
X98331089Y-98081670D01*
X98493330Y-98243911D01*
X98493338Y-98243918D01*
X98493339Y-98243919D01*
X98540806Y-98280342D01*
X98675382Y-98383607D01*
X98675385Y-98383608D01*
X98675388Y-98383611D01*
X98874112Y-98498344D01*
X98874117Y-98498346D01*
X98874123Y-98498349D01*
X98919680Y-98517219D01*
X99086113Y-98586158D01*
X99307762Y-98645548D01*
X99535266Y-98675500D01*
X99535273Y-98675500D01*
X99764727Y-98675500D01*
X99764734Y-98675500D01*
X99992238Y-98645548D01*
X100213887Y-98586158D01*
X100425888Y-98498344D01*
X100624612Y-98383611D01*
X100806661Y-98243919D01*
X100806667Y-98243913D01*
X100806670Y-98243911D01*
X100968911Y-98081670D01*
X100968914Y-98081665D01*
X100968919Y-98081661D01*
X101108611Y-97899612D01*
X101223344Y-97700888D01*
X101311158Y-97488887D01*
X101370548Y-97267238D01*
X101400500Y-97039734D01*
X101400500Y-96810266D01*
X101370548Y-96582762D01*
X101311158Y-96361113D01*
X101223344Y-96149112D01*
X101108611Y-95950388D01*
X101053034Y-95877959D01*
X101027841Y-95812791D01*
X101041879Y-95744347D01*
X101090693Y-95694357D01*
X101158784Y-95678693D01*
X101224293Y-95702154D01*
X101363567Y-95803343D01*
X101462991Y-95854002D01*
X101574003Y-95910566D01*
X101574005Y-95910566D01*
X101574008Y-95910568D01*
X101694412Y-95949689D01*
X101798631Y-95983553D01*
X102031903Y-96020500D01*
X102031908Y-96020500D01*
X102268097Y-96020500D01*
X102501368Y-95983553D01*
X102502870Y-95983065D01*
X102725992Y-95910568D01*
X102936433Y-95803343D01*
X103127510Y-95664517D01*
X103294517Y-95497510D01*
X103299682Y-95490401D01*
X103355012Y-95447735D01*
X103424625Y-95441756D01*
X103486420Y-95474362D01*
X103500318Y-95490401D01*
X103505483Y-95497510D01*
X103672490Y-95664517D01*
X103863567Y-95803343D01*
X103962991Y-95854002D01*
X104074003Y-95910566D01*
X104074005Y-95910566D01*
X104074008Y-95910568D01*
X104194412Y-95949689D01*
X104298631Y-95983553D01*
X104531903Y-96020500D01*
X104531908Y-96020500D01*
X104768097Y-96020500D01*
X105001368Y-95983553D01*
X105002870Y-95983065D01*
X105225992Y-95910568D01*
X105436433Y-95803343D01*
X105627510Y-95664517D01*
X105794517Y-95497510D01*
X105839267Y-95435915D01*
X105843680Y-95431031D01*
X105868059Y-95416063D01*
X105890711Y-95398596D01*
X105898343Y-95397470D01*
X105903223Y-95394475D01*
X105916770Y-95394753D01*
X105922543Y-95393902D01*
X106667037Y-94649407D01*
X106684075Y-94712993D01*
G37*
%TD.AperFunction*%
%TA.AperFunction,Conductor*%
G36*
X118942332Y-92845185D02*
G01*
X118988087Y-92897989D01*
X118998031Y-92967147D01*
X118969006Y-93030703D01*
X118962974Y-93037181D01*
X112189322Y-99810831D01*
X112127999Y-99844316D01*
X112058307Y-99839332D01*
X112002374Y-99797460D01*
X111979168Y-99742548D01*
X111960602Y-99625330D01*
X111882780Y-99385815D01*
X111768442Y-99161416D01*
X111694250Y-99059301D01*
X111694250Y-99059300D01*
X110964612Y-99788940D01*
X110959111Y-99768409D01*
X110880119Y-99631592D01*
X110768408Y-99519881D01*
X110631591Y-99440889D01*
X110611058Y-99435387D01*
X111340698Y-98705748D01*
X111238583Y-98631557D01*
X111014184Y-98517219D01*
X110842325Y-98461379D01*
X110784649Y-98421942D01*
X110757451Y-98357583D01*
X110769366Y-98288737D01*
X110803773Y-98246763D01*
X110803618Y-98246587D01*
X110804685Y-98245651D01*
X110805162Y-98245068D01*
X110806661Y-98243919D01*
X110806668Y-98243912D01*
X110806670Y-98243911D01*
X110968911Y-98081670D01*
X110968914Y-98081665D01*
X110968919Y-98081661D01*
X111108611Y-97899612D01*
X111223344Y-97700888D01*
X111311158Y-97488887D01*
X111370548Y-97267238D01*
X111400500Y-97039734D01*
X111400500Y-96810266D01*
X111370548Y-96582762D01*
X111311158Y-96361113D01*
X111223344Y-96149112D01*
X111108611Y-95950388D01*
X111108608Y-95950385D01*
X111108607Y-95950382D01*
X110968918Y-95768338D01*
X110968911Y-95768330D01*
X110806670Y-95606089D01*
X110806661Y-95606081D01*
X110624617Y-95466392D01*
X110617264Y-95462147D01*
X110507191Y-95398596D01*
X110425890Y-95351657D01*
X110425876Y-95351650D01*
X110213887Y-95263842D01*
X109992238Y-95204452D01*
X109954215Y-95199446D01*
X109764741Y-95174500D01*
X109764734Y-95174500D01*
X109535266Y-95174500D01*
X109535258Y-95174500D01*
X109318715Y-95203009D01*
X109307762Y-95204452D01*
X109214076Y-95229554D01*
X109086112Y-95263842D01*
X108874123Y-95351650D01*
X108874109Y-95351657D01*
X108792809Y-95398596D01*
X108682736Y-95462147D01*
X108675383Y-95466392D01*
X108542855Y-95568085D01*
X108477686Y-95593279D01*
X108409241Y-95579241D01*
X108359252Y-95530427D01*
X108343588Y-95462335D01*
X108367052Y-95396823D01*
X108432912Y-95306175D01*
X108540102Y-95095802D01*
X108613065Y-94871247D01*
X108650000Y-94638052D01*
X108650000Y-94401947D01*
X108613065Y-94168752D01*
X108540102Y-93944197D01*
X108432914Y-93733828D01*
X108372658Y-93650894D01*
X108372658Y-93650893D01*
X107632962Y-94390590D01*
X107615925Y-94327007D01*
X107550099Y-94212993D01*
X107457007Y-94119901D01*
X107342993Y-94054075D01*
X107279407Y-94037037D01*
X108019105Y-93297340D01*
X108019104Y-93297338D01*
X107936174Y-93237087D01*
X107725802Y-93129897D01*
X107533553Y-93067431D01*
X107475877Y-93027993D01*
X107448679Y-92963635D01*
X107460594Y-92894788D01*
X107507838Y-92843313D01*
X107571871Y-92825500D01*
X118875293Y-92825500D01*
X118942332Y-92845185D01*
G37*
%TD.AperFunction*%
%TA.AperFunction,Conductor*%
G36*
X97751652Y-83835450D02*
G01*
X97807585Y-83877322D01*
X97830791Y-83932234D01*
X97853445Y-84075265D01*
X97910619Y-84251232D01*
X97910620Y-84251235D01*
X97967660Y-84363181D01*
X97994622Y-84416096D01*
X98103379Y-84565787D01*
X98234213Y-84696621D01*
X98238432Y-84699686D01*
X98281094Y-84755019D01*
X98287069Y-84824633D01*
X98254459Y-84886426D01*
X98238432Y-84900314D01*
X98234210Y-84903381D01*
X98103381Y-85034210D01*
X98103381Y-85034211D01*
X98103379Y-85034213D01*
X98056672Y-85098499D01*
X97994622Y-85183903D01*
X97910620Y-85348764D01*
X97910619Y-85348767D01*
X97853445Y-85524734D01*
X97824500Y-85707486D01*
X97824500Y-85892513D01*
X97853445Y-86075265D01*
X97910619Y-86251232D01*
X97910620Y-86251235D01*
X97994622Y-86416096D01*
X98103379Y-86565787D01*
X98234213Y-86696621D01*
X98238421Y-86699678D01*
X98238432Y-86699686D01*
X98281094Y-86755019D01*
X98287069Y-86824633D01*
X98254459Y-86886426D01*
X98238432Y-86900314D01*
X98234210Y-86903381D01*
X98103381Y-87034210D01*
X98103381Y-87034211D01*
X98103379Y-87034213D01*
X98059026Y-87095259D01*
X97994622Y-87183903D01*
X97910620Y-87348764D01*
X97910619Y-87348767D01*
X97853445Y-87524734D01*
X97830111Y-87672057D01*
X97824500Y-87707486D01*
X97824500Y-87892514D01*
X97838972Y-87983889D01*
X97853445Y-88075265D01*
X97910619Y-88251232D01*
X97910620Y-88251235D01*
X97964059Y-88356113D01*
X97994622Y-88416096D01*
X98078840Y-88532012D01*
X98102320Y-88597817D01*
X98086495Y-88665871D01*
X98052833Y-88704164D01*
X97967809Y-88767813D01*
X97881649Y-88882906D01*
X97881645Y-88882913D01*
X97831403Y-89017620D01*
X97831401Y-89017627D01*
X97825000Y-89077155D01*
X97825000Y-89550000D01*
X98684314Y-89550000D01*
X98679920Y-89554394D01*
X98627259Y-89645606D01*
X98600000Y-89747339D01*
X98600000Y-89852661D01*
X98627259Y-89954394D01*
X98679920Y-90045606D01*
X98684314Y-90050000D01*
X97825000Y-90050000D01*
X97825000Y-90522844D01*
X97831401Y-90582372D01*
X97831403Y-90582379D01*
X97881645Y-90717086D01*
X97881649Y-90717093D01*
X97967809Y-90832187D01*
X97967812Y-90832190D01*
X98082906Y-90918350D01*
X98082913Y-90918354D01*
X98217620Y-90968596D01*
X98217627Y-90968598D01*
X98277155Y-90974999D01*
X98277172Y-90975000D01*
X98750000Y-90975000D01*
X98750000Y-90115686D01*
X98754394Y-90120080D01*
X98845606Y-90172741D01*
X98947339Y-90200000D01*
X99052661Y-90200000D01*
X99154394Y-90172741D01*
X99245606Y-90120080D01*
X99250000Y-90115686D01*
X99250000Y-90975000D01*
X99722828Y-90975000D01*
X99722844Y-90974999D01*
X99782372Y-90968598D01*
X99782379Y-90968596D01*
X99917086Y-90918354D01*
X99917093Y-90918350D01*
X100032187Y-90832190D01*
X100032190Y-90832187D01*
X100118350Y-90717093D01*
X100118354Y-90717086D01*
X100168596Y-90582379D01*
X100168598Y-90582372D01*
X100174999Y-90522844D01*
X100175000Y-90522827D01*
X100175000Y-90050000D01*
X99315686Y-90050000D01*
X99320080Y-90045606D01*
X99372741Y-89954394D01*
X99400000Y-89852661D01*
X99400000Y-89747339D01*
X99372741Y-89645606D01*
X99320080Y-89554394D01*
X99315686Y-89550000D01*
X100175000Y-89550000D01*
X100175000Y-89077172D01*
X100174999Y-89077155D01*
X100168598Y-89017627D01*
X100168596Y-89017620D01*
X100118354Y-88882913D01*
X100118352Y-88882910D01*
X100055396Y-88798812D01*
X100030978Y-88733347D01*
X100045829Y-88665074D01*
X100095234Y-88615668D01*
X100154662Y-88600500D01*
X106638060Y-88600500D01*
X106705099Y-88620185D01*
X106750854Y-88672989D01*
X106760798Y-88742147D01*
X106731773Y-88805703D01*
X106725741Y-88812181D01*
X102528869Y-93009051D01*
X102467546Y-93042536D01*
X102421790Y-93043843D01*
X102268097Y-93019500D01*
X102268092Y-93019500D01*
X102031908Y-93019500D01*
X102031903Y-93019500D01*
X101798631Y-93056446D01*
X101574003Y-93129433D01*
X101363566Y-93236657D01*
X101332894Y-93258942D01*
X101172490Y-93375483D01*
X101172488Y-93375485D01*
X101172487Y-93375485D01*
X101005485Y-93542487D01*
X101005485Y-93542488D01*
X101005483Y-93542490D01*
X100914014Y-93668386D01*
X100858684Y-93711051D01*
X100813696Y-93719500D01*
X97601155Y-93719500D01*
X97446510Y-93750261D01*
X97446498Y-93750264D01*
X97300827Y-93810602D01*
X97300814Y-93810609D01*
X97169711Y-93898210D01*
X97169707Y-93898213D01*
X95432181Y-95635740D01*
X95370858Y-95669225D01*
X95301166Y-95664241D01*
X95245233Y-95622369D01*
X95220816Y-95556905D01*
X95220500Y-95548059D01*
X95220500Y-86315451D01*
X95240185Y-86248412D01*
X95256814Y-86227775D01*
X97620639Y-83863949D01*
X97681960Y-83830466D01*
X97751652Y-83835450D01*
G37*
%TD.AperFunction*%
%TA.AperFunction,Conductor*%
G36*
X185163600Y-70520185D02*
G01*
X185209355Y-70572989D01*
X185219299Y-70642147D01*
X185190274Y-70705703D01*
X185165452Y-70727602D01*
X185089711Y-70778210D01*
X185089707Y-70778213D01*
X184978213Y-70889707D01*
X184978210Y-70889711D01*
X184890609Y-71020814D01*
X184890602Y-71020827D01*
X184830261Y-71166505D01*
X184829456Y-71169161D01*
X184828656Y-71170380D01*
X184827932Y-71172130D01*
X184827600Y-71171992D01*
X184791155Y-71227597D01*
X184727341Y-71256050D01*
X184678708Y-71252934D01*
X184678511Y-71252881D01*
X184665892Y-71249500D01*
X181065892Y-71249500D01*
X180934108Y-71249500D01*
X180806812Y-71283608D01*
X180692686Y-71349500D01*
X180692683Y-71349502D01*
X180599502Y-71442683D01*
X180599500Y-71442686D01*
X180533607Y-71556814D01*
X180533607Y-71556815D01*
X180523350Y-71595095D01*
X180486985Y-71654755D01*
X180424138Y-71685283D01*
X180403576Y-71687000D01*
X179102129Y-71687000D01*
X179102123Y-71687001D01*
X179042516Y-71693408D01*
X178907671Y-71743702D01*
X178907668Y-71743704D01*
X178866174Y-71774767D01*
X178800709Y-71799184D01*
X178791863Y-71799500D01*
X167721153Y-71799500D01*
X167566510Y-71830260D01*
X167566502Y-71830262D01*
X167420824Y-71890604D01*
X167420814Y-71890609D01*
X167289711Y-71978210D01*
X167289707Y-71978213D01*
X163254741Y-76013181D01*
X163193418Y-76046666D01*
X163167060Y-76049500D01*
X151772540Y-76049500D01*
X151705501Y-76029815D01*
X151684859Y-76013181D01*
X149979723Y-74308045D01*
X149946238Y-74246722D01*
X149944931Y-74200967D01*
X149950380Y-74166567D01*
X149950380Y-73953993D01*
X149917126Y-73744037D01*
X149851437Y-73541868D01*
X149754931Y-73352464D01*
X149748815Y-73344046D01*
X149741950Y-73334596D01*
X149741949Y-73334595D01*
X149691521Y-73265186D01*
X158599500Y-73265186D01*
X158599500Y-73534813D01*
X158629686Y-73802719D01*
X158629688Y-73802731D01*
X158689684Y-74065594D01*
X158689687Y-74065602D01*
X158778734Y-74320082D01*
X158895714Y-74562994D01*
X158920304Y-74602128D01*
X159039162Y-74791289D01*
X159151920Y-74932683D01*
X159194029Y-74985487D01*
X159207266Y-75002085D01*
X159397915Y-75192734D01*
X159608711Y-75360838D01*
X159837003Y-75504284D01*
X159837005Y-75504285D01*
X159917975Y-75543278D01*
X160079921Y-75621267D01*
X160271049Y-75688145D01*
X160334397Y-75710312D01*
X160334405Y-75710315D01*
X160334408Y-75710315D01*
X160334409Y-75710316D01*
X160597268Y-75770312D01*
X160865187Y-75800499D01*
X160865188Y-75800500D01*
X160865191Y-75800500D01*
X161134812Y-75800500D01*
X161134812Y-75800499D01*
X161402732Y-75770312D01*
X161665591Y-75710316D01*
X161920079Y-75621267D01*
X162162997Y-75504284D01*
X162391289Y-75360838D01*
X162602085Y-75192734D01*
X162792734Y-75002085D01*
X162960838Y-74791289D01*
X163104284Y-74562997D01*
X163221267Y-74320079D01*
X163310316Y-74065591D01*
X163370312Y-73802732D01*
X163400500Y-73534809D01*
X163400500Y-73265191D01*
X163370312Y-72997268D01*
X163310316Y-72734409D01*
X163300470Y-72706272D01*
X163281210Y-72651229D01*
X163221267Y-72479921D01*
X163104284Y-72237003D01*
X162960838Y-72008711D01*
X162792734Y-71797915D01*
X162602085Y-71607266D01*
X162391289Y-71439162D01*
X162162997Y-71295716D01*
X162162994Y-71295714D01*
X161920082Y-71178734D01*
X161665602Y-71089687D01*
X161665594Y-71089684D01*
X161468446Y-71044687D01*
X161402732Y-71029688D01*
X161402728Y-71029687D01*
X161402719Y-71029686D01*
X161134813Y-70999500D01*
X161134809Y-70999500D01*
X160865191Y-70999500D01*
X160865186Y-70999500D01*
X160597280Y-71029686D01*
X160597268Y-71029688D01*
X160334405Y-71089684D01*
X160334397Y-71089687D01*
X160079917Y-71178734D01*
X159837005Y-71295714D01*
X159608712Y-71439161D01*
X159397915Y-71607265D01*
X159207265Y-71797915D01*
X159039161Y-72008712D01*
X158895714Y-72237005D01*
X158778734Y-72479917D01*
X158689687Y-72734397D01*
X158689684Y-72734405D01*
X158629688Y-72997268D01*
X158629686Y-72997280D01*
X158599500Y-73265186D01*
X149691521Y-73265186D01*
X149629989Y-73180494D01*
X149629985Y-73180489D01*
X149479666Y-73030170D01*
X149307700Y-72905231D01*
X149118294Y-72808724D01*
X149118293Y-72808723D01*
X149118292Y-72808723D01*
X148916123Y-72743034D01*
X148916121Y-72743033D01*
X148916120Y-72743033D01*
X148754837Y-72717488D01*
X148706167Y-72709780D01*
X148493593Y-72709780D01*
X148493591Y-72709780D01*
X148459190Y-72715228D01*
X148389896Y-72706272D01*
X148352113Y-72680435D01*
X146849892Y-71178213D01*
X146849888Y-71178210D01*
X146718785Y-71090609D01*
X146718772Y-71090602D01*
X146573101Y-71030264D01*
X146573089Y-71030261D01*
X146418445Y-70999500D01*
X146418442Y-70999500D01*
X135699003Y-70999500D01*
X135541318Y-70999500D01*
X135541313Y-70999500D01*
X135386670Y-71030260D01*
X135386662Y-71030262D01*
X135240984Y-71090604D01*
X135240974Y-71090609D01*
X135109871Y-71178210D01*
X135109867Y-71178213D01*
X133607644Y-72680436D01*
X133546321Y-72713921D01*
X133500566Y-72715228D01*
X133466167Y-72709780D01*
X133253593Y-72709780D01*
X133204922Y-72717488D01*
X133043640Y-72743033D01*
X132841465Y-72808724D01*
X132652059Y-72905231D01*
X132480093Y-73030170D01*
X132480089Y-73030174D01*
X132381561Y-73128703D01*
X132320238Y-73162188D01*
X132250546Y-73157204D01*
X132194613Y-73115332D01*
X132170196Y-73049868D01*
X132169880Y-73041022D01*
X132169880Y-73035452D01*
X132169879Y-73035435D01*
X132163478Y-72975907D01*
X132163476Y-72975900D01*
X132113234Y-72841193D01*
X132113230Y-72841186D01*
X132027070Y-72726092D01*
X132027067Y-72726089D01*
X131911973Y-72639929D01*
X131911966Y-72639925D01*
X131777259Y-72589683D01*
X131777252Y-72589681D01*
X131717724Y-72583280D01*
X131069880Y-72583280D01*
X131069880Y-73500268D01*
X131012873Y-73467355D01*
X130885706Y-73433280D01*
X130754054Y-73433280D01*
X130626887Y-73467355D01*
X130569880Y-73500268D01*
X130569880Y-72583280D01*
X129922035Y-72583280D01*
X129862507Y-72589681D01*
X129862500Y-72589683D01*
X129727793Y-72639925D01*
X129727786Y-72639929D01*
X129612692Y-72726089D01*
X129612689Y-72726092D01*
X129526529Y-72841186D01*
X129526525Y-72841193D01*
X129476283Y-72975900D01*
X129476281Y-72975907D01*
X129469880Y-73035435D01*
X129469880Y-73683280D01*
X130386868Y-73683280D01*
X130353955Y-73740287D01*
X130319880Y-73867454D01*
X130319880Y-73999106D01*
X130353955Y-74126273D01*
X130386868Y-74183280D01*
X129469880Y-74183280D01*
X129469880Y-74831124D01*
X129476281Y-74890652D01*
X129476283Y-74890659D01*
X129526525Y-75025366D01*
X129526529Y-75025373D01*
X129612689Y-75140467D01*
X129612692Y-75140470D01*
X129727786Y-75226630D01*
X129727793Y-75226634D01*
X129862500Y-75276876D01*
X129862507Y-75276878D01*
X129922035Y-75283279D01*
X129922052Y-75283280D01*
X130569880Y-75283280D01*
X130569880Y-74366292D01*
X130626887Y-74399205D01*
X130754054Y-74433280D01*
X130885706Y-74433280D01*
X131012873Y-74399205D01*
X131069880Y-74366292D01*
X131069880Y-75166839D01*
X131050195Y-75233878D01*
X131033561Y-75254520D01*
X128823541Y-77464541D01*
X128762218Y-77498026D01*
X128735860Y-77500860D01*
X126622513Y-77500860D01*
X126467870Y-77531620D01*
X126467862Y-77531622D01*
X126322184Y-77591964D01*
X126322174Y-77591969D01*
X126191071Y-77679570D01*
X126191067Y-77679573D01*
X123976957Y-79893683D01*
X123915634Y-79927168D01*
X123865348Y-79926630D01*
X123865233Y-79927360D01*
X123778216Y-79913578D01*
X123689331Y-79899500D01*
X123516109Y-79899500D01*
X123489863Y-79903657D01*
X123345022Y-79926597D01*
X123180272Y-79980128D01*
X123025931Y-80058768D01*
X122952274Y-80112284D01*
X122885792Y-80160586D01*
X122885790Y-80160588D01*
X122885789Y-80160588D01*
X122763308Y-80283069D01*
X122763308Y-80283070D01*
X122763306Y-80283072D01*
X122733893Y-80323555D01*
X122661488Y-80423211D01*
X122582848Y-80577552D01*
X122582847Y-80577554D01*
X122582847Y-80577555D01*
X122558915Y-80651210D01*
X122529317Y-80742302D01*
X122502220Y-80913389D01*
X122502220Y-81886610D01*
X122515181Y-81968447D01*
X122529318Y-82057701D01*
X122582847Y-82222445D01*
X122661488Y-82376788D01*
X122763306Y-82516928D01*
X122885792Y-82639414D01*
X123025932Y-82741232D01*
X123180275Y-82819873D01*
X123345019Y-82873402D01*
X123516109Y-82900500D01*
X123516110Y-82900500D01*
X123689330Y-82900500D01*
X123689331Y-82900500D01*
X123860421Y-82873402D01*
X124025165Y-82819873D01*
X124179508Y-82741232D01*
X124319648Y-82639414D01*
X124442134Y-82516928D01*
X124543952Y-82376788D01*
X124622593Y-82222445D01*
X124676122Y-82057701D01*
X124703220Y-81886611D01*
X124703220Y-81482940D01*
X124711864Y-81453499D01*
X124718388Y-81423513D01*
X124722142Y-81418497D01*
X124722905Y-81415901D01*
X124739539Y-81395259D01*
X124830539Y-81304259D01*
X124891862Y-81270774D01*
X124961554Y-81275758D01*
X125017487Y-81317630D01*
X125041904Y-81383094D01*
X125042220Y-81391940D01*
X125042220Y-81632610D01*
X125068731Y-81800000D01*
X125069318Y-81803701D01*
X125122847Y-81968445D01*
X125201488Y-82122788D01*
X125303306Y-82262928D01*
X125425792Y-82385414D01*
X125565932Y-82487232D01*
X125720275Y-82565873D01*
X125885019Y-82619402D01*
X126056109Y-82646500D01*
X126056110Y-82646500D01*
X126229330Y-82646500D01*
X126229331Y-82646500D01*
X126400421Y-82619402D01*
X126565165Y-82565873D01*
X126719508Y-82487232D01*
X126859648Y-82385414D01*
X126982134Y-82262928D01*
X127083952Y-82122788D01*
X127162593Y-81968445D01*
X127216122Y-81803701D01*
X127243220Y-81632611D01*
X127243220Y-80659389D01*
X127216122Y-80488299D01*
X127162593Y-80323555D01*
X127083952Y-80169212D01*
X126982134Y-80029072D01*
X126859648Y-79906586D01*
X126719508Y-79804768D01*
X126613562Y-79750786D01*
X126562766Y-79702811D01*
X126545971Y-79634991D01*
X126568508Y-79568856D01*
X126582169Y-79552627D01*
X126996619Y-79138179D01*
X127057942Y-79104694D01*
X127084300Y-79101860D01*
X129197644Y-79101860D01*
X129197645Y-79101859D01*
X129352297Y-79071097D01*
X129497979Y-79010754D01*
X129629089Y-78923149D01*
X133112115Y-75440121D01*
X133173436Y-75406638D01*
X133219191Y-75405331D01*
X133253593Y-75410780D01*
X133253594Y-75410780D01*
X133466159Y-75410780D01*
X133466167Y-75410780D01*
X133470853Y-75410037D01*
X133540141Y-75418986D01*
X133593597Y-75463978D01*
X133614243Y-75530727D01*
X133595524Y-75598043D01*
X133577937Y-75620190D01*
X129243539Y-79954589D01*
X129182216Y-79988074D01*
X129112524Y-79983090D01*
X129108411Y-79981471D01*
X129105172Y-79980129D01*
X129018994Y-79952128D01*
X128940421Y-79926598D01*
X128940419Y-79926597D01*
X128940418Y-79926597D01*
X128795577Y-79903657D01*
X128769331Y-79899500D01*
X128596109Y-79899500D01*
X128569863Y-79903657D01*
X128425022Y-79926597D01*
X128260272Y-79980128D01*
X128105931Y-80058768D01*
X128032274Y-80112284D01*
X127965792Y-80160586D01*
X127965790Y-80160588D01*
X127965789Y-80160588D01*
X127843308Y-80283069D01*
X127843308Y-80283070D01*
X127843306Y-80283072D01*
X127813893Y-80323555D01*
X127741488Y-80423211D01*
X127662848Y-80577552D01*
X127662847Y-80577554D01*
X127662847Y-80577555D01*
X127638915Y-80651210D01*
X127609317Y-80742302D01*
X127582220Y-80913389D01*
X127582220Y-81886610D01*
X127595181Y-81968447D01*
X127609318Y-82057701D01*
X127662847Y-82222445D01*
X127741488Y-82376788D01*
X127843306Y-82516928D01*
X127965792Y-82639414D01*
X128105932Y-82741232D01*
X128260275Y-82819873D01*
X128425019Y-82873402D01*
X128596109Y-82900500D01*
X128596110Y-82900500D01*
X128769330Y-82900500D01*
X128769331Y-82900500D01*
X128940421Y-82873402D01*
X129105165Y-82819873D01*
X129259508Y-82741232D01*
X129399648Y-82639414D01*
X129522134Y-82516928D01*
X129623952Y-82376788D01*
X129702593Y-82222445D01*
X129756122Y-82057701D01*
X129783220Y-81886611D01*
X129783220Y-81235452D01*
X129791864Y-81206011D01*
X129798388Y-81176025D01*
X129802142Y-81171009D01*
X129802905Y-81168413D01*
X129819539Y-81147771D01*
X129910539Y-81056771D01*
X129971862Y-81023286D01*
X130041554Y-81028270D01*
X130097487Y-81070142D01*
X130121904Y-81135606D01*
X130122220Y-81144452D01*
X130122220Y-81632610D01*
X130148731Y-81800000D01*
X130149318Y-81803701D01*
X130202847Y-81968445D01*
X130281488Y-82122788D01*
X130383306Y-82262928D01*
X130505792Y-82385414D01*
X130645932Y-82487232D01*
X130800275Y-82565873D01*
X130965019Y-82619402D01*
X131136109Y-82646500D01*
X131136110Y-82646500D01*
X131309330Y-82646500D01*
X131309331Y-82646500D01*
X131480421Y-82619402D01*
X131645165Y-82565873D01*
X131799508Y-82487232D01*
X131939648Y-82385414D01*
X132062134Y-82262928D01*
X132163952Y-82122788D01*
X132242593Y-81968445D01*
X132296122Y-81803701D01*
X132323220Y-81632611D01*
X132323220Y-80981451D01*
X132342905Y-80914412D01*
X132359535Y-80893774D01*
X132453020Y-80800289D01*
X132514342Y-80766805D01*
X132584034Y-80771789D01*
X132639967Y-80813661D01*
X132664384Y-80879125D01*
X132663174Y-80907362D01*
X132662220Y-80913386D01*
X132662220Y-81886610D01*
X132675181Y-81968447D01*
X132689318Y-82057701D01*
X132742847Y-82222445D01*
X132821488Y-82376788D01*
X132923306Y-82516928D01*
X133045792Y-82639414D01*
X133185932Y-82741232D01*
X133236684Y-82767091D01*
X133340270Y-82819871D01*
X133340272Y-82819871D01*
X133340275Y-82819873D01*
X133406408Y-82841361D01*
X133452738Y-82856415D01*
X133510413Y-82895853D01*
X133537611Y-82960212D01*
X133525696Y-83029058D01*
X133502100Y-83062027D01*
X125025949Y-91538181D01*
X124964626Y-91571666D01*
X124938268Y-91574500D01*
X107031606Y-91574500D01*
X106908393Y-91574500D01*
X106789554Y-91598138D01*
X106789553Y-91598137D01*
X106787555Y-91598535D01*
X106787545Y-91598538D01*
X106673716Y-91645687D01*
X106571865Y-91713743D01*
X106571845Y-91713756D01*
X106571273Y-91714137D01*
X106571255Y-91714152D01*
X105226878Y-93058529D01*
X105213522Y-93065821D01*
X105203231Y-93077035D01*
X105183478Y-93082226D01*
X105165555Y-93092014D01*
X105149331Y-93091202D01*
X105135656Y-93094797D01*
X105100879Y-93088779D01*
X105000792Y-93056259D01*
X104943117Y-93016822D01*
X104915918Y-92952463D01*
X104927832Y-92883617D01*
X104951426Y-92850650D01*
X109491789Y-88310289D01*
X115692259Y-82109819D01*
X115753582Y-82076334D01*
X115779940Y-82073500D01*
X119838221Y-82073500D01*
X119905260Y-82093185D01*
X119951015Y-82145989D01*
X119962221Y-82197500D01*
X119962221Y-82320876D01*
X119968628Y-82380483D01*
X120018922Y-82515328D01*
X120018926Y-82515335D01*
X120105172Y-82630544D01*
X120105175Y-82630547D01*
X120220384Y-82716793D01*
X120220391Y-82716797D01*
X120355237Y-82767091D01*
X120355236Y-82767091D01*
X120362164Y-82767835D01*
X120414847Y-82773500D01*
X121710592Y-82773499D01*
X121770203Y-82767091D01*
X121905051Y-82716796D01*
X122020266Y-82630546D01*
X122106516Y-82515331D01*
X122156811Y-82380483D01*
X122163220Y-82320873D01*
X122163219Y-80225128D01*
X122156811Y-80165517D01*
X122154971Y-80160585D01*
X122106517Y-80030671D01*
X122106513Y-80030664D01*
X122020267Y-79915455D01*
X122020264Y-79915452D01*
X121905055Y-79829206D01*
X121905048Y-79829202D01*
X121770202Y-79778908D01*
X121770203Y-79778908D01*
X121710603Y-79772501D01*
X121710601Y-79772500D01*
X121710593Y-79772500D01*
X121710585Y-79772500D01*
X120745660Y-79772500D01*
X120678621Y-79752815D01*
X120657979Y-79736181D01*
X116876634Y-75954836D01*
X116843149Y-75893513D01*
X116848133Y-75823821D01*
X116890005Y-75767888D01*
X116955469Y-75743471D01*
X116991906Y-75746263D01*
X117097268Y-75770312D01*
X117365187Y-75800499D01*
X117365188Y-75800500D01*
X117365191Y-75800500D01*
X117634812Y-75800500D01*
X117634812Y-75800499D01*
X117902732Y-75770312D01*
X118165591Y-75710316D01*
X118420079Y-75621267D01*
X118662997Y-75504284D01*
X118891289Y-75360838D01*
X119102085Y-75192734D01*
X119292734Y-75002085D01*
X119460838Y-74791289D01*
X119604284Y-74562997D01*
X119721267Y-74320079D01*
X119780955Y-74149500D01*
X119801436Y-74090970D01*
X119801438Y-74090964D01*
X119810315Y-74065593D01*
X119810316Y-74065591D01*
X119870312Y-73802732D01*
X119900500Y-73534809D01*
X119900500Y-73265191D01*
X119877698Y-73062817D01*
X119875805Y-73046015D01*
X119870313Y-72997280D01*
X119870312Y-72997268D01*
X119810316Y-72734409D01*
X119800470Y-72706272D01*
X119781210Y-72651229D01*
X119721267Y-72479921D01*
X119604284Y-72237003D01*
X119460838Y-72008711D01*
X119292734Y-71797915D01*
X119102085Y-71607266D01*
X118891289Y-71439162D01*
X118662997Y-71295716D01*
X118662994Y-71295714D01*
X118420082Y-71178734D01*
X118165602Y-71089687D01*
X118165594Y-71089684D01*
X117968446Y-71044687D01*
X117902732Y-71029688D01*
X117902728Y-71029687D01*
X117902719Y-71029686D01*
X117634813Y-70999500D01*
X117634809Y-70999500D01*
X117365191Y-70999500D01*
X117365186Y-70999500D01*
X117097280Y-71029686D01*
X117097268Y-71029688D01*
X116834405Y-71089684D01*
X116834397Y-71089687D01*
X116579917Y-71178734D01*
X116337005Y-71295714D01*
X116108712Y-71439161D01*
X115897915Y-71607265D01*
X115707265Y-71797915D01*
X115539161Y-72008712D01*
X115395714Y-72237005D01*
X115278734Y-72479917D01*
X115189687Y-72734397D01*
X115189684Y-72734405D01*
X115129688Y-72997268D01*
X115129686Y-72997280D01*
X115099500Y-73265186D01*
X115099500Y-73534813D01*
X115129686Y-73802719D01*
X115129688Y-73802736D01*
X115153735Y-73908092D01*
X115149461Y-73977831D01*
X115108162Y-74034188D01*
X115042950Y-74059271D01*
X114974530Y-74045116D01*
X114945163Y-74023365D01*
X111633979Y-70712181D01*
X111600494Y-70650858D01*
X111605478Y-70581166D01*
X111647350Y-70525233D01*
X111712814Y-70500816D01*
X111721660Y-70500500D01*
X185096561Y-70500500D01*
X185163600Y-70520185D01*
G37*
%TD.AperFunction*%
%TA.AperFunction,Conductor*%
G36*
X176926804Y-73406738D02*
G01*
X176948893Y-73408318D01*
X176959676Y-73416390D01*
X176972598Y-73420185D01*
X176987097Y-73436918D01*
X177004826Y-73450190D01*
X177009533Y-73462810D01*
X177018353Y-73472989D01*
X177021504Y-73494906D01*
X177029243Y-73515654D01*
X177026380Y-73528814D01*
X177028297Y-73542147D01*
X177019097Y-73562290D01*
X177014391Y-73583927D01*
X177001122Y-73601652D01*
X176999272Y-73605703D01*
X176993240Y-73612181D01*
X176978213Y-73627207D01*
X176978210Y-73627211D01*
X176890609Y-73758314D01*
X176890602Y-73758327D01*
X176830264Y-73903998D01*
X176830261Y-73904010D01*
X176799500Y-74058653D01*
X176799500Y-76878846D01*
X176830261Y-77033489D01*
X176830264Y-77033501D01*
X176890602Y-77179172D01*
X176890609Y-77179185D01*
X176978210Y-77310288D01*
X176978213Y-77310292D01*
X182163181Y-82495259D01*
X182196666Y-82556582D01*
X182199500Y-82582940D01*
X182199500Y-85368059D01*
X182179815Y-85435098D01*
X182127011Y-85480853D01*
X182057853Y-85490797D01*
X181994297Y-85461772D01*
X181987819Y-85455740D01*
X181110292Y-84578213D01*
X181110288Y-84578210D01*
X180979185Y-84490609D01*
X180979172Y-84490602D01*
X180833501Y-84430264D01*
X180833489Y-84430261D01*
X180678845Y-84399500D01*
X180678842Y-84399500D01*
X176296940Y-84399500D01*
X176229901Y-84379815D01*
X176209259Y-84363181D01*
X174839085Y-82993007D01*
X174805600Y-82931684D01*
X174810584Y-82861992D01*
X174852456Y-82806059D01*
X174870471Y-82794841D01*
X174976524Y-82740804D01*
X175116602Y-82639032D01*
X175239032Y-82516602D01*
X175340804Y-82376524D01*
X175419408Y-82222257D01*
X175472914Y-82057584D01*
X175500000Y-81886571D01*
X175500000Y-81650000D01*
X174715686Y-81650000D01*
X174720080Y-81645606D01*
X174772741Y-81554394D01*
X174800000Y-81452661D01*
X174800000Y-81347339D01*
X174772741Y-81245606D01*
X174720080Y-81154394D01*
X174715686Y-81150000D01*
X175500000Y-81150000D01*
X175500000Y-80913428D01*
X175472914Y-80742415D01*
X175419408Y-80577742D01*
X175340804Y-80423475D01*
X175239032Y-80283397D01*
X175116602Y-80160967D01*
X174976524Y-80059195D01*
X174822257Y-79980591D01*
X174657589Y-79927087D01*
X174657581Y-79927085D01*
X174650000Y-79925884D01*
X174650000Y-81084314D01*
X174645606Y-81079920D01*
X174554394Y-81027259D01*
X174452661Y-81000000D01*
X174347339Y-81000000D01*
X174245606Y-81027259D01*
X174154394Y-81079920D01*
X174150000Y-81084314D01*
X174150000Y-79925884D01*
X174149999Y-79925884D01*
X174142418Y-79927085D01*
X174142410Y-79927087D01*
X173977742Y-79980591D01*
X173823475Y-80059195D01*
X173683397Y-80160967D01*
X173560967Y-80283397D01*
X173459195Y-80423475D01*
X173380591Y-80577742D01*
X173327085Y-80742415D01*
X173300000Y-80913428D01*
X173300000Y-81154560D01*
X173293761Y-81175805D01*
X173292182Y-81197894D01*
X173284109Y-81208677D01*
X173280315Y-81221599D01*
X173263581Y-81236098D01*
X173250310Y-81253827D01*
X173237689Y-81258534D01*
X173227511Y-81267354D01*
X173205593Y-81270505D01*
X173184846Y-81278244D01*
X173171685Y-81275381D01*
X173158353Y-81277298D01*
X173138209Y-81268098D01*
X173116573Y-81263392D01*
X173098847Y-81250123D01*
X173094797Y-81248273D01*
X173088319Y-81242241D01*
X172996819Y-81150741D01*
X172963334Y-81089418D01*
X172960500Y-81063060D01*
X172960500Y-80659389D01*
X172937495Y-80514142D01*
X172933402Y-80488299D01*
X172879873Y-80323555D01*
X172801232Y-80169212D01*
X172699414Y-80029072D01*
X172576928Y-79906586D01*
X172436788Y-79804768D01*
X172282445Y-79726127D01*
X172117701Y-79672598D01*
X172117699Y-79672597D01*
X172117698Y-79672597D01*
X171986271Y-79651781D01*
X171946611Y-79645500D01*
X171773389Y-79645500D01*
X171699903Y-79657139D01*
X171597487Y-79673360D01*
X171597323Y-79672326D01*
X171532591Y-79669080D01*
X171485761Y-79639683D01*
X170256819Y-78410741D01*
X170223334Y-78349418D01*
X170220500Y-78323060D01*
X170220500Y-76972351D01*
X170240185Y-76905312D01*
X170292989Y-76859557D01*
X170331247Y-76849061D01*
X170377483Y-76844091D01*
X170512331Y-76793796D01*
X170627546Y-76707546D01*
X170713796Y-76592331D01*
X170764091Y-76457483D01*
X170770500Y-76397873D01*
X170770499Y-76373979D01*
X170773330Y-76360963D01*
X170783940Y-76341525D01*
X170790179Y-76320275D01*
X170806803Y-76299643D01*
X170806808Y-76299636D01*
X170806811Y-76299634D01*
X170806818Y-76299626D01*
X171477036Y-75629407D01*
X171494075Y-75692993D01*
X171559901Y-75807007D01*
X171652993Y-75900099D01*
X171767007Y-75965925D01*
X171830590Y-75982962D01*
X171198282Y-76615269D01*
X171198282Y-76615270D01*
X171252449Y-76654624D01*
X171441782Y-76751095D01*
X171643870Y-76816757D01*
X171853754Y-76850000D01*
X172066246Y-76850000D01*
X172276127Y-76816757D01*
X172276130Y-76816757D01*
X172478217Y-76751095D01*
X172667554Y-76654622D01*
X172721716Y-76615270D01*
X172721717Y-76615270D01*
X172089408Y-75982962D01*
X172152993Y-75965925D01*
X172267007Y-75900099D01*
X172360099Y-75807007D01*
X172425925Y-75692993D01*
X172442962Y-75629409D01*
X173075270Y-76261717D01*
X173075270Y-76261716D01*
X173114622Y-76207555D01*
X173119232Y-76198507D01*
X173167205Y-76147709D01*
X173235025Y-76130912D01*
X173301161Y-76153447D01*
X173340204Y-76198504D01*
X173344949Y-76207817D01*
X173469890Y-76379786D01*
X173620213Y-76530109D01*
X173792179Y-76655048D01*
X173792181Y-76655049D01*
X173792184Y-76655051D01*
X173981588Y-76751557D01*
X174183757Y-76817246D01*
X174393713Y-76850500D01*
X174393714Y-76850500D01*
X174606286Y-76850500D01*
X174606287Y-76850500D01*
X174816243Y-76817246D01*
X175018412Y-76751557D01*
X175207816Y-76655051D01*
X175294138Y-76592335D01*
X175379786Y-76530109D01*
X175379788Y-76530106D01*
X175379792Y-76530104D01*
X175530104Y-76379792D01*
X175530106Y-76379788D01*
X175530109Y-76379786D01*
X175655048Y-76207820D01*
X175655050Y-76207817D01*
X175655051Y-76207816D01*
X175751557Y-76018412D01*
X175817246Y-75816243D01*
X175850500Y-75606287D01*
X175850500Y-75393713D01*
X175817246Y-75183757D01*
X175751557Y-74981588D01*
X175655051Y-74792184D01*
X175655049Y-74792181D01*
X175655048Y-74792179D01*
X175530109Y-74620213D01*
X175379786Y-74469890D01*
X175207820Y-74344951D01*
X175018414Y-74248444D01*
X175018413Y-74248443D01*
X175018412Y-74248443D01*
X174816243Y-74182754D01*
X174816241Y-74182753D01*
X174816240Y-74182753D01*
X174654957Y-74157208D01*
X174606287Y-74149500D01*
X174393713Y-74149500D01*
X174351721Y-74156150D01*
X174183753Y-74182754D01*
X174168160Y-74187821D01*
X174098319Y-74189816D01*
X174042162Y-74157571D01*
X173788589Y-73903998D01*
X173496770Y-73612180D01*
X173463286Y-73550858D01*
X173468270Y-73481167D01*
X173510141Y-73425233D01*
X173575606Y-73400816D01*
X173584452Y-73400500D01*
X176905559Y-73400500D01*
X176926804Y-73406738D01*
G37*
%TD.AperFunction*%
%TD*%
M02*
