%TF.GenerationSoftware,KiCad,Pcbnew,9.0.9-9.0.9~ubuntu24.04.1*%
%TF.CreationDate,2026-09-14T09:09:23+09:00*%
%TF.ProjectId,tinygo-conf-2026,74696e79-676f-42d6-936f-6e662d323032,rev?*%
%TF.SameCoordinates,Original*%
%TF.FileFunction,Soldermask,Top*%
%TF.FilePolarity,Negative*%
%FSLAX46Y46*%
G04 Gerber Fmt 4.6, Leading zero omitted, Abs format (unit mm)*
G04 Created by KiCad (PCBNEW 9.0.9-9.0.9~ubuntu24.04.1) date 2026-09-14 09:09:23*
%MOMM*%
%LPD*%
G01*
G04 APERTURE LIST*
%ADD10C,0.000000*%
%ADD11C,1.600000*%
%ADD12R,1.700000X1.700000*%
%ADD13C,1.700000*%
%ADD14C,4.300000*%
%ADD15R,2.000000X2.000000*%
%ADD16C,2.000000*%
%ADD17R,1.800000X1.800000*%
%ADD18C,1.800000*%
%ADD19R,1.350000X1.350000*%
%ADD20C,1.350000*%
%ADD21C,2.500000*%
%ADD22C,2.200000*%
%ADD23O,3.101600X1.851600*%
%ADD24O,4.101600X2.601600*%
%ADD25C,1.900000*%
%ADD26C,3.000000*%
%ADD27C,4.100000*%
%ADD28R,1.200000X2.000000*%
%ADD29O,1.200000X2.000000*%
G04 APERTURE END LIST*
D10*
%TO.C,G\u002A\u002A\u002A*%
G36*
X101367412Y-145084299D02*
G01*
X101402385Y-145091829D01*
X101444755Y-145107441D01*
X101447602Y-145108595D01*
X101530093Y-145152384D01*
X101590832Y-145208613D01*
X101631096Y-145278912D01*
X101652165Y-145364914D01*
X101652815Y-145370336D01*
X101655108Y-145413506D01*
X101650114Y-145454970D01*
X101636213Y-145504664D01*
X101626220Y-145533472D01*
X101574477Y-145652736D01*
X101513401Y-145749290D01*
X101443400Y-145822808D01*
X101364882Y-145872964D01*
X101278254Y-145899430D01*
X101183923Y-145901880D01*
X101168946Y-145900130D01*
X101060743Y-145877325D01*
X100973811Y-145840765D01*
X100907805Y-145790118D01*
X100862381Y-145725053D01*
X100837197Y-145645235D01*
X100831380Y-145573703D01*
X100840842Y-145495093D01*
X100866885Y-145411002D01*
X100878466Y-145386477D01*
X101113097Y-145386477D01*
X101119727Y-145397780D01*
X101142561Y-145405902D01*
X101176790Y-145404701D01*
X101210718Y-145395535D01*
X101227916Y-145385207D01*
X101246213Y-145359631D01*
X101251179Y-145340683D01*
X101245309Y-145324306D01*
X101223556Y-145317795D01*
X101206655Y-145317212D01*
X101169500Y-145323983D01*
X101138009Y-145341039D01*
X101117452Y-145363499D01*
X101113097Y-145386477D01*
X100878466Y-145386477D01*
X100905997Y-145328181D01*
X100954665Y-145253380D01*
X101009378Y-145193348D01*
X101042521Y-145167942D01*
X101097098Y-145135480D01*
X101145513Y-145113908D01*
X101197771Y-145099821D01*
X101263875Y-145089815D01*
X101276347Y-145088371D01*
X101329009Y-145083573D01*
X101367412Y-145084299D01*
G37*
G36*
X98929398Y-144976131D02*
G01*
X99007900Y-144981079D01*
X99067300Y-144990722D01*
X99113845Y-145007608D01*
X99153784Y-145034287D01*
X99193367Y-145073309D01*
X99207703Y-145089665D01*
X99243470Y-145140437D01*
X99265834Y-145196301D01*
X99276161Y-145263019D01*
X99275816Y-145346353D01*
X99274233Y-145370325D01*
X99268678Y-145429764D01*
X99261298Y-145471600D01*
X99249972Y-145503670D01*
X99232581Y-145533811D01*
X99228301Y-145540135D01*
X99142163Y-145648480D01*
X99048765Y-145734161D01*
X98949180Y-145796340D01*
X98853741Y-145831882D01*
X98777620Y-145846953D01*
X98709492Y-145848450D01*
X98635898Y-145836481D01*
X98624251Y-145833702D01*
X98566825Y-145816900D01*
X98521676Y-145795568D01*
X98477670Y-145763703D01*
X98450468Y-145740010D01*
X98393840Y-145675493D01*
X98358440Y-145601481D01*
X98342559Y-145522485D01*
X98344083Y-145418980D01*
X98361739Y-145345722D01*
X98656842Y-145345722D01*
X98669952Y-145376848D01*
X98671320Y-145378274D01*
X98701597Y-145392467D01*
X98743406Y-145392778D01*
X98787717Y-145380307D01*
X98821133Y-145360034D01*
X98848276Y-145331881D01*
X98857549Y-145304033D01*
X98857092Y-145286887D01*
X98853303Y-145263708D01*
X98843255Y-145251434D01*
X98820161Y-145245883D01*
X98786530Y-145243403D01*
X98743896Y-145242951D01*
X98716122Y-145249692D01*
X98692989Y-145266532D01*
X98687941Y-145271448D01*
X98663238Y-145308027D01*
X98656842Y-145345722D01*
X98361739Y-145345722D01*
X98368665Y-145316983D01*
X98414087Y-145220938D01*
X98478135Y-145135287D01*
X98558593Y-145064472D01*
X98577218Y-145051996D01*
X98646308Y-145014798D01*
X98719123Y-144990507D01*
X98801878Y-144977784D01*
X98900793Y-144975290D01*
X98929398Y-144976131D01*
G37*
G36*
X97153438Y-140820316D02*
G01*
X97268081Y-140855383D01*
X97348970Y-140892884D01*
X97419804Y-140941520D01*
X97490405Y-141010321D01*
X97556459Y-141094339D01*
X97613651Y-141188628D01*
X97623113Y-141207200D01*
X97642969Y-141248283D01*
X97656259Y-141280711D01*
X97664291Y-141311430D01*
X97668373Y-141347384D01*
X97669813Y-141395521D01*
X97669932Y-141455711D01*
X97669351Y-141522540D01*
X97666851Y-141573115D01*
X97660945Y-141616119D01*
X97650144Y-141660240D01*
X97632960Y-141714161D01*
X97618436Y-141756360D01*
X97567171Y-141903737D01*
X98305611Y-142067092D01*
X99044051Y-142230446D01*
X99136312Y-142342421D01*
X99252975Y-142469304D01*
X99374464Y-142572995D01*
X99499940Y-142653025D01*
X99628562Y-142708923D01*
X99759490Y-142740219D01*
X99860044Y-142747261D01*
X99974607Y-142735962D01*
X100083880Y-142702089D01*
X100189966Y-142644726D01*
X100294962Y-142562961D01*
X100305816Y-142553100D01*
X100359067Y-142504087D01*
X100642928Y-142591929D01*
X100723189Y-142616698D01*
X100794805Y-142638669D01*
X100854384Y-142656811D01*
X100898532Y-142670095D01*
X100923856Y-142677489D01*
X100928612Y-142678667D01*
X100927077Y-142666703D01*
X100921335Y-142636199D01*
X100912583Y-142593475D01*
X100911533Y-142588514D01*
X100898633Y-142486945D01*
X100898811Y-142393728D01*
X100915412Y-142286370D01*
X100952427Y-142190926D01*
X101010584Y-142106606D01*
X101090609Y-142032619D01*
X101193231Y-141968174D01*
X101319177Y-141912481D01*
X101352949Y-141900331D01*
X101406136Y-141886268D01*
X101469400Y-141878506D01*
X101550128Y-141876127D01*
X101610412Y-141876742D01*
X101652864Y-141879565D01*
X101685083Y-141886062D01*
X101714669Y-141897701D01*
X101745377Y-141913813D01*
X101828141Y-141973721D01*
X101902164Y-142056343D01*
X101966013Y-142160023D01*
X101976106Y-142180360D01*
X102018014Y-142276176D01*
X102045257Y-142361950D01*
X102059817Y-142446880D01*
X102063675Y-142540163D01*
X102062654Y-142582154D01*
X102058441Y-142653850D01*
X102050772Y-142711295D01*
X102037543Y-142765642D01*
X102016651Y-142828047D01*
X102015863Y-142830217D01*
X101991486Y-142895870D01*
X101976029Y-142941834D01*
X101971904Y-142972881D01*
X101981523Y-142993781D01*
X102007297Y-143009307D01*
X102051641Y-143024229D01*
X102116965Y-143043319D01*
X102124780Y-143045652D01*
X102249017Y-143083581D01*
X102352107Y-143116801D01*
X102437574Y-143146809D01*
X102508945Y-143175100D01*
X102569747Y-143203170D01*
X102623504Y-143232515D01*
X102673745Y-143264631D01*
X102720484Y-143298359D01*
X102786498Y-143354490D01*
X102842804Y-143417367D01*
X102891524Y-143490709D01*
X102934776Y-143578238D01*
X102974683Y-143683673D01*
X103013362Y-143810734D01*
X103014178Y-143813665D01*
X103032959Y-143880701D01*
X103046536Y-143926298D01*
X103056417Y-143953559D01*
X103064111Y-143965587D01*
X103071128Y-143965483D01*
X103078976Y-143956350D01*
X103081660Y-143952400D01*
X103159206Y-143858201D01*
X103255279Y-143776438D01*
X103364926Y-143709757D01*
X103483192Y-143660802D01*
X103605121Y-143632218D01*
X103693651Y-143625734D01*
X103819036Y-143638060D01*
X103941483Y-143673481D01*
X104057316Y-143729658D01*
X104162864Y-143804255D01*
X104254453Y-143894933D01*
X104328412Y-143999356D01*
X104352544Y-144045092D01*
X104365980Y-144074348D01*
X104378202Y-144104260D01*
X104389911Y-144137603D01*
X104401808Y-144177155D01*
X104414596Y-144225692D01*
X104428976Y-144285991D01*
X104445650Y-144360828D01*
X104465320Y-144452979D01*
X104488687Y-144565222D01*
X104509166Y-144664772D01*
X104614073Y-145176322D01*
X104716254Y-145179981D01*
X104818435Y-145183639D01*
X104846691Y-145323573D01*
X104860960Y-145400126D01*
X104867416Y-145460024D01*
X104863717Y-145507058D01*
X104847520Y-145545020D01*
X104816482Y-145577702D01*
X104768260Y-145608895D01*
X104700513Y-145642391D01*
X104630529Y-145673461D01*
X104447300Y-145753178D01*
X104496504Y-145939093D01*
X104507628Y-145981011D01*
X104524703Y-146045192D01*
X104547109Y-146129318D01*
X104574229Y-146231071D01*
X104605444Y-146348134D01*
X104640137Y-146478189D01*
X104677690Y-146618919D01*
X104717483Y-146768007D01*
X104758900Y-146923134D01*
X104801321Y-147081984D01*
X104810744Y-147117262D01*
X104851703Y-147271213D01*
X104890453Y-147418038D01*
X104926523Y-147555889D01*
X104959445Y-147682918D01*
X104988750Y-147797276D01*
X105013969Y-147897115D01*
X105034633Y-147980589D01*
X105050273Y-148045848D01*
X105060421Y-148091044D01*
X105064608Y-148114330D01*
X105064449Y-148117153D01*
X105046475Y-148124272D01*
X105011719Y-148134568D01*
X104966617Y-148146490D01*
X104917604Y-148158487D01*
X104871114Y-148169007D01*
X104833584Y-148176499D01*
X104811449Y-148179412D01*
X104808294Y-148178901D01*
X104804245Y-148166030D01*
X104794126Y-148130277D01*
X104778399Y-148073350D01*
X104757525Y-147996957D01*
X104731966Y-147902805D01*
X104702182Y-147792604D01*
X104668636Y-147668060D01*
X104631788Y-147530881D01*
X104592100Y-147382776D01*
X104550034Y-147225453D01*
X104506050Y-147060619D01*
X104494011Y-147015443D01*
X104449642Y-146848966D01*
X104407137Y-146689586D01*
X104366950Y-146539008D01*
X104329537Y-146398934D01*
X104295354Y-146271066D01*
X104264857Y-146157107D01*
X104238501Y-146058759D01*
X104216743Y-145977726D01*
X104200037Y-145915710D01*
X104188840Y-145874414D01*
X104183608Y-145855540D01*
X104183276Y-145854508D01*
X104171300Y-145856405D01*
X104140641Y-145862958D01*
X104097323Y-145872751D01*
X104047372Y-145884366D01*
X103996811Y-145896388D01*
X103951665Y-145907399D01*
X103917958Y-145915983D01*
X103901748Y-145920709D01*
X103903475Y-145933033D01*
X103909076Y-145968297D01*
X103918193Y-146024350D01*
X103930472Y-146099045D01*
X103945558Y-146190232D01*
X103963093Y-146295762D01*
X103982723Y-146413485D01*
X104004092Y-146541252D01*
X104026844Y-146676915D01*
X104028960Y-146689511D01*
X104157974Y-147457552D01*
X104205901Y-147461735D01*
X104268764Y-147476920D01*
X104322355Y-147511123D01*
X104366867Y-147565006D01*
X104402494Y-147639233D01*
X104429431Y-147734466D01*
X104447872Y-147851368D01*
X104458011Y-147990604D01*
X104460042Y-148152835D01*
X104455372Y-148313055D01*
X104451573Y-148390456D01*
X104447461Y-148462284D01*
X104443378Y-148523338D01*
X104439669Y-148568415D01*
X104437157Y-148589741D01*
X104429643Y-148621180D01*
X104416548Y-148634617D01*
X104390819Y-148637446D01*
X104364407Y-148640011D01*
X104356956Y-148651495D01*
X104359221Y-148666068D01*
X104365281Y-148696466D01*
X104372215Y-148738038D01*
X104374371Y-148752484D01*
X104382694Y-148810276D01*
X104244892Y-148832118D01*
X104188231Y-148840957D01*
X104141029Y-148848056D01*
X104108840Y-148852595D01*
X104097549Y-148853833D01*
X104090891Y-148842600D01*
X104087491Y-148815418D01*
X104087422Y-148812362D01*
X104086669Y-148795311D01*
X104083025Y-148787248D01*
X104073516Y-148790093D01*
X104055172Y-148805765D01*
X104025020Y-148836181D01*
X103984003Y-148879149D01*
X103899934Y-148973356D01*
X103806384Y-149088859D01*
X103704625Y-149223893D01*
X103595926Y-149376693D01*
X103481557Y-149545494D01*
X103362787Y-149728531D01*
X103293403Y-149838884D01*
X103183106Y-150016265D01*
X103209313Y-151314543D01*
X103213230Y-151506658D01*
X103217251Y-151700259D01*
X103221317Y-151892716D01*
X103225370Y-152081404D01*
X103229352Y-152263693D01*
X103233204Y-152436956D01*
X103236867Y-152598565D01*
X103240283Y-152745892D01*
X103243393Y-152876309D01*
X103246138Y-152987189D01*
X103248461Y-153075903D01*
X103248959Y-153093968D01*
X103252365Y-153219278D01*
X103254871Y-153321921D01*
X103256442Y-153404654D01*
X103257040Y-153470239D01*
X103256627Y-153521434D01*
X103255168Y-153561000D01*
X103252626Y-153591695D01*
X103248963Y-153616281D01*
X103244142Y-153637515D01*
X103241561Y-153646797D01*
X103195503Y-153765042D01*
X103130602Y-153866791D01*
X103046276Y-153952641D01*
X102941941Y-154023186D01*
X102819939Y-154077967D01*
X102787266Y-154087319D01*
X102731612Y-154100248D01*
X102655128Y-154116347D01*
X102559962Y-154135209D01*
X102448262Y-154156429D01*
X102322179Y-154179599D01*
X102183860Y-154204314D01*
X102035455Y-154230166D01*
X101879112Y-154256751D01*
X101837915Y-154263652D01*
X101838395Y-154271497D01*
X101856395Y-154289290D01*
X101888036Y-154313215D01*
X101888800Y-154313742D01*
X101936918Y-154349997D01*
X101988391Y-154393415D01*
X102018962Y-154421872D01*
X102082885Y-154496216D01*
X102121579Y-154568074D01*
X102135034Y-154637351D01*
X102123239Y-154703954D01*
X102086184Y-154767789D01*
X102061139Y-154795711D01*
X101990363Y-154851180D01*
X101898354Y-154899324D01*
X101788264Y-154940073D01*
X101663245Y-154973359D01*
X101526451Y-154999114D01*
X101381033Y-155017268D01*
X101230143Y-155027753D01*
X101076936Y-155030500D01*
X100924561Y-155025441D01*
X100776173Y-155012506D01*
X100634924Y-154991626D01*
X100503965Y-154962734D01*
X100386449Y-154925761D01*
X100285529Y-154880637D01*
X100215326Y-154835956D01*
X100154418Y-154777024D01*
X100113327Y-154709910D01*
X100094499Y-154638969D01*
X100093550Y-154619392D01*
X100093520Y-154618467D01*
X100183503Y-154618467D01*
X100190946Y-154661893D01*
X100207578Y-154701741D01*
X100208061Y-154702542D01*
X100251814Y-154752184D01*
X100318044Y-154796990D01*
X100404170Y-154836535D01*
X100507612Y-154870396D01*
X100625790Y-154898145D01*
X100756122Y-154919358D01*
X100896030Y-154933610D01*
X101042931Y-154940475D01*
X101194247Y-154939529D01*
X101347396Y-154930345D01*
X101490478Y-154913858D01*
X101561650Y-154901904D01*
X101638502Y-154886258D01*
X101708032Y-154869649D01*
X101729921Y-154863626D01*
X101843080Y-154825685D01*
X101931066Y-154784652D01*
X101993981Y-154740367D01*
X102031926Y-154692667D01*
X102045001Y-154641391D01*
X102033309Y-154586377D01*
X101996948Y-154527464D01*
X101963334Y-154490178D01*
X101919745Y-154450615D01*
X101867850Y-154409634D01*
X101812796Y-154370625D01*
X101759728Y-154336979D01*
X101713792Y-154312089D01*
X101680133Y-154299344D01*
X101672328Y-154298381D01*
X101651294Y-154300523D01*
X101608613Y-154306632D01*
X101547002Y-154316233D01*
X101469178Y-154328849D01*
X101377861Y-154344006D01*
X101275768Y-154361228D01*
X101165618Y-154380038D01*
X101050127Y-154399962D01*
X100932015Y-154420523D01*
X100813999Y-154441247D01*
X100698798Y-154461657D01*
X100589129Y-154481278D01*
X100487711Y-154499634D01*
X100397261Y-154516249D01*
X100320498Y-154530649D01*
X100260139Y-154542357D01*
X100218903Y-154550897D01*
X100199508Y-154555794D01*
X100198500Y-154556287D01*
X100185829Y-154580314D01*
X100183503Y-154618467D01*
X100093520Y-154618467D01*
X100092402Y-154584737D01*
X100086678Y-154569553D01*
X100072964Y-154567894D01*
X100064928Y-154569578D01*
X100045225Y-154573457D01*
X100003968Y-154580990D01*
X99944682Y-154591554D01*
X99870892Y-154604526D01*
X99786125Y-154619283D01*
X99693905Y-154635201D01*
X99684976Y-154636735D01*
X99333647Y-154697081D01*
X99372864Y-154780778D01*
X99407627Y-154879043D01*
X99417506Y-154972185D01*
X99402534Y-155060016D01*
X99362742Y-155142351D01*
X99298163Y-155219000D01*
X99298156Y-155219007D01*
X99223067Y-155277928D01*
X99127261Y-155332245D01*
X99015333Y-155379954D01*
X98891875Y-155419053D01*
X98782704Y-155443761D01*
X98697951Y-155455841D01*
X98596220Y-155464506D01*
X98485793Y-155469377D01*
X98374953Y-155470075D01*
X98280779Y-155466767D01*
X98137959Y-155451725D01*
X98006173Y-155424872D01*
X97887640Y-155387273D01*
X97784581Y-155339993D01*
X97699214Y-155284097D01*
X97633761Y-155220651D01*
X97590441Y-155150718D01*
X97583240Y-155132086D01*
X97570728Y-155088916D01*
X97563111Y-155050204D01*
X97562031Y-155036580D01*
X97562031Y-155012257D01*
X97652639Y-155012257D01*
X97653405Y-155047889D01*
X97664296Y-155092333D01*
X97674991Y-155119424D01*
X97715958Y-155180147D01*
X97780136Y-155234976D01*
X97865786Y-155282979D01*
X97971164Y-155323224D01*
X98094530Y-155354778D01*
X98126109Y-155360862D01*
X98193428Y-155369509D01*
X98279023Y-155375186D01*
X98375902Y-155377900D01*
X98477074Y-155377661D01*
X98575547Y-155374477D01*
X98664329Y-155368354D01*
X98731304Y-155360156D01*
X98866917Y-155331875D01*
X98990403Y-155293575D01*
X99098855Y-155246617D01*
X99189366Y-155192357D01*
X99259032Y-155132155D01*
X99284024Y-155101810D01*
X99306307Y-155067588D01*
X99318345Y-155036730D01*
X99323167Y-154998597D01*
X99323870Y-154961877D01*
X99321025Y-154904315D01*
X99310096Y-154857093D01*
X99287600Y-154805531D01*
X99286102Y-154802563D01*
X99264558Y-154763407D01*
X99245382Y-154734355D01*
X99233483Y-154722249D01*
X99218176Y-154723183D01*
X99180459Y-154728160D01*
X99122968Y-154736727D01*
X99048335Y-154748430D01*
X98959194Y-154762817D01*
X98858178Y-154779435D01*
X98747921Y-154797831D01*
X98631057Y-154817552D01*
X98510218Y-154838146D01*
X98388039Y-154859158D01*
X98267152Y-154880137D01*
X98150191Y-154900630D01*
X98039791Y-154920184D01*
X97938583Y-154938345D01*
X97849203Y-154954661D01*
X97774283Y-154968680D01*
X97716456Y-154979947D01*
X97678357Y-154988011D01*
X97662670Y-154992385D01*
X97652639Y-155012257D01*
X97562031Y-155012257D01*
X97562031Y-155003317D01*
X97196296Y-155064473D01*
X97100054Y-155080683D01*
X97009502Y-155096155D01*
X96928396Y-155110230D01*
X96860491Y-155122250D01*
X96809546Y-155131555D01*
X96779316Y-155137487D01*
X96776533Y-155138106D01*
X96764430Y-155139888D01*
X96747645Y-155140304D01*
X96724580Y-155139089D01*
X96693637Y-155135982D01*
X96653221Y-155130718D01*
X96601733Y-155123033D01*
X96537577Y-155112665D01*
X96459156Y-155099350D01*
X96364872Y-155082824D01*
X96253128Y-155062825D01*
X96122327Y-155039088D01*
X95970871Y-155011350D01*
X95797165Y-154979347D01*
X95657067Y-154953452D01*
X95494564Y-154923265D01*
X95338277Y-154894002D01*
X95190154Y-154866039D01*
X95052143Y-154839756D01*
X94926192Y-154815530D01*
X94814248Y-154793741D01*
X94718261Y-154774766D01*
X94640177Y-154758985D01*
X94581946Y-154746773D01*
X94545514Y-154738512D01*
X94534385Y-154735417D01*
X94478087Y-154705054D01*
X94424976Y-154659441D01*
X94382416Y-154606066D01*
X94359120Y-154557242D01*
X94353089Y-154524031D01*
X94348018Y-154470513D01*
X94344254Y-154401817D01*
X94342146Y-154323070D01*
X94341924Y-154303265D01*
X94340715Y-154212800D01*
X94338594Y-154111090D01*
X94335848Y-154009895D01*
X94332763Y-153920973D01*
X94332384Y-153911688D01*
X94324485Y-153722174D01*
X94140028Y-153652861D01*
X93955570Y-153583548D01*
X93831538Y-153625485D01*
X93780025Y-153643827D01*
X93738966Y-153660205D01*
X93713432Y-153672490D01*
X93707507Y-153677592D01*
X93696823Y-153685036D01*
X93671841Y-153687615D01*
X93643161Y-153685684D01*
X93621387Y-153679599D01*
X93616167Y-153674530D01*
X93602781Y-153663861D01*
X93571870Y-153648513D01*
X93530071Y-153631774D01*
X93529239Y-153631473D01*
X93446722Y-153601649D01*
X93438605Y-153482511D01*
X93436682Y-153441895D01*
X93434843Y-153379643D01*
X93433147Y-153299562D01*
X93431656Y-153205459D01*
X93430432Y-153101139D01*
X93429537Y-152990410D01*
X93429064Y-152889508D01*
X93428029Y-152544826D01*
X93699253Y-152544826D01*
X93704891Y-153055869D01*
X93706177Y-153167228D01*
X93707478Y-153270362D01*
X93708751Y-153362564D01*
X93709955Y-153441126D01*
X93711047Y-153503343D01*
X93711984Y-153546507D01*
X93712724Y-153567910D01*
X93712935Y-153569768D01*
X93725214Y-153567302D01*
X93756375Y-153558365D01*
X93801157Y-153544515D01*
X93835455Y-153533493D01*
X93955570Y-153494363D01*
X94578909Y-153723938D01*
X94699228Y-153768109D01*
X94812758Y-153809512D01*
X94917183Y-153847323D01*
X95010186Y-153880715D01*
X95089450Y-153908862D01*
X95152659Y-153930938D01*
X95197495Y-153946118D01*
X95221642Y-153953575D01*
X95224851Y-153954211D01*
X95243589Y-153949689D01*
X95281382Y-153936720D01*
X95333918Y-153916919D01*
X95396883Y-153891900D01*
X95451750Y-153869263D01*
X95656045Y-153783617D01*
X95646978Y-153096450D01*
X95645238Y-152966810D01*
X95643549Y-152845073D01*
X95641945Y-152733567D01*
X95640464Y-152634617D01*
X95639141Y-152550551D01*
X95638013Y-152483695D01*
X95637115Y-152436377D01*
X95636484Y-152410924D01*
X95636268Y-152407090D01*
X95625262Y-152412487D01*
X95595255Y-152428820D01*
X95549322Y-152454371D01*
X95490535Y-152487424D01*
X95421969Y-152526263D01*
X95375186Y-152552900D01*
X95115748Y-152700902D01*
X94522938Y-152602569D01*
X94402153Y-152582661D01*
X94288136Y-152564112D01*
X94183530Y-152547336D01*
X94090977Y-152532744D01*
X94013119Y-152520750D01*
X93952600Y-152511765D01*
X93912060Y-152506203D01*
X93894579Y-152504464D01*
X93863302Y-152507687D01*
X93818369Y-152515817D01*
X93779141Y-152524759D01*
X93699253Y-152544826D01*
X93428029Y-152544826D01*
X93427797Y-152467726D01*
X94260879Y-152467726D01*
X94268106Y-152470242D01*
X94296978Y-152476241D01*
X94344027Y-152485135D01*
X94405783Y-152496331D01*
X94478777Y-152509240D01*
X94559542Y-152523272D01*
X94644607Y-152537836D01*
X94730504Y-152552342D01*
X94813764Y-152566200D01*
X94890919Y-152578818D01*
X94958499Y-152589607D01*
X95013036Y-152597976D01*
X95051060Y-152603336D01*
X95067985Y-152605090D01*
X95091169Y-152602224D01*
X95123114Y-152591420D01*
X95166950Y-152571232D01*
X95225806Y-152540214D01*
X95302813Y-152496919D01*
X95305898Y-152495150D01*
X95499978Y-152383840D01*
X95441622Y-152379892D01*
X95416373Y-152379153D01*
X95393186Y-152381959D01*
X95368190Y-152390255D01*
X95337514Y-152405983D01*
X95297289Y-152431086D01*
X95243643Y-152467506D01*
X95184109Y-152509159D01*
X95096404Y-152570873D01*
X94685002Y-152518528D01*
X94585281Y-152505933D01*
X94493502Y-152494522D01*
X94412746Y-152484662D01*
X94346095Y-152476724D01*
X94296628Y-152471075D01*
X94267429Y-152468086D01*
X94260879Y-152467726D01*
X93427797Y-152467726D01*
X93427784Y-152463486D01*
X94196430Y-152463486D01*
X94208934Y-152465523D01*
X94225434Y-152463184D01*
X94225631Y-152458842D01*
X94208605Y-152455805D01*
X94201248Y-152457838D01*
X94196430Y-152463486D01*
X93427784Y-152463486D01*
X93427640Y-152415643D01*
X93462193Y-152415643D01*
X93485853Y-152413428D01*
X93529614Y-152407294D01*
X93588568Y-152398007D01*
X93657808Y-152386330D01*
X93714366Y-152376316D01*
X93931987Y-152336990D01*
X94118695Y-152361500D01*
X94305403Y-152386009D01*
X94305847Y-152327679D01*
X94305707Y-152306255D01*
X94305167Y-152261583D01*
X94304253Y-152195279D01*
X94302991Y-152108962D01*
X94301409Y-152004245D01*
X94299533Y-151882748D01*
X94297391Y-151746085D01*
X94295233Y-151609977D01*
X97627877Y-151609977D01*
X97628199Y-151672844D01*
X97629054Y-151747677D01*
X97630454Y-151836000D01*
X97632411Y-151939342D01*
X97634937Y-152059230D01*
X97638045Y-152197190D01*
X97641747Y-152354750D01*
X97646054Y-152533435D01*
X97650980Y-152734775D01*
X97655496Y-152918130D01*
X97661828Y-153174291D01*
X97667596Y-153406196D01*
X97672837Y-153615028D01*
X97677588Y-153801965D01*
X97681888Y-153968188D01*
X97685773Y-154114879D01*
X97689281Y-154243216D01*
X97692450Y-154354381D01*
X97695317Y-154449555D01*
X97697920Y-154529917D01*
X97700296Y-154596647D01*
X97702483Y-154650927D01*
X97704519Y-154693937D01*
X97706440Y-154726857D01*
X97708284Y-154750867D01*
X97710090Y-154767148D01*
X97711894Y-154776881D01*
X97713734Y-154781246D01*
X97714747Y-154781786D01*
X97728016Y-154779654D01*
X97765074Y-154773405D01*
X97824639Y-154763260D01*
X97905431Y-154749439D01*
X98006168Y-154732162D01*
X98125570Y-154711651D01*
X98262354Y-154688125D01*
X98415240Y-154661807D01*
X98582947Y-154632915D01*
X98764193Y-154601671D01*
X98957698Y-154568295D01*
X99162180Y-154533007D01*
X99376358Y-154496029D01*
X99598951Y-154457581D01*
X99828678Y-154417883D01*
X99897614Y-154405968D01*
X100131843Y-154365482D01*
X100360871Y-154325904D01*
X100583297Y-154287475D01*
X100797719Y-154250437D01*
X101002735Y-154215031D01*
X101196945Y-154181499D01*
X101378946Y-154150084D01*
X101547337Y-154121028D01*
X101700717Y-154094571D01*
X101837683Y-154070956D01*
X101956835Y-154050425D01*
X102056770Y-154033219D01*
X102136088Y-154019581D01*
X102193386Y-154009751D01*
X102227264Y-154003973D01*
X102230712Y-154003391D01*
X102291666Y-153992646D01*
X102343348Y-153982616D01*
X102380654Y-153974359D01*
X102398481Y-153968929D01*
X102399022Y-153968560D01*
X102399860Y-153955218D01*
X102400182Y-153918465D01*
X102400024Y-153860325D01*
X102399423Y-153782826D01*
X102398414Y-153687991D01*
X102397033Y-153577847D01*
X102395316Y-153454418D01*
X102393299Y-153319731D01*
X102391018Y-153175809D01*
X102388508Y-153024680D01*
X102385806Y-152868367D01*
X102382948Y-152708897D01*
X102379969Y-152548295D01*
X102376905Y-152388586D01*
X102373793Y-152231795D01*
X102370668Y-152079948D01*
X102367567Y-151935070D01*
X102364524Y-151799187D01*
X102361576Y-151674324D01*
X102358760Y-151562505D01*
X102356110Y-151465758D01*
X102353663Y-151386106D01*
X102352759Y-151359783D01*
X102339504Y-151175493D01*
X102312869Y-151008689D01*
X102271728Y-150854556D01*
X102214951Y-150708283D01*
X102185850Y-150647396D01*
X102087854Y-150481086D01*
X101967782Y-150325837D01*
X101826819Y-150182398D01*
X101666149Y-150051519D01*
X101486957Y-149933953D01*
X101290427Y-149830447D01*
X101077743Y-149741755D01*
X100850091Y-149668625D01*
X100608654Y-149611808D01*
X100528217Y-149597116D01*
X100387010Y-149575470D01*
X100262791Y-149562032D01*
X100148597Y-149556424D01*
X100037465Y-149558271D01*
X99940896Y-149565355D01*
X99662224Y-149603987D01*
X99392965Y-149665326D01*
X99134201Y-149748967D01*
X98887012Y-149854508D01*
X98652482Y-149981548D01*
X98439794Y-150123690D01*
X98375998Y-150174774D01*
X98302540Y-150240247D01*
X98224032Y-150315380D01*
X98145084Y-150395444D01*
X98070309Y-150475709D01*
X98004318Y-150551445D01*
X97951723Y-150617923D01*
X97935351Y-150641035D01*
X97823508Y-150826077D01*
X97736571Y-151014287D01*
X97674090Y-151206768D01*
X97643018Y-151354517D01*
X97639517Y-151376640D01*
X97636450Y-151398513D01*
X97633832Y-151421660D01*
X97631673Y-151447610D01*
X97629985Y-151477890D01*
X97628782Y-151514026D01*
X97628075Y-151557546D01*
X97627877Y-151609977D01*
X94295233Y-151609977D01*
X94295009Y-151595873D01*
X94292414Y-151433729D01*
X94289633Y-151261269D01*
X94286693Y-151080110D01*
X94283621Y-150891868D01*
X94280443Y-150698160D01*
X94280170Y-150681569D01*
X95107257Y-150681569D01*
X95109440Y-150710438D01*
X95114106Y-150733319D01*
X95121102Y-150752339D01*
X95130274Y-150769627D01*
X95139591Y-150784436D01*
X95174415Y-150827329D01*
X95216323Y-150854113D01*
X95240412Y-150863253D01*
X95266382Y-150867102D01*
X95313446Y-150869458D01*
X95377304Y-150870408D01*
X95453655Y-150870041D01*
X95538200Y-150868445D01*
X95626638Y-150865708D01*
X95714671Y-150861917D01*
X95797998Y-150857160D01*
X95872320Y-150851527D01*
X95889193Y-150849972D01*
X96077492Y-150826018D01*
X96250242Y-150790924D01*
X96411809Y-150742857D01*
X96566562Y-150679981D01*
X96718866Y-150600463D01*
X96873089Y-150502468D01*
X97033598Y-150384162D01*
X97073773Y-150352356D01*
X97111454Y-150321693D01*
X97165721Y-150276878D01*
X97233788Y-150220253D01*
X97312868Y-150154159D01*
X97400177Y-150080939D01*
X97492927Y-150002935D01*
X97588332Y-149922487D01*
X97683608Y-149841939D01*
X97775968Y-149763631D01*
X97862625Y-149689906D01*
X97911220Y-149648419D01*
X97971585Y-149592298D01*
X98014145Y-149539674D01*
X98042117Y-149483735D01*
X98058720Y-149417665D01*
X98067170Y-149334653D01*
X98068134Y-149316080D01*
X98070071Y-149247903D01*
X98067964Y-149195605D01*
X98060924Y-149149822D01*
X98048063Y-149101186D01*
X98047597Y-149099646D01*
X98012653Y-149009047D01*
X97968270Y-148932886D01*
X97916884Y-148874127D01*
X97860933Y-148835735D01*
X97819636Y-148822441D01*
X97799145Y-148820858D01*
X97774137Y-148823359D01*
X97741006Y-148830972D01*
X97696145Y-148844719D01*
X97635946Y-148865629D01*
X97556802Y-148894725D01*
X97529787Y-148904842D01*
X97345967Y-148972521D01*
X97181313Y-149030071D01*
X97032141Y-149078549D01*
X96894767Y-149119014D01*
X96765506Y-149152522D01*
X96640673Y-149180134D01*
X96516586Y-149202906D01*
X96461647Y-149211609D01*
X96315939Y-149228523D01*
X96157389Y-149237961D01*
X95994815Y-149239861D01*
X95837036Y-149234164D01*
X95692871Y-149220807D01*
X95665818Y-149217120D01*
X95598027Y-149207642D01*
X95549237Y-149202153D01*
X95513333Y-149200574D01*
X95484201Y-149202826D01*
X95455726Y-149208833D01*
X95436483Y-149214186D01*
X95409437Y-149221774D01*
X95386379Y-149228860D01*
X95366686Y-149237432D01*
X95349739Y-149249479D01*
X95334916Y-149266990D01*
X95321598Y-149291954D01*
X95309162Y-149326358D01*
X95296989Y-149372193D01*
X95284457Y-149431446D01*
X95270947Y-149506107D01*
X95255837Y-149598163D01*
X95238506Y-149709604D01*
X95218334Y-149842418D01*
X95197587Y-149979561D01*
X95174384Y-150132976D01*
X95154891Y-150263373D01*
X95138955Y-150372880D01*
X95126423Y-150463625D01*
X95117140Y-150537738D01*
X95110953Y-150597347D01*
X95107710Y-150644581D01*
X95107257Y-150681569D01*
X94280170Y-150681569D01*
X94277187Y-150500601D01*
X94273880Y-150300810D01*
X94270548Y-150100401D01*
X94267218Y-149900992D01*
X94263917Y-149704199D01*
X94260672Y-149511638D01*
X94257510Y-149324927D01*
X94254457Y-149145681D01*
X94254125Y-149126325D01*
X95388103Y-149126325D01*
X95388613Y-149126999D01*
X95402706Y-149127355D01*
X95433270Y-149122927D01*
X95454059Y-149118836D01*
X95490271Y-149113707D01*
X95533082Y-149113405D01*
X95588533Y-149118209D01*
X95662665Y-149128402D01*
X95663797Y-149128574D01*
X95774502Y-149141243D01*
X95902116Y-149148962D01*
X96038593Y-149151734D01*
X96175889Y-149149563D01*
X96305957Y-149142454D01*
X96420752Y-149130411D01*
X96436205Y-149128171D01*
X96561831Y-149107073D01*
X96686390Y-149081584D01*
X96813697Y-149050617D01*
X96947568Y-149013085D01*
X97091818Y-148967899D01*
X97250262Y-148913973D01*
X97426717Y-148850219D01*
X97477242Y-148831441D01*
X97767728Y-148722928D01*
X97838877Y-148738851D01*
X97910910Y-148767415D01*
X97977933Y-148817689D01*
X98037740Y-148886097D01*
X98088126Y-148969061D01*
X98126886Y-149063005D01*
X98151814Y-149164351D01*
X98160633Y-149260785D01*
X98162722Y-149298224D01*
X98166811Y-149313246D01*
X98171941Y-149308701D01*
X98177151Y-149287443D01*
X98181479Y-149252321D01*
X98183966Y-149206189D01*
X98184207Y-149190818D01*
X98174380Y-149090644D01*
X98143033Y-148985104D01*
X98089443Y-148871963D01*
X98069547Y-148837258D01*
X98030822Y-148775249D01*
X97998327Y-148732095D01*
X97967718Y-148703508D01*
X97934651Y-148685202D01*
X97905809Y-148675692D01*
X97890465Y-148671270D01*
X97877664Y-148667997D01*
X97864591Y-148666679D01*
X97848434Y-148668122D01*
X97826379Y-148673133D01*
X97795612Y-148682519D01*
X97753320Y-148697086D01*
X97696689Y-148717641D01*
X97622906Y-148744990D01*
X97529157Y-148779941D01*
X97485704Y-148796131D01*
X97225707Y-148887514D01*
X96981814Y-148961714D01*
X96751695Y-149019084D01*
X96533018Y-149059977D01*
X96323454Y-149084743D01*
X96120670Y-149093736D01*
X95922338Y-149087308D01*
X95726125Y-149065812D01*
X95713791Y-149063962D01*
X95641959Y-149054647D01*
X95587600Y-149051807D01*
X95543647Y-149055214D01*
X95528675Y-149057997D01*
X95492076Y-149068560D01*
X95453323Y-149083824D01*
X95418814Y-149100640D01*
X95394943Y-149115857D01*
X95388103Y-149126325D01*
X94254125Y-149126325D01*
X94251541Y-148975516D01*
X94248789Y-148816050D01*
X94246227Y-148668900D01*
X94243883Y-148535680D01*
X94241782Y-148418008D01*
X94239953Y-148317501D01*
X94238421Y-148235774D01*
X94237628Y-148195429D01*
X99747973Y-148195429D01*
X99761463Y-148236420D01*
X99788508Y-148281531D01*
X99825533Y-148325431D01*
X99868964Y-148362788D01*
X99896289Y-148379675D01*
X99960615Y-148407887D01*
X100016927Y-148418665D01*
X100074431Y-148413300D01*
X100096731Y-148407795D01*
X100127538Y-148397142D01*
X100141074Y-148382100D01*
X100144381Y-148353232D01*
X100144435Y-148343852D01*
X100134212Y-148274224D01*
X100102287Y-148207619D01*
X100061731Y-148155697D01*
X100006216Y-148108978D01*
X99946806Y-148087157D01*
X99887457Y-148089614D01*
X99836295Y-148105957D01*
X99790789Y-148128817D01*
X99758973Y-148153800D01*
X99751614Y-148163891D01*
X99747973Y-148195429D01*
X94237628Y-148195429D01*
X94237215Y-148174445D01*
X94236360Y-148135129D01*
X94235883Y-148119443D01*
X94235853Y-148119226D01*
X94223958Y-148122786D01*
X94192157Y-148134492D01*
X94144124Y-148152932D01*
X94083531Y-148176696D01*
X94014053Y-148204371D01*
X94010217Y-148205911D01*
X93786778Y-148295606D01*
X93483178Y-148173324D01*
X93399990Y-148140374D01*
X93323767Y-148111235D01*
X93257916Y-148087127D01*
X93205843Y-148069266D01*
X93170955Y-148058872D01*
X93157315Y-148056826D01*
X93138624Y-148054402D01*
X93135053Y-148045963D01*
X93124309Y-148030755D01*
X93098012Y-148015465D01*
X93093709Y-148013756D01*
X93065406Y-148003103D01*
X93330987Y-148003103D01*
X93331336Y-148009839D01*
X93355470Y-148025041D01*
X93403503Y-148048535D01*
X93475549Y-148080153D01*
X93537227Y-148105761D01*
X93610064Y-148135379D01*
X93674668Y-148161460D01*
X93727425Y-148182562D01*
X93764716Y-148197240D01*
X93782926Y-148204049D01*
X93784042Y-148204351D01*
X93796791Y-148199836D01*
X93830800Y-148186673D01*
X93883756Y-148165784D01*
X93953345Y-148138093D01*
X94037255Y-148104523D01*
X94133171Y-148065997D01*
X94238782Y-148023438D01*
X94351773Y-147977771D01*
X94356288Y-147975943D01*
X94469919Y-147930084D01*
X94520709Y-147909711D01*
X99726382Y-147909711D01*
X99726489Y-147964250D01*
X99727616Y-148011435D01*
X99729790Y-148045773D01*
X99733036Y-148061773D01*
X99734176Y-148062201D01*
X99826472Y-148022629D01*
X99908226Y-148005219D01*
X99981652Y-148010119D01*
X100048967Y-148037479D01*
X100112385Y-148087448D01*
X100112585Y-148087646D01*
X100144619Y-148125584D01*
X100175658Y-148172799D01*
X100201373Y-148221444D01*
X100217430Y-148263674D01*
X100220638Y-148283392D01*
X100225340Y-148314738D01*
X100236288Y-148338317D01*
X100246166Y-148344858D01*
X100260600Y-148337804D01*
X100289362Y-148319211D01*
X100326524Y-148292937D01*
X100330673Y-148289889D01*
X100409644Y-148219762D01*
X100443199Y-148173122D01*
X103143148Y-148173122D01*
X103151168Y-148510234D01*
X103153322Y-148604912D01*
X103155763Y-148719212D01*
X103158376Y-148847316D01*
X103161047Y-148983409D01*
X103163660Y-149121673D01*
X103166100Y-149256290D01*
X103167660Y-149346152D01*
X103169767Y-149455693D01*
X103172185Y-149556609D01*
X103174813Y-149646224D01*
X103177551Y-149721864D01*
X103180299Y-149780852D01*
X103182958Y-149820515D01*
X103185427Y-149838177D01*
X103186083Y-149838808D01*
X103197126Y-149825551D01*
X103216909Y-149796383D01*
X103241345Y-149757361D01*
X103243712Y-149753441D01*
X103321413Y-149628389D01*
X103407432Y-149497054D01*
X103498873Y-149363415D01*
X103592836Y-149231449D01*
X103686425Y-149105134D01*
X103776741Y-148988448D01*
X103860888Y-148885369D01*
X103935966Y-148799873D01*
X103946955Y-148788080D01*
X103989799Y-148741668D01*
X104025461Y-148701368D01*
X104050680Y-148670990D01*
X104062194Y-148654347D01*
X104062565Y-148652970D01*
X104051060Y-148645086D01*
X104021260Y-148637235D01*
X103989418Y-148632364D01*
X103914112Y-148615533D01*
X103850449Y-148585130D01*
X103803928Y-148544075D01*
X103792850Y-148527964D01*
X103783096Y-148502661D01*
X103770274Y-148456632D01*
X103755433Y-148394260D01*
X103739616Y-148319927D01*
X103724610Y-148242060D01*
X103710630Y-148166384D01*
X103698130Y-148099840D01*
X103687849Y-148046261D01*
X103680523Y-148009480D01*
X103676888Y-147993330D01*
X103676708Y-147992924D01*
X103664582Y-147996299D01*
X103633633Y-148007514D01*
X103588593Y-148024797D01*
X103536184Y-148045575D01*
X103463986Y-148073089D01*
X103383473Y-148101408D01*
X103307027Y-148126267D01*
X103270770Y-148137040D01*
X103143148Y-148173122D01*
X100443199Y-148173122D01*
X100465308Y-148142391D01*
X100494916Y-148071315D01*
X100504867Y-148036168D01*
X100506521Y-148020105D01*
X100499463Y-148018018D01*
X100490863Y-148021357D01*
X100427354Y-148037044D01*
X100364044Y-148030054D01*
X100318453Y-148008517D01*
X100269850Y-147975490D01*
X100231989Y-148002450D01*
X100175858Y-148029529D01*
X100117759Y-148034973D01*
X100064146Y-148018298D01*
X100059258Y-148015382D01*
X100027098Y-147992648D01*
X100003789Y-147967941D01*
X99987707Y-147936634D01*
X99977227Y-147894095D01*
X99970725Y-147835694D01*
X99966575Y-147756803D01*
X99966338Y-147750599D01*
X99965561Y-147729893D01*
X100055387Y-147729893D01*
X100055730Y-147799693D01*
X100057166Y-147848709D01*
X100060300Y-147881592D01*
X100065740Y-147902996D01*
X100074091Y-147917574D01*
X100080829Y-147925058D01*
X100115907Y-147946950D01*
X100155326Y-147945250D01*
X100193317Y-147924246D01*
X100335253Y-147924246D01*
X100370236Y-147943225D01*
X100400797Y-147958085D01*
X100421812Y-147959458D01*
X100443285Y-147945469D01*
X100463787Y-147925693D01*
X100501316Y-147888165D01*
X100497792Y-147699892D01*
X100494268Y-147511619D01*
X100414761Y-147507832D01*
X100335253Y-147504045D01*
X100335253Y-147714145D01*
X100335253Y-147924246D01*
X100193317Y-147924246D01*
X100201296Y-147919835D01*
X100203660Y-147918050D01*
X100246205Y-147885600D01*
X100246205Y-147714145D01*
X100246205Y-147700374D01*
X100246205Y-147515148D01*
X100198500Y-147523742D01*
X100151672Y-147533693D01*
X100104434Y-147545863D01*
X100103091Y-147546253D01*
X100055387Y-147560171D01*
X100055387Y-147729893D01*
X99965561Y-147729893D01*
X99959978Y-147581205D01*
X99851847Y-147635461D01*
X99799835Y-147662554D01*
X99766560Y-147683135D01*
X99747435Y-147700853D01*
X99737874Y-147719358D01*
X99735681Y-147727880D01*
X99731948Y-147756904D01*
X99729137Y-147800546D01*
X99727273Y-147853313D01*
X99726382Y-147909711D01*
X94520709Y-147909711D01*
X94576614Y-147887288D01*
X94674006Y-147848487D01*
X94759728Y-147814610D01*
X94831414Y-147786589D01*
X94886697Y-147765355D01*
X94923210Y-147751836D01*
X94938587Y-147746964D01*
X94938680Y-147746961D01*
X94956265Y-147752148D01*
X94991511Y-147766241D01*
X95039182Y-147787047D01*
X95090238Y-147810567D01*
X95144694Y-147835642D01*
X95191506Y-147856059D01*
X95225478Y-147869626D01*
X95241025Y-147874173D01*
X95263108Y-147869044D01*
X95295699Y-147856127D01*
X95331354Y-147839129D01*
X95362629Y-147821758D01*
X95382083Y-147807721D01*
X95384992Y-147802466D01*
X95372960Y-147794006D01*
X95341342Y-147777103D01*
X95293825Y-147753585D01*
X95234103Y-147725278D01*
X95166490Y-147694293D01*
X94951036Y-147597099D01*
X94885824Y-147626251D01*
X94860592Y-147637752D01*
X94815048Y-147658744D01*
X94751934Y-147687955D01*
X94673992Y-147724112D01*
X94583963Y-147765943D01*
X94484589Y-147812175D01*
X94378612Y-147861536D01*
X94313263Y-147892000D01*
X94206827Y-147941439D01*
X94107115Y-147987375D01*
X94016567Y-148028712D01*
X93937622Y-148064354D01*
X93872720Y-148093204D01*
X93824301Y-148114166D01*
X93794805Y-148126144D01*
X93786795Y-148128598D01*
X93768735Y-148124886D01*
X93730948Y-148114616D01*
X93677908Y-148099088D01*
X93614088Y-148079601D01*
X93565134Y-148064216D01*
X93471495Y-148035387D01*
X93401181Y-148015706D01*
X93354306Y-148005001D01*
X93330987Y-148003103D01*
X93065406Y-148003103D01*
X93052365Y-147998194D01*
X93095707Y-147984655D01*
X93139050Y-147971116D01*
X93131502Y-147279998D01*
X93125907Y-146767765D01*
X93378467Y-146767765D01*
X93378513Y-146858273D01*
X93378714Y-146962442D01*
X93379069Y-147077916D01*
X93379578Y-147202340D01*
X93379822Y-147253632D01*
X93383116Y-147917932D01*
X93567573Y-147977820D01*
X93633471Y-147998808D01*
X93692056Y-148016709D01*
X93738492Y-148030103D01*
X93767944Y-148037568D01*
X93774625Y-148038629D01*
X93790317Y-148033575D01*
X93826737Y-148018725D01*
X93881589Y-147995104D01*
X93952576Y-147963739D01*
X94037399Y-147925654D01*
X94133762Y-147881874D01*
X94239367Y-147833426D01*
X94351917Y-147781335D01*
X94371981Y-147772002D01*
X94946742Y-147504455D01*
X95131740Y-147586854D01*
X95202036Y-147618147D01*
X95270684Y-147648678D01*
X95331376Y-147675643D01*
X95377805Y-147696239D01*
X95391612Y-147702350D01*
X95466486Y-147735447D01*
X95463374Y-147579058D01*
X99652844Y-147579058D01*
X99660652Y-147608733D01*
X99677173Y-147619898D01*
X99694639Y-147614560D01*
X99729062Y-147600062D01*
X99774774Y-147578885D01*
X99807323Y-147562977D01*
X99813748Y-147560171D01*
X99935312Y-147507081D01*
X100063831Y-147468023D01*
X100200573Y-147443917D01*
X100335253Y-147433517D01*
X100407812Y-147431091D01*
X100461120Y-147430839D01*
X100501315Y-147433252D01*
X100534532Y-147438821D01*
X100566909Y-147448036D01*
X100582128Y-147453251D01*
X100623051Y-147467171D01*
X100654295Y-147476788D01*
X100667669Y-147479816D01*
X100685102Y-147468239D01*
X100700180Y-147438078D01*
X100710774Y-147396194D01*
X100714757Y-147349445D01*
X100713992Y-147330567D01*
X100704433Y-147278802D01*
X100683089Y-147237734D01*
X100646482Y-147204052D01*
X100591129Y-147174448D01*
X100522658Y-147148639D01*
X100413518Y-147111964D01*
X100339402Y-147148380D01*
X100260125Y-147180513D01*
X100176614Y-147202831D01*
X100100034Y-147212462D01*
X100089744Y-147212634D01*
X100054335Y-147205594D01*
X100027571Y-147180406D01*
X100024164Y-147175489D01*
X100006149Y-147151355D01*
X99990672Y-147145639D01*
X99966556Y-147155330D01*
X99960629Y-147158378D01*
X99854330Y-147224040D01*
X99770525Y-147300007D01*
X99707817Y-147387834D01*
X99665648Y-147486396D01*
X99654350Y-147536428D01*
X99652844Y-147579058D01*
X95463374Y-147579058D01*
X95456792Y-147248258D01*
X95454236Y-147122388D01*
X95452755Y-147051861D01*
X100068837Y-147051861D01*
X100070355Y-147090057D01*
X100080276Y-147117664D01*
X100082330Y-147120035D01*
X100107561Y-147128540D01*
X100151920Y-147125070D01*
X100212332Y-147110071D01*
X100258130Y-147094579D01*
X100313461Y-147069105D01*
X100355298Y-147039674D01*
X100379647Y-147009708D01*
X100383721Y-146986892D01*
X100366929Y-146961966D01*
X100331145Y-146943323D01*
X100282583Y-146933785D01*
X100265286Y-146933116D01*
X100224144Y-146938563D01*
X100177010Y-146952766D01*
X100131579Y-146972387D01*
X100095546Y-146994088D01*
X100076607Y-147014530D01*
X100076397Y-147015054D01*
X100068837Y-147051861D01*
X95452755Y-147051861D01*
X95451454Y-146989876D01*
X95448570Y-146856388D01*
X95445711Y-146727589D01*
X95443000Y-146609145D01*
X95440564Y-146506720D01*
X95439163Y-146450479D01*
X95431230Y-146139889D01*
X95217109Y-146079949D01*
X95002989Y-146020007D01*
X94408200Y-146373804D01*
X93813412Y-146727602D01*
X93598264Y-146658604D01*
X93528822Y-146636384D01*
X93468333Y-146617122D01*
X93420725Y-146602061D01*
X93389922Y-146592444D01*
X93379822Y-146589470D01*
X93379252Y-146601771D01*
X93378836Y-146637158D01*
X93378574Y-146693275D01*
X93378467Y-146767765D01*
X93125907Y-146767765D01*
X93123954Y-146588880D01*
X93198732Y-146551132D01*
X93238859Y-146529120D01*
X93269755Y-146508945D01*
X93283789Y-146496076D01*
X93301661Y-146481180D01*
X93328858Y-146471579D01*
X93356102Y-146468807D01*
X93374112Y-146474395D01*
X93376756Y-146480725D01*
X93388896Y-146492355D01*
X93425407Y-146509554D01*
X93486424Y-146532377D01*
X93572083Y-146560880D01*
X93579024Y-146563095D01*
X93647465Y-146584583D01*
X93708039Y-146603029D01*
X93756340Y-146617137D01*
X93787962Y-146625611D01*
X93797854Y-146627496D01*
X93813672Y-146621240D01*
X93847416Y-146603874D01*
X93895269Y-146577495D01*
X93953414Y-146544203D01*
X94011040Y-146510271D01*
X94207667Y-146393047D01*
X94199290Y-145916653D01*
X94197302Y-145797903D01*
X94195471Y-145677616D01*
X94193856Y-145560482D01*
X94192515Y-145451190D01*
X94191506Y-145354430D01*
X94190889Y-145274892D01*
X94190867Y-145268997D01*
X96673095Y-145268997D01*
X96675659Y-145462767D01*
X96696707Y-145641603D01*
X96718566Y-145763685D01*
X96741493Y-145866197D01*
X96767672Y-145954989D01*
X96799285Y-146035909D01*
X96838513Y-146114807D01*
X96887541Y-146197530D01*
X96926371Y-146257132D01*
X97041941Y-146411045D01*
X97168320Y-146543917D01*
X97304432Y-146654928D01*
X97449200Y-146743260D01*
X97601548Y-146808097D01*
X97682882Y-146832122D01*
X97757364Y-146845406D01*
X97848408Y-146853168D01*
X97947723Y-146855322D01*
X98047015Y-146851784D01*
X98137992Y-146842467D01*
X98169980Y-146837145D01*
X98267185Y-146815637D01*
X98350428Y-146789277D01*
X98430553Y-146753960D01*
X98518401Y-146705583D01*
X98519805Y-146704753D01*
X98713714Y-146579012D01*
X98883892Y-146444719D01*
X99030891Y-146300926D01*
X99155259Y-146146686D01*
X99257546Y-145981049D01*
X99338302Y-145803068D01*
X99388802Y-145641471D01*
X100610218Y-145641471D01*
X100615445Y-145756113D01*
X100620912Y-145828467D01*
X100626396Y-145881935D01*
X100633340Y-145923036D01*
X100643187Y-145958285D01*
X100657378Y-145994200D01*
X100677358Y-146037299D01*
X100677969Y-146038577D01*
X100737517Y-146151406D01*
X100800951Y-146246531D01*
X100873732Y-146331638D01*
X100915728Y-146373209D01*
X101026551Y-146461002D01*
X101152966Y-146531622D01*
X101289682Y-146582429D01*
X101375382Y-146602475D01*
X101427106Y-146608086D01*
X101497051Y-146610410D01*
X101578245Y-146609724D01*
X101663718Y-146606302D01*
X101746498Y-146600420D01*
X101819615Y-146592355D01*
X101874519Y-146582749D01*
X102006139Y-146540393D01*
X102133378Y-146476720D01*
X102251920Y-146395032D01*
X102357451Y-146298630D01*
X102445657Y-146190815D01*
X102496735Y-146106596D01*
X102539840Y-146008704D01*
X102555901Y-145959633D01*
X103098628Y-145959633D01*
X103103452Y-146055042D01*
X103104542Y-146085070D01*
X103105983Y-146137958D01*
X103107721Y-146211125D01*
X103109704Y-146301992D01*
X103111879Y-146407978D01*
X103114191Y-146526505D01*
X103116589Y-146654992D01*
X103119019Y-146790859D01*
X103121128Y-146913723D01*
X103124738Y-147122274D01*
X103128149Y-147306574D01*
X103131401Y-147467813D01*
X103134536Y-147607181D01*
X103137593Y-147725869D01*
X103140614Y-147825067D01*
X103143638Y-147905965D01*
X103146707Y-147969754D01*
X103149860Y-148017623D01*
X103153139Y-148050762D01*
X103156583Y-148070363D01*
X103160233Y-148077615D01*
X103160737Y-148077713D01*
X103176293Y-148073896D01*
X103211253Y-148063420D01*
X103260913Y-148047752D01*
X103320566Y-148028355D01*
X103340565Y-148021743D01*
X103409805Y-147998031D01*
X103477517Y-147973560D01*
X103536414Y-147951044D01*
X103579207Y-147933198D01*
X103582840Y-147931533D01*
X103656487Y-147897293D01*
X103648752Y-147828925D01*
X103737879Y-147828925D01*
X103738306Y-147839713D01*
X103742404Y-147859804D01*
X103750296Y-147901084D01*
X103761263Y-147959701D01*
X103774590Y-148031806D01*
X103789559Y-148113549D01*
X103799754Y-148169613D01*
X103818516Y-148271519D01*
X103834229Y-148351291D01*
X103848037Y-148411890D01*
X103861081Y-148456279D01*
X103874505Y-148487418D01*
X103889452Y-148508267D01*
X103907065Y-148521789D01*
X103928486Y-148530944D01*
X103940679Y-148534721D01*
X103967333Y-148538894D01*
X104013641Y-148542548D01*
X104073816Y-148545360D01*
X104142070Y-148547010D01*
X104166191Y-148547250D01*
X104352505Y-148548397D01*
X104362103Y-148443447D01*
X104367351Y-148365671D01*
X104370441Y-148275117D01*
X104371471Y-148177353D01*
X104370541Y-148077946D01*
X104367749Y-147982466D01*
X104363193Y-147896480D01*
X104356971Y-147825556D01*
X104350392Y-147781001D01*
X104327168Y-147692365D01*
X104297134Y-147623346D01*
X104261361Y-147576018D01*
X104235223Y-147557718D01*
X104202163Y-147549019D01*
X104161891Y-147552595D01*
X104111989Y-147569445D01*
X104050037Y-147600569D01*
X103973617Y-147646968D01*
X103899263Y-147696561D01*
X103835548Y-147740765D01*
X103790361Y-147773605D01*
X103760892Y-147797581D01*
X103744334Y-147815188D01*
X103737879Y-147828925D01*
X103648752Y-147828925D01*
X103648320Y-147825106D01*
X103640153Y-147752920D01*
X103686730Y-147730709D01*
X103721724Y-147711328D01*
X103766447Y-147682986D01*
X103805707Y-147655749D01*
X103841763Y-147629513D01*
X103868522Y-147610104D01*
X103880548Y-147601464D01*
X103880700Y-147601363D01*
X103879111Y-147588876D01*
X103873660Y-147553379D01*
X103864688Y-147496956D01*
X103852535Y-147421691D01*
X103837539Y-147329667D01*
X103820042Y-147222966D01*
X103800383Y-147103674D01*
X103778903Y-146973874D01*
X103755940Y-146835648D01*
X103746652Y-146779879D01*
X103610013Y-145960033D01*
X103354321Y-145959833D01*
X103098628Y-145959633D01*
X102555901Y-145959633D01*
X102577084Y-145894909D01*
X102587998Y-145850319D01*
X103127888Y-145850319D01*
X103136949Y-145867855D01*
X103165720Y-145878829D01*
X103192086Y-145881374D01*
X103237622Y-145882560D01*
X103296099Y-145882533D01*
X103361291Y-145881438D01*
X103426968Y-145879422D01*
X103486902Y-145876631D01*
X103534867Y-145873210D01*
X103563651Y-145869513D01*
X103580865Y-145863645D01*
X103587937Y-145850700D01*
X103587152Y-145823441D01*
X103584637Y-145803010D01*
X103576607Y-145742478D01*
X103689194Y-145726331D01*
X103743208Y-145718277D01*
X103790160Y-145710723D01*
X103822419Y-145704918D01*
X103829204Y-145703438D01*
X103846053Y-145701641D01*
X103857451Y-145709464D01*
X103866033Y-145731636D01*
X103874436Y-145772887D01*
X103877334Y-145789798D01*
X103885865Y-145821300D01*
X103899108Y-145832149D01*
X103907067Y-145831654D01*
X103942566Y-145823649D01*
X103988764Y-145812425D01*
X104039114Y-145799680D01*
X104087068Y-145787112D01*
X104126077Y-145776420D01*
X104149596Y-145769301D01*
X104153246Y-145767806D01*
X104155522Y-145753290D01*
X104150541Y-145722961D01*
X104145016Y-145702306D01*
X104135169Y-145667441D01*
X104129980Y-145644727D01*
X104129818Y-145640209D01*
X104145282Y-145633740D01*
X104178406Y-145623915D01*
X104222802Y-145612251D01*
X104272083Y-145600271D01*
X104319861Y-145589491D01*
X104359749Y-145581434D01*
X104385359Y-145577618D01*
X104391235Y-145578016D01*
X104400244Y-145594978D01*
X104411108Y-145625310D01*
X104412398Y-145629589D01*
X104425120Y-145672738D01*
X104584135Y-145602620D01*
X104644014Y-145575517D01*
X104696330Y-145550533D01*
X104736180Y-145530105D01*
X104758662Y-145516667D01*
X104760861Y-145514821D01*
X104766182Y-145503003D01*
X104754483Y-145494072D01*
X104724260Y-145487891D01*
X104674010Y-145484323D01*
X104602231Y-145483232D01*
X104507418Y-145484479D01*
X104445662Y-145486090D01*
X104224036Y-145499376D01*
X104015411Y-145526699D01*
X103810691Y-145569694D01*
X103600780Y-145629999D01*
X103547357Y-145647656D01*
X103424082Y-145691189D01*
X103321342Y-145731312D01*
X103239742Y-145767655D01*
X103179894Y-145799850D01*
X103142407Y-145827528D01*
X103127888Y-145850319D01*
X102587998Y-145850319D01*
X102607130Y-145772154D01*
X102628638Y-145647386D01*
X102631346Y-145619482D01*
X103066185Y-145619482D01*
X103069107Y-145647191D01*
X103072797Y-145663783D01*
X103081550Y-145700640D01*
X103088374Y-145727782D01*
X103089804Y-145732936D01*
X103103188Y-145735700D01*
X103136963Y-145725007D01*
X103190132Y-145701177D01*
X103193601Y-145699491D01*
X103247879Y-145674613D01*
X103316298Y-145645559D01*
X103388944Y-145616447D01*
X103439144Y-145597454D01*
X103618504Y-145538528D01*
X103811028Y-145487486D01*
X104004918Y-145447288D01*
X104096206Y-145432540D01*
X104181496Y-145421641D01*
X104273836Y-145412370D01*
X104368713Y-145404936D01*
X104461611Y-145399545D01*
X104548017Y-145396404D01*
X104623417Y-145395721D01*
X104683297Y-145397703D01*
X104723141Y-145402557D01*
X104727248Y-145403584D01*
X104754660Y-145410552D01*
X104769144Y-145409130D01*
X104772713Y-145394827D01*
X104767381Y-145363149D01*
X104759971Y-145330579D01*
X104748186Y-145289851D01*
X104734159Y-145267820D01*
X104713966Y-145257891D01*
X104687800Y-145255276D01*
X104640619Y-145254438D01*
X104576772Y-145255190D01*
X104500608Y-145257344D01*
X104416480Y-145260712D01*
X104328735Y-145265107D01*
X104241726Y-145270342D01*
X104159801Y-145276229D01*
X104087312Y-145282581D01*
X104050677Y-145286476D01*
X103801763Y-145326265D01*
X103562675Y-145386472D01*
X103336640Y-145466217D01*
X103241191Y-145507710D01*
X103188714Y-145532945D01*
X103140986Y-145557640D01*
X103105734Y-145577733D01*
X103096908Y-145583535D01*
X103074415Y-145601713D01*
X103066185Y-145619482D01*
X102631346Y-145619482D01*
X102640268Y-145527550D01*
X102640681Y-145419591D01*
X102637102Y-145378755D01*
X102609090Y-145216757D01*
X103084320Y-145216757D01*
X103084714Y-145279588D01*
X103086945Y-145344201D01*
X103090548Y-145397824D01*
X103091096Y-145403346D01*
X103096042Y-145445516D01*
X103101489Y-145467207D01*
X103110294Y-145473270D01*
X103125310Y-145468560D01*
X103128594Y-145467079D01*
X103148692Y-145453160D01*
X103152725Y-145431383D01*
X103149979Y-145414063D01*
X103143992Y-145385070D01*
X103134272Y-145338490D01*
X103122344Y-145281627D01*
X103113768Y-145240885D01*
X103085607Y-145107312D01*
X103084320Y-145216757D01*
X102609090Y-145216757D01*
X102603740Y-145185815D01*
X102552609Y-145002628D01*
X102485057Y-144833419D01*
X102428794Y-144725676D01*
X102386367Y-144663135D01*
X102329211Y-144593434D01*
X102262991Y-144522325D01*
X102193369Y-144455560D01*
X102126010Y-144398889D01*
X102067085Y-144358358D01*
X101984970Y-144318602D01*
X101977345Y-144315873D01*
X103045278Y-144315873D01*
X103046745Y-144376702D01*
X103053353Y-144448029D01*
X103065194Y-144532590D01*
X103082358Y-144633123D01*
X103104936Y-144752366D01*
X103133019Y-144893055D01*
X103140278Y-144928793D01*
X103161766Y-145034606D01*
X103181562Y-145132590D01*
X103199110Y-145219947D01*
X103213852Y-145293876D01*
X103225228Y-145351580D01*
X103232683Y-145390258D01*
X103235657Y-145407111D01*
X103235687Y-145407509D01*
X103246408Y-145407729D01*
X103274877Y-145399405D01*
X103315556Y-145384235D01*
X103327916Y-145379185D01*
X103379503Y-145359409D01*
X103445914Y-145336317D01*
X103517405Y-145313208D01*
X103566439Y-145298445D01*
X103702052Y-145264094D01*
X103854625Y-145233885D01*
X104015847Y-145208985D01*
X104177408Y-145190562D01*
X104331000Y-145179782D01*
X104428300Y-145177410D01*
X104473056Y-145176039D01*
X104505836Y-145172542D01*
X104520319Y-145167638D01*
X104520529Y-145166940D01*
X104518008Y-145152479D01*
X104510844Y-145116042D01*
X104499635Y-145060550D01*
X104484976Y-144988924D01*
X104467467Y-144904086D01*
X104447704Y-144808957D01*
X104430142Y-144724878D01*
X104408326Y-144620551D01*
X104387676Y-144521565D01*
X104368901Y-144431335D01*
X104352709Y-144353275D01*
X104339809Y-144290798D01*
X104330910Y-144247318D01*
X104327349Y-144229549D01*
X104297487Y-144133777D01*
X104247466Y-144037851D01*
X104181753Y-143947515D01*
X104104817Y-143868511D01*
X104021127Y-143806583D01*
X103981879Y-143785546D01*
X103862617Y-143742327D01*
X103741252Y-143722098D01*
X103620774Y-143723870D01*
X103504168Y-143746654D01*
X103394421Y-143789464D01*
X103294521Y-143851311D01*
X103207453Y-143931205D01*
X103136206Y-144028160D01*
X103111886Y-144073384D01*
X103089008Y-144122786D01*
X103070818Y-144168998D01*
X103057405Y-144214758D01*
X103048861Y-144262805D01*
X103045278Y-144315873D01*
X101977345Y-144315873D01*
X101885868Y-144283142D01*
X101778162Y-144254305D01*
X101670231Y-144234418D01*
X101592784Y-144226697D01*
X101526652Y-144224319D01*
X101475842Y-144226330D01*
X101430470Y-144233669D01*
X101382884Y-144246585D01*
X101283822Y-144285239D01*
X101183900Y-144341592D01*
X101079422Y-144417892D01*
X101023319Y-144465099D01*
X100970288Y-144513200D01*
X100931356Y-144553863D01*
X100900239Y-144594877D01*
X100870654Y-144644032D01*
X100853997Y-144675000D01*
X100760861Y-144870833D01*
X100690749Y-145061614D01*
X100642828Y-145251126D01*
X100616262Y-145443151D01*
X100610218Y-145641471D01*
X99388802Y-145641471D01*
X99398076Y-145611795D01*
X99437419Y-145406280D01*
X99456880Y-145185576D01*
X99459281Y-145084198D01*
X99458510Y-145005294D01*
X99454466Y-144941927D01*
X99446053Y-144884283D01*
X99432179Y-144822549D01*
X99428525Y-144808364D01*
X99372487Y-144628719D01*
X99301649Y-144464744D01*
X99214023Y-144313572D01*
X99107618Y-144172337D01*
X98980445Y-144038171D01*
X98830513Y-143908207D01*
X98772707Y-143863495D01*
X98694510Y-143807891D01*
X98625114Y-143767144D01*
X98556074Y-143737410D01*
X98478940Y-143714845D01*
X98416602Y-143701448D01*
X98231889Y-143678428D01*
X98046670Y-143680528D01*
X97862441Y-143707502D01*
X97680701Y-143759107D01*
X97502949Y-143835097D01*
X97460261Y-143857362D01*
X97374877Y-143905335D01*
X97307637Y-143948097D01*
X97253120Y-143990032D01*
X97205907Y-144035527D01*
X97160579Y-144088967D01*
X97138858Y-144117441D01*
X97001817Y-144315406D01*
X96889111Y-144508994D01*
X96800313Y-144699676D01*
X96734995Y-144888924D01*
X96692731Y-145078207D01*
X96673095Y-145268997D01*
X94190867Y-145268997D01*
X94190718Y-145229262D01*
X94190019Y-145157608D01*
X94188209Y-145094244D01*
X94185516Y-145043819D01*
X94182166Y-145010982D01*
X94179594Y-145001017D01*
X94170121Y-144996190D01*
X94150702Y-145000175D01*
X94118120Y-145014272D01*
X94069154Y-145039780D01*
X94029965Y-145061442D01*
X93976371Y-145091037D01*
X93930758Y-145115438D01*
X93897712Y-145132248D01*
X93881815Y-145139073D01*
X93881411Y-145139115D01*
X93867368Y-145134669D01*
X93832867Y-145122145D01*
X93781134Y-145102760D01*
X93715392Y-145077734D01*
X93638868Y-145048284D01*
X93560485Y-145017852D01*
X93463041Y-144980158D01*
X93386475Y-144951310D01*
X93328138Y-144930460D01*
X93285385Y-144916762D01*
X93255570Y-144909367D01*
X93236044Y-144907430D01*
X93224161Y-144910102D01*
X93224035Y-144910169D01*
X93204742Y-144917067D01*
X93198840Y-144905557D01*
X93198659Y-144899221D01*
X93188447Y-144874664D01*
X93176397Y-144866062D01*
X93161049Y-144858079D01*
X93166739Y-144848413D01*
X93176397Y-144841036D01*
X93181920Y-144835448D01*
X93182002Y-144835277D01*
X93355851Y-144835277D01*
X93358577Y-144842171D01*
X93372254Y-144851477D01*
X93399357Y-144864516D01*
X93442358Y-144882613D01*
X93503732Y-144907088D01*
X93585953Y-144939266D01*
X93600894Y-144945095D01*
X93677929Y-144975046D01*
X93746887Y-145001662D01*
X93804289Y-145023616D01*
X93846652Y-145039581D01*
X93870496Y-145048230D01*
X93874353Y-145049393D01*
X93886752Y-145043458D01*
X93918877Y-145026234D01*
X93968356Y-144999041D01*
X94032818Y-144963200D01*
X94109891Y-144920032D01*
X94197204Y-144870857D01*
X94292385Y-144816997D01*
X94332316Y-144794331D01*
X94432749Y-144737276D01*
X94528562Y-144682854D01*
X94616974Y-144632642D01*
X94695206Y-144588220D01*
X94760477Y-144551167D01*
X94810007Y-144523061D01*
X94841015Y-144505481D01*
X94846214Y-144502538D01*
X94909981Y-144466480D01*
X95097037Y-144573816D01*
X95159974Y-144609352D01*
X95216034Y-144639920D01*
X95261194Y-144663411D01*
X95291431Y-144677718D01*
X95301869Y-144681152D01*
X95321877Y-144676146D01*
X95357165Y-144663028D01*
X95399607Y-144644853D01*
X95479571Y-144608555D01*
X95359991Y-144538654D01*
X95244994Y-144471541D01*
X95149989Y-144416382D01*
X95073092Y-144372137D01*
X95012417Y-144337772D01*
X94966080Y-144312249D01*
X94932196Y-144294532D01*
X94908880Y-144283584D01*
X94894247Y-144278370D01*
X94886413Y-144277851D01*
X94886005Y-144277988D01*
X94872485Y-144285933D01*
X94839791Y-144306380D01*
X94790073Y-144337951D01*
X94725478Y-144379268D01*
X94648157Y-144428953D01*
X94560257Y-144485628D01*
X94463928Y-144547916D01*
X94361319Y-144614438D01*
X94360448Y-144615003D01*
X93850502Y-144946028D01*
X93630976Y-144875709D01*
X93552458Y-144850755D01*
X93494214Y-144832992D01*
X93452363Y-144821632D01*
X93423019Y-144815887D01*
X93402301Y-144814969D01*
X93386324Y-144818090D01*
X93373358Y-144823431D01*
X93361603Y-144829471D01*
X93355851Y-144835277D01*
X93182002Y-144835277D01*
X93186451Y-144826030D01*
X93190088Y-144810433D01*
X93192927Y-144786308D01*
X93195065Y-144751304D01*
X93196601Y-144703072D01*
X93197630Y-144639262D01*
X93198251Y-144557525D01*
X93198561Y-144455511D01*
X93198657Y-144330869D01*
X93198659Y-144303285D01*
X93198659Y-144020661D01*
X93427347Y-144020661D01*
X93428381Y-144137955D01*
X93430873Y-144272767D01*
X93434835Y-144423779D01*
X93435970Y-144461109D01*
X93444300Y-144728575D01*
X93623608Y-144786211D01*
X93688789Y-144806745D01*
X93746796Y-144824240D01*
X93792647Y-144837251D01*
X93821355Y-144844334D01*
X93827002Y-144845188D01*
X93842184Y-144838690D01*
X93876455Y-144819543D01*
X93927655Y-144789086D01*
X93993622Y-144748658D01*
X94072194Y-144699598D01*
X94161209Y-144643247D01*
X94258506Y-144580943D01*
X94361923Y-144514026D01*
X94370837Y-144508226D01*
X94890585Y-144169924D01*
X95202840Y-144350743D01*
X95283449Y-144397098D01*
X95356761Y-144438636D01*
X95419949Y-144473805D01*
X95470185Y-144501052D01*
X95504642Y-144518827D01*
X95520495Y-144525577D01*
X95521161Y-144525495D01*
X95521653Y-144512371D01*
X95521385Y-144476766D01*
X95520443Y-144421627D01*
X95518911Y-144349902D01*
X95516877Y-144264537D01*
X95514425Y-144168481D01*
X95511640Y-144064680D01*
X95508609Y-143956081D01*
X95505416Y-143845632D01*
X95502148Y-143736280D01*
X95498890Y-143630972D01*
X95495727Y-143532656D01*
X95492745Y-143444278D01*
X95490030Y-143368787D01*
X95487667Y-143309129D01*
X95485742Y-143268252D01*
X95484340Y-143249102D01*
X95484078Y-143248052D01*
X95472239Y-143242973D01*
X95440094Y-143229792D01*
X95390960Y-143209854D01*
X95328156Y-143184503D01*
X95255001Y-143155082D01*
X95208609Y-143136472D01*
X94935103Y-143026858D01*
X94344486Y-143423553D01*
X93753870Y-143820249D01*
X93606657Y-143784542D01*
X93547679Y-143770074D01*
X93497114Y-143757365D01*
X93460480Y-143747823D01*
X93443542Y-143742948D01*
X93437500Y-143752940D01*
X93432845Y-143787022D01*
X93429592Y-143843879D01*
X93427755Y-143922197D01*
X93427347Y-144020661D01*
X93198659Y-144020661D01*
X93198659Y-143781929D01*
X93262265Y-143728296D01*
X93295023Y-143698039D01*
X93317984Y-143671798D01*
X93325871Y-143656338D01*
X93336228Y-143640624D01*
X93347131Y-143638013D01*
X93372836Y-143629901D01*
X93391655Y-143616960D01*
X93408873Y-143603387D01*
X93414457Y-143609452D01*
X93414919Y-143623320D01*
X93417571Y-143645068D01*
X93421668Y-143650734D01*
X93435885Y-143653739D01*
X93469768Y-143661936D01*
X93518366Y-143674101D01*
X93576726Y-143689010D01*
X93581467Y-143690233D01*
X93734515Y-143729732D01*
X93941929Y-143591983D01*
X94149343Y-143454235D01*
X94157228Y-143343139D01*
X94168274Y-143234816D01*
X94185752Y-143146326D01*
X94211725Y-143072434D01*
X94248257Y-143007909D01*
X94297410Y-142947519D01*
X94323753Y-142920729D01*
X94340638Y-142905560D01*
X94363273Y-142887583D01*
X94392990Y-142865970D01*
X94431121Y-142839895D01*
X94478995Y-142808529D01*
X94537946Y-142771044D01*
X94543166Y-142767793D01*
X101266414Y-142767793D01*
X101273506Y-142783935D01*
X101296014Y-142794460D01*
X101297739Y-142795048D01*
X101323821Y-142801099D01*
X101337815Y-142791749D01*
X101347066Y-142769821D01*
X101368125Y-142737175D01*
X101403778Y-142706243D01*
X101410672Y-142701843D01*
X101459997Y-142677436D01*
X101496605Y-142673049D01*
X101523719Y-142688875D01*
X101537407Y-142709366D01*
X101562893Y-142739959D01*
X101594295Y-142746159D01*
X101618267Y-142736207D01*
X101627617Y-142724988D01*
X101624920Y-142705587D01*
X101613185Y-142678203D01*
X101583996Y-142631516D01*
X101547603Y-142605329D01*
X101498299Y-142596663D01*
X101460662Y-142598580D01*
X101422628Y-142601092D01*
X101397416Y-142600050D01*
X101391232Y-142597136D01*
X101398991Y-142574132D01*
X101418322Y-142539813D01*
X101443915Y-142501903D01*
X101470464Y-142468122D01*
X101492660Y-142446196D01*
X101496811Y-142443522D01*
X101541235Y-142432381D01*
X101594194Y-142438068D01*
X101621009Y-142447273D01*
X101640308Y-142445489D01*
X101656601Y-142421695D01*
X101664955Y-142393757D01*
X101657607Y-142375153D01*
X101631555Y-142363593D01*
X101583797Y-142356785D01*
X101570111Y-142355700D01*
X101501333Y-142358490D01*
X101445423Y-142379824D01*
X101396892Y-142422434D01*
X101372769Y-142453877D01*
X101349391Y-142496062D01*
X101324239Y-142555127D01*
X101300257Y-142622952D01*
X101280389Y-142691418D01*
X101270285Y-142736546D01*
X101266414Y-142767793D01*
X94543166Y-142767793D01*
X94609303Y-142726613D01*
X94694399Y-142674407D01*
X94794564Y-142613600D01*
X94911131Y-142543363D01*
X95045429Y-142462868D01*
X95198790Y-142371288D01*
X95372547Y-142267795D01*
X95402985Y-142249686D01*
X95549082Y-142162812D01*
X95688905Y-142079744D01*
X95820915Y-142001390D01*
X95943571Y-141928662D01*
X96055333Y-141862470D01*
X96154661Y-141803727D01*
X96240015Y-141753341D01*
X96309853Y-141712225D01*
X96362638Y-141681288D01*
X96396827Y-141661442D01*
X96410881Y-141653597D01*
X96411141Y-141653506D01*
X96416461Y-141663887D01*
X96417123Y-141672588D01*
X96427306Y-141689453D01*
X96436205Y-141691669D01*
X96448043Y-141691459D01*
X96453200Y-141687189D01*
X96451339Y-141673402D01*
X96442122Y-141644639D01*
X96431377Y-141613436D01*
X96425768Y-141591378D01*
X96833877Y-141591378D01*
X96861921Y-141621231D01*
X96883172Y-141640840D01*
X96900792Y-141642942D01*
X96924428Y-141631305D01*
X96969462Y-141617193D01*
X97015101Y-141621711D01*
X97055625Y-141641406D01*
X97085311Y-141672825D01*
X97098441Y-141712515D01*
X97096809Y-141735359D01*
X97090425Y-141766467D01*
X97086772Y-141785952D01*
X97095802Y-141797331D01*
X97118674Y-141806538D01*
X97143816Y-141810244D01*
X97158360Y-141806551D01*
X97165510Y-141790413D01*
X97174425Y-141756793D01*
X97182167Y-141718375D01*
X97188843Y-141617168D01*
X97172513Y-141524370D01*
X97133994Y-141441982D01*
X97074100Y-141372005D01*
X97025997Y-141335346D01*
X96978149Y-141307406D01*
X96932732Y-141286031D01*
X96895485Y-141273468D01*
X96872148Y-141271962D01*
X96868850Y-141273866D01*
X96862777Y-141288175D01*
X96856321Y-141310602D01*
X96853916Y-141329376D01*
X96861389Y-141343196D01*
X96883584Y-141356790D01*
X96919845Y-141372612D01*
X96985770Y-141408345D01*
X97041107Y-141454503D01*
X97079861Y-141505598D01*
X97090250Y-141528617D01*
X97097838Y-141554140D01*
X97094158Y-141561268D01*
X97081589Y-141556963D01*
X97056810Y-141550498D01*
X97017243Y-141544841D01*
X96989577Y-141542451D01*
X96938932Y-141542477D01*
X96901055Y-141551858D01*
X96876743Y-141564684D01*
X96833877Y-141591378D01*
X96425768Y-141591378D01*
X96402699Y-141500646D01*
X96397375Y-141394402D01*
X96415863Y-141292357D01*
X96458623Y-141192168D01*
X96526116Y-141091489D01*
X96536266Y-141078813D01*
X96595288Y-141016569D01*
X96669540Y-140953314D01*
X96750068Y-140895928D01*
X96827915Y-140851293D01*
X96839431Y-140845837D01*
X96936107Y-140815266D01*
X97041778Y-140806851D01*
X97153438Y-140820316D01*
G37*
G36*
X178664228Y-145411002D02*
G01*
X178690271Y-145495093D01*
X178699733Y-145573703D01*
X178693916Y-145645235D01*
X178668732Y-145725053D01*
X178623308Y-145790118D01*
X178557302Y-145840765D01*
X178470370Y-145877325D01*
X178362167Y-145900130D01*
X178347190Y-145901880D01*
X178252859Y-145899430D01*
X178166231Y-145872964D01*
X178087713Y-145822808D01*
X178017712Y-145749290D01*
X177956636Y-145652736D01*
X177904893Y-145533472D01*
X177894900Y-145504664D01*
X177880999Y-145454970D01*
X177876005Y-145413506D01*
X177878298Y-145370336D01*
X177878948Y-145364914D01*
X177884884Y-145340683D01*
X178279934Y-145340683D01*
X178284900Y-145359631D01*
X178303197Y-145385207D01*
X178320395Y-145395535D01*
X178354323Y-145404701D01*
X178388552Y-145405902D01*
X178411386Y-145397780D01*
X178418016Y-145386477D01*
X178413661Y-145363499D01*
X178393104Y-145341039D01*
X178361613Y-145323983D01*
X178324458Y-145317212D01*
X178307557Y-145317795D01*
X178285804Y-145324306D01*
X178279934Y-145340683D01*
X177884884Y-145340683D01*
X177900017Y-145278912D01*
X177940281Y-145208613D01*
X178001020Y-145152384D01*
X178083511Y-145108595D01*
X178086358Y-145107441D01*
X178128728Y-145091829D01*
X178163701Y-145084299D01*
X178202104Y-145083573D01*
X178254766Y-145088371D01*
X178267238Y-145089815D01*
X178333342Y-145099821D01*
X178385600Y-145113908D01*
X178434015Y-145135480D01*
X178488592Y-145167942D01*
X178521735Y-145193348D01*
X178576448Y-145253380D01*
X178625116Y-145328181D01*
X178652647Y-145386477D01*
X178664228Y-145411002D01*
G37*
G36*
X181187030Y-145418980D02*
G01*
X181188554Y-145522485D01*
X181172673Y-145601481D01*
X181137273Y-145675493D01*
X181080645Y-145740010D01*
X181053443Y-145763703D01*
X181009437Y-145795568D01*
X180964288Y-145816900D01*
X180906862Y-145833702D01*
X180895215Y-145836481D01*
X180821621Y-145848450D01*
X180753493Y-145846953D01*
X180677372Y-145831882D01*
X180581933Y-145796340D01*
X180482348Y-145734161D01*
X180388950Y-145648480D01*
X180302812Y-145540135D01*
X180298532Y-145533811D01*
X180281141Y-145503670D01*
X180269815Y-145471600D01*
X180262435Y-145429764D01*
X180256880Y-145370325D01*
X180255297Y-145346353D01*
X180255122Y-145304033D01*
X180673564Y-145304033D01*
X180682837Y-145331881D01*
X180709980Y-145360034D01*
X180743396Y-145380307D01*
X180787707Y-145392778D01*
X180829516Y-145392467D01*
X180859793Y-145378274D01*
X180861161Y-145376848D01*
X180874271Y-145345722D01*
X180867875Y-145308027D01*
X180843172Y-145271448D01*
X180838124Y-145266532D01*
X180814991Y-145249692D01*
X180787217Y-145242951D01*
X180744583Y-145243403D01*
X180710952Y-145245883D01*
X180687858Y-145251434D01*
X180677810Y-145263708D01*
X180674021Y-145286887D01*
X180673564Y-145304033D01*
X180255122Y-145304033D01*
X180254952Y-145263019D01*
X180265279Y-145196301D01*
X180287643Y-145140437D01*
X180323410Y-145089665D01*
X180337746Y-145073309D01*
X180377329Y-145034287D01*
X180417268Y-145007608D01*
X180463813Y-144990722D01*
X180523213Y-144981079D01*
X180601715Y-144976131D01*
X180630320Y-144975290D01*
X180729235Y-144977784D01*
X180811990Y-144990507D01*
X180884805Y-145014798D01*
X180953895Y-145051996D01*
X180972520Y-145064472D01*
X181052978Y-145135287D01*
X181117026Y-145220938D01*
X181162448Y-145316983D01*
X181169374Y-145345722D01*
X181187030Y-145418980D01*
G37*
G36*
X183099736Y-141613436D02*
G01*
X183088991Y-141644639D01*
X183079774Y-141673402D01*
X183077913Y-141687189D01*
X183083070Y-141691459D01*
X183094908Y-141691669D01*
X183103807Y-141689453D01*
X183113990Y-141672588D01*
X183114652Y-141663887D01*
X183119972Y-141653506D01*
X183120232Y-141653597D01*
X183134286Y-141661442D01*
X183168475Y-141681288D01*
X183221260Y-141712225D01*
X183291098Y-141753341D01*
X183376452Y-141803727D01*
X183475780Y-141862470D01*
X183587542Y-141928662D01*
X183710198Y-142001390D01*
X183842208Y-142079744D01*
X183982031Y-142162812D01*
X184128128Y-142249686D01*
X184158566Y-142267795D01*
X184332323Y-142371288D01*
X184485684Y-142462868D01*
X184619982Y-142543363D01*
X184736549Y-142613600D01*
X184836714Y-142674407D01*
X184921810Y-142726613D01*
X184987947Y-142767793D01*
X184993167Y-142771044D01*
X185052118Y-142808529D01*
X185099992Y-142839895D01*
X185138123Y-142865970D01*
X185167840Y-142887583D01*
X185190475Y-142905560D01*
X185207360Y-142920729D01*
X185233703Y-142947519D01*
X185282856Y-143007909D01*
X185319388Y-143072434D01*
X185345361Y-143146326D01*
X185362839Y-143234816D01*
X185373885Y-143343139D01*
X185381770Y-143454235D01*
X185589184Y-143591983D01*
X185796598Y-143729732D01*
X185949646Y-143690233D01*
X185954387Y-143689010D01*
X186012747Y-143674101D01*
X186061345Y-143661936D01*
X186095228Y-143653739D01*
X186109445Y-143650734D01*
X186113542Y-143645068D01*
X186116194Y-143623320D01*
X186116656Y-143609452D01*
X186122240Y-143603387D01*
X186139458Y-143616960D01*
X186158277Y-143629901D01*
X186183982Y-143638013D01*
X186194885Y-143640624D01*
X186205242Y-143656338D01*
X186213129Y-143671798D01*
X186236090Y-143698039D01*
X186268848Y-143728296D01*
X186332454Y-143781929D01*
X186332454Y-144020661D01*
X186332454Y-144303285D01*
X186332456Y-144330869D01*
X186332552Y-144455511D01*
X186332862Y-144557525D01*
X186333483Y-144639262D01*
X186334512Y-144703072D01*
X186336048Y-144751304D01*
X186338186Y-144786308D01*
X186341025Y-144810433D01*
X186344662Y-144826030D01*
X186349111Y-144835277D01*
X186349193Y-144835448D01*
X186354716Y-144841036D01*
X186364374Y-144848413D01*
X186370064Y-144858079D01*
X186354716Y-144866062D01*
X186342666Y-144874664D01*
X186332454Y-144899221D01*
X186332273Y-144905557D01*
X186326371Y-144917067D01*
X186307078Y-144910169D01*
X186306952Y-144910102D01*
X186295069Y-144907430D01*
X186275543Y-144909367D01*
X186245728Y-144916762D01*
X186202975Y-144930460D01*
X186144638Y-144951310D01*
X186068072Y-144980158D01*
X185970628Y-145017852D01*
X185892245Y-145048284D01*
X185815721Y-145077734D01*
X185749979Y-145102760D01*
X185698246Y-145122145D01*
X185663745Y-145134669D01*
X185649702Y-145139115D01*
X185649298Y-145139073D01*
X185633401Y-145132248D01*
X185600355Y-145115438D01*
X185554742Y-145091037D01*
X185501148Y-145061442D01*
X185461959Y-145039780D01*
X185412993Y-145014272D01*
X185380411Y-145000175D01*
X185360992Y-144996190D01*
X185351519Y-145001017D01*
X185348947Y-145010982D01*
X185345597Y-145043819D01*
X185342904Y-145094244D01*
X185341094Y-145157608D01*
X185340395Y-145229262D01*
X185340246Y-145268997D01*
X185340224Y-145274892D01*
X185339607Y-145354430D01*
X185338598Y-145451190D01*
X185337257Y-145560482D01*
X185335642Y-145677616D01*
X185333811Y-145797903D01*
X185331823Y-145916653D01*
X185323446Y-146393047D01*
X185520073Y-146510271D01*
X185577699Y-146544203D01*
X185635844Y-146577495D01*
X185683697Y-146603874D01*
X185717441Y-146621240D01*
X185733259Y-146627496D01*
X185743151Y-146625611D01*
X185774773Y-146617137D01*
X185823074Y-146603029D01*
X185883648Y-146584583D01*
X185952089Y-146563095D01*
X185959030Y-146560880D01*
X186044689Y-146532377D01*
X186105706Y-146509554D01*
X186142217Y-146492355D01*
X186154357Y-146480725D01*
X186157001Y-146474395D01*
X186175011Y-146468807D01*
X186202255Y-146471579D01*
X186229452Y-146481180D01*
X186247324Y-146496076D01*
X186261358Y-146508945D01*
X186292254Y-146529120D01*
X186332381Y-146551132D01*
X186407159Y-146588880D01*
X186405206Y-146767765D01*
X186399611Y-147279998D01*
X186392063Y-147971116D01*
X186435406Y-147984655D01*
X186478748Y-147998194D01*
X186465707Y-148003103D01*
X186437404Y-148013756D01*
X186433101Y-148015465D01*
X186406804Y-148030755D01*
X186396060Y-148045963D01*
X186392489Y-148054402D01*
X186373798Y-148056826D01*
X186360158Y-148058872D01*
X186325270Y-148069266D01*
X186273197Y-148087127D01*
X186207346Y-148111235D01*
X186131123Y-148140374D01*
X186047935Y-148173324D01*
X185744335Y-148295606D01*
X185520896Y-148205911D01*
X185517060Y-148204371D01*
X185447582Y-148176696D01*
X185386989Y-148152932D01*
X185338956Y-148134492D01*
X185307155Y-148122786D01*
X185295260Y-148119226D01*
X185295230Y-148119443D01*
X185294753Y-148135129D01*
X185293898Y-148174445D01*
X185293485Y-148195429D01*
X185292692Y-148235774D01*
X185291160Y-148317501D01*
X185289331Y-148418008D01*
X185287230Y-148535680D01*
X185284886Y-148668900D01*
X185282324Y-148816050D01*
X185279572Y-148975516D01*
X185276988Y-149126325D01*
X185276656Y-149145681D01*
X185273603Y-149324927D01*
X185270441Y-149511638D01*
X185267196Y-149704199D01*
X185263895Y-149900992D01*
X185260565Y-150100401D01*
X185257233Y-150300810D01*
X185253926Y-150500601D01*
X185250943Y-150681569D01*
X185250670Y-150698160D01*
X185247492Y-150891868D01*
X185244420Y-151080110D01*
X185241480Y-151261269D01*
X185238699Y-151433729D01*
X185236104Y-151595873D01*
X185235880Y-151609977D01*
X185233722Y-151746085D01*
X185231580Y-151882748D01*
X185229704Y-152004245D01*
X185228122Y-152108962D01*
X185226860Y-152195279D01*
X185225946Y-152261583D01*
X185225406Y-152306255D01*
X185225266Y-152327679D01*
X185225710Y-152386009D01*
X185412418Y-152361500D01*
X185599126Y-152336990D01*
X185816747Y-152376316D01*
X185873305Y-152386330D01*
X185942545Y-152398007D01*
X186001499Y-152407294D01*
X186045260Y-152413428D01*
X186068920Y-152415643D01*
X186103473Y-152415643D01*
X186103329Y-152463486D01*
X186103316Y-152467726D01*
X186103084Y-152544826D01*
X186102049Y-152889508D01*
X186101576Y-152990410D01*
X186100681Y-153101139D01*
X186099457Y-153205459D01*
X186097966Y-153299562D01*
X186096270Y-153379643D01*
X186094431Y-153441895D01*
X186092508Y-153482511D01*
X186084391Y-153601649D01*
X186001874Y-153631473D01*
X186001042Y-153631774D01*
X185959243Y-153648513D01*
X185928332Y-153663861D01*
X185914946Y-153674530D01*
X185909726Y-153679599D01*
X185887952Y-153685684D01*
X185859272Y-153687615D01*
X185834290Y-153685036D01*
X185823606Y-153677592D01*
X185817681Y-153672490D01*
X185792147Y-153660205D01*
X185751088Y-153643827D01*
X185699575Y-153625485D01*
X185575543Y-153583548D01*
X185391085Y-153652861D01*
X185206628Y-153722174D01*
X185198729Y-153911688D01*
X185198350Y-153920973D01*
X185195265Y-154009895D01*
X185192519Y-154111090D01*
X185190398Y-154212800D01*
X185189189Y-154303265D01*
X185188967Y-154323070D01*
X185186859Y-154401817D01*
X185183095Y-154470513D01*
X185178024Y-154524031D01*
X185171993Y-154557242D01*
X185148697Y-154606066D01*
X185106137Y-154659441D01*
X185053026Y-154705054D01*
X184996728Y-154735417D01*
X184985599Y-154738512D01*
X184949167Y-154746773D01*
X184890936Y-154758985D01*
X184812852Y-154774766D01*
X184716865Y-154793741D01*
X184604921Y-154815530D01*
X184478970Y-154839756D01*
X184340959Y-154866039D01*
X184192836Y-154894002D01*
X184036549Y-154923265D01*
X183874046Y-154953452D01*
X183733948Y-154979347D01*
X183560242Y-155011350D01*
X183408786Y-155039088D01*
X183277985Y-155062825D01*
X183166241Y-155082824D01*
X183071957Y-155099350D01*
X182993536Y-155112665D01*
X182929380Y-155123033D01*
X182877892Y-155130718D01*
X182837476Y-155135982D01*
X182806533Y-155139089D01*
X182783468Y-155140304D01*
X182766683Y-155139888D01*
X182754580Y-155138106D01*
X182751797Y-155137487D01*
X182721567Y-155131555D01*
X182670622Y-155122250D01*
X182602717Y-155110230D01*
X182521611Y-155096155D01*
X182431059Y-155080683D01*
X182334817Y-155064473D01*
X181969082Y-155003317D01*
X181969082Y-155012257D01*
X181969082Y-155036580D01*
X181968002Y-155050204D01*
X181960385Y-155088916D01*
X181947873Y-155132086D01*
X181940672Y-155150718D01*
X181897352Y-155220651D01*
X181831899Y-155284097D01*
X181746532Y-155339993D01*
X181643473Y-155387273D01*
X181524940Y-155424872D01*
X181393154Y-155451725D01*
X181250334Y-155466767D01*
X181156160Y-155470075D01*
X181045320Y-155469377D01*
X180934893Y-155464506D01*
X180833162Y-155455841D01*
X180748409Y-155443761D01*
X180639238Y-155419053D01*
X180515780Y-155379954D01*
X180403852Y-155332245D01*
X180308046Y-155277928D01*
X180232957Y-155219007D01*
X180232950Y-155219000D01*
X180168371Y-155142351D01*
X180128579Y-155060016D01*
X180113607Y-154972185D01*
X180114700Y-154961877D01*
X180207243Y-154961877D01*
X180207946Y-154998597D01*
X180212768Y-155036730D01*
X180224806Y-155067588D01*
X180247089Y-155101810D01*
X180272081Y-155132155D01*
X180341747Y-155192357D01*
X180432258Y-155246617D01*
X180540710Y-155293575D01*
X180664196Y-155331875D01*
X180799809Y-155360156D01*
X180866784Y-155368354D01*
X180955566Y-155374477D01*
X181054039Y-155377661D01*
X181155211Y-155377900D01*
X181252090Y-155375186D01*
X181337685Y-155369509D01*
X181405004Y-155360862D01*
X181436583Y-155354778D01*
X181559949Y-155323224D01*
X181665327Y-155282979D01*
X181750977Y-155234976D01*
X181815155Y-155180147D01*
X181856122Y-155119424D01*
X181866817Y-155092333D01*
X181877708Y-155047889D01*
X181878474Y-155012257D01*
X181868443Y-154992385D01*
X181852756Y-154988011D01*
X181814657Y-154979947D01*
X181756830Y-154968680D01*
X181681910Y-154954661D01*
X181592530Y-154938345D01*
X181491322Y-154920184D01*
X181380922Y-154900630D01*
X181263961Y-154880137D01*
X181143074Y-154859158D01*
X181020895Y-154838146D01*
X180900056Y-154817552D01*
X180783192Y-154797831D01*
X180672935Y-154779435D01*
X180571919Y-154762817D01*
X180482778Y-154748430D01*
X180408145Y-154736727D01*
X180350654Y-154728160D01*
X180312937Y-154723183D01*
X180297630Y-154722249D01*
X180285731Y-154734355D01*
X180266555Y-154763407D01*
X180245011Y-154802563D01*
X180243513Y-154805531D01*
X180221017Y-154857093D01*
X180210088Y-154904315D01*
X180207243Y-154961877D01*
X180114700Y-154961877D01*
X180123486Y-154879043D01*
X180158249Y-154780778D01*
X180197466Y-154697081D01*
X179846137Y-154636735D01*
X179837208Y-154635201D01*
X179744988Y-154619283D01*
X179660221Y-154604526D01*
X179586431Y-154591554D01*
X179527145Y-154580990D01*
X179485888Y-154573457D01*
X179466185Y-154569578D01*
X179458149Y-154567894D01*
X179444435Y-154569553D01*
X179438711Y-154584737D01*
X179437593Y-154618467D01*
X179437563Y-154619392D01*
X179436614Y-154638969D01*
X179417786Y-154709910D01*
X179376695Y-154777024D01*
X179315787Y-154835956D01*
X179245584Y-154880637D01*
X179144664Y-154925761D01*
X179027148Y-154962734D01*
X178896189Y-154991626D01*
X178754940Y-155012506D01*
X178606552Y-155025441D01*
X178454177Y-155030500D01*
X178300970Y-155027753D01*
X178150080Y-155017268D01*
X178004662Y-154999114D01*
X177867868Y-154973359D01*
X177742849Y-154940073D01*
X177632759Y-154899324D01*
X177540750Y-154851180D01*
X177469974Y-154795711D01*
X177444929Y-154767789D01*
X177407874Y-154703954D01*
X177396794Y-154641391D01*
X177486112Y-154641391D01*
X177499187Y-154692667D01*
X177537132Y-154740367D01*
X177600047Y-154784652D01*
X177688033Y-154825685D01*
X177801192Y-154863626D01*
X177823081Y-154869649D01*
X177892611Y-154886258D01*
X177969463Y-154901904D01*
X178040635Y-154913858D01*
X178183717Y-154930345D01*
X178336866Y-154939529D01*
X178488182Y-154940475D01*
X178635083Y-154933610D01*
X178774991Y-154919358D01*
X178905323Y-154898145D01*
X179023501Y-154870396D01*
X179126943Y-154836535D01*
X179213069Y-154796990D01*
X179279299Y-154752184D01*
X179323052Y-154702542D01*
X179323535Y-154701741D01*
X179340167Y-154661893D01*
X179347610Y-154618467D01*
X179345284Y-154580314D01*
X179332613Y-154556287D01*
X179331605Y-154555794D01*
X179312210Y-154550897D01*
X179270974Y-154542357D01*
X179210615Y-154530649D01*
X179133852Y-154516249D01*
X179043402Y-154499634D01*
X178941984Y-154481278D01*
X178832315Y-154461657D01*
X178717114Y-154441247D01*
X178599098Y-154420523D01*
X178480986Y-154399962D01*
X178365495Y-154380038D01*
X178255345Y-154361228D01*
X178153252Y-154344006D01*
X178061935Y-154328849D01*
X177984111Y-154316233D01*
X177922500Y-154306632D01*
X177879819Y-154300523D01*
X177858785Y-154298381D01*
X177850980Y-154299344D01*
X177817321Y-154312089D01*
X177771385Y-154336979D01*
X177718317Y-154370625D01*
X177663263Y-154409634D01*
X177611368Y-154450615D01*
X177567779Y-154490178D01*
X177534165Y-154527464D01*
X177497804Y-154586377D01*
X177486112Y-154641391D01*
X177396794Y-154641391D01*
X177396079Y-154637351D01*
X177409534Y-154568074D01*
X177448228Y-154496216D01*
X177512151Y-154421872D01*
X177542722Y-154393415D01*
X177594195Y-154349997D01*
X177642313Y-154313742D01*
X177643077Y-154313215D01*
X177674718Y-154289290D01*
X177692718Y-154271497D01*
X177693198Y-154263652D01*
X177652001Y-154256751D01*
X177495658Y-154230166D01*
X177347253Y-154204314D01*
X177208934Y-154179599D01*
X177082851Y-154156429D01*
X176971151Y-154135209D01*
X176875985Y-154116347D01*
X176799501Y-154100248D01*
X176743847Y-154087319D01*
X176711174Y-154077967D01*
X176589172Y-154023186D01*
X176484837Y-153952641D01*
X176451268Y-153918465D01*
X177130931Y-153918465D01*
X177131253Y-153955218D01*
X177132091Y-153968560D01*
X177132632Y-153968929D01*
X177150459Y-153974359D01*
X177187765Y-153982616D01*
X177239447Y-153992646D01*
X177300401Y-154003391D01*
X177303849Y-154003973D01*
X177337727Y-154009751D01*
X177395025Y-154019581D01*
X177474343Y-154033219D01*
X177574278Y-154050425D01*
X177693430Y-154070956D01*
X177830396Y-154094571D01*
X177983776Y-154121028D01*
X178152167Y-154150084D01*
X178334168Y-154181499D01*
X178528378Y-154215031D01*
X178733394Y-154250437D01*
X178947816Y-154287475D01*
X179170242Y-154325904D01*
X179399270Y-154365482D01*
X179633499Y-154405968D01*
X179702435Y-154417883D01*
X179932162Y-154457581D01*
X180154755Y-154496029D01*
X180368933Y-154533007D01*
X180573415Y-154568295D01*
X180766920Y-154601671D01*
X180948166Y-154632915D01*
X181115873Y-154661807D01*
X181268759Y-154688125D01*
X181405543Y-154711651D01*
X181524945Y-154732162D01*
X181625682Y-154749439D01*
X181706474Y-154763260D01*
X181766039Y-154773405D01*
X181803097Y-154779654D01*
X181816366Y-154781786D01*
X181817379Y-154781246D01*
X181819219Y-154776881D01*
X181821023Y-154767148D01*
X181822829Y-154750867D01*
X181824673Y-154726857D01*
X181826594Y-154693937D01*
X181828630Y-154650927D01*
X181830817Y-154596647D01*
X181833193Y-154529917D01*
X181835796Y-154449555D01*
X181838663Y-154354381D01*
X181841832Y-154243216D01*
X181845340Y-154114879D01*
X181849225Y-153968188D01*
X181853525Y-153801965D01*
X181853991Y-153783617D01*
X183875068Y-153783617D01*
X184079363Y-153869263D01*
X184134230Y-153891900D01*
X184197195Y-153916919D01*
X184249731Y-153936720D01*
X184287524Y-153949689D01*
X184306262Y-153954211D01*
X184309471Y-153953575D01*
X184333618Y-153946118D01*
X184378454Y-153930938D01*
X184441663Y-153908862D01*
X184520927Y-153880715D01*
X184613930Y-153847323D01*
X184718355Y-153809512D01*
X184831885Y-153768109D01*
X184952204Y-153723938D01*
X185575543Y-153494363D01*
X185695658Y-153533493D01*
X185729956Y-153544515D01*
X185774738Y-153558365D01*
X185805899Y-153567302D01*
X185818178Y-153569768D01*
X185818389Y-153567910D01*
X185819129Y-153546507D01*
X185820066Y-153503343D01*
X185821158Y-153441126D01*
X185822362Y-153362564D01*
X185823635Y-153270362D01*
X185824936Y-153167228D01*
X185826222Y-153055869D01*
X185831860Y-152544826D01*
X185751972Y-152524759D01*
X185712744Y-152515817D01*
X185667811Y-152507687D01*
X185636534Y-152504464D01*
X185619053Y-152506203D01*
X185578513Y-152511765D01*
X185517994Y-152520750D01*
X185440136Y-152532744D01*
X185347583Y-152547336D01*
X185242977Y-152564112D01*
X185128960Y-152582661D01*
X185008175Y-152602569D01*
X184415365Y-152700902D01*
X184155927Y-152552900D01*
X184109144Y-152526263D01*
X184040578Y-152487424D01*
X183981791Y-152454371D01*
X183935858Y-152428820D01*
X183905851Y-152412487D01*
X183894845Y-152407090D01*
X183894629Y-152410924D01*
X183893998Y-152436377D01*
X183893100Y-152483695D01*
X183891972Y-152550551D01*
X183890649Y-152634617D01*
X183889168Y-152733567D01*
X183887564Y-152845073D01*
X183885875Y-152966810D01*
X183884135Y-153096450D01*
X183875068Y-153783617D01*
X181853991Y-153783617D01*
X181858276Y-153615028D01*
X181863517Y-153406196D01*
X181869285Y-153174291D01*
X181875617Y-152918130D01*
X181880133Y-152734775D01*
X181885059Y-152533435D01*
X181888665Y-152383840D01*
X184031135Y-152383840D01*
X184225215Y-152495150D01*
X184228300Y-152496919D01*
X184305307Y-152540214D01*
X184364163Y-152571232D01*
X184407999Y-152591420D01*
X184439944Y-152602224D01*
X184463128Y-152605090D01*
X184480053Y-152603336D01*
X184518077Y-152597976D01*
X184572614Y-152589607D01*
X184640194Y-152578818D01*
X184717349Y-152566200D01*
X184800609Y-152552342D01*
X184886506Y-152537836D01*
X184971571Y-152523272D01*
X185052336Y-152509240D01*
X185125330Y-152496331D01*
X185187086Y-152485135D01*
X185234135Y-152476241D01*
X185263007Y-152470242D01*
X185270234Y-152467726D01*
X185263684Y-152468086D01*
X185234485Y-152471075D01*
X185185018Y-152476724D01*
X185118367Y-152484662D01*
X185037611Y-152494522D01*
X184945832Y-152505933D01*
X184846111Y-152518528D01*
X184434709Y-152570873D01*
X184347004Y-152509159D01*
X184287470Y-152467506D01*
X184274708Y-152458842D01*
X185305482Y-152458842D01*
X185305679Y-152463184D01*
X185322179Y-152465523D01*
X185334683Y-152463486D01*
X185329865Y-152457838D01*
X185322508Y-152455805D01*
X185305482Y-152458842D01*
X184274708Y-152458842D01*
X184233824Y-152431086D01*
X184193599Y-152405983D01*
X184162923Y-152390255D01*
X184137927Y-152381959D01*
X184114740Y-152379153D01*
X184089491Y-152379892D01*
X184031135Y-152383840D01*
X181888665Y-152383840D01*
X181889366Y-152354750D01*
X181893068Y-152197190D01*
X181896176Y-152059230D01*
X181898702Y-151939342D01*
X181900659Y-151836000D01*
X181902059Y-151747677D01*
X181902914Y-151672844D01*
X181903236Y-151609977D01*
X181903038Y-151557546D01*
X181902331Y-151514026D01*
X181901128Y-151477890D01*
X181899440Y-151447610D01*
X181897281Y-151421660D01*
X181894663Y-151398513D01*
X181891596Y-151376640D01*
X181888095Y-151354517D01*
X181857023Y-151206768D01*
X181794542Y-151014287D01*
X181707605Y-150826077D01*
X181595762Y-150641035D01*
X181579390Y-150617923D01*
X181526795Y-150551445D01*
X181460804Y-150475709D01*
X181386029Y-150395444D01*
X181307081Y-150315380D01*
X181228573Y-150240247D01*
X181155115Y-150174774D01*
X181091319Y-150123690D01*
X180878631Y-149981548D01*
X180644101Y-149854508D01*
X180396912Y-149748967D01*
X180138148Y-149665326D01*
X179868889Y-149603987D01*
X179590217Y-149565355D01*
X179493648Y-149558271D01*
X179382516Y-149556424D01*
X179268322Y-149562032D01*
X179144103Y-149575470D01*
X179002896Y-149597116D01*
X178922459Y-149611808D01*
X178681022Y-149668625D01*
X178453370Y-149741755D01*
X178240686Y-149830447D01*
X178044156Y-149933953D01*
X177864964Y-150051519D01*
X177704294Y-150182398D01*
X177563331Y-150325837D01*
X177443259Y-150481086D01*
X177345263Y-150647396D01*
X177316162Y-150708283D01*
X177259385Y-150854556D01*
X177218244Y-151008689D01*
X177191609Y-151175493D01*
X177178354Y-151359783D01*
X177177450Y-151386106D01*
X177175003Y-151465758D01*
X177172353Y-151562505D01*
X177169537Y-151674324D01*
X177166589Y-151799187D01*
X177163546Y-151935070D01*
X177160445Y-152079948D01*
X177157320Y-152231795D01*
X177154208Y-152388586D01*
X177151144Y-152548295D01*
X177148165Y-152708897D01*
X177145307Y-152868367D01*
X177142605Y-153024680D01*
X177140095Y-153175809D01*
X177137814Y-153319731D01*
X177135797Y-153454418D01*
X177134080Y-153577847D01*
X177132699Y-153687991D01*
X177131690Y-153782826D01*
X177131089Y-153860325D01*
X177130931Y-153918465D01*
X176451268Y-153918465D01*
X176400511Y-153866791D01*
X176335610Y-153765042D01*
X176289552Y-153646797D01*
X176286971Y-153637515D01*
X176282150Y-153616281D01*
X176278487Y-153591695D01*
X176275945Y-153561000D01*
X176274486Y-153521434D01*
X176274073Y-153470239D01*
X176274671Y-153404654D01*
X176276242Y-153321921D01*
X176278748Y-153219278D01*
X176282154Y-153093968D01*
X176282652Y-153075903D01*
X176284975Y-152987189D01*
X176287720Y-152876309D01*
X176290830Y-152745892D01*
X176294246Y-152598565D01*
X176297909Y-152436956D01*
X176301761Y-152263693D01*
X176305743Y-152081404D01*
X176309796Y-151892716D01*
X176313862Y-151700259D01*
X176317883Y-151506658D01*
X176321800Y-151314543D01*
X176348007Y-150016265D01*
X176237710Y-149838884D01*
X176168326Y-149728531D01*
X176049556Y-149545494D01*
X175935187Y-149376693D01*
X175826488Y-149223893D01*
X175724729Y-149088859D01*
X175631179Y-148973356D01*
X175547110Y-148879149D01*
X175506093Y-148836181D01*
X175475941Y-148805765D01*
X175457597Y-148790093D01*
X175448088Y-148787248D01*
X175444444Y-148795311D01*
X175443691Y-148812362D01*
X175443622Y-148815418D01*
X175440222Y-148842600D01*
X175433564Y-148853833D01*
X175422273Y-148852595D01*
X175390084Y-148848056D01*
X175342882Y-148840957D01*
X175286221Y-148832118D01*
X175148419Y-148810276D01*
X175156742Y-148752484D01*
X175158898Y-148738038D01*
X175165832Y-148696466D01*
X175171892Y-148666068D01*
X175173928Y-148652970D01*
X175468548Y-148652970D01*
X175468919Y-148654347D01*
X175480433Y-148670990D01*
X175505652Y-148701368D01*
X175541314Y-148741668D01*
X175584158Y-148788080D01*
X175595147Y-148799873D01*
X175670225Y-148885369D01*
X175754372Y-148988448D01*
X175844688Y-149105134D01*
X175938277Y-149231449D01*
X176032240Y-149363415D01*
X176123681Y-149497054D01*
X176209700Y-149628389D01*
X176287401Y-149753441D01*
X176289768Y-149757361D01*
X176314204Y-149796383D01*
X176333987Y-149825551D01*
X176345030Y-149838808D01*
X176345686Y-149838177D01*
X176348155Y-149820515D01*
X176350814Y-149780852D01*
X176353562Y-149721864D01*
X176356300Y-149646224D01*
X176358928Y-149556609D01*
X176361346Y-149455693D01*
X176363453Y-149346152D01*
X176365013Y-149256290D01*
X176366200Y-149190818D01*
X181346906Y-149190818D01*
X181347147Y-149206189D01*
X181349634Y-149252321D01*
X181353962Y-149287443D01*
X181359172Y-149308701D01*
X181364302Y-149313246D01*
X181368391Y-149298224D01*
X181370480Y-149260785D01*
X181371658Y-149247903D01*
X181461042Y-149247903D01*
X181462979Y-149316080D01*
X181463943Y-149334653D01*
X181472393Y-149417665D01*
X181488996Y-149483735D01*
X181516968Y-149539674D01*
X181559528Y-149592298D01*
X181619893Y-149648419D01*
X181668488Y-149689906D01*
X181755145Y-149763631D01*
X181847505Y-149841939D01*
X181942781Y-149922487D01*
X182038186Y-150002935D01*
X182130936Y-150080939D01*
X182218245Y-150154159D01*
X182297325Y-150220253D01*
X182365392Y-150276878D01*
X182419659Y-150321693D01*
X182457340Y-150352356D01*
X182497515Y-150384162D01*
X182658024Y-150502468D01*
X182812247Y-150600463D01*
X182964551Y-150679981D01*
X183119304Y-150742857D01*
X183280871Y-150790924D01*
X183453621Y-150826018D01*
X183641920Y-150849972D01*
X183658793Y-150851527D01*
X183733115Y-150857160D01*
X183816442Y-150861917D01*
X183904475Y-150865708D01*
X183992913Y-150868445D01*
X184077458Y-150870041D01*
X184153809Y-150870408D01*
X184217667Y-150869458D01*
X184264731Y-150867102D01*
X184290701Y-150863253D01*
X184314790Y-150854113D01*
X184356698Y-150827329D01*
X184391522Y-150784436D01*
X184400839Y-150769627D01*
X184410011Y-150752339D01*
X184417007Y-150733319D01*
X184421673Y-150710438D01*
X184423856Y-150681569D01*
X184423403Y-150644581D01*
X184420160Y-150597347D01*
X184413973Y-150537738D01*
X184404690Y-150463625D01*
X184392158Y-150372880D01*
X184376222Y-150263373D01*
X184356729Y-150132976D01*
X184333526Y-149979561D01*
X184312779Y-149842418D01*
X184292607Y-149709604D01*
X184275276Y-149598163D01*
X184260166Y-149506107D01*
X184246656Y-149431446D01*
X184234124Y-149372193D01*
X184221951Y-149326358D01*
X184209515Y-149291954D01*
X184196197Y-149266990D01*
X184181374Y-149249479D01*
X184164427Y-149237432D01*
X184144734Y-149228860D01*
X184121676Y-149221774D01*
X184094630Y-149214186D01*
X184075387Y-149208833D01*
X184046912Y-149202826D01*
X184017780Y-149200574D01*
X183981876Y-149202153D01*
X183933086Y-149207642D01*
X183865295Y-149217120D01*
X183838242Y-149220807D01*
X183694077Y-149234164D01*
X183536298Y-149239861D01*
X183373724Y-149237961D01*
X183215174Y-149228523D01*
X183069466Y-149211609D01*
X183014527Y-149202906D01*
X182890440Y-149180134D01*
X182765607Y-149152522D01*
X182636346Y-149119014D01*
X182498972Y-149078549D01*
X182349800Y-149030071D01*
X182185146Y-148972521D01*
X182001326Y-148904842D01*
X181974311Y-148894725D01*
X181895167Y-148865629D01*
X181834968Y-148844719D01*
X181790107Y-148830972D01*
X181756976Y-148823359D01*
X181731968Y-148820858D01*
X181711477Y-148822441D01*
X181670180Y-148835735D01*
X181614229Y-148874127D01*
X181562843Y-148932886D01*
X181518460Y-149009047D01*
X181483516Y-149099646D01*
X181483050Y-149101186D01*
X181470189Y-149149822D01*
X181463149Y-149195605D01*
X181461042Y-149247903D01*
X181371658Y-149247903D01*
X181379299Y-149164351D01*
X181404227Y-149063005D01*
X181442987Y-148969061D01*
X181493373Y-148886097D01*
X181553180Y-148817689D01*
X181620203Y-148767415D01*
X181692236Y-148738851D01*
X181763385Y-148722928D01*
X182053871Y-148831441D01*
X182104396Y-148850219D01*
X182280851Y-148913973D01*
X182439295Y-148967899D01*
X182583545Y-149013085D01*
X182717416Y-149050617D01*
X182844723Y-149081584D01*
X182969282Y-149107073D01*
X183094908Y-149128171D01*
X183110361Y-149130411D01*
X183225156Y-149142454D01*
X183355224Y-149149563D01*
X183492520Y-149151734D01*
X183628997Y-149148962D01*
X183756611Y-149141243D01*
X183867316Y-149128574D01*
X183868448Y-149128402D01*
X183942580Y-149118209D01*
X183998031Y-149113405D01*
X184040842Y-149113707D01*
X184077054Y-149118836D01*
X184097843Y-149122927D01*
X184128407Y-149127355D01*
X184142500Y-149126999D01*
X184143010Y-149126325D01*
X184136170Y-149115857D01*
X184112299Y-149100640D01*
X184077790Y-149083824D01*
X184039037Y-149068560D01*
X184002438Y-149057997D01*
X183987466Y-149055214D01*
X183943513Y-149051807D01*
X183889154Y-149054647D01*
X183817322Y-149063962D01*
X183804988Y-149065812D01*
X183608775Y-149087308D01*
X183410443Y-149093736D01*
X183207659Y-149084743D01*
X182998095Y-149059977D01*
X182779418Y-149019084D01*
X182549299Y-148961714D01*
X182305406Y-148887514D01*
X182045409Y-148796131D01*
X182001956Y-148779941D01*
X181908207Y-148744990D01*
X181834424Y-148717641D01*
X181777793Y-148697086D01*
X181735501Y-148682519D01*
X181704734Y-148673133D01*
X181682679Y-148668122D01*
X181666522Y-148666679D01*
X181653449Y-148667997D01*
X181640648Y-148671270D01*
X181625304Y-148675692D01*
X181596462Y-148685202D01*
X181563395Y-148703508D01*
X181532786Y-148732095D01*
X181500291Y-148775249D01*
X181461566Y-148837258D01*
X181441670Y-148871963D01*
X181388080Y-148985104D01*
X181356733Y-149090644D01*
X181346906Y-149190818D01*
X176366200Y-149190818D01*
X176367453Y-149121673D01*
X176370066Y-148983409D01*
X176372737Y-148847316D01*
X176375350Y-148719212D01*
X176377791Y-148604912D01*
X176379945Y-148510234D01*
X176387965Y-148173122D01*
X176260343Y-148137040D01*
X176224086Y-148126267D01*
X176147640Y-148101408D01*
X176067127Y-148073089D01*
X175994929Y-148045575D01*
X175942520Y-148024797D01*
X175897480Y-148007514D01*
X175866531Y-147996299D01*
X175854405Y-147992924D01*
X175854225Y-147993330D01*
X175850590Y-148009480D01*
X175843264Y-148046261D01*
X175832983Y-148099840D01*
X175820483Y-148166384D01*
X175806503Y-148242060D01*
X175791497Y-148319927D01*
X175775680Y-148394260D01*
X175760839Y-148456632D01*
X175748017Y-148502661D01*
X175738263Y-148527964D01*
X175727185Y-148544075D01*
X175680664Y-148585130D01*
X175617001Y-148615533D01*
X175541695Y-148632364D01*
X175509853Y-148637235D01*
X175480053Y-148645086D01*
X175468548Y-148652970D01*
X175173928Y-148652970D01*
X175174157Y-148651495D01*
X175166706Y-148640011D01*
X175140294Y-148637446D01*
X175114565Y-148634617D01*
X175101470Y-148621180D01*
X175093956Y-148589741D01*
X175091444Y-148568415D01*
X175087735Y-148523338D01*
X175083652Y-148462284D01*
X175079540Y-148390456D01*
X175075741Y-148313055D01*
X175071786Y-148177353D01*
X175159642Y-148177353D01*
X175160672Y-148275117D01*
X175163762Y-148365671D01*
X175169010Y-148443447D01*
X175178608Y-148548397D01*
X175364922Y-148547250D01*
X175389043Y-148547010D01*
X175457297Y-148545360D01*
X175517472Y-148542548D01*
X175563780Y-148538894D01*
X175590434Y-148534721D01*
X175602627Y-148530944D01*
X175624048Y-148521789D01*
X175641661Y-148508267D01*
X175656608Y-148487418D01*
X175670032Y-148456279D01*
X175683076Y-148411890D01*
X175696884Y-148351291D01*
X175712597Y-148271519D01*
X175731359Y-148169613D01*
X175741554Y-148113549D01*
X175756523Y-148031806D01*
X175769850Y-147959701D01*
X175780817Y-147901084D01*
X175788709Y-147859804D01*
X175792807Y-147839713D01*
X175793234Y-147828925D01*
X175786779Y-147815188D01*
X175770221Y-147797581D01*
X175740752Y-147773605D01*
X175695565Y-147740765D01*
X175631850Y-147696561D01*
X175557496Y-147646968D01*
X175482384Y-147601363D01*
X175650413Y-147601363D01*
X175650565Y-147601464D01*
X175662591Y-147610104D01*
X175689350Y-147629513D01*
X175725406Y-147655749D01*
X175764666Y-147682986D01*
X175809389Y-147711328D01*
X175844383Y-147730709D01*
X175890960Y-147752920D01*
X175882793Y-147825106D01*
X175882361Y-147828925D01*
X175874626Y-147897293D01*
X175948273Y-147931533D01*
X175951906Y-147933198D01*
X175994699Y-147951044D01*
X176053596Y-147973560D01*
X176121308Y-147998031D01*
X176190548Y-148021743D01*
X176210547Y-148028355D01*
X176270200Y-148047752D01*
X176319860Y-148063420D01*
X176354820Y-148073896D01*
X176370376Y-148077713D01*
X176370880Y-148077615D01*
X176374530Y-148070363D01*
X176377974Y-148050762D01*
X176381007Y-148020105D01*
X179024592Y-148020105D01*
X179026246Y-148036168D01*
X179036197Y-148071315D01*
X179065805Y-148142391D01*
X179087914Y-148173122D01*
X179121469Y-148219762D01*
X179200440Y-148289889D01*
X179204589Y-148292937D01*
X179241751Y-148319211D01*
X179270513Y-148337804D01*
X179284947Y-148344858D01*
X179286466Y-148343852D01*
X179386678Y-148343852D01*
X179386732Y-148353232D01*
X179390039Y-148382100D01*
X179403575Y-148397142D01*
X179434382Y-148407795D01*
X179456682Y-148413300D01*
X179514186Y-148418665D01*
X179570498Y-148407887D01*
X179634824Y-148379675D01*
X179662149Y-148362788D01*
X179705580Y-148325431D01*
X179742605Y-148281531D01*
X179769650Y-148236420D01*
X179783140Y-148195429D01*
X179779499Y-148163891D01*
X179772140Y-148153800D01*
X179740324Y-148128817D01*
X179694818Y-148105957D01*
X179643656Y-148089614D01*
X179584307Y-148087157D01*
X179524897Y-148108978D01*
X179469382Y-148155697D01*
X179428826Y-148207619D01*
X179396901Y-148274224D01*
X179386678Y-148343852D01*
X179286466Y-148343852D01*
X179294825Y-148338317D01*
X179305773Y-148314738D01*
X179310475Y-148283392D01*
X179313683Y-148263674D01*
X179329740Y-148221444D01*
X179355455Y-148172799D01*
X179386494Y-148125584D01*
X179418528Y-148087646D01*
X179418728Y-148087448D01*
X179482146Y-148037479D01*
X179549461Y-148010119D01*
X179622887Y-148005219D01*
X179704641Y-148022629D01*
X179796937Y-148062201D01*
X179798077Y-148061773D01*
X179801323Y-148045773D01*
X179803497Y-148011435D01*
X179804624Y-147964250D01*
X179804731Y-147909711D01*
X179803840Y-147853313D01*
X179802044Y-147802466D01*
X184146121Y-147802466D01*
X184149030Y-147807721D01*
X184168484Y-147821758D01*
X184199759Y-147839129D01*
X184235414Y-147856127D01*
X184268005Y-147869044D01*
X184290088Y-147874173D01*
X184305635Y-147869626D01*
X184339607Y-147856059D01*
X184386419Y-147835642D01*
X184440875Y-147810567D01*
X184491931Y-147787047D01*
X184539602Y-147766241D01*
X184574848Y-147752148D01*
X184592433Y-147746961D01*
X184592526Y-147746964D01*
X184607903Y-147751836D01*
X184644416Y-147765355D01*
X184699699Y-147786589D01*
X184771385Y-147814610D01*
X184857107Y-147848487D01*
X184954499Y-147887288D01*
X185010404Y-147909711D01*
X185061194Y-147930084D01*
X185174825Y-147975943D01*
X185179340Y-147977771D01*
X185292331Y-148023438D01*
X185397942Y-148065997D01*
X185493858Y-148104523D01*
X185577768Y-148138093D01*
X185647357Y-148165784D01*
X185700313Y-148186673D01*
X185734322Y-148199836D01*
X185747071Y-148204351D01*
X185748187Y-148204049D01*
X185766397Y-148197240D01*
X185803688Y-148182562D01*
X185856445Y-148161460D01*
X185921049Y-148135379D01*
X185993886Y-148105761D01*
X186055564Y-148080153D01*
X186127610Y-148048535D01*
X186175643Y-148025041D01*
X186199777Y-148009839D01*
X186200126Y-148003103D01*
X186176807Y-148005001D01*
X186129932Y-148015706D01*
X186059618Y-148035387D01*
X185965979Y-148064216D01*
X185917025Y-148079601D01*
X185853205Y-148099088D01*
X185800165Y-148114616D01*
X185762378Y-148124886D01*
X185744318Y-148128598D01*
X185736308Y-148126144D01*
X185706812Y-148114166D01*
X185658393Y-148093204D01*
X185593491Y-148064354D01*
X185514546Y-148028712D01*
X185423998Y-147987375D01*
X185324286Y-147941439D01*
X185217850Y-147892000D01*
X185152501Y-147861536D01*
X185046524Y-147812175D01*
X184947150Y-147765943D01*
X184857121Y-147724112D01*
X184779179Y-147687955D01*
X184716065Y-147658744D01*
X184670521Y-147637752D01*
X184645289Y-147626251D01*
X184580077Y-147597099D01*
X184364623Y-147694293D01*
X184297010Y-147725278D01*
X184237288Y-147753585D01*
X184189771Y-147777103D01*
X184158153Y-147794006D01*
X184146121Y-147802466D01*
X179802044Y-147802466D01*
X179801976Y-147800546D01*
X179799165Y-147756904D01*
X179796405Y-147735447D01*
X184064627Y-147735447D01*
X184139501Y-147702350D01*
X184153308Y-147696239D01*
X184199737Y-147675643D01*
X184260429Y-147648678D01*
X184329077Y-147618147D01*
X184399373Y-147586854D01*
X184584371Y-147504455D01*
X185159132Y-147772002D01*
X185179196Y-147781335D01*
X185291746Y-147833426D01*
X185397351Y-147881874D01*
X185493714Y-147925654D01*
X185578537Y-147963739D01*
X185649524Y-147995104D01*
X185704376Y-148018725D01*
X185740796Y-148033575D01*
X185756488Y-148038629D01*
X185763169Y-148037568D01*
X185792621Y-148030103D01*
X185839057Y-148016709D01*
X185897642Y-147998808D01*
X185963540Y-147977820D01*
X186147997Y-147917932D01*
X186151291Y-147253632D01*
X186151535Y-147202340D01*
X186152044Y-147077916D01*
X186152399Y-146962442D01*
X186152600Y-146858273D01*
X186152646Y-146767765D01*
X186152539Y-146693275D01*
X186152277Y-146637158D01*
X186151861Y-146601771D01*
X186151291Y-146589470D01*
X186141191Y-146592444D01*
X186110388Y-146602061D01*
X186062780Y-146617122D01*
X186002291Y-146636384D01*
X185932849Y-146658604D01*
X185717701Y-146727602D01*
X185122913Y-146373804D01*
X184528124Y-146020007D01*
X184314004Y-146079949D01*
X184099883Y-146139889D01*
X184091950Y-146450479D01*
X184090549Y-146506720D01*
X184088113Y-146609145D01*
X184085402Y-146727589D01*
X184082543Y-146856388D01*
X184079659Y-146989876D01*
X184078358Y-147051861D01*
X184076877Y-147122388D01*
X184074321Y-147248258D01*
X184067739Y-147579058D01*
X184064627Y-147735447D01*
X179796405Y-147735447D01*
X179795432Y-147727880D01*
X179793239Y-147719358D01*
X179783678Y-147700853D01*
X179764553Y-147683135D01*
X179731278Y-147662554D01*
X179679266Y-147635461D01*
X179571135Y-147581205D01*
X179564775Y-147750599D01*
X179564538Y-147756803D01*
X179560388Y-147835694D01*
X179553886Y-147894095D01*
X179543406Y-147936634D01*
X179527324Y-147967941D01*
X179504015Y-147992648D01*
X179471855Y-148015382D01*
X179466967Y-148018298D01*
X179413354Y-148034973D01*
X179355255Y-148029529D01*
X179299124Y-148002450D01*
X179261263Y-147975490D01*
X179212660Y-148008517D01*
X179167069Y-148030054D01*
X179103759Y-148037044D01*
X179040250Y-148021357D01*
X179031650Y-148018018D01*
X179024592Y-148020105D01*
X176381007Y-148020105D01*
X176381253Y-148017623D01*
X176384406Y-147969754D01*
X176387475Y-147905965D01*
X176388140Y-147888165D01*
X179029797Y-147888165D01*
X179067326Y-147925693D01*
X179087828Y-147945469D01*
X179109301Y-147959458D01*
X179130316Y-147958085D01*
X179160877Y-147943225D01*
X179195860Y-147924246D01*
X179195860Y-147885600D01*
X179284908Y-147885600D01*
X179327453Y-147918050D01*
X179329817Y-147919835D01*
X179375787Y-147945250D01*
X179415206Y-147946950D01*
X179450284Y-147925058D01*
X179457022Y-147917574D01*
X179465373Y-147902996D01*
X179470813Y-147881592D01*
X179473947Y-147848709D01*
X179475383Y-147799693D01*
X179475726Y-147729893D01*
X179475726Y-147560171D01*
X179428022Y-147546253D01*
X179426679Y-147545863D01*
X179379441Y-147533693D01*
X179332613Y-147523742D01*
X179284908Y-147515148D01*
X179284908Y-147700374D01*
X179284908Y-147714145D01*
X179284908Y-147885600D01*
X179195860Y-147885600D01*
X179195860Y-147714145D01*
X179195860Y-147504045D01*
X179116352Y-147507832D01*
X179036845Y-147511619D01*
X179033321Y-147699892D01*
X179029797Y-147888165D01*
X176388140Y-147888165D01*
X176390499Y-147825067D01*
X176393520Y-147725869D01*
X176396577Y-147607181D01*
X176399712Y-147467813D01*
X176402099Y-147349445D01*
X178816356Y-147349445D01*
X178820339Y-147396194D01*
X178830933Y-147438078D01*
X178846011Y-147468239D01*
X178863444Y-147479816D01*
X178876818Y-147476788D01*
X178908062Y-147467171D01*
X178948985Y-147453251D01*
X178964204Y-147448036D01*
X178996581Y-147438821D01*
X179029798Y-147433252D01*
X179069993Y-147430839D01*
X179123301Y-147431091D01*
X179195860Y-147433517D01*
X179330540Y-147443917D01*
X179467282Y-147468023D01*
X179595801Y-147507081D01*
X179717365Y-147560171D01*
X179723790Y-147562977D01*
X179756339Y-147578885D01*
X179802051Y-147600062D01*
X179836474Y-147614560D01*
X179853940Y-147619898D01*
X179870461Y-147608733D01*
X179878269Y-147579058D01*
X179876763Y-147536428D01*
X179865465Y-147486396D01*
X179823296Y-147387834D01*
X179760588Y-147300007D01*
X179676783Y-147224040D01*
X179570484Y-147158378D01*
X179564557Y-147155330D01*
X179540441Y-147145639D01*
X179524964Y-147151355D01*
X179506949Y-147175489D01*
X179503542Y-147180406D01*
X179476778Y-147205594D01*
X179441369Y-147212634D01*
X179431079Y-147212462D01*
X179354499Y-147202831D01*
X179270988Y-147180513D01*
X179191711Y-147148380D01*
X179117595Y-147111964D01*
X179008455Y-147148639D01*
X178939984Y-147174448D01*
X178884631Y-147204052D01*
X178848024Y-147237734D01*
X178826680Y-147278802D01*
X178817121Y-147330567D01*
X178816356Y-147349445D01*
X176402099Y-147349445D01*
X176402964Y-147306574D01*
X176406375Y-147122274D01*
X176408718Y-146986892D01*
X179147392Y-146986892D01*
X179151466Y-147009708D01*
X179175815Y-147039674D01*
X179217652Y-147069105D01*
X179272983Y-147094579D01*
X179318781Y-147110071D01*
X179379193Y-147125070D01*
X179423552Y-147128540D01*
X179448783Y-147120035D01*
X179450837Y-147117664D01*
X179460758Y-147090057D01*
X179462276Y-147051861D01*
X179454716Y-147015054D01*
X179454506Y-147014530D01*
X179435567Y-146994088D01*
X179399534Y-146972387D01*
X179354103Y-146952766D01*
X179306969Y-146938563D01*
X179265827Y-146933116D01*
X179248530Y-146933785D01*
X179199968Y-146943323D01*
X179164184Y-146961966D01*
X179147392Y-146986892D01*
X176408718Y-146986892D01*
X176409985Y-146913723D01*
X176412094Y-146790859D01*
X176414524Y-146654992D01*
X176416922Y-146526505D01*
X176419234Y-146407978D01*
X176421409Y-146301992D01*
X176423392Y-146211125D01*
X176425130Y-146137958D01*
X176426571Y-146085070D01*
X176427661Y-146055042D01*
X176432485Y-145959633D01*
X176176792Y-145959833D01*
X175921100Y-145960033D01*
X175784461Y-146779879D01*
X175775173Y-146835648D01*
X175752210Y-146973874D01*
X175730730Y-147103674D01*
X175711071Y-147222966D01*
X175693574Y-147329667D01*
X175678578Y-147421691D01*
X175666425Y-147496956D01*
X175657453Y-147553379D01*
X175652002Y-147588876D01*
X175650413Y-147601363D01*
X175482384Y-147601363D01*
X175481076Y-147600569D01*
X175419124Y-147569445D01*
X175369222Y-147552595D01*
X175328950Y-147549019D01*
X175295890Y-147557718D01*
X175269752Y-147576018D01*
X175233979Y-147623346D01*
X175203945Y-147692365D01*
X175180721Y-147781001D01*
X175174142Y-147825556D01*
X175167920Y-147896480D01*
X175163364Y-147982466D01*
X175160572Y-148077946D01*
X175159642Y-148177353D01*
X175071786Y-148177353D01*
X175071071Y-148152835D01*
X175073102Y-147990604D01*
X175083241Y-147851368D01*
X175101682Y-147734466D01*
X175128619Y-147639233D01*
X175164246Y-147565006D01*
X175208758Y-147511123D01*
X175262349Y-147476920D01*
X175325212Y-147461735D01*
X175373139Y-147457552D01*
X175502153Y-146689511D01*
X175504269Y-146676915D01*
X175527021Y-146541252D01*
X175548390Y-146413485D01*
X175568020Y-146295762D01*
X175585555Y-146190232D01*
X175600641Y-146099045D01*
X175612920Y-146024350D01*
X175622037Y-145968297D01*
X175627638Y-145933033D01*
X175629365Y-145920709D01*
X175613155Y-145915983D01*
X175579448Y-145907399D01*
X175534302Y-145896388D01*
X175483741Y-145884366D01*
X175433790Y-145872751D01*
X175390472Y-145862958D01*
X175359813Y-145856405D01*
X175347837Y-145854508D01*
X175347505Y-145855540D01*
X175342273Y-145874414D01*
X175331076Y-145915710D01*
X175314370Y-145977726D01*
X175292612Y-146058759D01*
X175266256Y-146157107D01*
X175235759Y-146271066D01*
X175201576Y-146398934D01*
X175164163Y-146539008D01*
X175123976Y-146689586D01*
X175081471Y-146848966D01*
X175037102Y-147015443D01*
X175025063Y-147060619D01*
X174981079Y-147225453D01*
X174939013Y-147382776D01*
X174899325Y-147530881D01*
X174862477Y-147668060D01*
X174828931Y-147792604D01*
X174799147Y-147902805D01*
X174773588Y-147996957D01*
X174752714Y-148073350D01*
X174736987Y-148130277D01*
X174726868Y-148166030D01*
X174722819Y-148178901D01*
X174719664Y-148179412D01*
X174697529Y-148176499D01*
X174659999Y-148169007D01*
X174613509Y-148158487D01*
X174564496Y-148146490D01*
X174519394Y-148134568D01*
X174484638Y-148124272D01*
X174466664Y-148117153D01*
X174466505Y-148114330D01*
X174470692Y-148091044D01*
X174480840Y-148045848D01*
X174496480Y-147980589D01*
X174517144Y-147897115D01*
X174542363Y-147797276D01*
X174571668Y-147682918D01*
X174604590Y-147555889D01*
X174640660Y-147418038D01*
X174679410Y-147271213D01*
X174720369Y-147117262D01*
X174729792Y-147081984D01*
X174772213Y-146923134D01*
X174813630Y-146768007D01*
X174853423Y-146618919D01*
X174890976Y-146478189D01*
X174925669Y-146348134D01*
X174956884Y-146231071D01*
X174984004Y-146129318D01*
X175006410Y-146045192D01*
X175023485Y-145981011D01*
X175034609Y-145939093D01*
X175083813Y-145753178D01*
X174900584Y-145673461D01*
X174830600Y-145642391D01*
X174762853Y-145608895D01*
X174714631Y-145577702D01*
X174683593Y-145545020D01*
X174667396Y-145507058D01*
X174667077Y-145503003D01*
X174764931Y-145503003D01*
X174770252Y-145514821D01*
X174772451Y-145516667D01*
X174794933Y-145530105D01*
X174834783Y-145550533D01*
X174887099Y-145575517D01*
X174946978Y-145602620D01*
X175105993Y-145672738D01*
X175118715Y-145629589D01*
X175120005Y-145625310D01*
X175130869Y-145594978D01*
X175139878Y-145578016D01*
X175145754Y-145577618D01*
X175171364Y-145581434D01*
X175211252Y-145589491D01*
X175259030Y-145600271D01*
X175308311Y-145612251D01*
X175352707Y-145623915D01*
X175385831Y-145633740D01*
X175401295Y-145640209D01*
X175401133Y-145644727D01*
X175395944Y-145667441D01*
X175386097Y-145702306D01*
X175380572Y-145722961D01*
X175375591Y-145753290D01*
X175377867Y-145767806D01*
X175381517Y-145769301D01*
X175405036Y-145776420D01*
X175444045Y-145787112D01*
X175491999Y-145799680D01*
X175542349Y-145812425D01*
X175588547Y-145823649D01*
X175624046Y-145831654D01*
X175632005Y-145832149D01*
X175645248Y-145821300D01*
X175653779Y-145789798D01*
X175656677Y-145772887D01*
X175665080Y-145731636D01*
X175673662Y-145709464D01*
X175685060Y-145701641D01*
X175701909Y-145703438D01*
X175708694Y-145704918D01*
X175740953Y-145710723D01*
X175787905Y-145718277D01*
X175841919Y-145726331D01*
X175954506Y-145742478D01*
X175946476Y-145803010D01*
X175943961Y-145823441D01*
X175943176Y-145850700D01*
X175950248Y-145863645D01*
X175967462Y-145869513D01*
X175996246Y-145873210D01*
X176044211Y-145876631D01*
X176104145Y-145879422D01*
X176169822Y-145881438D01*
X176235014Y-145882533D01*
X176293491Y-145882560D01*
X176339027Y-145881374D01*
X176365393Y-145878829D01*
X176394164Y-145867855D01*
X176403225Y-145850319D01*
X176388706Y-145827528D01*
X176351219Y-145799850D01*
X176291371Y-145767655D01*
X176209771Y-145731312D01*
X176107031Y-145691189D01*
X175983756Y-145647656D01*
X175930333Y-145629999D01*
X175720422Y-145569694D01*
X175515702Y-145526699D01*
X175307077Y-145499376D01*
X175085451Y-145486090D01*
X175023695Y-145484479D01*
X174928882Y-145483232D01*
X174857103Y-145484323D01*
X174806853Y-145487891D01*
X174776630Y-145494072D01*
X174764931Y-145503003D01*
X174667077Y-145503003D01*
X174663697Y-145460024D01*
X174670153Y-145400126D01*
X174671141Y-145394827D01*
X174758400Y-145394827D01*
X174761969Y-145409130D01*
X174776453Y-145410552D01*
X174803865Y-145403584D01*
X174807972Y-145402557D01*
X174847816Y-145397703D01*
X174907696Y-145395721D01*
X174983096Y-145396404D01*
X175069502Y-145399545D01*
X175162400Y-145404936D01*
X175257277Y-145412370D01*
X175349617Y-145421641D01*
X175434907Y-145432540D01*
X175526195Y-145447288D01*
X175720085Y-145487486D01*
X175912609Y-145538528D01*
X176091969Y-145597454D01*
X176142169Y-145616447D01*
X176214815Y-145645559D01*
X176283234Y-145674613D01*
X176337512Y-145699491D01*
X176340981Y-145701177D01*
X176394150Y-145725007D01*
X176427925Y-145735700D01*
X176441309Y-145732936D01*
X176442739Y-145727782D01*
X176449563Y-145700640D01*
X176458316Y-145663783D01*
X176462006Y-145647191D01*
X176464928Y-145619482D01*
X176456698Y-145601713D01*
X176434205Y-145583535D01*
X176425379Y-145577733D01*
X176390127Y-145557640D01*
X176342399Y-145532945D01*
X176289922Y-145507710D01*
X176194473Y-145466217D01*
X176095737Y-145431383D01*
X176378388Y-145431383D01*
X176382421Y-145453160D01*
X176402519Y-145467079D01*
X176405803Y-145468560D01*
X176420819Y-145473270D01*
X176429624Y-145467207D01*
X176435071Y-145445516D01*
X176438112Y-145419591D01*
X176890432Y-145419591D01*
X176890845Y-145527550D01*
X176899767Y-145619482D01*
X176902475Y-145647386D01*
X176923983Y-145772154D01*
X176943115Y-145850319D01*
X176954029Y-145894909D01*
X176975212Y-145959633D01*
X176991273Y-146008704D01*
X177034378Y-146106596D01*
X177085456Y-146190815D01*
X177173662Y-146298630D01*
X177279193Y-146395032D01*
X177397735Y-146476720D01*
X177524974Y-146540393D01*
X177656594Y-146582749D01*
X177711498Y-146592355D01*
X177784615Y-146600420D01*
X177867395Y-146606302D01*
X177952868Y-146609724D01*
X178034062Y-146610410D01*
X178104007Y-146608086D01*
X178155731Y-146602475D01*
X178241431Y-146582429D01*
X178378147Y-146531622D01*
X178504562Y-146461002D01*
X178615385Y-146373209D01*
X178657381Y-146331638D01*
X178730162Y-146246531D01*
X178793596Y-146151406D01*
X178853144Y-146038577D01*
X178853755Y-146037299D01*
X178873735Y-145994200D01*
X178887926Y-145958285D01*
X178897773Y-145923036D01*
X178904717Y-145881935D01*
X178910201Y-145828467D01*
X178915668Y-145756113D01*
X178920895Y-145641471D01*
X178914851Y-145443151D01*
X178888285Y-145251126D01*
X178846075Y-145084198D01*
X180071832Y-145084198D01*
X180074233Y-145185576D01*
X180093694Y-145406280D01*
X180133037Y-145611795D01*
X180142311Y-145641471D01*
X180192811Y-145803068D01*
X180273567Y-145981049D01*
X180375854Y-146146686D01*
X180500222Y-146300926D01*
X180647221Y-146444719D01*
X180817399Y-146579012D01*
X181011308Y-146704753D01*
X181012712Y-146705583D01*
X181100560Y-146753960D01*
X181180685Y-146789277D01*
X181263928Y-146815637D01*
X181361133Y-146837145D01*
X181393121Y-146842467D01*
X181484098Y-146851784D01*
X181583390Y-146855322D01*
X181682705Y-146853168D01*
X181773749Y-146845406D01*
X181848231Y-146832122D01*
X181929565Y-146808097D01*
X182081913Y-146743260D01*
X182226681Y-146654928D01*
X182362793Y-146543917D01*
X182489172Y-146411045D01*
X182604742Y-146257132D01*
X182643572Y-146197530D01*
X182692600Y-146114807D01*
X182731828Y-146035909D01*
X182763441Y-145954989D01*
X182789620Y-145866197D01*
X182812547Y-145763685D01*
X182834406Y-145641603D01*
X182855454Y-145462767D01*
X182858018Y-145268997D01*
X182838382Y-145078207D01*
X182796118Y-144888924D01*
X182730800Y-144699676D01*
X182688366Y-144608555D01*
X184051542Y-144608555D01*
X184131506Y-144644853D01*
X184173948Y-144663028D01*
X184209236Y-144676146D01*
X184229244Y-144681152D01*
X184239682Y-144677718D01*
X184269919Y-144663411D01*
X184315079Y-144639920D01*
X184371139Y-144609352D01*
X184434076Y-144573816D01*
X184621132Y-144466480D01*
X184684899Y-144502538D01*
X184690098Y-144505481D01*
X184721106Y-144523061D01*
X184770636Y-144551167D01*
X184835907Y-144588220D01*
X184914139Y-144632642D01*
X185002551Y-144682854D01*
X185098364Y-144737276D01*
X185198797Y-144794331D01*
X185238728Y-144816997D01*
X185333909Y-144870857D01*
X185421222Y-144920032D01*
X185498295Y-144963200D01*
X185562757Y-144999041D01*
X185612236Y-145026234D01*
X185644361Y-145043458D01*
X185656760Y-145049393D01*
X185660617Y-145048230D01*
X185684461Y-145039581D01*
X185726824Y-145023616D01*
X185784226Y-145001662D01*
X185853184Y-144975046D01*
X185930219Y-144945095D01*
X185945160Y-144939266D01*
X186027381Y-144907088D01*
X186088755Y-144882613D01*
X186131756Y-144864516D01*
X186158859Y-144851477D01*
X186172536Y-144842171D01*
X186175262Y-144835277D01*
X186169510Y-144829471D01*
X186157755Y-144823431D01*
X186144789Y-144818090D01*
X186128812Y-144814969D01*
X186108094Y-144815887D01*
X186078750Y-144821632D01*
X186036899Y-144832992D01*
X185978655Y-144850755D01*
X185900137Y-144875709D01*
X185680611Y-144946028D01*
X185170665Y-144615003D01*
X185169794Y-144614438D01*
X185067185Y-144547916D01*
X184970856Y-144485628D01*
X184882956Y-144428953D01*
X184805635Y-144379268D01*
X184741040Y-144337951D01*
X184691322Y-144306380D01*
X184658628Y-144285933D01*
X184645108Y-144277988D01*
X184644700Y-144277851D01*
X184636866Y-144278370D01*
X184622233Y-144283584D01*
X184598917Y-144294532D01*
X184565033Y-144312249D01*
X184518696Y-144337772D01*
X184458021Y-144372137D01*
X184381124Y-144416382D01*
X184286119Y-144471541D01*
X184171122Y-144538654D01*
X184051542Y-144608555D01*
X182688366Y-144608555D01*
X182643575Y-144512371D01*
X184009460Y-144512371D01*
X184009952Y-144525495D01*
X184010618Y-144525577D01*
X184026471Y-144518827D01*
X184060928Y-144501052D01*
X184111164Y-144473805D01*
X184174352Y-144438636D01*
X184247664Y-144397098D01*
X184328273Y-144350743D01*
X184640528Y-144169924D01*
X185160276Y-144508226D01*
X185169190Y-144514026D01*
X185272607Y-144580943D01*
X185369904Y-144643247D01*
X185458919Y-144699598D01*
X185537491Y-144748658D01*
X185603458Y-144789086D01*
X185654658Y-144819543D01*
X185688929Y-144838690D01*
X185704111Y-144845188D01*
X185709758Y-144844334D01*
X185738466Y-144837251D01*
X185784317Y-144824240D01*
X185842324Y-144806745D01*
X185907505Y-144786211D01*
X186086813Y-144728575D01*
X186095143Y-144461109D01*
X186096278Y-144423779D01*
X186100240Y-144272767D01*
X186102732Y-144137955D01*
X186103766Y-144020661D01*
X186103358Y-143922197D01*
X186101521Y-143843879D01*
X186098268Y-143787022D01*
X186093613Y-143752940D01*
X186087571Y-143742948D01*
X186070633Y-143747823D01*
X186033999Y-143757365D01*
X185983434Y-143770074D01*
X185924456Y-143784542D01*
X185777243Y-143820249D01*
X185186627Y-143423553D01*
X184596010Y-143026858D01*
X184322504Y-143136472D01*
X184276112Y-143155082D01*
X184202957Y-143184503D01*
X184140153Y-143209854D01*
X184091019Y-143229792D01*
X184058874Y-143242973D01*
X184047035Y-143248052D01*
X184046773Y-143249102D01*
X184045371Y-143268252D01*
X184043446Y-143309129D01*
X184041083Y-143368787D01*
X184038368Y-143444278D01*
X184035386Y-143532656D01*
X184032223Y-143630972D01*
X184028965Y-143736280D01*
X184025697Y-143845632D01*
X184022504Y-143956081D01*
X184019473Y-144064680D01*
X184016688Y-144168481D01*
X184014236Y-144264537D01*
X184012202Y-144349902D01*
X184010670Y-144421627D01*
X184009728Y-144476766D01*
X184009460Y-144512371D01*
X182643575Y-144512371D01*
X182642002Y-144508994D01*
X182529296Y-144315406D01*
X182392255Y-144117441D01*
X182370534Y-144088967D01*
X182325206Y-144035527D01*
X182277993Y-143990032D01*
X182223476Y-143948097D01*
X182156236Y-143905335D01*
X182070852Y-143857362D01*
X182028164Y-143835097D01*
X181850412Y-143759107D01*
X181668672Y-143707502D01*
X181484443Y-143680528D01*
X181299224Y-143678428D01*
X181114511Y-143701448D01*
X181052173Y-143714845D01*
X180975039Y-143737410D01*
X180905999Y-143767144D01*
X180836603Y-143807891D01*
X180758406Y-143863495D01*
X180700600Y-143908207D01*
X180550668Y-144038171D01*
X180423495Y-144172337D01*
X180317090Y-144313572D01*
X180229464Y-144464744D01*
X180158626Y-144628719D01*
X180102588Y-144808364D01*
X180098934Y-144822549D01*
X180085060Y-144884283D01*
X180076647Y-144941927D01*
X180072603Y-145005294D01*
X180071832Y-145084198D01*
X178846075Y-145084198D01*
X178840364Y-145061614D01*
X178770252Y-144870833D01*
X178677116Y-144675000D01*
X178660459Y-144644032D01*
X178630874Y-144594877D01*
X178599757Y-144553863D01*
X178560825Y-144513200D01*
X178507794Y-144465099D01*
X178451691Y-144417892D01*
X178347213Y-144341592D01*
X178247291Y-144285239D01*
X178148229Y-144246585D01*
X178100643Y-144233669D01*
X178055271Y-144226330D01*
X178004461Y-144224319D01*
X177938329Y-144226697D01*
X177860882Y-144234418D01*
X177752951Y-144254305D01*
X177645245Y-144283142D01*
X177553768Y-144315873D01*
X177546143Y-144318602D01*
X177464028Y-144358358D01*
X177405103Y-144398889D01*
X177337744Y-144455560D01*
X177268122Y-144522325D01*
X177201902Y-144593434D01*
X177144746Y-144663135D01*
X177102319Y-144725676D01*
X177046056Y-144833419D01*
X176978504Y-145002628D01*
X176927373Y-145185815D01*
X176922023Y-145216757D01*
X176894011Y-145378755D01*
X176890432Y-145419591D01*
X176438112Y-145419591D01*
X176440017Y-145403346D01*
X176440565Y-145397824D01*
X176444168Y-145344201D01*
X176446399Y-145279588D01*
X176446793Y-145216757D01*
X176445506Y-145107312D01*
X176417345Y-145240885D01*
X176408769Y-145281627D01*
X176396841Y-145338490D01*
X176387121Y-145385070D01*
X176381134Y-145414063D01*
X176378388Y-145431383D01*
X176095737Y-145431383D01*
X175968438Y-145386472D01*
X175729350Y-145326265D01*
X175480436Y-145286476D01*
X175443801Y-145282581D01*
X175371312Y-145276229D01*
X175289387Y-145270342D01*
X175202378Y-145265107D01*
X175114633Y-145260712D01*
X175030505Y-145257344D01*
X174954341Y-145255190D01*
X174890494Y-145254438D01*
X174843313Y-145255276D01*
X174817147Y-145257891D01*
X174796954Y-145267820D01*
X174782927Y-145289851D01*
X174771142Y-145330579D01*
X174763732Y-145363149D01*
X174758400Y-145394827D01*
X174671141Y-145394827D01*
X174684422Y-145323573D01*
X174712678Y-145183639D01*
X174814859Y-145179981D01*
X174917040Y-145176322D01*
X174918964Y-145166940D01*
X175010584Y-145166940D01*
X175010794Y-145167638D01*
X175025277Y-145172542D01*
X175058057Y-145176039D01*
X175102813Y-145177410D01*
X175200113Y-145179782D01*
X175353705Y-145190562D01*
X175515266Y-145208985D01*
X175676488Y-145233885D01*
X175829061Y-145264094D01*
X175964674Y-145298445D01*
X176013708Y-145313208D01*
X176085199Y-145336317D01*
X176151610Y-145359409D01*
X176203197Y-145379185D01*
X176215557Y-145384235D01*
X176256236Y-145399405D01*
X176284705Y-145407729D01*
X176295426Y-145407509D01*
X176295456Y-145407111D01*
X176298430Y-145390258D01*
X176305885Y-145351580D01*
X176317261Y-145293876D01*
X176332003Y-145219947D01*
X176349551Y-145132590D01*
X176369347Y-145034606D01*
X176390835Y-144928793D01*
X176398094Y-144893055D01*
X176426177Y-144752366D01*
X176448755Y-144633123D01*
X176465919Y-144532590D01*
X176477760Y-144448029D01*
X176484368Y-144376702D01*
X176485835Y-144315873D01*
X176482252Y-144262805D01*
X176473708Y-144214758D01*
X176460295Y-144168998D01*
X176442105Y-144122786D01*
X176419227Y-144073384D01*
X176394907Y-144028160D01*
X176323660Y-143931205D01*
X176236592Y-143851311D01*
X176136692Y-143789464D01*
X176026945Y-143746654D01*
X175910339Y-143723870D01*
X175789861Y-143722098D01*
X175668496Y-143742327D01*
X175549234Y-143785546D01*
X175509986Y-143806583D01*
X175426296Y-143868511D01*
X175349360Y-143947515D01*
X175283647Y-144037851D01*
X175233626Y-144133777D01*
X175203764Y-144229549D01*
X175200203Y-144247318D01*
X175191304Y-144290798D01*
X175178404Y-144353275D01*
X175162212Y-144431335D01*
X175143437Y-144521565D01*
X175122787Y-144620551D01*
X175100971Y-144724878D01*
X175083409Y-144808957D01*
X175063646Y-144904086D01*
X175046137Y-144988924D01*
X175031478Y-145060550D01*
X175020269Y-145116042D01*
X175013105Y-145152479D01*
X175010584Y-145166940D01*
X174918964Y-145166940D01*
X175021947Y-144664772D01*
X175042426Y-144565222D01*
X175065793Y-144452979D01*
X175085463Y-144360828D01*
X175102137Y-144285991D01*
X175116517Y-144225692D01*
X175129305Y-144177155D01*
X175141202Y-144137603D01*
X175152911Y-144104260D01*
X175165133Y-144074348D01*
X175178569Y-144045092D01*
X175202701Y-143999356D01*
X175276660Y-143894933D01*
X175368249Y-143804255D01*
X175473797Y-143729658D01*
X175589630Y-143673481D01*
X175712077Y-143638060D01*
X175837462Y-143625734D01*
X175925992Y-143632218D01*
X176047921Y-143660802D01*
X176166187Y-143709757D01*
X176275834Y-143776438D01*
X176371907Y-143858201D01*
X176449453Y-143952400D01*
X176452137Y-143956350D01*
X176459985Y-143965483D01*
X176467002Y-143965587D01*
X176474696Y-143953559D01*
X176484577Y-143926298D01*
X176498154Y-143880701D01*
X176516935Y-143813665D01*
X176517751Y-143810734D01*
X176556430Y-143683673D01*
X176596337Y-143578238D01*
X176639589Y-143490709D01*
X176688309Y-143417367D01*
X176744615Y-143354490D01*
X176810629Y-143298359D01*
X176857368Y-143264631D01*
X176907609Y-143232515D01*
X176961366Y-143203170D01*
X177022168Y-143175100D01*
X177093539Y-143146809D01*
X177179006Y-143116801D01*
X177282096Y-143083581D01*
X177406333Y-143045652D01*
X177414148Y-143043319D01*
X177479472Y-143024229D01*
X177523816Y-143009307D01*
X177549590Y-142993781D01*
X177559209Y-142972881D01*
X177555084Y-142941834D01*
X177539627Y-142895870D01*
X177515250Y-142830217D01*
X177514462Y-142828047D01*
X177493570Y-142765642D01*
X177480341Y-142711295D01*
X177472672Y-142653850D01*
X177468459Y-142582154D01*
X177467438Y-142540163D01*
X177471296Y-142446880D01*
X177480403Y-142393757D01*
X177866158Y-142393757D01*
X177874512Y-142421695D01*
X177890805Y-142445489D01*
X177910104Y-142447273D01*
X177936919Y-142438068D01*
X177989878Y-142432381D01*
X178034302Y-142443522D01*
X178038453Y-142446196D01*
X178060649Y-142468122D01*
X178087198Y-142501903D01*
X178112791Y-142539813D01*
X178132122Y-142574132D01*
X178139881Y-142597136D01*
X178133697Y-142600050D01*
X178108485Y-142601092D01*
X178070451Y-142598580D01*
X178032814Y-142596663D01*
X177983510Y-142605329D01*
X177947117Y-142631516D01*
X177917928Y-142678203D01*
X177906193Y-142705587D01*
X177903496Y-142724988D01*
X177912846Y-142736207D01*
X177936818Y-142746159D01*
X177968220Y-142739959D01*
X177993706Y-142709366D01*
X178007394Y-142688875D01*
X178034508Y-142673049D01*
X178071116Y-142677436D01*
X178120441Y-142701843D01*
X178127335Y-142706243D01*
X178162988Y-142737175D01*
X178184047Y-142769821D01*
X178193298Y-142791749D01*
X178207292Y-142801099D01*
X178233374Y-142795048D01*
X178235099Y-142794460D01*
X178257607Y-142783935D01*
X178264699Y-142767793D01*
X178260828Y-142736546D01*
X178250724Y-142691418D01*
X178230856Y-142622952D01*
X178206874Y-142555127D01*
X178181722Y-142496062D01*
X178158344Y-142453877D01*
X178134221Y-142422434D01*
X178085690Y-142379824D01*
X178029780Y-142358490D01*
X177961002Y-142355700D01*
X177947316Y-142356785D01*
X177899558Y-142363593D01*
X177873506Y-142375153D01*
X177866158Y-142393757D01*
X177480403Y-142393757D01*
X177485856Y-142361950D01*
X177513099Y-142276176D01*
X177555007Y-142180360D01*
X177565100Y-142160023D01*
X177628949Y-142056343D01*
X177702972Y-141973721D01*
X177785736Y-141913813D01*
X177816444Y-141897701D01*
X177846030Y-141886062D01*
X177878249Y-141879565D01*
X177920701Y-141876742D01*
X177980985Y-141876127D01*
X178061713Y-141878506D01*
X178124977Y-141886268D01*
X178178164Y-141900331D01*
X178211936Y-141912481D01*
X178337882Y-141968174D01*
X178440504Y-142032619D01*
X178520529Y-142106606D01*
X178578686Y-142190926D01*
X178615701Y-142286370D01*
X178632302Y-142393728D01*
X178632480Y-142486945D01*
X178619580Y-142588514D01*
X178618530Y-142593475D01*
X178609778Y-142636199D01*
X178604036Y-142666703D01*
X178602501Y-142678667D01*
X178607257Y-142677489D01*
X178632581Y-142670095D01*
X178676729Y-142656811D01*
X178736308Y-142638669D01*
X178807924Y-142616698D01*
X178888185Y-142591929D01*
X179172046Y-142504087D01*
X179225297Y-142553100D01*
X179236151Y-142562961D01*
X179341147Y-142644726D01*
X179447233Y-142702089D01*
X179556506Y-142735962D01*
X179671069Y-142747261D01*
X179771623Y-142740219D01*
X179902551Y-142708923D01*
X180031173Y-142653025D01*
X180156649Y-142572995D01*
X180278138Y-142469304D01*
X180394801Y-142342421D01*
X180487062Y-142230446D01*
X181225502Y-142067092D01*
X181963942Y-141903737D01*
X181912677Y-141756360D01*
X181898153Y-141714161D01*
X181880969Y-141660240D01*
X181870425Y-141617168D01*
X182342270Y-141617168D01*
X182348946Y-141718375D01*
X182356688Y-141756793D01*
X182365603Y-141790413D01*
X182372753Y-141806551D01*
X182387297Y-141810244D01*
X182412439Y-141806538D01*
X182435311Y-141797331D01*
X182444341Y-141785952D01*
X182440688Y-141766467D01*
X182434304Y-141735359D01*
X182432672Y-141712515D01*
X182445802Y-141672825D01*
X182475488Y-141641406D01*
X182516012Y-141621711D01*
X182561651Y-141617193D01*
X182606685Y-141631305D01*
X182630321Y-141642942D01*
X182647941Y-141640840D01*
X182669192Y-141621231D01*
X182697236Y-141591378D01*
X182654370Y-141564684D01*
X182630058Y-141551858D01*
X182592181Y-141542477D01*
X182541536Y-141542451D01*
X182513870Y-141544841D01*
X182474303Y-141550498D01*
X182449524Y-141556963D01*
X182436955Y-141561268D01*
X182433275Y-141554140D01*
X182440863Y-141528617D01*
X182451252Y-141505598D01*
X182490006Y-141454503D01*
X182545343Y-141408345D01*
X182611268Y-141372612D01*
X182647529Y-141356790D01*
X182669724Y-141343196D01*
X182677197Y-141329376D01*
X182674792Y-141310602D01*
X182668336Y-141288175D01*
X182662263Y-141273866D01*
X182658965Y-141271962D01*
X182635628Y-141273468D01*
X182598381Y-141286031D01*
X182552964Y-141307406D01*
X182505116Y-141335346D01*
X182457013Y-141372005D01*
X182397119Y-141441982D01*
X182358600Y-141524370D01*
X182342270Y-141617168D01*
X181870425Y-141617168D01*
X181870168Y-141616119D01*
X181864262Y-141573115D01*
X181861762Y-141522540D01*
X181861181Y-141455711D01*
X181861300Y-141395521D01*
X181862740Y-141347384D01*
X181866822Y-141311430D01*
X181874854Y-141280711D01*
X181888144Y-141248283D01*
X181908000Y-141207200D01*
X181917462Y-141188628D01*
X181974654Y-141094339D01*
X182040708Y-141010321D01*
X182111309Y-140941520D01*
X182182143Y-140892884D01*
X182263032Y-140855383D01*
X182377675Y-140820316D01*
X182489335Y-140806851D01*
X182595006Y-140815266D01*
X182691682Y-140845837D01*
X182703198Y-140851293D01*
X182781045Y-140895928D01*
X182861573Y-140953314D01*
X182935825Y-141016569D01*
X182994847Y-141078813D01*
X183004997Y-141091489D01*
X183072490Y-141192168D01*
X183115250Y-141292357D01*
X183133738Y-141394402D01*
X183128414Y-141500646D01*
X183105345Y-141591378D01*
X183099736Y-141613436D01*
G37*
%TD*%
D11*
%TO.C,R1*%
X101500000Y-79000000D03*
X93880000Y-79000000D03*
%TD*%
D12*
%TO.C,J2*%
X169420000Y-75500000D03*
D13*
X171960000Y-75500000D03*
X174500000Y-75500000D03*
%TD*%
D14*
%TO.C,REF\u002A\u002A*%
X117500000Y-164500000D03*
%TD*%
D12*
%TO.C,J4*%
X175900000Y-128800000D03*
D13*
X175900000Y-131340000D03*
X175900000Y-133880000D03*
X175900000Y-136420000D03*
%TD*%
D15*
%TO.C,LS1*%
X107629216Y-81000000D03*
D16*
X112629216Y-81000000D03*
%TD*%
D12*
%TO.C,J3*%
X130819880Y-73933280D03*
D13*
X133359880Y-73933280D03*
X135899880Y-73933280D03*
X138439880Y-73933280D03*
X140979880Y-73933280D03*
X143519880Y-73933280D03*
X146059880Y-73933280D03*
X148599880Y-73933280D03*
%TD*%
D17*
%TO.C,D5*%
X104000000Y-73500000D03*
D18*
X101460000Y-73500000D03*
%TD*%
D14*
%TO.C,REF\u002A\u002A*%
X161000000Y-73400000D03*
%TD*%
D19*
%TO.C,J1*%
X99000000Y-89800000D03*
D20*
X99000000Y-87800000D03*
X99000000Y-85800000D03*
X99000000Y-83800000D03*
%TD*%
D14*
%TO.C,REF\u002A\u002A*%
X117500000Y-73400000D03*
%TD*%
%TO.C,REF\u002A\u002A*%
X161000000Y-164500000D03*
%TD*%
D21*
%TO.C,U2*%
X99650000Y-96925000D03*
X99650000Y-109575000D03*
D11*
X104650000Y-98950000D03*
X104650000Y-107550000D03*
D21*
X109650000Y-96925000D03*
X109650000Y-109575000D03*
D16*
X107150000Y-94520000D03*
X104650000Y-94520000D03*
X102150000Y-94520000D03*
X95920000Y-100750000D03*
X95920000Y-103250000D03*
X95920000Y-105750000D03*
D22*
X110400000Y-100000000D03*
X110400000Y-106500000D03*
X114900000Y-100000000D03*
X114900000Y-106500000D03*
%TD*%
D23*
%TO.C,U3*%
X108900000Y-116800000D03*
X108900000Y-119340000D03*
X108900000Y-121880000D03*
X108900000Y-124420000D03*
X108900000Y-126960000D03*
X108900000Y-129500000D03*
X108900000Y-132040000D03*
D24*
X96446000Y-126220000D03*
X96446000Y-122720000D03*
%TD*%
D25*
%TO.C,SW1*%
X178600000Y-94000000D03*
D26*
X176060000Y-88920000D03*
D27*
X173520000Y-94000000D03*
D26*
X169710000Y-91460000D03*
D25*
X168440000Y-94000000D03*
%TD*%
D12*
%TO.C,J5*%
X130560000Y-164640000D03*
D13*
X133100000Y-164640000D03*
X135640000Y-164640000D03*
X138180000Y-164640000D03*
X140720000Y-164640000D03*
X143260000Y-164640000D03*
X145800000Y-164640000D03*
X148340000Y-164640000D03*
X148340000Y-162100000D03*
X145800000Y-162100000D03*
X143260000Y-162100000D03*
X140720000Y-162100000D03*
X138180000Y-162100000D03*
X135640000Y-162100000D03*
X133100000Y-162100000D03*
X130560000Y-162100000D03*
%TD*%
D28*
%TO.C,U4*%
X121062720Y-81273000D03*
D29*
X123602720Y-81400000D03*
X126142720Y-81146000D03*
X128682720Y-81400000D03*
X131222720Y-81146000D03*
X133762720Y-81400000D03*
X136302720Y-81146000D03*
X138842720Y-81400000D03*
X141382720Y-81146000D03*
X143922720Y-81400000D03*
X146462720Y-81146000D03*
X149002720Y-81400000D03*
X151542720Y-81146000D03*
X154082720Y-81400000D03*
X156622720Y-81146000D03*
X159162720Y-81400000D03*
X161702720Y-81146000D03*
X164242720Y-81400000D03*
X166782720Y-81146000D03*
X169320000Y-81400000D03*
X171860000Y-81146000D03*
X174400000Y-81400000D03*
X174402720Y-104260000D03*
X171862720Y-104006000D03*
X169322720Y-104260000D03*
X166782720Y-104006000D03*
X164242720Y-104260000D03*
X161702720Y-104006000D03*
X159162720Y-104260000D03*
X156622720Y-104006000D03*
X154082720Y-104260000D03*
X151542720Y-104006000D03*
X149002720Y-104260000D03*
X146462720Y-104006000D03*
X143922720Y-104260000D03*
X141382720Y-104006000D03*
X138842720Y-104260000D03*
X136302720Y-104006000D03*
X133762720Y-104260000D03*
X131222720Y-104006000D03*
X128682720Y-104260000D03*
X126142720Y-104006000D03*
X123602720Y-104260000D03*
X121062720Y-104133000D03*
%TD*%
D25*
%TO.C,SW2*%
X178600000Y-114540000D03*
D26*
X176060000Y-109460000D03*
D27*
X173520000Y-114540000D03*
D26*
X169710000Y-112000000D03*
D25*
X168440000Y-114540000D03*
%TD*%
M02*
