%TF.GenerationSoftware,KiCad,Pcbnew,9.0.9-9.0.9~ubuntu24.04.1*%
%TF.CreationDate,2026-09-19T12:19:29+09:00*%
%TF.ProjectId,tinygo-conf-2026,74696e79-676f-42d6-936f-6e662d323032,rev?*%
%TF.SameCoordinates,Original*%
%TF.FileFunction,Legend,Top*%
%TF.FilePolarity,Positive*%
%FSLAX46Y46*%
G04 Gerber Fmt 4.6, Leading zero omitted, Abs format (unit mm)*
G04 Created by KiCad (PCBNEW 9.0.9-9.0.9~ubuntu24.04.1) date 2026-09-19 12:19:29*
%MOMM*%
%LPD*%
G01*
G04 APERTURE LIST*
%ADD10C,0.120000*%
%ADD11C,0.150000*%
%ADD12C,0.500000*%
%ADD13C,0.100000*%
%ADD14C,0.152400*%
%ADD15C,0.203200*%
%ADD16C,0.050000*%
G04 APERTURE END LIST*
D10*
X130271331Y-159885714D02*
X130271331Y-160171428D01*
X130271331Y-160171428D02*
X130557045Y-160200000D01*
X130557045Y-160200000D02*
X130528474Y-160171428D01*
X130528474Y-160171428D02*
X130499902Y-160114286D01*
X130499902Y-160114286D02*
X130499902Y-159971428D01*
X130499902Y-159971428D02*
X130528474Y-159914286D01*
X130528474Y-159914286D02*
X130557045Y-159885714D01*
X130557045Y-159885714D02*
X130614188Y-159857143D01*
X130614188Y-159857143D02*
X130757045Y-159857143D01*
X130757045Y-159857143D02*
X130814188Y-159885714D01*
X130814188Y-159885714D02*
X130842760Y-159914286D01*
X130842760Y-159914286D02*
X130871331Y-159971428D01*
X130871331Y-159971428D02*
X130871331Y-160114286D01*
X130871331Y-160114286D02*
X130842760Y-160171428D01*
X130842760Y-160171428D02*
X130814188Y-160200000D01*
X130471331Y-159657142D02*
X130871331Y-159514285D01*
X130871331Y-159514285D02*
X130471331Y-159371428D01*
X130271331Y-167414285D02*
X130271331Y-167042857D01*
X130271331Y-167042857D02*
X130499902Y-167242857D01*
X130499902Y-167242857D02*
X130499902Y-167157142D01*
X130499902Y-167157142D02*
X130528474Y-167100000D01*
X130528474Y-167100000D02*
X130557045Y-167071428D01*
X130557045Y-167071428D02*
X130614188Y-167042857D01*
X130614188Y-167042857D02*
X130757045Y-167042857D01*
X130757045Y-167042857D02*
X130814188Y-167071428D01*
X130814188Y-167071428D02*
X130842760Y-167100000D01*
X130842760Y-167100000D02*
X130871331Y-167157142D01*
X130871331Y-167157142D02*
X130871331Y-167328571D01*
X130871331Y-167328571D02*
X130842760Y-167385714D01*
X130842760Y-167385714D02*
X130814188Y-167414285D01*
X130471331Y-166842856D02*
X130871331Y-166699999D01*
X130871331Y-166699999D02*
X130471331Y-166557142D01*
X130271331Y-166385713D02*
X130271331Y-166014285D01*
X130271331Y-166014285D02*
X130499902Y-166214285D01*
X130499902Y-166214285D02*
X130499902Y-166128570D01*
X130499902Y-166128570D02*
X130528474Y-166071428D01*
X130528474Y-166071428D02*
X130557045Y-166042856D01*
X130557045Y-166042856D02*
X130614188Y-166014285D01*
X130614188Y-166014285D02*
X130757045Y-166014285D01*
X130757045Y-166014285D02*
X130814188Y-166042856D01*
X130814188Y-166042856D02*
X130842760Y-166071428D01*
X130842760Y-166071428D02*
X130871331Y-166128570D01*
X130871331Y-166128570D02*
X130871331Y-166299999D01*
X130871331Y-166299999D02*
X130842760Y-166357142D01*
X130842760Y-166357142D02*
X130814188Y-166385713D01*
X132971331Y-160071429D02*
X133371331Y-160071429D01*
X132742760Y-160214286D02*
X133171331Y-160357143D01*
X133171331Y-160357143D02*
X133171331Y-159985714D01*
X132828474Y-159785714D02*
X132799902Y-159757142D01*
X132799902Y-159757142D02*
X132771331Y-159700000D01*
X132771331Y-159700000D02*
X132771331Y-159557142D01*
X132771331Y-159557142D02*
X132799902Y-159500000D01*
X132799902Y-159500000D02*
X132828474Y-159471428D01*
X132828474Y-159471428D02*
X132885617Y-159442857D01*
X132885617Y-159442857D02*
X132942760Y-159442857D01*
X132942760Y-159442857D02*
X133028474Y-159471428D01*
X133028474Y-159471428D02*
X133371331Y-159814285D01*
X133371331Y-159814285D02*
X133371331Y-159442857D01*
X132771331Y-167414285D02*
X132771331Y-167042857D01*
X132771331Y-167042857D02*
X132999902Y-167242857D01*
X132999902Y-167242857D02*
X132999902Y-167157142D01*
X132999902Y-167157142D02*
X133028474Y-167100000D01*
X133028474Y-167100000D02*
X133057045Y-167071428D01*
X133057045Y-167071428D02*
X133114188Y-167042857D01*
X133114188Y-167042857D02*
X133257045Y-167042857D01*
X133257045Y-167042857D02*
X133314188Y-167071428D01*
X133314188Y-167071428D02*
X133342760Y-167100000D01*
X133342760Y-167100000D02*
X133371331Y-167157142D01*
X133371331Y-167157142D02*
X133371331Y-167328571D01*
X133371331Y-167328571D02*
X133342760Y-167385714D01*
X133342760Y-167385714D02*
X133314188Y-167414285D01*
X132971331Y-166842856D02*
X133371331Y-166699999D01*
X133371331Y-166699999D02*
X132971331Y-166557142D01*
X132771331Y-166385713D02*
X132771331Y-166014285D01*
X132771331Y-166014285D02*
X132999902Y-166214285D01*
X132999902Y-166214285D02*
X132999902Y-166128570D01*
X132999902Y-166128570D02*
X133028474Y-166071428D01*
X133028474Y-166071428D02*
X133057045Y-166042856D01*
X133057045Y-166042856D02*
X133114188Y-166014285D01*
X133114188Y-166014285D02*
X133257045Y-166014285D01*
X133257045Y-166014285D02*
X133314188Y-166042856D01*
X133314188Y-166042856D02*
X133342760Y-166071428D01*
X133342760Y-166071428D02*
X133371331Y-166128570D01*
X133371331Y-166128570D02*
X133371331Y-166299999D01*
X133371331Y-166299999D02*
X133342760Y-166357142D01*
X133342760Y-166357142D02*
X133314188Y-166385713D01*
X135471331Y-160071429D02*
X135871331Y-160071429D01*
X135242760Y-160214286D02*
X135671331Y-160357143D01*
X135671331Y-160357143D02*
X135671331Y-159985714D01*
X135871331Y-159442857D02*
X135871331Y-159785714D01*
X135871331Y-159614285D02*
X135271331Y-159614285D01*
X135271331Y-159614285D02*
X135357045Y-159671428D01*
X135357045Y-159671428D02*
X135414188Y-159728571D01*
X135414188Y-159728571D02*
X135442760Y-159785714D01*
X135271331Y-167014286D02*
X135271331Y-166957143D01*
X135271331Y-166957143D02*
X135299902Y-166900000D01*
X135299902Y-166900000D02*
X135328474Y-166871429D01*
X135328474Y-166871429D02*
X135385617Y-166842857D01*
X135385617Y-166842857D02*
X135499902Y-166814286D01*
X135499902Y-166814286D02*
X135642760Y-166814286D01*
X135642760Y-166814286D02*
X135757045Y-166842857D01*
X135757045Y-166842857D02*
X135814188Y-166871429D01*
X135814188Y-166871429D02*
X135842760Y-166900000D01*
X135842760Y-166900000D02*
X135871331Y-166957143D01*
X135871331Y-166957143D02*
X135871331Y-167014286D01*
X135871331Y-167014286D02*
X135842760Y-167071429D01*
X135842760Y-167071429D02*
X135814188Y-167100000D01*
X135814188Y-167100000D02*
X135757045Y-167128571D01*
X135757045Y-167128571D02*
X135642760Y-167157143D01*
X135642760Y-167157143D02*
X135499902Y-167157143D01*
X135499902Y-167157143D02*
X135385617Y-167128571D01*
X135385617Y-167128571D02*
X135328474Y-167100000D01*
X135328474Y-167100000D02*
X135299902Y-167071429D01*
X135299902Y-167071429D02*
X135271331Y-167014286D01*
X135871331Y-166242857D02*
X135871331Y-166585714D01*
X135871331Y-166414285D02*
X135271331Y-166414285D01*
X135271331Y-166414285D02*
X135357045Y-166471428D01*
X135357045Y-166471428D02*
X135414188Y-166528571D01*
X135414188Y-166528571D02*
X135442760Y-166585714D01*
X138071331Y-160071429D02*
X138471331Y-160071429D01*
X137842760Y-160214286D02*
X138271331Y-160357143D01*
X138271331Y-160357143D02*
X138271331Y-159985714D01*
X137871331Y-159642857D02*
X137871331Y-159585714D01*
X137871331Y-159585714D02*
X137899902Y-159528571D01*
X137899902Y-159528571D02*
X137928474Y-159500000D01*
X137928474Y-159500000D02*
X137985617Y-159471428D01*
X137985617Y-159471428D02*
X138099902Y-159442857D01*
X138099902Y-159442857D02*
X138242760Y-159442857D01*
X138242760Y-159442857D02*
X138357045Y-159471428D01*
X138357045Y-159471428D02*
X138414188Y-159500000D01*
X138414188Y-159500000D02*
X138442760Y-159528571D01*
X138442760Y-159528571D02*
X138471331Y-159585714D01*
X138471331Y-159585714D02*
X138471331Y-159642857D01*
X138471331Y-159642857D02*
X138442760Y-159700000D01*
X138442760Y-159700000D02*
X138414188Y-159728571D01*
X138414188Y-159728571D02*
X138357045Y-159757142D01*
X138357045Y-159757142D02*
X138242760Y-159785714D01*
X138242760Y-159785714D02*
X138099902Y-159785714D01*
X138099902Y-159785714D02*
X137985617Y-159757142D01*
X137985617Y-159757142D02*
X137928474Y-159728571D01*
X137928474Y-159728571D02*
X137899902Y-159700000D01*
X137899902Y-159700000D02*
X137871331Y-159642857D01*
X137871331Y-167014286D02*
X137871331Y-166957143D01*
X137871331Y-166957143D02*
X137899902Y-166900000D01*
X137899902Y-166900000D02*
X137928474Y-166871429D01*
X137928474Y-166871429D02*
X137985617Y-166842857D01*
X137985617Y-166842857D02*
X138099902Y-166814286D01*
X138099902Y-166814286D02*
X138242760Y-166814286D01*
X138242760Y-166814286D02*
X138357045Y-166842857D01*
X138357045Y-166842857D02*
X138414188Y-166871429D01*
X138414188Y-166871429D02*
X138442760Y-166900000D01*
X138442760Y-166900000D02*
X138471331Y-166957143D01*
X138471331Y-166957143D02*
X138471331Y-167014286D01*
X138471331Y-167014286D02*
X138442760Y-167071429D01*
X138442760Y-167071429D02*
X138414188Y-167100000D01*
X138414188Y-167100000D02*
X138357045Y-167128571D01*
X138357045Y-167128571D02*
X138242760Y-167157143D01*
X138242760Y-167157143D02*
X138099902Y-167157143D01*
X138099902Y-167157143D02*
X137985617Y-167128571D01*
X137985617Y-167128571D02*
X137928474Y-167100000D01*
X137928474Y-167100000D02*
X137899902Y-167071429D01*
X137899902Y-167071429D02*
X137871331Y-167014286D01*
X137928474Y-166585714D02*
X137899902Y-166557142D01*
X137899902Y-166557142D02*
X137871331Y-166500000D01*
X137871331Y-166500000D02*
X137871331Y-166357142D01*
X137871331Y-166357142D02*
X137899902Y-166300000D01*
X137899902Y-166300000D02*
X137928474Y-166271428D01*
X137928474Y-166271428D02*
X137985617Y-166242857D01*
X137985617Y-166242857D02*
X138042760Y-166242857D01*
X138042760Y-166242857D02*
X138128474Y-166271428D01*
X138128474Y-166271428D02*
X138471331Y-166614285D01*
X138471331Y-166614285D02*
X138471331Y-166242857D01*
X140371331Y-167014286D02*
X140371331Y-166957143D01*
X140371331Y-166957143D02*
X140399902Y-166900000D01*
X140399902Y-166900000D02*
X140428474Y-166871429D01*
X140428474Y-166871429D02*
X140485617Y-166842857D01*
X140485617Y-166842857D02*
X140599902Y-166814286D01*
X140599902Y-166814286D02*
X140742760Y-166814286D01*
X140742760Y-166814286D02*
X140857045Y-166842857D01*
X140857045Y-166842857D02*
X140914188Y-166871429D01*
X140914188Y-166871429D02*
X140942760Y-166900000D01*
X140942760Y-166900000D02*
X140971331Y-166957143D01*
X140971331Y-166957143D02*
X140971331Y-167014286D01*
X140971331Y-167014286D02*
X140942760Y-167071429D01*
X140942760Y-167071429D02*
X140914188Y-167100000D01*
X140914188Y-167100000D02*
X140857045Y-167128571D01*
X140857045Y-167128571D02*
X140742760Y-167157143D01*
X140742760Y-167157143D02*
X140599902Y-167157143D01*
X140599902Y-167157143D02*
X140485617Y-167128571D01*
X140485617Y-167128571D02*
X140428474Y-167100000D01*
X140428474Y-167100000D02*
X140399902Y-167071429D01*
X140399902Y-167071429D02*
X140371331Y-167014286D01*
X140371331Y-166614285D02*
X140371331Y-166242857D01*
X140371331Y-166242857D02*
X140599902Y-166442857D01*
X140599902Y-166442857D02*
X140599902Y-166357142D01*
X140599902Y-166357142D02*
X140628474Y-166300000D01*
X140628474Y-166300000D02*
X140657045Y-166271428D01*
X140657045Y-166271428D02*
X140714188Y-166242857D01*
X140714188Y-166242857D02*
X140857045Y-166242857D01*
X140857045Y-166242857D02*
X140914188Y-166271428D01*
X140914188Y-166271428D02*
X140942760Y-166300000D01*
X140942760Y-166300000D02*
X140971331Y-166357142D01*
X140971331Y-166357142D02*
X140971331Y-166528571D01*
X140971331Y-166528571D02*
X140942760Y-166585714D01*
X140942760Y-166585714D02*
X140914188Y-166614285D01*
X140471331Y-160385714D02*
X140471331Y-160014286D01*
X140471331Y-160014286D02*
X140699902Y-160214286D01*
X140699902Y-160214286D02*
X140699902Y-160128571D01*
X140699902Y-160128571D02*
X140728474Y-160071429D01*
X140728474Y-160071429D02*
X140757045Y-160042857D01*
X140757045Y-160042857D02*
X140814188Y-160014286D01*
X140814188Y-160014286D02*
X140957045Y-160014286D01*
X140957045Y-160014286D02*
X141014188Y-160042857D01*
X141014188Y-160042857D02*
X141042760Y-160071429D01*
X141042760Y-160071429D02*
X141071331Y-160128571D01*
X141071331Y-160128571D02*
X141071331Y-160300000D01*
X141071331Y-160300000D02*
X141042760Y-160357143D01*
X141042760Y-160357143D02*
X141014188Y-160385714D01*
X141071331Y-159728571D02*
X141071331Y-159614285D01*
X141071331Y-159614285D02*
X141042760Y-159557142D01*
X141042760Y-159557142D02*
X141014188Y-159528571D01*
X141014188Y-159528571D02*
X140928474Y-159471428D01*
X140928474Y-159471428D02*
X140814188Y-159442857D01*
X140814188Y-159442857D02*
X140585617Y-159442857D01*
X140585617Y-159442857D02*
X140528474Y-159471428D01*
X140528474Y-159471428D02*
X140499902Y-159500000D01*
X140499902Y-159500000D02*
X140471331Y-159557142D01*
X140471331Y-159557142D02*
X140471331Y-159671428D01*
X140471331Y-159671428D02*
X140499902Y-159728571D01*
X140499902Y-159728571D02*
X140528474Y-159757142D01*
X140528474Y-159757142D02*
X140585617Y-159785714D01*
X140585617Y-159785714D02*
X140728474Y-159785714D01*
X140728474Y-159785714D02*
X140785617Y-159757142D01*
X140785617Y-159757142D02*
X140814188Y-159728571D01*
X140814188Y-159728571D02*
X140842760Y-159671428D01*
X140842760Y-159671428D02*
X140842760Y-159557142D01*
X140842760Y-159557142D02*
X140814188Y-159500000D01*
X140814188Y-159500000D02*
X140785617Y-159471428D01*
X140785617Y-159471428D02*
X140728474Y-159442857D01*
X142971331Y-160385714D02*
X142971331Y-160014286D01*
X142971331Y-160014286D02*
X143199902Y-160214286D01*
X143199902Y-160214286D02*
X143199902Y-160128571D01*
X143199902Y-160128571D02*
X143228474Y-160071429D01*
X143228474Y-160071429D02*
X143257045Y-160042857D01*
X143257045Y-160042857D02*
X143314188Y-160014286D01*
X143314188Y-160014286D02*
X143457045Y-160014286D01*
X143457045Y-160014286D02*
X143514188Y-160042857D01*
X143514188Y-160042857D02*
X143542760Y-160071429D01*
X143542760Y-160071429D02*
X143571331Y-160128571D01*
X143571331Y-160128571D02*
X143571331Y-160300000D01*
X143571331Y-160300000D02*
X143542760Y-160357143D01*
X143542760Y-160357143D02*
X143514188Y-160385714D01*
X143228474Y-159671428D02*
X143199902Y-159728571D01*
X143199902Y-159728571D02*
X143171331Y-159757142D01*
X143171331Y-159757142D02*
X143114188Y-159785714D01*
X143114188Y-159785714D02*
X143085617Y-159785714D01*
X143085617Y-159785714D02*
X143028474Y-159757142D01*
X143028474Y-159757142D02*
X142999902Y-159728571D01*
X142999902Y-159728571D02*
X142971331Y-159671428D01*
X142971331Y-159671428D02*
X142971331Y-159557142D01*
X142971331Y-159557142D02*
X142999902Y-159500000D01*
X142999902Y-159500000D02*
X143028474Y-159471428D01*
X143028474Y-159471428D02*
X143085617Y-159442857D01*
X143085617Y-159442857D02*
X143114188Y-159442857D01*
X143114188Y-159442857D02*
X143171331Y-159471428D01*
X143171331Y-159471428D02*
X143199902Y-159500000D01*
X143199902Y-159500000D02*
X143228474Y-159557142D01*
X143228474Y-159557142D02*
X143228474Y-159671428D01*
X143228474Y-159671428D02*
X143257045Y-159728571D01*
X143257045Y-159728571D02*
X143285617Y-159757142D01*
X143285617Y-159757142D02*
X143342760Y-159785714D01*
X143342760Y-159785714D02*
X143457045Y-159785714D01*
X143457045Y-159785714D02*
X143514188Y-159757142D01*
X143514188Y-159757142D02*
X143542760Y-159728571D01*
X143542760Y-159728571D02*
X143571331Y-159671428D01*
X143571331Y-159671428D02*
X143571331Y-159557142D01*
X143571331Y-159557142D02*
X143542760Y-159500000D01*
X143542760Y-159500000D02*
X143514188Y-159471428D01*
X143514188Y-159471428D02*
X143457045Y-159442857D01*
X143457045Y-159442857D02*
X143342760Y-159442857D01*
X143342760Y-159442857D02*
X143285617Y-159471428D01*
X143285617Y-159471428D02*
X143257045Y-159500000D01*
X143257045Y-159500000D02*
X143228474Y-159557142D01*
X142971331Y-167014286D02*
X142971331Y-166957143D01*
X142971331Y-166957143D02*
X142999902Y-166900000D01*
X142999902Y-166900000D02*
X143028474Y-166871429D01*
X143028474Y-166871429D02*
X143085617Y-166842857D01*
X143085617Y-166842857D02*
X143199902Y-166814286D01*
X143199902Y-166814286D02*
X143342760Y-166814286D01*
X143342760Y-166814286D02*
X143457045Y-166842857D01*
X143457045Y-166842857D02*
X143514188Y-166871429D01*
X143514188Y-166871429D02*
X143542760Y-166900000D01*
X143542760Y-166900000D02*
X143571331Y-166957143D01*
X143571331Y-166957143D02*
X143571331Y-167014286D01*
X143571331Y-167014286D02*
X143542760Y-167071429D01*
X143542760Y-167071429D02*
X143514188Y-167100000D01*
X143514188Y-167100000D02*
X143457045Y-167128571D01*
X143457045Y-167128571D02*
X143342760Y-167157143D01*
X143342760Y-167157143D02*
X143199902Y-167157143D01*
X143199902Y-167157143D02*
X143085617Y-167128571D01*
X143085617Y-167128571D02*
X143028474Y-167100000D01*
X143028474Y-167100000D02*
X142999902Y-167071429D01*
X142999902Y-167071429D02*
X142971331Y-167014286D01*
X143171331Y-166300000D02*
X143571331Y-166300000D01*
X142942760Y-166442857D02*
X143371331Y-166585714D01*
X143371331Y-166585714D02*
X143371331Y-166214285D01*
X145471331Y-160385714D02*
X145471331Y-160014286D01*
X145471331Y-160014286D02*
X145699902Y-160214286D01*
X145699902Y-160214286D02*
X145699902Y-160128571D01*
X145699902Y-160128571D02*
X145728474Y-160071429D01*
X145728474Y-160071429D02*
X145757045Y-160042857D01*
X145757045Y-160042857D02*
X145814188Y-160014286D01*
X145814188Y-160014286D02*
X145957045Y-160014286D01*
X145957045Y-160014286D02*
X146014188Y-160042857D01*
X146014188Y-160042857D02*
X146042760Y-160071429D01*
X146042760Y-160071429D02*
X146071331Y-160128571D01*
X146071331Y-160128571D02*
X146071331Y-160300000D01*
X146071331Y-160300000D02*
X146042760Y-160357143D01*
X146042760Y-160357143D02*
X146014188Y-160385714D01*
X145471331Y-159814285D02*
X145471331Y-159414285D01*
X145471331Y-159414285D02*
X146071331Y-159671428D01*
X145571331Y-167185714D02*
X145571331Y-166814286D01*
X145571331Y-166814286D02*
X145799902Y-167014286D01*
X145799902Y-167014286D02*
X145799902Y-166928571D01*
X145799902Y-166928571D02*
X145828474Y-166871429D01*
X145828474Y-166871429D02*
X145857045Y-166842857D01*
X145857045Y-166842857D02*
X145914188Y-166814286D01*
X145914188Y-166814286D02*
X146057045Y-166814286D01*
X146057045Y-166814286D02*
X146114188Y-166842857D01*
X146114188Y-166842857D02*
X146142760Y-166871429D01*
X146142760Y-166871429D02*
X146171331Y-166928571D01*
X146171331Y-166928571D02*
X146171331Y-167100000D01*
X146171331Y-167100000D02*
X146142760Y-167157143D01*
X146142760Y-167157143D02*
X146114188Y-167185714D01*
X145571331Y-166300000D02*
X145571331Y-166414285D01*
X145571331Y-166414285D02*
X145599902Y-166471428D01*
X145599902Y-166471428D02*
X145628474Y-166500000D01*
X145628474Y-166500000D02*
X145714188Y-166557142D01*
X145714188Y-166557142D02*
X145828474Y-166585714D01*
X145828474Y-166585714D02*
X146057045Y-166585714D01*
X146057045Y-166585714D02*
X146114188Y-166557142D01*
X146114188Y-166557142D02*
X146142760Y-166528571D01*
X146142760Y-166528571D02*
X146171331Y-166471428D01*
X146171331Y-166471428D02*
X146171331Y-166357142D01*
X146171331Y-166357142D02*
X146142760Y-166300000D01*
X146142760Y-166300000D02*
X146114188Y-166271428D01*
X146114188Y-166271428D02*
X146057045Y-166242857D01*
X146057045Y-166242857D02*
X145914188Y-166242857D01*
X145914188Y-166242857D02*
X145857045Y-166271428D01*
X145857045Y-166271428D02*
X145828474Y-166300000D01*
X145828474Y-166300000D02*
X145799902Y-166357142D01*
X145799902Y-166357142D02*
X145799902Y-166471428D01*
X145799902Y-166471428D02*
X145828474Y-166528571D01*
X145828474Y-166528571D02*
X145857045Y-166557142D01*
X145857045Y-166557142D02*
X145914188Y-166585714D01*
X148099902Y-160357142D02*
X148071331Y-160414285D01*
X148071331Y-160414285D02*
X148071331Y-160499999D01*
X148071331Y-160499999D02*
X148099902Y-160585713D01*
X148099902Y-160585713D02*
X148157045Y-160642856D01*
X148157045Y-160642856D02*
X148214188Y-160671427D01*
X148214188Y-160671427D02*
X148328474Y-160699999D01*
X148328474Y-160699999D02*
X148414188Y-160699999D01*
X148414188Y-160699999D02*
X148528474Y-160671427D01*
X148528474Y-160671427D02*
X148585617Y-160642856D01*
X148585617Y-160642856D02*
X148642760Y-160585713D01*
X148642760Y-160585713D02*
X148671331Y-160499999D01*
X148671331Y-160499999D02*
X148671331Y-160442856D01*
X148671331Y-160442856D02*
X148642760Y-160357142D01*
X148642760Y-160357142D02*
X148614188Y-160328570D01*
X148614188Y-160328570D02*
X148414188Y-160328570D01*
X148414188Y-160328570D02*
X148414188Y-160442856D01*
X148671331Y-160071427D02*
X148071331Y-160071427D01*
X148071331Y-160071427D02*
X148671331Y-159728570D01*
X148671331Y-159728570D02*
X148071331Y-159728570D01*
X148671331Y-159442856D02*
X148071331Y-159442856D01*
X148071331Y-159442856D02*
X148071331Y-159299999D01*
X148071331Y-159299999D02*
X148099902Y-159214285D01*
X148099902Y-159214285D02*
X148157045Y-159157142D01*
X148157045Y-159157142D02*
X148214188Y-159128571D01*
X148214188Y-159128571D02*
X148328474Y-159099999D01*
X148328474Y-159099999D02*
X148414188Y-159099999D01*
X148414188Y-159099999D02*
X148528474Y-159128571D01*
X148528474Y-159128571D02*
X148585617Y-159157142D01*
X148585617Y-159157142D02*
X148642760Y-159214285D01*
X148642760Y-159214285D02*
X148671331Y-159299999D01*
X148671331Y-159299999D02*
X148671331Y-159442856D01*
X148099902Y-167257142D02*
X148071331Y-167314285D01*
X148071331Y-167314285D02*
X148071331Y-167399999D01*
X148071331Y-167399999D02*
X148099902Y-167485713D01*
X148099902Y-167485713D02*
X148157045Y-167542856D01*
X148157045Y-167542856D02*
X148214188Y-167571427D01*
X148214188Y-167571427D02*
X148328474Y-167599999D01*
X148328474Y-167599999D02*
X148414188Y-167599999D01*
X148414188Y-167599999D02*
X148528474Y-167571427D01*
X148528474Y-167571427D02*
X148585617Y-167542856D01*
X148585617Y-167542856D02*
X148642760Y-167485713D01*
X148642760Y-167485713D02*
X148671331Y-167399999D01*
X148671331Y-167399999D02*
X148671331Y-167342856D01*
X148671331Y-167342856D02*
X148642760Y-167257142D01*
X148642760Y-167257142D02*
X148614188Y-167228570D01*
X148614188Y-167228570D02*
X148414188Y-167228570D01*
X148414188Y-167228570D02*
X148414188Y-167342856D01*
X148671331Y-166971427D02*
X148071331Y-166971427D01*
X148071331Y-166971427D02*
X148671331Y-166628570D01*
X148671331Y-166628570D02*
X148071331Y-166628570D01*
X148671331Y-166342856D02*
X148071331Y-166342856D01*
X148071331Y-166342856D02*
X148071331Y-166199999D01*
X148071331Y-166199999D02*
X148099902Y-166114285D01*
X148099902Y-166114285D02*
X148157045Y-166057142D01*
X148157045Y-166057142D02*
X148214188Y-166028571D01*
X148214188Y-166028571D02*
X148328474Y-165999999D01*
X148328474Y-165999999D02*
X148414188Y-165999999D01*
X148414188Y-165999999D02*
X148528474Y-166028571D01*
X148528474Y-166028571D02*
X148585617Y-166057142D01*
X148585617Y-166057142D02*
X148642760Y-166114285D01*
X148642760Y-166114285D02*
X148671331Y-166199999D01*
X148671331Y-166199999D02*
X148671331Y-166342856D01*
D11*
X107269048Y-82948866D02*
X108030953Y-82948866D01*
X112269048Y-82948866D02*
X113030953Y-82948866D01*
X112650000Y-83329819D02*
X112650000Y-82567914D01*
D12*
X117367042Y-124584476D02*
X118795613Y-124584476D01*
X118081327Y-128584476D02*
X118081327Y-124584476D01*
X119628947Y-128584476D02*
X119628947Y-125917809D01*
X119628947Y-124584476D02*
X119509899Y-124774952D01*
X119509899Y-124774952D02*
X119628947Y-124965428D01*
X119628947Y-124965428D02*
X119747994Y-124774952D01*
X119747994Y-124774952D02*
X119628947Y-124584476D01*
X119628947Y-124584476D02*
X119628947Y-124965428D01*
X120819423Y-125917809D02*
X120819423Y-128584476D01*
X120819423Y-126298761D02*
X120938470Y-126108285D01*
X120938470Y-126108285D02*
X121176565Y-125917809D01*
X121176565Y-125917809D02*
X121533708Y-125917809D01*
X121533708Y-125917809D02*
X121771804Y-126108285D01*
X121771804Y-126108285D02*
X121890851Y-126489238D01*
X121890851Y-126489238D02*
X121890851Y-128584476D01*
X122843232Y-125917809D02*
X123438470Y-128584476D01*
X124033709Y-125917809D02*
X123438470Y-128584476D01*
X123438470Y-128584476D02*
X123200375Y-129536857D01*
X123200375Y-129536857D02*
X123081328Y-129727333D01*
X123081328Y-129727333D02*
X122843232Y-129917809D01*
X126295613Y-124774952D02*
X126057518Y-124584476D01*
X126057518Y-124584476D02*
X125700375Y-124584476D01*
X125700375Y-124584476D02*
X125343232Y-124774952D01*
X125343232Y-124774952D02*
X125105137Y-125155904D01*
X125105137Y-125155904D02*
X124986090Y-125536857D01*
X124986090Y-125536857D02*
X124867042Y-126298761D01*
X124867042Y-126298761D02*
X124867042Y-126870190D01*
X124867042Y-126870190D02*
X124986090Y-127632095D01*
X124986090Y-127632095D02*
X125105137Y-128013047D01*
X125105137Y-128013047D02*
X125343232Y-128394000D01*
X125343232Y-128394000D02*
X125700375Y-128584476D01*
X125700375Y-128584476D02*
X125938471Y-128584476D01*
X125938471Y-128584476D02*
X126295613Y-128394000D01*
X126295613Y-128394000D02*
X126414661Y-128203523D01*
X126414661Y-128203523D02*
X126414661Y-126870190D01*
X126414661Y-126870190D02*
X125938471Y-126870190D01*
X127843232Y-128584476D02*
X127605137Y-128394000D01*
X127605137Y-128394000D02*
X127486090Y-128203523D01*
X127486090Y-128203523D02*
X127367042Y-127822571D01*
X127367042Y-127822571D02*
X127367042Y-126679714D01*
X127367042Y-126679714D02*
X127486090Y-126298761D01*
X127486090Y-126298761D02*
X127605137Y-126108285D01*
X127605137Y-126108285D02*
X127843232Y-125917809D01*
X127843232Y-125917809D02*
X128200375Y-125917809D01*
X128200375Y-125917809D02*
X128438471Y-126108285D01*
X128438471Y-126108285D02*
X128557518Y-126298761D01*
X128557518Y-126298761D02*
X128676566Y-126679714D01*
X128676566Y-126679714D02*
X128676566Y-127822571D01*
X128676566Y-127822571D02*
X128557518Y-128203523D01*
X128557518Y-128203523D02*
X128438471Y-128394000D01*
X128438471Y-128394000D02*
X128200375Y-128584476D01*
X128200375Y-128584476D02*
X127843232Y-128584476D01*
X133081328Y-128203523D02*
X132962280Y-128394000D01*
X132962280Y-128394000D02*
X132605138Y-128584476D01*
X132605138Y-128584476D02*
X132367042Y-128584476D01*
X132367042Y-128584476D02*
X132009899Y-128394000D01*
X132009899Y-128394000D02*
X131771804Y-128013047D01*
X131771804Y-128013047D02*
X131652757Y-127632095D01*
X131652757Y-127632095D02*
X131533709Y-126870190D01*
X131533709Y-126870190D02*
X131533709Y-126298761D01*
X131533709Y-126298761D02*
X131652757Y-125536857D01*
X131652757Y-125536857D02*
X131771804Y-125155904D01*
X131771804Y-125155904D02*
X132009899Y-124774952D01*
X132009899Y-124774952D02*
X132367042Y-124584476D01*
X132367042Y-124584476D02*
X132605138Y-124584476D01*
X132605138Y-124584476D02*
X132962280Y-124774952D01*
X132962280Y-124774952D02*
X133081328Y-124965428D01*
X134509899Y-128584476D02*
X134271804Y-128394000D01*
X134271804Y-128394000D02*
X134152757Y-128203523D01*
X134152757Y-128203523D02*
X134033709Y-127822571D01*
X134033709Y-127822571D02*
X134033709Y-126679714D01*
X134033709Y-126679714D02*
X134152757Y-126298761D01*
X134152757Y-126298761D02*
X134271804Y-126108285D01*
X134271804Y-126108285D02*
X134509899Y-125917809D01*
X134509899Y-125917809D02*
X134867042Y-125917809D01*
X134867042Y-125917809D02*
X135105138Y-126108285D01*
X135105138Y-126108285D02*
X135224185Y-126298761D01*
X135224185Y-126298761D02*
X135343233Y-126679714D01*
X135343233Y-126679714D02*
X135343233Y-127822571D01*
X135343233Y-127822571D02*
X135224185Y-128203523D01*
X135224185Y-128203523D02*
X135105138Y-128394000D01*
X135105138Y-128394000D02*
X134867042Y-128584476D01*
X134867042Y-128584476D02*
X134509899Y-128584476D01*
X136414662Y-125917809D02*
X136414662Y-128584476D01*
X136414662Y-126298761D02*
X136533709Y-126108285D01*
X136533709Y-126108285D02*
X136771804Y-125917809D01*
X136771804Y-125917809D02*
X137128947Y-125917809D01*
X137128947Y-125917809D02*
X137367043Y-126108285D01*
X137367043Y-126108285D02*
X137486090Y-126489238D01*
X137486090Y-126489238D02*
X137486090Y-128584476D01*
X138319424Y-125917809D02*
X139271805Y-125917809D01*
X138676567Y-128584476D02*
X138676567Y-125155904D01*
X138676567Y-125155904D02*
X138795614Y-124774952D01*
X138795614Y-124774952D02*
X139033709Y-124584476D01*
X139033709Y-124584476D02*
X139271805Y-124584476D01*
X141057519Y-128394000D02*
X140819423Y-128584476D01*
X140819423Y-128584476D02*
X140343233Y-128584476D01*
X140343233Y-128584476D02*
X140105138Y-128394000D01*
X140105138Y-128394000D02*
X139986090Y-128013047D01*
X139986090Y-128013047D02*
X139986090Y-126489238D01*
X139986090Y-126489238D02*
X140105138Y-126108285D01*
X140105138Y-126108285D02*
X140343233Y-125917809D01*
X140343233Y-125917809D02*
X140819423Y-125917809D01*
X140819423Y-125917809D02*
X141057519Y-126108285D01*
X141057519Y-126108285D02*
X141176566Y-126489238D01*
X141176566Y-126489238D02*
X141176566Y-126870190D01*
X141176566Y-126870190D02*
X139986090Y-127251142D01*
X142247995Y-128584476D02*
X142247995Y-125917809D01*
X142247995Y-126679714D02*
X142367042Y-126298761D01*
X142367042Y-126298761D02*
X142486090Y-126108285D01*
X142486090Y-126108285D02*
X142724185Y-125917809D01*
X142724185Y-125917809D02*
X142962280Y-125917809D01*
X144747995Y-128394000D02*
X144509899Y-128584476D01*
X144509899Y-128584476D02*
X144033709Y-128584476D01*
X144033709Y-128584476D02*
X143795614Y-128394000D01*
X143795614Y-128394000D02*
X143676566Y-128013047D01*
X143676566Y-128013047D02*
X143676566Y-126489238D01*
X143676566Y-126489238D02*
X143795614Y-126108285D01*
X143795614Y-126108285D02*
X144033709Y-125917809D01*
X144033709Y-125917809D02*
X144509899Y-125917809D01*
X144509899Y-125917809D02*
X144747995Y-126108285D01*
X144747995Y-126108285D02*
X144867042Y-126489238D01*
X144867042Y-126489238D02*
X144867042Y-126870190D01*
X144867042Y-126870190D02*
X143676566Y-127251142D01*
X145938471Y-125917809D02*
X145938471Y-128584476D01*
X145938471Y-126298761D02*
X146057518Y-126108285D01*
X146057518Y-126108285D02*
X146295613Y-125917809D01*
X146295613Y-125917809D02*
X146652756Y-125917809D01*
X146652756Y-125917809D02*
X146890852Y-126108285D01*
X146890852Y-126108285D02*
X147009899Y-126489238D01*
X147009899Y-126489238D02*
X147009899Y-128584476D01*
X149271804Y-128394000D02*
X149033709Y-128584476D01*
X149033709Y-128584476D02*
X148557518Y-128584476D01*
X148557518Y-128584476D02*
X148319423Y-128394000D01*
X148319423Y-128394000D02*
X148200376Y-128203523D01*
X148200376Y-128203523D02*
X148081328Y-127822571D01*
X148081328Y-127822571D02*
X148081328Y-126679714D01*
X148081328Y-126679714D02*
X148200376Y-126298761D01*
X148200376Y-126298761D02*
X148319423Y-126108285D01*
X148319423Y-126108285D02*
X148557518Y-125917809D01*
X148557518Y-125917809D02*
X149033709Y-125917809D01*
X149033709Y-125917809D02*
X149271804Y-126108285D01*
X151295614Y-128394000D02*
X151057518Y-128584476D01*
X151057518Y-128584476D02*
X150581328Y-128584476D01*
X150581328Y-128584476D02*
X150343233Y-128394000D01*
X150343233Y-128394000D02*
X150224185Y-128013047D01*
X150224185Y-128013047D02*
X150224185Y-126489238D01*
X150224185Y-126489238D02*
X150343233Y-126108285D01*
X150343233Y-126108285D02*
X150581328Y-125917809D01*
X150581328Y-125917809D02*
X151057518Y-125917809D01*
X151057518Y-125917809D02*
X151295614Y-126108285D01*
X151295614Y-126108285D02*
X151414661Y-126489238D01*
X151414661Y-126489238D02*
X151414661Y-126870190D01*
X151414661Y-126870190D02*
X150224185Y-127251142D01*
X154271804Y-124965428D02*
X154390852Y-124774952D01*
X154390852Y-124774952D02*
X154628947Y-124584476D01*
X154628947Y-124584476D02*
X155224185Y-124584476D01*
X155224185Y-124584476D02*
X155462280Y-124774952D01*
X155462280Y-124774952D02*
X155581328Y-124965428D01*
X155581328Y-124965428D02*
X155700375Y-125346380D01*
X155700375Y-125346380D02*
X155700375Y-125727333D01*
X155700375Y-125727333D02*
X155581328Y-126298761D01*
X155581328Y-126298761D02*
X154152756Y-128584476D01*
X154152756Y-128584476D02*
X155700375Y-128584476D01*
X157247994Y-124584476D02*
X157486089Y-124584476D01*
X157486089Y-124584476D02*
X157724185Y-124774952D01*
X157724185Y-124774952D02*
X157843232Y-124965428D01*
X157843232Y-124965428D02*
X157962280Y-125346380D01*
X157962280Y-125346380D02*
X158081327Y-126108285D01*
X158081327Y-126108285D02*
X158081327Y-127060666D01*
X158081327Y-127060666D02*
X157962280Y-127822571D01*
X157962280Y-127822571D02*
X157843232Y-128203523D01*
X157843232Y-128203523D02*
X157724185Y-128394000D01*
X157724185Y-128394000D02*
X157486089Y-128584476D01*
X157486089Y-128584476D02*
X157247994Y-128584476D01*
X157247994Y-128584476D02*
X157009899Y-128394000D01*
X157009899Y-128394000D02*
X156890851Y-128203523D01*
X156890851Y-128203523D02*
X156771804Y-127822571D01*
X156771804Y-127822571D02*
X156652756Y-127060666D01*
X156652756Y-127060666D02*
X156652756Y-126108285D01*
X156652756Y-126108285D02*
X156771804Y-125346380D01*
X156771804Y-125346380D02*
X156890851Y-124965428D01*
X156890851Y-124965428D02*
X157009899Y-124774952D01*
X157009899Y-124774952D02*
X157247994Y-124584476D01*
X159033708Y-124965428D02*
X159152756Y-124774952D01*
X159152756Y-124774952D02*
X159390851Y-124584476D01*
X159390851Y-124584476D02*
X159986089Y-124584476D01*
X159986089Y-124584476D02*
X160224184Y-124774952D01*
X160224184Y-124774952D02*
X160343232Y-124965428D01*
X160343232Y-124965428D02*
X160462279Y-125346380D01*
X160462279Y-125346380D02*
X160462279Y-125727333D01*
X160462279Y-125727333D02*
X160343232Y-126298761D01*
X160343232Y-126298761D02*
X158914660Y-128584476D01*
X158914660Y-128584476D02*
X160462279Y-128584476D01*
X162605136Y-124584476D02*
X162128946Y-124584476D01*
X162128946Y-124584476D02*
X161890850Y-124774952D01*
X161890850Y-124774952D02*
X161771803Y-124965428D01*
X161771803Y-124965428D02*
X161533708Y-125536857D01*
X161533708Y-125536857D02*
X161414660Y-126298761D01*
X161414660Y-126298761D02*
X161414660Y-127822571D01*
X161414660Y-127822571D02*
X161533708Y-128203523D01*
X161533708Y-128203523D02*
X161652755Y-128394000D01*
X161652755Y-128394000D02*
X161890850Y-128584476D01*
X161890850Y-128584476D02*
X162367041Y-128584476D01*
X162367041Y-128584476D02*
X162605136Y-128394000D01*
X162605136Y-128394000D02*
X162724184Y-128203523D01*
X162724184Y-128203523D02*
X162843231Y-127822571D01*
X162843231Y-127822571D02*
X162843231Y-126870190D01*
X162843231Y-126870190D02*
X162724184Y-126489238D01*
X162724184Y-126489238D02*
X162605136Y-126298761D01*
X162605136Y-126298761D02*
X162367041Y-126108285D01*
X162367041Y-126108285D02*
X161890850Y-126108285D01*
X161890850Y-126108285D02*
X161652755Y-126298761D01*
X161652755Y-126298761D02*
X161533708Y-126489238D01*
X161533708Y-126489238D02*
X161414660Y-126870190D01*
D11*
X102623333Y-78354819D02*
X102290000Y-77878628D01*
X102051905Y-78354819D02*
X102051905Y-77354819D01*
X102051905Y-77354819D02*
X102432857Y-77354819D01*
X102432857Y-77354819D02*
X102528095Y-77402438D01*
X102528095Y-77402438D02*
X102575714Y-77450057D01*
X102575714Y-77450057D02*
X102623333Y-77545295D01*
X102623333Y-77545295D02*
X102623333Y-77688152D01*
X102623333Y-77688152D02*
X102575714Y-77783390D01*
X102575714Y-77783390D02*
X102528095Y-77831009D01*
X102528095Y-77831009D02*
X102432857Y-77878628D01*
X102432857Y-77878628D02*
X102051905Y-77878628D01*
X103575714Y-78354819D02*
X103004286Y-78354819D01*
X103290000Y-78354819D02*
X103290000Y-77354819D01*
X103290000Y-77354819D02*
X103194762Y-77497676D01*
X103194762Y-77497676D02*
X103099524Y-77592914D01*
X103099524Y-77592914D02*
X103004286Y-77640533D01*
X183466666Y-69804819D02*
X183133333Y-69328628D01*
X182895238Y-69804819D02*
X182895238Y-68804819D01*
X182895238Y-68804819D02*
X183276190Y-68804819D01*
X183276190Y-68804819D02*
X183371428Y-68852438D01*
X183371428Y-68852438D02*
X183419047Y-68900057D01*
X183419047Y-68900057D02*
X183466666Y-68995295D01*
X183466666Y-68995295D02*
X183466666Y-69138152D01*
X183466666Y-69138152D02*
X183419047Y-69233390D01*
X183419047Y-69233390D02*
X183371428Y-69281009D01*
X183371428Y-69281009D02*
X183276190Y-69328628D01*
X183276190Y-69328628D02*
X182895238Y-69328628D01*
X183895238Y-69281009D02*
X184228571Y-69281009D01*
X184371428Y-69804819D02*
X183895238Y-69804819D01*
X183895238Y-69804819D02*
X183895238Y-68804819D01*
X183895238Y-68804819D02*
X184371428Y-68804819D01*
X185133333Y-69281009D02*
X184800000Y-69281009D01*
X184800000Y-69804819D02*
X184800000Y-68804819D01*
X184800000Y-68804819D02*
X185276190Y-68804819D01*
X185800000Y-68804819D02*
X185800000Y-69042914D01*
X185561905Y-68947676D02*
X185800000Y-69042914D01*
X185800000Y-69042914D02*
X186038095Y-68947676D01*
X185657143Y-69233390D02*
X185800000Y-69042914D01*
X185800000Y-69042914D02*
X185942857Y-69233390D01*
X186561905Y-68804819D02*
X186561905Y-69042914D01*
X186323810Y-68947676D02*
X186561905Y-69042914D01*
X186561905Y-69042914D02*
X186800000Y-68947676D01*
X186419048Y-69233390D02*
X186561905Y-69042914D01*
X186561905Y-69042914D02*
X186704762Y-69233390D01*
X91866666Y-69804819D02*
X91533333Y-69328628D01*
X91295238Y-69804819D02*
X91295238Y-68804819D01*
X91295238Y-68804819D02*
X91676190Y-68804819D01*
X91676190Y-68804819D02*
X91771428Y-68852438D01*
X91771428Y-68852438D02*
X91819047Y-68900057D01*
X91819047Y-68900057D02*
X91866666Y-68995295D01*
X91866666Y-68995295D02*
X91866666Y-69138152D01*
X91866666Y-69138152D02*
X91819047Y-69233390D01*
X91819047Y-69233390D02*
X91771428Y-69281009D01*
X91771428Y-69281009D02*
X91676190Y-69328628D01*
X91676190Y-69328628D02*
X91295238Y-69328628D01*
X92295238Y-69281009D02*
X92628571Y-69281009D01*
X92771428Y-69804819D02*
X92295238Y-69804819D01*
X92295238Y-69804819D02*
X92295238Y-68804819D01*
X92295238Y-68804819D02*
X92771428Y-68804819D01*
X93533333Y-69281009D02*
X93200000Y-69281009D01*
X93200000Y-69804819D02*
X93200000Y-68804819D01*
X93200000Y-68804819D02*
X93676190Y-68804819D01*
X94200000Y-68804819D02*
X94200000Y-69042914D01*
X93961905Y-68947676D02*
X94200000Y-69042914D01*
X94200000Y-69042914D02*
X94438095Y-68947676D01*
X94057143Y-69233390D02*
X94200000Y-69042914D01*
X94200000Y-69042914D02*
X94342857Y-69233390D01*
X94961905Y-68804819D02*
X94961905Y-69042914D01*
X94723810Y-68947676D02*
X94961905Y-69042914D01*
X94961905Y-69042914D02*
X95200000Y-68947676D01*
X94819048Y-69233390D02*
X94961905Y-69042914D01*
X94961905Y-69042914D02*
X95104762Y-69233390D01*
X139476666Y-68604819D02*
X139476666Y-69319104D01*
X139476666Y-69319104D02*
X139429047Y-69461961D01*
X139429047Y-69461961D02*
X139333809Y-69557200D01*
X139333809Y-69557200D02*
X139190952Y-69604819D01*
X139190952Y-69604819D02*
X139095714Y-69604819D01*
X139857619Y-68604819D02*
X140476666Y-68604819D01*
X140476666Y-68604819D02*
X140143333Y-68985771D01*
X140143333Y-68985771D02*
X140286190Y-68985771D01*
X140286190Y-68985771D02*
X140381428Y-69033390D01*
X140381428Y-69033390D02*
X140429047Y-69081009D01*
X140429047Y-69081009D02*
X140476666Y-69176247D01*
X140476666Y-69176247D02*
X140476666Y-69414342D01*
X140476666Y-69414342D02*
X140429047Y-69509580D01*
X140429047Y-69509580D02*
X140381428Y-69557200D01*
X140381428Y-69557200D02*
X140286190Y-69604819D01*
X140286190Y-69604819D02*
X140000476Y-69604819D01*
X140000476Y-69604819D02*
X139905238Y-69557200D01*
X139905238Y-69557200D02*
X139857619Y-69509580D01*
X101991905Y-73954819D02*
X101991905Y-72954819D01*
X101991905Y-72954819D02*
X102230000Y-72954819D01*
X102230000Y-72954819D02*
X102372857Y-73002438D01*
X102372857Y-73002438D02*
X102468095Y-73097676D01*
X102468095Y-73097676D02*
X102515714Y-73192914D01*
X102515714Y-73192914D02*
X102563333Y-73383390D01*
X102563333Y-73383390D02*
X102563333Y-73526247D01*
X102563333Y-73526247D02*
X102515714Y-73716723D01*
X102515714Y-73716723D02*
X102468095Y-73811961D01*
X102468095Y-73811961D02*
X102372857Y-73907200D01*
X102372857Y-73907200D02*
X102230000Y-73954819D01*
X102230000Y-73954819D02*
X101991905Y-73954819D01*
X103468095Y-72954819D02*
X102991905Y-72954819D01*
X102991905Y-72954819D02*
X102944286Y-73431009D01*
X102944286Y-73431009D02*
X102991905Y-73383390D01*
X102991905Y-73383390D02*
X103087143Y-73335771D01*
X103087143Y-73335771D02*
X103325238Y-73335771D01*
X103325238Y-73335771D02*
X103420476Y-73383390D01*
X103420476Y-73383390D02*
X103468095Y-73431009D01*
X103468095Y-73431009D02*
X103515714Y-73526247D01*
X103515714Y-73526247D02*
X103515714Y-73764342D01*
X103515714Y-73764342D02*
X103468095Y-73859580D01*
X103468095Y-73859580D02*
X103420476Y-73907200D01*
X103420476Y-73907200D02*
X103325238Y-73954819D01*
X103325238Y-73954819D02*
X103087143Y-73954819D01*
X103087143Y-73954819D02*
X102991905Y-73907200D01*
X102991905Y-73907200D02*
X102944286Y-73859580D01*
X159666666Y-69804819D02*
X159333333Y-69328628D01*
X159095238Y-69804819D02*
X159095238Y-68804819D01*
X159095238Y-68804819D02*
X159476190Y-68804819D01*
X159476190Y-68804819D02*
X159571428Y-68852438D01*
X159571428Y-68852438D02*
X159619047Y-68900057D01*
X159619047Y-68900057D02*
X159666666Y-68995295D01*
X159666666Y-68995295D02*
X159666666Y-69138152D01*
X159666666Y-69138152D02*
X159619047Y-69233390D01*
X159619047Y-69233390D02*
X159571428Y-69281009D01*
X159571428Y-69281009D02*
X159476190Y-69328628D01*
X159476190Y-69328628D02*
X159095238Y-69328628D01*
X160095238Y-69281009D02*
X160428571Y-69281009D01*
X160571428Y-69804819D02*
X160095238Y-69804819D01*
X160095238Y-69804819D02*
X160095238Y-68804819D01*
X160095238Y-68804819D02*
X160571428Y-68804819D01*
X161333333Y-69281009D02*
X161000000Y-69281009D01*
X161000000Y-69804819D02*
X161000000Y-68804819D01*
X161000000Y-68804819D02*
X161476190Y-68804819D01*
X162000000Y-68804819D02*
X162000000Y-69042914D01*
X161761905Y-68947676D02*
X162000000Y-69042914D01*
X162000000Y-69042914D02*
X162238095Y-68947676D01*
X161857143Y-69233390D02*
X162000000Y-69042914D01*
X162000000Y-69042914D02*
X162142857Y-69233390D01*
X162761905Y-68804819D02*
X162761905Y-69042914D01*
X162523810Y-68947676D02*
X162761905Y-69042914D01*
X162761905Y-69042914D02*
X163000000Y-68947676D01*
X162619048Y-69233390D02*
X162761905Y-69042914D01*
X162761905Y-69042914D02*
X162904762Y-69233390D01*
X116166666Y-69654819D02*
X115833333Y-69178628D01*
X115595238Y-69654819D02*
X115595238Y-68654819D01*
X115595238Y-68654819D02*
X115976190Y-68654819D01*
X115976190Y-68654819D02*
X116071428Y-68702438D01*
X116071428Y-68702438D02*
X116119047Y-68750057D01*
X116119047Y-68750057D02*
X116166666Y-68845295D01*
X116166666Y-68845295D02*
X116166666Y-68988152D01*
X116166666Y-68988152D02*
X116119047Y-69083390D01*
X116119047Y-69083390D02*
X116071428Y-69131009D01*
X116071428Y-69131009D02*
X115976190Y-69178628D01*
X115976190Y-69178628D02*
X115595238Y-69178628D01*
X116595238Y-69131009D02*
X116928571Y-69131009D01*
X117071428Y-69654819D02*
X116595238Y-69654819D01*
X116595238Y-69654819D02*
X116595238Y-68654819D01*
X116595238Y-68654819D02*
X117071428Y-68654819D01*
X117833333Y-69131009D02*
X117500000Y-69131009D01*
X117500000Y-69654819D02*
X117500000Y-68654819D01*
X117500000Y-68654819D02*
X117976190Y-68654819D01*
X118500000Y-68654819D02*
X118500000Y-68892914D01*
X118261905Y-68797676D02*
X118500000Y-68892914D01*
X118500000Y-68892914D02*
X118738095Y-68797676D01*
X118357143Y-69083390D02*
X118500000Y-68892914D01*
X118500000Y-68892914D02*
X118642857Y-69083390D01*
X119261905Y-68654819D02*
X119261905Y-68892914D01*
X119023810Y-68797676D02*
X119261905Y-68892914D01*
X119261905Y-68892914D02*
X119500000Y-68797676D01*
X119119048Y-69083390D02*
X119261905Y-68892914D01*
X119261905Y-68892914D02*
X119404762Y-69083390D01*
D13*
X103548095Y-102707419D02*
X103548095Y-103516942D01*
X103548095Y-103516942D02*
X103595714Y-103612180D01*
X103595714Y-103612180D02*
X103643333Y-103659800D01*
X103643333Y-103659800D02*
X103738571Y-103707419D01*
X103738571Y-103707419D02*
X103929047Y-103707419D01*
X103929047Y-103707419D02*
X104024285Y-103659800D01*
X104024285Y-103659800D02*
X104071904Y-103612180D01*
X104071904Y-103612180D02*
X104119523Y-103516942D01*
X104119523Y-103516942D02*
X104119523Y-102707419D01*
X104548095Y-102802657D02*
X104595714Y-102755038D01*
X104595714Y-102755038D02*
X104690952Y-102707419D01*
X104690952Y-102707419D02*
X104929047Y-102707419D01*
X104929047Y-102707419D02*
X105024285Y-102755038D01*
X105024285Y-102755038D02*
X105071904Y-102802657D01*
X105071904Y-102802657D02*
X105119523Y-102897895D01*
X105119523Y-102897895D02*
X105119523Y-102993133D01*
X105119523Y-102993133D02*
X105071904Y-103135990D01*
X105071904Y-103135990D02*
X104500476Y-103707419D01*
X104500476Y-103707419D02*
X105119523Y-103707419D01*
X104746228Y-96355639D02*
X105222419Y-96355639D01*
X104222419Y-96688972D02*
X104746228Y-96355639D01*
X104746228Y-96355639D02*
X104222419Y-96022306D01*
X106670038Y-98022306D02*
X106622419Y-98117544D01*
X106622419Y-98117544D02*
X106622419Y-98260401D01*
X106622419Y-98260401D02*
X106670038Y-98403258D01*
X106670038Y-98403258D02*
X106765276Y-98498496D01*
X106765276Y-98498496D02*
X106860514Y-98546115D01*
X106860514Y-98546115D02*
X107050990Y-98593734D01*
X107050990Y-98593734D02*
X107193847Y-98593734D01*
X107193847Y-98593734D02*
X107384323Y-98546115D01*
X107384323Y-98546115D02*
X107479561Y-98498496D01*
X107479561Y-98498496D02*
X107574800Y-98403258D01*
X107574800Y-98403258D02*
X107622419Y-98260401D01*
X107622419Y-98260401D02*
X107622419Y-98165163D01*
X107622419Y-98165163D02*
X107574800Y-98022306D01*
X107574800Y-98022306D02*
X107527180Y-97974687D01*
X107527180Y-97974687D02*
X107193847Y-97974687D01*
X107193847Y-97974687D02*
X107193847Y-98165163D01*
X107622419Y-97546115D02*
X106622419Y-97546115D01*
X106622419Y-97546115D02*
X107622419Y-96974687D01*
X107622419Y-96974687D02*
X106622419Y-96974687D01*
X107622419Y-96498496D02*
X106622419Y-96498496D01*
X106622419Y-96498496D02*
X106622419Y-96260401D01*
X106622419Y-96260401D02*
X106670038Y-96117544D01*
X106670038Y-96117544D02*
X106765276Y-96022306D01*
X106765276Y-96022306D02*
X106860514Y-95974687D01*
X106860514Y-95974687D02*
X107050990Y-95927068D01*
X107050990Y-95927068D02*
X107193847Y-95927068D01*
X107193847Y-95927068D02*
X107384323Y-95974687D01*
X107384323Y-95974687D02*
X107479561Y-96022306D01*
X107479561Y-96022306D02*
X107574800Y-96117544D01*
X107574800Y-96117544D02*
X107622419Y-96260401D01*
X107622419Y-96260401D02*
X107622419Y-96498496D01*
X98077693Y-105470038D02*
X97982455Y-105422419D01*
X97982455Y-105422419D02*
X97839598Y-105422419D01*
X97839598Y-105422419D02*
X97696741Y-105470038D01*
X97696741Y-105470038D02*
X97601503Y-105565276D01*
X97601503Y-105565276D02*
X97553884Y-105660514D01*
X97553884Y-105660514D02*
X97506265Y-105850990D01*
X97506265Y-105850990D02*
X97506265Y-105993847D01*
X97506265Y-105993847D02*
X97553884Y-106184323D01*
X97553884Y-106184323D02*
X97601503Y-106279561D01*
X97601503Y-106279561D02*
X97696741Y-106374800D01*
X97696741Y-106374800D02*
X97839598Y-106422419D01*
X97839598Y-106422419D02*
X97934836Y-106422419D01*
X97934836Y-106422419D02*
X98077693Y-106374800D01*
X98077693Y-106374800D02*
X98125312Y-106327180D01*
X98125312Y-106327180D02*
X98125312Y-105993847D01*
X98125312Y-105993847D02*
X97934836Y-105993847D01*
X98553884Y-106422419D02*
X98553884Y-105422419D01*
X98553884Y-105422419D02*
X99125312Y-106422419D01*
X99125312Y-106422419D02*
X99125312Y-105422419D01*
X99601503Y-106422419D02*
X99601503Y-105422419D01*
X99601503Y-105422419D02*
X99839598Y-105422419D01*
X99839598Y-105422419D02*
X99982455Y-105470038D01*
X99982455Y-105470038D02*
X100077693Y-105565276D01*
X100077693Y-105565276D02*
X100125312Y-105660514D01*
X100125312Y-105660514D02*
X100172931Y-105850990D01*
X100172931Y-105850990D02*
X100172931Y-105993847D01*
X100172931Y-105993847D02*
X100125312Y-106184323D01*
X100125312Y-106184323D02*
X100077693Y-106279561D01*
X100077693Y-106279561D02*
X99982455Y-106374800D01*
X99982455Y-106374800D02*
X99839598Y-106422419D01*
X99839598Y-106422419D02*
X99601503Y-106422419D01*
X101822419Y-98688972D02*
X102822419Y-98355639D01*
X102822419Y-98355639D02*
X101822419Y-98022306D01*
X102727180Y-97117544D02*
X102774800Y-97165163D01*
X102774800Y-97165163D02*
X102822419Y-97308020D01*
X102822419Y-97308020D02*
X102822419Y-97403258D01*
X102822419Y-97403258D02*
X102774800Y-97546115D01*
X102774800Y-97546115D02*
X102679561Y-97641353D01*
X102679561Y-97641353D02*
X102584323Y-97688972D01*
X102584323Y-97688972D02*
X102393847Y-97736591D01*
X102393847Y-97736591D02*
X102250990Y-97736591D01*
X102250990Y-97736591D02*
X102060514Y-97688972D01*
X102060514Y-97688972D02*
X101965276Y-97641353D01*
X101965276Y-97641353D02*
X101870038Y-97546115D01*
X101870038Y-97546115D02*
X101822419Y-97403258D01*
X101822419Y-97403258D02*
X101822419Y-97308020D01*
X101822419Y-97308020D02*
X101870038Y-97165163D01*
X101870038Y-97165163D02*
X101917657Y-97117544D01*
X102727180Y-96117544D02*
X102774800Y-96165163D01*
X102774800Y-96165163D02*
X102822419Y-96308020D01*
X102822419Y-96308020D02*
X102822419Y-96403258D01*
X102822419Y-96403258D02*
X102774800Y-96546115D01*
X102774800Y-96546115D02*
X102679561Y-96641353D01*
X102679561Y-96641353D02*
X102584323Y-96688972D01*
X102584323Y-96688972D02*
X102393847Y-96736591D01*
X102393847Y-96736591D02*
X102250990Y-96736591D01*
X102250990Y-96736591D02*
X102060514Y-96688972D01*
X102060514Y-96688972D02*
X101965276Y-96641353D01*
X101965276Y-96641353D02*
X101870038Y-96546115D01*
X101870038Y-96546115D02*
X101822419Y-96403258D01*
X101822419Y-96403258D02*
X101822419Y-96308020D01*
X101822419Y-96308020D02*
X101870038Y-96165163D01*
X101870038Y-96165163D02*
X101917657Y-96117544D01*
X97411027Y-100322419D02*
X97744360Y-101322419D01*
X97744360Y-101322419D02*
X98077693Y-100322419D01*
X98982455Y-101227180D02*
X98934836Y-101274800D01*
X98934836Y-101274800D02*
X98791979Y-101322419D01*
X98791979Y-101322419D02*
X98696741Y-101322419D01*
X98696741Y-101322419D02*
X98553884Y-101274800D01*
X98553884Y-101274800D02*
X98458646Y-101179561D01*
X98458646Y-101179561D02*
X98411027Y-101084323D01*
X98411027Y-101084323D02*
X98363408Y-100893847D01*
X98363408Y-100893847D02*
X98363408Y-100750990D01*
X98363408Y-100750990D02*
X98411027Y-100560514D01*
X98411027Y-100560514D02*
X98458646Y-100465276D01*
X98458646Y-100465276D02*
X98553884Y-100370038D01*
X98553884Y-100370038D02*
X98696741Y-100322419D01*
X98696741Y-100322419D02*
X98791979Y-100322419D01*
X98791979Y-100322419D02*
X98934836Y-100370038D01*
X98934836Y-100370038D02*
X98982455Y-100417657D01*
X99982455Y-101227180D02*
X99934836Y-101274800D01*
X99934836Y-101274800D02*
X99791979Y-101322419D01*
X99791979Y-101322419D02*
X99696741Y-101322419D01*
X99696741Y-101322419D02*
X99553884Y-101274800D01*
X99553884Y-101274800D02*
X99458646Y-101179561D01*
X99458646Y-101179561D02*
X99411027Y-101084323D01*
X99411027Y-101084323D02*
X99363408Y-100893847D01*
X99363408Y-100893847D02*
X99363408Y-100750990D01*
X99363408Y-100750990D02*
X99411027Y-100560514D01*
X99411027Y-100560514D02*
X99458646Y-100465276D01*
X99458646Y-100465276D02*
X99553884Y-100370038D01*
X99553884Y-100370038D02*
X99696741Y-100322419D01*
X99696741Y-100322419D02*
X99791979Y-100322419D01*
X99791979Y-100322419D02*
X99934836Y-100370038D01*
X99934836Y-100370038D02*
X99982455Y-100417657D01*
X97558646Y-102722419D02*
X98225312Y-103722419D01*
X98225312Y-102722419D02*
X97558646Y-103722419D01*
D11*
X101447819Y-126561904D02*
X102257342Y-126561904D01*
X102257342Y-126561904D02*
X102352580Y-126514285D01*
X102352580Y-126514285D02*
X102400200Y-126466666D01*
X102400200Y-126466666D02*
X102447819Y-126371428D01*
X102447819Y-126371428D02*
X102447819Y-126180952D01*
X102447819Y-126180952D02*
X102400200Y-126085714D01*
X102400200Y-126085714D02*
X102352580Y-126038095D01*
X102352580Y-126038095D02*
X102257342Y-125990476D01*
X102257342Y-125990476D02*
X101447819Y-125990476D01*
X101447819Y-125609523D02*
X101447819Y-124990476D01*
X101447819Y-124990476D02*
X101828771Y-125323809D01*
X101828771Y-125323809D02*
X101828771Y-125180952D01*
X101828771Y-125180952D02*
X101876390Y-125085714D01*
X101876390Y-125085714D02*
X101924009Y-125038095D01*
X101924009Y-125038095D02*
X102019247Y-124990476D01*
X102019247Y-124990476D02*
X102257342Y-124990476D01*
X102257342Y-124990476D02*
X102352580Y-125038095D01*
X102352580Y-125038095D02*
X102400200Y-125085714D01*
X102400200Y-125085714D02*
X102447819Y-125180952D01*
X102447819Y-125180952D02*
X102447819Y-125466666D01*
X102447819Y-125466666D02*
X102400200Y-125561904D01*
X102400200Y-125561904D02*
X102352580Y-125609523D01*
D14*
X107069593Y-133628294D02*
X107069593Y-134039532D01*
X107069593Y-134039532D02*
X106205993Y-134039532D01*
X107069593Y-132846942D02*
X106658355Y-133134808D01*
X107069593Y-133340427D02*
X106205993Y-133340427D01*
X106205993Y-133340427D02*
X106205993Y-133011437D01*
X106205993Y-133011437D02*
X106247117Y-132929189D01*
X106247117Y-132929189D02*
X106288241Y-132888066D01*
X106288241Y-132888066D02*
X106370489Y-132846942D01*
X106370489Y-132846942D02*
X106493860Y-132846942D01*
X106493860Y-132846942D02*
X106576108Y-132888066D01*
X106576108Y-132888066D02*
X106617231Y-132929189D01*
X106617231Y-132929189D02*
X106658355Y-133011437D01*
X106658355Y-133011437D02*
X106658355Y-133340427D01*
X106987346Y-131983342D02*
X107028470Y-132024466D01*
X107028470Y-132024466D02*
X107069593Y-132147837D01*
X107069593Y-132147837D02*
X107069593Y-132230085D01*
X107069593Y-132230085D02*
X107028470Y-132353456D01*
X107028470Y-132353456D02*
X106946222Y-132435704D01*
X106946222Y-132435704D02*
X106863974Y-132476827D01*
X106863974Y-132476827D02*
X106699479Y-132517951D01*
X106699479Y-132517951D02*
X106576108Y-132517951D01*
X106576108Y-132517951D02*
X106411612Y-132476827D01*
X106411612Y-132476827D02*
X106329365Y-132435704D01*
X106329365Y-132435704D02*
X106247117Y-132353456D01*
X106247117Y-132353456D02*
X106205993Y-132230085D01*
X106205993Y-132230085D02*
X106205993Y-132147837D01*
X106205993Y-132147837D02*
X106247117Y-132024466D01*
X106247117Y-132024466D02*
X106288241Y-131983342D01*
X110747117Y-126721914D02*
X110705993Y-126804161D01*
X110705993Y-126804161D02*
X110705993Y-126927533D01*
X110705993Y-126927533D02*
X110747117Y-127050904D01*
X110747117Y-127050904D02*
X110829365Y-127133152D01*
X110829365Y-127133152D02*
X110911612Y-127174275D01*
X110911612Y-127174275D02*
X111076108Y-127215399D01*
X111076108Y-127215399D02*
X111199479Y-127215399D01*
X111199479Y-127215399D02*
X111363974Y-127174275D01*
X111363974Y-127174275D02*
X111446222Y-127133152D01*
X111446222Y-127133152D02*
X111528470Y-127050904D01*
X111528470Y-127050904D02*
X111569593Y-126927533D01*
X111569593Y-126927533D02*
X111569593Y-126845285D01*
X111569593Y-126845285D02*
X111528470Y-126721914D01*
X111528470Y-126721914D02*
X111487346Y-126680790D01*
X111487346Y-126680790D02*
X111199479Y-126680790D01*
X111199479Y-126680790D02*
X111199479Y-126845285D01*
X111322850Y-126351799D02*
X111322850Y-125940561D01*
X111569593Y-126434047D02*
X110705993Y-126146180D01*
X110705993Y-126146180D02*
X111569593Y-125858314D01*
X111569593Y-125570446D02*
X110705993Y-125570446D01*
X111569593Y-125159208D02*
X110705993Y-125159208D01*
X110705993Y-125159208D02*
X111569593Y-124665723D01*
X111569593Y-124665723D02*
X110705993Y-124665723D01*
X111117231Y-132151466D02*
X111158355Y-132028094D01*
X111158355Y-132028094D02*
X111199479Y-131986971D01*
X111199479Y-131986971D02*
X111281727Y-131945847D01*
X111281727Y-131945847D02*
X111405098Y-131945847D01*
X111405098Y-131945847D02*
X111487346Y-131986971D01*
X111487346Y-131986971D02*
X111528470Y-132028094D01*
X111528470Y-132028094D02*
X111569593Y-132110342D01*
X111569593Y-132110342D02*
X111569593Y-132439332D01*
X111569593Y-132439332D02*
X110705993Y-132439332D01*
X110705993Y-132439332D02*
X110705993Y-132151466D01*
X110705993Y-132151466D02*
X110747117Y-132069218D01*
X110747117Y-132069218D02*
X110788241Y-132028094D01*
X110788241Y-132028094D02*
X110870489Y-131986971D01*
X110870489Y-131986971D02*
X110952736Y-131986971D01*
X110952736Y-131986971D02*
X111034984Y-132028094D01*
X111034984Y-132028094D02*
X111076108Y-132069218D01*
X111076108Y-132069218D02*
X111117231Y-132151466D01*
X111117231Y-132151466D02*
X111117231Y-132439332D01*
X111487346Y-131082247D02*
X111528470Y-131123371D01*
X111528470Y-131123371D02*
X111569593Y-131246742D01*
X111569593Y-131246742D02*
X111569593Y-131328990D01*
X111569593Y-131328990D02*
X111528470Y-131452361D01*
X111528470Y-131452361D02*
X111446222Y-131534609D01*
X111446222Y-131534609D02*
X111363974Y-131575732D01*
X111363974Y-131575732D02*
X111199479Y-131616856D01*
X111199479Y-131616856D02*
X111076108Y-131616856D01*
X111076108Y-131616856D02*
X110911612Y-131575732D01*
X110911612Y-131575732D02*
X110829365Y-131534609D01*
X110829365Y-131534609D02*
X110747117Y-131452361D01*
X110747117Y-131452361D02*
X110705993Y-131328990D01*
X110705993Y-131328990D02*
X110705993Y-131246742D01*
X110705993Y-131246742D02*
X110747117Y-131123371D01*
X110747117Y-131123371D02*
X110788241Y-131082247D01*
X111569593Y-130300894D02*
X111569593Y-130712132D01*
X111569593Y-130712132D02*
X110705993Y-130712132D01*
X111569593Y-130013027D02*
X110705993Y-130013027D01*
X111569593Y-129519542D02*
X111076108Y-129889656D01*
X110705993Y-129519542D02*
X111199479Y-130013027D01*
X107028470Y-124185542D02*
X107069593Y-124062171D01*
X107069593Y-124062171D02*
X107069593Y-123856552D01*
X107069593Y-123856552D02*
X107028470Y-123774304D01*
X107028470Y-123774304D02*
X106987346Y-123733180D01*
X106987346Y-123733180D02*
X106905098Y-123692057D01*
X106905098Y-123692057D02*
X106822850Y-123692057D01*
X106822850Y-123692057D02*
X106740603Y-123733180D01*
X106740603Y-123733180D02*
X106699479Y-123774304D01*
X106699479Y-123774304D02*
X106658355Y-123856552D01*
X106658355Y-123856552D02*
X106617231Y-124021047D01*
X106617231Y-124021047D02*
X106576108Y-124103295D01*
X106576108Y-124103295D02*
X106534984Y-124144418D01*
X106534984Y-124144418D02*
X106452736Y-124185542D01*
X106452736Y-124185542D02*
X106370489Y-124185542D01*
X106370489Y-124185542D02*
X106288241Y-124144418D01*
X106288241Y-124144418D02*
X106247117Y-124103295D01*
X106247117Y-124103295D02*
X106205993Y-124021047D01*
X106205993Y-124021047D02*
X106205993Y-123815428D01*
X106205993Y-123815428D02*
X106247117Y-123692057D01*
X107069593Y-123321942D02*
X106205993Y-123321942D01*
X106205993Y-123321942D02*
X106205993Y-123116323D01*
X106205993Y-123116323D02*
X106247117Y-122992952D01*
X106247117Y-122992952D02*
X106329365Y-122910704D01*
X106329365Y-122910704D02*
X106411612Y-122869581D01*
X106411612Y-122869581D02*
X106576108Y-122828457D01*
X106576108Y-122828457D02*
X106699479Y-122828457D01*
X106699479Y-122828457D02*
X106863974Y-122869581D01*
X106863974Y-122869581D02*
X106946222Y-122910704D01*
X106946222Y-122910704D02*
X107028470Y-122992952D01*
X107028470Y-122992952D02*
X107069593Y-123116323D01*
X107069593Y-123116323D02*
X107069593Y-123321942D01*
X110747117Y-121497981D02*
X110705993Y-121580228D01*
X110705993Y-121580228D02*
X110705993Y-121703600D01*
X110705993Y-121703600D02*
X110747117Y-121826971D01*
X110747117Y-121826971D02*
X110829365Y-121909219D01*
X110829365Y-121909219D02*
X110911612Y-121950342D01*
X110911612Y-121950342D02*
X111076108Y-121991466D01*
X111076108Y-121991466D02*
X111199479Y-121991466D01*
X111199479Y-121991466D02*
X111363974Y-121950342D01*
X111363974Y-121950342D02*
X111446222Y-121909219D01*
X111446222Y-121909219D02*
X111528470Y-121826971D01*
X111528470Y-121826971D02*
X111569593Y-121703600D01*
X111569593Y-121703600D02*
X111569593Y-121621352D01*
X111569593Y-121621352D02*
X111528470Y-121497981D01*
X111528470Y-121497981D02*
X111487346Y-121456857D01*
X111487346Y-121456857D02*
X111199479Y-121456857D01*
X111199479Y-121456857D02*
X111199479Y-121621352D01*
X111569593Y-121086742D02*
X110705993Y-121086742D01*
X110705993Y-121086742D02*
X111569593Y-120593257D01*
X111569593Y-120593257D02*
X110705993Y-120593257D01*
X111569593Y-120182018D02*
X110705993Y-120182018D01*
X110705993Y-120182018D02*
X110705993Y-119976399D01*
X110705993Y-119976399D02*
X110747117Y-119853028D01*
X110747117Y-119853028D02*
X110829365Y-119770780D01*
X110829365Y-119770780D02*
X110911612Y-119729657D01*
X110911612Y-119729657D02*
X111076108Y-119688533D01*
X111076108Y-119688533D02*
X111199479Y-119688533D01*
X111199479Y-119688533D02*
X111363974Y-119729657D01*
X111363974Y-119729657D02*
X111446222Y-119770780D01*
X111446222Y-119770780D02*
X111528470Y-119853028D01*
X111528470Y-119853028D02*
X111569593Y-119976399D01*
X111569593Y-119976399D02*
X111569593Y-120182018D01*
X106205993Y-119057161D02*
X107069593Y-118769294D01*
X107069593Y-118769294D02*
X106205993Y-118481428D01*
X107069593Y-118193560D02*
X106493860Y-118193560D01*
X106205993Y-118193560D02*
X106247117Y-118234684D01*
X106247117Y-118234684D02*
X106288241Y-118193560D01*
X106288241Y-118193560D02*
X106247117Y-118152437D01*
X106247117Y-118152437D02*
X106205993Y-118193560D01*
X106205993Y-118193560D02*
X106288241Y-118193560D01*
X106493860Y-117782322D02*
X107069593Y-117782322D01*
X106576108Y-117782322D02*
X106534984Y-117741199D01*
X106534984Y-117741199D02*
X106493860Y-117658951D01*
X106493860Y-117658951D02*
X106493860Y-117535580D01*
X106493860Y-117535580D02*
X106534984Y-117453332D01*
X106534984Y-117453332D02*
X106617231Y-117412208D01*
X106617231Y-117412208D02*
X107069593Y-117412208D01*
X107069593Y-129217161D02*
X106205993Y-129217161D01*
X106205993Y-129217161D02*
X106205993Y-129011542D01*
X106205993Y-129011542D02*
X106247117Y-128888171D01*
X106247117Y-128888171D02*
X106329365Y-128805923D01*
X106329365Y-128805923D02*
X106411612Y-128764800D01*
X106411612Y-128764800D02*
X106576108Y-128723676D01*
X106576108Y-128723676D02*
X106699479Y-128723676D01*
X106699479Y-128723676D02*
X106863974Y-128764800D01*
X106863974Y-128764800D02*
X106946222Y-128805923D01*
X106946222Y-128805923D02*
X107028470Y-128888171D01*
X107028470Y-128888171D02*
X107069593Y-129011542D01*
X107069593Y-129011542D02*
X107069593Y-129217161D01*
X107069593Y-128353561D02*
X106205993Y-128353561D01*
X107069593Y-127942323D02*
X106205993Y-127942323D01*
X106205993Y-127942323D02*
X107069593Y-127448838D01*
X107069593Y-127448838D02*
X106205993Y-127448838D01*
D10*
%TO.C,J2*%
X168040000Y-76880000D02*
X168040000Y-75500000D01*
X169420000Y-76880000D02*
X168040000Y-76880000D01*
X170690000Y-74120000D02*
X175880000Y-74120000D01*
X170690000Y-76880000D02*
X170690000Y-74120000D01*
X170690000Y-76880000D02*
X175880000Y-76880000D01*
X175880000Y-76880000D02*
X175880000Y-74120000D01*
%TO.C,J4*%
X174520000Y-127420000D02*
X175900000Y-127420000D01*
X174520000Y-128800000D02*
X174520000Y-127420000D01*
X174520000Y-130070000D02*
X174520000Y-137800000D01*
X174520000Y-130070000D02*
X177280000Y-130070000D01*
X174520000Y-137800000D02*
X177280000Y-137800000D01*
X177280000Y-130070000D02*
X177280000Y-137800000D01*
D15*
%TO.C,U3*%
X92846000Y-122520000D02*
X92846000Y-129520000D01*
X92846000Y-129520000D02*
X94246000Y-129520000D01*
D16*
X92890000Y-132270000D02*
X92890000Y-119570000D01*
D15*
X94246000Y-122520000D02*
X92846000Y-122520000D01*
X94246000Y-122520000D02*
X94246000Y-129520000D01*
X94246000Y-129520000D02*
X99846000Y-129520000D01*
D16*
X95430000Y-117030000D02*
X109400000Y-117030000D01*
X95493000Y-134800000D02*
X109463000Y-134800000D01*
D15*
X99846000Y-122520000D02*
X94246000Y-122520000D01*
X99846000Y-129520000D02*
X99846000Y-122520000D01*
D16*
X111940000Y-119570000D02*
X111940000Y-132270000D01*
X92890000Y-119570000D02*
G75*
G02*
X95430000Y-117030000I2540000J0D01*
G01*
X95446452Y-134797238D02*
G75*
G02*
X92906452Y-132257238I1J2540001D01*
G01*
X109400000Y-117030000D02*
G75*
G02*
X111940000Y-119570000I0J-2540000D01*
G01*
X111940000Y-132270000D02*
G75*
G02*
X109400000Y-134810000I-2540001J1D01*
G01*
D15*
X97430000Y-119570000D02*
G75*
G02*
X93430000Y-119570000I-2000000J0D01*
G01*
X93430000Y-119570000D02*
G75*
G02*
X97430000Y-119570000I2000000J0D01*
G01*
X97430000Y-132270000D02*
G75*
G02*
X93430000Y-132270000I-2000000J0D01*
G01*
X93430000Y-132270000D02*
G75*
G02*
X97430000Y-132270000I2000000J0D01*
G01*
%TD*%
G36*
X169754418Y-135600316D02*
G01*
X170025785Y-135619724D01*
X170043297Y-135622242D01*
X170304794Y-135679127D01*
X170321770Y-135684111D01*
X170572524Y-135777638D01*
X170588617Y-135784988D01*
X170823496Y-135913241D01*
X170838380Y-135922806D01*
X171052624Y-136083188D01*
X171065994Y-136094774D01*
X171255225Y-136284005D01*
X171266811Y-136297375D01*
X171427193Y-136511619D01*
X171436758Y-136526503D01*
X171565011Y-136761382D01*
X171572361Y-136777475D01*
X171665888Y-137028229D01*
X171670872Y-137045205D01*
X171727757Y-137306702D01*
X171730275Y-137324214D01*
X171749684Y-137595581D01*
X171750000Y-137604427D01*
X171750000Y-155095572D01*
X171749684Y-155104418D01*
X171730275Y-155375785D01*
X171727757Y-155393297D01*
X171670872Y-155654794D01*
X171665888Y-155671770D01*
X171572361Y-155922524D01*
X171565011Y-155938617D01*
X171436758Y-156173496D01*
X171427193Y-156188380D01*
X171266811Y-156402624D01*
X171255225Y-156415994D01*
X171065994Y-156605225D01*
X171052624Y-156616811D01*
X170838380Y-156777193D01*
X170823496Y-156786758D01*
X170588617Y-156915011D01*
X170572524Y-156922361D01*
X170321770Y-157015888D01*
X170304794Y-157020872D01*
X170043297Y-157077757D01*
X170025785Y-157080275D01*
X169754418Y-157099684D01*
X169745572Y-157100000D01*
X110704428Y-157100000D01*
X110695582Y-157099684D01*
X110424214Y-157080275D01*
X110406702Y-157077757D01*
X110145205Y-157020872D01*
X110128229Y-157015888D01*
X109877475Y-156922361D01*
X109861382Y-156915011D01*
X109626503Y-156786758D01*
X109611619Y-156777193D01*
X109397375Y-156616811D01*
X109384005Y-156605225D01*
X109194774Y-156415994D01*
X109183188Y-156402624D01*
X109022806Y-156188380D01*
X109013241Y-156173496D01*
X108884988Y-155938617D01*
X108877638Y-155922524D01*
X108784111Y-155671770D01*
X108779127Y-155654794D01*
X108722242Y-155393297D01*
X108719724Y-155375785D01*
X108700316Y-155104418D01*
X108700000Y-155095572D01*
X108700000Y-137604427D01*
X108700316Y-137595581D01*
X108719724Y-137324214D01*
X108722242Y-137306702D01*
X108779127Y-137045205D01*
X108784111Y-137028229D01*
X108877638Y-136777475D01*
X108884988Y-136761382D01*
X109013241Y-136526503D01*
X109022806Y-136511619D01*
X109183188Y-136297375D01*
X109194774Y-136284005D01*
X109384005Y-136094774D01*
X109397375Y-136083188D01*
X109611619Y-135922806D01*
X109626503Y-135913241D01*
X109861382Y-135784988D01*
X109877475Y-135777638D01*
X110128229Y-135684111D01*
X110145205Y-135679127D01*
X110406702Y-135622242D01*
X110424214Y-135619724D01*
X110695582Y-135600316D01*
X110704428Y-135600000D01*
X169745572Y-135600000D01*
X169754418Y-135600316D01*
G37*
M02*
