M48
; DRILL file {KiCad 9.0.9-9.0.9~ubuntu24.04.1} date 2026-09-14T09:09:27+0900
; FORMAT={-:-/ absolute / inch / decimal}
; #@! TF.CreationDate,2026-09-14T09:09:27+09:00
; #@! TF.GenerationSoftware,Kicad,Pcbnew,9.0.9-9.0.9~ubuntu24.04.1
; #@! TF.FileFunction,Plated,1,2,PTH
FMAT,2
INCH
; #@! TA.AperFunction,Plated,PTH,ViaDrill
T1C0.0118
; #@! TA.AperFunction,Plated,PTH,ComponentDrill
T2C0.0315
; #@! TA.AperFunction,Plated,PTH,ComponentDrill
T3C0.0354
; #@! TA.AperFunction,Plated,PTH,ComponentDrill
T4C0.0394
; #@! TA.AperFunction,Plated,PTH,ComponentDrill
T5C0.0472
; #@! TA.AperFunction,Plated,PTH,ComponentDrill
T6C0.0591
%
G90
G05
T1
X3.5886Y-2.8012
X3.8583Y-2.9646
X3.9567Y-6.5118
X4.0157Y-3.3622
X4.6063Y-3.1024
X5.0669Y-4.4016
X5.1969Y-6.5827
X5.2402Y-4.4016
X5.3189Y-4.4016
X5.3898Y-4.4016
X5.4646Y-4.4016
X5.5512Y-4.4016
X5.5984Y-4.4016
X5.6457Y-4.4016
X5.6969Y-4.4016
X5.7441Y-4.4016
X5.815Y-4.4016
X5.9606Y-3.4646
X6.1654Y-4.315
X6.2677Y-4.315
X6.3465Y-4.2677
X6.378Y-3.1102
X6.5157Y-4.0197
X6.5433Y-4.315
X6.5512Y-4.252
X6.6063Y-4.252
X6.7874Y-6.4606
X6.8898Y-6.5118
X7.0276Y-5.0197
X7.063Y-3.4055
X7.0945Y-4.1969
X7.3071Y-2.811
X7.3071Y-3.0
X7.3071Y-6.563
T2
X3.6961Y-3.1102
X3.8976Y-3.2992
X3.8976Y-3.378
X3.8976Y-3.4567
X3.8976Y-3.5354
X3.9961Y-3.1102
X4.7662Y-3.1997
X4.7662Y-4.0997
X4.8662Y-3.2047
X4.8662Y-4.1047
X4.9662Y-3.1947
X4.9662Y-4.0947
X5.0662Y-3.2047
X5.0662Y-4.1047
X5.1662Y-3.1947
X5.1662Y-4.0947
X5.2662Y-3.2047
X5.2662Y-4.1047
X5.3662Y-3.1947
X5.3662Y-4.0947
X5.4662Y-3.2047
X5.4662Y-4.1047
X5.5662Y-3.1947
X5.5662Y-4.0947
X5.6662Y-3.2047
X5.6662Y-4.1047
X5.7662Y-3.1947
X5.7662Y-4.0947
X5.8662Y-3.2047
X5.8662Y-4.1047
X5.9662Y-3.1947
X5.9662Y-4.0947
X6.0662Y-3.2047
X6.0662Y-4.1047
X6.1662Y-3.1947
X6.1662Y-4.0947
X6.2662Y-3.2047
X6.2662Y-4.1047
X6.3662Y-3.1947
X6.3662Y-4.0947
X6.4662Y-3.2047
X6.4662Y-4.1047
X6.5662Y-3.1947
X6.5662Y-4.0947
X6.6661Y-3.2047
X6.6662Y-4.1047
X6.7661Y-3.1947
X6.7662Y-4.0947
X6.8661Y-3.2047
X6.8662Y-4.1047
T3
X3.9945Y-2.8937
X4.0945Y-2.8937
T4
X3.7764Y-3.9665
X3.7764Y-4.065
X3.7764Y-4.1634
X3.7971Y-4.8315
X3.7971Y-4.9693
X4.0217Y-3.7213
X4.1201Y-3.7213
X4.2185Y-3.7213
X4.2374Y-3.189
X4.3071Y-4.5984
X4.3071Y-4.6984
X4.3071Y-4.7984
X4.3071Y-4.8984
X4.3071Y-4.9984
X4.3071Y-5.0984
X4.3071Y-5.1984
X4.4342Y-3.189
X5.1402Y-6.3819
X5.1402Y-6.4819
X5.1504Y-2.9108
X5.2402Y-6.3819
X5.2402Y-6.4819
X5.2504Y-2.9108
X5.3402Y-6.3819
X5.3402Y-6.4819
X5.3504Y-2.9108
X5.4402Y-6.3819
X5.4402Y-6.4819
X5.4504Y-2.9108
X5.5402Y-6.3819
X5.5402Y-6.4819
X5.5504Y-2.9108
X5.6402Y-6.3819
X5.6402Y-6.4819
X5.6504Y-2.9108
X5.7402Y-6.3819
X5.7402Y-6.4819
X5.7504Y-2.9108
X5.8402Y-6.3819
X5.8402Y-6.4819
X5.8504Y-2.9108
X6.6701Y-2.9724
X6.7701Y-2.9724
X6.8701Y-2.9724
X6.9252Y-5.0709
X6.9252Y-5.1709
X6.9252Y-5.2709
X6.9252Y-5.3709
T5
X4.3465Y-3.937
X4.3465Y-4.1929
X4.5236Y-3.937
X4.5236Y-4.1929
T6
X3.9232Y-3.8159
X3.9232Y-4.314
X4.3169Y-3.8159
X4.3169Y-4.314
M30
