%TF.GenerationSoftware,KiCad,Pcbnew,9.0.9-9.0.9~ubuntu24.04.1*%
%TF.CreationDate,2026-09-19T12:19:29+09:00*%
%TF.ProjectId,tinygo-conf-2026,74696e79-676f-42d6-936f-6e662d323032,rev?*%
%TF.SameCoordinates,Original*%
%TF.FileFunction,Copper,L2,Bot*%
%TF.FilePolarity,Positive*%
%FSLAX46Y46*%
G04 Gerber Fmt 4.6, Leading zero omitted, Abs format (unit mm)*
G04 Created by KiCad (PCBNEW 9.0.9-9.0.9~ubuntu24.04.1) date 2026-09-19 12:19:29*
%MOMM*%
%LPD*%
G01*
G04 APERTURE LIST*
%TA.AperFunction,ComponentPad*%
%ADD10C,1.600000*%
%TD*%
%TA.AperFunction,ComponentPad*%
%ADD11R,1.700000X1.700000*%
%TD*%
%TA.AperFunction,ComponentPad*%
%ADD12C,1.700000*%
%TD*%
%TA.AperFunction,ComponentPad*%
%ADD13R,2.000000X2.000000*%
%TD*%
%TA.AperFunction,ComponentPad*%
%ADD14C,2.000000*%
%TD*%
%TA.AperFunction,ComponentPad*%
%ADD15R,1.800000X1.800000*%
%TD*%
%TA.AperFunction,ComponentPad*%
%ADD16C,1.800000*%
%TD*%
%TA.AperFunction,ComponentPad*%
%ADD17R,1.350000X1.350000*%
%TD*%
%TA.AperFunction,ComponentPad*%
%ADD18C,1.350000*%
%TD*%
%TA.AperFunction,ComponentPad*%
%ADD19C,2.500000*%
%TD*%
%TA.AperFunction,ComponentPad*%
%ADD20C,2.200000*%
%TD*%
%TA.AperFunction,ComponentPad*%
%ADD21O,3.000000X1.750000*%
%TD*%
%TA.AperFunction,ComponentPad*%
%ADD22O,4.000000X2.500000*%
%TD*%
%TA.AperFunction,SMDPad,CuDef*%
%ADD23R,2.550000X2.500000*%
%TD*%
%TA.AperFunction,SMDPad,CuDef*%
%ADD24R,1.700000X0.825000*%
%TD*%
%TA.AperFunction,ComponentPad*%
%ADD25R,1.200000X2.000000*%
%TD*%
%TA.AperFunction,ComponentPad*%
%ADD26O,1.200000X2.000000*%
%TD*%
%TA.AperFunction,ViaPad*%
%ADD27C,0.600000*%
%TD*%
%TA.AperFunction,Conductor*%
%ADD28C,0.600000*%
%TD*%
%TA.AperFunction,Conductor*%
%ADD29C,0.250000*%
%TD*%
G04 APERTURE END LIST*
D10*
%TO.P,R1,1*%
%TO.N,/IR_LED*%
X106600000Y-77900000D03*
%TO.P,R1,2*%
%TO.N,Net-(D5-A)*%
X98980000Y-77900000D03*
%TD*%
D11*
%TO.P,J2,1,Pin_1*%
%TO.N,/3V3*%
X169420000Y-75500000D03*
D12*
%TO.P,J2,2,Pin_2*%
%TO.N,GND*%
X171960000Y-75500000D03*
%TO.P,J2,3,Pin_3*%
%TO.N,/IR_DATA*%
X174500000Y-75500000D03*
%TD*%
D11*
%TO.P,J4,1,Pin_1*%
%TO.N,/3V3*%
X175900000Y-128800000D03*
D12*
%TO.P,J4,2,Pin_2*%
%TO.N,/SDA_AHT21B*%
X175900000Y-131340000D03*
%TO.P,J4,3,Pin_3*%
%TO.N,GND*%
X175900000Y-133880000D03*
%TO.P,J4,4,Pin_4*%
%TO.N,/SCL_AHT21B*%
X175900000Y-136420000D03*
%TD*%
D13*
%TO.P,LS1,1,1*%
%TO.N,Net-(U3-OUTP)*%
X110000000Y-88100000D03*
D14*
%TO.P,LS1,2,2*%
%TO.N,Net-(U3-OUTN)*%
X110000000Y-83100000D03*
%TD*%
D11*
%TO.P,J3,1,Pin_1*%
%TO.N,GND*%
X130819880Y-73933280D03*
D12*
%TO.P,J3,2,Pin_2*%
%TO.N,/3V3*%
X133359880Y-73933280D03*
%TO.P,J3,3,Pin_3*%
%TO.N,/SCL*%
X135899880Y-73933280D03*
%TO.P,J3,4,Pin_4*%
%TO.N,/SDA*%
X138439880Y-73933280D03*
%TO.P,J3,5,Pin_5*%
%TO.N,/RES*%
X140979880Y-73933280D03*
%TO.P,J3,6,Pin_6*%
%TO.N,/DC*%
X143519880Y-73933280D03*
%TO.P,J3,7,Pin_7*%
%TO.N,/CS*%
X146059880Y-73933280D03*
%TO.P,J3,8,Pin_8*%
%TO.N,/3V3*%
X148599880Y-73933280D03*
%TD*%
D15*
%TO.P,D5,1,K*%
%TO.N,GND*%
X104000000Y-73500000D03*
D16*
%TO.P,D5,2,A*%
%TO.N,Net-(D5-A)*%
X101460000Y-73500000D03*
%TD*%
D17*
%TO.P,J1,1,Pin_1*%
%TO.N,GND*%
X99000000Y-83400000D03*
D18*
%TO.P,J1,2,Pin_2*%
%TO.N,/3V3*%
X99000000Y-85400000D03*
%TO.P,J1,3,Pin_3*%
%TO.N,/I2C_SDA*%
X99000000Y-87400000D03*
%TO.P,J1,4,Pin_4*%
%TO.N,/I2C_SCL*%
X99000000Y-89400000D03*
%TD*%
D19*
%TO.P,U2,*%
%TO.N,*%
X99650000Y-96925000D03*
X99650000Y-109575000D03*
X109650000Y-96925000D03*
X109650000Y-109575000D03*
D14*
%TO.P,U2,1,VR1-1*%
%TO.N,GND*%
X107150000Y-94520000D03*
%TO.P,U2,2,VR1-2*%
%TO.N,/VR_X*%
X104650000Y-94520000D03*
%TO.P,U2,3,VR1-3*%
%TO.N,/3V3*%
X102150000Y-94520000D03*
%TO.P,U2,4,VR2-1*%
X95920000Y-100750000D03*
%TO.P,U2,5,VR2-2*%
%TO.N,/VR_Y*%
X95920000Y-103250000D03*
%TO.P,U2,6,VR2-3*%
%TO.N,GND*%
X95920000Y-105750000D03*
D20*
%TO.P,U2,7,SW-a*%
X110400000Y-100000000D03*
X110400000Y-106500000D03*
%TO.P,U2,8,SW-b*%
%TO.N,/VR_BTN*%
X114900000Y-100000000D03*
X114900000Y-106500000D03*
%TD*%
D21*
%TO.P,U3,1,Vin*%
%TO.N,VCC*%
X108900000Y-118300000D03*
%TO.P,U3,2,GND*%
%TO.N,GND*%
X108900000Y-120840000D03*
%TO.P,U3,3,~{SD_MODE}*%
%TO.N,unconnected-(U3-~{SD_MODE}-Pad3)*%
X108900000Y-123380000D03*
%TO.P,U3,4,GAIN*%
%TO.N,GND*%
X108900000Y-125920000D03*
%TO.P,U3,5,DIN*%
%TO.N,/DIN*%
X108900000Y-128460000D03*
%TO.P,U3,6,BCLK*%
%TO.N,/BCLK*%
X108900000Y-131000000D03*
%TO.P,U3,7,LRC*%
%TO.N,/LRC*%
X108900000Y-133540000D03*
D22*
%TO.P,U3,8,OUTP*%
%TO.N,Net-(U3-OUTP)*%
X96446000Y-127720000D03*
%TO.P,U3,9,OUTN*%
%TO.N,Net-(U3-OUTN)*%
X96446000Y-124220000D03*
%TD*%
D23*
%TO.P,SW1,1,1*%
%TO.N,/SW1*%
X166435000Y-91460000D03*
%TO.P,SW1,2,2*%
%TO.N,GND*%
X179362000Y-88920000D03*
%TD*%
D11*
%TO.P,J5,1,Pin_1*%
%TO.N,/3V3*%
X130560000Y-164640000D03*
D12*
%TO.P,J5,2,Pin_2*%
X133100000Y-164640000D03*
%TO.P,J5,3,Pin_3*%
%TO.N,/GPIO1*%
X135640000Y-164640000D03*
%TO.P,J5,4,Pin_4*%
%TO.N,/GPIO2*%
X138180000Y-164640000D03*
%TO.P,J5,5,Pin_5*%
%TO.N,/GPIO3*%
X140720000Y-164640000D03*
%TO.P,J5,6,Pin_6*%
%TO.N,/GPIO35*%
X143260000Y-164640000D03*
%TO.P,J5,7,Pin_7*%
%TO.N,/GPIO36*%
X145800000Y-164640000D03*
%TO.P,J5,8,Pin_8*%
%TO.N,GND*%
X148340000Y-164640000D03*
%TO.P,J5,9,Pin_9*%
X148340000Y-162100000D03*
%TO.P,J5,10,Pin_10*%
%TO.N,/GPIO37*%
X145800000Y-162100000D03*
%TO.P,J5,11,Pin_11*%
%TO.N,/GPIO38*%
X143260000Y-162100000D03*
%TO.P,J5,12,Pin_12*%
%TO.N,/GPIO39*%
X140720000Y-162100000D03*
%TO.P,J5,13,Pin_13*%
%TO.N,/GPIO40*%
X138180000Y-162100000D03*
%TO.P,J5,14,Pin_14*%
%TO.N,/GPIO41*%
X135640000Y-162100000D03*
%TO.P,J5,15,Pin_15*%
%TO.N,/GPIO42*%
X133100000Y-162100000D03*
%TO.P,J5,16,Pin_16*%
%TO.N,VCC*%
X130560000Y-162100000D03*
%TD*%
D24*
%TO.P,D1,1,VDD*%
%TO.N,/3V3*%
X97200000Y-151600000D03*
%TO.P,D1,2,DOUT*%
%TO.N,Net-(D1-DOUT)*%
X97200000Y-153000000D03*
%TO.P,D1,3,VSS*%
%TO.N,GND*%
X102800000Y-153000000D03*
%TO.P,D1,4,DIN*%
%TO.N,/LED*%
X102800000Y-151600000D03*
%TD*%
D25*
%TO.P,U4,1,3V3*%
%TO.N,/3V3*%
X121062720Y-81273000D03*
D26*
%TO.P,U4,2,3V3*%
X123602720Y-81273000D03*
%TO.P,U4,3,EN/RESET*%
%TO.N,unconnected-(U4-EN{slash}RESET-Pad3)*%
X126142720Y-81273000D03*
%TO.P,U4,4,GPIO4*%
%TO.N,/RES*%
X128682720Y-81273000D03*
%TO.P,U4,5,GPIO5*%
%TO.N,/DC*%
X131222720Y-81273000D03*
%TO.P,U4,6,GPIO6*%
%TO.N,/VR_Y*%
X133762720Y-81273000D03*
%TO.P,U4,7,GPIO7*%
%TO.N,/VR_X*%
X136302720Y-81273000D03*
%TO.P,U4,8,GPIO15*%
%TO.N,/VR_BTN*%
X138842720Y-81273000D03*
%TO.P,U4,9,GPIO16*%
%TO.N,/LED*%
X141382720Y-81273000D03*
%TO.P,U4,10,GPIO17*%
%TO.N,/IR_LED*%
X143922720Y-81273000D03*
%TO.P,U4,11,GPIO18*%
%TO.N,/IR_DATA*%
X146462720Y-81273000D03*
%TO.P,U4,12,GPIO8*%
%TO.N,/I2C_SDA*%
X149002720Y-81273000D03*
%TO.P,U4,13,GPIO3*%
%TO.N,/GPIO3*%
X151542720Y-81273000D03*
%TO.P,U4,14,GPIO46*%
%TO.N,/SDA_AHT21B*%
X154082720Y-81273000D03*
%TO.P,U4,15,GPIO9*%
%TO.N,/I2C_SCL*%
X156622720Y-81273000D03*
%TO.P,U4,16,GPIO10*%
%TO.N,/CS*%
X159162720Y-81273000D03*
%TO.P,U4,17,GPIO11*%
%TO.N,/SDA*%
X161702720Y-81273000D03*
%TO.P,U4,18,GPIO12*%
%TO.N,/SCL*%
X164242720Y-81273000D03*
%TO.P,U4,19,GPIO13*%
%TO.N,/SW1*%
X166782720Y-81273000D03*
%TO.P,U4,20,GPIO14*%
%TO.N,/SW2*%
X169320000Y-81269320D03*
%TO.P,U4,21,5V*%
%TO.N,VCC*%
X171860000Y-81269320D03*
%TO.P,U4,22,GND*%
%TO.N,GND*%
X174400000Y-81269320D03*
%TO.P,U4,23,GND*%
X174402720Y-104133000D03*
%TO.P,U4,24,GND*%
X171862720Y-104133000D03*
%TO.P,U4,25,GPIO19*%
%TO.N,unconnected-(U4-GPIO19-Pad25)*%
X169322720Y-104133000D03*
%TO.P,U4,26,GPIO20*%
%TO.N,unconnected-(U4-GPIO20-Pad26)*%
X166782720Y-104133000D03*
%TO.P,U4,27,GPIO21*%
%TO.N,/LRC*%
X164242720Y-104133000D03*
%TO.P,U4,28,GPIO47*%
%TO.N,/DIN*%
X161702720Y-104133000D03*
%TO.P,U4,29,GPIO48*%
%TO.N,/SCL_AHT21B*%
X159162720Y-104133000D03*
%TO.P,U4,30,GPIO45*%
%TO.N,/BCLK*%
X156622720Y-104133000D03*
%TO.P,U4,31,GPIO0*%
%TO.N,unconnected-(U4-GPIO0-Pad31)*%
X154082720Y-104133000D03*
%TO.P,U4,32,GPIO35*%
%TO.N,/GPIO35*%
X151542720Y-104133000D03*
%TO.P,U4,33,GPIO36*%
%TO.N,/GPIO36*%
X149002720Y-104133000D03*
%TO.P,U4,34,GPIO37*%
%TO.N,/GPIO37*%
X146462720Y-104133000D03*
%TO.P,U4,35,GPIO38*%
%TO.N,/GPIO38*%
X143922720Y-104133000D03*
%TO.P,U4,36,GPIO39/MTCK*%
%TO.N,/GPIO39*%
X141382720Y-104133000D03*
%TO.P,U4,37,GPIO40/MTDO*%
%TO.N,/GPIO40*%
X138842720Y-104133000D03*
%TO.P,U4,38,GPIO41/MTDI*%
%TO.N,/GPIO41*%
X136302720Y-104133000D03*
%TO.P,U4,39,GPIO42/MTMS*%
%TO.N,/GPIO42*%
X133762720Y-104133000D03*
%TO.P,U4,40,GPIO2*%
%TO.N,/GPIO2*%
X131222720Y-104133000D03*
%TO.P,U4,41,GPIO1*%
%TO.N,/GPIO1*%
X128682720Y-104133000D03*
%TO.P,U4,42,GPIO44/U0RXD*%
%TO.N,unconnected-(U4-GPIO44{slash}U0RXD-Pad42)*%
X126142720Y-104133000D03*
%TO.P,U4,43,GPIO43/U0TXD*%
%TO.N,unconnected-(U4-GPIO43{slash}U0TXD-Pad43)*%
X123602720Y-104133000D03*
%TO.P,U4,44,GND*%
%TO.N,GND*%
X121062720Y-104133000D03*
%TD*%
D24*
%TO.P,D2,1,VDD*%
%TO.N,/3V3*%
X176687500Y-151600000D03*
%TO.P,D2,2,DOUT*%
%TO.N,unconnected-(D2-DOUT-Pad2)*%
X176687500Y-153000000D03*
%TO.P,D2,3,VSS*%
%TO.N,GND*%
X182287500Y-153000000D03*
%TO.P,D2,4,DIN*%
%TO.N,Net-(D1-DOUT)*%
X182287500Y-151600000D03*
%TD*%
D23*
%TO.P,SW2,1,1*%
%TO.N,/SW2*%
X166435000Y-112000000D03*
%TO.P,SW2,2,2*%
%TO.N,GND*%
X179362000Y-109460000D03*
%TD*%
D27*
%TO.N,Net-(D1-DOUT)*%
X126200000Y-159500000D03*
X152900000Y-158600000D03*
%TO.N,GND*%
X179400000Y-86500000D03*
X103200000Y-154600000D03*
X182200000Y-155800000D03*
X180200000Y-106600000D03*
%TO.N,/3V3*%
X128100000Y-163900000D03*
X149600000Y-159600000D03*
%TO.N,Net-(U3-OUTP)*%
X106100000Y-89000000D03*
%TO.N,/SW2*%
X165500000Y-102100000D03*
X166200000Y-109600000D03*
%TO.N,/DIN*%
X161200000Y-108400000D03*
%TO.N,/IR_DATA*%
X153700000Y-84600000D03*
X160800000Y-84600000D03*
%TO.N,/LRC*%
X162100000Y-110400000D03*
%TO.N,/BCLK*%
X156600000Y-109600000D03*
%TO.N,/GPIO38*%
X143400000Y-111800000D03*
%TO.N,/GPIO39*%
X141000000Y-111800000D03*
%TO.N,/GPIO36*%
X147700000Y-111800000D03*
%TO.N,/GPIO41*%
X135100000Y-111800000D03*
%TO.N,/SDA_AHT21B*%
X162450000Y-108650000D03*
X157400000Y-82950000D03*
%TO.N,/GPIO2*%
X136900000Y-111800000D03*
%TO.N,/GPIO3*%
X151400000Y-88000000D03*
X142200000Y-111800000D03*
%TO.N,/GPIO35*%
X144700000Y-111800000D03*
%TO.N,/SCL_AHT21B*%
X161150000Y-111350000D03*
%TO.N,/GPIO37*%
X145900000Y-111800000D03*
%TO.N,/GPIO40*%
X138800000Y-111800000D03*
%TO.N,/GPIO42*%
X133100000Y-111800000D03*
%TO.N,/GPIO1*%
X128700000Y-111800000D03*
%TD*%
D28*
%TO.N,VCC*%
X106250000Y-120700000D02*
X108650000Y-118300000D01*
X130560000Y-162100000D02*
X126860000Y-158400000D01*
X171860000Y-83960000D02*
X173100000Y-85200000D01*
X109400000Y-116800000D02*
X109400000Y-118300000D01*
X181137000Y-103663000D02*
X178000000Y-106800000D01*
X106250000Y-120700000D02*
X106250000Y-154050000D01*
X180300000Y-85200000D02*
X181137000Y-86037000D01*
X171860000Y-81269320D02*
X171860000Y-83960000D01*
X126860000Y-158400000D02*
X110600000Y-158400000D01*
X181137000Y-86037000D02*
X181137000Y-103663000D01*
X173100000Y-85200000D02*
X180300000Y-85200000D01*
X110600000Y-158400000D02*
X106250000Y-154050000D01*
X108650000Y-118300000D02*
X109400000Y-118300000D01*
X178000000Y-106800000D02*
X119400000Y-106800000D01*
X119400000Y-106800000D02*
X109400000Y-116800000D01*
D29*
%TO.N,Net-(D1-DOUT)*%
X182287500Y-151600000D02*
X184000000Y-151600000D01*
X184000000Y-151600000D02*
X184300000Y-151900000D01*
X97200000Y-153733883D02*
X102966117Y-159500000D01*
X184300000Y-155000000D02*
X182875000Y-156425000D01*
X153900000Y-158600000D02*
X152900000Y-158600000D01*
X184300000Y-151900000D02*
X184300000Y-155000000D01*
X156075000Y-156425000D02*
X153900000Y-158600000D01*
X182875000Y-156425000D02*
X156075000Y-156425000D01*
X102966117Y-159500000D02*
X126200000Y-159500000D01*
X97200000Y-153000000D02*
X97200000Y-153733883D01*
%TO.N,/LED*%
X141382720Y-81273000D02*
X141227000Y-81273000D01*
X109600000Y-115200000D02*
X106100000Y-115200000D01*
X141227000Y-81273000D02*
X117800000Y-104700000D01*
X102800000Y-149600000D02*
X102800000Y-151600000D01*
X141382720Y-81146000D02*
X141354000Y-81146000D01*
X117800000Y-104700000D02*
X117800000Y-107000000D01*
X106100000Y-115200000D02*
X104100000Y-117200000D01*
X117800000Y-107000000D02*
X109600000Y-115200000D01*
X104100000Y-117200000D02*
X104100000Y-148300000D01*
X104100000Y-148300000D02*
X102800000Y-149600000D01*
D28*
%TO.N,GND*%
X179400000Y-88882000D02*
X179362000Y-88920000D01*
D29*
X182287500Y-155712500D02*
X182200000Y-155800000D01*
D28*
X179400000Y-86500000D02*
X179400000Y-88882000D01*
X180200000Y-108622000D02*
X179362000Y-109460000D01*
D29*
X182287500Y-153000000D02*
X182287500Y-155712500D01*
X102800000Y-154200000D02*
X103200000Y-154600000D01*
X102800000Y-153000000D02*
X102800000Y-154200000D01*
D28*
X180200000Y-106600000D02*
X180200000Y-108622000D01*
%TO.N,/3V3*%
X167450000Y-79100000D02*
X176800000Y-79100000D01*
X169420000Y-77130000D02*
X169420000Y-75500000D01*
X158600000Y-151100000D02*
X174212500Y-151100000D01*
X176800000Y-79100000D02*
X184400000Y-86700000D01*
X105570000Y-91100000D02*
X111900000Y-91100000D01*
X111270000Y-85400000D02*
X110600000Y-85400000D01*
X121062720Y-81273000D02*
X123475720Y-81273000D01*
X148599880Y-73933280D02*
X146466600Y-71800000D01*
X110600000Y-85400000D02*
X112400000Y-85400000D01*
X94800000Y-153700000D02*
X101400000Y-160300000D01*
X184400000Y-127300000D02*
X184400000Y-131900000D01*
X129118800Y-78301360D02*
X126574360Y-78301360D01*
X117500000Y-85500000D02*
X117500000Y-84700000D01*
X104735000Y-91935000D02*
X105570000Y-91100000D01*
X117500000Y-84700000D02*
X117500000Y-83700000D01*
X117500000Y-83700000D02*
X117500000Y-82473000D01*
X135620160Y-71800000D02*
X129118800Y-78301360D01*
X148599880Y-73933280D02*
X153766600Y-79100000D01*
X174212500Y-151100000D02*
X175200000Y-150112500D01*
X102150000Y-94520000D02*
X104735000Y-91935000D01*
X113900000Y-85400000D02*
X115800000Y-85400000D01*
X95300000Y-151600000D02*
X94800000Y-152100000D01*
X117500000Y-82473000D02*
X118700000Y-81273000D01*
X184400000Y-131900000D02*
X175200000Y-141100000D01*
X124500000Y-160300000D02*
X128100000Y-163900000D01*
X175900000Y-128800000D02*
X182900000Y-128800000D01*
X167450000Y-79100000D02*
X169420000Y-77130000D01*
X101400000Y-160300000D02*
X124500000Y-160300000D01*
X146466600Y-71800000D02*
X135620160Y-71800000D01*
X153766600Y-79100000D02*
X167450000Y-79100000D01*
X149600000Y-159600000D02*
X150100000Y-159600000D01*
X111900000Y-91100000D02*
X117500000Y-85500000D01*
X118700000Y-81273000D02*
X121062720Y-81273000D01*
X175200000Y-141100000D02*
X175200000Y-150112500D01*
X115800000Y-85400000D02*
X117500000Y-83700000D01*
X112400000Y-85400000D02*
X113900000Y-85400000D01*
X184400000Y-86700000D02*
X184400000Y-127300000D01*
X150100000Y-159600000D02*
X158600000Y-151100000D01*
X95920000Y-96280000D02*
X97680000Y-94520000D01*
X95920000Y-100750000D02*
X95920000Y-96280000D01*
X182900000Y-128800000D02*
X184400000Y-127300000D01*
X126574360Y-78301360D02*
X123602720Y-81273000D01*
X97680000Y-94520000D02*
X102150000Y-94520000D01*
X175200000Y-150112500D02*
X176687500Y-151600000D01*
X94800000Y-152100000D02*
X94800000Y-153700000D01*
X97200000Y-151600000D02*
X95300000Y-151600000D01*
X110600000Y-85400000D02*
X99000000Y-85400000D01*
X123475720Y-81273000D02*
X123602720Y-81400000D01*
D29*
%TO.N,/DC*%
X136518720Y-75850000D02*
X141730160Y-75850000D01*
X131222720Y-81146000D02*
X136518720Y-75850000D01*
X131222720Y-81273000D02*
X131222720Y-81146000D01*
X141730160Y-75850000D02*
X143519880Y-74060280D01*
%TO.N,/CS*%
X152800000Y-82300000D02*
X154100000Y-83600000D01*
X146059880Y-73806280D02*
X152800000Y-80546400D01*
X159162720Y-83037280D02*
X159162720Y-81273000D01*
X152800000Y-80546400D02*
X152800000Y-82300000D01*
X158600000Y-83600000D02*
X159162720Y-83037280D01*
X154100000Y-83600000D02*
X158600000Y-83600000D01*
%TO.N,Net-(U3-OUTN)*%
X95100000Y-81500000D02*
X93200000Y-83400000D01*
X110000000Y-83100000D02*
X108400000Y-81500000D01*
X108400000Y-81500000D02*
X95100000Y-81500000D01*
X93200000Y-120974000D02*
X96446000Y-124220000D01*
X93200000Y-83400000D02*
X93200000Y-120974000D01*
%TO.N,Net-(U3-OUTP)*%
X96200000Y-92000000D02*
X93900000Y-94300000D01*
X93900000Y-94300000D02*
X93900000Y-111900000D01*
X106100000Y-89000000D02*
X103100000Y-92000000D01*
X103100000Y-92000000D02*
X96200000Y-92000000D01*
X99600000Y-124800000D02*
X96680000Y-127720000D01*
X96680000Y-127720000D02*
X96446000Y-127720000D01*
X99600000Y-117600000D02*
X99600000Y-124800000D01*
X93900000Y-111900000D02*
X99600000Y-117600000D01*
%TO.N,/SW1*%
X166782720Y-81273000D02*
X166782720Y-91112280D01*
X166782720Y-91112280D02*
X166435000Y-91460000D01*
%TO.N,/SW2*%
X165857720Y-88862280D02*
X165857720Y-80362852D01*
X167871680Y-79821000D02*
X169320000Y-81269320D01*
X165600000Y-102200000D02*
X164835000Y-101435000D01*
X165857720Y-80362852D02*
X166399572Y-79821000D01*
X164835000Y-101435000D02*
X164835000Y-89885000D01*
X166200000Y-109600000D02*
X166200000Y-111765000D01*
X164835000Y-89885000D02*
X165857720Y-88862280D01*
X166200000Y-111765000D02*
X166435000Y-112000000D01*
X166399572Y-79821000D02*
X167871680Y-79821000D01*
%TO.N,/VR_Y*%
X137200000Y-79800000D02*
X137700000Y-80300000D01*
X119684745Y-93200000D02*
X110684744Y-102200000D01*
X110684744Y-102200000D02*
X96970000Y-102200000D01*
X133762720Y-81273000D02*
X135235720Y-79800000D01*
X126600000Y-93200000D02*
X119684745Y-93200000D01*
X137700000Y-82100000D02*
X126600000Y-93200000D01*
X137700000Y-80300000D02*
X137700000Y-82100000D01*
X96970000Y-102200000D02*
X95920000Y-103250000D01*
X135235720Y-79800000D02*
X137200000Y-79800000D01*
%TO.N,/VR_BTN*%
X138842720Y-82157280D02*
X138842720Y-81273000D01*
X121000000Y-100000000D02*
X138842720Y-82157280D01*
X114900000Y-100000000D02*
X121000000Y-100000000D01*
%TO.N,Net-(D5-A)*%
X98980000Y-77900000D02*
X98980000Y-75980000D01*
X98980000Y-75980000D02*
X101460000Y-73500000D01*
%TO.N,/DIN*%
X112800000Y-115600000D02*
X112800000Y-125060000D01*
X161200000Y-108400000D02*
X120000000Y-108400000D01*
X112800000Y-125060000D02*
X109400000Y-128460000D01*
X120000000Y-108400000D02*
X112800000Y-115600000D01*
%TO.N,/IR_DATA*%
X153700000Y-84600000D02*
X160800000Y-84600000D01*
%TO.N,/LRC*%
X114600000Y-116600000D02*
X114600000Y-128340000D01*
X120800000Y-110400000D02*
X114600000Y-116600000D01*
X162100000Y-110400000D02*
X120800000Y-110400000D01*
X114600000Y-128340000D02*
X109400000Y-133540000D01*
%TO.N,/BCLK*%
X120400000Y-109600000D02*
X113700000Y-116300000D01*
X113700000Y-126700000D02*
X109400000Y-131000000D01*
X113700000Y-116300000D02*
X113700000Y-126700000D01*
X156600000Y-109600000D02*
X120400000Y-109600000D01*
%TO.N,/VR_X*%
X106670000Y-92500000D02*
X125075720Y-92500000D01*
X104650000Y-94520000D02*
X106670000Y-92500000D01*
X125075720Y-92500000D02*
X136302720Y-81273000D01*
%TO.N,/RES*%
X128682720Y-81017280D02*
X134300000Y-75400000D01*
X140979880Y-74620120D02*
X140979880Y-73806280D01*
X134300000Y-75400000D02*
X140200000Y-75400000D01*
X140200000Y-75400000D02*
X140979880Y-74620120D01*
X128682720Y-81273000D02*
X128682720Y-81017280D01*
%TO.N,/GPIO38*%
X143260000Y-162100000D02*
X143260000Y-112040000D01*
X143260000Y-112040000D02*
X143400000Y-111900000D01*
%TO.N,/GPIO39*%
X140720000Y-112080000D02*
X141000000Y-111800000D01*
X140720000Y-162100000D02*
X140720000Y-112080000D01*
%TO.N,/GPIO36*%
X146975000Y-112525000D02*
X147700000Y-111800000D01*
X145800000Y-164640000D02*
X146975000Y-163465000D01*
X146975000Y-163465000D02*
X146975000Y-112525000D01*
%TO.N,/GPIO41*%
X135640000Y-112340000D02*
X135640000Y-162100000D01*
X135100000Y-111800000D02*
X135640000Y-112340000D01*
%TO.N,/SDA_AHT21B*%
X162450000Y-108650000D02*
X163400000Y-109600000D01*
X163400000Y-109600000D02*
X163400000Y-127600000D01*
X154082720Y-81273000D02*
X155759720Y-82950000D01*
X155759720Y-82950000D02*
X157400000Y-82950000D01*
X163400000Y-127600000D02*
X167140000Y-131340000D01*
X167140000Y-131340000D02*
X175900000Y-131340000D01*
%TO.N,/GPIO2*%
X136900000Y-111900000D02*
X136900000Y-163360000D01*
X136900000Y-163360000D02*
X138180000Y-164640000D01*
%TO.N,/GPIO3*%
X141895000Y-112105000D02*
X142200000Y-111800000D01*
X151542720Y-87857280D02*
X151400000Y-88000000D01*
X140720000Y-164640000D02*
X141895000Y-163465000D01*
X151542720Y-81273000D02*
X151542720Y-87857280D01*
X141895000Y-163465000D02*
X141895000Y-112105000D01*
%TO.N,/GPIO35*%
X144625000Y-163275000D02*
X144625000Y-111975000D01*
X143260000Y-164640000D02*
X144625000Y-163275000D01*
X144625000Y-111975000D02*
X144700000Y-111900000D01*
%TO.N,/SCL_AHT21B*%
X165620000Y-136420000D02*
X161150000Y-131950000D01*
X175900000Y-136420000D02*
X165620000Y-136420000D01*
X161150000Y-131950000D02*
X161150000Y-111350000D01*
%TO.N,/GPIO37*%
X145800000Y-112000000D02*
X145900000Y-111900000D01*
X145800000Y-162100000D02*
X145800000Y-112000000D01*
%TO.N,/GPIO40*%
X138180000Y-112420000D02*
X138800000Y-111800000D01*
X138180000Y-162100000D02*
X138180000Y-112420000D01*
%TO.N,/GPIO42*%
X133100000Y-162100000D02*
X133100000Y-111800000D01*
%TO.N,/GPIO1*%
X128700000Y-155500000D02*
X131735000Y-158535000D01*
X131735000Y-158535000D02*
X131735000Y-162735000D01*
X134400000Y-163400000D02*
X135640000Y-164640000D01*
X131735000Y-162735000D02*
X132400000Y-163400000D01*
X128700000Y-111800000D02*
X128700000Y-155500000D01*
X132400000Y-163400000D02*
X134400000Y-163400000D01*
%TD*%
%TA.AperFunction,Conductor*%
%TO.N,GND*%
G36*
X109010099Y-115845185D02*
G01*
X109055854Y-115897989D01*
X109065798Y-115967147D01*
X109036773Y-116030703D01*
X109030741Y-116037181D01*
X108889711Y-116178211D01*
X108833960Y-116233962D01*
X108778209Y-116289712D01*
X108690609Y-116420814D01*
X108690602Y-116420827D01*
X108630264Y-116566498D01*
X108630261Y-116566510D01*
X108599500Y-116721153D01*
X108599500Y-116800500D01*
X108579815Y-116867539D01*
X108527011Y-116913294D01*
X108475500Y-116924500D01*
X108166746Y-116924500D01*
X108095465Y-116935790D01*
X107952901Y-116958370D01*
X107746993Y-117025272D01*
X107746990Y-117025273D01*
X107554080Y-117123567D01*
X107534448Y-117137831D01*
X107378922Y-117250828D01*
X107378920Y-117250830D01*
X107378919Y-117250830D01*
X107225830Y-117403919D01*
X107225830Y-117403920D01*
X107225828Y-117403922D01*
X107197136Y-117443413D01*
X107098567Y-117579080D01*
X107000273Y-117771990D01*
X107000272Y-117771993D01*
X106933370Y-117977901D01*
X106899500Y-118191746D01*
X106899500Y-118408253D01*
X106933370Y-118622100D01*
X106974251Y-118747921D01*
X106976246Y-118817762D01*
X106944001Y-118873919D01*
X106026711Y-119791211D01*
X105739711Y-120078211D01*
X105698580Y-120119342D01*
X105628209Y-120189712D01*
X105540609Y-120320814D01*
X105540602Y-120320827D01*
X105480264Y-120466498D01*
X105480261Y-120466510D01*
X105449500Y-120621153D01*
X105449500Y-154128846D01*
X105480261Y-154283489D01*
X105480264Y-154283501D01*
X105540602Y-154429172D01*
X105540609Y-154429185D01*
X105628210Y-154560288D01*
X105628213Y-154560292D01*
X109730741Y-158662819D01*
X109764226Y-158724142D01*
X109759242Y-158793834D01*
X109717370Y-158849767D01*
X109651906Y-158874184D01*
X109643060Y-158874500D01*
X103276569Y-158874500D01*
X103209530Y-158854815D01*
X103188888Y-158838181D01*
X98912888Y-154562181D01*
X98879403Y-154500858D01*
X98884387Y-154431166D01*
X98926259Y-154375233D01*
X98991723Y-154350816D01*
X99000569Y-154350500D01*
X101865890Y-154350500D01*
X101865892Y-154350500D01*
X101993186Y-154316392D01*
X102107314Y-154250500D01*
X102200500Y-154157314D01*
X102266392Y-154043186D01*
X102276782Y-154004406D01*
X102313146Y-153944747D01*
X102375993Y-153914217D01*
X102396557Y-153912500D01*
X103697828Y-153912500D01*
X103697844Y-153912499D01*
X103757372Y-153906098D01*
X103757379Y-153906096D01*
X103892086Y-153855854D01*
X103892093Y-153855850D01*
X104007187Y-153769690D01*
X104007190Y-153769687D01*
X104093350Y-153654593D01*
X104093354Y-153654586D01*
X104143596Y-153519879D01*
X104143598Y-153519872D01*
X104149999Y-153460344D01*
X104150000Y-153460327D01*
X104150000Y-152539672D01*
X104149999Y-152539655D01*
X104143598Y-152480127D01*
X104143596Y-152480120D01*
X104092844Y-152344046D01*
X104087860Y-152274355D01*
X104092844Y-152257379D01*
X104093792Y-152254835D01*
X104093796Y-152254831D01*
X104144091Y-152119983D01*
X104150500Y-152060373D01*
X104150499Y-151139628D01*
X104144091Y-151080017D01*
X104131287Y-151045689D01*
X104093797Y-150945171D01*
X104093793Y-150945164D01*
X104007547Y-150829955D01*
X104007544Y-150829952D01*
X103892335Y-150743706D01*
X103892328Y-150743702D01*
X103757482Y-150693408D01*
X103757483Y-150693408D01*
X103697883Y-150687001D01*
X103697881Y-150687000D01*
X103697873Y-150687000D01*
X103697865Y-150687000D01*
X103549500Y-150687000D01*
X103482461Y-150667315D01*
X103436706Y-150614511D01*
X103425500Y-150563000D01*
X103425500Y-149910452D01*
X103445185Y-149843413D01*
X103461819Y-149822771D01*
X104585855Y-148698736D01*
X104585855Y-148698735D01*
X104585858Y-148698733D01*
X104654312Y-148596285D01*
X104701463Y-148482451D01*
X104725501Y-148361606D01*
X104725501Y-148238393D01*
X104725501Y-148233283D01*
X104725500Y-148233257D01*
X104725500Y-117510452D01*
X104745185Y-117443413D01*
X104761819Y-117422771D01*
X106322771Y-115861819D01*
X106384094Y-115828334D01*
X106410452Y-115825500D01*
X108943060Y-115825500D01*
X109010099Y-115845185D01*
G37*
%TD.AperFunction*%
%TA.AperFunction,Conductor*%
G36*
X175243333Y-151303758D02*
G01*
X175287681Y-151332259D01*
X175300681Y-151345259D01*
X175334166Y-151406582D01*
X175337000Y-151432940D01*
X175337000Y-152060370D01*
X175337001Y-152060376D01*
X175343408Y-152119983D01*
X175394388Y-152256667D01*
X175399372Y-152326359D01*
X175394388Y-152343333D01*
X175343408Y-152480017D01*
X175337001Y-152539616D01*
X175337001Y-152539625D01*
X175337000Y-152539635D01*
X175337000Y-153460370D01*
X175337001Y-153460376D01*
X175343408Y-153519983D01*
X175393702Y-153654828D01*
X175393706Y-153654835D01*
X175479952Y-153770044D01*
X175479955Y-153770047D01*
X175595164Y-153856293D01*
X175595171Y-153856297D01*
X175730017Y-153906591D01*
X175730016Y-153906591D01*
X175736944Y-153907335D01*
X175789627Y-153913000D01*
X177091076Y-153912999D01*
X177158115Y-153932684D01*
X177203870Y-153985487D01*
X177210849Y-154004902D01*
X177221108Y-154043186D01*
X177287000Y-154157314D01*
X177380186Y-154250500D01*
X177494314Y-154316392D01*
X177621608Y-154350500D01*
X177621610Y-154350500D01*
X181353390Y-154350500D01*
X181353392Y-154350500D01*
X181480686Y-154316392D01*
X181594814Y-154250500D01*
X181688000Y-154157314D01*
X181753892Y-154043186D01*
X181764282Y-154004406D01*
X181800646Y-153944747D01*
X181863493Y-153914217D01*
X181884057Y-153912500D01*
X183185328Y-153912500D01*
X183185344Y-153912499D01*
X183244872Y-153906098D01*
X183244879Y-153906096D01*
X183379586Y-153855854D01*
X183379589Y-153855852D01*
X183476188Y-153783538D01*
X183541652Y-153759120D01*
X183609925Y-153773971D01*
X183659331Y-153823376D01*
X183674500Y-153882804D01*
X183674500Y-154689547D01*
X183654815Y-154756586D01*
X183638181Y-154777228D01*
X182652229Y-155763181D01*
X182590906Y-155796666D01*
X182564548Y-155799500D01*
X156013388Y-155799500D01*
X155892555Y-155823535D01*
X155892547Y-155823537D01*
X155778716Y-155870687D01*
X155676265Y-155939142D01*
X155676262Y-155939145D01*
X153677229Y-157938181D01*
X153650301Y-157952884D01*
X153624483Y-157969477D01*
X153618282Y-157970368D01*
X153615906Y-157971666D01*
X153589548Y-157974500D01*
X153442350Y-157974500D01*
X153375311Y-157954815D01*
X153373459Y-157953602D01*
X153279184Y-157890609D01*
X153279176Y-157890604D01*
X153211835Y-157862711D01*
X153157432Y-157818870D01*
X153135367Y-157752576D01*
X153152646Y-157684877D01*
X153171603Y-157660473D01*
X158895258Y-151936819D01*
X158956581Y-151903334D01*
X158982939Y-151900500D01*
X174291344Y-151900500D01*
X174291345Y-151900499D01*
X174445997Y-151869737D01*
X174591679Y-151809394D01*
X174722789Y-151721789D01*
X175112319Y-151332259D01*
X175173642Y-151298774D01*
X175243333Y-151303758D01*
G37*
%TD.AperFunction*%
%TA.AperFunction,Conductor*%
G36*
X181964588Y-85397363D02*
G01*
X181972752Y-85404830D01*
X183563181Y-86995259D01*
X183596666Y-87056582D01*
X183599500Y-87082940D01*
X183599500Y-126917060D01*
X183579815Y-126984099D01*
X183563181Y-127004741D01*
X182604741Y-127963181D01*
X182543418Y-127996666D01*
X182517060Y-127999500D01*
X177372351Y-127999500D01*
X177305312Y-127979815D01*
X177259557Y-127927011D01*
X177249061Y-127888752D01*
X177248977Y-127887975D01*
X177244091Y-127842517D01*
X177221688Y-127782452D01*
X177193797Y-127707671D01*
X177193793Y-127707664D01*
X177107547Y-127592455D01*
X177107544Y-127592452D01*
X176992335Y-127506206D01*
X176992328Y-127506202D01*
X176857482Y-127455908D01*
X176857483Y-127455908D01*
X176797883Y-127449501D01*
X176797881Y-127449500D01*
X176797873Y-127449500D01*
X176797864Y-127449500D01*
X175002129Y-127449500D01*
X175002123Y-127449501D01*
X174942516Y-127455908D01*
X174807671Y-127506202D01*
X174807664Y-127506206D01*
X174692455Y-127592452D01*
X174692452Y-127592455D01*
X174606206Y-127707664D01*
X174606202Y-127707671D01*
X174555908Y-127842517D01*
X174549501Y-127902116D01*
X174549500Y-127902135D01*
X174549500Y-129697870D01*
X174549501Y-129697876D01*
X174555908Y-129757483D01*
X174606202Y-129892328D01*
X174606206Y-129892335D01*
X174692452Y-130007544D01*
X174692455Y-130007547D01*
X174807664Y-130093793D01*
X174807671Y-130093797D01*
X174939082Y-130142810D01*
X174995016Y-130184681D01*
X175019433Y-130250145D01*
X175004582Y-130318418D01*
X174983431Y-130346673D01*
X174869889Y-130460215D01*
X174744950Y-130632180D01*
X174737503Y-130646797D01*
X174689527Y-130697592D01*
X174627019Y-130714500D01*
X167450453Y-130714500D01*
X167383414Y-130694815D01*
X167362772Y-130678181D01*
X164061819Y-127377228D01*
X164028334Y-127315905D01*
X164025500Y-127289547D01*
X164025500Y-110702135D01*
X164659500Y-110702135D01*
X164659500Y-113297870D01*
X164659501Y-113297876D01*
X164665908Y-113357483D01*
X164716202Y-113492328D01*
X164716206Y-113492335D01*
X164802452Y-113607544D01*
X164802455Y-113607547D01*
X164917664Y-113693793D01*
X164917671Y-113693797D01*
X165052517Y-113744091D01*
X165052516Y-113744091D01*
X165059444Y-113744835D01*
X165112127Y-113750500D01*
X167292568Y-113750499D01*
X167359607Y-113770184D01*
X167405362Y-113822987D01*
X167415306Y-113892146D01*
X167403053Y-113930794D01*
X167327454Y-114079163D01*
X167269059Y-114258881D01*
X167239500Y-114445513D01*
X167239500Y-114634486D01*
X167269059Y-114821118D01*
X167327454Y-115000836D01*
X167385186Y-115114140D01*
X167413240Y-115169199D01*
X167524310Y-115322073D01*
X167657927Y-115455690D01*
X167810801Y-115566760D01*
X167890347Y-115607290D01*
X167979163Y-115652545D01*
X167979165Y-115652545D01*
X167979168Y-115652547D01*
X168075497Y-115683846D01*
X168158881Y-115710940D01*
X168345514Y-115740500D01*
X168345519Y-115740500D01*
X168534486Y-115740500D01*
X168721118Y-115710940D01*
X168900832Y-115652547D01*
X169069199Y-115566760D01*
X169222073Y-115455690D01*
X169355690Y-115322073D01*
X169466760Y-115169199D01*
X169552547Y-115000832D01*
X169610940Y-114821118D01*
X169627883Y-114714144D01*
X169640500Y-114634486D01*
X169640500Y-114445513D01*
X169634013Y-114404556D01*
X169631584Y-114389223D01*
X171219500Y-114389223D01*
X171219500Y-114690776D01*
X171219501Y-114690793D01*
X171258861Y-114989766D01*
X171336913Y-115281060D01*
X171452314Y-115559661D01*
X171452318Y-115559671D01*
X171603099Y-115820831D01*
X171786679Y-116060078D01*
X171786685Y-116060085D01*
X171999914Y-116273314D01*
X171999921Y-116273320D01*
X172239168Y-116456900D01*
X172500328Y-116607681D01*
X172500329Y-116607681D01*
X172500332Y-116607683D01*
X172686072Y-116684619D01*
X172778939Y-116723086D01*
X172778940Y-116723086D01*
X172778942Y-116723087D01*
X173070232Y-116801138D01*
X173369217Y-116840500D01*
X173369224Y-116840500D01*
X173670776Y-116840500D01*
X173670783Y-116840500D01*
X173969768Y-116801138D01*
X174261058Y-116723087D01*
X174539668Y-116607683D01*
X174800832Y-116456900D01*
X175040080Y-116273319D01*
X175253319Y-116060080D01*
X175436900Y-115820832D01*
X175587683Y-115559668D01*
X175703087Y-115281058D01*
X175781138Y-114989768D01*
X175820500Y-114690783D01*
X175820500Y-114445513D01*
X177399500Y-114445513D01*
X177399500Y-114634486D01*
X177429059Y-114821118D01*
X177487454Y-115000836D01*
X177545186Y-115114140D01*
X177573240Y-115169199D01*
X177684310Y-115322073D01*
X177817927Y-115455690D01*
X177970801Y-115566760D01*
X178050347Y-115607290D01*
X178139163Y-115652545D01*
X178139165Y-115652545D01*
X178139168Y-115652547D01*
X178235497Y-115683846D01*
X178318881Y-115710940D01*
X178505514Y-115740500D01*
X178505519Y-115740500D01*
X178694486Y-115740500D01*
X178881118Y-115710940D01*
X179060832Y-115652547D01*
X179229199Y-115566760D01*
X179382073Y-115455690D01*
X179515690Y-115322073D01*
X179626760Y-115169199D01*
X179712547Y-115000832D01*
X179770940Y-114821118D01*
X179787883Y-114714144D01*
X179800500Y-114634486D01*
X179800500Y-114445513D01*
X179770940Y-114258881D01*
X179712545Y-114079163D01*
X179626759Y-113910800D01*
X179591209Y-113861870D01*
X179515690Y-113757927D01*
X179382073Y-113624310D01*
X179229199Y-113513240D01*
X179060836Y-113427454D01*
X178881118Y-113369059D01*
X178694486Y-113339500D01*
X178694481Y-113339500D01*
X178505519Y-113339500D01*
X178505514Y-113339500D01*
X178318881Y-113369059D01*
X178139163Y-113427454D01*
X177970800Y-113513240D01*
X177961031Y-113520338D01*
X177817927Y-113624310D01*
X177817925Y-113624312D01*
X177817924Y-113624312D01*
X177684312Y-113757924D01*
X177684312Y-113757925D01*
X177684310Y-113757927D01*
X177675405Y-113770184D01*
X177573240Y-113910800D01*
X177487454Y-114079163D01*
X177429059Y-114258881D01*
X177399500Y-114445513D01*
X175820500Y-114445513D01*
X175820500Y-114389217D01*
X175781138Y-114090232D01*
X175703087Y-113798942D01*
X175702336Y-113797130D01*
X175663117Y-113702447D01*
X175587683Y-113520332D01*
X175583588Y-113513240D01*
X175436900Y-113259168D01*
X175253320Y-113019921D01*
X175253314Y-113019914D01*
X175040085Y-112806685D01*
X175040078Y-112806679D01*
X174800831Y-112623099D01*
X174539671Y-112472318D01*
X174539661Y-112472314D01*
X174261060Y-112356913D01*
X173969766Y-112278861D01*
X173670793Y-112239501D01*
X173670788Y-112239500D01*
X173670783Y-112239500D01*
X173369217Y-112239500D01*
X173369211Y-112239500D01*
X173369206Y-112239501D01*
X173070233Y-112278861D01*
X172778939Y-112356913D01*
X172500338Y-112472314D01*
X172500328Y-112472318D01*
X172239168Y-112623099D01*
X171999921Y-112806679D01*
X171999914Y-112806685D01*
X171786685Y-113019914D01*
X171786679Y-113019921D01*
X171603099Y-113259168D01*
X171452318Y-113520328D01*
X171452314Y-113520338D01*
X171336913Y-113798939D01*
X171258861Y-114090233D01*
X171219501Y-114389206D01*
X171219500Y-114389223D01*
X169631584Y-114389223D01*
X169610940Y-114258881D01*
X169552545Y-114079163D01*
X169525424Y-114025937D01*
X169476815Y-113930535D01*
X169463920Y-113861870D01*
X169490196Y-113797130D01*
X169547302Y-113756872D01*
X169591207Y-113751065D01*
X169591207Y-113750500D01*
X169824727Y-113750500D01*
X169824734Y-113750500D01*
X170052238Y-113720548D01*
X170273887Y-113661158D01*
X170485888Y-113573344D01*
X170684612Y-113458611D01*
X170866661Y-113318919D01*
X170866665Y-113318914D01*
X170866670Y-113318911D01*
X171028911Y-113156670D01*
X171028914Y-113156665D01*
X171028919Y-113156661D01*
X171168611Y-112974612D01*
X171283344Y-112775888D01*
X171371158Y-112563887D01*
X171430548Y-112342238D01*
X171460500Y-112114734D01*
X171460500Y-111885266D01*
X171430548Y-111657762D01*
X171371158Y-111436113D01*
X171310516Y-111289711D01*
X171283349Y-111224123D01*
X171283346Y-111224117D01*
X171283344Y-111224112D01*
X171168611Y-111025388D01*
X171168608Y-111025385D01*
X171168607Y-111025382D01*
X171028918Y-110843338D01*
X171028911Y-110843330D01*
X170866670Y-110681089D01*
X170866661Y-110681081D01*
X170684617Y-110541392D01*
X170626210Y-110507671D01*
X170485888Y-110426656D01*
X170485876Y-110426650D01*
X170273887Y-110338842D01*
X170052238Y-110279452D01*
X170014215Y-110274446D01*
X169824741Y-110249500D01*
X169824734Y-110249500D01*
X169595266Y-110249500D01*
X169595258Y-110249500D01*
X169378715Y-110278009D01*
X169367762Y-110279452D01*
X169274076Y-110304554D01*
X169146112Y-110338842D01*
X168934123Y-110426650D01*
X168934109Y-110426657D01*
X168735382Y-110541392D01*
X168553338Y-110681081D01*
X168422180Y-110812239D01*
X168360857Y-110845724D01*
X168291165Y-110840740D01*
X168235232Y-110798868D01*
X168210815Y-110733404D01*
X168210499Y-110724558D01*
X168210499Y-110702129D01*
X168210498Y-110702123D01*
X168210497Y-110702116D01*
X168204091Y-110642517D01*
X168200777Y-110633633D01*
X168153797Y-110507671D01*
X168153793Y-110507664D01*
X168067547Y-110392455D01*
X168067544Y-110392452D01*
X167952335Y-110306206D01*
X167952328Y-110306202D01*
X167817482Y-110255908D01*
X167817483Y-110255908D01*
X167757883Y-110249501D01*
X167757881Y-110249500D01*
X167757873Y-110249500D01*
X167757865Y-110249500D01*
X166960759Y-110249500D01*
X166893720Y-110229815D01*
X166847965Y-110177011D01*
X166838021Y-110107853D01*
X166857657Y-110056609D01*
X166879521Y-110023887D01*
X166909394Y-109979179D01*
X166969737Y-109833497D01*
X167000500Y-109678842D01*
X167000500Y-109521158D01*
X167000500Y-109521155D01*
X167000499Y-109521153D01*
X166979892Y-109417556D01*
X166969737Y-109366503D01*
X166966791Y-109359390D01*
X166909397Y-109220827D01*
X166909390Y-109220814D01*
X166821789Y-109089711D01*
X166821786Y-109089707D01*
X166710292Y-108978213D01*
X166710288Y-108978210D01*
X166579185Y-108890609D01*
X166579172Y-108890602D01*
X166433501Y-108830264D01*
X166433489Y-108830261D01*
X166278845Y-108799500D01*
X166278842Y-108799500D01*
X166121158Y-108799500D01*
X166121155Y-108799500D01*
X165966510Y-108830261D01*
X165966498Y-108830264D01*
X165820827Y-108890602D01*
X165820814Y-108890609D01*
X165689711Y-108978210D01*
X165689707Y-108978213D01*
X165578213Y-109089707D01*
X165578210Y-109089711D01*
X165490609Y-109220814D01*
X165490602Y-109220827D01*
X165430264Y-109366498D01*
X165430261Y-109366510D01*
X165399500Y-109521153D01*
X165399500Y-109678846D01*
X165430261Y-109833489D01*
X165430264Y-109833501D01*
X165490602Y-109979172D01*
X165490609Y-109979184D01*
X165542343Y-110056609D01*
X165563221Y-110123286D01*
X165544737Y-110190666D01*
X165492758Y-110237357D01*
X165439241Y-110249500D01*
X165112130Y-110249500D01*
X165112123Y-110249501D01*
X165052516Y-110255908D01*
X164917671Y-110306202D01*
X164917664Y-110306206D01*
X164802455Y-110392452D01*
X164802452Y-110392455D01*
X164716206Y-110507664D01*
X164716202Y-110507671D01*
X164665908Y-110642517D01*
X164659826Y-110699097D01*
X164659501Y-110702123D01*
X164659500Y-110702135D01*
X164025500Y-110702135D01*
X164025500Y-109538393D01*
X164025499Y-109538389D01*
X164009961Y-109460272D01*
X164001463Y-109417548D01*
X163987896Y-109384795D01*
X163971523Y-109345265D01*
X163954314Y-109303719D01*
X163954313Y-109303718D01*
X163954312Y-109303715D01*
X163906902Y-109232762D01*
X163885858Y-109201267D01*
X163798733Y-109114142D01*
X163798729Y-109114139D01*
X163275793Y-108591203D01*
X163242308Y-108529880D01*
X163241887Y-108527864D01*
X163219737Y-108416503D01*
X163181774Y-108324851D01*
X163159397Y-108270827D01*
X163159390Y-108270814D01*
X163071789Y-108139711D01*
X163071786Y-108139707D01*
X162960292Y-108028213D01*
X162960288Y-108028210D01*
X162829185Y-107940609D01*
X162829172Y-107940602D01*
X162683501Y-107880264D01*
X162683489Y-107880261D01*
X162528845Y-107849500D01*
X162528842Y-107849500D01*
X162371158Y-107849500D01*
X162371155Y-107849500D01*
X162216510Y-107880261D01*
X162216498Y-107880264D01*
X162070827Y-107940602D01*
X162070816Y-107940608D01*
X162025266Y-107971044D01*
X161958588Y-107991921D01*
X161891208Y-107973436D01*
X161853274Y-107936832D01*
X161821789Y-107889711D01*
X161821787Y-107889708D01*
X161744260Y-107812181D01*
X161710775Y-107750858D01*
X161715759Y-107681166D01*
X161757631Y-107625233D01*
X161823095Y-107600816D01*
X161831941Y-107600500D01*
X175351564Y-107600500D01*
X175418603Y-107620185D01*
X175464358Y-107672989D01*
X175474302Y-107742147D01*
X175445277Y-107805703D01*
X175399016Y-107839061D01*
X175284123Y-107886650D01*
X175284109Y-107886657D01*
X175085382Y-108001392D01*
X174903338Y-108141081D01*
X174741081Y-108303338D01*
X174601392Y-108485382D01*
X174486657Y-108684109D01*
X174486650Y-108684123D01*
X174398842Y-108896112D01*
X174398842Y-108896113D01*
X174341694Y-109109397D01*
X174339453Y-109117759D01*
X174339451Y-109117770D01*
X174309500Y-109345258D01*
X174309500Y-109574741D01*
X174334446Y-109764215D01*
X174339452Y-109802238D01*
X174384028Y-109968598D01*
X174398842Y-110023887D01*
X174486650Y-110235876D01*
X174486657Y-110235890D01*
X174601392Y-110434617D01*
X174741081Y-110616661D01*
X174741089Y-110616670D01*
X174903330Y-110778911D01*
X174903338Y-110778918D01*
X175085382Y-110918607D01*
X175085385Y-110918608D01*
X175085388Y-110918611D01*
X175284112Y-111033344D01*
X175284117Y-111033346D01*
X175284123Y-111033349D01*
X175352856Y-111061819D01*
X175496113Y-111121158D01*
X175717762Y-111180548D01*
X175933318Y-111208927D01*
X175941460Y-111209999D01*
X175945266Y-111210500D01*
X175945273Y-111210500D01*
X176174727Y-111210500D01*
X176174734Y-111210500D01*
X176402238Y-111180548D01*
X176623887Y-111121158D01*
X176835888Y-111033344D01*
X177034612Y-110918611D01*
X177216661Y-110778919D01*
X177216665Y-110778914D01*
X177216670Y-110778911D01*
X177375319Y-110620262D01*
X177436642Y-110586777D01*
X177506334Y-110591761D01*
X177562267Y-110633633D01*
X177586684Y-110699097D01*
X177587000Y-110707943D01*
X177587000Y-110757844D01*
X177593401Y-110817372D01*
X177593403Y-110817379D01*
X177643645Y-110952086D01*
X177643649Y-110952093D01*
X177729809Y-111067187D01*
X177729812Y-111067190D01*
X177844906Y-111153350D01*
X177844913Y-111153354D01*
X177979620Y-111203596D01*
X177979627Y-111203598D01*
X178039155Y-111209999D01*
X178039172Y-111210000D01*
X180684828Y-111210000D01*
X180684844Y-111209999D01*
X180744372Y-111203598D01*
X180744379Y-111203596D01*
X180879086Y-111153354D01*
X180879093Y-111153350D01*
X180994187Y-111067190D01*
X180994190Y-111067187D01*
X181080350Y-110952093D01*
X181080354Y-110952086D01*
X181130596Y-110817379D01*
X181130598Y-110817372D01*
X181136999Y-110757844D01*
X181137000Y-110757827D01*
X181137000Y-108162172D01*
X181136999Y-108162155D01*
X181130598Y-108102627D01*
X181130596Y-108102620D01*
X181080354Y-107967913D01*
X181080350Y-107967906D01*
X180994190Y-107852812D01*
X180994187Y-107852809D01*
X180879093Y-107766649D01*
X180879086Y-107766645D01*
X180744379Y-107716403D01*
X180744372Y-107716401D01*
X180684844Y-107710000D01*
X178487725Y-107710000D01*
X178420686Y-107690315D01*
X178374931Y-107637511D01*
X178364987Y-107568353D01*
X178394012Y-107504797D01*
X178418834Y-107482898D01*
X178473254Y-107446535D01*
X178510289Y-107421789D01*
X181758789Y-104173289D01*
X181846394Y-104042179D01*
X181906737Y-103896497D01*
X181937500Y-103741842D01*
X181937500Y-103584158D01*
X181937500Y-85958158D01*
X181931951Y-85930263D01*
X181906738Y-85803503D01*
X181846394Y-85657821D01*
X181846392Y-85657818D01*
X181846390Y-85657814D01*
X181781969Y-85561402D01*
X181761091Y-85494725D01*
X181779575Y-85427345D01*
X181831554Y-85380654D01*
X181900524Y-85369478D01*
X181964588Y-85397363D01*
G37*
%TD.AperFunction*%
%TA.AperFunction,Conductor*%
G36*
X144861324Y-74587279D02*
G01*
X144900366Y-74632336D01*
X144904831Y-74641100D01*
X145029770Y-74813066D01*
X145180093Y-74963389D01*
X145352059Y-75088328D01*
X145352061Y-75088329D01*
X145352064Y-75088331D01*
X145541468Y-75184837D01*
X145743637Y-75250526D01*
X145953593Y-75283780D01*
X145953594Y-75283780D01*
X146166166Y-75283780D01*
X146166167Y-75283780D01*
X146376123Y-75250526D01*
X146487575Y-75214311D01*
X146557413Y-75212316D01*
X146613572Y-75244562D01*
X151067071Y-79698061D01*
X151100556Y-79759384D01*
X151095572Y-79829076D01*
X151053700Y-79885009D01*
X151035685Y-79896227D01*
X150965931Y-79931768D01*
X150909196Y-79972989D01*
X150825792Y-80033586D01*
X150825790Y-80033588D01*
X150825789Y-80033588D01*
X150703308Y-80156069D01*
X150703308Y-80156070D01*
X150703306Y-80156072D01*
X150696445Y-80165516D01*
X150601488Y-80296211D01*
X150522848Y-80450552D01*
X150469317Y-80615302D01*
X150442220Y-80786389D01*
X150442220Y-81759610D01*
X150468734Y-81927017D01*
X150469318Y-81930701D01*
X150522321Y-82093827D01*
X150522848Y-82095447D01*
X150587910Y-82223140D01*
X150601488Y-82249788D01*
X150703306Y-82389928D01*
X150703308Y-82389930D01*
X150825795Y-82512417D01*
X150850490Y-82530358D01*
X150862665Y-82539204D01*
X150866104Y-82541702D01*
X150908770Y-82597031D01*
X150917220Y-82642021D01*
X150917220Y-87299339D01*
X150897535Y-87366378D01*
X150880901Y-87387020D01*
X150778213Y-87489707D01*
X150778210Y-87489711D01*
X150690609Y-87620814D01*
X150690602Y-87620827D01*
X150630264Y-87766498D01*
X150630261Y-87766510D01*
X150599500Y-87921153D01*
X150599500Y-88078846D01*
X150630261Y-88233489D01*
X150630264Y-88233501D01*
X150690602Y-88379172D01*
X150690609Y-88379185D01*
X150778210Y-88510288D01*
X150778213Y-88510292D01*
X150889707Y-88621786D01*
X150889711Y-88621789D01*
X151020814Y-88709390D01*
X151020827Y-88709397D01*
X151158683Y-88766498D01*
X151166503Y-88769737D01*
X151321153Y-88800499D01*
X151321156Y-88800500D01*
X151321158Y-88800500D01*
X151478844Y-88800500D01*
X151478845Y-88800499D01*
X151633497Y-88769737D01*
X151779179Y-88709394D01*
X151910289Y-88621789D01*
X152021789Y-88510289D01*
X152109394Y-88379179D01*
X152169737Y-88233497D01*
X152200500Y-88078842D01*
X152200500Y-87921158D01*
X152200500Y-87921155D01*
X152170603Y-87770856D01*
X152168220Y-87746664D01*
X152168220Y-82852173D01*
X152174457Y-82830930D01*
X152176037Y-82808841D01*
X152184110Y-82798055D01*
X152187905Y-82785134D01*
X152204636Y-82770636D01*
X152217908Y-82752907D01*
X152230530Y-82748198D01*
X152240709Y-82739379D01*
X152262624Y-82736227D01*
X152283372Y-82728489D01*
X152296534Y-82731352D01*
X152309867Y-82729435D01*
X152330009Y-82738633D01*
X152351645Y-82743340D01*
X152369371Y-82756609D01*
X152373423Y-82758460D01*
X152379885Y-82764476D01*
X152401267Y-82785858D01*
X152401269Y-82785859D01*
X152408338Y-82792928D01*
X153324996Y-83709587D01*
X153358481Y-83770910D01*
X153353497Y-83840602D01*
X153311625Y-83896535D01*
X153306206Y-83900370D01*
X153189711Y-83978210D01*
X153189707Y-83978213D01*
X153078213Y-84089707D01*
X153078210Y-84089711D01*
X152990609Y-84220814D01*
X152990602Y-84220827D01*
X152930264Y-84366498D01*
X152930261Y-84366510D01*
X152899500Y-84521153D01*
X152899500Y-84678846D01*
X152930261Y-84833489D01*
X152930264Y-84833501D01*
X152990602Y-84979172D01*
X152990609Y-84979185D01*
X153078210Y-85110288D01*
X153078213Y-85110292D01*
X153189707Y-85221786D01*
X153189711Y-85221789D01*
X153320814Y-85309390D01*
X153320827Y-85309397D01*
X153465878Y-85369478D01*
X153466503Y-85369737D01*
X153621153Y-85400499D01*
X153621156Y-85400500D01*
X153621158Y-85400500D01*
X153778844Y-85400500D01*
X153778845Y-85400499D01*
X153933497Y-85369737D01*
X154079179Y-85309394D01*
X154173459Y-85246398D01*
X154240136Y-85225520D01*
X154242350Y-85225500D01*
X160257650Y-85225500D01*
X160324689Y-85245185D01*
X160326541Y-85246398D01*
X160420821Y-85309394D01*
X160420823Y-85309395D01*
X160420827Y-85309397D01*
X160565878Y-85369478D01*
X160566503Y-85369737D01*
X160721153Y-85400499D01*
X160721156Y-85400500D01*
X160721158Y-85400500D01*
X160878844Y-85400500D01*
X160878845Y-85400499D01*
X161033497Y-85369737D01*
X161179179Y-85309394D01*
X161310289Y-85221789D01*
X161421789Y-85110289D01*
X161509394Y-84979179D01*
X161569737Y-84833497D01*
X161600500Y-84678842D01*
X161600500Y-84521158D01*
X161600500Y-84521155D01*
X161600499Y-84521153D01*
X161569737Y-84366503D01*
X161546590Y-84310621D01*
X161509397Y-84220827D01*
X161509390Y-84220814D01*
X161421789Y-84089711D01*
X161421786Y-84089707D01*
X161310292Y-83978213D01*
X161310288Y-83978210D01*
X161179185Y-83890609D01*
X161179172Y-83890602D01*
X161033501Y-83830264D01*
X161033489Y-83830261D01*
X160878845Y-83799500D01*
X160878842Y-83799500D01*
X160721158Y-83799500D01*
X160721155Y-83799500D01*
X160566510Y-83830261D01*
X160566498Y-83830264D01*
X160420827Y-83890602D01*
X160420815Y-83890609D01*
X160326541Y-83953602D01*
X160259864Y-83974480D01*
X160257650Y-83974500D01*
X159409452Y-83974500D01*
X159342413Y-83954815D01*
X159296658Y-83902011D01*
X159286714Y-83832853D01*
X159315739Y-83769297D01*
X159321762Y-83762826D01*
X159561449Y-83523140D01*
X159561453Y-83523138D01*
X159648578Y-83436013D01*
X159717031Y-83333566D01*
X159764183Y-83219732D01*
X159781544Y-83132451D01*
X159787260Y-83103716D01*
X159788220Y-83098887D01*
X159788220Y-82642021D01*
X159807905Y-82574982D01*
X159839336Y-82541702D01*
X159842775Y-82539204D01*
X159879648Y-82512414D01*
X160002134Y-82389928D01*
X160103952Y-82249788D01*
X160182593Y-82095445D01*
X160236122Y-81930701D01*
X160263220Y-81759611D01*
X160263220Y-80786389D01*
X160236122Y-80615299D01*
X160182593Y-80450555D01*
X160103952Y-80296212D01*
X160002134Y-80156072D01*
X159958243Y-80112181D01*
X159924758Y-80050858D01*
X159929742Y-79981166D01*
X159971614Y-79925233D01*
X160037078Y-79900816D01*
X160045924Y-79900500D01*
X160819516Y-79900500D01*
X160886555Y-79920185D01*
X160932310Y-79972989D01*
X160942254Y-80042147D01*
X160913229Y-80105703D01*
X160907197Y-80112181D01*
X160863308Y-80156069D01*
X160863308Y-80156070D01*
X160863306Y-80156072D01*
X160856445Y-80165516D01*
X160761488Y-80296211D01*
X160682848Y-80450552D01*
X160629317Y-80615302D01*
X160602220Y-80786389D01*
X160602220Y-81759610D01*
X160628734Y-81927017D01*
X160629318Y-81930701D01*
X160682321Y-82093827D01*
X160682848Y-82095447D01*
X160747910Y-82223140D01*
X160761488Y-82249788D01*
X160863306Y-82389928D01*
X160985792Y-82512414D01*
X161125932Y-82614232D01*
X161280275Y-82692873D01*
X161445019Y-82746402D01*
X161616109Y-82773500D01*
X161616110Y-82773500D01*
X161789330Y-82773500D01*
X161789331Y-82773500D01*
X161960421Y-82746402D01*
X162125165Y-82692873D01*
X162279508Y-82614232D01*
X162419648Y-82512414D01*
X162542134Y-82389928D01*
X162643952Y-82249788D01*
X162722593Y-82095445D01*
X162776122Y-81930701D01*
X162803220Y-81759611D01*
X162803220Y-80786389D01*
X162776122Y-80615299D01*
X162722593Y-80450555D01*
X162643952Y-80296212D01*
X162542134Y-80156072D01*
X162498243Y-80112181D01*
X162464758Y-80050858D01*
X162469742Y-79981166D01*
X162511614Y-79925233D01*
X162577078Y-79900816D01*
X162585924Y-79900500D01*
X163359516Y-79900500D01*
X163426555Y-79920185D01*
X163472310Y-79972989D01*
X163482254Y-80042147D01*
X163453229Y-80105703D01*
X163447197Y-80112181D01*
X163403308Y-80156069D01*
X163403308Y-80156070D01*
X163403306Y-80156072D01*
X163396445Y-80165516D01*
X163301488Y-80296211D01*
X163222848Y-80450552D01*
X163169317Y-80615302D01*
X163142220Y-80786389D01*
X163142220Y-81759610D01*
X163168734Y-81927017D01*
X163169318Y-81930701D01*
X163222321Y-82093827D01*
X163222848Y-82095447D01*
X163287910Y-82223140D01*
X163301488Y-82249788D01*
X163403306Y-82389928D01*
X163525792Y-82512414D01*
X163665932Y-82614232D01*
X163820275Y-82692873D01*
X163985019Y-82746402D01*
X164156109Y-82773500D01*
X164156110Y-82773500D01*
X164329330Y-82773500D01*
X164329331Y-82773500D01*
X164500421Y-82746402D01*
X164665165Y-82692873D01*
X164819508Y-82614232D01*
X164959648Y-82512414D01*
X165020539Y-82451523D01*
X165081862Y-82418038D01*
X165151554Y-82423022D01*
X165207487Y-82464894D01*
X165231904Y-82530358D01*
X165232220Y-82539204D01*
X165232220Y-88551827D01*
X165212535Y-88618866D01*
X165195901Y-88639508D01*
X164349144Y-89486264D01*
X164349138Y-89486272D01*
X164314914Y-89537489D01*
X164314915Y-89537490D01*
X164280691Y-89588708D01*
X164280685Y-89588720D01*
X164267950Y-89619465D01*
X164267947Y-89619474D01*
X164265451Y-89625501D01*
X164233537Y-89702548D01*
X164226197Y-89739452D01*
X164214384Y-89798842D01*
X164213283Y-89804376D01*
X164213282Y-89804380D01*
X164209500Y-89823393D01*
X164209500Y-101496611D01*
X164233535Y-101617444D01*
X164233540Y-101617461D01*
X164280684Y-101731278D01*
X164280687Y-101731285D01*
X164292860Y-101749501D01*
X164292861Y-101749503D01*
X164349140Y-101833731D01*
X164349141Y-101833732D01*
X164349142Y-101833733D01*
X164436267Y-101920858D01*
X164436268Y-101920858D01*
X164443335Y-101927925D01*
X164443334Y-101927925D01*
X164443338Y-101927928D01*
X164674205Y-102158795D01*
X164707690Y-102220118D01*
X164708141Y-102222285D01*
X164730261Y-102333489D01*
X164730264Y-102333501D01*
X164790602Y-102479172D01*
X164790609Y-102479185D01*
X164828363Y-102535687D01*
X164849241Y-102602364D01*
X164830757Y-102669745D01*
X164778778Y-102716435D01*
X164709808Y-102727611D01*
X164668972Y-102715066D01*
X164665169Y-102713128D01*
X164544770Y-102674008D01*
X164500421Y-102659598D01*
X164500419Y-102659597D01*
X164500418Y-102659597D01*
X164368991Y-102638781D01*
X164329331Y-102632500D01*
X164156109Y-102632500D01*
X164116448Y-102638781D01*
X163985022Y-102659597D01*
X163820272Y-102713128D01*
X163665931Y-102791768D01*
X163619505Y-102825499D01*
X163525792Y-102893586D01*
X163525790Y-102893588D01*
X163525789Y-102893588D01*
X163403308Y-103016069D01*
X163403308Y-103016070D01*
X163403306Y-103016072D01*
X163376334Y-103053196D01*
X163301488Y-103156211D01*
X163222848Y-103310552D01*
X163169317Y-103475302D01*
X163142220Y-103646389D01*
X163142220Y-104619610D01*
X163165067Y-104763865D01*
X163169318Y-104790701D01*
X163222847Y-104955445D01*
X163301488Y-105109788D01*
X163403306Y-105249928D01*
X163525792Y-105372414D01*
X163665932Y-105474232D01*
X163820275Y-105552873D01*
X163985019Y-105606402D01*
X164156109Y-105633500D01*
X164156110Y-105633500D01*
X164329330Y-105633500D01*
X164329331Y-105633500D01*
X164500421Y-105606402D01*
X164665165Y-105552873D01*
X164819508Y-105474232D01*
X164959648Y-105372414D01*
X165082134Y-105249928D01*
X165183952Y-105109788D01*
X165262593Y-104955445D01*
X165316122Y-104790701D01*
X165343220Y-104619611D01*
X165343220Y-103646389D01*
X165316122Y-103475299D01*
X165262593Y-103310555D01*
X165183952Y-103156212D01*
X165109105Y-103053195D01*
X165085626Y-102987389D01*
X165101451Y-102919335D01*
X165151557Y-102870640D01*
X165220035Y-102856765D01*
X165256872Y-102865747D01*
X165266503Y-102869737D01*
X165388315Y-102893967D01*
X165421153Y-102900499D01*
X165421156Y-102900500D01*
X165421158Y-102900500D01*
X165578844Y-102900500D01*
X165578845Y-102900499D01*
X165733497Y-102869737D01*
X165779515Y-102850675D01*
X165848982Y-102843206D01*
X165911461Y-102874480D01*
X165947115Y-102934568D01*
X165944622Y-103004393D01*
X165927285Y-103038121D01*
X165841490Y-103156207D01*
X165762848Y-103310552D01*
X165709317Y-103475302D01*
X165682220Y-103646389D01*
X165682220Y-104619610D01*
X165705067Y-104763865D01*
X165709318Y-104790701D01*
X165762847Y-104955445D01*
X165841488Y-105109788D01*
X165943306Y-105249928D01*
X166065792Y-105372414D01*
X166205932Y-105474232D01*
X166360275Y-105552873D01*
X166525019Y-105606402D01*
X166696109Y-105633500D01*
X166696110Y-105633500D01*
X166869330Y-105633500D01*
X166869331Y-105633500D01*
X167040421Y-105606402D01*
X167205165Y-105552873D01*
X167359508Y-105474232D01*
X167499648Y-105372414D01*
X167622134Y-105249928D01*
X167723952Y-105109788D01*
X167802593Y-104955445D01*
X167856122Y-104790701D01*
X167883220Y-104619611D01*
X167883220Y-103646389D01*
X168222220Y-103646389D01*
X168222220Y-104619610D01*
X168245067Y-104763865D01*
X168249318Y-104790701D01*
X168302847Y-104955445D01*
X168381488Y-105109788D01*
X168483306Y-105249928D01*
X168605792Y-105372414D01*
X168745932Y-105474232D01*
X168900275Y-105552873D01*
X169065019Y-105606402D01*
X169236109Y-105633500D01*
X169236110Y-105633500D01*
X169409330Y-105633500D01*
X169409331Y-105633500D01*
X169580421Y-105606402D01*
X169745165Y-105552873D01*
X169899508Y-105474232D01*
X170039648Y-105372414D01*
X170162134Y-105249928D01*
X170263952Y-105109788D01*
X170342593Y-104955445D01*
X170396122Y-104790701D01*
X170423220Y-104619611D01*
X170423220Y-103646428D01*
X170762720Y-103646428D01*
X170762720Y-104619571D01*
X170789805Y-104790584D01*
X170843311Y-104955257D01*
X170921915Y-105109524D01*
X171023687Y-105249602D01*
X171146117Y-105372032D01*
X171286195Y-105473804D01*
X171440462Y-105552408D01*
X171605135Y-105605914D01*
X171776149Y-105633000D01*
X171949291Y-105633000D01*
X172120304Y-105605914D01*
X172284977Y-105552408D01*
X172439244Y-105473804D01*
X172579322Y-105372032D01*
X172701752Y-105249602D01*
X172803524Y-105109524D01*
X172882128Y-104955257D01*
X172935634Y-104790584D01*
X172962720Y-104619571D01*
X172962720Y-103646428D01*
X173302720Y-103646428D01*
X173302720Y-104619571D01*
X173329805Y-104790584D01*
X173383311Y-104955257D01*
X173461915Y-105109524D01*
X173563687Y-105249602D01*
X173686117Y-105372032D01*
X173826195Y-105473804D01*
X173980462Y-105552408D01*
X174145135Y-105605914D01*
X174316149Y-105633000D01*
X174489291Y-105633000D01*
X174660304Y-105605914D01*
X174824977Y-105552408D01*
X174979244Y-105473804D01*
X175119322Y-105372032D01*
X175241752Y-105249602D01*
X175343524Y-105109524D01*
X175422128Y-104955257D01*
X175475634Y-104790584D01*
X175502720Y-104619571D01*
X175502720Y-103646428D01*
X175475634Y-103475415D01*
X175422128Y-103310742D01*
X175343524Y-103156475D01*
X175241752Y-103016397D01*
X175119322Y-102893967D01*
X174979244Y-102792195D01*
X174824977Y-102713591D01*
X174660304Y-102660085D01*
X174489291Y-102633000D01*
X174316149Y-102633000D01*
X174145135Y-102660085D01*
X173980462Y-102713591D01*
X173826195Y-102792195D01*
X173686117Y-102893967D01*
X173563687Y-103016397D01*
X173461915Y-103156475D01*
X173383311Y-103310742D01*
X173329805Y-103475415D01*
X173302720Y-103646428D01*
X172962720Y-103646428D01*
X172935634Y-103475415D01*
X172882128Y-103310742D01*
X172803524Y-103156475D01*
X172701752Y-103016397D01*
X172579322Y-102893967D01*
X172439244Y-102792195D01*
X172284977Y-102713591D01*
X172120304Y-102660085D01*
X171949291Y-102633000D01*
X171776149Y-102633000D01*
X171605135Y-102660085D01*
X171440462Y-102713591D01*
X171286195Y-102792195D01*
X171146117Y-102893967D01*
X171023687Y-103016397D01*
X170921915Y-103156475D01*
X170843311Y-103310742D01*
X170789805Y-103475415D01*
X170762720Y-103646428D01*
X170423220Y-103646428D01*
X170423220Y-103646389D01*
X170396122Y-103475299D01*
X170342593Y-103310555D01*
X170263952Y-103156212D01*
X170162134Y-103016072D01*
X170039648Y-102893586D01*
X169899508Y-102791768D01*
X169745165Y-102713127D01*
X169580421Y-102659598D01*
X169580419Y-102659597D01*
X169580418Y-102659597D01*
X169448991Y-102638781D01*
X169409331Y-102632500D01*
X169236109Y-102632500D01*
X169196448Y-102638781D01*
X169065022Y-102659597D01*
X168900272Y-102713128D01*
X168745931Y-102791768D01*
X168699505Y-102825499D01*
X168605792Y-102893586D01*
X168605790Y-102893588D01*
X168605789Y-102893588D01*
X168483308Y-103016069D01*
X168483308Y-103016070D01*
X168483306Y-103016072D01*
X168456334Y-103053196D01*
X168381488Y-103156211D01*
X168302848Y-103310552D01*
X168249317Y-103475302D01*
X168222220Y-103646389D01*
X167883220Y-103646389D01*
X167856122Y-103475299D01*
X167802593Y-103310555D01*
X167723952Y-103156212D01*
X167622134Y-103016072D01*
X167499648Y-102893586D01*
X167359508Y-102791768D01*
X167205165Y-102713127D01*
X167040421Y-102659598D01*
X167040419Y-102659597D01*
X167040418Y-102659597D01*
X166908991Y-102638781D01*
X166869331Y-102632500D01*
X166696109Y-102632500D01*
X166656448Y-102638781D01*
X166525022Y-102659597D01*
X166360269Y-102713129D01*
X166317900Y-102734717D01*
X166249231Y-102747613D01*
X166184490Y-102721336D01*
X166144234Y-102664229D01*
X166141242Y-102594424D01*
X166158504Y-102555341D01*
X166209394Y-102479179D01*
X166269737Y-102333497D01*
X166300500Y-102178842D01*
X166300500Y-102021158D01*
X166300500Y-102021155D01*
X166300499Y-102021153D01*
X166296291Y-102000000D01*
X166269737Y-101866503D01*
X166256163Y-101833733D01*
X166209397Y-101720827D01*
X166209390Y-101720814D01*
X166121789Y-101589711D01*
X166121786Y-101589707D01*
X166010292Y-101478213D01*
X166010288Y-101478210D01*
X165879185Y-101390609D01*
X165879172Y-101390602D01*
X165733501Y-101330264D01*
X165733489Y-101330261D01*
X165622286Y-101308141D01*
X165605530Y-101299376D01*
X165587049Y-101295356D01*
X165562007Y-101276610D01*
X165560375Y-101275756D01*
X165558795Y-101274205D01*
X165496818Y-101212227D01*
X165463334Y-101150903D01*
X165460500Y-101124546D01*
X165460500Y-93334499D01*
X165480185Y-93267460D01*
X165532989Y-93221705D01*
X165584500Y-93210499D01*
X167292568Y-93210499D01*
X167359607Y-93230184D01*
X167405362Y-93282988D01*
X167415306Y-93352146D01*
X167403053Y-93390794D01*
X167327454Y-93539163D01*
X167269059Y-93718881D01*
X167239500Y-93905513D01*
X167239500Y-94094486D01*
X167269059Y-94281118D01*
X167327454Y-94460836D01*
X167403688Y-94610452D01*
X167413240Y-94629199D01*
X167524310Y-94782073D01*
X167657927Y-94915690D01*
X167810801Y-95026760D01*
X167890347Y-95067290D01*
X167979163Y-95112545D01*
X167979165Y-95112545D01*
X167979168Y-95112547D01*
X168075497Y-95143846D01*
X168158881Y-95170940D01*
X168345514Y-95200500D01*
X168345519Y-95200500D01*
X168534486Y-95200500D01*
X168721118Y-95170940D01*
X168900832Y-95112547D01*
X169069199Y-95026760D01*
X169222073Y-94915690D01*
X169355690Y-94782073D01*
X169466760Y-94629199D01*
X169552547Y-94460832D01*
X169610940Y-94281118D01*
X169628756Y-94168632D01*
X169640500Y-94094486D01*
X169640500Y-93905513D01*
X169634013Y-93864556D01*
X169631584Y-93849223D01*
X171219500Y-93849223D01*
X171219500Y-94150776D01*
X171219501Y-94150793D01*
X171258861Y-94449766D01*
X171336913Y-94741060D01*
X171452314Y-95019661D01*
X171452318Y-95019671D01*
X171603099Y-95280831D01*
X171786679Y-95520078D01*
X171786685Y-95520085D01*
X171999914Y-95733314D01*
X171999921Y-95733320D01*
X172239168Y-95916900D01*
X172500328Y-96067681D01*
X172500329Y-96067681D01*
X172500332Y-96067683D01*
X172686072Y-96144619D01*
X172778939Y-96183086D01*
X172778940Y-96183086D01*
X172778942Y-96183087D01*
X173070232Y-96261138D01*
X173369217Y-96300500D01*
X173369224Y-96300500D01*
X173670776Y-96300500D01*
X173670783Y-96300500D01*
X173969768Y-96261138D01*
X174261058Y-96183087D01*
X174539668Y-96067683D01*
X174800832Y-95916900D01*
X175040080Y-95733319D01*
X175253319Y-95520080D01*
X175436900Y-95280832D01*
X175587683Y-95019668D01*
X175703087Y-94741058D01*
X175781138Y-94449768D01*
X175820500Y-94150783D01*
X175820500Y-93905513D01*
X177399500Y-93905513D01*
X177399500Y-94094486D01*
X177429059Y-94281118D01*
X177487454Y-94460836D01*
X177563688Y-94610452D01*
X177573240Y-94629199D01*
X177684310Y-94782073D01*
X177817927Y-94915690D01*
X177970801Y-95026760D01*
X178050347Y-95067290D01*
X178139163Y-95112545D01*
X178139165Y-95112545D01*
X178139168Y-95112547D01*
X178235497Y-95143846D01*
X178318881Y-95170940D01*
X178505514Y-95200500D01*
X178505519Y-95200500D01*
X178694486Y-95200500D01*
X178881118Y-95170940D01*
X179060832Y-95112547D01*
X179229199Y-95026760D01*
X179382073Y-94915690D01*
X179515690Y-94782073D01*
X179626760Y-94629199D01*
X179712547Y-94460832D01*
X179770940Y-94281118D01*
X179788756Y-94168632D01*
X179800500Y-94094486D01*
X179800500Y-93905513D01*
X179770940Y-93718881D01*
X179713626Y-93542490D01*
X179712547Y-93539168D01*
X179712545Y-93539165D01*
X179712545Y-93539163D01*
X179636817Y-93390539D01*
X179626760Y-93370801D01*
X179515690Y-93217927D01*
X179382073Y-93084310D01*
X179229199Y-92973240D01*
X179188422Y-92952463D01*
X179060836Y-92887454D01*
X178881118Y-92829059D01*
X178694486Y-92799500D01*
X178694481Y-92799500D01*
X178505519Y-92799500D01*
X178505514Y-92799500D01*
X178318881Y-92829059D01*
X178139163Y-92887454D01*
X177970800Y-92973240D01*
X177888078Y-93033342D01*
X177817927Y-93084310D01*
X177817925Y-93084312D01*
X177817924Y-93084312D01*
X177684312Y-93217924D01*
X177684312Y-93217925D01*
X177684310Y-93217927D01*
X177648322Y-93267460D01*
X177573240Y-93370800D01*
X177487454Y-93539163D01*
X177429059Y-93718881D01*
X177399500Y-93905513D01*
X175820500Y-93905513D01*
X175820500Y-93849217D01*
X175781138Y-93550232D01*
X175703087Y-93258942D01*
X175702336Y-93257130D01*
X175649148Y-93128722D01*
X175587683Y-92980332D01*
X175583588Y-92973240D01*
X175436900Y-92719168D01*
X175253320Y-92479921D01*
X175253314Y-92479914D01*
X175040085Y-92266685D01*
X175040078Y-92266679D01*
X174800831Y-92083099D01*
X174539671Y-91932318D01*
X174539661Y-91932314D01*
X174261060Y-91816913D01*
X173969766Y-91738861D01*
X173670793Y-91699501D01*
X173670788Y-91699500D01*
X173670783Y-91699500D01*
X173369217Y-91699500D01*
X173369211Y-91699500D01*
X173369206Y-91699501D01*
X173070233Y-91738861D01*
X172778939Y-91816913D01*
X172500338Y-91932314D01*
X172500328Y-91932318D01*
X172239168Y-92083099D01*
X171999921Y-92266679D01*
X171999914Y-92266685D01*
X171786685Y-92479914D01*
X171786679Y-92479921D01*
X171603099Y-92719168D01*
X171452318Y-92980328D01*
X171452314Y-92980338D01*
X171336913Y-93258939D01*
X171258861Y-93550233D01*
X171219501Y-93849206D01*
X171219500Y-93849223D01*
X169631584Y-93849223D01*
X169610940Y-93718881D01*
X169553626Y-93542490D01*
X169552547Y-93539168D01*
X169552545Y-93539165D01*
X169552545Y-93539163D01*
X169525424Y-93485937D01*
X169476815Y-93390535D01*
X169463920Y-93321870D01*
X169490196Y-93257130D01*
X169547302Y-93216872D01*
X169591207Y-93211065D01*
X169591207Y-93210500D01*
X169824727Y-93210500D01*
X169824734Y-93210500D01*
X170052238Y-93180548D01*
X170273887Y-93121158D01*
X170485888Y-93033344D01*
X170684612Y-92918611D01*
X170866661Y-92778919D01*
X170866665Y-92778914D01*
X170866670Y-92778911D01*
X171028911Y-92616670D01*
X171028914Y-92616665D01*
X171028919Y-92616661D01*
X171168611Y-92434612D01*
X171283344Y-92235888D01*
X171371158Y-92023887D01*
X171430548Y-91802238D01*
X171460500Y-91574734D01*
X171460500Y-91345266D01*
X171430548Y-91117762D01*
X171371158Y-90896113D01*
X171307525Y-90742489D01*
X171283349Y-90684123D01*
X171283346Y-90684117D01*
X171283344Y-90684112D01*
X171168611Y-90485388D01*
X171168608Y-90485385D01*
X171168607Y-90485382D01*
X171028918Y-90303338D01*
X171028911Y-90303330D01*
X170866670Y-90141089D01*
X170866661Y-90141081D01*
X170684617Y-90001392D01*
X170626210Y-89967671D01*
X170485888Y-89886656D01*
X170485876Y-89886650D01*
X170273887Y-89798842D01*
X170052238Y-89739452D01*
X170014215Y-89734446D01*
X169824741Y-89709500D01*
X169824734Y-89709500D01*
X169595266Y-89709500D01*
X169595258Y-89709500D01*
X169378715Y-89738009D01*
X169367762Y-89739452D01*
X169274076Y-89764554D01*
X169146112Y-89798842D01*
X168934123Y-89886650D01*
X168934109Y-89886657D01*
X168735382Y-90001392D01*
X168553338Y-90141081D01*
X168422180Y-90272239D01*
X168360857Y-90305724D01*
X168291165Y-90300740D01*
X168235232Y-90258868D01*
X168210815Y-90193404D01*
X168210499Y-90184558D01*
X168210499Y-90162129D01*
X168210498Y-90162123D01*
X168208236Y-90141081D01*
X168204091Y-90102517D01*
X168201025Y-90094297D01*
X168153797Y-89967671D01*
X168153793Y-89967664D01*
X168067547Y-89852455D01*
X168067544Y-89852452D01*
X167952335Y-89766206D01*
X167952328Y-89766202D01*
X167817482Y-89715908D01*
X167817483Y-89715908D01*
X167757883Y-89709501D01*
X167757881Y-89709500D01*
X167757873Y-89709500D01*
X167757865Y-89709500D01*
X167532220Y-89709500D01*
X167465181Y-89689815D01*
X167419426Y-89637011D01*
X167408220Y-89585500D01*
X167408220Y-82642021D01*
X167427905Y-82574982D01*
X167459336Y-82541702D01*
X167462775Y-82539204D01*
X167499648Y-82512414D01*
X167622134Y-82389928D01*
X167723952Y-82249788D01*
X167802593Y-82095445D01*
X167856122Y-81930701D01*
X167883220Y-81759611D01*
X167883220Y-81016492D01*
X167889458Y-80995246D01*
X167891038Y-80973158D01*
X167899110Y-80962374D01*
X167902905Y-80949453D01*
X167919638Y-80934953D01*
X167932910Y-80917225D01*
X167945530Y-80912517D01*
X167955709Y-80903698D01*
X167977626Y-80900546D01*
X167998374Y-80892808D01*
X168011534Y-80895670D01*
X168024867Y-80893754D01*
X168045010Y-80902953D01*
X168066647Y-80907660D01*
X168084372Y-80920928D01*
X168088423Y-80922779D01*
X168094901Y-80928811D01*
X168183181Y-81017091D01*
X168216666Y-81078414D01*
X168219500Y-81104772D01*
X168219500Y-81755931D01*
X168246598Y-81927021D01*
X168297833Y-82084706D01*
X168300128Y-82091767D01*
X168354001Y-82197500D01*
X168378768Y-82246108D01*
X168480586Y-82386248D01*
X168603072Y-82508734D01*
X168743212Y-82610552D01*
X168897555Y-82689193D01*
X169062299Y-82742722D01*
X169233389Y-82769820D01*
X169233390Y-82769820D01*
X169406610Y-82769820D01*
X169406611Y-82769820D01*
X169577701Y-82742722D01*
X169742445Y-82689193D01*
X169896788Y-82610552D01*
X170036928Y-82508734D01*
X170159414Y-82386248D01*
X170261232Y-82246108D01*
X170339873Y-82091765D01*
X170393402Y-81927021D01*
X170420500Y-81755931D01*
X170420500Y-80782709D01*
X170393402Y-80611619D01*
X170339873Y-80446875D01*
X170261232Y-80292532D01*
X170159414Y-80152392D01*
X170119203Y-80112181D01*
X170085718Y-80050858D01*
X170090702Y-79981166D01*
X170132574Y-79925233D01*
X170198038Y-79900816D01*
X170206884Y-79900500D01*
X170973116Y-79900500D01*
X171040155Y-79920185D01*
X171085910Y-79972989D01*
X171095854Y-80042147D01*
X171066829Y-80105703D01*
X171060797Y-80112181D01*
X171020588Y-80152389D01*
X171020588Y-80152390D01*
X171020586Y-80152392D01*
X171000237Y-80180400D01*
X170918768Y-80292531D01*
X170840128Y-80446872D01*
X170786597Y-80611622D01*
X170780327Y-80651211D01*
X170759500Y-80782709D01*
X170759500Y-81755931D01*
X170786598Y-81927021D01*
X170837833Y-82084706D01*
X170840128Y-82091767D01*
X170894001Y-82197500D01*
X170918768Y-82246108D01*
X171020586Y-82386248D01*
X171020588Y-82386250D01*
X171023181Y-82388843D01*
X171056666Y-82450166D01*
X171059500Y-82476524D01*
X171059500Y-84038846D01*
X171090261Y-84193489D01*
X171090264Y-84193501D01*
X171150602Y-84339172D01*
X171150609Y-84339185D01*
X171238210Y-84470288D01*
X171238213Y-84470292D01*
X172478211Y-85710289D01*
X172571422Y-85803500D01*
X172589712Y-85821790D01*
X172720814Y-85909390D01*
X172720827Y-85909397D01*
X172866498Y-85969735D01*
X172866503Y-85969737D01*
X173021153Y-86000499D01*
X173021156Y-86000500D01*
X173021158Y-86000500D01*
X179917060Y-86000500D01*
X179984099Y-86020185D01*
X180004741Y-86036819D01*
X180300181Y-86332259D01*
X180333666Y-86393582D01*
X180336500Y-86419940D01*
X180336500Y-87046000D01*
X180316815Y-87113039D01*
X180264011Y-87158794D01*
X180212500Y-87170000D01*
X178039155Y-87170000D01*
X177979627Y-87176401D01*
X177979620Y-87176403D01*
X177844913Y-87226645D01*
X177844906Y-87226649D01*
X177729812Y-87312809D01*
X177729809Y-87312812D01*
X177643649Y-87427906D01*
X177643645Y-87427913D01*
X177593403Y-87562620D01*
X177593401Y-87562627D01*
X177587000Y-87622155D01*
X177587000Y-87672057D01*
X177567315Y-87739096D01*
X177514511Y-87784851D01*
X177445353Y-87794795D01*
X177381797Y-87765770D01*
X177375319Y-87759738D01*
X177216670Y-87601089D01*
X177216661Y-87601081D01*
X177034617Y-87461392D01*
X176835890Y-87346657D01*
X176835876Y-87346650D01*
X176623887Y-87258842D01*
X176402238Y-87199452D01*
X176364215Y-87194446D01*
X176174741Y-87169500D01*
X176174734Y-87169500D01*
X175945266Y-87169500D01*
X175945258Y-87169500D01*
X175728715Y-87198009D01*
X175717762Y-87199452D01*
X175624076Y-87224554D01*
X175496112Y-87258842D01*
X175284123Y-87346650D01*
X175284109Y-87346657D01*
X175085382Y-87461392D01*
X174903338Y-87601081D01*
X174741081Y-87763338D01*
X174601392Y-87945382D01*
X174486657Y-88144109D01*
X174486650Y-88144123D01*
X174398842Y-88356112D01*
X174339453Y-88577759D01*
X174339451Y-88577770D01*
X174309500Y-88805258D01*
X174309500Y-89034741D01*
X174332243Y-89207482D01*
X174339452Y-89262238D01*
X174391784Y-89457546D01*
X174398842Y-89483887D01*
X174486650Y-89695876D01*
X174486657Y-89695890D01*
X174601392Y-89894617D01*
X174741081Y-90076661D01*
X174741089Y-90076670D01*
X174903330Y-90238911D01*
X174903338Y-90238918D01*
X175085382Y-90378607D01*
X175085385Y-90378608D01*
X175085388Y-90378611D01*
X175284112Y-90493344D01*
X175284117Y-90493346D01*
X175284123Y-90493349D01*
X175365816Y-90527187D01*
X175496113Y-90581158D01*
X175717762Y-90640548D01*
X175934312Y-90669057D01*
X175941460Y-90669999D01*
X175945266Y-90670500D01*
X175945273Y-90670500D01*
X176174727Y-90670500D01*
X176174734Y-90670500D01*
X176402238Y-90640548D01*
X176623887Y-90581158D01*
X176835888Y-90493344D01*
X177034612Y-90378611D01*
X177216661Y-90238919D01*
X177216665Y-90238914D01*
X177216670Y-90238911D01*
X177375319Y-90080262D01*
X177436642Y-90046777D01*
X177506334Y-90051761D01*
X177562267Y-90093633D01*
X177586684Y-90159097D01*
X177587000Y-90167943D01*
X177587000Y-90217844D01*
X177593401Y-90277372D01*
X177593403Y-90277379D01*
X177643645Y-90412086D01*
X177643649Y-90412093D01*
X177729809Y-90527187D01*
X177729812Y-90527190D01*
X177844906Y-90613350D01*
X177844913Y-90613354D01*
X177979620Y-90663596D01*
X177979627Y-90663598D01*
X178039155Y-90669999D01*
X178039172Y-90670000D01*
X180212500Y-90670000D01*
X180279539Y-90689685D01*
X180325294Y-90742489D01*
X180336500Y-90794000D01*
X180336500Y-103280060D01*
X180316815Y-103347099D01*
X180300181Y-103367741D01*
X177704741Y-105963181D01*
X177643418Y-105996666D01*
X177617060Y-105999500D01*
X119321153Y-105999500D01*
X119166510Y-106030260D01*
X119166502Y-106030262D01*
X119020824Y-106090604D01*
X119020814Y-106090609D01*
X118889711Y-106178210D01*
X118889707Y-106178213D01*
X118637181Y-106430740D01*
X118575858Y-106464225D01*
X118506166Y-106459241D01*
X118450233Y-106417369D01*
X118425816Y-106351905D01*
X118425500Y-106343059D01*
X118425500Y-105010451D01*
X118445185Y-104943412D01*
X118461814Y-104922775D01*
X119751041Y-103633548D01*
X119812362Y-103600065D01*
X119882054Y-103605049D01*
X119937987Y-103646921D01*
X119962404Y-103712385D01*
X119962720Y-103721231D01*
X119962720Y-104619571D01*
X119989805Y-104790584D01*
X120043311Y-104955257D01*
X120121915Y-105109524D01*
X120223687Y-105249602D01*
X120346117Y-105372032D01*
X120486195Y-105473804D01*
X120640462Y-105552408D01*
X120805135Y-105605914D01*
X120976149Y-105633000D01*
X121149291Y-105633000D01*
X121320304Y-105605914D01*
X121484977Y-105552408D01*
X121639244Y-105473804D01*
X121779322Y-105372032D01*
X121901752Y-105249602D01*
X122003524Y-105109524D01*
X122082128Y-104955257D01*
X122135634Y-104790584D01*
X122162720Y-104619571D01*
X122162720Y-103646428D01*
X122162714Y-103646389D01*
X122502220Y-103646389D01*
X122502220Y-104619610D01*
X122525067Y-104763865D01*
X122529318Y-104790701D01*
X122582847Y-104955445D01*
X122661488Y-105109788D01*
X122763306Y-105249928D01*
X122885792Y-105372414D01*
X123025932Y-105474232D01*
X123180275Y-105552873D01*
X123345019Y-105606402D01*
X123516109Y-105633500D01*
X123516110Y-105633500D01*
X123689330Y-105633500D01*
X123689331Y-105633500D01*
X123860421Y-105606402D01*
X124025165Y-105552873D01*
X124179508Y-105474232D01*
X124319648Y-105372414D01*
X124442134Y-105249928D01*
X124543952Y-105109788D01*
X124622593Y-104955445D01*
X124676122Y-104790701D01*
X124703220Y-104619611D01*
X124703220Y-103646389D01*
X125042220Y-103646389D01*
X125042220Y-104619610D01*
X125065067Y-104763865D01*
X125069318Y-104790701D01*
X125122847Y-104955445D01*
X125201488Y-105109788D01*
X125303306Y-105249928D01*
X125425792Y-105372414D01*
X125565932Y-105474232D01*
X125720275Y-105552873D01*
X125885019Y-105606402D01*
X126056109Y-105633500D01*
X126056110Y-105633500D01*
X126229330Y-105633500D01*
X126229331Y-105633500D01*
X126400421Y-105606402D01*
X126565165Y-105552873D01*
X126719508Y-105474232D01*
X126859648Y-105372414D01*
X126982134Y-105249928D01*
X127083952Y-105109788D01*
X127162593Y-104955445D01*
X127216122Y-104790701D01*
X127243220Y-104619611D01*
X127243220Y-103646389D01*
X127582220Y-103646389D01*
X127582220Y-104619610D01*
X127605067Y-104763865D01*
X127609318Y-104790701D01*
X127662847Y-104955445D01*
X127741488Y-105109788D01*
X127843306Y-105249928D01*
X127965792Y-105372414D01*
X128105932Y-105474232D01*
X128260275Y-105552873D01*
X128425019Y-105606402D01*
X128596109Y-105633500D01*
X128596110Y-105633500D01*
X128769330Y-105633500D01*
X128769331Y-105633500D01*
X128940421Y-105606402D01*
X129105165Y-105552873D01*
X129259508Y-105474232D01*
X129399648Y-105372414D01*
X129522134Y-105249928D01*
X129623952Y-105109788D01*
X129702593Y-104955445D01*
X129756122Y-104790701D01*
X129783220Y-104619611D01*
X129783220Y-103646389D01*
X130122220Y-103646389D01*
X130122220Y-104619610D01*
X130145067Y-104763865D01*
X130149318Y-104790701D01*
X130202847Y-104955445D01*
X130281488Y-105109788D01*
X130383306Y-105249928D01*
X130505792Y-105372414D01*
X130645932Y-105474232D01*
X130800275Y-105552873D01*
X130965019Y-105606402D01*
X131136109Y-105633500D01*
X131136110Y-105633500D01*
X131309330Y-105633500D01*
X131309331Y-105633500D01*
X131480421Y-105606402D01*
X131645165Y-105552873D01*
X131799508Y-105474232D01*
X131939648Y-105372414D01*
X132062134Y-105249928D01*
X132163952Y-105109788D01*
X132242593Y-104955445D01*
X132296122Y-104790701D01*
X132323220Y-104619611D01*
X132323220Y-103646389D01*
X132662220Y-103646389D01*
X132662220Y-104619610D01*
X132685067Y-104763865D01*
X132689318Y-104790701D01*
X132742847Y-104955445D01*
X132821488Y-105109788D01*
X132923306Y-105249928D01*
X133045792Y-105372414D01*
X133185932Y-105474232D01*
X133340275Y-105552873D01*
X133505019Y-105606402D01*
X133676109Y-105633500D01*
X133676110Y-105633500D01*
X133849330Y-105633500D01*
X133849331Y-105633500D01*
X134020421Y-105606402D01*
X134185165Y-105552873D01*
X134339508Y-105474232D01*
X134479648Y-105372414D01*
X134602134Y-105249928D01*
X134703952Y-105109788D01*
X134782593Y-104955445D01*
X134836122Y-104790701D01*
X134863220Y-104619611D01*
X134863220Y-103646389D01*
X135202220Y-103646389D01*
X135202220Y-104619610D01*
X135225067Y-104763865D01*
X135229318Y-104790701D01*
X135282847Y-104955445D01*
X135361488Y-105109788D01*
X135463306Y-105249928D01*
X135585792Y-105372414D01*
X135725932Y-105474232D01*
X135880275Y-105552873D01*
X136045019Y-105606402D01*
X136216109Y-105633500D01*
X136216110Y-105633500D01*
X136389330Y-105633500D01*
X136389331Y-105633500D01*
X136560421Y-105606402D01*
X136725165Y-105552873D01*
X136879508Y-105474232D01*
X137019648Y-105372414D01*
X137142134Y-105249928D01*
X137243952Y-105109788D01*
X137322593Y-104955445D01*
X137376122Y-104790701D01*
X137403220Y-104619611D01*
X137403220Y-103646389D01*
X137742220Y-103646389D01*
X137742220Y-104619610D01*
X137765067Y-104763865D01*
X137769318Y-104790701D01*
X137822847Y-104955445D01*
X137901488Y-105109788D01*
X138003306Y-105249928D01*
X138125792Y-105372414D01*
X138265932Y-105474232D01*
X138420275Y-105552873D01*
X138585019Y-105606402D01*
X138756109Y-105633500D01*
X138756110Y-105633500D01*
X138929330Y-105633500D01*
X138929331Y-105633500D01*
X139100421Y-105606402D01*
X139265165Y-105552873D01*
X139419508Y-105474232D01*
X139559648Y-105372414D01*
X139682134Y-105249928D01*
X139783952Y-105109788D01*
X139862593Y-104955445D01*
X139916122Y-104790701D01*
X139943220Y-104619611D01*
X139943220Y-103646389D01*
X140282220Y-103646389D01*
X140282220Y-104619610D01*
X140305067Y-104763865D01*
X140309318Y-104790701D01*
X140362847Y-104955445D01*
X140441488Y-105109788D01*
X140543306Y-105249928D01*
X140665792Y-105372414D01*
X140805932Y-105474232D01*
X140960275Y-105552873D01*
X141125019Y-105606402D01*
X141296109Y-105633500D01*
X141296110Y-105633500D01*
X141469330Y-105633500D01*
X141469331Y-105633500D01*
X141640421Y-105606402D01*
X141805165Y-105552873D01*
X141959508Y-105474232D01*
X142099648Y-105372414D01*
X142222134Y-105249928D01*
X142323952Y-105109788D01*
X142402593Y-104955445D01*
X142456122Y-104790701D01*
X142483220Y-104619611D01*
X142483220Y-103646389D01*
X142822220Y-103646389D01*
X142822220Y-104619610D01*
X142845067Y-104763865D01*
X142849318Y-104790701D01*
X142902847Y-104955445D01*
X142981488Y-105109788D01*
X143083306Y-105249928D01*
X143205792Y-105372414D01*
X143345932Y-105474232D01*
X143500275Y-105552873D01*
X143665019Y-105606402D01*
X143836109Y-105633500D01*
X143836110Y-105633500D01*
X144009330Y-105633500D01*
X144009331Y-105633500D01*
X144180421Y-105606402D01*
X144345165Y-105552873D01*
X144499508Y-105474232D01*
X144639648Y-105372414D01*
X144762134Y-105249928D01*
X144863952Y-105109788D01*
X144942593Y-104955445D01*
X144996122Y-104790701D01*
X145023220Y-104619611D01*
X145023220Y-103646389D01*
X145362220Y-103646389D01*
X145362220Y-104619610D01*
X145385067Y-104763865D01*
X145389318Y-104790701D01*
X145442847Y-104955445D01*
X145521488Y-105109788D01*
X145623306Y-105249928D01*
X145745792Y-105372414D01*
X145885932Y-105474232D01*
X146040275Y-105552873D01*
X146205019Y-105606402D01*
X146376109Y-105633500D01*
X146376110Y-105633500D01*
X146549330Y-105633500D01*
X146549331Y-105633500D01*
X146720421Y-105606402D01*
X146885165Y-105552873D01*
X147039508Y-105474232D01*
X147179648Y-105372414D01*
X147302134Y-105249928D01*
X147403952Y-105109788D01*
X147482593Y-104955445D01*
X147536122Y-104790701D01*
X147563220Y-104619611D01*
X147563220Y-103646389D01*
X147902220Y-103646389D01*
X147902220Y-104619610D01*
X147925067Y-104763865D01*
X147929318Y-104790701D01*
X147982847Y-104955445D01*
X148061488Y-105109788D01*
X148163306Y-105249928D01*
X148285792Y-105372414D01*
X148425932Y-105474232D01*
X148580275Y-105552873D01*
X148745019Y-105606402D01*
X148916109Y-105633500D01*
X148916110Y-105633500D01*
X149089330Y-105633500D01*
X149089331Y-105633500D01*
X149260421Y-105606402D01*
X149425165Y-105552873D01*
X149579508Y-105474232D01*
X149719648Y-105372414D01*
X149842134Y-105249928D01*
X149943952Y-105109788D01*
X150022593Y-104955445D01*
X150076122Y-104790701D01*
X150103220Y-104619611D01*
X150103220Y-103646389D01*
X150442220Y-103646389D01*
X150442220Y-104619610D01*
X150465067Y-104763865D01*
X150469318Y-104790701D01*
X150522847Y-104955445D01*
X150601488Y-105109788D01*
X150703306Y-105249928D01*
X150825792Y-105372414D01*
X150965932Y-105474232D01*
X151120275Y-105552873D01*
X151285019Y-105606402D01*
X151456109Y-105633500D01*
X151456110Y-105633500D01*
X151629330Y-105633500D01*
X151629331Y-105633500D01*
X151800421Y-105606402D01*
X151965165Y-105552873D01*
X152119508Y-105474232D01*
X152259648Y-105372414D01*
X152382134Y-105249928D01*
X152483952Y-105109788D01*
X152562593Y-104955445D01*
X152616122Y-104790701D01*
X152643220Y-104619611D01*
X152643220Y-103646389D01*
X152982220Y-103646389D01*
X152982220Y-104619610D01*
X153005067Y-104763865D01*
X153009318Y-104790701D01*
X153062847Y-104955445D01*
X153141488Y-105109788D01*
X153243306Y-105249928D01*
X153365792Y-105372414D01*
X153505932Y-105474232D01*
X153660275Y-105552873D01*
X153825019Y-105606402D01*
X153996109Y-105633500D01*
X153996110Y-105633500D01*
X154169330Y-105633500D01*
X154169331Y-105633500D01*
X154340421Y-105606402D01*
X154505165Y-105552873D01*
X154659508Y-105474232D01*
X154799648Y-105372414D01*
X154922134Y-105249928D01*
X155023952Y-105109788D01*
X155102593Y-104955445D01*
X155156122Y-104790701D01*
X155183220Y-104619611D01*
X155183220Y-103646389D01*
X155522220Y-103646389D01*
X155522220Y-104619610D01*
X155545067Y-104763865D01*
X155549318Y-104790701D01*
X155602847Y-104955445D01*
X155681488Y-105109788D01*
X155783306Y-105249928D01*
X155905792Y-105372414D01*
X156045932Y-105474232D01*
X156200275Y-105552873D01*
X156365019Y-105606402D01*
X156536109Y-105633500D01*
X156536110Y-105633500D01*
X156709330Y-105633500D01*
X156709331Y-105633500D01*
X156880421Y-105606402D01*
X157045165Y-105552873D01*
X157199508Y-105474232D01*
X157339648Y-105372414D01*
X157462134Y-105249928D01*
X157563952Y-105109788D01*
X157642593Y-104955445D01*
X157696122Y-104790701D01*
X157723220Y-104619611D01*
X157723220Y-103646389D01*
X158062220Y-103646389D01*
X158062220Y-104619610D01*
X158085067Y-104763865D01*
X158089318Y-104790701D01*
X158142847Y-104955445D01*
X158221488Y-105109788D01*
X158323306Y-105249928D01*
X158445792Y-105372414D01*
X158585932Y-105474232D01*
X158740275Y-105552873D01*
X158905019Y-105606402D01*
X159076109Y-105633500D01*
X159076110Y-105633500D01*
X159249330Y-105633500D01*
X159249331Y-105633500D01*
X159420421Y-105606402D01*
X159585165Y-105552873D01*
X159739508Y-105474232D01*
X159879648Y-105372414D01*
X160002134Y-105249928D01*
X160103952Y-105109788D01*
X160182593Y-104955445D01*
X160236122Y-104790701D01*
X160263220Y-104619611D01*
X160263220Y-103646389D01*
X160602220Y-103646389D01*
X160602220Y-104619610D01*
X160625067Y-104763865D01*
X160629318Y-104790701D01*
X160682847Y-104955445D01*
X160761488Y-105109788D01*
X160863306Y-105249928D01*
X160985792Y-105372414D01*
X161125932Y-105474232D01*
X161280275Y-105552873D01*
X161445019Y-105606402D01*
X161616109Y-105633500D01*
X161616110Y-105633500D01*
X161789330Y-105633500D01*
X161789331Y-105633500D01*
X161960421Y-105606402D01*
X162125165Y-105552873D01*
X162279508Y-105474232D01*
X162419648Y-105372414D01*
X162542134Y-105249928D01*
X162643952Y-105109788D01*
X162722593Y-104955445D01*
X162776122Y-104790701D01*
X162803220Y-104619611D01*
X162803220Y-103646389D01*
X162776122Y-103475299D01*
X162722593Y-103310555D01*
X162643952Y-103156212D01*
X162542134Y-103016072D01*
X162419648Y-102893586D01*
X162279508Y-102791768D01*
X162125165Y-102713127D01*
X161960421Y-102659598D01*
X161960419Y-102659597D01*
X161960418Y-102659597D01*
X161828991Y-102638781D01*
X161789331Y-102632500D01*
X161616109Y-102632500D01*
X161576448Y-102638781D01*
X161445022Y-102659597D01*
X161280272Y-102713128D01*
X161125931Y-102791768D01*
X161079505Y-102825499D01*
X160985792Y-102893586D01*
X160985790Y-102893588D01*
X160985789Y-102893588D01*
X160863308Y-103016069D01*
X160863308Y-103016070D01*
X160863306Y-103016072D01*
X160836334Y-103053196D01*
X160761488Y-103156211D01*
X160682848Y-103310552D01*
X160629317Y-103475302D01*
X160602220Y-103646389D01*
X160263220Y-103646389D01*
X160236122Y-103475299D01*
X160182593Y-103310555D01*
X160103952Y-103156212D01*
X160002134Y-103016072D01*
X159879648Y-102893586D01*
X159739508Y-102791768D01*
X159585165Y-102713127D01*
X159420421Y-102659598D01*
X159420419Y-102659597D01*
X159420418Y-102659597D01*
X159288991Y-102638781D01*
X159249331Y-102632500D01*
X159076109Y-102632500D01*
X159036448Y-102638781D01*
X158905022Y-102659597D01*
X158740272Y-102713128D01*
X158585931Y-102791768D01*
X158539505Y-102825499D01*
X158445792Y-102893586D01*
X158445790Y-102893588D01*
X158445789Y-102893588D01*
X158323308Y-103016069D01*
X158323308Y-103016070D01*
X158323306Y-103016072D01*
X158296334Y-103053196D01*
X158221488Y-103156211D01*
X158142848Y-103310552D01*
X158089317Y-103475302D01*
X158062220Y-103646389D01*
X157723220Y-103646389D01*
X157696122Y-103475299D01*
X157642593Y-103310555D01*
X157563952Y-103156212D01*
X157462134Y-103016072D01*
X157339648Y-102893586D01*
X157199508Y-102791768D01*
X157045165Y-102713127D01*
X156880421Y-102659598D01*
X156880419Y-102659597D01*
X156880418Y-102659597D01*
X156748991Y-102638781D01*
X156709331Y-102632500D01*
X156536109Y-102632500D01*
X156496448Y-102638781D01*
X156365022Y-102659597D01*
X156200272Y-102713128D01*
X156045931Y-102791768D01*
X155999505Y-102825499D01*
X155905792Y-102893586D01*
X155905790Y-102893588D01*
X155905789Y-102893588D01*
X155783308Y-103016069D01*
X155783308Y-103016070D01*
X155783306Y-103016072D01*
X155756334Y-103053196D01*
X155681488Y-103156211D01*
X155602848Y-103310552D01*
X155549317Y-103475302D01*
X155522220Y-103646389D01*
X155183220Y-103646389D01*
X155156122Y-103475299D01*
X155102593Y-103310555D01*
X155023952Y-103156212D01*
X154922134Y-103016072D01*
X154799648Y-102893586D01*
X154659508Y-102791768D01*
X154505165Y-102713127D01*
X154340421Y-102659598D01*
X154340419Y-102659597D01*
X154340418Y-102659597D01*
X154208991Y-102638781D01*
X154169331Y-102632500D01*
X153996109Y-102632500D01*
X153956448Y-102638781D01*
X153825022Y-102659597D01*
X153660272Y-102713128D01*
X153505931Y-102791768D01*
X153459505Y-102825499D01*
X153365792Y-102893586D01*
X153365790Y-102893588D01*
X153365789Y-102893588D01*
X153243308Y-103016069D01*
X153243308Y-103016070D01*
X153243306Y-103016072D01*
X153216334Y-103053196D01*
X153141488Y-103156211D01*
X153062848Y-103310552D01*
X153009317Y-103475302D01*
X152982220Y-103646389D01*
X152643220Y-103646389D01*
X152616122Y-103475299D01*
X152562593Y-103310555D01*
X152483952Y-103156212D01*
X152382134Y-103016072D01*
X152259648Y-102893586D01*
X152119508Y-102791768D01*
X151965165Y-102713127D01*
X151800421Y-102659598D01*
X151800419Y-102659597D01*
X151800418Y-102659597D01*
X151668991Y-102638781D01*
X151629331Y-102632500D01*
X151456109Y-102632500D01*
X151416448Y-102638781D01*
X151285022Y-102659597D01*
X151120272Y-102713128D01*
X150965931Y-102791768D01*
X150919505Y-102825499D01*
X150825792Y-102893586D01*
X150825790Y-102893588D01*
X150825789Y-102893588D01*
X150703308Y-103016069D01*
X150703308Y-103016070D01*
X150703306Y-103016072D01*
X150676334Y-103053196D01*
X150601488Y-103156211D01*
X150522848Y-103310552D01*
X150469317Y-103475302D01*
X150442220Y-103646389D01*
X150103220Y-103646389D01*
X150076122Y-103475299D01*
X150022593Y-103310555D01*
X149943952Y-103156212D01*
X149842134Y-103016072D01*
X149719648Y-102893586D01*
X149579508Y-102791768D01*
X149425165Y-102713127D01*
X149260421Y-102659598D01*
X149260419Y-102659597D01*
X149260418Y-102659597D01*
X149128991Y-102638781D01*
X149089331Y-102632500D01*
X148916109Y-102632500D01*
X148876448Y-102638781D01*
X148745022Y-102659597D01*
X148580272Y-102713128D01*
X148425931Y-102791768D01*
X148379505Y-102825499D01*
X148285792Y-102893586D01*
X148285790Y-102893588D01*
X148285789Y-102893588D01*
X148163308Y-103016069D01*
X148163308Y-103016070D01*
X148163306Y-103016072D01*
X148136334Y-103053196D01*
X148061488Y-103156211D01*
X147982848Y-103310552D01*
X147929317Y-103475302D01*
X147902220Y-103646389D01*
X147563220Y-103646389D01*
X147536122Y-103475299D01*
X147482593Y-103310555D01*
X147403952Y-103156212D01*
X147302134Y-103016072D01*
X147179648Y-102893586D01*
X147039508Y-102791768D01*
X146885165Y-102713127D01*
X146720421Y-102659598D01*
X146720419Y-102659597D01*
X146720418Y-102659597D01*
X146588991Y-102638781D01*
X146549331Y-102632500D01*
X146376109Y-102632500D01*
X146336448Y-102638781D01*
X146205022Y-102659597D01*
X146040272Y-102713128D01*
X145885931Y-102791768D01*
X145839505Y-102825499D01*
X145745792Y-102893586D01*
X145745790Y-102893588D01*
X145745789Y-102893588D01*
X145623308Y-103016069D01*
X145623308Y-103016070D01*
X145623306Y-103016072D01*
X145596334Y-103053196D01*
X145521488Y-103156211D01*
X145442848Y-103310552D01*
X145389317Y-103475302D01*
X145362220Y-103646389D01*
X145023220Y-103646389D01*
X144996122Y-103475299D01*
X144942593Y-103310555D01*
X144863952Y-103156212D01*
X144762134Y-103016072D01*
X144639648Y-102893586D01*
X144499508Y-102791768D01*
X144345165Y-102713127D01*
X144180421Y-102659598D01*
X144180419Y-102659597D01*
X144180418Y-102659597D01*
X144048991Y-102638781D01*
X144009331Y-102632500D01*
X143836109Y-102632500D01*
X143796448Y-102638781D01*
X143665022Y-102659597D01*
X143500272Y-102713128D01*
X143345931Y-102791768D01*
X143299505Y-102825499D01*
X143205792Y-102893586D01*
X143205790Y-102893588D01*
X143205789Y-102893588D01*
X143083308Y-103016069D01*
X143083308Y-103016070D01*
X143083306Y-103016072D01*
X143056334Y-103053196D01*
X142981488Y-103156211D01*
X142902848Y-103310552D01*
X142849317Y-103475302D01*
X142822220Y-103646389D01*
X142483220Y-103646389D01*
X142456122Y-103475299D01*
X142402593Y-103310555D01*
X142323952Y-103156212D01*
X142222134Y-103016072D01*
X142099648Y-102893586D01*
X141959508Y-102791768D01*
X141805165Y-102713127D01*
X141640421Y-102659598D01*
X141640419Y-102659597D01*
X141640418Y-102659597D01*
X141508991Y-102638781D01*
X141469331Y-102632500D01*
X141296109Y-102632500D01*
X141256448Y-102638781D01*
X141125022Y-102659597D01*
X140960272Y-102713128D01*
X140805931Y-102791768D01*
X140759505Y-102825499D01*
X140665792Y-102893586D01*
X140665790Y-102893588D01*
X140665789Y-102893588D01*
X140543308Y-103016069D01*
X140543308Y-103016070D01*
X140543306Y-103016072D01*
X140516334Y-103053196D01*
X140441488Y-103156211D01*
X140362848Y-103310552D01*
X140309317Y-103475302D01*
X140282220Y-103646389D01*
X139943220Y-103646389D01*
X139916122Y-103475299D01*
X139862593Y-103310555D01*
X139783952Y-103156212D01*
X139682134Y-103016072D01*
X139559648Y-102893586D01*
X139419508Y-102791768D01*
X139265165Y-102713127D01*
X139100421Y-102659598D01*
X139100419Y-102659597D01*
X139100418Y-102659597D01*
X138968991Y-102638781D01*
X138929331Y-102632500D01*
X138756109Y-102632500D01*
X138716448Y-102638781D01*
X138585022Y-102659597D01*
X138420272Y-102713128D01*
X138265931Y-102791768D01*
X138219505Y-102825499D01*
X138125792Y-102893586D01*
X138125790Y-102893588D01*
X138125789Y-102893588D01*
X138003308Y-103016069D01*
X138003308Y-103016070D01*
X138003306Y-103016072D01*
X137976334Y-103053196D01*
X137901488Y-103156211D01*
X137822848Y-103310552D01*
X137769317Y-103475302D01*
X137742220Y-103646389D01*
X137403220Y-103646389D01*
X137376122Y-103475299D01*
X137322593Y-103310555D01*
X137243952Y-103156212D01*
X137142134Y-103016072D01*
X137019648Y-102893586D01*
X136879508Y-102791768D01*
X136725165Y-102713127D01*
X136560421Y-102659598D01*
X136560419Y-102659597D01*
X136560418Y-102659597D01*
X136428991Y-102638781D01*
X136389331Y-102632500D01*
X136216109Y-102632500D01*
X136176448Y-102638781D01*
X136045022Y-102659597D01*
X135880272Y-102713128D01*
X135725931Y-102791768D01*
X135679505Y-102825499D01*
X135585792Y-102893586D01*
X135585790Y-102893588D01*
X135585789Y-102893588D01*
X135463308Y-103016069D01*
X135463308Y-103016070D01*
X135463306Y-103016072D01*
X135436334Y-103053196D01*
X135361488Y-103156211D01*
X135282848Y-103310552D01*
X135229317Y-103475302D01*
X135202220Y-103646389D01*
X134863220Y-103646389D01*
X134836122Y-103475299D01*
X134782593Y-103310555D01*
X134703952Y-103156212D01*
X134602134Y-103016072D01*
X134479648Y-102893586D01*
X134339508Y-102791768D01*
X134185165Y-102713127D01*
X134020421Y-102659598D01*
X134020419Y-102659597D01*
X134020418Y-102659597D01*
X133888991Y-102638781D01*
X133849331Y-102632500D01*
X133676109Y-102632500D01*
X133636448Y-102638781D01*
X133505022Y-102659597D01*
X133340272Y-102713128D01*
X133185931Y-102791768D01*
X133139505Y-102825499D01*
X133045792Y-102893586D01*
X133045790Y-102893588D01*
X133045789Y-102893588D01*
X132923308Y-103016069D01*
X132923308Y-103016070D01*
X132923306Y-103016072D01*
X132896334Y-103053196D01*
X132821488Y-103156211D01*
X132742848Y-103310552D01*
X132689317Y-103475302D01*
X132662220Y-103646389D01*
X132323220Y-103646389D01*
X132296122Y-103475299D01*
X132242593Y-103310555D01*
X132163952Y-103156212D01*
X132062134Y-103016072D01*
X131939648Y-102893586D01*
X131799508Y-102791768D01*
X131645165Y-102713127D01*
X131480421Y-102659598D01*
X131480419Y-102659597D01*
X131480418Y-102659597D01*
X131348991Y-102638781D01*
X131309331Y-102632500D01*
X131136109Y-102632500D01*
X131096448Y-102638781D01*
X130965022Y-102659597D01*
X130800272Y-102713128D01*
X130645931Y-102791768D01*
X130599505Y-102825499D01*
X130505792Y-102893586D01*
X130505790Y-102893588D01*
X130505789Y-102893588D01*
X130383308Y-103016069D01*
X130383308Y-103016070D01*
X130383306Y-103016072D01*
X130356334Y-103053196D01*
X130281488Y-103156211D01*
X130202848Y-103310552D01*
X130149317Y-103475302D01*
X130122220Y-103646389D01*
X129783220Y-103646389D01*
X129756122Y-103475299D01*
X129702593Y-103310555D01*
X129623952Y-103156212D01*
X129522134Y-103016072D01*
X129399648Y-102893586D01*
X129259508Y-102791768D01*
X129105165Y-102713127D01*
X128940421Y-102659598D01*
X128940419Y-102659597D01*
X128940418Y-102659597D01*
X128808991Y-102638781D01*
X128769331Y-102632500D01*
X128596109Y-102632500D01*
X128556448Y-102638781D01*
X128425022Y-102659597D01*
X128260272Y-102713128D01*
X128105931Y-102791768D01*
X128059505Y-102825499D01*
X127965792Y-102893586D01*
X127965790Y-102893588D01*
X127965789Y-102893588D01*
X127843308Y-103016069D01*
X127843308Y-103016070D01*
X127843306Y-103016072D01*
X127816334Y-103053196D01*
X127741488Y-103156211D01*
X127662848Y-103310552D01*
X127609317Y-103475302D01*
X127582220Y-103646389D01*
X127243220Y-103646389D01*
X127216122Y-103475299D01*
X127162593Y-103310555D01*
X127083952Y-103156212D01*
X126982134Y-103016072D01*
X126859648Y-102893586D01*
X126719508Y-102791768D01*
X126565165Y-102713127D01*
X126400421Y-102659598D01*
X126400419Y-102659597D01*
X126400418Y-102659597D01*
X126268991Y-102638781D01*
X126229331Y-102632500D01*
X126056109Y-102632500D01*
X126016448Y-102638781D01*
X125885022Y-102659597D01*
X125720272Y-102713128D01*
X125565931Y-102791768D01*
X125519505Y-102825499D01*
X125425792Y-102893586D01*
X125425790Y-102893588D01*
X125425789Y-102893588D01*
X125303308Y-103016069D01*
X125303308Y-103016070D01*
X125303306Y-103016072D01*
X125276334Y-103053196D01*
X125201488Y-103156211D01*
X125122848Y-103310552D01*
X125069317Y-103475302D01*
X125042220Y-103646389D01*
X124703220Y-103646389D01*
X124676122Y-103475299D01*
X124622593Y-103310555D01*
X124543952Y-103156212D01*
X124442134Y-103016072D01*
X124319648Y-102893586D01*
X124179508Y-102791768D01*
X124025165Y-102713127D01*
X123860421Y-102659598D01*
X123860419Y-102659597D01*
X123860418Y-102659597D01*
X123728991Y-102638781D01*
X123689331Y-102632500D01*
X123516109Y-102632500D01*
X123476448Y-102638781D01*
X123345022Y-102659597D01*
X123180272Y-102713128D01*
X123025931Y-102791768D01*
X122979505Y-102825499D01*
X122885792Y-102893586D01*
X122885790Y-102893588D01*
X122885789Y-102893588D01*
X122763308Y-103016069D01*
X122763308Y-103016070D01*
X122763306Y-103016072D01*
X122736334Y-103053196D01*
X122661488Y-103156211D01*
X122582848Y-103310552D01*
X122529317Y-103475302D01*
X122502220Y-103646389D01*
X122162714Y-103646389D01*
X122135634Y-103475415D01*
X122082128Y-103310742D01*
X122003524Y-103156475D01*
X121901752Y-103016397D01*
X121779322Y-102893967D01*
X121639244Y-102792195D01*
X121484977Y-102713591D01*
X121320304Y-102660085D01*
X121149291Y-102633000D01*
X121050951Y-102633000D01*
X120983912Y-102613315D01*
X120938157Y-102560511D01*
X120928213Y-102491353D01*
X120957238Y-102427797D01*
X120963258Y-102421331D01*
X140718662Y-82665926D01*
X140779983Y-82632443D01*
X140849675Y-82637427D01*
X140862635Y-82643124D01*
X140954458Y-82689909D01*
X140960275Y-82692873D01*
X141125019Y-82746402D01*
X141296109Y-82773500D01*
X141296110Y-82773500D01*
X141469330Y-82773500D01*
X141469331Y-82773500D01*
X141640421Y-82746402D01*
X141805165Y-82692873D01*
X141959508Y-82614232D01*
X142099648Y-82512414D01*
X142222134Y-82389928D01*
X142323952Y-82249788D01*
X142402593Y-82095445D01*
X142456122Y-81930701D01*
X142483220Y-81759611D01*
X142483220Y-80786389D01*
X142822220Y-80786389D01*
X142822220Y-81759610D01*
X142848734Y-81927017D01*
X142849318Y-81930701D01*
X142902321Y-82093827D01*
X142902848Y-82095447D01*
X142967910Y-82223140D01*
X142981488Y-82249788D01*
X143083306Y-82389928D01*
X143205792Y-82512414D01*
X143345932Y-82614232D01*
X143500275Y-82692873D01*
X143665019Y-82746402D01*
X143836109Y-82773500D01*
X143836110Y-82773500D01*
X144009330Y-82773500D01*
X144009331Y-82773500D01*
X144180421Y-82746402D01*
X144345165Y-82692873D01*
X144499508Y-82614232D01*
X144639648Y-82512414D01*
X144762134Y-82389928D01*
X144863952Y-82249788D01*
X144942593Y-82095445D01*
X144996122Y-81930701D01*
X145023220Y-81759611D01*
X145023220Y-80786389D01*
X145362220Y-80786389D01*
X145362220Y-81759610D01*
X145388734Y-81927017D01*
X145389318Y-81930701D01*
X145442321Y-82093827D01*
X145442848Y-82095447D01*
X145507910Y-82223140D01*
X145521488Y-82249788D01*
X145623306Y-82389928D01*
X145745792Y-82512414D01*
X145885932Y-82614232D01*
X146040275Y-82692873D01*
X146205019Y-82746402D01*
X146376109Y-82773500D01*
X146376110Y-82773500D01*
X146549330Y-82773500D01*
X146549331Y-82773500D01*
X146720421Y-82746402D01*
X146885165Y-82692873D01*
X147039508Y-82614232D01*
X147179648Y-82512414D01*
X147302134Y-82389928D01*
X147403952Y-82249788D01*
X147482593Y-82095445D01*
X147536122Y-81930701D01*
X147563220Y-81759611D01*
X147563220Y-80786389D01*
X147902220Y-80786389D01*
X147902220Y-81759610D01*
X147928734Y-81927017D01*
X147929318Y-81930701D01*
X147982321Y-82093827D01*
X147982848Y-82095447D01*
X148047910Y-82223140D01*
X148061488Y-82249788D01*
X148163306Y-82389928D01*
X148285792Y-82512414D01*
X148425932Y-82614232D01*
X148580275Y-82692873D01*
X148745019Y-82746402D01*
X148916109Y-82773500D01*
X148916110Y-82773500D01*
X149089330Y-82773500D01*
X149089331Y-82773500D01*
X149260421Y-82746402D01*
X149425165Y-82692873D01*
X149579508Y-82614232D01*
X149719648Y-82512414D01*
X149842134Y-82389928D01*
X149943952Y-82249788D01*
X150022593Y-82095445D01*
X150076122Y-81930701D01*
X150103220Y-81759611D01*
X150103220Y-80786389D01*
X150076122Y-80615299D01*
X150022593Y-80450555D01*
X149943952Y-80296212D01*
X149842134Y-80156072D01*
X149719648Y-80033586D01*
X149579508Y-79931768D01*
X149499611Y-79891059D01*
X149425167Y-79853128D01*
X149425166Y-79853127D01*
X149425165Y-79853127D01*
X149260421Y-79799598D01*
X149260419Y-79799597D01*
X149260418Y-79799597D01*
X149128991Y-79778781D01*
X149089331Y-79772500D01*
X148916109Y-79772500D01*
X148876448Y-79778781D01*
X148745022Y-79799597D01*
X148580272Y-79853128D01*
X148425931Y-79931768D01*
X148369196Y-79972989D01*
X148285792Y-80033586D01*
X148285790Y-80033588D01*
X148285789Y-80033588D01*
X148163308Y-80156069D01*
X148163308Y-80156070D01*
X148163306Y-80156072D01*
X148156445Y-80165516D01*
X148061488Y-80296211D01*
X147982848Y-80450552D01*
X147929317Y-80615302D01*
X147902220Y-80786389D01*
X147563220Y-80786389D01*
X147536122Y-80615299D01*
X147482593Y-80450555D01*
X147403952Y-80296212D01*
X147302134Y-80156072D01*
X147179648Y-80033586D01*
X147039508Y-79931768D01*
X146959611Y-79891059D01*
X146885167Y-79853128D01*
X146885166Y-79853127D01*
X146885165Y-79853127D01*
X146720421Y-79799598D01*
X146720419Y-79799597D01*
X146720418Y-79799597D01*
X146588991Y-79778781D01*
X146549331Y-79772500D01*
X146376109Y-79772500D01*
X146336448Y-79778781D01*
X146205022Y-79799597D01*
X146040272Y-79853128D01*
X145885931Y-79931768D01*
X145829196Y-79972989D01*
X145745792Y-80033586D01*
X145745790Y-80033588D01*
X145745789Y-80033588D01*
X145623308Y-80156069D01*
X145623308Y-80156070D01*
X145623306Y-80156072D01*
X145616445Y-80165516D01*
X145521488Y-80296211D01*
X145442848Y-80450552D01*
X145389317Y-80615302D01*
X145362220Y-80786389D01*
X145023220Y-80786389D01*
X144996122Y-80615299D01*
X144942593Y-80450555D01*
X144863952Y-80296212D01*
X144762134Y-80156072D01*
X144639648Y-80033586D01*
X144499508Y-79931768D01*
X144419611Y-79891059D01*
X144345167Y-79853128D01*
X144345166Y-79853127D01*
X144345165Y-79853127D01*
X144180421Y-79799598D01*
X144180419Y-79799597D01*
X144180418Y-79799597D01*
X144048991Y-79778781D01*
X144009331Y-79772500D01*
X143836109Y-79772500D01*
X143796448Y-79778781D01*
X143665022Y-79799597D01*
X143500272Y-79853128D01*
X143345931Y-79931768D01*
X143289196Y-79972989D01*
X143205792Y-80033586D01*
X143205790Y-80033588D01*
X143205789Y-80033588D01*
X143083308Y-80156069D01*
X143083308Y-80156070D01*
X143083306Y-80156072D01*
X143076445Y-80165516D01*
X142981488Y-80296211D01*
X142902848Y-80450552D01*
X142849317Y-80615302D01*
X142822220Y-80786389D01*
X142483220Y-80786389D01*
X142456122Y-80615299D01*
X142402593Y-80450555D01*
X142323952Y-80296212D01*
X142222134Y-80156072D01*
X142099648Y-80033586D01*
X141959508Y-79931768D01*
X141879611Y-79891059D01*
X141805167Y-79853128D01*
X141805166Y-79853127D01*
X141805165Y-79853127D01*
X141640421Y-79799598D01*
X141640419Y-79799597D01*
X141640418Y-79799597D01*
X141508991Y-79778781D01*
X141469331Y-79772500D01*
X141296109Y-79772500D01*
X141256448Y-79778781D01*
X141125022Y-79799597D01*
X140960272Y-79853128D01*
X140805931Y-79931768D01*
X140749196Y-79972989D01*
X140665792Y-80033586D01*
X140665790Y-80033588D01*
X140665789Y-80033588D01*
X140543308Y-80156069D01*
X140543308Y-80156070D01*
X140543306Y-80156072D01*
X140536445Y-80165516D01*
X140441488Y-80296211D01*
X140362848Y-80450552D01*
X140309317Y-80615302D01*
X140282220Y-80786389D01*
X140282220Y-81281828D01*
X140273575Y-81311268D01*
X140267052Y-81341255D01*
X140263297Y-81346270D01*
X140262535Y-81348867D01*
X140245901Y-81369509D01*
X140154901Y-81460509D01*
X140093578Y-81493994D01*
X140023886Y-81489010D01*
X139967953Y-81447138D01*
X139943536Y-81381674D01*
X139943220Y-81372828D01*
X139943220Y-80786389D01*
X139921810Y-80651211D01*
X139916122Y-80615299D01*
X139862593Y-80450555D01*
X139783952Y-80296212D01*
X139682134Y-80156072D01*
X139559648Y-80033586D01*
X139419508Y-79931768D01*
X139339611Y-79891059D01*
X139265167Y-79853128D01*
X139265166Y-79853127D01*
X139265165Y-79853127D01*
X139100421Y-79799598D01*
X139100419Y-79799597D01*
X139100418Y-79799597D01*
X138968991Y-79778781D01*
X138929331Y-79772500D01*
X138756109Y-79772500D01*
X138716448Y-79778781D01*
X138585022Y-79799597D01*
X138420269Y-79853129D01*
X138313363Y-79907600D01*
X138289074Y-79912161D01*
X138265917Y-79920799D01*
X138255336Y-79918497D01*
X138244694Y-79920496D01*
X138221793Y-79911201D01*
X138197644Y-79905948D01*
X138184370Y-79896011D01*
X138179954Y-79894219D01*
X138169389Y-79884797D01*
X138115913Y-79831322D01*
X138098733Y-79814142D01*
X138098729Y-79814139D01*
X137690198Y-79405608D01*
X137690178Y-79405586D01*
X137598736Y-79314144D01*
X137598728Y-79314138D01*
X137534468Y-79271201D01*
X137534466Y-79271200D01*
X137527715Y-79266689D01*
X137496286Y-79245688D01*
X137415792Y-79212347D01*
X137411128Y-79210415D01*
X137382453Y-79198537D01*
X137372427Y-79196543D01*
X137322029Y-79186518D01*
X137320340Y-79186182D01*
X137261610Y-79174500D01*
X137261607Y-79174500D01*
X137261606Y-79174500D01*
X135303461Y-79174500D01*
X135303441Y-79174499D01*
X135297327Y-79174499D01*
X135174114Y-79174499D01*
X135073317Y-79194548D01*
X135073312Y-79194548D01*
X135053269Y-79198536D01*
X135053267Y-79198536D01*
X135006117Y-79218067D01*
X134939439Y-79245685D01*
X134939437Y-79245686D01*
X134836986Y-79314141D01*
X134323539Y-79827588D01*
X134262216Y-79861073D01*
X134192524Y-79856089D01*
X134188411Y-79854470D01*
X134185172Y-79853128D01*
X134020418Y-79799597D01*
X133888991Y-79778781D01*
X133849331Y-79772500D01*
X133780171Y-79772500D01*
X133713132Y-79752815D01*
X133667377Y-79700011D01*
X133657433Y-79630853D01*
X133686458Y-79567297D01*
X133692490Y-79560819D01*
X135159013Y-78094297D01*
X136741491Y-76511819D01*
X136802814Y-76478334D01*
X136829172Y-76475500D01*
X141791768Y-76475500D01*
X141791768Y-76475499D01*
X141882346Y-76457483D01*
X141912612Y-76451463D01*
X141945952Y-76437652D01*
X142026446Y-76404312D01*
X142077669Y-76370084D01*
X142128893Y-76335858D01*
X142216018Y-76248733D01*
X142216019Y-76248731D01*
X142223085Y-76241665D01*
X142223088Y-76241661D01*
X143168102Y-75296646D01*
X143229423Y-75263163D01*
X143275174Y-75261856D01*
X143413593Y-75283780D01*
X143413595Y-75283780D01*
X143626166Y-75283780D01*
X143626167Y-75283780D01*
X143836123Y-75250526D01*
X144038292Y-75184837D01*
X144227696Y-75088331D01*
X144314351Y-75025373D01*
X144399666Y-74963389D01*
X144399668Y-74963386D01*
X144399672Y-74963384D01*
X144549984Y-74813072D01*
X144549986Y-74813068D01*
X144549989Y-74813066D01*
X144674928Y-74641100D01*
X144674927Y-74641100D01*
X144674931Y-74641096D01*
X144679394Y-74632334D01*
X144727368Y-74581539D01*
X144795188Y-74564743D01*
X144861324Y-74587279D01*
G37*
%TD.AperFunction*%
%TD*%
M02*
