%TF.GenerationSoftware,KiCad,Pcbnew,9.0.9-9.0.9~ubuntu24.04.1*%
%TF.CreationDate,2026-09-14T18:54:37+09:00*%
%TF.ProjectId,tinygo-conf-2026,74696e79-676f-42d6-936f-6e662d323032,rev?*%
%TF.SameCoordinates,Original*%
%TF.FileFunction,Copper,L2,Bot*%
%TF.FilePolarity,Positive*%
%FSLAX46Y46*%
G04 Gerber Fmt 4.6, Leading zero omitted, Abs format (unit mm)*
G04 Created by KiCad (PCBNEW 9.0.9-9.0.9~ubuntu24.04.1) date 2026-09-14 18:54:37*
%MOMM*%
%LPD*%
G01*
G04 APERTURE LIST*
%TA.AperFunction,ComponentPad*%
%ADD10R,1.200000X2.000000*%
%TD*%
%TA.AperFunction,ComponentPad*%
%ADD11O,1.200000X2.000000*%
%TD*%
%TA.AperFunction,SMDPad,CuDef*%
%ADD12R,2.550000X2.500000*%
%TD*%
%TA.AperFunction,ComponentPad*%
%ADD13C,2.200000*%
%TD*%
%TA.AperFunction,ComponentPad*%
%ADD14C,2.000000*%
%TD*%
%TA.AperFunction,ComponentPad*%
%ADD15C,2.500000*%
%TD*%
%TA.AperFunction,ComponentPad*%
%ADD16C,1.600000*%
%TD*%
%TA.AperFunction,ComponentPad*%
%ADD17R,1.700000X1.700000*%
%TD*%
%TA.AperFunction,ComponentPad*%
%ADD18C,1.700000*%
%TD*%
%TA.AperFunction,ComponentPad*%
%ADD19R,1.800000X1.800000*%
%TD*%
%TA.AperFunction,ComponentPad*%
%ADD20C,1.800000*%
%TD*%
%TA.AperFunction,ComponentPad*%
%ADD21R,1.350000X1.350000*%
%TD*%
%TA.AperFunction,ComponentPad*%
%ADD22C,1.350000*%
%TD*%
%TA.AperFunction,ComponentPad*%
%ADD23O,3.000000X1.750000*%
%TD*%
%TA.AperFunction,ComponentPad*%
%ADD24O,4.000000X2.500000*%
%TD*%
%TA.AperFunction,SMDPad,CuDef*%
%ADD25R,1.700000X0.825000*%
%TD*%
%TA.AperFunction,ComponentPad*%
%ADD26R,2.000000X2.000000*%
%TD*%
%TA.AperFunction,ViaPad*%
%ADD27C,0.600000*%
%TD*%
%TA.AperFunction,Conductor*%
%ADD28C,0.250000*%
%TD*%
%TA.AperFunction,Conductor*%
%ADD29C,0.600000*%
%TD*%
G04 APERTURE END LIST*
D10*
%TO.P,U4,1,3V3*%
%TO.N,/3V3*%
X121062720Y-81273000D03*
D11*
%TO.P,U4,2,3V3*%
X123602720Y-81273000D03*
%TO.P,U4,3,EN/RESET*%
%TO.N,unconnected-(U4-EN{slash}RESET-Pad3)*%
X126142720Y-81273000D03*
%TO.P,U4,4,GPIO4*%
%TO.N,/RES*%
X128682720Y-81273000D03*
%TO.P,U4,5,GPIO5*%
%TO.N,/DC*%
X131222720Y-81273000D03*
%TO.P,U4,6,GPIO6*%
%TO.N,/VR_Y*%
X133762720Y-81273000D03*
%TO.P,U4,7,GPIO7*%
%TO.N,/VR_X*%
X136302720Y-81273000D03*
%TO.P,U4,8,GPIO15*%
%TO.N,/VR_BTN*%
X138842720Y-81273000D03*
%TO.P,U4,9,GPIO16*%
%TO.N,/LED*%
X141382720Y-81273000D03*
%TO.P,U4,10,GPIO17*%
%TO.N,/IR_LED*%
X143922720Y-81273000D03*
%TO.P,U4,11,GPIO18*%
%TO.N,/IR_DATA*%
X146462720Y-81273000D03*
%TO.P,U4,12,GPIO8*%
%TO.N,/I2C_SDA*%
X149002720Y-81273000D03*
%TO.P,U4,13,GPIO3*%
%TO.N,/GPIO3*%
X151542720Y-81273000D03*
%TO.P,U4,14,GPIO46*%
%TO.N,unconnected-(U4-GPIO46-Pad14)*%
X154082720Y-81273000D03*
%TO.P,U4,15,GPIO9*%
%TO.N,/I2C_SCL*%
X156622720Y-81273000D03*
%TO.P,U4,16,GPIO10*%
%TO.N,/CS*%
X159162720Y-81273000D03*
%TO.P,U4,17,GPIO11*%
%TO.N,/SDA*%
X161702720Y-81273000D03*
%TO.P,U4,18,GPIO12*%
%TO.N,/SCL*%
X164242720Y-81273000D03*
%TO.P,U4,19,GPIO13*%
%TO.N,/SW1*%
X166782720Y-81273000D03*
%TO.P,U4,20,GPIO14*%
%TO.N,/SW2*%
X169320000Y-81269320D03*
%TO.P,U4,21,5V*%
%TO.N,VCC*%
X171860000Y-81269320D03*
%TO.P,U4,22,GND*%
%TO.N,GND*%
X174400000Y-81269320D03*
%TO.P,U4,23,GND*%
X174402720Y-104133000D03*
%TO.P,U4,24,GND*%
X171862720Y-104133000D03*
%TO.P,U4,25,GPIO19*%
%TO.N,/SCL_AHT21B*%
X169322720Y-104133000D03*
%TO.P,U4,26,GPIO20*%
%TO.N,/SDA_AHT21B*%
X166782720Y-104133000D03*
%TO.P,U4,27,GPIO21*%
%TO.N,unconnected-(U4-GPIO21-Pad27)*%
X164242720Y-104133000D03*
%TO.P,U4,28,GPIO47*%
%TO.N,/DIN*%
X161702720Y-104133000D03*
%TO.P,U4,29,GPIO48*%
%TO.N,/LRC*%
X159162720Y-104133000D03*
%TO.P,U4,30,GPIO45*%
%TO.N,/BCLK*%
X156622720Y-104133000D03*
%TO.P,U4,31,GPIO0*%
%TO.N,unconnected-(U4-GPIO0-Pad31)*%
X154082720Y-104133000D03*
%TO.P,U4,32,GPIO35*%
%TO.N,/GPIO35*%
X151542720Y-104133000D03*
%TO.P,U4,33,GPIO36*%
%TO.N,/GPIO36*%
X149002720Y-104133000D03*
%TO.P,U4,34,GPIO37*%
%TO.N,/GPIO37*%
X146462720Y-104133000D03*
%TO.P,U4,35,GPIO38*%
%TO.N,/GPIO38*%
X143922720Y-104133000D03*
%TO.P,U4,36,GPIO39/MTCK*%
%TO.N,/GPIO39*%
X141382720Y-104133000D03*
%TO.P,U4,37,GPIO40/MTDO*%
%TO.N,/GPIO40*%
X138842720Y-104133000D03*
%TO.P,U4,38,GPIO41/MTDI*%
%TO.N,/GPIO41*%
X136302720Y-104133000D03*
%TO.P,U4,39,GPIO42/MTMS*%
%TO.N,/GPIO42*%
X133762720Y-104133000D03*
%TO.P,U4,40,GPIO2*%
%TO.N,/GPIO2*%
X131222720Y-104133000D03*
%TO.P,U4,41,GPIO1*%
%TO.N,/GPIO1*%
X128682720Y-104133000D03*
%TO.P,U4,42,GPIO44/U0RXD*%
%TO.N,unconnected-(U4-GPIO44{slash}U0RXD-Pad42)*%
X126142720Y-104133000D03*
%TO.P,U4,43,GPIO43/U0TXD*%
%TO.N,unconnected-(U4-GPIO43{slash}U0TXD-Pad43)*%
X123602720Y-104133000D03*
%TO.P,U4,44,GND*%
%TO.N,GND*%
X121062720Y-104133000D03*
%TD*%
D12*
%TO.P,SW1,2,2*%
%TO.N,GND*%
X179362000Y-88920000D03*
%TO.P,SW1,1,1*%
%TO.N,/SW1*%
X166435000Y-91460000D03*
%TD*%
%TO.P,SW2,2,2*%
%TO.N,GND*%
X179362000Y-109460000D03*
%TO.P,SW2,1,1*%
%TO.N,/SW2*%
X166435000Y-112000000D03*
%TD*%
D13*
%TO.P,U2,8,SW-b*%
%TO.N,/VR_BTN*%
X114900000Y-106500000D03*
X114900000Y-100000000D03*
%TO.P,U2,7,SW-a*%
%TO.N,GND*%
X110400000Y-106500000D03*
X110400000Y-100000000D03*
D14*
%TO.P,U2,6,VR2-3*%
X95920000Y-105750000D03*
%TO.P,U2,5,VR2-2*%
%TO.N,/VR_Y*%
X95920000Y-103250000D03*
%TO.P,U2,4,VR2-1*%
%TO.N,/3V3*%
X95920000Y-100750000D03*
%TO.P,U2,3,VR1-3*%
X102150000Y-94520000D03*
%TO.P,U2,2,VR1-2*%
%TO.N,/VR_X*%
X104650000Y-94520000D03*
%TO.P,U2,1,VR1-1*%
%TO.N,GND*%
X107150000Y-94520000D03*
D15*
%TO.P,U2,*%
%TO.N,*%
X109650000Y-109575000D03*
X109650000Y-96925000D03*
X99650000Y-109575000D03*
X99650000Y-96925000D03*
%TD*%
D16*
%TO.P,R1,1*%
%TO.N,/IR_LED*%
X101500000Y-79000000D03*
%TO.P,R1,2*%
%TO.N,Net-(D5-A)*%
X93880000Y-79000000D03*
%TD*%
D17*
%TO.P,J2,1,Pin_1*%
%TO.N,VCC*%
X169420000Y-75500000D03*
D18*
%TO.P,J2,2,Pin_2*%
%TO.N,GND*%
X171960000Y-75500000D03*
%TO.P,J2,3,Pin_3*%
%TO.N,/IR_DATA*%
X174500000Y-75500000D03*
%TD*%
D17*
%TO.P,J4,1,Pin_1*%
%TO.N,/3V3*%
X175900000Y-128800000D03*
D18*
%TO.P,J4,2,Pin_2*%
%TO.N,/SDA_AHT21B*%
X175900000Y-131340000D03*
%TO.P,J4,3,Pin_3*%
%TO.N,GND*%
X175900000Y-133880000D03*
%TO.P,J4,4,Pin_4*%
%TO.N,/SCL_AHT21B*%
X175900000Y-136420000D03*
%TD*%
D17*
%TO.P,J3,1,Pin_1*%
%TO.N,GND*%
X130819880Y-73933280D03*
D18*
%TO.P,J3,2,Pin_2*%
%TO.N,/3V3*%
X133359880Y-73933280D03*
%TO.P,J3,3,Pin_3*%
%TO.N,/SCL*%
X135899880Y-73933280D03*
%TO.P,J3,4,Pin_4*%
%TO.N,/SDA*%
X138439880Y-73933280D03*
%TO.P,J3,5,Pin_5*%
%TO.N,/RES*%
X140979880Y-73933280D03*
%TO.P,J3,6,Pin_6*%
%TO.N,/DC*%
X143519880Y-73933280D03*
%TO.P,J3,7,Pin_7*%
%TO.N,/CS*%
X146059880Y-73933280D03*
%TO.P,J3,8,Pin_8*%
%TO.N,/3V3*%
X148599880Y-73933280D03*
%TD*%
D19*
%TO.P,D5,1,K*%
%TO.N,GND*%
X104000000Y-73500000D03*
D20*
%TO.P,D5,2,A*%
%TO.N,Net-(D5-A)*%
X101460000Y-73500000D03*
%TD*%
D21*
%TO.P,J1,1,Pin_1*%
%TO.N,GND*%
X99000000Y-89800000D03*
D22*
%TO.P,J1,2,Pin_2*%
%TO.N,/3V3*%
X99000000Y-87800000D03*
%TO.P,J1,3,Pin_3*%
%TO.N,/I2C_SDA*%
X99000000Y-85800000D03*
%TO.P,J1,4,Pin_4*%
%TO.N,/I2C_SCL*%
X99000000Y-83800000D03*
%TD*%
D23*
%TO.P,U3,1,Vin*%
%TO.N,VCC*%
X108900000Y-116800000D03*
%TO.P,U3,2,GND*%
%TO.N,GND*%
X108900000Y-119340000D03*
%TO.P,U3,3,~{SD_MODE}*%
%TO.N,unconnected-(U3-~{SD_MODE}-Pad3)*%
X108900000Y-121880000D03*
%TO.P,U3,4,GAIN*%
%TO.N,GND*%
X108900000Y-124420000D03*
%TO.P,U3,5,DIN*%
%TO.N,/DIN*%
X108900000Y-126960000D03*
%TO.P,U3,6,BCLK*%
%TO.N,/BCLK*%
X108900000Y-129500000D03*
%TO.P,U3,7,LRC*%
%TO.N,/LRC*%
X108900000Y-132040000D03*
D24*
%TO.P,U3,8,OUTP*%
%TO.N,Net-(U3-OUTP)*%
X96446000Y-126220000D03*
%TO.P,U3,9,OUTN*%
%TO.N,Net-(U3-OUTN)*%
X96446000Y-122720000D03*
%TD*%
D17*
%TO.P,J5,1,Pin_1*%
%TO.N,/3V3*%
X130560000Y-164640000D03*
D18*
%TO.P,J5,2,Pin_2*%
X133100000Y-164640000D03*
%TO.P,J5,3,Pin_3*%
%TO.N,/GPIO1*%
X135640000Y-164640000D03*
%TO.P,J5,4,Pin_4*%
%TO.N,/GPIO2*%
X138180000Y-164640000D03*
%TO.P,J5,5,Pin_5*%
%TO.N,/GPIO3*%
X140720000Y-164640000D03*
%TO.P,J5,6,Pin_6*%
%TO.N,/GPIO35*%
X143260000Y-164640000D03*
%TO.P,J5,7,Pin_7*%
%TO.N,/GPIO36*%
X145800000Y-164640000D03*
%TO.P,J5,8,Pin_8*%
%TO.N,GND*%
X148340000Y-164640000D03*
%TO.P,J5,9,Pin_9*%
X148340000Y-162100000D03*
%TO.P,J5,10,Pin_10*%
%TO.N,/GPIO37*%
X145800000Y-162100000D03*
%TO.P,J5,11,Pin_11*%
%TO.N,/GPIO38*%
X143260000Y-162100000D03*
%TO.P,J5,12,Pin_12*%
%TO.N,/GPIO39*%
X140720000Y-162100000D03*
%TO.P,J5,13,Pin_13*%
%TO.N,/GPIO40*%
X138180000Y-162100000D03*
%TO.P,J5,14,Pin_14*%
%TO.N,/GPIO41*%
X135640000Y-162100000D03*
%TO.P,J5,15,Pin_15*%
%TO.N,/GPIO42*%
X133100000Y-162100000D03*
%TO.P,J5,16,Pin_16*%
%TO.N,VCC*%
X130560000Y-162100000D03*
%TD*%
D25*
%TO.P,D1,1,VDD*%
%TO.N,/3V3*%
X97200000Y-151600000D03*
%TO.P,D1,2,DOUT*%
%TO.N,Net-(D1-DOUT)*%
X97200000Y-153000000D03*
%TO.P,D1,3,VSS*%
%TO.N,GND*%
X102800000Y-153000000D03*
%TO.P,D1,4,DIN*%
%TO.N,/LED*%
X102800000Y-151600000D03*
%TD*%
%TO.P,D2,1,VDD*%
%TO.N,/3V3*%
X176687500Y-151600000D03*
%TO.P,D2,2,DOUT*%
%TO.N,unconnected-(D2-DOUT-Pad2)*%
X176687500Y-153000000D03*
%TO.P,D2,3,VSS*%
%TO.N,GND*%
X182287500Y-153000000D03*
%TO.P,D2,4,DIN*%
%TO.N,Net-(D1-DOUT)*%
X182287500Y-151600000D03*
%TD*%
D26*
%TO.P,LS1,1,1*%
%TO.N,Net-(U3-OUTP)*%
X107629216Y-81000000D03*
D14*
%TO.P,LS1,2,2*%
%TO.N,Net-(U3-OUTN)*%
X112629216Y-81000000D03*
%TD*%
D27*
%TO.N,GND*%
X103200000Y-154600000D03*
X182200000Y-155800000D03*
%TO.N,Net-(D1-DOUT)*%
X126200000Y-159500000D03*
X167800000Y-159900000D03*
%TO.N,/3V3*%
X128100000Y-163900000D03*
X163800000Y-76500000D03*
X166300000Y-78800000D03*
%TO.N,GND*%
X179400000Y-86500000D03*
X180200000Y-106600000D03*
%TO.N,/3V3*%
X149600000Y-159600000D03*
%TO.N,/I2C_SCL*%
X102000000Y-85400000D03*
%TO.N,/SW2*%
X165500000Y-102100000D03*
X166200000Y-109600000D03*
%TO.N,/DIN*%
X161200000Y-108400000D03*
%TO.N,/IR_DATA*%
X162000000Y-79000000D03*
%TO.N,/LRC*%
X159200000Y-109600000D03*
%TO.N,/BCLK*%
X156600000Y-109600000D03*
%TO.N,/GPIO38*%
X143400000Y-111800000D03*
%TO.N,/GPIO39*%
X141000000Y-111800000D03*
%TO.N,/GPIO36*%
X147700000Y-111800000D03*
%TO.N,/GPIO41*%
X135100000Y-111800000D03*
%TO.N,/SDA_AHT21B*%
X166400000Y-108000000D03*
%TO.N,/GPIO2*%
X136900000Y-111800000D03*
%TO.N,/GPIO3*%
X151400000Y-88000000D03*
X142200000Y-111800000D03*
%TO.N,/GPIO35*%
X144700000Y-111800000D03*
%TO.N,/SCL_AHT21B*%
X178500000Y-127500000D03*
X167800000Y-108000000D03*
%TO.N,/GPIO37*%
X145900000Y-111800000D03*
%TO.N,/GPIO40*%
X138800000Y-111800000D03*
%TO.N,/GPIO42*%
X133100000Y-111800000D03*
%TO.N,/GPIO1*%
X128700000Y-111800000D03*
%TD*%
D28*
%TO.N,/VR_Y*%
X133762720Y-81273000D02*
X135235720Y-79800000D01*
X126600000Y-93200000D02*
X119684745Y-93200000D01*
X135235720Y-79800000D02*
X137200000Y-79800000D01*
X96970000Y-102200000D02*
X95920000Y-103250000D01*
X137200000Y-79800000D02*
X137700000Y-80300000D01*
X137700000Y-80300000D02*
X137700000Y-82100000D01*
X137700000Y-82100000D02*
X126600000Y-93200000D01*
X110684744Y-102200000D02*
X96970000Y-102200000D01*
X119684745Y-93200000D02*
X110684744Y-102200000D01*
%TO.N,/LED*%
X141382720Y-81273000D02*
X141227000Y-81273000D01*
X141227000Y-81273000D02*
X117800000Y-104700000D01*
D29*
%TO.N,/3V3*%
X148599880Y-73933280D02*
X146466600Y-71800000D01*
X146466600Y-71800000D02*
X135620160Y-71800000D01*
X135620160Y-71800000D02*
X129118800Y-78301360D01*
X129118800Y-78301360D02*
X126574360Y-78301360D01*
X126574360Y-78301360D02*
X123602720Y-81273000D01*
D28*
%TO.N,/RES*%
X128682720Y-81273000D02*
X128682720Y-81017280D01*
X128682720Y-81017280D02*
X134300000Y-75400000D01*
X134300000Y-75400000D02*
X140200000Y-75400000D01*
X140200000Y-75400000D02*
X140979880Y-74620120D01*
X140979880Y-74620120D02*
X140979880Y-73806280D01*
%TO.N,/DC*%
X131222720Y-81273000D02*
X131222720Y-81146000D01*
X131222720Y-81146000D02*
X136518720Y-75850000D01*
%TO.N,/VR_X*%
X104650000Y-94520000D02*
X106670000Y-92500000D01*
X106670000Y-92500000D02*
X125075720Y-92500000D01*
X125075720Y-92500000D02*
X136302720Y-81273000D01*
%TO.N,/VR_BTN*%
X114900000Y-100000000D02*
X121000000Y-100000000D01*
X121000000Y-100000000D02*
X138842720Y-82157280D01*
X138842720Y-82157280D02*
X138842720Y-81273000D01*
%TO.N,/GPIO3*%
X151542720Y-81273000D02*
X151542720Y-87857280D01*
X151542720Y-87857280D02*
X151400000Y-88000000D01*
%TO.N,/CS*%
X159162720Y-80000000D02*
X159162720Y-81273000D01*
%TO.N,/SW1*%
X166782720Y-81273000D02*
X166782720Y-91112280D01*
X166782720Y-91112280D02*
X166435000Y-91460000D01*
%TO.N,/SW2*%
X165600000Y-102200000D02*
X164835000Y-101435000D01*
X164835000Y-101435000D02*
X164835000Y-89885000D01*
X164835000Y-89885000D02*
X165857720Y-88862280D01*
X165857720Y-88862280D02*
X165857720Y-80362852D01*
X165857720Y-80362852D02*
X166399572Y-79821000D01*
X166399572Y-79821000D02*
X167871680Y-79821000D01*
X167871680Y-79821000D02*
X169320000Y-81269320D01*
D29*
%TO.N,VCC*%
X171860000Y-81269320D02*
X171860000Y-83960000D01*
X171860000Y-83960000D02*
X173100000Y-85200000D01*
X180300000Y-85200000D02*
X181137000Y-86037000D01*
X181137000Y-103663000D02*
X178000000Y-106800000D01*
X173100000Y-85200000D02*
X180300000Y-85200000D01*
X119400000Y-106800000D02*
X109400000Y-116800000D01*
X181137000Y-86037000D02*
X181137000Y-103663000D01*
X178000000Y-106800000D02*
X119400000Y-106800000D01*
%TO.N,/3V3*%
X184400000Y-127300000D02*
X184400000Y-131900000D01*
X184400000Y-131900000D02*
X175200000Y-141100000D01*
X175200000Y-141100000D02*
X175200000Y-150112500D01*
D28*
%TO.N,GND*%
X102800000Y-154200000D02*
X103200000Y-154600000D01*
X102800000Y-153000000D02*
X102800000Y-154200000D01*
X182287500Y-153000000D02*
X182287500Y-155712500D01*
X182287500Y-155712500D02*
X182200000Y-155800000D01*
D29*
%TO.N,VCC*%
X106250000Y-117550000D02*
X106250000Y-154050000D01*
D28*
%TO.N,/LED*%
X106100000Y-115200000D02*
X104100000Y-117200000D01*
X109600000Y-115200000D02*
X106100000Y-115200000D01*
X117800000Y-104700000D02*
X117800000Y-107000000D01*
X104100000Y-117200000D02*
X104100000Y-148300000D01*
X117800000Y-107000000D02*
X109600000Y-115200000D01*
X141382720Y-81146000D02*
X141354000Y-81146000D01*
X104100000Y-148300000D02*
X102800000Y-149600000D01*
X102800000Y-149600000D02*
X102800000Y-151600000D01*
%TO.N,Net-(D1-DOUT)*%
X97200000Y-153000000D02*
X97200000Y-153733883D01*
X97200000Y-153733883D02*
X102966117Y-159500000D01*
X102966117Y-159500000D02*
X126200000Y-159500000D01*
X180900000Y-159900000D02*
X184300000Y-156500000D01*
X167800000Y-159900000D02*
X180900000Y-159900000D01*
X184300000Y-156500000D02*
X184300000Y-151900000D01*
X184300000Y-151900000D02*
X184000000Y-151600000D01*
X184000000Y-151600000D02*
X182287500Y-151600000D01*
D29*
%TO.N,/3V3*%
X95300000Y-151600000D02*
X94800000Y-152100000D01*
X97200000Y-151600000D02*
X95300000Y-151600000D01*
X94800000Y-152100000D02*
X94800000Y-153700000D01*
X124500000Y-160300000D02*
X128100000Y-163900000D01*
X94800000Y-153700000D02*
X101400000Y-160300000D01*
X101400000Y-160300000D02*
X124500000Y-160300000D01*
X149600000Y-159600000D02*
X165712500Y-159600000D01*
X165712500Y-159600000D02*
X175200000Y-150112500D01*
X175200000Y-150112500D02*
X176687500Y-151600000D01*
X162500000Y-77800000D02*
X163800000Y-76500000D01*
X166300000Y-78800000D02*
X176500000Y-78800000D01*
X152466600Y-77800000D02*
X162500000Y-77800000D01*
X148599880Y-73933280D02*
X152466600Y-77800000D01*
X176500000Y-78800000D02*
X184400000Y-86700000D01*
X184400000Y-86700000D02*
X184400000Y-127300000D01*
D28*
%TO.N,/SCL_AHT21B*%
X178500000Y-127500000D02*
X177850000Y-126850000D01*
X177850000Y-126850000D02*
X172850000Y-126850000D01*
%TO.N,/CS*%
X146059880Y-73806280D02*
X150953600Y-78700000D01*
X150953600Y-78700000D02*
X157862720Y-78700000D01*
X157862720Y-78700000D02*
X159162720Y-80000000D01*
D29*
%TO.N,VCC*%
X130560000Y-162100000D02*
X126860000Y-158400000D01*
X126860000Y-158400000D02*
X110600000Y-158400000D01*
X107000000Y-116800000D02*
X109400000Y-116800000D01*
X110600000Y-158400000D02*
X106250000Y-154050000D01*
X106250000Y-117550000D02*
X107000000Y-116800000D01*
%TO.N,GND*%
X179400000Y-88882000D02*
X179362000Y-88920000D01*
X179400000Y-86500000D02*
X179400000Y-88882000D01*
X180200000Y-108622000D02*
X179362000Y-109460000D01*
X180200000Y-106600000D02*
X180200000Y-108622000D01*
%TO.N,/3V3*%
X108870000Y-87800000D02*
X115397000Y-81273000D01*
X121062720Y-81273000D02*
X123475720Y-81273000D01*
X175900000Y-128800000D02*
X182900000Y-128800000D01*
X99000000Y-87800000D02*
X108870000Y-87800000D01*
X102150000Y-94520000D02*
X108870000Y-87800000D01*
X95920000Y-96280000D02*
X97680000Y-94520000D01*
X95920000Y-100750000D02*
X95920000Y-96280000D01*
X115397000Y-81273000D02*
X121062720Y-81273000D01*
X182900000Y-128800000D02*
X184400000Y-127300000D01*
X97680000Y-94520000D02*
X102150000Y-94520000D01*
X123475720Y-81273000D02*
X123602720Y-81400000D01*
D28*
%TO.N,/I2C_SCL*%
X99000000Y-83800000D02*
X100600000Y-85400000D01*
X100600000Y-85400000D02*
X102000000Y-85400000D01*
%TO.N,/DC*%
X136518720Y-75850000D02*
X141730160Y-75850000D01*
X141730160Y-75850000D02*
X143519880Y-74060280D01*
%TO.N,Net-(U3-OUTN)*%
X93200000Y-84000000D02*
X99600000Y-77600000D01*
X99600000Y-77600000D02*
X109229216Y-77600000D01*
X95320000Y-122720000D02*
X93200000Y-120600000D01*
X93200000Y-120600000D02*
X93200000Y-84000000D01*
X109229216Y-77600000D02*
X112629216Y-81000000D01*
X96446000Y-122720000D02*
X95320000Y-122720000D01*
%TO.N,Net-(U3-OUTP)*%
X94595000Y-86005000D02*
X94595000Y-112595000D01*
X107629216Y-81000000D02*
X99600000Y-81000000D01*
X94595000Y-112595000D02*
X98771000Y-116771000D01*
X98771000Y-116771000D02*
X98771000Y-123895000D01*
X99600000Y-81000000D02*
X94595000Y-86005000D01*
X98771000Y-123895000D02*
X96446000Y-126220000D01*
%TO.N,/SW2*%
X166200000Y-109600000D02*
X166200000Y-111765000D01*
X166200000Y-111765000D02*
X166435000Y-112000000D01*
%TO.N,/DIN*%
X112800000Y-123560000D02*
X109400000Y-126960000D01*
X120000000Y-108400000D02*
X112800000Y-115600000D01*
X161200000Y-108400000D02*
X120000000Y-108400000D01*
X112800000Y-115600000D02*
X112800000Y-123560000D01*
%TO.N,/IR_DATA*%
X172900000Y-73900000D02*
X174500000Y-75500000D01*
X162000000Y-79000000D02*
X163000000Y-79000000D01*
X168100000Y-73900000D02*
X172900000Y-73900000D01*
X163000000Y-79000000D02*
X168100000Y-73900000D01*
%TO.N,/LRC*%
X159200000Y-109600000D02*
X158400000Y-110400000D01*
X158400000Y-110400000D02*
X120800000Y-110400000D01*
X114600000Y-116600000D02*
X114600000Y-126840000D01*
X114600000Y-126840000D02*
X109400000Y-132040000D01*
X120800000Y-110400000D02*
X114600000Y-116600000D01*
%TO.N,/BCLK*%
X113700000Y-125200000D02*
X109400000Y-129500000D01*
X120400000Y-109600000D02*
X113700000Y-116300000D01*
X113700000Y-116300000D02*
X113700000Y-125200000D01*
X156600000Y-109600000D02*
X120400000Y-109600000D01*
%TO.N,/GPIO38*%
X143260000Y-162100000D02*
X143260000Y-112040000D01*
X143260000Y-112040000D02*
X143400000Y-111900000D01*
%TO.N,/GPIO39*%
X140720000Y-112080000D02*
X141000000Y-111800000D01*
X140720000Y-162100000D02*
X140720000Y-112080000D01*
%TO.N,/GPIO36*%
X146975000Y-112525000D02*
X147700000Y-111800000D01*
X145800000Y-164640000D02*
X146975000Y-163465000D01*
X146975000Y-163465000D02*
X146975000Y-112525000D01*
%TO.N,/GPIO41*%
X135640000Y-112340000D02*
X135640000Y-162100000D01*
X135100000Y-111800000D02*
X135640000Y-112340000D01*
%TO.N,/SDA_AHT21B*%
X163900000Y-109200000D02*
X165100000Y-108000000D01*
X163900000Y-119340000D02*
X163900000Y-109200000D01*
X165100000Y-108000000D02*
X166400000Y-108000000D01*
X175900000Y-131340000D02*
X163900000Y-119340000D01*
%TO.N,/GPIO2*%
X136900000Y-111900000D02*
X136900000Y-163360000D01*
X136900000Y-163360000D02*
X138180000Y-164640000D01*
%TO.N,/GPIO3*%
X141895000Y-112105000D02*
X142200000Y-111800000D01*
X140720000Y-164640000D02*
X141895000Y-163465000D01*
X141895000Y-163465000D02*
X141895000Y-112105000D01*
%TO.N,/GPIO35*%
X144625000Y-163275000D02*
X144625000Y-111975000D01*
X143260000Y-164640000D02*
X144625000Y-163275000D01*
X144625000Y-111975000D02*
X144700000Y-111900000D01*
%TO.N,/SCL_AHT21B*%
X164835000Y-110081116D02*
X164835000Y-118835000D01*
X167175000Y-108625000D02*
X166291116Y-108625000D01*
X167800000Y-108000000D02*
X167175000Y-108625000D01*
X166291116Y-108625000D02*
X164835000Y-110081116D01*
X164835000Y-118835000D02*
X172850000Y-126850000D01*
%TO.N,/GPIO37*%
X145800000Y-112000000D02*
X145900000Y-111900000D01*
X145800000Y-162100000D02*
X145800000Y-112000000D01*
%TO.N,/GPIO40*%
X138180000Y-112420000D02*
X138800000Y-111800000D01*
X138180000Y-162100000D02*
X138180000Y-112420000D01*
%TO.N,/GPIO42*%
X133100000Y-162100000D02*
X133100000Y-111800000D01*
%TO.N,/GPIO1*%
X128700000Y-155500000D02*
X131735000Y-158535000D01*
X131735000Y-158535000D02*
X131735000Y-162735000D01*
X134400000Y-163400000D02*
X135640000Y-164640000D01*
X131735000Y-162735000D02*
X132400000Y-163400000D01*
X128700000Y-111800000D02*
X128700000Y-155500000D01*
X132400000Y-163400000D02*
X134400000Y-163400000D01*
%TD*%
%TA.AperFunction,Conductor*%
%TO.N,GND*%
G36*
X175216974Y-151301872D02*
G01*
X175243334Y-151303758D01*
X175252387Y-151309576D01*
X175259427Y-151311108D01*
X175287681Y-151332259D01*
X175300681Y-151345259D01*
X175334166Y-151406582D01*
X175337000Y-151432940D01*
X175337000Y-152060370D01*
X175337001Y-152060376D01*
X175343408Y-152119983D01*
X175394388Y-152256667D01*
X175399372Y-152326359D01*
X175394388Y-152343333D01*
X175343408Y-152480017D01*
X175337001Y-152539616D01*
X175337001Y-152539625D01*
X175337000Y-152539635D01*
X175337000Y-153460370D01*
X175337001Y-153460376D01*
X175343408Y-153519983D01*
X175393702Y-153654828D01*
X175393706Y-153654835D01*
X175479952Y-153770044D01*
X175479955Y-153770047D01*
X175595164Y-153856293D01*
X175595171Y-153856297D01*
X175730017Y-153906591D01*
X175730016Y-153906591D01*
X175736944Y-153907335D01*
X175789627Y-153913000D01*
X177091076Y-153912999D01*
X177158115Y-153932684D01*
X177203870Y-153985487D01*
X177210849Y-154004902D01*
X177221108Y-154043186D01*
X177287000Y-154157314D01*
X177380186Y-154250500D01*
X177494314Y-154316392D01*
X177621608Y-154350500D01*
X177621610Y-154350500D01*
X181353390Y-154350500D01*
X181353392Y-154350500D01*
X181480686Y-154316392D01*
X181594814Y-154250500D01*
X181688000Y-154157314D01*
X181753892Y-154043186D01*
X181764282Y-154004406D01*
X181800646Y-153944747D01*
X181863493Y-153914217D01*
X181884057Y-153912500D01*
X183185328Y-153912500D01*
X183185344Y-153912499D01*
X183244872Y-153906098D01*
X183244879Y-153906096D01*
X183379586Y-153855854D01*
X183379589Y-153855852D01*
X183476188Y-153783538D01*
X183541652Y-153759120D01*
X183609925Y-153773971D01*
X183659331Y-153823376D01*
X183674500Y-153882804D01*
X183674500Y-156189548D01*
X183654815Y-156256587D01*
X183638181Y-156277229D01*
X180677229Y-159238181D01*
X180615906Y-159271666D01*
X180589548Y-159274500D01*
X168342350Y-159274500D01*
X168275311Y-159254815D01*
X168273459Y-159253602D01*
X168179184Y-159190609D01*
X168179172Y-159190602D01*
X168033501Y-159130264D01*
X168033489Y-159130261D01*
X167878845Y-159099500D01*
X167878842Y-159099500D01*
X167721158Y-159099500D01*
X167721153Y-159099500D01*
X167652615Y-159113133D01*
X167583023Y-159106906D01*
X167527846Y-159064042D01*
X167504602Y-158998152D01*
X167520670Y-158930156D01*
X167540743Y-158903835D01*
X175112319Y-151332259D01*
X175120264Y-151327920D01*
X175125690Y-151320673D01*
X175150449Y-151311438D01*
X175173642Y-151298774D01*
X175182671Y-151299419D01*
X175191154Y-151296256D01*
X175216974Y-151301872D01*
G37*
%TD.AperFunction*%
%TA.AperFunction,Conductor*%
G36*
X106640776Y-115826475D02*
G01*
X106644147Y-115825681D01*
X106674060Y-115836248D01*
X106704493Y-115845185D01*
X106706759Y-115847801D01*
X106710026Y-115848955D01*
X106729479Y-115874020D01*
X106750248Y-115897989D01*
X106750740Y-115901416D01*
X106752864Y-115904152D01*
X106755676Y-115935743D01*
X106760192Y-115967147D01*
X106758753Y-115970297D01*
X106759060Y-115973746D01*
X106744348Y-116001840D01*
X106731167Y-116030703D01*
X106728061Y-116032942D01*
X106726647Y-116035643D01*
X106698765Y-116057282D01*
X106692047Y-116061103D01*
X106620821Y-116090606D01*
X106513646Y-116162218D01*
X106509951Y-116164686D01*
X106509942Y-116164692D01*
X106489708Y-116178212D01*
X106489707Y-116178213D01*
X105866784Y-116801138D01*
X105739711Y-116928211D01*
X105683960Y-116983962D01*
X105628209Y-117039712D01*
X105540609Y-117170814D01*
X105540602Y-117170827D01*
X105480264Y-117316498D01*
X105480261Y-117316510D01*
X105449500Y-117471153D01*
X105449500Y-154128846D01*
X105480261Y-154283489D01*
X105480264Y-154283501D01*
X105540602Y-154429172D01*
X105540609Y-154429185D01*
X105628210Y-154560288D01*
X105628213Y-154560292D01*
X109730741Y-158662819D01*
X109764226Y-158724142D01*
X109759242Y-158793834D01*
X109717370Y-158849767D01*
X109651906Y-158874184D01*
X109643060Y-158874500D01*
X103276569Y-158874500D01*
X103209530Y-158854815D01*
X103188888Y-158838181D01*
X98912888Y-154562181D01*
X98879403Y-154500858D01*
X98884387Y-154431166D01*
X98926259Y-154375233D01*
X98991723Y-154350816D01*
X99000569Y-154350500D01*
X101865890Y-154350500D01*
X101865892Y-154350500D01*
X101993186Y-154316392D01*
X102107314Y-154250500D01*
X102200500Y-154157314D01*
X102266392Y-154043186D01*
X102276782Y-154004406D01*
X102313146Y-153944747D01*
X102375993Y-153914217D01*
X102396557Y-153912500D01*
X103697828Y-153912500D01*
X103697844Y-153912499D01*
X103757372Y-153906098D01*
X103757379Y-153906096D01*
X103892086Y-153855854D01*
X103892093Y-153855850D01*
X104007187Y-153769690D01*
X104007190Y-153769687D01*
X104093350Y-153654593D01*
X104093354Y-153654586D01*
X104143596Y-153519879D01*
X104143598Y-153519872D01*
X104149999Y-153460344D01*
X104150000Y-153460327D01*
X104150000Y-152539672D01*
X104149999Y-152539655D01*
X104143598Y-152480127D01*
X104143596Y-152480120D01*
X104092844Y-152344046D01*
X104087860Y-152274355D01*
X104092844Y-152257379D01*
X104093792Y-152254835D01*
X104093796Y-152254831D01*
X104144091Y-152119983D01*
X104150500Y-152060373D01*
X104150499Y-151139628D01*
X104144091Y-151080017D01*
X104131287Y-151045689D01*
X104093797Y-150945171D01*
X104093793Y-150945164D01*
X104007547Y-150829955D01*
X104007544Y-150829952D01*
X103892335Y-150743706D01*
X103892328Y-150743702D01*
X103757482Y-150693408D01*
X103757483Y-150693408D01*
X103697883Y-150687001D01*
X103697881Y-150687000D01*
X103697873Y-150687000D01*
X103697865Y-150687000D01*
X103549500Y-150687000D01*
X103482461Y-150667315D01*
X103436706Y-150614511D01*
X103425500Y-150563000D01*
X103425500Y-149910452D01*
X103445185Y-149843413D01*
X103461819Y-149822771D01*
X104585855Y-148698736D01*
X104585855Y-148698735D01*
X104585858Y-148698733D01*
X104654312Y-148596285D01*
X104701463Y-148482451D01*
X104725501Y-148361606D01*
X104725501Y-148238393D01*
X104725501Y-148233283D01*
X104725500Y-148233257D01*
X104725500Y-117510452D01*
X104745185Y-117443413D01*
X104761819Y-117422771D01*
X106322771Y-115861819D01*
X106384094Y-115828334D01*
X106410452Y-115825500D01*
X106637454Y-115825500D01*
X106640776Y-115826475D01*
G37*
%TD.AperFunction*%
%TA.AperFunction,Conductor*%
G36*
X181964588Y-85397363D02*
G01*
X181972752Y-85404830D01*
X183563181Y-86995259D01*
X183596666Y-87056582D01*
X183599500Y-87082940D01*
X183599500Y-126917060D01*
X183579815Y-126984099D01*
X183563181Y-127004741D01*
X182604741Y-127963181D01*
X182543418Y-127996666D01*
X182517060Y-127999500D01*
X179345134Y-127999500D01*
X179278095Y-127979815D01*
X179232340Y-127927011D01*
X179222396Y-127857853D01*
X179230573Y-127828047D01*
X179269737Y-127733497D01*
X179300500Y-127578842D01*
X179300500Y-127421158D01*
X179300500Y-127421155D01*
X179300499Y-127421153D01*
X179269738Y-127266510D01*
X179269737Y-127266503D01*
X179258236Y-127238736D01*
X179209397Y-127120827D01*
X179209390Y-127120814D01*
X179121789Y-126989711D01*
X179121786Y-126989707D01*
X179010292Y-126878213D01*
X179010288Y-126878210D01*
X178879185Y-126790609D01*
X178879172Y-126790602D01*
X178733501Y-126730264D01*
X178733489Y-126730261D01*
X178622285Y-126708141D01*
X178560374Y-126675756D01*
X178558795Y-126674205D01*
X178343150Y-126458560D01*
X178335860Y-126451270D01*
X178335858Y-126451267D01*
X178248733Y-126364142D01*
X178197509Y-126329915D01*
X178146286Y-126295688D01*
X178146283Y-126295686D01*
X178146280Y-126295685D01*
X178072603Y-126265168D01*
X178072601Y-126265167D01*
X178065792Y-126262347D01*
X178032452Y-126248537D01*
X177972029Y-126236518D01*
X177967306Y-126235578D01*
X177967304Y-126235578D01*
X177911610Y-126224500D01*
X177911607Y-126224500D01*
X177911606Y-126224500D01*
X173160453Y-126224500D01*
X173093414Y-126204815D01*
X173072772Y-126188181D01*
X165496819Y-118612228D01*
X165463334Y-118550905D01*
X165460500Y-118524547D01*
X165460500Y-113874499D01*
X165480185Y-113807460D01*
X165532989Y-113761705D01*
X165584500Y-113750499D01*
X167292568Y-113750499D01*
X167359607Y-113770184D01*
X167405362Y-113822988D01*
X167415306Y-113892146D01*
X167403053Y-113930794D01*
X167327454Y-114079163D01*
X167269059Y-114258881D01*
X167239500Y-114445513D01*
X167239500Y-114634486D01*
X167269059Y-114821118D01*
X167327454Y-115000836D01*
X167385186Y-115114140D01*
X167413240Y-115169199D01*
X167524310Y-115322073D01*
X167657927Y-115455690D01*
X167810801Y-115566760D01*
X167890347Y-115607290D01*
X167979163Y-115652545D01*
X167979165Y-115652545D01*
X167979168Y-115652547D01*
X168075497Y-115683846D01*
X168158881Y-115710940D01*
X168345514Y-115740500D01*
X168345519Y-115740500D01*
X168534486Y-115740500D01*
X168721118Y-115710940D01*
X168900832Y-115652547D01*
X169069199Y-115566760D01*
X169222073Y-115455690D01*
X169355690Y-115322073D01*
X169466760Y-115169199D01*
X169552547Y-115000832D01*
X169610940Y-114821118D01*
X169627883Y-114714144D01*
X169640500Y-114634486D01*
X169640500Y-114445513D01*
X169634013Y-114404556D01*
X169631584Y-114389223D01*
X171219500Y-114389223D01*
X171219500Y-114690776D01*
X171219501Y-114690793D01*
X171258861Y-114989766D01*
X171336913Y-115281060D01*
X171452314Y-115559661D01*
X171452318Y-115559671D01*
X171603099Y-115820831D01*
X171786679Y-116060078D01*
X171786685Y-116060085D01*
X171999914Y-116273314D01*
X171999921Y-116273320D01*
X172239168Y-116456900D01*
X172500328Y-116607681D01*
X172500329Y-116607681D01*
X172500332Y-116607683D01*
X172686072Y-116684619D01*
X172778939Y-116723086D01*
X172778940Y-116723086D01*
X172778942Y-116723087D01*
X173070232Y-116801138D01*
X173369217Y-116840500D01*
X173369224Y-116840500D01*
X173670776Y-116840500D01*
X173670783Y-116840500D01*
X173969768Y-116801138D01*
X174261058Y-116723087D01*
X174539668Y-116607683D01*
X174800832Y-116456900D01*
X175040080Y-116273319D01*
X175253319Y-116060080D01*
X175436900Y-115820832D01*
X175587683Y-115559668D01*
X175703087Y-115281058D01*
X175781138Y-114989768D01*
X175820500Y-114690783D01*
X175820500Y-114445513D01*
X177399500Y-114445513D01*
X177399500Y-114634486D01*
X177429059Y-114821118D01*
X177487454Y-115000836D01*
X177545186Y-115114140D01*
X177573240Y-115169199D01*
X177684310Y-115322073D01*
X177817927Y-115455690D01*
X177970801Y-115566760D01*
X178050347Y-115607290D01*
X178139163Y-115652545D01*
X178139165Y-115652545D01*
X178139168Y-115652547D01*
X178235497Y-115683846D01*
X178318881Y-115710940D01*
X178505514Y-115740500D01*
X178505519Y-115740500D01*
X178694486Y-115740500D01*
X178881118Y-115710940D01*
X179060832Y-115652547D01*
X179229199Y-115566760D01*
X179382073Y-115455690D01*
X179515690Y-115322073D01*
X179626760Y-115169199D01*
X179712547Y-115000832D01*
X179770940Y-114821118D01*
X179787883Y-114714144D01*
X179800500Y-114634486D01*
X179800500Y-114445513D01*
X179770940Y-114258881D01*
X179712545Y-114079163D01*
X179626759Y-113910800D01*
X179613206Y-113892146D01*
X179515690Y-113757927D01*
X179382073Y-113624310D01*
X179229199Y-113513240D01*
X179060836Y-113427454D01*
X178881118Y-113369059D01*
X178694486Y-113339500D01*
X178694481Y-113339500D01*
X178505519Y-113339500D01*
X178505514Y-113339500D01*
X178318881Y-113369059D01*
X178139163Y-113427454D01*
X177970800Y-113513240D01*
X177961031Y-113520338D01*
X177817927Y-113624310D01*
X177817925Y-113624312D01*
X177817924Y-113624312D01*
X177684312Y-113757924D01*
X177684312Y-113757925D01*
X177684310Y-113757927D01*
X177675405Y-113770184D01*
X177573240Y-113910800D01*
X177487454Y-114079163D01*
X177429059Y-114258881D01*
X177399500Y-114445513D01*
X175820500Y-114445513D01*
X175820500Y-114389217D01*
X175781138Y-114090232D01*
X175703087Y-113798942D01*
X175702336Y-113797130D01*
X175646015Y-113661158D01*
X175587683Y-113520332D01*
X175583588Y-113513240D01*
X175436900Y-113259168D01*
X175253320Y-113019921D01*
X175253314Y-113019914D01*
X175040085Y-112806685D01*
X175040078Y-112806679D01*
X174800831Y-112623099D01*
X174539671Y-112472318D01*
X174539661Y-112472314D01*
X174261060Y-112356913D01*
X173969766Y-112278861D01*
X173670793Y-112239501D01*
X173670788Y-112239500D01*
X173670783Y-112239500D01*
X173369217Y-112239500D01*
X173369211Y-112239500D01*
X173369206Y-112239501D01*
X173070233Y-112278861D01*
X172778939Y-112356913D01*
X172500338Y-112472314D01*
X172500328Y-112472318D01*
X172239168Y-112623099D01*
X171999921Y-112806679D01*
X171999914Y-112806685D01*
X171786685Y-113019914D01*
X171786679Y-113019921D01*
X171603099Y-113259168D01*
X171452318Y-113520328D01*
X171452314Y-113520338D01*
X171336913Y-113798939D01*
X171258861Y-114090233D01*
X171219501Y-114389206D01*
X171219500Y-114389223D01*
X169631584Y-114389223D01*
X169610940Y-114258881D01*
X169552545Y-114079163D01*
X169525424Y-114025937D01*
X169476815Y-113930535D01*
X169463920Y-113861870D01*
X169490196Y-113797130D01*
X169547302Y-113756872D01*
X169591207Y-113751065D01*
X169591207Y-113750500D01*
X169824727Y-113750500D01*
X169824734Y-113750500D01*
X170052238Y-113720548D01*
X170273887Y-113661158D01*
X170485888Y-113573344D01*
X170684612Y-113458611D01*
X170866661Y-113318919D01*
X170866665Y-113318914D01*
X170866670Y-113318911D01*
X171028911Y-113156670D01*
X171028914Y-113156665D01*
X171028919Y-113156661D01*
X171168611Y-112974612D01*
X171283344Y-112775888D01*
X171371158Y-112563887D01*
X171430548Y-112342238D01*
X171460500Y-112114734D01*
X171460500Y-111885266D01*
X171430548Y-111657762D01*
X171371158Y-111436113D01*
X171310516Y-111289711D01*
X171283349Y-111224123D01*
X171283346Y-111224117D01*
X171283344Y-111224112D01*
X171168611Y-111025388D01*
X171168608Y-111025385D01*
X171168607Y-111025382D01*
X171028918Y-110843338D01*
X171028911Y-110843330D01*
X170866670Y-110681089D01*
X170866661Y-110681081D01*
X170684617Y-110541392D01*
X170626210Y-110507671D01*
X170485888Y-110426656D01*
X170485876Y-110426650D01*
X170273887Y-110338842D01*
X170052238Y-110279452D01*
X170014215Y-110274446D01*
X169824741Y-110249500D01*
X169824734Y-110249500D01*
X169595266Y-110249500D01*
X169595258Y-110249500D01*
X169378715Y-110278009D01*
X169367762Y-110279452D01*
X169274076Y-110304554D01*
X169146112Y-110338842D01*
X168934123Y-110426650D01*
X168934109Y-110426657D01*
X168735382Y-110541392D01*
X168553338Y-110681081D01*
X168422180Y-110812239D01*
X168360857Y-110845724D01*
X168291165Y-110840740D01*
X168235232Y-110798868D01*
X168210815Y-110733404D01*
X168210499Y-110724558D01*
X168210499Y-110702129D01*
X168210498Y-110702123D01*
X168208236Y-110681081D01*
X168204091Y-110642517D01*
X168200777Y-110633633D01*
X168153797Y-110507671D01*
X168153793Y-110507664D01*
X168067547Y-110392455D01*
X168067544Y-110392452D01*
X167952335Y-110306206D01*
X167952328Y-110306202D01*
X167817482Y-110255908D01*
X167817483Y-110255908D01*
X167757883Y-110249501D01*
X167757881Y-110249500D01*
X167757873Y-110249500D01*
X167757865Y-110249500D01*
X166960759Y-110249500D01*
X166893720Y-110229815D01*
X166847965Y-110177011D01*
X166838021Y-110107853D01*
X166857657Y-110056609D01*
X166879521Y-110023887D01*
X166909394Y-109979179D01*
X166969737Y-109833497D01*
X167000500Y-109678842D01*
X167000500Y-109521158D01*
X167000500Y-109521155D01*
X166976140Y-109398692D01*
X166977670Y-109381589D01*
X166974138Y-109364784D01*
X166980719Y-109347509D01*
X166982367Y-109329100D01*
X166992900Y-109315539D01*
X166999015Y-109299493D01*
X167013891Y-109288519D01*
X167025230Y-109273923D01*
X167041681Y-109268018D01*
X167055242Y-109258016D01*
X167083450Y-109253029D01*
X167089782Y-109250757D01*
X167093769Y-109250500D01*
X167113393Y-109250500D01*
X167236607Y-109250500D01*
X167297029Y-109238481D01*
X167357452Y-109226463D01*
X167357455Y-109226461D01*
X167357458Y-109226461D01*
X167390787Y-109212654D01*
X167390786Y-109212654D01*
X167390792Y-109212652D01*
X167471286Y-109179312D01*
X167522509Y-109145084D01*
X167573733Y-109110858D01*
X167660858Y-109023733D01*
X167660858Y-109023731D01*
X167671066Y-109013524D01*
X167671068Y-109013521D01*
X167858797Y-108825791D01*
X167920118Y-108792308D01*
X167922128Y-108791889D01*
X168033497Y-108769737D01*
X168167716Y-108714142D01*
X168179172Y-108709397D01*
X168179172Y-108709396D01*
X168179179Y-108709394D01*
X168310289Y-108621789D01*
X168421789Y-108510289D01*
X168509394Y-108379179D01*
X168569737Y-108233497D01*
X168600500Y-108078842D01*
X168600500Y-107921158D01*
X168600500Y-107921155D01*
X168600499Y-107921153D01*
X168590099Y-107868870D01*
X168569737Y-107766503D01*
X168569732Y-107766492D01*
X168567969Y-107760676D01*
X168570720Y-107759841D01*
X168564497Y-107702641D01*
X168595691Y-107640122D01*
X168655734Y-107604392D01*
X168686555Y-107600500D01*
X175351564Y-107600500D01*
X175418603Y-107620185D01*
X175464358Y-107672989D01*
X175474302Y-107742147D01*
X175445277Y-107805703D01*
X175399016Y-107839061D01*
X175284123Y-107886650D01*
X175284109Y-107886657D01*
X175085382Y-108001392D01*
X174903338Y-108141081D01*
X174741081Y-108303338D01*
X174601392Y-108485382D01*
X174486657Y-108684109D01*
X174486650Y-108684123D01*
X174398842Y-108896112D01*
X174395043Y-108910292D01*
X174341694Y-109109397D01*
X174339453Y-109117759D01*
X174339451Y-109117770D01*
X174309500Y-109345258D01*
X174309500Y-109574741D01*
X174334446Y-109764215D01*
X174339452Y-109802238D01*
X174386861Y-109979172D01*
X174398842Y-110023887D01*
X174486650Y-110235876D01*
X174486657Y-110235890D01*
X174601392Y-110434617D01*
X174741081Y-110616661D01*
X174741089Y-110616670D01*
X174903330Y-110778911D01*
X174903338Y-110778918D01*
X174903339Y-110778919D01*
X174919950Y-110791665D01*
X175085382Y-110918607D01*
X175085385Y-110918608D01*
X175085388Y-110918611D01*
X175284112Y-111033344D01*
X175284117Y-111033346D01*
X175284123Y-111033349D01*
X175352856Y-111061819D01*
X175496113Y-111121158D01*
X175717762Y-111180548D01*
X175934312Y-111209057D01*
X175941460Y-111209999D01*
X175945266Y-111210500D01*
X175945273Y-111210500D01*
X176174727Y-111210500D01*
X176174734Y-111210500D01*
X176402238Y-111180548D01*
X176623887Y-111121158D01*
X176835888Y-111033344D01*
X177034612Y-110918611D01*
X177216661Y-110778919D01*
X177216665Y-110778914D01*
X177216670Y-110778911D01*
X177375319Y-110620262D01*
X177436642Y-110586777D01*
X177506334Y-110591761D01*
X177562267Y-110633633D01*
X177586684Y-110699097D01*
X177587000Y-110707943D01*
X177587000Y-110757844D01*
X177593401Y-110817372D01*
X177593403Y-110817379D01*
X177643645Y-110952086D01*
X177643649Y-110952093D01*
X177729809Y-111067187D01*
X177729812Y-111067190D01*
X177844906Y-111153350D01*
X177844913Y-111153354D01*
X177979620Y-111203596D01*
X177979627Y-111203598D01*
X178039155Y-111209999D01*
X178039172Y-111210000D01*
X180684828Y-111210000D01*
X180684844Y-111209999D01*
X180744372Y-111203598D01*
X180744379Y-111203596D01*
X180879086Y-111153354D01*
X180879093Y-111153350D01*
X180994187Y-111067190D01*
X180994190Y-111067187D01*
X181080350Y-110952093D01*
X181080354Y-110952086D01*
X181130596Y-110817379D01*
X181130598Y-110817372D01*
X181136999Y-110757844D01*
X181137000Y-110757827D01*
X181137000Y-108162172D01*
X181136999Y-108162155D01*
X181130598Y-108102627D01*
X181130596Y-108102620D01*
X181080354Y-107967913D01*
X181080350Y-107967906D01*
X180994190Y-107852812D01*
X180994187Y-107852809D01*
X180879093Y-107766649D01*
X180879086Y-107766645D01*
X180744379Y-107716403D01*
X180744372Y-107716401D01*
X180684844Y-107710000D01*
X178487725Y-107710000D01*
X178420686Y-107690315D01*
X178374931Y-107637511D01*
X178364987Y-107568353D01*
X178394012Y-107504797D01*
X178418834Y-107482898D01*
X178473254Y-107446535D01*
X178510289Y-107421789D01*
X181758789Y-104173289D01*
X181846394Y-104042179D01*
X181906737Y-103896497D01*
X181937500Y-103741842D01*
X181937500Y-103584158D01*
X181937500Y-85958158D01*
X181931951Y-85930263D01*
X181906738Y-85803503D01*
X181846394Y-85657821D01*
X181846392Y-85657818D01*
X181846390Y-85657814D01*
X181781969Y-85561402D01*
X181761091Y-85494725D01*
X181779575Y-85427345D01*
X181831554Y-85380654D01*
X181900524Y-85369478D01*
X181964588Y-85397363D01*
G37*
%TD.AperFunction*%
%TA.AperFunction,Conductor*%
G36*
X186004418Y-70500816D02*
G01*
X186204561Y-70515130D01*
X186222063Y-70517647D01*
X186413795Y-70559355D01*
X186430760Y-70564336D01*
X186614611Y-70632909D01*
X186630694Y-70640253D01*
X186747495Y-70704032D01*
X186802908Y-70734290D01*
X186817791Y-70743855D01*
X186974864Y-70861438D01*
X186988235Y-70873024D01*
X187126975Y-71011764D01*
X187138561Y-71025135D01*
X187256144Y-71182208D01*
X187265709Y-71197091D01*
X187359743Y-71369300D01*
X187367093Y-71385394D01*
X187435661Y-71569234D01*
X187440645Y-71586209D01*
X187482351Y-71777931D01*
X187484869Y-71795442D01*
X187499184Y-71995580D01*
X187499500Y-72004427D01*
X187499500Y-165995572D01*
X187499184Y-166004419D01*
X187484869Y-166204557D01*
X187482351Y-166222068D01*
X187440645Y-166413790D01*
X187435661Y-166430765D01*
X187367093Y-166614605D01*
X187359743Y-166630699D01*
X187265709Y-166802908D01*
X187256144Y-166817791D01*
X187138561Y-166974864D01*
X187126975Y-166988235D01*
X186988235Y-167126975D01*
X186974864Y-167138561D01*
X186817791Y-167256144D01*
X186802908Y-167265709D01*
X186630699Y-167359743D01*
X186614605Y-167367093D01*
X186430765Y-167435661D01*
X186413790Y-167440645D01*
X186222068Y-167482351D01*
X186204557Y-167484869D01*
X186023779Y-167497799D01*
X186004417Y-167499184D01*
X185995572Y-167499500D01*
X92004428Y-167499500D01*
X91995582Y-167499184D01*
X91973622Y-167497613D01*
X91795442Y-167484869D01*
X91777931Y-167482351D01*
X91586209Y-167440645D01*
X91569234Y-167435661D01*
X91385394Y-167367093D01*
X91369300Y-167359743D01*
X91197091Y-167265709D01*
X91182208Y-167256144D01*
X91025135Y-167138561D01*
X91011764Y-167126975D01*
X90873024Y-166988235D01*
X90861438Y-166974864D01*
X90743855Y-166817791D01*
X90734290Y-166802908D01*
X90702815Y-166745266D01*
X90640253Y-166630694D01*
X90632909Y-166614611D01*
X90564336Y-166430760D01*
X90559354Y-166413790D01*
X90517648Y-166222068D01*
X90515130Y-166204556D01*
X90514953Y-166202085D01*
X90500816Y-166004418D01*
X90500500Y-165995572D01*
X90500500Y-164465186D01*
X90799500Y-164465186D01*
X90799500Y-164734813D01*
X90829686Y-165002719D01*
X90829688Y-165002731D01*
X90889684Y-165265594D01*
X90889687Y-165265602D01*
X90978734Y-165520082D01*
X91095714Y-165762994D01*
X91095716Y-165762997D01*
X91239162Y-165991289D01*
X91407266Y-166202085D01*
X91597915Y-166392734D01*
X91808711Y-166560838D01*
X92037003Y-166704284D01*
X92279921Y-166821267D01*
X92471049Y-166888145D01*
X92534397Y-166910312D01*
X92534405Y-166910315D01*
X92534408Y-166910315D01*
X92534409Y-166910316D01*
X92797268Y-166970312D01*
X93065187Y-167000499D01*
X93065188Y-167000500D01*
X93065191Y-167000500D01*
X93334812Y-167000500D01*
X93334812Y-167000499D01*
X93602732Y-166970312D01*
X93865591Y-166910316D01*
X94120079Y-166821267D01*
X94362997Y-166704284D01*
X94591289Y-166560838D01*
X94802085Y-166392734D01*
X94992734Y-166202085D01*
X95160838Y-165991289D01*
X95304284Y-165762997D01*
X95421267Y-165520079D01*
X95510316Y-165265591D01*
X95570312Y-165002732D01*
X95600500Y-164734809D01*
X95600500Y-164465191D01*
X95600499Y-164465186D01*
X115099500Y-164465186D01*
X115099500Y-164734813D01*
X115129686Y-165002719D01*
X115129688Y-165002731D01*
X115189684Y-165265594D01*
X115189687Y-165265602D01*
X115278734Y-165520082D01*
X115395714Y-165762994D01*
X115395716Y-165762997D01*
X115539162Y-165991289D01*
X115707266Y-166202085D01*
X115897915Y-166392734D01*
X116108711Y-166560838D01*
X116337003Y-166704284D01*
X116579921Y-166821267D01*
X116771049Y-166888145D01*
X116834397Y-166910312D01*
X116834405Y-166910315D01*
X116834408Y-166910315D01*
X116834409Y-166910316D01*
X117097268Y-166970312D01*
X117365187Y-167000499D01*
X117365188Y-167000500D01*
X117365191Y-167000500D01*
X117634812Y-167000500D01*
X117634812Y-167000499D01*
X117902732Y-166970312D01*
X118165591Y-166910316D01*
X118420079Y-166821267D01*
X118662997Y-166704284D01*
X118891289Y-166560838D01*
X119102085Y-166392734D01*
X119292734Y-166202085D01*
X119460838Y-165991289D01*
X119604284Y-165762997D01*
X119721267Y-165520079D01*
X119810316Y-165265591D01*
X119870312Y-165002732D01*
X119900500Y-164734809D01*
X119900500Y-164465191D01*
X119870312Y-164197268D01*
X119810316Y-163934409D01*
X119809537Y-163932184D01*
X119762841Y-163798733D01*
X119721267Y-163679921D01*
X119604284Y-163437003D01*
X119460838Y-163208711D01*
X119292734Y-162997915D01*
X119102085Y-162807266D01*
X118891289Y-162639162D01*
X118662997Y-162495716D01*
X118662994Y-162495714D01*
X118420082Y-162378734D01*
X118165602Y-162289687D01*
X118165594Y-162289684D01*
X117968446Y-162244687D01*
X117902732Y-162229688D01*
X117902728Y-162229687D01*
X117902719Y-162229686D01*
X117634813Y-162199500D01*
X117634809Y-162199500D01*
X117365191Y-162199500D01*
X117365186Y-162199500D01*
X117097280Y-162229686D01*
X117097268Y-162229688D01*
X116834405Y-162289684D01*
X116834397Y-162289687D01*
X116579917Y-162378734D01*
X116337005Y-162495714D01*
X116108712Y-162639161D01*
X115897915Y-162807265D01*
X115707265Y-162997915D01*
X115539161Y-163208712D01*
X115395714Y-163437005D01*
X115278734Y-163679917D01*
X115189687Y-163934397D01*
X115189684Y-163934405D01*
X115129688Y-164197268D01*
X115129686Y-164197280D01*
X115099500Y-164465186D01*
X95600499Y-164465186D01*
X95570312Y-164197268D01*
X95510316Y-163934409D01*
X95509537Y-163932184D01*
X95462841Y-163798733D01*
X95421267Y-163679921D01*
X95304284Y-163437003D01*
X95160838Y-163208711D01*
X94992734Y-162997915D01*
X94802085Y-162807266D01*
X94591289Y-162639162D01*
X94362997Y-162495716D01*
X94362994Y-162495714D01*
X94120082Y-162378734D01*
X93865602Y-162289687D01*
X93865594Y-162289684D01*
X93668446Y-162244687D01*
X93602732Y-162229688D01*
X93602728Y-162229687D01*
X93602719Y-162229686D01*
X93334813Y-162199500D01*
X93334809Y-162199500D01*
X93065191Y-162199500D01*
X93065186Y-162199500D01*
X92797280Y-162229686D01*
X92797268Y-162229688D01*
X92534405Y-162289684D01*
X92534397Y-162289687D01*
X92279917Y-162378734D01*
X92037005Y-162495714D01*
X91808712Y-162639161D01*
X91597915Y-162807265D01*
X91407265Y-162997915D01*
X91239161Y-163208712D01*
X91095714Y-163437005D01*
X90978734Y-163679917D01*
X90889687Y-163934397D01*
X90889684Y-163934405D01*
X90829688Y-164197268D01*
X90829686Y-164197280D01*
X90799500Y-164465186D01*
X90500500Y-164465186D01*
X90500500Y-83938389D01*
X92574500Y-83938389D01*
X92574500Y-120661611D01*
X92598535Y-120782444D01*
X92598540Y-120782461D01*
X92645685Y-120896280D01*
X92645687Y-120896283D01*
X92645688Y-120896286D01*
X92679915Y-120947509D01*
X92714142Y-120998733D01*
X92801267Y-121085858D01*
X92801270Y-121085860D01*
X92808554Y-121093144D01*
X93949705Y-122234295D01*
X93983190Y-122295618D01*
X93981800Y-122354064D01*
X93975453Y-122377752D01*
X93975452Y-122377758D01*
X93945500Y-122605258D01*
X93945500Y-122834741D01*
X93957933Y-122929172D01*
X93975452Y-123062238D01*
X94022206Y-123236728D01*
X94034842Y-123283887D01*
X94122650Y-123495876D01*
X94122657Y-123495890D01*
X94237392Y-123694617D01*
X94377081Y-123876661D01*
X94377089Y-123876670D01*
X94539330Y-124038911D01*
X94539338Y-124038918D01*
X94721382Y-124178607D01*
X94721385Y-124178608D01*
X94721388Y-124178611D01*
X94920112Y-124293344D01*
X94920117Y-124293346D01*
X94920123Y-124293349D01*
X95070022Y-124355439D01*
X95124426Y-124399280D01*
X95146491Y-124465574D01*
X95129212Y-124533273D01*
X95078075Y-124580884D01*
X95070022Y-124584561D01*
X94920123Y-124646650D01*
X94920109Y-124646657D01*
X94721382Y-124761392D01*
X94539338Y-124901081D01*
X94377081Y-125063338D01*
X94237392Y-125245382D01*
X94122657Y-125444109D01*
X94122650Y-125444123D01*
X94039568Y-125644703D01*
X94034842Y-125656113D01*
X93993585Y-125810090D01*
X93975453Y-125877759D01*
X93975451Y-125877770D01*
X93945500Y-126105258D01*
X93945500Y-126334741D01*
X93961802Y-126458560D01*
X93975452Y-126562238D01*
X93990186Y-126617227D01*
X94034842Y-126783887D01*
X94122650Y-126995876D01*
X94122657Y-126995890D01*
X94237392Y-127194617D01*
X94377081Y-127376661D01*
X94377089Y-127376670D01*
X94539330Y-127538911D01*
X94539338Y-127538918D01*
X94539339Y-127538919D01*
X94551159Y-127547989D01*
X94721382Y-127678607D01*
X94721385Y-127678608D01*
X94721388Y-127678611D01*
X94920112Y-127793344D01*
X94920117Y-127793346D01*
X94920123Y-127793349D01*
X95003892Y-127828047D01*
X95132113Y-127881158D01*
X95353762Y-127940548D01*
X95581266Y-127970500D01*
X95581273Y-127970500D01*
X97310727Y-127970500D01*
X97310734Y-127970500D01*
X97538238Y-127940548D01*
X97759887Y-127881158D01*
X97971888Y-127793344D01*
X98170612Y-127678611D01*
X98352661Y-127538919D01*
X98352665Y-127538914D01*
X98352670Y-127538911D01*
X98514911Y-127376670D01*
X98514914Y-127376665D01*
X98514919Y-127376661D01*
X98654611Y-127194612D01*
X98769344Y-126995888D01*
X98857158Y-126783887D01*
X98916548Y-126562238D01*
X98946500Y-126334734D01*
X98946500Y-126105266D01*
X98916548Y-125877762D01*
X98857158Y-125656113D01*
X98769344Y-125444112D01*
X98654611Y-125245388D01*
X98654608Y-125245385D01*
X98654607Y-125245382D01*
X98569106Y-125133957D01*
X98543911Y-125068788D01*
X98557949Y-125000343D01*
X98579796Y-124970793D01*
X99256858Y-124293733D01*
X99325312Y-124191285D01*
X99372463Y-124077451D01*
X99396501Y-123956606D01*
X99396501Y-123833393D01*
X99396501Y-123828283D01*
X99396500Y-123828257D01*
X99396500Y-116709394D01*
X99394378Y-116698726D01*
X99394378Y-116698725D01*
X99372464Y-116588556D01*
X99372463Y-116588549D01*
X99363331Y-116566503D01*
X99326637Y-116477917D01*
X99326637Y-116477909D01*
X99326635Y-116477910D01*
X99325311Y-116474713D01*
X99325310Y-116474711D01*
X99308257Y-116449191D01*
X99308256Y-116449190D01*
X99256858Y-116372267D01*
X99256856Y-116372264D01*
X99166637Y-116282045D01*
X99166606Y-116282016D01*
X95256819Y-112372229D01*
X95223334Y-112310906D01*
X95220500Y-112284548D01*
X95220500Y-109460258D01*
X97899500Y-109460258D01*
X97899500Y-109689741D01*
X97924446Y-109879215D01*
X97929452Y-109917238D01*
X97958028Y-110023887D01*
X97988842Y-110138887D01*
X98076650Y-110350876D01*
X98076657Y-110350890D01*
X98120401Y-110426657D01*
X98186641Y-110541389D01*
X98191392Y-110549617D01*
X98331081Y-110731661D01*
X98331089Y-110731670D01*
X98493330Y-110893911D01*
X98493338Y-110893918D01*
X98675382Y-111033607D01*
X98675385Y-111033608D01*
X98675388Y-111033611D01*
X98874112Y-111148344D01*
X98874117Y-111148346D01*
X98874123Y-111148349D01*
X98919506Y-111167147D01*
X99086113Y-111236158D01*
X99307762Y-111295548D01*
X99535266Y-111325500D01*
X99535273Y-111325500D01*
X99764727Y-111325500D01*
X99764734Y-111325500D01*
X99992238Y-111295548D01*
X100213887Y-111236158D01*
X100425888Y-111148344D01*
X100624612Y-111033611D01*
X100806661Y-110893919D01*
X100806665Y-110893914D01*
X100806670Y-110893911D01*
X100968911Y-110731670D01*
X100968914Y-110731665D01*
X100968919Y-110731661D01*
X101108611Y-110549612D01*
X101223344Y-110350888D01*
X101311158Y-110138887D01*
X101370548Y-109917238D01*
X101400500Y-109689734D01*
X101400500Y-109460266D01*
X101400499Y-109460258D01*
X107899500Y-109460258D01*
X107899500Y-109689741D01*
X107924446Y-109879215D01*
X107929452Y-109917238D01*
X107958028Y-110023887D01*
X107988842Y-110138887D01*
X108076650Y-110350876D01*
X108076657Y-110350890D01*
X108120401Y-110426657D01*
X108186641Y-110541389D01*
X108191392Y-110549617D01*
X108331081Y-110731661D01*
X108331089Y-110731670D01*
X108493330Y-110893911D01*
X108493338Y-110893918D01*
X108675382Y-111033607D01*
X108675385Y-111033608D01*
X108675388Y-111033611D01*
X108874112Y-111148344D01*
X108874117Y-111148346D01*
X108874123Y-111148349D01*
X108919506Y-111167147D01*
X109086113Y-111236158D01*
X109307762Y-111295548D01*
X109535266Y-111325500D01*
X109535273Y-111325500D01*
X109764727Y-111325500D01*
X109764734Y-111325500D01*
X109992238Y-111295548D01*
X110213887Y-111236158D01*
X110425888Y-111148344D01*
X110624612Y-111033611D01*
X110806661Y-110893919D01*
X110806665Y-110893914D01*
X110806670Y-110893911D01*
X110968911Y-110731670D01*
X110968914Y-110731665D01*
X110968919Y-110731661D01*
X111108611Y-110549612D01*
X111223344Y-110350888D01*
X111311158Y-110138887D01*
X111370548Y-109917238D01*
X111400500Y-109689734D01*
X111400500Y-109460266D01*
X111370548Y-109232762D01*
X111311158Y-109011113D01*
X111224237Y-108801267D01*
X111223349Y-108799123D01*
X111223346Y-108799117D01*
X111223344Y-108799112D01*
X111108611Y-108600388D01*
X111108608Y-108600385D01*
X111108607Y-108600382D01*
X110968918Y-108418338D01*
X110968911Y-108418330D01*
X110806670Y-108256089D01*
X110806660Y-108256080D01*
X110805152Y-108254923D01*
X110804817Y-108254464D01*
X110803618Y-108253413D01*
X110803793Y-108253212D01*
X110803791Y-108253210D01*
X110803831Y-108253169D01*
X110803853Y-108253144D01*
X110763952Y-108198493D01*
X110759800Y-108128747D01*
X110794016Y-108067828D01*
X110842326Y-108038620D01*
X111014182Y-107982781D01*
X111238583Y-107868442D01*
X111442331Y-107720409D01*
X111442332Y-107720409D01*
X111620409Y-107542332D01*
X111620409Y-107542331D01*
X111768442Y-107338583D01*
X111882780Y-107114184D01*
X111960602Y-106874669D01*
X112000000Y-106625928D01*
X112000000Y-106374071D01*
X111960602Y-106125330D01*
X111882780Y-105885815D01*
X111768442Y-105661416D01*
X111620409Y-105457668D01*
X111620409Y-105457667D01*
X111442332Y-105279590D01*
X111238583Y-105131557D01*
X111014184Y-105017219D01*
X110774669Y-104939397D01*
X110525928Y-104900000D01*
X110274072Y-104900000D01*
X110025330Y-104939397D01*
X109785815Y-105017219D01*
X109561416Y-105131557D01*
X109357668Y-105279590D01*
X109357667Y-105279590D01*
X109179590Y-105457667D01*
X109179590Y-105457668D01*
X109031557Y-105661416D01*
X108917219Y-105885815D01*
X108839397Y-106125330D01*
X108800000Y-106374071D01*
X108800000Y-106625928D01*
X108839397Y-106874669D01*
X108917219Y-107114184D01*
X109031557Y-107338583D01*
X109179590Y-107542331D01*
X109179590Y-107542332D01*
X109300969Y-107663711D01*
X109334454Y-107725034D01*
X109329470Y-107794726D01*
X109287598Y-107850659D01*
X109245382Y-107871166D01*
X109187596Y-107886650D01*
X109086112Y-107913842D01*
X108874123Y-108001650D01*
X108874109Y-108001657D01*
X108675382Y-108116392D01*
X108493338Y-108256081D01*
X108331081Y-108418338D01*
X108191392Y-108600382D01*
X108076657Y-108799109D01*
X108076650Y-108799123D01*
X107988842Y-109011112D01*
X107977655Y-109052864D01*
X107931141Y-109226461D01*
X107929453Y-109232759D01*
X107929451Y-109232770D01*
X107899500Y-109460258D01*
X101400499Y-109460258D01*
X101370548Y-109232762D01*
X101311158Y-109011113D01*
X101224237Y-108801267D01*
X101223349Y-108799123D01*
X101223346Y-108799117D01*
X101223344Y-108799112D01*
X101108611Y-108600388D01*
X101108608Y-108600385D01*
X101108607Y-108600382D01*
X100968918Y-108418338D01*
X100968911Y-108418330D01*
X100806670Y-108256089D01*
X100806661Y-108256081D01*
X100624617Y-108116392D01*
X100425890Y-108001657D01*
X100425876Y-108001650D01*
X100213887Y-107913842D01*
X99992238Y-107854452D01*
X99954215Y-107849446D01*
X99764741Y-107824500D01*
X99764734Y-107824500D01*
X99535266Y-107824500D01*
X99535258Y-107824500D01*
X99336572Y-107850659D01*
X99307762Y-107854452D01*
X99255550Y-107868442D01*
X99086112Y-107913842D01*
X98874123Y-108001650D01*
X98874109Y-108001657D01*
X98675382Y-108116392D01*
X98493338Y-108256081D01*
X98331081Y-108418338D01*
X98191392Y-108600382D01*
X98076657Y-108799109D01*
X98076650Y-108799123D01*
X97988842Y-109011112D01*
X97977655Y-109052864D01*
X97931141Y-109226461D01*
X97929453Y-109232759D01*
X97929451Y-109232770D01*
X97899500Y-109460258D01*
X95220500Y-109460258D01*
X95220500Y-107446530D01*
X103599500Y-107446530D01*
X103599500Y-107653469D01*
X103639868Y-107856412D01*
X103639870Y-107856420D01*
X103707967Y-108020821D01*
X103719059Y-108047598D01*
X103739937Y-108078844D01*
X103834024Y-108219657D01*
X103980342Y-108365975D01*
X103980345Y-108365977D01*
X104152402Y-108480941D01*
X104343580Y-108560130D01*
X104545942Y-108600382D01*
X104546530Y-108600499D01*
X104546534Y-108600500D01*
X104546535Y-108600500D01*
X104753466Y-108600500D01*
X104753467Y-108600499D01*
X104956420Y-108560130D01*
X105147598Y-108480941D01*
X105319655Y-108365977D01*
X105465977Y-108219655D01*
X105580941Y-108047598D01*
X105660130Y-107856420D01*
X105700500Y-107653465D01*
X105700500Y-107446535D01*
X105660130Y-107243580D01*
X105580941Y-107052402D01*
X105465977Y-106880345D01*
X105465975Y-106880342D01*
X105319657Y-106734024D01*
X105157929Y-106625962D01*
X105147598Y-106619059D01*
X104956420Y-106539870D01*
X104956412Y-106539868D01*
X104753469Y-106499500D01*
X104753465Y-106499500D01*
X104546535Y-106499500D01*
X104546530Y-106499500D01*
X104343587Y-106539868D01*
X104343579Y-106539870D01*
X104152403Y-106619058D01*
X103980342Y-106734024D01*
X103834024Y-106880342D01*
X103719058Y-107052403D01*
X103639870Y-107243579D01*
X103639868Y-107243587D01*
X103599500Y-107446530D01*
X95220500Y-107446530D01*
X95220500Y-107270582D01*
X95240185Y-107203543D01*
X95292989Y-107157788D01*
X95362147Y-107147844D01*
X95382819Y-107152651D01*
X95568754Y-107213065D01*
X95801948Y-107250000D01*
X96038052Y-107250000D01*
X96271247Y-107213065D01*
X96495802Y-107140102D01*
X96706171Y-107032914D01*
X96897186Y-106894133D01*
X97064133Y-106727186D01*
X97202914Y-106536171D01*
X97310102Y-106325802D01*
X97383065Y-106101247D01*
X97420000Y-105868052D01*
X97420000Y-105631947D01*
X97383065Y-105398752D01*
X97310102Y-105174197D01*
X97202914Y-104963828D01*
X97064133Y-104772813D01*
X96897183Y-104605863D01*
X96889973Y-104600625D01*
X96847308Y-104545294D01*
X96841330Y-104475680D01*
X96873937Y-104413886D01*
X96889970Y-104399994D01*
X96897510Y-104394517D01*
X97064517Y-104227510D01*
X97203343Y-104036433D01*
X97310568Y-103825992D01*
X97383553Y-103601368D01*
X97403520Y-103475302D01*
X97420500Y-103368097D01*
X97420500Y-103131902D01*
X97394682Y-102968898D01*
X97403636Y-102899605D01*
X97448632Y-102846153D01*
X97515384Y-102825513D01*
X97517155Y-102825500D01*
X110746352Y-102825500D01*
X110746352Y-102825499D01*
X110827323Y-102809394D01*
X110867196Y-102801463D01*
X110928461Y-102776086D01*
X110981029Y-102754312D01*
X111024147Y-102725501D01*
X111083477Y-102685858D01*
X111170602Y-102598733D01*
X111170602Y-102598731D01*
X111180810Y-102588524D01*
X111180812Y-102588521D01*
X113209474Y-100559858D01*
X113270795Y-100526375D01*
X113340487Y-100531359D01*
X113396420Y-100573231D01*
X113415082Y-100609218D01*
X113416221Y-100612725D01*
X113416760Y-100614383D01*
X113459360Y-100697989D01*
X113530282Y-100837181D01*
X113531132Y-100838848D01*
X113679201Y-101042649D01*
X113679205Y-101042654D01*
X113857345Y-101220794D01*
X113857350Y-101220798D01*
X113977568Y-101308141D01*
X114061155Y-101368870D01*
X114186729Y-101432853D01*
X114285616Y-101483239D01*
X114285618Y-101483239D01*
X114285621Y-101483241D01*
X114525215Y-101561090D01*
X114774038Y-101600500D01*
X114774039Y-101600500D01*
X115025961Y-101600500D01*
X115025962Y-101600500D01*
X115274785Y-101561090D01*
X115514379Y-101483241D01*
X115738845Y-101368870D01*
X115942656Y-101220793D01*
X116120793Y-101042656D01*
X116268870Y-100838845D01*
X116343078Y-100693203D01*
X116391051Y-100642409D01*
X116453562Y-100625500D01*
X120690548Y-100625500D01*
X120757587Y-100645185D01*
X120803342Y-100697989D01*
X120813286Y-100767147D01*
X120784261Y-100830703D01*
X120778229Y-100837180D01*
X119079722Y-102535687D01*
X117401270Y-104214139D01*
X117314144Y-104301264D01*
X117314138Y-104301272D01*
X117245692Y-104403705D01*
X117245684Y-104403719D01*
X117215879Y-104475680D01*
X117212347Y-104484207D01*
X117206823Y-104497543D01*
X117198537Y-104517545D01*
X117198535Y-104517553D01*
X117174500Y-104638389D01*
X117174500Y-106689548D01*
X117154815Y-106756587D01*
X117138181Y-106777229D01*
X116502820Y-107412589D01*
X116441497Y-107446074D01*
X116371805Y-107441090D01*
X116315872Y-107399218D01*
X116291455Y-107333754D01*
X116304653Y-107268616D01*
X116383241Y-107114379D01*
X116461090Y-106874785D01*
X116500500Y-106625962D01*
X116500500Y-106374038D01*
X116461090Y-106125215D01*
X116383241Y-105885621D01*
X116383239Y-105885618D01*
X116383239Y-105885616D01*
X116341747Y-105804184D01*
X116268870Y-105661155D01*
X116190199Y-105552873D01*
X116120798Y-105457350D01*
X116120794Y-105457345D01*
X115942654Y-105279205D01*
X115942649Y-105279201D01*
X115738848Y-105131132D01*
X115738847Y-105131131D01*
X115738845Y-105131130D01*
X115668747Y-105095413D01*
X115514383Y-105016760D01*
X115274785Y-104938910D01*
X115025962Y-104899500D01*
X114774038Y-104899500D01*
X114649626Y-104919205D01*
X114525214Y-104938910D01*
X114285616Y-105016760D01*
X114061151Y-105131132D01*
X113857350Y-105279201D01*
X113857345Y-105279205D01*
X113679205Y-105457345D01*
X113679201Y-105457350D01*
X113531132Y-105661151D01*
X113416760Y-105885616D01*
X113338910Y-106125214D01*
X113338910Y-106125215D01*
X113299500Y-106374038D01*
X113299500Y-106625962D01*
X113317706Y-106740910D01*
X113338910Y-106874785D01*
X113416760Y-107114383D01*
X113531132Y-107338848D01*
X113679201Y-107542649D01*
X113679205Y-107542654D01*
X113857345Y-107720794D01*
X113857350Y-107720798D01*
X114000085Y-107824500D01*
X114061155Y-107868870D01*
X114204184Y-107941747D01*
X114285616Y-107983239D01*
X114285618Y-107983239D01*
X114285621Y-107983241D01*
X114525215Y-108061090D01*
X114774038Y-108100500D01*
X114774039Y-108100500D01*
X115025961Y-108100500D01*
X115025962Y-108100500D01*
X115274785Y-108061090D01*
X115514379Y-107983241D01*
X115668615Y-107904653D01*
X115737282Y-107891758D01*
X115802022Y-107918034D01*
X115842280Y-107975140D01*
X115845272Y-108044946D01*
X115812589Y-108102820D01*
X109377229Y-114538181D01*
X109315906Y-114571666D01*
X109289548Y-114574500D01*
X106038389Y-114574500D01*
X105977971Y-114586518D01*
X105940259Y-114594019D01*
X105917550Y-114598536D01*
X105917548Y-114598537D01*
X105884207Y-114612347D01*
X105803719Y-114645684D01*
X105803705Y-114645692D01*
X105701272Y-114714138D01*
X105701264Y-114714144D01*
X103614144Y-116801264D01*
X103614138Y-116801272D01*
X103545690Y-116903708D01*
X103545688Y-116903713D01*
X103527853Y-116946771D01*
X103527851Y-116946777D01*
X103525087Y-116953451D01*
X103506331Y-116998733D01*
X103498537Y-117017549D01*
X103477742Y-117122097D01*
X103476776Y-117126949D01*
X103476776Y-117126952D01*
X103474500Y-117138393D01*
X103474500Y-147989547D01*
X103454815Y-148056586D01*
X103438181Y-148077228D01*
X102314144Y-149201264D01*
X102314138Y-149201272D01*
X102245690Y-149303708D01*
X102245688Y-149303713D01*
X102229514Y-149342762D01*
X102229514Y-149342763D01*
X102198538Y-149417545D01*
X102198535Y-149417555D01*
X102174500Y-149538389D01*
X102174500Y-150173514D01*
X102154815Y-150240553D01*
X102102011Y-150286308D01*
X102032853Y-150296252D01*
X102001276Y-150285328D01*
X102000700Y-150286720D01*
X101993188Y-150283609D01*
X101993187Y-150283608D01*
X101993186Y-150283608D01*
X101865892Y-150249500D01*
X98265892Y-150249500D01*
X98134108Y-150249500D01*
X98006812Y-150283608D01*
X97892686Y-150349500D01*
X97892683Y-150349502D01*
X97799502Y-150442683D01*
X97799500Y-150442686D01*
X97733607Y-150556814D01*
X97733607Y-150556815D01*
X97723350Y-150595095D01*
X97686985Y-150654755D01*
X97624138Y-150685283D01*
X97603576Y-150687000D01*
X96302129Y-150687000D01*
X96302123Y-150687001D01*
X96242516Y-150693408D01*
X96107671Y-150743702D01*
X96107668Y-150743704D01*
X96066174Y-150774767D01*
X96000709Y-150799184D01*
X95991863Y-150799500D01*
X95221153Y-150799500D01*
X95066510Y-150830260D01*
X95066502Y-150830262D01*
X94920824Y-150890604D01*
X94920814Y-150890609D01*
X94789711Y-150978210D01*
X94789707Y-150978213D01*
X94386344Y-151381578D01*
X94289711Y-151478211D01*
X94233960Y-151533962D01*
X94178209Y-151589712D01*
X94090609Y-151720814D01*
X94090602Y-151720827D01*
X94030264Y-151866498D01*
X94030261Y-151866510D01*
X93999500Y-152021153D01*
X93999500Y-153778846D01*
X94030261Y-153933489D01*
X94030264Y-153933501D01*
X94090602Y-154079172D01*
X94090609Y-154079185D01*
X94178210Y-154210288D01*
X94178213Y-154210292D01*
X100889707Y-160921786D01*
X100889711Y-160921789D01*
X101020814Y-161009390D01*
X101020818Y-161009392D01*
X101020821Y-161009394D01*
X101166503Y-161069738D01*
X101321153Y-161100499D01*
X101321157Y-161100500D01*
X101321158Y-161100500D01*
X124117060Y-161100500D01*
X124184099Y-161120185D01*
X124204741Y-161136819D01*
X127589707Y-164521786D01*
X127589711Y-164521789D01*
X127720814Y-164609390D01*
X127720827Y-164609397D01*
X127866498Y-164669735D01*
X127866503Y-164669737D01*
X128021153Y-164700499D01*
X128021156Y-164700500D01*
X128021158Y-164700500D01*
X128178845Y-164700500D01*
X128282888Y-164679803D01*
X128333497Y-164669737D01*
X128479179Y-164609394D01*
X128610289Y-164521789D01*
X128721789Y-164410289D01*
X128809394Y-164279179D01*
X128869737Y-164133497D01*
X128894594Y-164008536D01*
X128900500Y-163978845D01*
X128900500Y-163821155D01*
X128900499Y-163821153D01*
X128896039Y-163798729D01*
X128869737Y-163666503D01*
X128846290Y-163609896D01*
X128809397Y-163520827D01*
X128809390Y-163520814D01*
X128721789Y-163389711D01*
X128721786Y-163389707D01*
X125784744Y-160452666D01*
X125751259Y-160391343D01*
X125756243Y-160321651D01*
X125798115Y-160265718D01*
X125863579Y-160241301D01*
X125919876Y-160250423D01*
X125966503Y-160269737D01*
X126076702Y-160291657D01*
X126121153Y-160300499D01*
X126121156Y-160300500D01*
X126121158Y-160300500D01*
X126278844Y-160300500D01*
X126278845Y-160300499D01*
X126433497Y-160269737D01*
X126579179Y-160209394D01*
X126710289Y-160121789D01*
X126821789Y-160010289D01*
X126909394Y-159879179D01*
X126925572Y-159840119D01*
X126969411Y-159785718D01*
X127035705Y-159763652D01*
X127103405Y-159780930D01*
X127127814Y-159799892D01*
X129180155Y-161852233D01*
X129213640Y-161913556D01*
X129214948Y-161959310D01*
X129209500Y-161993711D01*
X129209500Y-162206286D01*
X129242735Y-162416127D01*
X129242754Y-162416243D01*
X129268576Y-162495716D01*
X129308444Y-162618414D01*
X129404951Y-162807820D01*
X129529890Y-162979786D01*
X129643430Y-163093326D01*
X129676915Y-163154649D01*
X129671931Y-163224341D01*
X129630059Y-163280274D01*
X129599083Y-163297189D01*
X129467669Y-163346203D01*
X129467664Y-163346206D01*
X129352455Y-163432452D01*
X129352452Y-163432455D01*
X129266206Y-163547664D01*
X129266202Y-163547671D01*
X129215908Y-163682517D01*
X129209501Y-163742116D01*
X129209500Y-163742135D01*
X129209500Y-165537870D01*
X129209501Y-165537876D01*
X129215908Y-165597483D01*
X129266202Y-165732328D01*
X129266206Y-165732335D01*
X129352452Y-165847544D01*
X129352455Y-165847547D01*
X129467664Y-165933793D01*
X129467671Y-165933797D01*
X129602517Y-165984091D01*
X129602516Y-165984091D01*
X129609444Y-165984835D01*
X129662127Y-165990500D01*
X131457872Y-165990499D01*
X131517483Y-165984091D01*
X131652331Y-165933796D01*
X131767546Y-165847546D01*
X131853796Y-165732331D01*
X131902810Y-165600916D01*
X131944681Y-165544984D01*
X132010145Y-165520566D01*
X132078418Y-165535417D01*
X132106673Y-165556569D01*
X132220213Y-165670109D01*
X132392179Y-165795048D01*
X132392181Y-165795049D01*
X132392184Y-165795051D01*
X132581588Y-165891557D01*
X132783757Y-165957246D01*
X132993713Y-165990500D01*
X132993714Y-165990500D01*
X133206286Y-165990500D01*
X133206287Y-165990500D01*
X133416243Y-165957246D01*
X133618412Y-165891557D01*
X133807816Y-165795051D01*
X133894138Y-165732335D01*
X133979786Y-165670109D01*
X133979788Y-165670106D01*
X133979792Y-165670104D01*
X134130104Y-165519792D01*
X134130106Y-165519788D01*
X134130109Y-165519786D01*
X134255048Y-165347820D01*
X134255047Y-165347820D01*
X134255051Y-165347816D01*
X134259514Y-165339054D01*
X134307488Y-165288259D01*
X134375308Y-165271463D01*
X134441444Y-165293999D01*
X134480486Y-165339056D01*
X134484951Y-165347820D01*
X134609890Y-165519786D01*
X134760213Y-165670109D01*
X134932179Y-165795048D01*
X134932181Y-165795049D01*
X134932184Y-165795051D01*
X135121588Y-165891557D01*
X135323757Y-165957246D01*
X135533713Y-165990500D01*
X135533714Y-165990500D01*
X135746286Y-165990500D01*
X135746287Y-165990500D01*
X135956243Y-165957246D01*
X136158412Y-165891557D01*
X136347816Y-165795051D01*
X136434138Y-165732335D01*
X136519786Y-165670109D01*
X136519788Y-165670106D01*
X136519792Y-165670104D01*
X136670104Y-165519792D01*
X136670106Y-165519788D01*
X136670109Y-165519786D01*
X136795048Y-165347820D01*
X136795047Y-165347820D01*
X136795051Y-165347816D01*
X136799514Y-165339054D01*
X136847488Y-165288259D01*
X136915308Y-165271463D01*
X136981444Y-165293999D01*
X137020486Y-165339056D01*
X137024951Y-165347820D01*
X137149890Y-165519786D01*
X137300213Y-165670109D01*
X137472179Y-165795048D01*
X137472181Y-165795049D01*
X137472184Y-165795051D01*
X137661588Y-165891557D01*
X137863757Y-165957246D01*
X138073713Y-165990500D01*
X138073714Y-165990500D01*
X138286286Y-165990500D01*
X138286287Y-165990500D01*
X138496243Y-165957246D01*
X138698412Y-165891557D01*
X138887816Y-165795051D01*
X138974138Y-165732335D01*
X139059786Y-165670109D01*
X139059788Y-165670106D01*
X139059792Y-165670104D01*
X139210104Y-165519792D01*
X139210106Y-165519788D01*
X139210109Y-165519786D01*
X139335048Y-165347820D01*
X139335047Y-165347820D01*
X139335051Y-165347816D01*
X139339514Y-165339054D01*
X139387488Y-165288259D01*
X139455308Y-165271463D01*
X139521444Y-165293999D01*
X139560486Y-165339056D01*
X139564951Y-165347820D01*
X139689890Y-165519786D01*
X139840213Y-165670109D01*
X140012179Y-165795048D01*
X140012181Y-165795049D01*
X140012184Y-165795051D01*
X140201588Y-165891557D01*
X140403757Y-165957246D01*
X140613713Y-165990500D01*
X140613714Y-165990500D01*
X140826286Y-165990500D01*
X140826287Y-165990500D01*
X141036243Y-165957246D01*
X141238412Y-165891557D01*
X141427816Y-165795051D01*
X141514138Y-165732335D01*
X141599786Y-165670109D01*
X141599788Y-165670106D01*
X141599792Y-165670104D01*
X141750104Y-165519792D01*
X141750106Y-165519788D01*
X141750109Y-165519786D01*
X141875048Y-165347820D01*
X141875047Y-165347820D01*
X141875051Y-165347816D01*
X141879514Y-165339054D01*
X141927488Y-165288259D01*
X141995308Y-165271463D01*
X142061444Y-165293999D01*
X142100486Y-165339056D01*
X142104951Y-165347820D01*
X142229890Y-165519786D01*
X142380213Y-165670109D01*
X142552179Y-165795048D01*
X142552181Y-165795049D01*
X142552184Y-165795051D01*
X142741588Y-165891557D01*
X142943757Y-165957246D01*
X143153713Y-165990500D01*
X143153714Y-165990500D01*
X143366286Y-165990500D01*
X143366287Y-165990500D01*
X143576243Y-165957246D01*
X143778412Y-165891557D01*
X143967816Y-165795051D01*
X144054138Y-165732335D01*
X144139786Y-165670109D01*
X144139788Y-165670106D01*
X144139792Y-165670104D01*
X144290104Y-165519792D01*
X144290106Y-165519788D01*
X144290109Y-165519786D01*
X144415048Y-165347820D01*
X144415047Y-165347820D01*
X144415051Y-165347816D01*
X144419514Y-165339054D01*
X144467488Y-165288259D01*
X144535308Y-165271463D01*
X144601444Y-165293999D01*
X144640486Y-165339056D01*
X144644951Y-165347820D01*
X144769890Y-165519786D01*
X144920213Y-165670109D01*
X145092179Y-165795048D01*
X145092181Y-165795049D01*
X145092184Y-165795051D01*
X145281588Y-165891557D01*
X145483757Y-165957246D01*
X145693713Y-165990500D01*
X145693714Y-165990500D01*
X145906286Y-165990500D01*
X145906287Y-165990500D01*
X146116243Y-165957246D01*
X146318412Y-165891557D01*
X146507816Y-165795051D01*
X146594138Y-165732335D01*
X146679786Y-165670109D01*
X146679788Y-165670106D01*
X146679792Y-165670104D01*
X146830104Y-165519792D01*
X146830106Y-165519788D01*
X146830109Y-165519786D01*
X146955048Y-165347820D01*
X146955051Y-165347816D01*
X146959793Y-165338508D01*
X147007763Y-165287711D01*
X147075583Y-165270911D01*
X147141719Y-165293445D01*
X147180763Y-165338500D01*
X147185377Y-165347555D01*
X147310272Y-165519459D01*
X147310276Y-165519464D01*
X147460535Y-165669723D01*
X147460540Y-165669727D01*
X147632442Y-165794620D01*
X147821782Y-165891095D01*
X148023870Y-165956757D01*
X148233754Y-165990000D01*
X148446246Y-165990000D01*
X148656127Y-165956757D01*
X148656130Y-165956757D01*
X148858217Y-165891095D01*
X149047557Y-165794620D01*
X149219459Y-165669727D01*
X149219464Y-165669723D01*
X149369723Y-165519464D01*
X149369727Y-165519459D01*
X149494620Y-165347557D01*
X149591095Y-165158217D01*
X149656757Y-164956130D01*
X149656757Y-164956127D01*
X149690000Y-164746246D01*
X149690000Y-164533753D01*
X149681662Y-164481110D01*
X149679140Y-164465186D01*
X158599500Y-164465186D01*
X158599500Y-164734813D01*
X158629686Y-165002719D01*
X158629688Y-165002731D01*
X158689684Y-165265594D01*
X158689687Y-165265602D01*
X158778734Y-165520082D01*
X158895714Y-165762994D01*
X158895716Y-165762997D01*
X159039162Y-165991289D01*
X159207266Y-166202085D01*
X159397915Y-166392734D01*
X159608711Y-166560838D01*
X159837003Y-166704284D01*
X160079921Y-166821267D01*
X160271049Y-166888145D01*
X160334397Y-166910312D01*
X160334405Y-166910315D01*
X160334408Y-166910315D01*
X160334409Y-166910316D01*
X160597268Y-166970312D01*
X160865187Y-167000499D01*
X160865188Y-167000500D01*
X160865191Y-167000500D01*
X161134812Y-167000500D01*
X161134812Y-167000499D01*
X161402732Y-166970312D01*
X161665591Y-166910316D01*
X161920079Y-166821267D01*
X162162997Y-166704284D01*
X162391289Y-166560838D01*
X162602085Y-166392734D01*
X162792734Y-166202085D01*
X162960838Y-165991289D01*
X163104284Y-165762997D01*
X163221267Y-165520079D01*
X163310316Y-165265591D01*
X163370312Y-165002732D01*
X163400500Y-164734809D01*
X163400500Y-164465191D01*
X163400499Y-164465186D01*
X182399500Y-164465186D01*
X182399500Y-164734813D01*
X182429686Y-165002719D01*
X182429688Y-165002731D01*
X182489684Y-165265594D01*
X182489687Y-165265602D01*
X182578734Y-165520082D01*
X182695714Y-165762994D01*
X182695716Y-165762997D01*
X182839162Y-165991289D01*
X183007266Y-166202085D01*
X183197915Y-166392734D01*
X183408711Y-166560838D01*
X183637003Y-166704284D01*
X183879921Y-166821267D01*
X184071049Y-166888145D01*
X184134397Y-166910312D01*
X184134405Y-166910315D01*
X184134408Y-166910315D01*
X184134409Y-166910316D01*
X184397268Y-166970312D01*
X184665187Y-167000499D01*
X184665188Y-167000500D01*
X184665191Y-167000500D01*
X184934812Y-167000500D01*
X184934812Y-167000499D01*
X185202732Y-166970312D01*
X185465591Y-166910316D01*
X185720079Y-166821267D01*
X185962997Y-166704284D01*
X186191289Y-166560838D01*
X186402085Y-166392734D01*
X186592734Y-166202085D01*
X186760838Y-165991289D01*
X186904284Y-165762997D01*
X187021267Y-165520079D01*
X187110316Y-165265591D01*
X187170312Y-165002732D01*
X187200500Y-164734809D01*
X187200500Y-164465191D01*
X187170312Y-164197268D01*
X187110316Y-163934409D01*
X187109537Y-163932184D01*
X187062841Y-163798733D01*
X187021267Y-163679921D01*
X186904284Y-163437003D01*
X186760838Y-163208711D01*
X186592734Y-162997915D01*
X186402085Y-162807266D01*
X186191289Y-162639162D01*
X185962997Y-162495716D01*
X185962994Y-162495714D01*
X185720082Y-162378734D01*
X185465602Y-162289687D01*
X185465594Y-162289684D01*
X185268446Y-162244687D01*
X185202732Y-162229688D01*
X185202728Y-162229687D01*
X185202719Y-162229686D01*
X184934813Y-162199500D01*
X184934809Y-162199500D01*
X184665191Y-162199500D01*
X184665186Y-162199500D01*
X184397280Y-162229686D01*
X184397268Y-162229688D01*
X184134405Y-162289684D01*
X184134397Y-162289687D01*
X183879917Y-162378734D01*
X183637005Y-162495714D01*
X183408712Y-162639161D01*
X183197915Y-162807265D01*
X183007265Y-162997915D01*
X182839161Y-163208712D01*
X182695714Y-163437005D01*
X182578734Y-163679917D01*
X182489687Y-163934397D01*
X182489684Y-163934405D01*
X182429688Y-164197268D01*
X182429686Y-164197280D01*
X182399500Y-164465186D01*
X163400499Y-164465186D01*
X163370312Y-164197268D01*
X163310316Y-163934409D01*
X163309537Y-163932184D01*
X163262841Y-163798733D01*
X163221267Y-163679921D01*
X163104284Y-163437003D01*
X162960838Y-163208711D01*
X162792734Y-162997915D01*
X162602085Y-162807266D01*
X162391289Y-162639162D01*
X162162997Y-162495716D01*
X162162994Y-162495714D01*
X161920082Y-162378734D01*
X161665602Y-162289687D01*
X161665594Y-162289684D01*
X161468446Y-162244687D01*
X161402732Y-162229688D01*
X161402728Y-162229687D01*
X161402719Y-162229686D01*
X161134813Y-162199500D01*
X161134809Y-162199500D01*
X160865191Y-162199500D01*
X160865186Y-162199500D01*
X160597280Y-162229686D01*
X160597268Y-162229688D01*
X160334405Y-162289684D01*
X160334397Y-162289687D01*
X160079917Y-162378734D01*
X159837005Y-162495714D01*
X159608712Y-162639161D01*
X159397915Y-162807265D01*
X159207265Y-162997915D01*
X159039161Y-163208712D01*
X158895714Y-163437005D01*
X158778734Y-163679917D01*
X158689687Y-163934397D01*
X158689684Y-163934405D01*
X158629688Y-164197268D01*
X158629686Y-164197280D01*
X158599500Y-164465186D01*
X149679140Y-164465186D01*
X149656757Y-164323872D01*
X149656757Y-164323869D01*
X149591095Y-164121782D01*
X149494620Y-163932442D01*
X149369727Y-163760540D01*
X149369723Y-163760535D01*
X149219464Y-163610276D01*
X149219459Y-163610272D01*
X149047558Y-163485379D01*
X149037954Y-163480486D01*
X148987157Y-163432512D01*
X148970361Y-163364692D01*
X148992897Y-163298556D01*
X149037954Y-163259514D01*
X149047558Y-163254620D01*
X149219459Y-163129727D01*
X149219464Y-163129723D01*
X149369723Y-162979464D01*
X149369727Y-162979459D01*
X149494620Y-162807557D01*
X149591095Y-162618217D01*
X149656757Y-162416130D01*
X149656757Y-162416127D01*
X149690000Y-162206246D01*
X149690000Y-161993753D01*
X149656757Y-161783872D01*
X149656757Y-161783869D01*
X149591095Y-161581782D01*
X149494620Y-161392442D01*
X149369727Y-161220540D01*
X149369723Y-161220535D01*
X149219464Y-161070276D01*
X149219459Y-161070272D01*
X149047557Y-160945379D01*
X148858217Y-160848904D01*
X148656129Y-160783242D01*
X148446246Y-160750000D01*
X148233754Y-160750000D01*
X148023872Y-160783242D01*
X148023869Y-160783242D01*
X147821782Y-160848904D01*
X147780793Y-160869789D01*
X147712124Y-160882684D01*
X147647384Y-160856407D01*
X147607128Y-160799300D01*
X147600500Y-160759303D01*
X147600500Y-112835451D01*
X147609145Y-112806007D01*
X147615668Y-112776025D01*
X147619422Y-112771009D01*
X147620185Y-112768412D01*
X147636810Y-112747779D01*
X147758798Y-112625790D01*
X147820117Y-112592308D01*
X147822126Y-112591889D01*
X147933497Y-112569737D01*
X148079179Y-112509394D01*
X148210289Y-112421789D01*
X148321789Y-112310289D01*
X148409394Y-112179179D01*
X148469737Y-112033497D01*
X148500500Y-111878842D01*
X148500500Y-111721158D01*
X148500500Y-111721155D01*
X148500499Y-111721153D01*
X148490698Y-111671880D01*
X148469737Y-111566503D01*
X148469735Y-111566498D01*
X148409397Y-111420827D01*
X148409390Y-111420814D01*
X148321789Y-111289711D01*
X148321786Y-111289707D01*
X148269260Y-111237181D01*
X148235775Y-111175858D01*
X148240759Y-111106166D01*
X148282631Y-111050233D01*
X148348095Y-111025816D01*
X148356941Y-111025500D01*
X158461607Y-111025500D01*
X158522029Y-111013481D01*
X158582452Y-111001463D01*
X158615792Y-110987652D01*
X158696286Y-110954312D01*
X158749715Y-110918611D01*
X158798733Y-110885858D01*
X158885858Y-110798733D01*
X158885859Y-110798731D01*
X158892925Y-110791665D01*
X158892928Y-110791661D01*
X159258797Y-110425791D01*
X159320118Y-110392308D01*
X159322128Y-110391889D01*
X159433497Y-110369737D01*
X159579179Y-110309394D01*
X159710289Y-110221789D01*
X159821789Y-110110289D01*
X159909394Y-109979179D01*
X159969737Y-109833497D01*
X160000500Y-109678842D01*
X160000500Y-109521158D01*
X160000500Y-109521155D01*
X160000499Y-109521153D01*
X159976140Y-109398692D01*
X159969737Y-109366503D01*
X159969025Y-109364784D01*
X159909397Y-109220827D01*
X159909390Y-109220814D01*
X159907771Y-109218391D01*
X159907312Y-109216927D01*
X159906521Y-109215446D01*
X159906801Y-109215295D01*
X159886893Y-109151713D01*
X159905378Y-109084333D01*
X159957356Y-109037643D01*
X160010873Y-109025500D01*
X160657650Y-109025500D01*
X160724689Y-109045185D01*
X160726541Y-109046398D01*
X160820821Y-109109394D01*
X160820823Y-109109395D01*
X160820827Y-109109397D01*
X160960250Y-109167147D01*
X160966503Y-109169737D01*
X161121153Y-109200499D01*
X161121156Y-109200500D01*
X161121158Y-109200500D01*
X161278844Y-109200500D01*
X161278845Y-109200499D01*
X161433497Y-109169737D01*
X161579179Y-109109394D01*
X161710289Y-109021789D01*
X161821789Y-108910289D01*
X161909394Y-108779179D01*
X161969737Y-108633497D01*
X162000500Y-108478842D01*
X162000500Y-108321158D01*
X162000500Y-108321155D01*
X162000499Y-108321153D01*
X161987325Y-108254923D01*
X161969737Y-108166503D01*
X161926074Y-108061090D01*
X161909397Y-108020827D01*
X161909390Y-108020814D01*
X161821789Y-107889711D01*
X161821786Y-107889707D01*
X161744260Y-107812181D01*
X161710775Y-107750858D01*
X161715759Y-107681166D01*
X161757631Y-107625233D01*
X161823095Y-107600816D01*
X161831941Y-107600500D01*
X164315547Y-107600500D01*
X164382586Y-107620185D01*
X164428341Y-107672989D01*
X164438285Y-107742147D01*
X164409260Y-107805703D01*
X164403228Y-107812181D01*
X163414144Y-108801264D01*
X163414138Y-108801272D01*
X163345690Y-108903708D01*
X163345688Y-108903713D01*
X163316369Y-108974497D01*
X163316369Y-108974498D01*
X163298537Y-109017546D01*
X163291512Y-109052864D01*
X163278603Y-109117770D01*
X163274500Y-109138396D01*
X163274500Y-119401611D01*
X163298535Y-119522444D01*
X163298540Y-119522461D01*
X163345685Y-119636280D01*
X163345687Y-119636283D01*
X163345688Y-119636286D01*
X163379915Y-119687509D01*
X163414142Y-119738733D01*
X163501267Y-119825858D01*
X163501270Y-119825860D01*
X163508554Y-119833144D01*
X174557571Y-130882161D01*
X174591056Y-130943484D01*
X174587822Y-131008158D01*
X174582753Y-131023757D01*
X174549500Y-131233713D01*
X174549500Y-131446287D01*
X174582754Y-131656243D01*
X174602789Y-131717905D01*
X174648444Y-131858414D01*
X174744951Y-132047820D01*
X174869890Y-132219786D01*
X175020213Y-132370109D01*
X175192179Y-132495048D01*
X175192181Y-132495049D01*
X175192184Y-132495051D01*
X175201493Y-132499794D01*
X175252290Y-132547766D01*
X175269087Y-132615587D01*
X175246552Y-132681722D01*
X175201502Y-132720762D01*
X175192443Y-132725378D01*
X175020540Y-132850272D01*
X175020535Y-132850276D01*
X174870276Y-133000535D01*
X174870272Y-133000540D01*
X174745379Y-133172442D01*
X174648904Y-133361782D01*
X174583242Y-133563869D01*
X174583242Y-133563872D01*
X174550000Y-133773753D01*
X174550000Y-133986246D01*
X174583242Y-134196127D01*
X174583242Y-134196130D01*
X174648904Y-134398217D01*
X174745379Y-134587557D01*
X174870272Y-134759459D01*
X174870276Y-134759464D01*
X175020535Y-134909723D01*
X175020540Y-134909727D01*
X175192444Y-135034622D01*
X175201495Y-135039234D01*
X175252292Y-135087208D01*
X175269087Y-135155029D01*
X175246550Y-135221164D01*
X175201499Y-135260202D01*
X175192182Y-135264949D01*
X175020213Y-135389890D01*
X174869890Y-135540213D01*
X174744951Y-135712179D01*
X174648444Y-135901585D01*
X174582753Y-136103760D01*
X174549500Y-136313713D01*
X174549500Y-136526286D01*
X174582753Y-136736239D01*
X174648444Y-136938414D01*
X174744951Y-137127820D01*
X174869890Y-137299786D01*
X175020213Y-137450109D01*
X175192179Y-137575048D01*
X175192181Y-137575049D01*
X175192184Y-137575051D01*
X175381588Y-137671557D01*
X175583757Y-137737246D01*
X175793713Y-137770500D01*
X175793714Y-137770500D01*
X176006286Y-137770500D01*
X176006287Y-137770500D01*
X176216243Y-137737246D01*
X176418412Y-137671557D01*
X176607816Y-137575051D01*
X176629789Y-137559086D01*
X176779786Y-137450109D01*
X176779788Y-137450106D01*
X176779792Y-137450104D01*
X176930104Y-137299792D01*
X176930106Y-137299788D01*
X176930109Y-137299786D01*
X177055048Y-137127820D01*
X177055047Y-137127820D01*
X177055051Y-137127816D01*
X177151557Y-136938412D01*
X177217246Y-136736243D01*
X177250500Y-136526287D01*
X177250500Y-136313713D01*
X177217246Y-136103757D01*
X177151557Y-135901588D01*
X177055051Y-135712184D01*
X177055049Y-135712181D01*
X177055048Y-135712179D01*
X176930109Y-135540213D01*
X176779786Y-135389890D01*
X176607817Y-135264949D01*
X176598504Y-135260204D01*
X176547707Y-135212230D01*
X176530912Y-135144409D01*
X176553449Y-135078274D01*
X176598507Y-135039232D01*
X176607558Y-135034620D01*
X176779459Y-134909727D01*
X176779464Y-134909723D01*
X176929723Y-134759464D01*
X176929727Y-134759459D01*
X177054620Y-134587557D01*
X177151095Y-134398217D01*
X177216757Y-134196130D01*
X177216757Y-134196127D01*
X177250000Y-133986246D01*
X177250000Y-133773753D01*
X177216757Y-133563872D01*
X177216757Y-133563869D01*
X177151095Y-133361782D01*
X177054620Y-133172442D01*
X176929727Y-133000540D01*
X176929723Y-133000535D01*
X176779464Y-132850276D01*
X176779459Y-132850272D01*
X176607555Y-132725377D01*
X176598500Y-132720763D01*
X176547706Y-132672788D01*
X176530912Y-132604966D01*
X176553451Y-132538832D01*
X176598508Y-132499793D01*
X176607816Y-132495051D01*
X176724483Y-132410288D01*
X176779786Y-132370109D01*
X176779788Y-132370106D01*
X176779792Y-132370104D01*
X176930104Y-132219792D01*
X176930106Y-132219788D01*
X176930109Y-132219786D01*
X177055048Y-132047820D01*
X177055047Y-132047820D01*
X177055051Y-132047816D01*
X177151557Y-131858412D01*
X177217246Y-131656243D01*
X177250500Y-131446287D01*
X177250500Y-131233713D01*
X177217246Y-131023757D01*
X177151557Y-130821588D01*
X177055051Y-130632184D01*
X177055049Y-130632181D01*
X177055048Y-130632179D01*
X176930109Y-130460213D01*
X176816569Y-130346673D01*
X176783084Y-130285350D01*
X176788068Y-130215658D01*
X176829940Y-130159725D01*
X176860915Y-130142810D01*
X176992331Y-130093796D01*
X177107546Y-130007546D01*
X177193796Y-129892331D01*
X177244091Y-129757483D01*
X177249062Y-129711242D01*
X177275799Y-129646694D01*
X177333191Y-129606846D01*
X177372351Y-129600500D01*
X182978844Y-129600500D01*
X182978845Y-129600499D01*
X183133497Y-129569737D01*
X183279179Y-129509394D01*
X183406609Y-129424248D01*
X183473286Y-129403370D01*
X183540666Y-129421854D01*
X183587357Y-129473833D01*
X183599500Y-129527350D01*
X183599500Y-131517060D01*
X183579815Y-131584099D01*
X183563181Y-131604741D01*
X174689711Y-140478211D01*
X174633960Y-140533962D01*
X174578209Y-140589712D01*
X174490609Y-140720814D01*
X174490602Y-140720827D01*
X174430264Y-140866498D01*
X174430261Y-140866510D01*
X174399500Y-141021153D01*
X174399500Y-149729560D01*
X174379815Y-149796599D01*
X174363181Y-149817241D01*
X165417241Y-158763181D01*
X165355918Y-158796666D01*
X165329560Y-158799500D01*
X149521155Y-158799500D01*
X149366510Y-158830261D01*
X149366498Y-158830264D01*
X149220827Y-158890602D01*
X149220814Y-158890609D01*
X149089711Y-158978210D01*
X149089707Y-158978213D01*
X148978213Y-159089707D01*
X148978210Y-159089711D01*
X148890609Y-159220814D01*
X148890602Y-159220827D01*
X148830264Y-159366498D01*
X148830261Y-159366510D01*
X148799500Y-159521153D01*
X148799500Y-159678846D01*
X148830261Y-159833489D01*
X148830264Y-159833501D01*
X148890602Y-159979172D01*
X148890609Y-159979185D01*
X148978210Y-160110288D01*
X148978213Y-160110292D01*
X149089707Y-160221786D01*
X149089711Y-160221789D01*
X149220814Y-160309390D01*
X149220827Y-160309397D01*
X149366498Y-160369735D01*
X149366503Y-160369737D01*
X149521153Y-160400499D01*
X149521156Y-160400500D01*
X149521158Y-160400500D01*
X165791344Y-160400500D01*
X165791345Y-160400499D01*
X165945997Y-160369737D01*
X166091679Y-160309394D01*
X166222789Y-160221789D01*
X166803835Y-159640743D01*
X166865158Y-159607258D01*
X166934849Y-159612242D01*
X166990783Y-159654113D01*
X167015200Y-159719578D01*
X167013133Y-159752615D01*
X166999500Y-159821153D01*
X166999500Y-159978846D01*
X167030261Y-160133489D01*
X167030264Y-160133501D01*
X167090602Y-160279172D01*
X167090609Y-160279185D01*
X167178210Y-160410288D01*
X167178213Y-160410292D01*
X167289707Y-160521786D01*
X167289711Y-160521789D01*
X167420814Y-160609390D01*
X167420827Y-160609397D01*
X167566498Y-160669735D01*
X167566503Y-160669737D01*
X167721153Y-160700499D01*
X167721156Y-160700500D01*
X167721158Y-160700500D01*
X167878844Y-160700500D01*
X167878845Y-160700499D01*
X168033497Y-160669737D01*
X168179179Y-160609394D01*
X168273459Y-160546398D01*
X168340136Y-160525520D01*
X168342350Y-160525500D01*
X180961607Y-160525500D01*
X181022029Y-160513481D01*
X181082452Y-160501463D01*
X181115792Y-160487652D01*
X181196286Y-160454312D01*
X181262169Y-160410289D01*
X181298733Y-160385858D01*
X181385858Y-160298733D01*
X181385859Y-160298731D01*
X181392925Y-160291665D01*
X181392928Y-160291661D01*
X184698729Y-156985860D01*
X184698733Y-156985858D01*
X184785858Y-156898733D01*
X184820084Y-156847509D01*
X184854312Y-156796286D01*
X184901463Y-156682451D01*
X184925500Y-156561607D01*
X184925500Y-156438393D01*
X184925500Y-151838394D01*
X184901463Y-151717548D01*
X184901461Y-151717543D01*
X184887488Y-151683808D01*
X184887483Y-151683798D01*
X184885430Y-151678842D01*
X184854312Y-151603714D01*
X184820084Y-151552490D01*
X184785858Y-151501267D01*
X184785856Y-151501264D01*
X184695637Y-151411045D01*
X184695606Y-151411016D01*
X184493150Y-151208560D01*
X184485860Y-151201270D01*
X184485858Y-151201267D01*
X184398733Y-151114142D01*
X184347509Y-151079915D01*
X184296286Y-151045688D01*
X184296283Y-151045686D01*
X184296280Y-151045685D01*
X184222603Y-151015168D01*
X184222601Y-151015167D01*
X184215792Y-151012347D01*
X184182452Y-150998537D01*
X184122029Y-150986518D01*
X184117306Y-150985578D01*
X184117304Y-150985578D01*
X184061610Y-150974500D01*
X184061607Y-150974500D01*
X184061606Y-150974500D01*
X183665323Y-150974500D01*
X183598284Y-150954815D01*
X183566057Y-150924811D01*
X183495047Y-150829955D01*
X183495044Y-150829952D01*
X183379835Y-150743706D01*
X183379828Y-150743702D01*
X183244982Y-150693408D01*
X183244983Y-150693408D01*
X183185383Y-150687001D01*
X183185381Y-150687000D01*
X183185373Y-150687000D01*
X183185365Y-150687000D01*
X181883923Y-150687000D01*
X181816884Y-150667315D01*
X181771129Y-150614511D01*
X181764148Y-150595092D01*
X181753892Y-150556814D01*
X181688000Y-150442686D01*
X181594814Y-150349500D01*
X181537750Y-150316554D01*
X181480687Y-150283608D01*
X181417039Y-150266554D01*
X181353392Y-150249500D01*
X177753392Y-150249500D01*
X177621608Y-150249500D01*
X177494312Y-150283608D01*
X177380186Y-150349500D01*
X177380183Y-150349502D01*
X177287002Y-150442683D01*
X177287000Y-150442686D01*
X177221108Y-150556813D01*
X177210852Y-150595092D01*
X177196359Y-150618869D01*
X177184790Y-150644203D01*
X177178425Y-150648293D01*
X177174488Y-150654753D01*
X177149439Y-150666920D01*
X177126012Y-150681977D01*
X177115265Y-150683522D01*
X177111641Y-150685283D01*
X177091077Y-150687000D01*
X176957940Y-150687000D01*
X176890901Y-150667315D01*
X176870259Y-150650681D01*
X176036819Y-149817241D01*
X176003334Y-149755918D01*
X176000500Y-149729560D01*
X176000500Y-141482940D01*
X176020185Y-141415901D01*
X176036819Y-141395259D01*
X185021786Y-132410292D01*
X185021789Y-132410289D01*
X185109394Y-132279179D01*
X185169738Y-132133497D01*
X185200500Y-131978842D01*
X185200500Y-131821157D01*
X185200500Y-127221158D01*
X185200500Y-86621158D01*
X185185806Y-86547289D01*
X185169737Y-86466503D01*
X185143737Y-86403733D01*
X185131829Y-86374985D01*
X185109397Y-86320826D01*
X185109390Y-86320814D01*
X185021790Y-86189712D01*
X185001813Y-86169735D01*
X184910289Y-86078211D01*
X180962539Y-82130461D01*
X177010292Y-78178213D01*
X177010288Y-78178210D01*
X176879185Y-78090609D01*
X176879172Y-78090602D01*
X176733501Y-78030264D01*
X176733489Y-78030261D01*
X176578845Y-77999500D01*
X176578842Y-77999500D01*
X166378842Y-77999500D01*
X166221158Y-77999500D01*
X166221155Y-77999500D01*
X166066510Y-78030261D01*
X166066498Y-78030264D01*
X165920827Y-78090602D01*
X165920814Y-78090609D01*
X165789711Y-78178210D01*
X165789707Y-78178213D01*
X165678213Y-78289707D01*
X165678210Y-78289711D01*
X165590609Y-78420814D01*
X165590602Y-78420827D01*
X165530264Y-78566498D01*
X165530261Y-78566510D01*
X165499500Y-78721153D01*
X165499500Y-78878846D01*
X165530261Y-79033489D01*
X165530264Y-79033501D01*
X165590602Y-79179172D01*
X165590609Y-79179185D01*
X165678210Y-79310288D01*
X165678213Y-79310292D01*
X165764270Y-79396349D01*
X165797755Y-79457672D01*
X165792771Y-79527364D01*
X165764270Y-79571711D01*
X165461622Y-79874358D01*
X165461614Y-79874366D01*
X165458989Y-79876992D01*
X165458987Y-79876994D01*
X165371862Y-79964119D01*
X165345405Y-80003715D01*
X165340705Y-80010748D01*
X165340703Y-80010751D01*
X165303410Y-80066562D01*
X165303404Y-80066574D01*
X165283399Y-80114869D01*
X165239558Y-80169272D01*
X165173263Y-80191336D01*
X165105564Y-80174056D01*
X165081158Y-80155096D01*
X164959650Y-80033588D01*
X164959649Y-80033587D01*
X164959648Y-80033586D01*
X164819508Y-79931768D01*
X164665165Y-79853127D01*
X164500421Y-79799598D01*
X164500419Y-79799597D01*
X164500418Y-79799597D01*
X164368991Y-79778781D01*
X164329331Y-79772500D01*
X164156109Y-79772500D01*
X164116448Y-79778781D01*
X163985022Y-79799597D01*
X163820272Y-79853128D01*
X163665931Y-79931768D01*
X163617219Y-79967160D01*
X163525792Y-80033586D01*
X163525790Y-80033588D01*
X163525789Y-80033588D01*
X163403308Y-80156069D01*
X163403308Y-80156070D01*
X163403306Y-80156072D01*
X163385631Y-80180400D01*
X163301488Y-80296211D01*
X163222848Y-80450552D01*
X163169317Y-80615302D01*
X163142220Y-80786389D01*
X163142220Y-81759610D01*
X163168734Y-81927017D01*
X163169318Y-81930701D01*
X163222847Y-82095445D01*
X163301488Y-82249788D01*
X163403306Y-82389928D01*
X163525792Y-82512414D01*
X163665932Y-82614232D01*
X163820275Y-82692873D01*
X163985019Y-82746402D01*
X164156109Y-82773500D01*
X164156110Y-82773500D01*
X164329330Y-82773500D01*
X164329331Y-82773500D01*
X164500421Y-82746402D01*
X164665165Y-82692873D01*
X164819508Y-82614232D01*
X164959648Y-82512414D01*
X165020539Y-82451523D01*
X165081862Y-82418038D01*
X165151554Y-82423022D01*
X165207487Y-82464894D01*
X165231904Y-82530358D01*
X165232220Y-82539204D01*
X165232220Y-88551827D01*
X165212535Y-88618866D01*
X165195901Y-88639508D01*
X164349144Y-89486264D01*
X164349138Y-89486272D01*
X164280692Y-89588705D01*
X164280684Y-89588719D01*
X164250596Y-89661362D01*
X164247347Y-89669207D01*
X164233537Y-89702548D01*
X164226197Y-89739452D01*
X164214384Y-89798842D01*
X164213663Y-89802464D01*
X164213663Y-89802466D01*
X164209500Y-89823393D01*
X164209500Y-101496611D01*
X164233535Y-101617444D01*
X164233540Y-101617461D01*
X164280684Y-101731278D01*
X164280687Y-101731285D01*
X164292860Y-101749501D01*
X164292861Y-101749503D01*
X164349140Y-101833731D01*
X164349141Y-101833732D01*
X164349142Y-101833733D01*
X164436267Y-101920858D01*
X164436268Y-101920858D01*
X164443335Y-101927925D01*
X164443334Y-101927925D01*
X164443338Y-101927928D01*
X164674205Y-102158795D01*
X164707690Y-102220118D01*
X164708141Y-102222285D01*
X164730261Y-102333489D01*
X164730264Y-102333501D01*
X164790602Y-102479172D01*
X164790609Y-102479185D01*
X164828363Y-102535687D01*
X164849241Y-102602364D01*
X164830757Y-102669745D01*
X164778778Y-102716435D01*
X164709808Y-102727611D01*
X164668972Y-102715066D01*
X164665169Y-102713128D01*
X164581237Y-102685857D01*
X164500421Y-102659598D01*
X164500419Y-102659597D01*
X164500418Y-102659597D01*
X164368991Y-102638781D01*
X164329331Y-102632500D01*
X164156109Y-102632500D01*
X164116448Y-102638781D01*
X163985022Y-102659597D01*
X163820272Y-102713128D01*
X163665931Y-102791768D01*
X163619505Y-102825499D01*
X163525792Y-102893586D01*
X163525790Y-102893588D01*
X163525789Y-102893588D01*
X163403308Y-103016069D01*
X163403308Y-103016070D01*
X163403306Y-103016072D01*
X163376334Y-103053196D01*
X163301488Y-103156211D01*
X163222848Y-103310552D01*
X163169317Y-103475302D01*
X163144253Y-103633550D01*
X163142220Y-103646389D01*
X163142220Y-104619611D01*
X163169318Y-104790701D01*
X163222847Y-104955445D01*
X163301488Y-105109788D01*
X163403306Y-105249928D01*
X163525792Y-105372414D01*
X163665932Y-105474232D01*
X163820275Y-105552873D01*
X163985019Y-105606402D01*
X164156109Y-105633500D01*
X164156110Y-105633500D01*
X164329330Y-105633500D01*
X164329331Y-105633500D01*
X164500421Y-105606402D01*
X164665165Y-105552873D01*
X164819508Y-105474232D01*
X164959648Y-105372414D01*
X165082134Y-105249928D01*
X165183952Y-105109788D01*
X165262593Y-104955445D01*
X165316122Y-104790701D01*
X165343220Y-104619611D01*
X165343220Y-103646389D01*
X165316122Y-103475299D01*
X165262593Y-103310555D01*
X165183952Y-103156212D01*
X165109105Y-103053195D01*
X165085626Y-102987389D01*
X165101451Y-102919335D01*
X165151557Y-102870640D01*
X165220035Y-102856765D01*
X165256872Y-102865747D01*
X165266503Y-102869737D01*
X165388315Y-102893967D01*
X165421153Y-102900499D01*
X165421156Y-102900500D01*
X165421158Y-102900500D01*
X165578844Y-102900500D01*
X165578845Y-102900499D01*
X165733497Y-102869737D01*
X165779515Y-102850675D01*
X165848982Y-102843206D01*
X165911461Y-102874480D01*
X165947115Y-102934568D01*
X165944622Y-103004393D01*
X165927285Y-103038121D01*
X165841490Y-103156207D01*
X165762848Y-103310552D01*
X165709317Y-103475302D01*
X165684253Y-103633550D01*
X165682220Y-103646389D01*
X165682220Y-104619611D01*
X165709318Y-104790701D01*
X165762847Y-104955445D01*
X165841488Y-105109788D01*
X165943306Y-105249928D01*
X166065792Y-105372414D01*
X166205932Y-105474232D01*
X166360275Y-105552873D01*
X166525019Y-105606402D01*
X166696109Y-105633500D01*
X166696110Y-105633500D01*
X166869330Y-105633500D01*
X166869331Y-105633500D01*
X167040421Y-105606402D01*
X167205165Y-105552873D01*
X167359508Y-105474232D01*
X167499648Y-105372414D01*
X167622134Y-105249928D01*
X167723952Y-105109788D01*
X167802593Y-104955445D01*
X167856122Y-104790701D01*
X167883220Y-104619611D01*
X167883220Y-103646389D01*
X168222220Y-103646389D01*
X168222220Y-104619611D01*
X168249318Y-104790701D01*
X168302847Y-104955445D01*
X168381488Y-105109788D01*
X168483306Y-105249928D01*
X168605792Y-105372414D01*
X168745932Y-105474232D01*
X168900275Y-105552873D01*
X169065019Y-105606402D01*
X169236109Y-105633500D01*
X169236110Y-105633500D01*
X169409330Y-105633500D01*
X169409331Y-105633500D01*
X169580421Y-105606402D01*
X169745165Y-105552873D01*
X169899508Y-105474232D01*
X170039648Y-105372414D01*
X170162134Y-105249928D01*
X170263952Y-105109788D01*
X170342593Y-104955445D01*
X170396122Y-104790701D01*
X170423220Y-104619611D01*
X170423220Y-103646428D01*
X170762720Y-103646428D01*
X170762720Y-104619571D01*
X170789805Y-104790584D01*
X170843311Y-104955257D01*
X170921915Y-105109524D01*
X171023687Y-105249602D01*
X171146117Y-105372032D01*
X171286195Y-105473804D01*
X171440462Y-105552408D01*
X171605135Y-105605914D01*
X171776149Y-105633000D01*
X171949291Y-105633000D01*
X172120304Y-105605914D01*
X172284977Y-105552408D01*
X172439244Y-105473804D01*
X172579322Y-105372032D01*
X172701752Y-105249602D01*
X172803524Y-105109524D01*
X172882128Y-104955257D01*
X172935634Y-104790584D01*
X172962720Y-104619571D01*
X172962720Y-103646428D01*
X173302720Y-103646428D01*
X173302720Y-104619571D01*
X173329805Y-104790584D01*
X173383311Y-104955257D01*
X173461915Y-105109524D01*
X173563687Y-105249602D01*
X173686117Y-105372032D01*
X173826195Y-105473804D01*
X173980462Y-105552408D01*
X174145135Y-105605914D01*
X174316149Y-105633000D01*
X174489291Y-105633000D01*
X174660304Y-105605914D01*
X174824977Y-105552408D01*
X174979244Y-105473804D01*
X175119322Y-105372032D01*
X175241752Y-105249602D01*
X175343524Y-105109524D01*
X175422128Y-104955257D01*
X175475634Y-104790584D01*
X175502720Y-104619571D01*
X175502720Y-103646428D01*
X175475634Y-103475415D01*
X175422128Y-103310742D01*
X175343524Y-103156475D01*
X175241752Y-103016397D01*
X175119322Y-102893967D01*
X174979244Y-102792195D01*
X174824977Y-102713591D01*
X174660304Y-102660085D01*
X174489291Y-102633000D01*
X174316149Y-102633000D01*
X174145135Y-102660085D01*
X173980462Y-102713591D01*
X173826195Y-102792195D01*
X173686117Y-102893967D01*
X173563687Y-103016397D01*
X173461915Y-103156475D01*
X173383311Y-103310742D01*
X173329805Y-103475415D01*
X173302720Y-103646428D01*
X172962720Y-103646428D01*
X172935634Y-103475415D01*
X172882128Y-103310742D01*
X172803524Y-103156475D01*
X172701752Y-103016397D01*
X172579322Y-102893967D01*
X172439244Y-102792195D01*
X172284977Y-102713591D01*
X172120304Y-102660085D01*
X171949291Y-102633000D01*
X171776149Y-102633000D01*
X171605135Y-102660085D01*
X171440462Y-102713591D01*
X171286195Y-102792195D01*
X171146117Y-102893967D01*
X171023687Y-103016397D01*
X170921915Y-103156475D01*
X170843311Y-103310742D01*
X170789805Y-103475415D01*
X170762720Y-103646428D01*
X170423220Y-103646428D01*
X170423220Y-103646389D01*
X170396122Y-103475299D01*
X170342593Y-103310555D01*
X170263952Y-103156212D01*
X170162134Y-103016072D01*
X170039648Y-102893586D01*
X169899508Y-102791768D01*
X169745165Y-102713127D01*
X169580421Y-102659598D01*
X169580419Y-102659597D01*
X169580418Y-102659597D01*
X169448991Y-102638781D01*
X169409331Y-102632500D01*
X169236109Y-102632500D01*
X169196448Y-102638781D01*
X169065022Y-102659597D01*
X168900272Y-102713128D01*
X168745931Y-102791768D01*
X168699505Y-102825499D01*
X168605792Y-102893586D01*
X168605790Y-102893588D01*
X168605789Y-102893588D01*
X168483308Y-103016069D01*
X168483308Y-103016070D01*
X168483306Y-103016072D01*
X168456334Y-103053196D01*
X168381488Y-103156211D01*
X168302848Y-103310552D01*
X168249317Y-103475302D01*
X168224253Y-103633550D01*
X168222220Y-103646389D01*
X167883220Y-103646389D01*
X167856122Y-103475299D01*
X167802593Y-103310555D01*
X167723952Y-103156212D01*
X167622134Y-103016072D01*
X167499648Y-102893586D01*
X167359508Y-102791768D01*
X167205165Y-102713127D01*
X167040421Y-102659598D01*
X167040419Y-102659597D01*
X167040418Y-102659597D01*
X166908991Y-102638781D01*
X166869331Y-102632500D01*
X166696109Y-102632500D01*
X166656448Y-102638781D01*
X166525022Y-102659597D01*
X166360269Y-102713129D01*
X166317900Y-102734717D01*
X166249231Y-102747613D01*
X166184490Y-102721336D01*
X166144234Y-102664229D01*
X166141242Y-102594424D01*
X166158504Y-102555341D01*
X166209394Y-102479179D01*
X166269737Y-102333497D01*
X166300500Y-102178842D01*
X166300500Y-102021158D01*
X166300500Y-102021155D01*
X166300499Y-102021153D01*
X166281955Y-101927928D01*
X166269737Y-101866503D01*
X166256163Y-101833733D01*
X166209397Y-101720827D01*
X166209390Y-101720814D01*
X166121789Y-101589711D01*
X166121786Y-101589707D01*
X166010292Y-101478213D01*
X166010288Y-101478210D01*
X165879185Y-101390609D01*
X165879172Y-101390602D01*
X165733501Y-101330264D01*
X165733489Y-101330261D01*
X165622286Y-101308141D01*
X165605530Y-101299376D01*
X165587049Y-101295356D01*
X165562007Y-101276610D01*
X165560375Y-101275756D01*
X165558795Y-101274205D01*
X165496818Y-101212227D01*
X165463334Y-101150903D01*
X165460500Y-101124546D01*
X165460500Y-93334499D01*
X165480185Y-93267460D01*
X165532989Y-93221705D01*
X165584500Y-93210499D01*
X167292568Y-93210499D01*
X167359607Y-93230184D01*
X167405362Y-93282988D01*
X167415306Y-93352146D01*
X167403053Y-93390794D01*
X167327454Y-93539163D01*
X167269059Y-93718881D01*
X167239500Y-93905513D01*
X167239500Y-94094486D01*
X167269059Y-94281118D01*
X167327454Y-94460836D01*
X167413240Y-94629199D01*
X167524310Y-94782073D01*
X167657927Y-94915690D01*
X167810801Y-95026760D01*
X167890347Y-95067290D01*
X167979163Y-95112545D01*
X167979165Y-95112545D01*
X167979168Y-95112547D01*
X168075497Y-95143846D01*
X168158881Y-95170940D01*
X168345514Y-95200500D01*
X168345519Y-95200500D01*
X168534486Y-95200500D01*
X168721118Y-95170940D01*
X168900832Y-95112547D01*
X169069199Y-95026760D01*
X169222073Y-94915690D01*
X169355690Y-94782073D01*
X169466760Y-94629199D01*
X169552547Y-94460832D01*
X169610940Y-94281118D01*
X169628756Y-94168632D01*
X169640500Y-94094486D01*
X169640500Y-93905513D01*
X169634013Y-93864556D01*
X169631584Y-93849223D01*
X171219500Y-93849223D01*
X171219500Y-94150776D01*
X171219501Y-94150793D01*
X171258861Y-94449766D01*
X171336913Y-94741060D01*
X171452314Y-95019661D01*
X171452318Y-95019671D01*
X171603099Y-95280831D01*
X171786679Y-95520078D01*
X171786685Y-95520085D01*
X171999914Y-95733314D01*
X171999921Y-95733320D01*
X172239168Y-95916900D01*
X172500328Y-96067681D01*
X172500329Y-96067681D01*
X172500332Y-96067683D01*
X172686072Y-96144619D01*
X172778939Y-96183086D01*
X172778940Y-96183086D01*
X172778942Y-96183087D01*
X173070232Y-96261138D01*
X173369217Y-96300500D01*
X173369224Y-96300500D01*
X173670776Y-96300500D01*
X173670783Y-96300500D01*
X173969768Y-96261138D01*
X174261058Y-96183087D01*
X174539668Y-96067683D01*
X174800832Y-95916900D01*
X175040080Y-95733319D01*
X175253319Y-95520080D01*
X175436900Y-95280832D01*
X175587683Y-95019668D01*
X175703087Y-94741058D01*
X175781138Y-94449768D01*
X175820500Y-94150783D01*
X175820500Y-93905513D01*
X177399500Y-93905513D01*
X177399500Y-94094486D01*
X177429059Y-94281118D01*
X177487454Y-94460836D01*
X177573240Y-94629199D01*
X177684310Y-94782073D01*
X177817927Y-94915690D01*
X177970801Y-95026760D01*
X178050347Y-95067290D01*
X178139163Y-95112545D01*
X178139165Y-95112545D01*
X178139168Y-95112547D01*
X178235497Y-95143846D01*
X178318881Y-95170940D01*
X178505514Y-95200500D01*
X178505519Y-95200500D01*
X178694486Y-95200500D01*
X178881118Y-95170940D01*
X179060832Y-95112547D01*
X179229199Y-95026760D01*
X179382073Y-94915690D01*
X179515690Y-94782073D01*
X179626760Y-94629199D01*
X179712547Y-94460832D01*
X179770940Y-94281118D01*
X179788756Y-94168632D01*
X179800500Y-94094486D01*
X179800500Y-93905513D01*
X179770940Y-93718881D01*
X179713626Y-93542490D01*
X179712547Y-93539168D01*
X179712545Y-93539165D01*
X179712545Y-93539163D01*
X179636817Y-93390539D01*
X179626760Y-93370801D01*
X179515690Y-93217927D01*
X179382073Y-93084310D01*
X179229199Y-92973240D01*
X179188422Y-92952463D01*
X179060836Y-92887454D01*
X178881118Y-92829059D01*
X178694486Y-92799500D01*
X178694481Y-92799500D01*
X178505519Y-92799500D01*
X178505514Y-92799500D01*
X178318881Y-92829059D01*
X178139163Y-92887454D01*
X177970800Y-92973240D01*
X177888078Y-93033342D01*
X177817927Y-93084310D01*
X177817925Y-93084312D01*
X177817924Y-93084312D01*
X177684312Y-93217924D01*
X177684312Y-93217925D01*
X177684310Y-93217927D01*
X177648322Y-93267460D01*
X177573240Y-93370800D01*
X177487454Y-93539163D01*
X177429059Y-93718881D01*
X177399500Y-93905513D01*
X175820500Y-93905513D01*
X175820500Y-93849217D01*
X175781138Y-93550232D01*
X175703087Y-93258942D01*
X175702336Y-93257130D01*
X175649148Y-93128722D01*
X175587683Y-92980332D01*
X175583588Y-92973240D01*
X175436900Y-92719168D01*
X175253320Y-92479921D01*
X175253314Y-92479914D01*
X175040085Y-92266685D01*
X175040078Y-92266679D01*
X174800831Y-92083099D01*
X174539671Y-91932318D01*
X174539661Y-91932314D01*
X174261060Y-91816913D01*
X173969766Y-91738861D01*
X173670793Y-91699501D01*
X173670788Y-91699500D01*
X173670783Y-91699500D01*
X173369217Y-91699500D01*
X173369211Y-91699500D01*
X173369206Y-91699501D01*
X173070233Y-91738861D01*
X172778939Y-91816913D01*
X172500338Y-91932314D01*
X172500328Y-91932318D01*
X172239168Y-92083099D01*
X171999921Y-92266679D01*
X171999914Y-92266685D01*
X171786685Y-92479914D01*
X171786679Y-92479921D01*
X171603099Y-92719168D01*
X171452318Y-92980328D01*
X171452314Y-92980338D01*
X171336913Y-93258939D01*
X171258861Y-93550233D01*
X171219501Y-93849206D01*
X171219500Y-93849223D01*
X169631584Y-93849223D01*
X169610940Y-93718881D01*
X169553626Y-93542490D01*
X169552547Y-93539168D01*
X169552545Y-93539165D01*
X169552545Y-93539163D01*
X169525424Y-93485937D01*
X169476815Y-93390535D01*
X169463920Y-93321870D01*
X169490196Y-93257130D01*
X169547302Y-93216872D01*
X169591207Y-93211065D01*
X169591207Y-93210500D01*
X169824727Y-93210500D01*
X169824734Y-93210500D01*
X170052238Y-93180548D01*
X170273887Y-93121158D01*
X170485888Y-93033344D01*
X170684612Y-92918611D01*
X170866661Y-92778919D01*
X170866665Y-92778914D01*
X170866670Y-92778911D01*
X171028911Y-92616670D01*
X171028914Y-92616665D01*
X171028919Y-92616661D01*
X171168611Y-92434612D01*
X171283344Y-92235888D01*
X171371158Y-92023887D01*
X171430548Y-91802238D01*
X171460500Y-91574734D01*
X171460500Y-91345266D01*
X171430548Y-91117762D01*
X171371158Y-90896113D01*
X171307525Y-90742489D01*
X171283349Y-90684123D01*
X171283346Y-90684117D01*
X171283344Y-90684112D01*
X171168611Y-90485388D01*
X171168608Y-90485385D01*
X171168607Y-90485382D01*
X171028918Y-90303338D01*
X171028911Y-90303330D01*
X170866670Y-90141089D01*
X170866661Y-90141081D01*
X170684617Y-90001392D01*
X170626210Y-89967671D01*
X170485888Y-89886656D01*
X170485876Y-89886650D01*
X170273887Y-89798842D01*
X170052238Y-89739452D01*
X170014215Y-89734446D01*
X169824741Y-89709500D01*
X169824734Y-89709500D01*
X169595266Y-89709500D01*
X169595258Y-89709500D01*
X169378715Y-89738009D01*
X169367762Y-89739452D01*
X169274076Y-89764554D01*
X169146112Y-89798842D01*
X168934123Y-89886650D01*
X168934109Y-89886657D01*
X168735382Y-90001392D01*
X168553338Y-90141081D01*
X168422180Y-90272239D01*
X168360857Y-90305724D01*
X168291165Y-90300740D01*
X168235232Y-90258868D01*
X168210815Y-90193404D01*
X168210499Y-90184558D01*
X168210499Y-90162129D01*
X168210498Y-90162123D01*
X168208236Y-90141081D01*
X168204091Y-90102517D01*
X168200777Y-90093633D01*
X168153797Y-89967671D01*
X168153793Y-89967664D01*
X168067547Y-89852455D01*
X168067544Y-89852452D01*
X167952335Y-89766206D01*
X167952328Y-89766202D01*
X167817482Y-89715908D01*
X167817483Y-89715908D01*
X167757883Y-89709501D01*
X167757881Y-89709500D01*
X167757873Y-89709500D01*
X167757865Y-89709500D01*
X167532220Y-89709500D01*
X167465181Y-89689815D01*
X167419426Y-89637011D01*
X167408220Y-89585500D01*
X167408220Y-82642021D01*
X167427905Y-82574982D01*
X167459336Y-82541702D01*
X167459546Y-82541550D01*
X167499648Y-82512414D01*
X167622134Y-82389928D01*
X167723952Y-82249788D01*
X167802593Y-82095445D01*
X167856122Y-81930701D01*
X167883220Y-81759611D01*
X167883220Y-81016492D01*
X167889458Y-80995246D01*
X167891038Y-80973158D01*
X167899110Y-80962374D01*
X167902905Y-80949453D01*
X167919638Y-80934953D01*
X167932910Y-80917225D01*
X167945530Y-80912517D01*
X167955709Y-80903698D01*
X167977626Y-80900546D01*
X167998374Y-80892808D01*
X168011534Y-80895670D01*
X168024867Y-80893754D01*
X168045010Y-80902953D01*
X168066647Y-80907660D01*
X168084372Y-80920928D01*
X168088423Y-80922779D01*
X168094901Y-80928811D01*
X168183181Y-81017091D01*
X168216666Y-81078414D01*
X168219500Y-81104772D01*
X168219500Y-81755931D01*
X168246598Y-81927021D01*
X168297833Y-82084706D01*
X168300128Y-82091767D01*
X168354001Y-82197500D01*
X168378768Y-82246108D01*
X168480586Y-82386248D01*
X168603072Y-82508734D01*
X168743212Y-82610552D01*
X168897555Y-82689193D01*
X169062299Y-82742722D01*
X169233389Y-82769820D01*
X169233390Y-82769820D01*
X169406610Y-82769820D01*
X169406611Y-82769820D01*
X169577701Y-82742722D01*
X169742445Y-82689193D01*
X169896788Y-82610552D01*
X170036928Y-82508734D01*
X170159414Y-82386248D01*
X170261232Y-82246108D01*
X170339873Y-82091765D01*
X170393402Y-81927021D01*
X170420500Y-81755931D01*
X170420500Y-80782709D01*
X170393402Y-80611619D01*
X170339873Y-80446875D01*
X170261232Y-80292532D01*
X170159414Y-80152392D01*
X170036928Y-80029906D01*
X169896788Y-79928088D01*
X169749669Y-79853128D01*
X169742447Y-79849448D01*
X169742446Y-79849447D01*
X169742445Y-79849447D01*
X169720849Y-79842430D01*
X169663175Y-79802994D01*
X169635977Y-79738635D01*
X169647892Y-79669789D01*
X169695136Y-79618313D01*
X169759169Y-79600500D01*
X171420831Y-79600500D01*
X171487870Y-79620185D01*
X171533625Y-79672989D01*
X171543569Y-79742147D01*
X171514544Y-79805703D01*
X171459150Y-79842430D01*
X171444412Y-79847219D01*
X171437552Y-79849448D01*
X171283211Y-79928088D01*
X171229434Y-79967160D01*
X171143072Y-80029906D01*
X171143070Y-80029908D01*
X171143069Y-80029908D01*
X171020588Y-80152389D01*
X171020588Y-80152390D01*
X171020586Y-80152392D01*
X170982206Y-80205218D01*
X170918768Y-80292531D01*
X170840128Y-80446872D01*
X170786597Y-80611622D01*
X170780327Y-80651210D01*
X170759500Y-80782709D01*
X170759500Y-81755931D01*
X170786598Y-81927021D01*
X170837833Y-82084706D01*
X170840128Y-82091767D01*
X170894001Y-82197500D01*
X170918768Y-82246108D01*
X171020586Y-82386248D01*
X171020588Y-82386250D01*
X171023181Y-82388843D01*
X171056666Y-82450166D01*
X171059500Y-82476524D01*
X171059500Y-84038846D01*
X171090261Y-84193489D01*
X171090264Y-84193501D01*
X171150602Y-84339172D01*
X171150609Y-84339185D01*
X171238210Y-84470288D01*
X171238213Y-84470292D01*
X172478211Y-85710289D01*
X172547094Y-85779172D01*
X172589712Y-85821790D01*
X172720814Y-85909390D01*
X172720827Y-85909397D01*
X172845072Y-85960860D01*
X172866503Y-85969737D01*
X173021153Y-86000499D01*
X173021156Y-86000500D01*
X173021158Y-86000500D01*
X179917060Y-86000500D01*
X179984099Y-86020185D01*
X180004741Y-86036819D01*
X180300181Y-86332259D01*
X180333666Y-86393582D01*
X180336500Y-86419940D01*
X180336500Y-87046000D01*
X180316815Y-87113039D01*
X180264011Y-87158794D01*
X180212500Y-87170000D01*
X178039155Y-87170000D01*
X177979627Y-87176401D01*
X177979620Y-87176403D01*
X177844913Y-87226645D01*
X177844906Y-87226649D01*
X177729812Y-87312809D01*
X177729809Y-87312812D01*
X177643649Y-87427906D01*
X177643645Y-87427913D01*
X177593403Y-87562620D01*
X177593401Y-87562627D01*
X177587000Y-87622155D01*
X177587000Y-87672057D01*
X177567315Y-87739096D01*
X177514511Y-87784851D01*
X177445353Y-87794795D01*
X177381797Y-87765770D01*
X177375319Y-87759738D01*
X177216670Y-87601089D01*
X177216661Y-87601081D01*
X177034617Y-87461392D01*
X176835890Y-87346657D01*
X176835876Y-87346650D01*
X176623887Y-87258842D01*
X176402238Y-87199452D01*
X176364215Y-87194446D01*
X176174741Y-87169500D01*
X176174734Y-87169500D01*
X175945266Y-87169500D01*
X175945258Y-87169500D01*
X175728715Y-87198009D01*
X175717762Y-87199452D01*
X175624076Y-87224554D01*
X175496112Y-87258842D01*
X175284123Y-87346650D01*
X175284109Y-87346657D01*
X175085382Y-87461392D01*
X174903338Y-87601081D01*
X174741081Y-87763338D01*
X174601392Y-87945382D01*
X174486657Y-88144109D01*
X174486650Y-88144123D01*
X174398842Y-88356112D01*
X174339453Y-88577759D01*
X174339451Y-88577770D01*
X174309500Y-88805258D01*
X174309500Y-89034741D01*
X174334446Y-89224215D01*
X174339452Y-89262238D01*
X174376135Y-89399142D01*
X174398842Y-89483887D01*
X174486650Y-89695876D01*
X174486657Y-89695890D01*
X174601392Y-89894617D01*
X174741081Y-90076661D01*
X174741089Y-90076670D01*
X174903330Y-90238911D01*
X174903338Y-90238918D01*
X175085382Y-90378607D01*
X175085385Y-90378608D01*
X175085388Y-90378611D01*
X175284112Y-90493344D01*
X175284117Y-90493346D01*
X175284123Y-90493349D01*
X175355290Y-90522827D01*
X175496113Y-90581158D01*
X175717762Y-90640548D01*
X175934312Y-90669057D01*
X175941460Y-90669999D01*
X175945266Y-90670500D01*
X175945273Y-90670500D01*
X176174727Y-90670500D01*
X176174734Y-90670500D01*
X176402238Y-90640548D01*
X176623887Y-90581158D01*
X176835888Y-90493344D01*
X177034612Y-90378611D01*
X177216661Y-90238919D01*
X177216665Y-90238914D01*
X177216670Y-90238911D01*
X177375319Y-90080262D01*
X177436642Y-90046777D01*
X177506334Y-90051761D01*
X177562267Y-90093633D01*
X177586684Y-90159097D01*
X177587000Y-90167943D01*
X177587000Y-90217844D01*
X177593401Y-90277372D01*
X177593403Y-90277379D01*
X177643645Y-90412086D01*
X177643649Y-90412093D01*
X177729809Y-90527187D01*
X177729812Y-90527190D01*
X177844906Y-90613350D01*
X177844913Y-90613354D01*
X177979620Y-90663596D01*
X177979627Y-90663598D01*
X178039155Y-90669999D01*
X178039172Y-90670000D01*
X180212500Y-90670000D01*
X180279539Y-90689685D01*
X180325294Y-90742489D01*
X180336500Y-90794000D01*
X180336500Y-103280060D01*
X180316815Y-103347099D01*
X180300181Y-103367741D01*
X177704741Y-105963181D01*
X177643418Y-105996666D01*
X177617060Y-105999500D01*
X119321153Y-105999500D01*
X119166510Y-106030260D01*
X119166502Y-106030262D01*
X119020824Y-106090604D01*
X119020814Y-106090609D01*
X118889711Y-106178210D01*
X118889707Y-106178213D01*
X118637181Y-106430740D01*
X118575858Y-106464225D01*
X118506166Y-106459241D01*
X118450233Y-106417369D01*
X118425816Y-106351905D01*
X118425500Y-106343059D01*
X118425500Y-105010451D01*
X118445185Y-104943412D01*
X118461814Y-104922775D01*
X119751041Y-103633548D01*
X119812362Y-103600065D01*
X119882054Y-103605049D01*
X119937987Y-103646921D01*
X119962404Y-103712385D01*
X119962720Y-103721231D01*
X119962720Y-104619571D01*
X119989805Y-104790584D01*
X120043311Y-104955257D01*
X120121915Y-105109524D01*
X120223687Y-105249602D01*
X120346117Y-105372032D01*
X120486195Y-105473804D01*
X120640462Y-105552408D01*
X120805135Y-105605914D01*
X120976149Y-105633000D01*
X121149291Y-105633000D01*
X121320304Y-105605914D01*
X121484977Y-105552408D01*
X121639244Y-105473804D01*
X121779322Y-105372032D01*
X121901752Y-105249602D01*
X122003524Y-105109524D01*
X122082128Y-104955257D01*
X122135634Y-104790584D01*
X122162720Y-104619571D01*
X122162720Y-103646428D01*
X122162714Y-103646389D01*
X122502220Y-103646389D01*
X122502220Y-104619611D01*
X122529318Y-104790701D01*
X122582847Y-104955445D01*
X122661488Y-105109788D01*
X122763306Y-105249928D01*
X122885792Y-105372414D01*
X123025932Y-105474232D01*
X123180275Y-105552873D01*
X123345019Y-105606402D01*
X123516109Y-105633500D01*
X123516110Y-105633500D01*
X123689330Y-105633500D01*
X123689331Y-105633500D01*
X123860421Y-105606402D01*
X124025165Y-105552873D01*
X124179508Y-105474232D01*
X124319648Y-105372414D01*
X124442134Y-105249928D01*
X124543952Y-105109788D01*
X124622593Y-104955445D01*
X124676122Y-104790701D01*
X124703220Y-104619611D01*
X124703220Y-103646389D01*
X125042220Y-103646389D01*
X125042220Y-104619611D01*
X125069318Y-104790701D01*
X125122847Y-104955445D01*
X125201488Y-105109788D01*
X125303306Y-105249928D01*
X125425792Y-105372414D01*
X125565932Y-105474232D01*
X125720275Y-105552873D01*
X125885019Y-105606402D01*
X126056109Y-105633500D01*
X126056110Y-105633500D01*
X126229330Y-105633500D01*
X126229331Y-105633500D01*
X126400421Y-105606402D01*
X126565165Y-105552873D01*
X126719508Y-105474232D01*
X126859648Y-105372414D01*
X126982134Y-105249928D01*
X127083952Y-105109788D01*
X127162593Y-104955445D01*
X127216122Y-104790701D01*
X127243220Y-104619611D01*
X127243220Y-103646389D01*
X127582220Y-103646389D01*
X127582220Y-104619611D01*
X127609318Y-104790701D01*
X127662847Y-104955445D01*
X127741488Y-105109788D01*
X127843306Y-105249928D01*
X127965792Y-105372414D01*
X128105932Y-105474232D01*
X128260275Y-105552873D01*
X128425019Y-105606402D01*
X128596109Y-105633500D01*
X128596110Y-105633500D01*
X128769330Y-105633500D01*
X128769331Y-105633500D01*
X128940421Y-105606402D01*
X129105165Y-105552873D01*
X129259508Y-105474232D01*
X129399648Y-105372414D01*
X129522134Y-105249928D01*
X129623952Y-105109788D01*
X129702593Y-104955445D01*
X129756122Y-104790701D01*
X129783220Y-104619611D01*
X129783220Y-103646389D01*
X130122220Y-103646389D01*
X130122220Y-104619611D01*
X130149318Y-104790701D01*
X130202847Y-104955445D01*
X130281488Y-105109788D01*
X130383306Y-105249928D01*
X130505792Y-105372414D01*
X130645932Y-105474232D01*
X130800275Y-105552873D01*
X130965019Y-105606402D01*
X131136109Y-105633500D01*
X131136110Y-105633500D01*
X131309330Y-105633500D01*
X131309331Y-105633500D01*
X131480421Y-105606402D01*
X131645165Y-105552873D01*
X131799508Y-105474232D01*
X131939648Y-105372414D01*
X132062134Y-105249928D01*
X132163952Y-105109788D01*
X132242593Y-104955445D01*
X132296122Y-104790701D01*
X132323220Y-104619611D01*
X132323220Y-103646389D01*
X132662220Y-103646389D01*
X132662220Y-104619611D01*
X132689318Y-104790701D01*
X132742847Y-104955445D01*
X132821488Y-105109788D01*
X132923306Y-105249928D01*
X133045792Y-105372414D01*
X133185932Y-105474232D01*
X133340275Y-105552873D01*
X133505019Y-105606402D01*
X133676109Y-105633500D01*
X133676110Y-105633500D01*
X133849330Y-105633500D01*
X133849331Y-105633500D01*
X134020421Y-105606402D01*
X134185165Y-105552873D01*
X134339508Y-105474232D01*
X134479648Y-105372414D01*
X134602134Y-105249928D01*
X134703952Y-105109788D01*
X134782593Y-104955445D01*
X134836122Y-104790701D01*
X134863220Y-104619611D01*
X134863220Y-103646389D01*
X135202220Y-103646389D01*
X135202220Y-104619611D01*
X135229318Y-104790701D01*
X135282847Y-104955445D01*
X135361488Y-105109788D01*
X135463306Y-105249928D01*
X135585792Y-105372414D01*
X135725932Y-105474232D01*
X135880275Y-105552873D01*
X136045019Y-105606402D01*
X136216109Y-105633500D01*
X136216110Y-105633500D01*
X136389330Y-105633500D01*
X136389331Y-105633500D01*
X136560421Y-105606402D01*
X136725165Y-105552873D01*
X136879508Y-105474232D01*
X137019648Y-105372414D01*
X137142134Y-105249928D01*
X137243952Y-105109788D01*
X137322593Y-104955445D01*
X137376122Y-104790701D01*
X137403220Y-104619611D01*
X137403220Y-103646389D01*
X137742220Y-103646389D01*
X137742220Y-104619611D01*
X137769318Y-104790701D01*
X137822847Y-104955445D01*
X137901488Y-105109788D01*
X138003306Y-105249928D01*
X138125792Y-105372414D01*
X138265932Y-105474232D01*
X138420275Y-105552873D01*
X138585019Y-105606402D01*
X138756109Y-105633500D01*
X138756110Y-105633500D01*
X138929330Y-105633500D01*
X138929331Y-105633500D01*
X139100421Y-105606402D01*
X139265165Y-105552873D01*
X139419508Y-105474232D01*
X139559648Y-105372414D01*
X139682134Y-105249928D01*
X139783952Y-105109788D01*
X139862593Y-104955445D01*
X139916122Y-104790701D01*
X139943220Y-104619611D01*
X139943220Y-103646389D01*
X140282220Y-103646389D01*
X140282220Y-104619611D01*
X140309318Y-104790701D01*
X140362847Y-104955445D01*
X140441488Y-105109788D01*
X140543306Y-105249928D01*
X140665792Y-105372414D01*
X140805932Y-105474232D01*
X140960275Y-105552873D01*
X141125019Y-105606402D01*
X141296109Y-105633500D01*
X141296110Y-105633500D01*
X141469330Y-105633500D01*
X141469331Y-105633500D01*
X141640421Y-105606402D01*
X141805165Y-105552873D01*
X141959508Y-105474232D01*
X142099648Y-105372414D01*
X142222134Y-105249928D01*
X142323952Y-105109788D01*
X142402593Y-104955445D01*
X142456122Y-104790701D01*
X142483220Y-104619611D01*
X142483220Y-103646389D01*
X142822220Y-103646389D01*
X142822220Y-104619611D01*
X142849318Y-104790701D01*
X142902847Y-104955445D01*
X142981488Y-105109788D01*
X143083306Y-105249928D01*
X143205792Y-105372414D01*
X143345932Y-105474232D01*
X143500275Y-105552873D01*
X143665019Y-105606402D01*
X143836109Y-105633500D01*
X143836110Y-105633500D01*
X144009330Y-105633500D01*
X144009331Y-105633500D01*
X144180421Y-105606402D01*
X144345165Y-105552873D01*
X144499508Y-105474232D01*
X144639648Y-105372414D01*
X144762134Y-105249928D01*
X144863952Y-105109788D01*
X144942593Y-104955445D01*
X144996122Y-104790701D01*
X145023220Y-104619611D01*
X145023220Y-103646389D01*
X145362220Y-103646389D01*
X145362220Y-104619611D01*
X145389318Y-104790701D01*
X145442847Y-104955445D01*
X145521488Y-105109788D01*
X145623306Y-105249928D01*
X145745792Y-105372414D01*
X145885932Y-105474232D01*
X146040275Y-105552873D01*
X146205019Y-105606402D01*
X146376109Y-105633500D01*
X146376110Y-105633500D01*
X146549330Y-105633500D01*
X146549331Y-105633500D01*
X146720421Y-105606402D01*
X146885165Y-105552873D01*
X147039508Y-105474232D01*
X147179648Y-105372414D01*
X147302134Y-105249928D01*
X147403952Y-105109788D01*
X147482593Y-104955445D01*
X147536122Y-104790701D01*
X147563220Y-104619611D01*
X147563220Y-103646389D01*
X147902220Y-103646389D01*
X147902220Y-104619611D01*
X147929318Y-104790701D01*
X147982847Y-104955445D01*
X148061488Y-105109788D01*
X148163306Y-105249928D01*
X148285792Y-105372414D01*
X148425932Y-105474232D01*
X148580275Y-105552873D01*
X148745019Y-105606402D01*
X148916109Y-105633500D01*
X148916110Y-105633500D01*
X149089330Y-105633500D01*
X149089331Y-105633500D01*
X149260421Y-105606402D01*
X149425165Y-105552873D01*
X149579508Y-105474232D01*
X149719648Y-105372414D01*
X149842134Y-105249928D01*
X149943952Y-105109788D01*
X150022593Y-104955445D01*
X150076122Y-104790701D01*
X150103220Y-104619611D01*
X150103220Y-103646389D01*
X150442220Y-103646389D01*
X150442220Y-104619611D01*
X150469318Y-104790701D01*
X150522847Y-104955445D01*
X150601488Y-105109788D01*
X150703306Y-105249928D01*
X150825792Y-105372414D01*
X150965932Y-105474232D01*
X151120275Y-105552873D01*
X151285019Y-105606402D01*
X151456109Y-105633500D01*
X151456110Y-105633500D01*
X151629330Y-105633500D01*
X151629331Y-105633500D01*
X151800421Y-105606402D01*
X151965165Y-105552873D01*
X152119508Y-105474232D01*
X152259648Y-105372414D01*
X152382134Y-105249928D01*
X152483952Y-105109788D01*
X152562593Y-104955445D01*
X152616122Y-104790701D01*
X152643220Y-104619611D01*
X152643220Y-103646389D01*
X152982220Y-103646389D01*
X152982220Y-104619611D01*
X153009318Y-104790701D01*
X153062847Y-104955445D01*
X153141488Y-105109788D01*
X153243306Y-105249928D01*
X153365792Y-105372414D01*
X153505932Y-105474232D01*
X153660275Y-105552873D01*
X153825019Y-105606402D01*
X153996109Y-105633500D01*
X153996110Y-105633500D01*
X154169330Y-105633500D01*
X154169331Y-105633500D01*
X154340421Y-105606402D01*
X154505165Y-105552873D01*
X154659508Y-105474232D01*
X154799648Y-105372414D01*
X154922134Y-105249928D01*
X155023952Y-105109788D01*
X155102593Y-104955445D01*
X155156122Y-104790701D01*
X155183220Y-104619611D01*
X155183220Y-103646389D01*
X155522220Y-103646389D01*
X155522220Y-104619611D01*
X155549318Y-104790701D01*
X155602847Y-104955445D01*
X155681488Y-105109788D01*
X155783306Y-105249928D01*
X155905792Y-105372414D01*
X156045932Y-105474232D01*
X156200275Y-105552873D01*
X156365019Y-105606402D01*
X156536109Y-105633500D01*
X156536110Y-105633500D01*
X156709330Y-105633500D01*
X156709331Y-105633500D01*
X156880421Y-105606402D01*
X157045165Y-105552873D01*
X157199508Y-105474232D01*
X157339648Y-105372414D01*
X157462134Y-105249928D01*
X157563952Y-105109788D01*
X157642593Y-104955445D01*
X157696122Y-104790701D01*
X157723220Y-104619611D01*
X157723220Y-103646389D01*
X158062220Y-103646389D01*
X158062220Y-104619611D01*
X158089318Y-104790701D01*
X158142847Y-104955445D01*
X158221488Y-105109788D01*
X158323306Y-105249928D01*
X158445792Y-105372414D01*
X158585932Y-105474232D01*
X158740275Y-105552873D01*
X158905019Y-105606402D01*
X159076109Y-105633500D01*
X159076110Y-105633500D01*
X159249330Y-105633500D01*
X159249331Y-105633500D01*
X159420421Y-105606402D01*
X159585165Y-105552873D01*
X159739508Y-105474232D01*
X159879648Y-105372414D01*
X160002134Y-105249928D01*
X160103952Y-105109788D01*
X160182593Y-104955445D01*
X160236122Y-104790701D01*
X160263220Y-104619611D01*
X160263220Y-103646389D01*
X160602220Y-103646389D01*
X160602220Y-104619611D01*
X160629318Y-104790701D01*
X160682847Y-104955445D01*
X160761488Y-105109788D01*
X160863306Y-105249928D01*
X160985792Y-105372414D01*
X161125932Y-105474232D01*
X161280275Y-105552873D01*
X161445019Y-105606402D01*
X161616109Y-105633500D01*
X161616110Y-105633500D01*
X161789330Y-105633500D01*
X161789331Y-105633500D01*
X161960421Y-105606402D01*
X162125165Y-105552873D01*
X162279508Y-105474232D01*
X162419648Y-105372414D01*
X162542134Y-105249928D01*
X162643952Y-105109788D01*
X162722593Y-104955445D01*
X162776122Y-104790701D01*
X162803220Y-104619611D01*
X162803220Y-103646389D01*
X162776122Y-103475299D01*
X162722593Y-103310555D01*
X162643952Y-103156212D01*
X162542134Y-103016072D01*
X162419648Y-102893586D01*
X162279508Y-102791768D01*
X162125165Y-102713127D01*
X161960421Y-102659598D01*
X161960419Y-102659597D01*
X161960418Y-102659597D01*
X161828991Y-102638781D01*
X161789331Y-102632500D01*
X161616109Y-102632500D01*
X161576448Y-102638781D01*
X161445022Y-102659597D01*
X161280272Y-102713128D01*
X161125931Y-102791768D01*
X161079505Y-102825499D01*
X160985792Y-102893586D01*
X160985790Y-102893588D01*
X160985789Y-102893588D01*
X160863308Y-103016069D01*
X160863308Y-103016070D01*
X160863306Y-103016072D01*
X160836334Y-103053196D01*
X160761488Y-103156211D01*
X160682848Y-103310552D01*
X160629317Y-103475302D01*
X160604253Y-103633550D01*
X160602220Y-103646389D01*
X160263220Y-103646389D01*
X160236122Y-103475299D01*
X160182593Y-103310555D01*
X160103952Y-103156212D01*
X160002134Y-103016072D01*
X159879648Y-102893586D01*
X159739508Y-102791768D01*
X159585165Y-102713127D01*
X159420421Y-102659598D01*
X159420419Y-102659597D01*
X159420418Y-102659597D01*
X159288991Y-102638781D01*
X159249331Y-102632500D01*
X159076109Y-102632500D01*
X159036448Y-102638781D01*
X158905022Y-102659597D01*
X158740272Y-102713128D01*
X158585931Y-102791768D01*
X158539505Y-102825499D01*
X158445792Y-102893586D01*
X158445790Y-102893588D01*
X158445789Y-102893588D01*
X158323308Y-103016069D01*
X158323308Y-103016070D01*
X158323306Y-103016072D01*
X158296334Y-103053196D01*
X158221488Y-103156211D01*
X158142848Y-103310552D01*
X158089317Y-103475302D01*
X158064253Y-103633550D01*
X158062220Y-103646389D01*
X157723220Y-103646389D01*
X157696122Y-103475299D01*
X157642593Y-103310555D01*
X157563952Y-103156212D01*
X157462134Y-103016072D01*
X157339648Y-102893586D01*
X157199508Y-102791768D01*
X157045165Y-102713127D01*
X156880421Y-102659598D01*
X156880419Y-102659597D01*
X156880418Y-102659597D01*
X156748991Y-102638781D01*
X156709331Y-102632500D01*
X156536109Y-102632500D01*
X156496448Y-102638781D01*
X156365022Y-102659597D01*
X156200272Y-102713128D01*
X156045931Y-102791768D01*
X155999505Y-102825499D01*
X155905792Y-102893586D01*
X155905790Y-102893588D01*
X155905789Y-102893588D01*
X155783308Y-103016069D01*
X155783308Y-103016070D01*
X155783306Y-103016072D01*
X155756334Y-103053196D01*
X155681488Y-103156211D01*
X155602848Y-103310552D01*
X155549317Y-103475302D01*
X155524253Y-103633550D01*
X155522220Y-103646389D01*
X155183220Y-103646389D01*
X155156122Y-103475299D01*
X155102593Y-103310555D01*
X155023952Y-103156212D01*
X154922134Y-103016072D01*
X154799648Y-102893586D01*
X154659508Y-102791768D01*
X154505165Y-102713127D01*
X154340421Y-102659598D01*
X154340419Y-102659597D01*
X154340418Y-102659597D01*
X154208991Y-102638781D01*
X154169331Y-102632500D01*
X153996109Y-102632500D01*
X153956448Y-102638781D01*
X153825022Y-102659597D01*
X153660272Y-102713128D01*
X153505931Y-102791768D01*
X153459505Y-102825499D01*
X153365792Y-102893586D01*
X153365790Y-102893588D01*
X153365789Y-102893588D01*
X153243308Y-103016069D01*
X153243308Y-103016070D01*
X153243306Y-103016072D01*
X153216334Y-103053196D01*
X153141488Y-103156211D01*
X153062848Y-103310552D01*
X153009317Y-103475302D01*
X152984253Y-103633550D01*
X152982220Y-103646389D01*
X152643220Y-103646389D01*
X152616122Y-103475299D01*
X152562593Y-103310555D01*
X152483952Y-103156212D01*
X152382134Y-103016072D01*
X152259648Y-102893586D01*
X152119508Y-102791768D01*
X151965165Y-102713127D01*
X151800421Y-102659598D01*
X151800419Y-102659597D01*
X151800418Y-102659597D01*
X151668991Y-102638781D01*
X151629331Y-102632500D01*
X151456109Y-102632500D01*
X151416448Y-102638781D01*
X151285022Y-102659597D01*
X151120272Y-102713128D01*
X150965931Y-102791768D01*
X150919505Y-102825499D01*
X150825792Y-102893586D01*
X150825790Y-102893588D01*
X150825789Y-102893588D01*
X150703308Y-103016069D01*
X150703308Y-103016070D01*
X150703306Y-103016072D01*
X150676334Y-103053196D01*
X150601488Y-103156211D01*
X150522848Y-103310552D01*
X150469317Y-103475302D01*
X150444253Y-103633550D01*
X150442220Y-103646389D01*
X150103220Y-103646389D01*
X150076122Y-103475299D01*
X150022593Y-103310555D01*
X149943952Y-103156212D01*
X149842134Y-103016072D01*
X149719648Y-102893586D01*
X149579508Y-102791768D01*
X149425165Y-102713127D01*
X149260421Y-102659598D01*
X149260419Y-102659597D01*
X149260418Y-102659597D01*
X149128991Y-102638781D01*
X149089331Y-102632500D01*
X148916109Y-102632500D01*
X148876448Y-102638781D01*
X148745022Y-102659597D01*
X148580272Y-102713128D01*
X148425931Y-102791768D01*
X148379505Y-102825499D01*
X148285792Y-102893586D01*
X148285790Y-102893588D01*
X148285789Y-102893588D01*
X148163308Y-103016069D01*
X148163308Y-103016070D01*
X148163306Y-103016072D01*
X148136334Y-103053196D01*
X148061488Y-103156211D01*
X147982848Y-103310552D01*
X147929317Y-103475302D01*
X147904253Y-103633550D01*
X147902220Y-103646389D01*
X147563220Y-103646389D01*
X147536122Y-103475299D01*
X147482593Y-103310555D01*
X147403952Y-103156212D01*
X147302134Y-103016072D01*
X147179648Y-102893586D01*
X147039508Y-102791768D01*
X146885165Y-102713127D01*
X146720421Y-102659598D01*
X146720419Y-102659597D01*
X146720418Y-102659597D01*
X146588991Y-102638781D01*
X146549331Y-102632500D01*
X146376109Y-102632500D01*
X146336448Y-102638781D01*
X146205022Y-102659597D01*
X146040272Y-102713128D01*
X145885931Y-102791768D01*
X145839505Y-102825499D01*
X145745792Y-102893586D01*
X145745790Y-102893588D01*
X145745789Y-102893588D01*
X145623308Y-103016069D01*
X145623308Y-103016070D01*
X145623306Y-103016072D01*
X145596334Y-103053196D01*
X145521488Y-103156211D01*
X145442848Y-103310552D01*
X145389317Y-103475302D01*
X145364253Y-103633550D01*
X145362220Y-103646389D01*
X145023220Y-103646389D01*
X144996122Y-103475299D01*
X144942593Y-103310555D01*
X144863952Y-103156212D01*
X144762134Y-103016072D01*
X144639648Y-102893586D01*
X144499508Y-102791768D01*
X144345165Y-102713127D01*
X144180421Y-102659598D01*
X144180419Y-102659597D01*
X144180418Y-102659597D01*
X144048991Y-102638781D01*
X144009331Y-102632500D01*
X143836109Y-102632500D01*
X143796448Y-102638781D01*
X143665022Y-102659597D01*
X143500272Y-102713128D01*
X143345931Y-102791768D01*
X143299505Y-102825499D01*
X143205792Y-102893586D01*
X143205790Y-102893588D01*
X143205789Y-102893588D01*
X143083308Y-103016069D01*
X143083308Y-103016070D01*
X143083306Y-103016072D01*
X143056334Y-103053196D01*
X142981488Y-103156211D01*
X142902848Y-103310552D01*
X142849317Y-103475302D01*
X142824253Y-103633550D01*
X142822220Y-103646389D01*
X142483220Y-103646389D01*
X142456122Y-103475299D01*
X142402593Y-103310555D01*
X142323952Y-103156212D01*
X142222134Y-103016072D01*
X142099648Y-102893586D01*
X141959508Y-102791768D01*
X141805165Y-102713127D01*
X141640421Y-102659598D01*
X141640419Y-102659597D01*
X141640418Y-102659597D01*
X141508991Y-102638781D01*
X141469331Y-102632500D01*
X141296109Y-102632500D01*
X141256448Y-102638781D01*
X141125022Y-102659597D01*
X140960272Y-102713128D01*
X140805931Y-102791768D01*
X140759505Y-102825499D01*
X140665792Y-102893586D01*
X140665790Y-102893588D01*
X140665789Y-102893588D01*
X140543308Y-103016069D01*
X140543308Y-103016070D01*
X140543306Y-103016072D01*
X140516334Y-103053196D01*
X140441488Y-103156211D01*
X140362848Y-103310552D01*
X140309317Y-103475302D01*
X140284253Y-103633550D01*
X140282220Y-103646389D01*
X139943220Y-103646389D01*
X139916122Y-103475299D01*
X139862593Y-103310555D01*
X139783952Y-103156212D01*
X139682134Y-103016072D01*
X139559648Y-102893586D01*
X139419508Y-102791768D01*
X139265165Y-102713127D01*
X139100421Y-102659598D01*
X139100419Y-102659597D01*
X139100418Y-102659597D01*
X138968991Y-102638781D01*
X138929331Y-102632500D01*
X138756109Y-102632500D01*
X138716448Y-102638781D01*
X138585022Y-102659597D01*
X138420272Y-102713128D01*
X138265931Y-102791768D01*
X138219505Y-102825499D01*
X138125792Y-102893586D01*
X138125790Y-102893588D01*
X138125789Y-102893588D01*
X138003308Y-103016069D01*
X138003308Y-103016070D01*
X138003306Y-103016072D01*
X137976334Y-103053196D01*
X137901488Y-103156211D01*
X137822848Y-103310552D01*
X137769317Y-103475302D01*
X137744253Y-103633550D01*
X137742220Y-103646389D01*
X137403220Y-103646389D01*
X137376122Y-103475299D01*
X137322593Y-103310555D01*
X137243952Y-103156212D01*
X137142134Y-103016072D01*
X137019648Y-102893586D01*
X136879508Y-102791768D01*
X136725165Y-102713127D01*
X136560421Y-102659598D01*
X136560419Y-102659597D01*
X136560418Y-102659597D01*
X136428991Y-102638781D01*
X136389331Y-102632500D01*
X136216109Y-102632500D01*
X136176448Y-102638781D01*
X136045022Y-102659597D01*
X135880272Y-102713128D01*
X135725931Y-102791768D01*
X135679505Y-102825499D01*
X135585792Y-102893586D01*
X135585790Y-102893588D01*
X135585789Y-102893588D01*
X135463308Y-103016069D01*
X135463308Y-103016070D01*
X135463306Y-103016072D01*
X135436334Y-103053196D01*
X135361488Y-103156211D01*
X135282848Y-103310552D01*
X135229317Y-103475302D01*
X135204253Y-103633550D01*
X135202220Y-103646389D01*
X134863220Y-103646389D01*
X134836122Y-103475299D01*
X134782593Y-103310555D01*
X134703952Y-103156212D01*
X134602134Y-103016072D01*
X134479648Y-102893586D01*
X134339508Y-102791768D01*
X134185165Y-102713127D01*
X134020421Y-102659598D01*
X134020419Y-102659597D01*
X134020418Y-102659597D01*
X133888991Y-102638781D01*
X133849331Y-102632500D01*
X133676109Y-102632500D01*
X133636448Y-102638781D01*
X133505022Y-102659597D01*
X133340272Y-102713128D01*
X133185931Y-102791768D01*
X133139505Y-102825499D01*
X133045792Y-102893586D01*
X133045790Y-102893588D01*
X133045789Y-102893588D01*
X132923308Y-103016069D01*
X132923308Y-103016070D01*
X132923306Y-103016072D01*
X132896334Y-103053196D01*
X132821488Y-103156211D01*
X132742848Y-103310552D01*
X132689317Y-103475302D01*
X132664253Y-103633550D01*
X132662220Y-103646389D01*
X132323220Y-103646389D01*
X132296122Y-103475299D01*
X132242593Y-103310555D01*
X132163952Y-103156212D01*
X132062134Y-103016072D01*
X131939648Y-102893586D01*
X131799508Y-102791768D01*
X131645165Y-102713127D01*
X131480421Y-102659598D01*
X131480419Y-102659597D01*
X131480418Y-102659597D01*
X131348991Y-102638781D01*
X131309331Y-102632500D01*
X131136109Y-102632500D01*
X131096448Y-102638781D01*
X130965022Y-102659597D01*
X130800272Y-102713128D01*
X130645931Y-102791768D01*
X130599505Y-102825499D01*
X130505792Y-102893586D01*
X130505790Y-102893588D01*
X130505789Y-102893588D01*
X130383308Y-103016069D01*
X130383308Y-103016070D01*
X130383306Y-103016072D01*
X130356334Y-103053196D01*
X130281488Y-103156211D01*
X130202848Y-103310552D01*
X130149317Y-103475302D01*
X130124253Y-103633550D01*
X130122220Y-103646389D01*
X129783220Y-103646389D01*
X129756122Y-103475299D01*
X129702593Y-103310555D01*
X129623952Y-103156212D01*
X129522134Y-103016072D01*
X129399648Y-102893586D01*
X129259508Y-102791768D01*
X129105165Y-102713127D01*
X128940421Y-102659598D01*
X128940419Y-102659597D01*
X128940418Y-102659597D01*
X128808991Y-102638781D01*
X128769331Y-102632500D01*
X128596109Y-102632500D01*
X128556448Y-102638781D01*
X128425022Y-102659597D01*
X128260272Y-102713128D01*
X128105931Y-102791768D01*
X128059505Y-102825499D01*
X127965792Y-102893586D01*
X127965790Y-102893588D01*
X127965789Y-102893588D01*
X127843308Y-103016069D01*
X127843308Y-103016070D01*
X127843306Y-103016072D01*
X127816334Y-103053196D01*
X127741488Y-103156211D01*
X127662848Y-103310552D01*
X127609317Y-103475302D01*
X127584253Y-103633550D01*
X127582220Y-103646389D01*
X127243220Y-103646389D01*
X127216122Y-103475299D01*
X127162593Y-103310555D01*
X127083952Y-103156212D01*
X126982134Y-103016072D01*
X126859648Y-102893586D01*
X126719508Y-102791768D01*
X126565165Y-102713127D01*
X126400421Y-102659598D01*
X126400419Y-102659597D01*
X126400418Y-102659597D01*
X126268991Y-102638781D01*
X126229331Y-102632500D01*
X126056109Y-102632500D01*
X126016448Y-102638781D01*
X125885022Y-102659597D01*
X125720272Y-102713128D01*
X125565931Y-102791768D01*
X125519505Y-102825499D01*
X125425792Y-102893586D01*
X125425790Y-102893588D01*
X125425789Y-102893588D01*
X125303308Y-103016069D01*
X125303308Y-103016070D01*
X125303306Y-103016072D01*
X125276334Y-103053196D01*
X125201488Y-103156211D01*
X125122848Y-103310552D01*
X125069317Y-103475302D01*
X125044253Y-103633550D01*
X125042220Y-103646389D01*
X124703220Y-103646389D01*
X124676122Y-103475299D01*
X124622593Y-103310555D01*
X124543952Y-103156212D01*
X124442134Y-103016072D01*
X124319648Y-102893586D01*
X124179508Y-102791768D01*
X124025165Y-102713127D01*
X123860421Y-102659598D01*
X123860419Y-102659597D01*
X123860418Y-102659597D01*
X123728991Y-102638781D01*
X123689331Y-102632500D01*
X123516109Y-102632500D01*
X123476448Y-102638781D01*
X123345022Y-102659597D01*
X123180272Y-102713128D01*
X123025931Y-102791768D01*
X122979505Y-102825499D01*
X122885792Y-102893586D01*
X122885790Y-102893588D01*
X122885789Y-102893588D01*
X122763308Y-103016069D01*
X122763308Y-103016070D01*
X122763306Y-103016072D01*
X122736334Y-103053196D01*
X122661488Y-103156211D01*
X122582848Y-103310552D01*
X122529317Y-103475302D01*
X122504253Y-103633550D01*
X122502220Y-103646389D01*
X122162714Y-103646389D01*
X122135634Y-103475415D01*
X122082128Y-103310742D01*
X122003524Y-103156475D01*
X121901752Y-103016397D01*
X121779322Y-102893967D01*
X121639244Y-102792195D01*
X121484977Y-102713591D01*
X121320304Y-102660085D01*
X121149291Y-102633000D01*
X121050951Y-102633000D01*
X120983912Y-102613315D01*
X120938157Y-102560511D01*
X120928213Y-102491353D01*
X120957238Y-102427797D01*
X120963258Y-102421331D01*
X140718662Y-82665926D01*
X140779983Y-82632443D01*
X140849675Y-82637427D01*
X140862635Y-82643124D01*
X140960269Y-82692870D01*
X140960275Y-82692873D01*
X141125019Y-82746402D01*
X141296109Y-82773500D01*
X141296110Y-82773500D01*
X141469330Y-82773500D01*
X141469331Y-82773500D01*
X141640421Y-82746402D01*
X141805165Y-82692873D01*
X141959508Y-82614232D01*
X142099648Y-82512414D01*
X142222134Y-82389928D01*
X142323952Y-82249788D01*
X142402593Y-82095445D01*
X142456122Y-81930701D01*
X142483220Y-81759611D01*
X142483220Y-80786389D01*
X142822220Y-80786389D01*
X142822220Y-81759610D01*
X142848734Y-81927017D01*
X142849318Y-81930701D01*
X142902847Y-82095445D01*
X142981488Y-82249788D01*
X143083306Y-82389928D01*
X143205792Y-82512414D01*
X143345932Y-82614232D01*
X143500275Y-82692873D01*
X143665019Y-82746402D01*
X143836109Y-82773500D01*
X143836110Y-82773500D01*
X144009330Y-82773500D01*
X144009331Y-82773500D01*
X144180421Y-82746402D01*
X144345165Y-82692873D01*
X144499508Y-82614232D01*
X144639648Y-82512414D01*
X144762134Y-82389928D01*
X144863952Y-82249788D01*
X144942593Y-82095445D01*
X144996122Y-81930701D01*
X145023220Y-81759611D01*
X145023220Y-80786389D01*
X145362220Y-80786389D01*
X145362220Y-81759610D01*
X145388734Y-81927017D01*
X145389318Y-81930701D01*
X145442847Y-82095445D01*
X145521488Y-82249788D01*
X145623306Y-82389928D01*
X145745792Y-82512414D01*
X145885932Y-82614232D01*
X146040275Y-82692873D01*
X146205019Y-82746402D01*
X146376109Y-82773500D01*
X146376110Y-82773500D01*
X146549330Y-82773500D01*
X146549331Y-82773500D01*
X146720421Y-82746402D01*
X146885165Y-82692873D01*
X147039508Y-82614232D01*
X147179648Y-82512414D01*
X147302134Y-82389928D01*
X147403952Y-82249788D01*
X147482593Y-82095445D01*
X147536122Y-81930701D01*
X147563220Y-81759611D01*
X147563220Y-80786389D01*
X147902220Y-80786389D01*
X147902220Y-81759610D01*
X147928734Y-81927017D01*
X147929318Y-81930701D01*
X147982847Y-82095445D01*
X148061488Y-82249788D01*
X148163306Y-82389928D01*
X148285792Y-82512414D01*
X148425932Y-82614232D01*
X148580275Y-82692873D01*
X148745019Y-82746402D01*
X148916109Y-82773500D01*
X148916110Y-82773500D01*
X149089330Y-82773500D01*
X149089331Y-82773500D01*
X149260421Y-82746402D01*
X149425165Y-82692873D01*
X149579508Y-82614232D01*
X149719648Y-82512414D01*
X149842134Y-82389928D01*
X149943952Y-82249788D01*
X150022593Y-82095445D01*
X150076122Y-81930701D01*
X150103220Y-81759611D01*
X150103220Y-80786389D01*
X150442220Y-80786389D01*
X150442220Y-81759610D01*
X150468734Y-81927017D01*
X150469318Y-81930701D01*
X150522847Y-82095445D01*
X150601488Y-82249788D01*
X150703306Y-82389928D01*
X150703308Y-82389930D01*
X150825795Y-82512417D01*
X150850490Y-82530358D01*
X150865894Y-82541550D01*
X150866104Y-82541702D01*
X150908770Y-82597031D01*
X150917220Y-82642021D01*
X150917220Y-87299339D01*
X150897535Y-87366378D01*
X150880901Y-87387020D01*
X150778213Y-87489707D01*
X150778210Y-87489711D01*
X150690609Y-87620814D01*
X150690602Y-87620827D01*
X150630264Y-87766498D01*
X150630261Y-87766510D01*
X150599500Y-87921153D01*
X150599500Y-88078846D01*
X150630261Y-88233489D01*
X150630264Y-88233501D01*
X150690602Y-88379172D01*
X150690609Y-88379185D01*
X150778210Y-88510288D01*
X150778213Y-88510292D01*
X150889707Y-88621786D01*
X150889711Y-88621789D01*
X151020814Y-88709390D01*
X151020827Y-88709397D01*
X151099894Y-88742147D01*
X151166503Y-88769737D01*
X151312672Y-88798812D01*
X151321153Y-88800499D01*
X151321156Y-88800500D01*
X151321158Y-88800500D01*
X151478844Y-88800500D01*
X151478845Y-88800499D01*
X151633497Y-88769737D01*
X151779179Y-88709394D01*
X151910289Y-88621789D01*
X152021789Y-88510289D01*
X152109394Y-88379179D01*
X152169737Y-88233497D01*
X152200500Y-88078842D01*
X152200500Y-87921158D01*
X152200500Y-87921155D01*
X152170603Y-87770856D01*
X152168220Y-87746664D01*
X152168220Y-82642021D01*
X152187905Y-82574982D01*
X152219336Y-82541702D01*
X152219546Y-82541550D01*
X152259648Y-82512414D01*
X152382134Y-82389928D01*
X152483952Y-82249788D01*
X152562593Y-82095445D01*
X152616122Y-81930701D01*
X152643220Y-81759611D01*
X152643220Y-80786389D01*
X152982220Y-80786389D01*
X152982220Y-81759610D01*
X153008734Y-81927017D01*
X153009318Y-81930701D01*
X153062847Y-82095445D01*
X153141488Y-82249788D01*
X153243306Y-82389928D01*
X153365792Y-82512414D01*
X153505932Y-82614232D01*
X153660275Y-82692873D01*
X153825019Y-82746402D01*
X153996109Y-82773500D01*
X153996110Y-82773500D01*
X154169330Y-82773500D01*
X154169331Y-82773500D01*
X154340421Y-82746402D01*
X154505165Y-82692873D01*
X154659508Y-82614232D01*
X154799648Y-82512414D01*
X154922134Y-82389928D01*
X155023952Y-82249788D01*
X155102593Y-82095445D01*
X155156122Y-81930701D01*
X155183220Y-81759611D01*
X155183220Y-80786389D01*
X155522220Y-80786389D01*
X155522220Y-81759610D01*
X155548734Y-81927017D01*
X155549318Y-81930701D01*
X155602847Y-82095445D01*
X155681488Y-82249788D01*
X155783306Y-82389928D01*
X155905792Y-82512414D01*
X156045932Y-82614232D01*
X156200275Y-82692873D01*
X156365019Y-82746402D01*
X156536109Y-82773500D01*
X156536110Y-82773500D01*
X156709330Y-82773500D01*
X156709331Y-82773500D01*
X156880421Y-82746402D01*
X157045165Y-82692873D01*
X157199508Y-82614232D01*
X157339648Y-82512414D01*
X157462134Y-82389928D01*
X157563952Y-82249788D01*
X157642593Y-82095445D01*
X157696122Y-81930701D01*
X157723220Y-81759611D01*
X157723220Y-80786389D01*
X157696122Y-80615299D01*
X157642593Y-80450555D01*
X157563952Y-80296212D01*
X157462134Y-80156072D01*
X157339648Y-80033586D01*
X157199508Y-79931768D01*
X157045165Y-79853127D01*
X156880421Y-79799598D01*
X156880419Y-79799597D01*
X156880418Y-79799597D01*
X156748991Y-79778781D01*
X156709331Y-79772500D01*
X156536109Y-79772500D01*
X156496448Y-79778781D01*
X156365022Y-79799597D01*
X156200272Y-79853128D01*
X156045931Y-79931768D01*
X155997219Y-79967160D01*
X155905792Y-80033586D01*
X155905790Y-80033588D01*
X155905789Y-80033588D01*
X155783308Y-80156069D01*
X155783308Y-80156070D01*
X155783306Y-80156072D01*
X155765631Y-80180400D01*
X155681488Y-80296211D01*
X155602848Y-80450552D01*
X155549317Y-80615302D01*
X155522220Y-80786389D01*
X155183220Y-80786389D01*
X155156122Y-80615299D01*
X155102593Y-80450555D01*
X155023952Y-80296212D01*
X154922134Y-80156072D01*
X154799648Y-80033586D01*
X154659508Y-79931768D01*
X154505165Y-79853127D01*
X154340421Y-79799598D01*
X154340419Y-79799597D01*
X154340418Y-79799597D01*
X154208991Y-79778781D01*
X154169331Y-79772500D01*
X153996109Y-79772500D01*
X153956448Y-79778781D01*
X153825022Y-79799597D01*
X153660272Y-79853128D01*
X153505931Y-79931768D01*
X153457219Y-79967160D01*
X153365792Y-80033586D01*
X153365790Y-80033588D01*
X153365789Y-80033588D01*
X153243308Y-80156069D01*
X153243308Y-80156070D01*
X153243306Y-80156072D01*
X153225631Y-80180400D01*
X153141488Y-80296211D01*
X153062848Y-80450552D01*
X153009317Y-80615302D01*
X152982220Y-80786389D01*
X152643220Y-80786389D01*
X152616122Y-80615299D01*
X152562593Y-80450555D01*
X152483952Y-80296212D01*
X152382134Y-80156072D01*
X152259648Y-80033586D01*
X152119508Y-79931768D01*
X151965165Y-79853127D01*
X151800421Y-79799598D01*
X151800419Y-79799597D01*
X151800418Y-79799597D01*
X151668991Y-79778781D01*
X151629331Y-79772500D01*
X151456109Y-79772500D01*
X151416448Y-79778781D01*
X151285022Y-79799597D01*
X151120272Y-79853128D01*
X150965931Y-79931768D01*
X150917219Y-79967160D01*
X150825792Y-80033586D01*
X150825790Y-80033588D01*
X150825789Y-80033588D01*
X150703308Y-80156069D01*
X150703308Y-80156070D01*
X150703306Y-80156072D01*
X150685631Y-80180400D01*
X150601488Y-80296211D01*
X150522848Y-80450552D01*
X150469317Y-80615302D01*
X150442220Y-80786389D01*
X150103220Y-80786389D01*
X150076122Y-80615299D01*
X150022593Y-80450555D01*
X149943952Y-80296212D01*
X149842134Y-80156072D01*
X149719648Y-80033586D01*
X149579508Y-79931768D01*
X149425165Y-79853127D01*
X149260421Y-79799598D01*
X149260419Y-79799597D01*
X149260418Y-79799597D01*
X149128991Y-79778781D01*
X149089331Y-79772500D01*
X148916109Y-79772500D01*
X148876448Y-79778781D01*
X148745022Y-79799597D01*
X148580272Y-79853128D01*
X148425931Y-79931768D01*
X148377219Y-79967160D01*
X148285792Y-80033586D01*
X148285790Y-80033588D01*
X148285789Y-80033588D01*
X148163308Y-80156069D01*
X148163308Y-80156070D01*
X148163306Y-80156072D01*
X148145631Y-80180400D01*
X148061488Y-80296211D01*
X147982848Y-80450552D01*
X147929317Y-80615302D01*
X147902220Y-80786389D01*
X147563220Y-80786389D01*
X147536122Y-80615299D01*
X147482593Y-80450555D01*
X147403952Y-80296212D01*
X147302134Y-80156072D01*
X147179648Y-80033586D01*
X147039508Y-79931768D01*
X146885165Y-79853127D01*
X146720421Y-79799598D01*
X146720419Y-79799597D01*
X146720418Y-79799597D01*
X146588991Y-79778781D01*
X146549331Y-79772500D01*
X146376109Y-79772500D01*
X146336448Y-79778781D01*
X146205022Y-79799597D01*
X146040272Y-79853128D01*
X145885931Y-79931768D01*
X145837219Y-79967160D01*
X145745792Y-80033586D01*
X145745790Y-80033588D01*
X145745789Y-80033588D01*
X145623308Y-80156069D01*
X145623308Y-80156070D01*
X145623306Y-80156072D01*
X145605631Y-80180400D01*
X145521488Y-80296211D01*
X145442848Y-80450552D01*
X145389317Y-80615302D01*
X145362220Y-80786389D01*
X145023220Y-80786389D01*
X144996122Y-80615299D01*
X144942593Y-80450555D01*
X144863952Y-80296212D01*
X144762134Y-80156072D01*
X144639648Y-80033586D01*
X144499508Y-79931768D01*
X144345165Y-79853127D01*
X144180421Y-79799598D01*
X144180419Y-79799597D01*
X144180418Y-79799597D01*
X144048991Y-79778781D01*
X144009331Y-79772500D01*
X143836109Y-79772500D01*
X143796448Y-79778781D01*
X143665022Y-79799597D01*
X143500272Y-79853128D01*
X143345931Y-79931768D01*
X143297219Y-79967160D01*
X143205792Y-80033586D01*
X143205790Y-80033588D01*
X143205789Y-80033588D01*
X143083308Y-80156069D01*
X143083308Y-80156070D01*
X143083306Y-80156072D01*
X143065631Y-80180400D01*
X142981488Y-80296211D01*
X142902848Y-80450552D01*
X142849317Y-80615302D01*
X142822220Y-80786389D01*
X142483220Y-80786389D01*
X142456122Y-80615299D01*
X142402593Y-80450555D01*
X142323952Y-80296212D01*
X142222134Y-80156072D01*
X142099648Y-80033586D01*
X141959508Y-79931768D01*
X141805165Y-79853127D01*
X141640421Y-79799598D01*
X141640419Y-79799597D01*
X141640418Y-79799597D01*
X141508991Y-79778781D01*
X141469331Y-79772500D01*
X141296109Y-79772500D01*
X141256448Y-79778781D01*
X141125022Y-79799597D01*
X140960272Y-79853128D01*
X140805931Y-79931768D01*
X140757219Y-79967160D01*
X140665792Y-80033586D01*
X140665790Y-80033588D01*
X140665789Y-80033588D01*
X140543308Y-80156069D01*
X140543308Y-80156070D01*
X140543306Y-80156072D01*
X140525631Y-80180400D01*
X140441488Y-80296211D01*
X140362848Y-80450552D01*
X140309317Y-80615302D01*
X140282220Y-80786389D01*
X140282220Y-81281828D01*
X140273575Y-81311268D01*
X140267052Y-81341255D01*
X140263297Y-81346270D01*
X140262535Y-81348867D01*
X140245901Y-81369509D01*
X140154901Y-81460509D01*
X140093578Y-81493994D01*
X140023886Y-81489010D01*
X139967953Y-81447138D01*
X139943536Y-81381674D01*
X139943220Y-81372828D01*
X139943220Y-80786389D01*
X139921810Y-80651211D01*
X139916122Y-80615299D01*
X139862593Y-80450555D01*
X139783952Y-80296212D01*
X139682134Y-80156072D01*
X139559648Y-80033586D01*
X139419508Y-79931768D01*
X139265165Y-79853127D01*
X139100421Y-79799598D01*
X139100419Y-79799597D01*
X139100418Y-79799597D01*
X138968991Y-79778781D01*
X138929331Y-79772500D01*
X138756109Y-79772500D01*
X138716448Y-79778781D01*
X138585022Y-79799597D01*
X138420269Y-79853129D01*
X138313363Y-79907600D01*
X138289074Y-79912161D01*
X138265917Y-79920799D01*
X138255336Y-79918497D01*
X138244694Y-79920496D01*
X138221793Y-79911201D01*
X138197644Y-79905948D01*
X138184370Y-79896011D01*
X138179954Y-79894219D01*
X138169389Y-79884797D01*
X138127022Y-79842431D01*
X138098733Y-79814142D01*
X138098729Y-79814139D01*
X137690198Y-79405608D01*
X137690178Y-79405586D01*
X137598736Y-79314144D01*
X137598728Y-79314138D01*
X137534468Y-79271201D01*
X137534466Y-79271200D01*
X137527715Y-79266689D01*
X137496286Y-79245688D01*
X137415792Y-79212347D01*
X137382452Y-79198537D01*
X137382448Y-79198536D01*
X137382444Y-79198535D01*
X137285139Y-79179179D01*
X137285130Y-79179179D01*
X137261607Y-79174500D01*
X137261606Y-79174500D01*
X135303461Y-79174500D01*
X135303441Y-79174499D01*
X135297327Y-79174499D01*
X135174114Y-79174499D01*
X135073317Y-79194548D01*
X135073312Y-79194548D01*
X135053269Y-79198536D01*
X135014322Y-79214669D01*
X135014321Y-79214669D01*
X134939441Y-79245684D01*
X134939428Y-79245691D01*
X134836987Y-79314141D01*
X134836983Y-79314144D01*
X134323539Y-79827588D01*
X134262216Y-79861073D01*
X134192524Y-79856089D01*
X134188411Y-79854470D01*
X134185172Y-79853128D01*
X134020418Y-79799597D01*
X133888991Y-79778781D01*
X133849331Y-79772500D01*
X133780171Y-79772500D01*
X133713132Y-79752815D01*
X133667377Y-79700011D01*
X133657433Y-79630853D01*
X133686458Y-79567297D01*
X133692490Y-79560819D01*
X135162701Y-78090609D01*
X136741491Y-76511819D01*
X136802814Y-76478334D01*
X136829172Y-76475500D01*
X141791768Y-76475500D01*
X141791768Y-76475499D01*
X141882346Y-76457483D01*
X141912612Y-76451463D01*
X141950109Y-76435931D01*
X142026446Y-76404312D01*
X142077669Y-76370084D01*
X142079593Y-76368799D01*
X142090431Y-76361556D01*
X142128893Y-76335858D01*
X142216018Y-76248733D01*
X142216019Y-76248731D01*
X142223085Y-76241665D01*
X142223088Y-76241661D01*
X143168102Y-75296646D01*
X143229423Y-75263163D01*
X143275174Y-75261856D01*
X143413593Y-75283780D01*
X143413595Y-75283780D01*
X143626166Y-75283780D01*
X143626167Y-75283780D01*
X143836123Y-75250526D01*
X144038292Y-75184837D01*
X144227696Y-75088331D01*
X144294026Y-75040140D01*
X144399666Y-74963389D01*
X144399668Y-74963386D01*
X144399672Y-74963384D01*
X144549984Y-74813072D01*
X144549986Y-74813068D01*
X144549989Y-74813066D01*
X144674928Y-74641100D01*
X144674927Y-74641100D01*
X144674931Y-74641096D01*
X144679394Y-74632334D01*
X144727368Y-74581539D01*
X144795188Y-74564743D01*
X144861324Y-74587279D01*
X144900366Y-74632336D01*
X144904831Y-74641100D01*
X145029770Y-74813066D01*
X145180093Y-74963389D01*
X145352059Y-75088328D01*
X145352061Y-75088329D01*
X145352064Y-75088331D01*
X145541468Y-75184837D01*
X145743637Y-75250526D01*
X145953593Y-75283780D01*
X145953594Y-75283780D01*
X146166166Y-75283780D01*
X146166167Y-75283780D01*
X146376123Y-75250526D01*
X146487575Y-75214311D01*
X146557413Y-75212316D01*
X146613572Y-75244562D01*
X150464616Y-79095606D01*
X150464645Y-79095637D01*
X150554863Y-79185855D01*
X150554867Y-79185858D01*
X150657307Y-79254307D01*
X150657313Y-79254310D01*
X150657314Y-79254311D01*
X150771148Y-79301463D01*
X150815521Y-79310289D01*
X150891991Y-79325499D01*
X150891992Y-79325500D01*
X150891993Y-79325500D01*
X150891994Y-79325500D01*
X157552268Y-79325500D01*
X157619307Y-79345185D01*
X157639949Y-79361819D01*
X158295084Y-80016955D01*
X158328569Y-80078278D01*
X158323585Y-80147970D01*
X158307721Y-80177521D01*
X158221490Y-80296208D01*
X158142848Y-80450552D01*
X158089317Y-80615302D01*
X158062220Y-80786389D01*
X158062220Y-81759610D01*
X158088734Y-81927017D01*
X158089318Y-81930701D01*
X158142847Y-82095445D01*
X158221488Y-82249788D01*
X158323306Y-82389928D01*
X158445792Y-82512414D01*
X158585932Y-82614232D01*
X158740275Y-82692873D01*
X158905019Y-82746402D01*
X159076109Y-82773500D01*
X159076110Y-82773500D01*
X159249330Y-82773500D01*
X159249331Y-82773500D01*
X159420421Y-82746402D01*
X159585165Y-82692873D01*
X159739508Y-82614232D01*
X159879648Y-82512414D01*
X160002134Y-82389928D01*
X160103952Y-82249788D01*
X160182593Y-82095445D01*
X160236122Y-81930701D01*
X160263220Y-81759611D01*
X160263220Y-80786389D01*
X160236122Y-80615299D01*
X160182593Y-80450555D01*
X160103952Y-80296212D01*
X160002134Y-80156072D01*
X159879648Y-80033586D01*
X159834171Y-80000544D01*
X159791507Y-79945215D01*
X159785441Y-79924419D01*
X159764185Y-79817556D01*
X159764182Y-79817547D01*
X159762772Y-79814142D01*
X159717032Y-79703715D01*
X159648578Y-79601267D01*
X159648575Y-79601263D01*
X158859491Y-78812181D01*
X158826006Y-78750858D01*
X158830990Y-78681167D01*
X158872861Y-78625233D01*
X158938326Y-78600816D01*
X158947172Y-78600500D01*
X161113445Y-78600500D01*
X161180484Y-78620185D01*
X161226239Y-78672989D01*
X161236183Y-78742147D01*
X161231159Y-78760411D01*
X161232031Y-78760676D01*
X161230261Y-78766510D01*
X161199500Y-78921153D01*
X161199500Y-79078846D01*
X161230261Y-79233489D01*
X161230264Y-79233501D01*
X161290602Y-79379172D01*
X161290609Y-79379185D01*
X161378210Y-79510288D01*
X161378213Y-79510292D01*
X161469871Y-79601950D01*
X161503356Y-79663273D01*
X161498372Y-79732965D01*
X161456500Y-79788898D01*
X161420509Y-79807561D01*
X161400267Y-79814139D01*
X161280270Y-79853128D01*
X161125931Y-79931768D01*
X161077219Y-79967160D01*
X160985792Y-80033586D01*
X160985790Y-80033588D01*
X160985789Y-80033588D01*
X160863308Y-80156069D01*
X160863308Y-80156070D01*
X160863306Y-80156072D01*
X160845631Y-80180400D01*
X160761488Y-80296211D01*
X160682848Y-80450552D01*
X160629317Y-80615302D01*
X160602220Y-80786389D01*
X160602220Y-81759610D01*
X160628734Y-81927017D01*
X160629318Y-81930701D01*
X160682847Y-82095445D01*
X160761488Y-82249788D01*
X160863306Y-82389928D01*
X160985792Y-82512414D01*
X161125932Y-82614232D01*
X161280275Y-82692873D01*
X161445019Y-82746402D01*
X161616109Y-82773500D01*
X161616110Y-82773500D01*
X161789330Y-82773500D01*
X161789331Y-82773500D01*
X161960421Y-82746402D01*
X162125165Y-82692873D01*
X162279508Y-82614232D01*
X162419648Y-82512414D01*
X162542134Y-82389928D01*
X162643952Y-82249788D01*
X162722593Y-82095445D01*
X162776122Y-81930701D01*
X162803220Y-81759611D01*
X162803220Y-80786389D01*
X162776122Y-80615299D01*
X162722593Y-80450555D01*
X162643952Y-80296212D01*
X162542134Y-80156072D01*
X162419648Y-80033586D01*
X162299892Y-79946578D01*
X162278665Y-79919050D01*
X162257430Y-79891764D01*
X162257404Y-79891477D01*
X162257228Y-79891249D01*
X162254263Y-79856734D01*
X162251140Y-79822178D01*
X162251273Y-79821921D01*
X162251249Y-79821635D01*
X162267420Y-79790986D01*
X162283470Y-79760238D01*
X162283743Y-79760051D01*
X162283855Y-79759840D01*
X162311323Y-79738561D01*
X162318102Y-79734692D01*
X162379179Y-79709394D01*
X162477102Y-79643963D01*
X162480894Y-79641800D01*
X162510806Y-79634703D01*
X162540136Y-79625520D01*
X162542350Y-79625500D01*
X163061608Y-79625500D01*
X163061608Y-79625499D01*
X163142388Y-79609432D01*
X163182452Y-79601463D01*
X163215792Y-79587652D01*
X163296286Y-79554312D01*
X163362169Y-79510289D01*
X163398733Y-79485858D01*
X163485858Y-79398733D01*
X163485859Y-79398731D01*
X163492925Y-79391665D01*
X163492928Y-79391661D01*
X167857821Y-75026767D01*
X167919142Y-74993284D01*
X167988834Y-74998268D01*
X168044767Y-75040140D01*
X168069184Y-75105604D01*
X168069500Y-75114450D01*
X168069500Y-76397870D01*
X168069501Y-76397876D01*
X168075908Y-76457483D01*
X168126202Y-76592328D01*
X168126206Y-76592335D01*
X168212452Y-76707544D01*
X168212455Y-76707547D01*
X168327664Y-76793793D01*
X168327671Y-76793797D01*
X168462517Y-76844091D01*
X168462516Y-76844091D01*
X168469444Y-76844835D01*
X168522127Y-76850500D01*
X170317872Y-76850499D01*
X170377483Y-76844091D01*
X170512331Y-76793796D01*
X170627546Y-76707546D01*
X170713796Y-76592331D01*
X170763002Y-76460401D01*
X170804872Y-76404468D01*
X170870337Y-76380050D01*
X170938610Y-76394901D01*
X170966865Y-76416053D01*
X171080535Y-76529723D01*
X171080540Y-76529727D01*
X171252442Y-76654620D01*
X171441782Y-76751095D01*
X171643870Y-76816757D01*
X171853754Y-76850000D01*
X172066246Y-76850000D01*
X172276127Y-76816757D01*
X172276130Y-76816757D01*
X172478217Y-76751095D01*
X172667557Y-76654620D01*
X172839459Y-76529727D01*
X172839464Y-76529723D01*
X172989723Y-76379464D01*
X172989727Y-76379459D01*
X173114620Y-76207558D01*
X173119232Y-76198507D01*
X173167205Y-76147709D01*
X173235025Y-76130912D01*
X173301161Y-76153447D01*
X173340204Y-76198504D01*
X173344949Y-76207817D01*
X173469890Y-76379786D01*
X173620213Y-76530109D01*
X173792179Y-76655048D01*
X173792181Y-76655049D01*
X173792184Y-76655051D01*
X173981588Y-76751557D01*
X174183757Y-76817246D01*
X174393713Y-76850500D01*
X174393714Y-76850500D01*
X174606286Y-76850500D01*
X174606287Y-76850500D01*
X174816243Y-76817246D01*
X175018412Y-76751557D01*
X175207816Y-76655051D01*
X175294138Y-76592335D01*
X175379786Y-76530109D01*
X175379788Y-76530106D01*
X175379792Y-76530104D01*
X175530104Y-76379792D01*
X175530106Y-76379788D01*
X175530109Y-76379786D01*
X175655048Y-76207820D01*
X175655050Y-76207817D01*
X175655051Y-76207816D01*
X175751557Y-76018412D01*
X175817246Y-75816243D01*
X175850500Y-75606287D01*
X175850500Y-75393713D01*
X175817246Y-75183757D01*
X175751557Y-74981588D01*
X175655051Y-74792184D01*
X175655049Y-74792181D01*
X175655048Y-74792179D01*
X175530109Y-74620213D01*
X175379786Y-74469890D01*
X175207820Y-74344951D01*
X175018414Y-74248444D01*
X175018413Y-74248443D01*
X175018412Y-74248443D01*
X174816243Y-74182754D01*
X174816241Y-74182753D01*
X174816240Y-74182753D01*
X174654957Y-74157208D01*
X174606287Y-74149500D01*
X174393713Y-74149500D01*
X174351721Y-74156150D01*
X174183753Y-74182754D01*
X174168160Y-74187821D01*
X174098319Y-74189816D01*
X174042162Y-74157571D01*
X173395822Y-73511232D01*
X173385859Y-73501269D01*
X173385858Y-73501267D01*
X173298733Y-73414142D01*
X173247509Y-73379915D01*
X173196286Y-73345688D01*
X173196283Y-73345686D01*
X173196282Y-73345686D01*
X173196280Y-73345685D01*
X173120664Y-73314364D01*
X173120655Y-73314361D01*
X173113725Y-73311491D01*
X173082452Y-73298537D01*
X173022029Y-73286518D01*
X173017446Y-73285606D01*
X173017441Y-73285605D01*
X172961610Y-73274500D01*
X172961607Y-73274500D01*
X172961606Y-73274500D01*
X168161607Y-73274500D01*
X168038393Y-73274500D01*
X168038389Y-73274500D01*
X167985492Y-73285022D01*
X167977971Y-73286518D01*
X167934743Y-73295116D01*
X167917546Y-73298537D01*
X167803716Y-73345687D01*
X167803707Y-73345692D01*
X167701268Y-73414140D01*
X167657705Y-73457703D01*
X167614142Y-73501267D01*
X164780095Y-76335314D01*
X164718772Y-76368799D01*
X164649080Y-76363815D01*
X164593147Y-76321943D01*
X164570796Y-76271823D01*
X164569738Y-76266502D01*
X164509394Y-76120821D01*
X164509392Y-76120818D01*
X164509390Y-76120814D01*
X164421789Y-75989709D01*
X164310290Y-75878210D01*
X164179185Y-75790609D01*
X164179175Y-75790604D01*
X164033498Y-75730262D01*
X164033490Y-75730260D01*
X163878847Y-75699500D01*
X163878843Y-75699500D01*
X163721158Y-75699500D01*
X163721153Y-75699500D01*
X163566510Y-75730260D01*
X163566502Y-75730262D01*
X163420824Y-75790604D01*
X163420814Y-75790609D01*
X163289711Y-75878210D01*
X163289707Y-75878213D01*
X162204741Y-76963181D01*
X162143418Y-76996666D01*
X162117060Y-76999500D01*
X152849540Y-76999500D01*
X152782501Y-76979815D01*
X152761859Y-76963181D01*
X149979723Y-74181045D01*
X149946238Y-74119722D01*
X149944931Y-74073967D01*
X149950380Y-74039567D01*
X149950380Y-73826993D01*
X149917126Y-73617037D01*
X149851437Y-73414868D01*
X149775170Y-73265186D01*
X158599500Y-73265186D01*
X158599500Y-73534813D01*
X158629686Y-73802719D01*
X158629687Y-73802728D01*
X158629688Y-73802732D01*
X158635444Y-73827951D01*
X158689684Y-74065594D01*
X158689687Y-74065602D01*
X158778734Y-74320082D01*
X158895714Y-74562994D01*
X158895716Y-74562997D01*
X159039162Y-74791289D01*
X159207266Y-75002085D01*
X159397915Y-75192734D01*
X159608711Y-75360838D01*
X159837003Y-75504284D01*
X160079921Y-75621267D01*
X160271049Y-75688145D01*
X160334397Y-75710312D01*
X160334405Y-75710315D01*
X160334408Y-75710315D01*
X160334409Y-75710316D01*
X160597268Y-75770312D01*
X160865187Y-75800499D01*
X160865188Y-75800500D01*
X160865191Y-75800500D01*
X161134812Y-75800500D01*
X161134812Y-75800499D01*
X161402732Y-75770312D01*
X161665591Y-75710316D01*
X161920079Y-75621267D01*
X162162997Y-75504284D01*
X162391289Y-75360838D01*
X162602085Y-75192734D01*
X162792734Y-75002085D01*
X162960838Y-74791289D01*
X163104284Y-74562997D01*
X163221267Y-74320079D01*
X163310316Y-74065591D01*
X163370312Y-73802732D01*
X163400500Y-73534809D01*
X163400500Y-73265191D01*
X163400499Y-73265186D01*
X182399500Y-73265186D01*
X182399500Y-73534813D01*
X182429686Y-73802719D01*
X182429687Y-73802728D01*
X182429688Y-73802732D01*
X182435444Y-73827951D01*
X182489684Y-74065594D01*
X182489687Y-74065602D01*
X182578734Y-74320082D01*
X182695714Y-74562994D01*
X182695716Y-74562997D01*
X182839162Y-74791289D01*
X183007266Y-75002085D01*
X183197915Y-75192734D01*
X183408711Y-75360838D01*
X183637003Y-75504284D01*
X183879921Y-75621267D01*
X184071049Y-75688145D01*
X184134397Y-75710312D01*
X184134405Y-75710315D01*
X184134408Y-75710315D01*
X184134409Y-75710316D01*
X184397268Y-75770312D01*
X184665187Y-75800499D01*
X184665188Y-75800500D01*
X184665191Y-75800500D01*
X184934812Y-75800500D01*
X184934812Y-75800499D01*
X185202732Y-75770312D01*
X185465591Y-75710316D01*
X185720079Y-75621267D01*
X185962997Y-75504284D01*
X186191289Y-75360838D01*
X186402085Y-75192734D01*
X186592734Y-75002085D01*
X186760838Y-74791289D01*
X186904284Y-74562997D01*
X187021267Y-74320079D01*
X187110316Y-74065591D01*
X187170312Y-73802732D01*
X187200500Y-73534809D01*
X187200500Y-73265191D01*
X187170312Y-72997268D01*
X187110316Y-72734409D01*
X187021267Y-72479921D01*
X186904284Y-72237003D01*
X186760838Y-72008711D01*
X186592734Y-71797915D01*
X186402085Y-71607266D01*
X186191289Y-71439162D01*
X185962997Y-71295716D01*
X185962994Y-71295714D01*
X185720082Y-71178734D01*
X185465602Y-71089687D01*
X185465594Y-71089684D01*
X185268446Y-71044687D01*
X185202732Y-71029688D01*
X185202728Y-71029687D01*
X185202719Y-71029686D01*
X184934813Y-70999500D01*
X184934809Y-70999500D01*
X184665191Y-70999500D01*
X184665186Y-70999500D01*
X184397280Y-71029686D01*
X184397268Y-71029688D01*
X184134405Y-71089684D01*
X184134397Y-71089687D01*
X183879917Y-71178734D01*
X183637005Y-71295714D01*
X183408712Y-71439161D01*
X183197915Y-71607265D01*
X183007265Y-71797915D01*
X182839161Y-72008712D01*
X182695714Y-72237005D01*
X182578734Y-72479917D01*
X182489687Y-72734397D01*
X182489684Y-72734405D01*
X182429688Y-72997268D01*
X182429686Y-72997280D01*
X182399500Y-73265186D01*
X163400499Y-73265186D01*
X163370312Y-72997268D01*
X163310316Y-72734409D01*
X163221267Y-72479921D01*
X163104284Y-72237003D01*
X162960838Y-72008711D01*
X162792734Y-71797915D01*
X162602085Y-71607266D01*
X162391289Y-71439162D01*
X162162997Y-71295716D01*
X162162994Y-71295714D01*
X161920082Y-71178734D01*
X161665602Y-71089687D01*
X161665594Y-71089684D01*
X161468446Y-71044687D01*
X161402732Y-71029688D01*
X161402728Y-71029687D01*
X161402719Y-71029686D01*
X161134813Y-70999500D01*
X161134809Y-70999500D01*
X160865191Y-70999500D01*
X160865186Y-70999500D01*
X160597280Y-71029686D01*
X160597268Y-71029688D01*
X160334405Y-71089684D01*
X160334397Y-71089687D01*
X160079917Y-71178734D01*
X159837005Y-71295714D01*
X159608712Y-71439161D01*
X159397915Y-71607265D01*
X159207265Y-71797915D01*
X159039161Y-72008712D01*
X158895714Y-72237005D01*
X158778734Y-72479917D01*
X158689687Y-72734397D01*
X158689684Y-72734405D01*
X158629688Y-72997268D01*
X158629686Y-72997280D01*
X158599500Y-73265186D01*
X149775170Y-73265186D01*
X149754931Y-73225464D01*
X149716122Y-73172047D01*
X149629989Y-73053493D01*
X149479666Y-72903170D01*
X149307700Y-72778231D01*
X149118294Y-72681724D01*
X149118293Y-72681723D01*
X149118292Y-72681723D01*
X148916123Y-72616034D01*
X148916121Y-72616033D01*
X148916120Y-72616033D01*
X148754837Y-72590488D01*
X148706167Y-72582780D01*
X148493593Y-72582780D01*
X148493591Y-72582780D01*
X148459190Y-72588228D01*
X148389896Y-72579272D01*
X148352113Y-72553435D01*
X146976891Y-71178212D01*
X146976888Y-71178210D01*
X146845785Y-71090609D01*
X146845772Y-71090602D01*
X146700101Y-71030264D01*
X146700089Y-71030261D01*
X146545445Y-70999500D01*
X146545442Y-70999500D01*
X135699002Y-70999500D01*
X135541317Y-70999500D01*
X135541314Y-70999500D01*
X135386669Y-71030261D01*
X135386657Y-71030264D01*
X135343992Y-71047936D01*
X135343993Y-71047937D01*
X135240983Y-71090604D01*
X135240974Y-71090609D01*
X135109872Y-71178209D01*
X135109870Y-71178212D01*
X133717280Y-72570800D01*
X133655957Y-72604285D01*
X133610201Y-72605592D01*
X133466172Y-72582780D01*
X133466167Y-72582780D01*
X133253593Y-72582780D01*
X133204922Y-72590488D01*
X133043640Y-72616033D01*
X132841465Y-72681724D01*
X132652059Y-72778231D01*
X132480095Y-72903169D01*
X132366165Y-73017099D01*
X132304842Y-73050583D01*
X132235150Y-73045599D01*
X132179217Y-73003727D01*
X132162302Y-72972750D01*
X132113234Y-72841193D01*
X132113230Y-72841186D01*
X132027070Y-72726092D01*
X132027067Y-72726089D01*
X131911973Y-72639929D01*
X131911966Y-72639925D01*
X131777259Y-72589683D01*
X131777252Y-72589681D01*
X131717724Y-72583280D01*
X129922035Y-72583280D01*
X129862507Y-72589681D01*
X129862500Y-72589683D01*
X129727793Y-72639925D01*
X129727786Y-72639929D01*
X129612692Y-72726089D01*
X129612689Y-72726092D01*
X129526529Y-72841186D01*
X129526525Y-72841193D01*
X129476283Y-72975900D01*
X129476281Y-72975907D01*
X129469880Y-73035435D01*
X129469880Y-74831124D01*
X129476281Y-74890652D01*
X129476283Y-74890659D01*
X129526525Y-75025366D01*
X129526529Y-75025373D01*
X129612689Y-75140467D01*
X129612692Y-75140470D01*
X129727786Y-75226630D01*
X129727793Y-75226634D01*
X129862500Y-75276876D01*
X129862507Y-75276878D01*
X129922035Y-75283279D01*
X129922052Y-75283280D01*
X130705439Y-75283280D01*
X130772478Y-75302965D01*
X130818233Y-75355769D01*
X130828177Y-75424927D01*
X130799152Y-75488483D01*
X130793120Y-75494961D01*
X128823541Y-77464541D01*
X128762218Y-77498026D01*
X128735860Y-77500860D01*
X126495513Y-77500860D01*
X126340870Y-77531620D01*
X126340862Y-77531622D01*
X126195184Y-77591964D01*
X126195174Y-77591969D01*
X126064071Y-77679570D01*
X126064067Y-77679573D01*
X123976957Y-79766683D01*
X123915634Y-79800168D01*
X123865348Y-79799630D01*
X123865233Y-79800360D01*
X123780830Y-79786992D01*
X123689331Y-79772500D01*
X123516109Y-79772500D01*
X123476448Y-79778781D01*
X123345022Y-79799597D01*
X123180272Y-79853128D01*
X123025931Y-79931768D01*
X122977219Y-79967160D01*
X122885792Y-80033586D01*
X122885790Y-80033588D01*
X122885789Y-80033588D01*
X122763308Y-80156069D01*
X122763308Y-80156070D01*
X122763306Y-80156072D01*
X122745631Y-80180400D01*
X122661486Y-80296213D01*
X122606163Y-80404794D01*
X122595713Y-80415858D01*
X122589391Y-80429703D01*
X122572211Y-80440743D01*
X122558189Y-80455591D01*
X122542507Y-80459832D01*
X122530613Y-80467477D01*
X122495678Y-80472500D01*
X122287219Y-80472500D01*
X122220180Y-80452815D01*
X122174425Y-80400011D01*
X122163219Y-80348500D01*
X122163219Y-80225129D01*
X122163218Y-80225123D01*
X122163217Y-80225116D01*
X122156811Y-80165517D01*
X122153288Y-80156072D01*
X122106517Y-80030671D01*
X122106513Y-80030664D01*
X122020267Y-79915455D01*
X122020264Y-79915452D01*
X121905055Y-79829206D01*
X121905048Y-79829202D01*
X121770202Y-79778908D01*
X121770203Y-79778908D01*
X121710603Y-79772501D01*
X121710601Y-79772500D01*
X121710593Y-79772500D01*
X121710584Y-79772500D01*
X120414849Y-79772500D01*
X120414843Y-79772501D01*
X120355236Y-79778908D01*
X120220391Y-79829202D01*
X120220384Y-79829206D01*
X120105175Y-79915452D01*
X120105172Y-79915455D01*
X120018926Y-80030664D01*
X120018922Y-80030671D01*
X119968628Y-80165517D01*
X119964360Y-80205220D01*
X119962221Y-80225123D01*
X119962220Y-80225135D01*
X119962220Y-80348500D01*
X119942535Y-80415539D01*
X119889731Y-80461294D01*
X119838220Y-80472500D01*
X115318155Y-80472500D01*
X115163510Y-80503261D01*
X115163498Y-80503264D01*
X115017827Y-80563602D01*
X115017814Y-80563609D01*
X114886711Y-80651210D01*
X114886707Y-80651213D01*
X114341397Y-81196524D01*
X114280074Y-81230009D01*
X114210382Y-81225025D01*
X114154449Y-81183153D01*
X114130032Y-81117689D01*
X114129716Y-81108843D01*
X114129716Y-80881902D01*
X114092769Y-80648631D01*
X114045536Y-80503264D01*
X114019784Y-80424008D01*
X114019782Y-80424005D01*
X114019782Y-80424003D01*
X113957234Y-80301246D01*
X113912559Y-80213567D01*
X113773733Y-80022490D01*
X113606726Y-79855483D01*
X113415649Y-79716657D01*
X113205212Y-79609433D01*
X112980584Y-79536446D01*
X112747313Y-79499500D01*
X112747308Y-79499500D01*
X112511124Y-79499500D01*
X112511119Y-79499500D01*
X112277846Y-79536447D01*
X112178335Y-79568780D01*
X112108493Y-79570775D01*
X112052336Y-79538530D01*
X109722366Y-77208560D01*
X109715076Y-77201270D01*
X109715074Y-77201267D01*
X109627949Y-77114142D01*
X109576725Y-77079915D01*
X109525502Y-77045688D01*
X109525499Y-77045686D01*
X109525496Y-77045685D01*
X109451819Y-77015168D01*
X109451817Y-77015167D01*
X109445008Y-77012347D01*
X109411668Y-76998537D01*
X109351245Y-76986518D01*
X109346522Y-76985578D01*
X109346520Y-76985578D01*
X109290826Y-76974500D01*
X109290823Y-76974500D01*
X109290822Y-76974500D01*
X99661607Y-76974500D01*
X99538393Y-76974500D01*
X99538389Y-76974500D01*
X99487535Y-76984615D01*
X99487530Y-76984616D01*
X99477971Y-76986518D01*
X99417548Y-76998537D01*
X99370397Y-77018067D01*
X99303715Y-77045688D01*
X99303714Y-77045689D01*
X99281347Y-77060633D01*
X99281344Y-77060635D01*
X99201268Y-77114140D01*
X99157705Y-77157703D01*
X99114142Y-77201267D01*
X92714141Y-83601267D01*
X92714138Y-83601271D01*
X92704893Y-83615108D01*
X92704884Y-83615122D01*
X92703263Y-83617549D01*
X92645688Y-83703714D01*
X92636249Y-83726503D01*
X92632708Y-83735049D01*
X92632705Y-83735056D01*
X92598538Y-83817544D01*
X92598535Y-83817556D01*
X92574500Y-83938389D01*
X90500500Y-83938389D01*
X90500500Y-78897648D01*
X92579500Y-78897648D01*
X92579500Y-79102351D01*
X92611522Y-79304534D01*
X92674781Y-79499223D01*
X92736415Y-79620185D01*
X92763320Y-79672989D01*
X92767715Y-79681613D01*
X92888028Y-79847213D01*
X93032786Y-79991971D01*
X93151580Y-80078278D01*
X93198390Y-80112287D01*
X93284317Y-80156069D01*
X93380776Y-80205218D01*
X93380778Y-80205218D01*
X93380781Y-80205220D01*
X93465827Y-80232853D01*
X93575465Y-80268477D01*
X93676557Y-80284488D01*
X93777648Y-80300500D01*
X93777649Y-80300500D01*
X93982351Y-80300500D01*
X93982352Y-80300500D01*
X94184534Y-80268477D01*
X94379219Y-80205220D01*
X94561610Y-80112287D01*
X94673946Y-80030671D01*
X94727213Y-79991971D01*
X94727215Y-79991968D01*
X94727219Y-79991966D01*
X94871966Y-79847219D01*
X94871968Y-79847215D01*
X94871971Y-79847213D01*
X94926252Y-79772500D01*
X94992287Y-79681610D01*
X95085220Y-79499219D01*
X95148477Y-79304534D01*
X95180500Y-79102352D01*
X95180500Y-78897648D01*
X95166963Y-78812181D01*
X95148477Y-78695465D01*
X95085218Y-78500776D01*
X95036822Y-78405795D01*
X94992287Y-78318390D01*
X94958863Y-78272385D01*
X94871971Y-78152786D01*
X94727213Y-78008028D01*
X94561613Y-77887715D01*
X94561612Y-77887714D01*
X94561610Y-77887713D01*
X94504653Y-77858691D01*
X94379223Y-77794781D01*
X94184534Y-77731522D01*
X94009995Y-77703878D01*
X93982352Y-77699500D01*
X93777648Y-77699500D01*
X93753329Y-77703351D01*
X93575465Y-77731522D01*
X93380776Y-77794781D01*
X93198386Y-77887715D01*
X93032786Y-78008028D01*
X92888028Y-78152786D01*
X92767715Y-78318386D01*
X92674781Y-78500776D01*
X92611522Y-78695465D01*
X92579500Y-78897648D01*
X90500500Y-78897648D01*
X90500500Y-73265186D01*
X90799500Y-73265186D01*
X90799500Y-73534813D01*
X90829686Y-73802719D01*
X90829687Y-73802728D01*
X90829688Y-73802732D01*
X90835444Y-73827951D01*
X90889684Y-74065594D01*
X90889687Y-74065602D01*
X90978734Y-74320082D01*
X91095714Y-74562994D01*
X91095716Y-74562997D01*
X91239162Y-74791289D01*
X91407266Y-75002085D01*
X91597915Y-75192734D01*
X91808711Y-75360838D01*
X92037003Y-75504284D01*
X92279921Y-75621267D01*
X92471049Y-75688145D01*
X92534397Y-75710312D01*
X92534405Y-75710315D01*
X92534408Y-75710315D01*
X92534409Y-75710316D01*
X92797268Y-75770312D01*
X93065187Y-75800499D01*
X93065188Y-75800500D01*
X93065191Y-75800500D01*
X93334812Y-75800500D01*
X93334812Y-75800499D01*
X93602732Y-75770312D01*
X93865591Y-75710316D01*
X94120079Y-75621267D01*
X94362997Y-75504284D01*
X94591289Y-75360838D01*
X94802085Y-75192734D01*
X94992734Y-75002085D01*
X95160838Y-74791289D01*
X95304284Y-74562997D01*
X95421267Y-74320079D01*
X95510316Y-74065591D01*
X95570312Y-73802732D01*
X95600500Y-73534809D01*
X95600500Y-73389778D01*
X100059500Y-73389778D01*
X100059500Y-73610222D01*
X100060580Y-73617040D01*
X100093985Y-73827952D01*
X100162103Y-74037603D01*
X100162104Y-74037606D01*
X100212428Y-74136369D01*
X100250608Y-74211302D01*
X100262187Y-74234025D01*
X100391752Y-74412358D01*
X100391756Y-74412363D01*
X100547636Y-74568243D01*
X100547641Y-74568247D01*
X100703192Y-74681260D01*
X100725978Y-74697815D01*
X100842501Y-74757187D01*
X100922393Y-74797895D01*
X100922396Y-74797896D01*
X100975312Y-74815089D01*
X101132049Y-74866015D01*
X101349778Y-74900500D01*
X101349779Y-74900500D01*
X101570221Y-74900500D01*
X101570222Y-74900500D01*
X101787951Y-74866015D01*
X101997606Y-74797895D01*
X102194022Y-74697815D01*
X102372365Y-74568242D01*
X102422924Y-74517682D01*
X102484245Y-74484198D01*
X102553936Y-74489182D01*
X102609870Y-74531053D01*
X102626786Y-74562030D01*
X102656646Y-74642087D01*
X102656649Y-74642093D01*
X102742809Y-74757187D01*
X102742812Y-74757190D01*
X102857906Y-74843350D01*
X102857913Y-74843354D01*
X102992620Y-74893596D01*
X102992627Y-74893598D01*
X103052155Y-74899999D01*
X103052172Y-74900000D01*
X104947828Y-74900000D01*
X104947844Y-74899999D01*
X105007372Y-74893598D01*
X105007379Y-74893596D01*
X105142086Y-74843354D01*
X105142093Y-74843350D01*
X105257187Y-74757190D01*
X105257190Y-74757187D01*
X105343350Y-74642093D01*
X105343354Y-74642086D01*
X105393596Y-74507379D01*
X105393598Y-74507372D01*
X105399999Y-74447844D01*
X105400000Y-74447827D01*
X105400000Y-73265186D01*
X115099500Y-73265186D01*
X115099500Y-73534813D01*
X115129686Y-73802719D01*
X115129687Y-73802728D01*
X115129688Y-73802732D01*
X115135444Y-73827951D01*
X115189684Y-74065594D01*
X115189687Y-74065602D01*
X115278734Y-74320082D01*
X115395714Y-74562994D01*
X115395716Y-74562997D01*
X115539162Y-74791289D01*
X115707266Y-75002085D01*
X115897915Y-75192734D01*
X116108711Y-75360838D01*
X116337003Y-75504284D01*
X116579921Y-75621267D01*
X116771049Y-75688145D01*
X116834397Y-75710312D01*
X116834405Y-75710315D01*
X116834408Y-75710315D01*
X116834409Y-75710316D01*
X117097268Y-75770312D01*
X117365187Y-75800499D01*
X117365188Y-75800500D01*
X117365191Y-75800500D01*
X117634812Y-75800500D01*
X117634812Y-75800499D01*
X117902732Y-75770312D01*
X118165591Y-75710316D01*
X118420079Y-75621267D01*
X118662997Y-75504284D01*
X118891289Y-75360838D01*
X119102085Y-75192734D01*
X119292734Y-75002085D01*
X119460838Y-74791289D01*
X119604284Y-74562997D01*
X119721267Y-74320079D01*
X119810316Y-74065591D01*
X119870312Y-73802732D01*
X119900500Y-73534809D01*
X119900500Y-73265191D01*
X119870312Y-72997268D01*
X119810316Y-72734409D01*
X119721267Y-72479921D01*
X119604284Y-72237003D01*
X119460838Y-72008711D01*
X119292734Y-71797915D01*
X119102085Y-71607266D01*
X118891289Y-71439162D01*
X118662997Y-71295716D01*
X118662994Y-71295714D01*
X118420082Y-71178734D01*
X118165602Y-71089687D01*
X118165594Y-71089684D01*
X117968446Y-71044687D01*
X117902732Y-71029688D01*
X117902728Y-71029687D01*
X117902719Y-71029686D01*
X117634813Y-70999500D01*
X117634809Y-70999500D01*
X117365191Y-70999500D01*
X117365186Y-70999500D01*
X117097280Y-71029686D01*
X117097268Y-71029688D01*
X116834405Y-71089684D01*
X116834397Y-71089687D01*
X116579917Y-71178734D01*
X116337005Y-71295714D01*
X116108712Y-71439161D01*
X115897915Y-71607265D01*
X115707265Y-71797915D01*
X115539161Y-72008712D01*
X115395714Y-72237005D01*
X115278734Y-72479917D01*
X115189687Y-72734397D01*
X115189684Y-72734405D01*
X115129688Y-72997268D01*
X115129686Y-72997280D01*
X115099500Y-73265186D01*
X105400000Y-73265186D01*
X105400000Y-72552172D01*
X105399999Y-72552155D01*
X105393598Y-72492627D01*
X105393596Y-72492620D01*
X105343354Y-72357913D01*
X105343350Y-72357906D01*
X105257190Y-72242812D01*
X105257187Y-72242809D01*
X105142093Y-72156649D01*
X105142086Y-72156645D01*
X105007379Y-72106403D01*
X105007372Y-72106401D01*
X104947844Y-72100000D01*
X103052155Y-72100000D01*
X102992627Y-72106401D01*
X102992620Y-72106403D01*
X102857913Y-72156645D01*
X102857906Y-72156649D01*
X102742812Y-72242809D01*
X102742809Y-72242812D01*
X102656649Y-72357906D01*
X102656643Y-72357918D01*
X102626785Y-72437969D01*
X102584914Y-72493903D01*
X102519449Y-72518319D01*
X102451176Y-72503467D01*
X102422923Y-72482316D01*
X102372363Y-72431756D01*
X102372358Y-72431752D01*
X102194025Y-72302187D01*
X102194024Y-72302186D01*
X102194022Y-72302185D01*
X102131096Y-72270122D01*
X101997606Y-72202104D01*
X101997603Y-72202103D01*
X101787952Y-72133985D01*
X101679086Y-72116742D01*
X101570222Y-72099500D01*
X101349778Y-72099500D01*
X101277201Y-72110995D01*
X101132047Y-72133985D01*
X100922396Y-72202103D01*
X100922393Y-72202104D01*
X100725974Y-72302187D01*
X100547641Y-72431752D01*
X100547636Y-72431756D01*
X100391756Y-72587636D01*
X100391752Y-72587641D01*
X100262187Y-72765974D01*
X100162104Y-72962393D01*
X100162103Y-72962396D01*
X100093985Y-73172047D01*
X100063454Y-73364814D01*
X100059500Y-73389778D01*
X95600500Y-73389778D01*
X95600500Y-73265191D01*
X95570312Y-72997268D01*
X95510316Y-72734409D01*
X95421267Y-72479921D01*
X95304284Y-72237003D01*
X95160838Y-72008711D01*
X94992734Y-71797915D01*
X94802085Y-71607266D01*
X94591289Y-71439162D01*
X94362997Y-71295716D01*
X94362994Y-71295714D01*
X94120082Y-71178734D01*
X93865602Y-71089687D01*
X93865594Y-71089684D01*
X93668446Y-71044687D01*
X93602732Y-71029688D01*
X93602728Y-71029687D01*
X93602719Y-71029686D01*
X93334813Y-70999500D01*
X93334809Y-70999500D01*
X93065191Y-70999500D01*
X93065186Y-70999500D01*
X92797280Y-71029686D01*
X92797268Y-71029688D01*
X92534405Y-71089684D01*
X92534397Y-71089687D01*
X92279917Y-71178734D01*
X92037005Y-71295714D01*
X91808712Y-71439161D01*
X91597915Y-71607265D01*
X91407265Y-71797915D01*
X91239161Y-72008712D01*
X91095714Y-72237005D01*
X90978734Y-72479917D01*
X90889687Y-72734397D01*
X90889684Y-72734405D01*
X90829688Y-72997268D01*
X90829686Y-72997280D01*
X90799500Y-73265186D01*
X90500500Y-73265186D01*
X90500500Y-72004427D01*
X90500816Y-71995581D01*
X90511318Y-71848748D01*
X90515130Y-71795436D01*
X90517646Y-71777938D01*
X90559356Y-71586200D01*
X90564335Y-71569242D01*
X90632911Y-71385382D01*
X90640251Y-71369310D01*
X90734294Y-71197083D01*
X90743850Y-71182214D01*
X90861443Y-71025128D01*
X90873017Y-71011771D01*
X91011771Y-70873017D01*
X91025128Y-70861443D01*
X91182214Y-70743850D01*
X91197083Y-70734294D01*
X91369310Y-70640251D01*
X91385382Y-70632911D01*
X91569242Y-70564335D01*
X91586200Y-70559356D01*
X91777938Y-70517646D01*
X91795436Y-70515130D01*
X91995582Y-70500816D01*
X92004428Y-70500500D01*
X92065892Y-70500500D01*
X185934108Y-70500500D01*
X185995572Y-70500500D01*
X186004418Y-70500816D01*
G37*
%TD.AperFunction*%
%TD*%
M02*
